<?xml version="1.0" encoding="utf-8" standalone="no"?>
<!DOCTYPE svg PUBLIC "-//W3C//DTD SVG 1.1//EN"
  "http://www.w3.org/Graphics/SVG/1.1/DTD/svg11.dtd">
<svg xmlns:xlink="http://www.w3.org/1999/xlink" width="467.99941pt" height="295.2pt" viewBox="0 0 467.99941 295.2" xmlns="http://www.w3.org/2000/svg" version="1.1">
 <metadata>
  <rdf:RDF xmlns:dc="http://purl.org/dc/elements/1.1/" xmlns:cc="http://creativecommons.org/ns#" xmlns:rdf="http://www.w3.org/1999/02/22-rdf-syntax-ns#">
   <cc:Work>
    <dc:type rdf:resource="http://purl.org/dc/dcmitype/StillImage"/>
    <dc:date>2025-11-13T16:01:39.750038</dc:date>
    <dc:format>image/svg+xml</dc:format>
    <dc:creator>
     <cc:Agent>
      <dc:title>Matplotlib v3.8.4, https://matplotlib.org/</dc:title>
     </cc:Agent>
    </dc:creator>
   </cc:Work>
  </rdf:RDF>
 </metadata>
 <defs>
  <style type="text/css">*{stroke-linejoin: round; stroke-linecap: butt}</style>
 </defs>
 <g id="figure_1">
  <g id="patch_1">
   <path d="M 0 295.2 
L 467.99941 295.2 
L 467.99941 0 
L 0 0 
z
" style="fill: #ffffff"/>
  </g>
  <g id="axes_1">
   <g id="patch_2">
    <path d="M 40.7125 118.015 
L 219.458722 118.015 
L 219.458722 10.239375 
L 40.7125 10.239375 
z
" style="fill: #ffffff"/>
   </g>
   <g id="patch_3">
    <path d="M 209.031859 118.015 
L 212.010962 118.015 
L 212.010962 103.88172 
L 209.031859 103.88172 
z
" clip-path="url(#p73f4f4de64)"/>
   </g>
   <g id="patch_4">
    <path d="M 197.115444 118.015 
L 200.094548 118.015 
L 200.094548 104.217707 
L 197.115444 104.217707 
z
" clip-path="url(#p73f4f4de64)"/>
   </g>
   <g id="patch_5">
    <path d="M 185.199029 118.015 
L 188.178133 118.015 
L 188.178133 104.455721 
L 185.199029 104.455721 
z
" clip-path="url(#p73f4f4de64)"/>
   </g>
   <g id="patch_6">
    <path d="M 173.282614 118.015 
L 176.261718 118.015 
L 176.261718 105.050276 
L 173.282614 105.050276 
z
" clip-path="url(#p73f4f4de64)"/>
   </g>
   <g id="patch_7">
    <path d="M 161.3662 118.015 
L 164.345303 118.015 
L 164.345303 105.16553 
L 161.3662 105.16553 
z
" clip-path="url(#p73f4f4de64)"/>
   </g>
   <g id="patch_8">
    <path d="M 149.449785 118.015 
L 152.428889 118.015 
L 152.428889 104.415447 
L 149.449785 104.415447 
z
" clip-path="url(#p73f4f4de64)"/>
   </g>
   <g id="patch_9">
    <path d="M 137.53337 118.015 
L 140.512474 118.015 
L 140.512474 104.629061 
L 137.53337 104.629061 
z
" clip-path="url(#p73f4f4de64)"/>
   </g>
   <g id="patch_10">
    <path d="M 125.616955 118.015 
L 128.596059 118.015 
L 128.596059 104.969064 
L 125.616955 104.969064 
z
" clip-path="url(#p73f4f4de64)"/>
   </g>
   <g id="patch_11">
    <path d="M 113.700541 118.015 
L 116.679644 118.015 
L 116.679644 105.555156 
L 113.700541 105.555156 
z
" clip-path="url(#p73f4f4de64)"/>
   </g>
   <g id="patch_12">
    <path d="M 101.784126 118.015 
L 104.763229 118.015 
L 104.763229 105.689794 
L 101.784126 105.689794 
z
" clip-path="url(#p73f4f4de64)"/>
   </g>
   <g id="patch_13">
    <path d="M 89.867711 118.015 
L 92.846815 118.015 
L 92.846815 104.796257 
L 89.867711 104.796257 
z
" clip-path="url(#p73f4f4de64)"/>
   </g>
   <g id="patch_14">
    <path d="M 77.951296 118.015 
L 80.9304 118.015 
L 80.9304 105.465699 
L 77.951296 105.465699 
z
" clip-path="url(#p73f4f4de64)"/>
   </g>
   <g id="patch_15">
    <path d="M 66.034881 118.015 
L 69.013985 118.015 
L 69.013985 105.323276 
L 66.034881 105.323276 
z
" clip-path="url(#p73f4f4de64)"/>
   </g>
   <g id="patch_16">
    <path d="M 54.118467 118.015 
L 57.09757 118.015 
L 57.09757 105.526636 
L 54.118467 105.526636 
z
" clip-path="url(#p73f4f4de64)"/>
   </g>
   <g id="patch_17">
    <path d="M 42.202052 118.015 
L 45.181156 118.015 
L 45.181156 106.149485 
L 42.202052 106.149485 
z
" clip-path="url(#p73f4f4de64)"/>
   </g>
   <g id="patch_18">
    <path d="M 212.010962 118.015 
L 214.990066 118.015 
L 214.990066 41.411199 
L 212.010962 41.411199 
z
" clip-path="url(#p73f4f4de64)" style="fill: #2255a0; fill-opacity: 0.501961"/>
   </g>
   <g id="patch_19">
    <path d="M 200.094548 118.015 
L 203.073651 118.015 
L 203.073651 55.993679 
L 200.094548 55.993679 
z
" clip-path="url(#p73f4f4de64)" style="fill: #2255a0; fill-opacity: 0.501961"/>
   </g>
   <g id="patch_20">
    <path d="M 188.178133 118.015 
L 191.157237 118.015 
L 191.157237 66.650743 
L 188.178133 66.650743 
z
" clip-path="url(#p73f4f4de64)" style="fill: #2255a0; fill-opacity: 0.501961"/>
   </g>
   <g id="patch_21">
    <path d="M 176.261718 118.015 
L 179.240822 118.015 
L 179.240822 77.823187 
L 176.261718 77.823187 
z
" clip-path="url(#p73f4f4de64)" style="fill: #2255a0; fill-opacity: 0.501961"/>
   </g>
   <g id="patch_22">
    <path d="M 164.345303 118.015 
L 167.324407 118.015 
L 167.324407 86.106061 
L 164.345303 86.106061 
z
" clip-path="url(#p73f4f4de64)" style="fill: #2255a0; fill-opacity: 0.501961"/>
   </g>
   <g id="patch_23">
    <path d="M 152.428889 118.015 
L 155.407992 118.015 
L 155.407992 92.750929 
L 152.428889 92.750929 
z
" clip-path="url(#p73f4f4de64)" style="fill: #2255a0; fill-opacity: 0.501961"/>
   </g>
   <g id="patch_24">
    <path d="M 140.512474 118.015 
L 143.491577 118.015 
L 143.491577 100.843484 
L 140.512474 100.843484 
z
" clip-path="url(#p73f4f4de64)" style="fill: #2255a0; fill-opacity: 0.501961"/>
   </g>
   <g id="patch_25">
    <path d="M 128.596059 118.015 
L 131.575163 118.015 
L 131.575163 106.008863 
L 128.596059 106.008863 
z
" clip-path="url(#p73f4f4de64)" style="fill: #2255a0; fill-opacity: 0.501961"/>
   </g>
   <g id="patch_26">
    <path d="M 116.679644 118.015 
L 119.658748 118.015 
L 119.658748 109.14694 
L 116.679644 109.14694 
z
" clip-path="url(#p73f4f4de64)" style="fill: #2255a0; fill-opacity: 0.501961"/>
   </g>
   <g id="patch_27">
    <path d="M 104.763229 118.015 
L 107.742333 118.015 
L 107.742333 110.75147 
L 104.763229 110.75147 
z
" clip-path="url(#p73f4f4de64)" style="fill: #2255a0; fill-opacity: 0.501961"/>
   </g>
   <g id="patch_28">
    <path d="M 92.846815 118.015 
L 95.825918 118.015 
L 95.825918 111.153952 
L 92.846815 111.153952 
z
" clip-path="url(#p73f4f4de64)" style="fill: #2255a0; fill-opacity: 0.501961"/>
   </g>
   <g id="patch_29">
    <path d="M 80.9304 118.015 
L 83.909504 118.015 
L 83.909504 111.618216 
L 80.9304 111.618216 
z
" clip-path="url(#p73f4f4de64)" style="fill: #2255a0; fill-opacity: 0.501961"/>
   </g>
   <g id="patch_30">
    <path d="M 69.013985 118.015 
L 71.993089 118.015 
L 71.993089 111.554427 
L 69.013985 111.554427 
z
" clip-path="url(#p73f4f4de64)" style="fill: #2255a0; fill-opacity: 0.501961"/>
   </g>
   <g id="patch_31">
    <path d="M 57.09757 118.015 
L 60.076674 118.015 
L 60.076674 111.14449 
L 57.09757 111.14449 
z
" clip-path="url(#p73f4f4de64)" style="fill: #2255a0; fill-opacity: 0.501961"/>
   </g>
   <g id="patch_32">
    <path d="M 45.181156 118.015 
L 48.160259 118.015 
L 48.160259 111.011491 
L 45.181156 111.011491 
z
" clip-path="url(#p73f4f4de64)" style="fill: #2255a0; fill-opacity: 0.501961"/>
   </g>
   <g id="patch_33">
    <path d="M 214.990066 118.015 
L 217.96917 118.015 
L 217.96917 28.201979 
L 214.990066 28.201979 
z
" clip-path="url(#p73f4f4de64)" style="fill: #8e8e8e"/>
   </g>
   <g id="patch_34">
    <path d="M 203.073651 118.015 
L 206.052755 118.015 
L 206.052755 42.931453 
L 203.073651 42.931453 
z
" clip-path="url(#p73f4f4de64)" style="fill: #8e8e8e"/>
   </g>
   <g id="patch_35">
    <path d="M 191.157237 118.015 
L 194.13634 118.015 
L 194.13634 53.651191 
L 191.157237 53.651191 
z
" clip-path="url(#p73f4f4de64)" style="fill: #8e8e8e"/>
   </g>
   <g id="patch_36">
    <path d="M 179.240822 118.015 
L 182.219925 118.015 
L 182.219925 65.274786 
L 179.240822 65.274786 
z
" clip-path="url(#p73f4f4de64)" style="fill: #8e8e8e"/>
   </g>
   <g id="patch_37">
    <path d="M 167.324407 118.015 
L 170.303511 118.015 
L 170.303511 73.563258 
L 167.324407 73.563258 
z
" clip-path="url(#p73f4f4de64)" style="fill: #8e8e8e"/>
   </g>
   <g id="patch_38">
    <path d="M 155.407992 118.015 
L 158.387096 118.015 
L 158.387096 79.371925 
L 155.407992 79.371925 
z
" clip-path="url(#p73f4f4de64)" style="fill: #8e8e8e"/>
   </g>
   <g id="patch_39">
    <path d="M 143.491577 118.015 
L 146.470681 118.015 
L 146.470681 87.611042 
L 143.491577 87.611042 
z
" clip-path="url(#p73f4f4de64)" style="fill: #8e8e8e"/>
   </g>
   <g id="patch_40">
    <path d="M 131.575163 118.015 
L 134.554266 118.015 
L 134.554266 93.076109 
L 131.575163 93.076109 
z
" clip-path="url(#p73f4f4de64)" style="fill: #8e8e8e"/>
   </g>
   <g id="patch_41">
    <path d="M 119.658748 118.015 
L 122.637852 118.015 
L 122.637852 96.787103 
L 119.658748 96.787103 
z
" clip-path="url(#p73f4f4de64)" style="fill: #8e8e8e"/>
   </g>
   <g id="patch_42">
    <path d="M 107.742333 118.015 
L 110.721437 118.015 
L 110.721437 98.506483 
L 107.742333 98.506483 
z
" clip-path="url(#p73f4f4de64)" style="fill: #8e8e8e"/>
   </g>
   <g id="patch_43">
    <path d="M 95.825918 118.015 
L 98.805022 118.015 
L 98.805022 98.048684 
L 95.825918 98.048684 
z
" clip-path="url(#p73f4f4de64)" style="fill: #8e8e8e"/>
   </g>
   <g id="patch_44">
    <path d="M 83.909504 118.015 
L 86.888607 118.015 
L 86.888607 99.188156 
L 83.909504 99.188156 
z
" clip-path="url(#p73f4f4de64)" style="fill: #8e8e8e"/>
   </g>
   <g id="patch_45">
    <path d="M 71.993089 118.015 
L 74.972192 118.015 
L 74.972192 98.958335 
L 71.993089 98.958335 
z
" clip-path="url(#p73f4f4de64)" style="fill: #8e8e8e"/>
   </g>
   <g id="patch_46">
    <path d="M 60.076674 118.015 
L 63.055778 118.015 
L 63.055778 98.769733 
L 60.076674 98.769733 
z
" clip-path="url(#p73f4f4de64)" style="fill: #8e8e8e"/>
   </g>
   <g id="patch_47">
    <path d="M 48.160259 118.015 
L 51.139363 118.015 
L 51.139363 99.258075 
L 48.160259 99.258075 
z
" clip-path="url(#p73f4f4de64)" style="fill: #8e8e8e"/>
   </g>
   <g id="matplotlib.axis_1">
    <g id="xtick_1">
     <g id="line2d_1">
      <defs>
       <path id="m45df81f482" d="M 0 0 
L 0 3 
" style="stroke: #000000; stroke-width: 0.8"/>
      </defs>
      <g>
       <use xlink:href="#m45df81f482" x="46.670707" y="118.015" style="stroke: #000000; stroke-width: 0.8"/>
      </g>
     </g>
     <g id="text_1">
      <!-- 2010 -->
      <g transform="translate(36.490707 130.59375) scale(0.08 -0.08)">
       <defs>
        <path id="DejaVuSans-32" d="M 1228 531 
L 3431 531 
L 3431 0 
L 469 0 
L 469 531 
Q 828 903 1448 1529 
Q 2069 2156 2228 2338 
Q 2531 2678 2651 2914 
Q 2772 3150 2772 3378 
Q 2772 3750 2511 3984 
Q 2250 4219 1831 4219 
Q 1534 4219 1204 4116 
Q 875 4013 500 3803 
L 500 4441 
Q 881 4594 1212 4672 
Q 1544 4750 1819 4750 
Q 2544 4750 2975 4387 
Q 3406 4025 3406 3419 
Q 3406 3131 3298 2873 
Q 3191 2616 2906 2266 
Q 2828 2175 2409 1742 
Q 1991 1309 1228 531 
z
" transform="scale(0.015625)"/>
        <path id="DejaVuSans-30" d="M 2034 4250 
Q 1547 4250 1301 3770 
Q 1056 3291 1056 2328 
Q 1056 1369 1301 889 
Q 1547 409 2034 409 
Q 2525 409 2770 889 
Q 3016 1369 3016 2328 
Q 3016 3291 2770 3770 
Q 2525 4250 2034 4250 
z
M 2034 4750 
Q 2819 4750 3233 4129 
Q 3647 3509 3647 2328 
Q 3647 1150 3233 529 
Q 2819 -91 2034 -91 
Q 1250 -91 836 529 
Q 422 1150 422 2328 
Q 422 3509 836 4129 
Q 1250 4750 2034 4750 
z
" transform="scale(0.015625)"/>
        <path id="DejaVuSans-31" d="M 794 531 
L 1825 531 
L 1825 4091 
L 703 3866 
L 703 4441 
L 1819 4666 
L 2450 4666 
L 2450 531 
L 3481 531 
L 3481 0 
L 794 0 
L 794 531 
z
" transform="scale(0.015625)"/>
       </defs>
       <use xlink:href="#DejaVuSans-32"/>
       <use xlink:href="#DejaVuSans-30" x="63.623047"/>
       <use xlink:href="#DejaVuSans-31" x="127.246094"/>
       <use xlink:href="#DejaVuSans-30" x="190.869141"/>
      </g>
     </g>
    </g>
    <g id="xtick_2">
     <g id="line2d_2">
      <g>
       <use xlink:href="#m45df81f482" x="70.503537" y="118.015" style="stroke: #000000; stroke-width: 0.8"/>
      </g>
     </g>
     <g id="text_2">
      <!-- 2012 -->
      <g transform="translate(60.323537 130.59375) scale(0.08 -0.08)">
       <use xlink:href="#DejaVuSans-32"/>
       <use xlink:href="#DejaVuSans-30" x="63.623047"/>
       <use xlink:href="#DejaVuSans-31" x="127.246094"/>
       <use xlink:href="#DejaVuSans-32" x="190.869141"/>
      </g>
     </g>
    </g>
    <g id="xtick_3">
     <g id="line2d_3">
      <g>
       <use xlink:href="#m45df81f482" x="94.336367" y="118.015" style="stroke: #000000; stroke-width: 0.8"/>
      </g>
     </g>
     <g id="text_3">
      <!-- 2014 -->
      <g transform="translate(84.156367 130.59375) scale(0.08 -0.08)">
       <defs>
        <path id="DejaVuSans-34" d="M 2419 4116 
L 825 1625 
L 2419 1625 
L 2419 4116 
z
M 2253 4666 
L 3047 4666 
L 3047 1625 
L 3713 1625 
L 3713 1100 
L 3047 1100 
L 3047 0 
L 2419 0 
L 2419 1100 
L 313 1100 
L 313 1709 
L 2253 4666 
z
" transform="scale(0.015625)"/>
       </defs>
       <use xlink:href="#DejaVuSans-32"/>
       <use xlink:href="#DejaVuSans-30" x="63.623047"/>
       <use xlink:href="#DejaVuSans-31" x="127.246094"/>
       <use xlink:href="#DejaVuSans-34" x="190.869141"/>
      </g>
     </g>
    </g>
    <g id="xtick_4">
     <g id="line2d_4">
      <g>
       <use xlink:href="#m45df81f482" x="118.169196" y="118.015" style="stroke: #000000; stroke-width: 0.8"/>
      </g>
     </g>
     <g id="text_4">
      <!-- 2016 -->
      <g transform="translate(107.989196 130.59375) scale(0.08 -0.08)">
       <defs>
        <path id="DejaVuSans-36" d="M 2113 2584 
Q 1688 2584 1439 2293 
Q 1191 2003 1191 1497 
Q 1191 994 1439 701 
Q 1688 409 2113 409 
Q 2538 409 2786 701 
Q 3034 994 3034 1497 
Q 3034 2003 2786 2293 
Q 2538 2584 2113 2584 
z
M 3366 4563 
L 3366 3988 
Q 3128 4100 2886 4159 
Q 2644 4219 2406 4219 
Q 1781 4219 1451 3797 
Q 1122 3375 1075 2522 
Q 1259 2794 1537 2939 
Q 1816 3084 2150 3084 
Q 2853 3084 3261 2657 
Q 3669 2231 3669 1497 
Q 3669 778 3244 343 
Q 2819 -91 2113 -91 
Q 1303 -91 875 529 
Q 447 1150 447 2328 
Q 447 3434 972 4092 
Q 1497 4750 2381 4750 
Q 2619 4750 2861 4703 
Q 3103 4656 3366 4563 
z
" transform="scale(0.015625)"/>
       </defs>
       <use xlink:href="#DejaVuSans-32"/>
       <use xlink:href="#DejaVuSans-30" x="63.623047"/>
       <use xlink:href="#DejaVuSans-31" x="127.246094"/>
       <use xlink:href="#DejaVuSans-36" x="190.869141"/>
      </g>
     </g>
    </g>
    <g id="xtick_5">
     <g id="line2d_5">
      <g>
       <use xlink:href="#m45df81f482" x="142.002026" y="118.015" style="stroke: #000000; stroke-width: 0.8"/>
      </g>
     </g>
     <g id="text_5">
      <!-- 2018 -->
      <g transform="translate(131.822026 130.59375) scale(0.08 -0.08)">
       <defs>
        <path id="DejaVuSans-38" d="M 2034 2216 
Q 1584 2216 1326 1975 
Q 1069 1734 1069 1313 
Q 1069 891 1326 650 
Q 1584 409 2034 409 
Q 2484 409 2743 651 
Q 3003 894 3003 1313 
Q 3003 1734 2745 1975 
Q 2488 2216 2034 2216 
z
M 1403 2484 
Q 997 2584 770 2862 
Q 544 3141 544 3541 
Q 544 4100 942 4425 
Q 1341 4750 2034 4750 
Q 2731 4750 3128 4425 
Q 3525 4100 3525 3541 
Q 3525 3141 3298 2862 
Q 3072 2584 2669 2484 
Q 3125 2378 3379 2068 
Q 3634 1759 3634 1313 
Q 3634 634 3220 271 
Q 2806 -91 2034 -91 
Q 1263 -91 848 271 
Q 434 634 434 1313 
Q 434 1759 690 2068 
Q 947 2378 1403 2484 
z
M 1172 3481 
Q 1172 3119 1398 2916 
Q 1625 2713 2034 2713 
Q 2441 2713 2670 2916 
Q 2900 3119 2900 3481 
Q 2900 3844 2670 4047 
Q 2441 4250 2034 4250 
Q 1625 4250 1398 4047 
Q 1172 3844 1172 3481 
z
" transform="scale(0.015625)"/>
       </defs>
       <use xlink:href="#DejaVuSans-32"/>
       <use xlink:href="#DejaVuSans-30" x="63.623047"/>
       <use xlink:href="#DejaVuSans-31" x="127.246094"/>
       <use xlink:href="#DejaVuSans-38" x="190.869141"/>
      </g>
     </g>
    </g>
    <g id="xtick_6">
     <g id="line2d_6">
      <g>
       <use xlink:href="#m45df81f482" x="165.834855" y="118.015" style="stroke: #000000; stroke-width: 0.8"/>
      </g>
     </g>
     <g id="text_6">
      <!-- 2020 -->
      <g transform="translate(155.654855 130.59375) scale(0.08 -0.08)">
       <use xlink:href="#DejaVuSans-32"/>
       <use xlink:href="#DejaVuSans-30" x="63.623047"/>
       <use xlink:href="#DejaVuSans-32" x="127.246094"/>
       <use xlink:href="#DejaVuSans-30" x="190.869141"/>
      </g>
     </g>
    </g>
    <g id="xtick_7">
     <g id="line2d_7">
      <g>
       <use xlink:href="#m45df81f482" x="189.667685" y="118.015" style="stroke: #000000; stroke-width: 0.8"/>
      </g>
     </g>
     <g id="text_7">
      <!-- 2022 -->
      <g transform="translate(179.487685 130.59375) scale(0.08 -0.08)">
       <use xlink:href="#DejaVuSans-32"/>
       <use xlink:href="#DejaVuSans-30" x="63.623047"/>
       <use xlink:href="#DejaVuSans-32" x="127.246094"/>
       <use xlink:href="#DejaVuSans-32" x="190.869141"/>
      </g>
     </g>
    </g>
    <g id="xtick_8">
     <g id="line2d_8">
      <g>
       <use xlink:href="#m45df81f482" x="213.500514" y="118.015" style="stroke: #000000; stroke-width: 0.8"/>
      </g>
     </g>
     <g id="text_8">
      <!-- 2024 -->
      <g transform="translate(203.320514 130.59375) scale(0.08 -0.08)">
       <use xlink:href="#DejaVuSans-32"/>
       <use xlink:href="#DejaVuSans-30" x="63.623047"/>
       <use xlink:href="#DejaVuSans-32" x="127.246094"/>
       <use xlink:href="#DejaVuSans-34" x="190.869141"/>
      </g>
     </g>
    </g>
    <g id="text_9">
     <!-- Year -->
     <g transform="translate(121.615611 142.33625) scale(0.08 -0.08)">
      <defs>
       <path id="DejaVuSans-59" d="M -13 4666 
L 666 4666 
L 1959 2747 
L 3244 4666 
L 3922 4666 
L 2272 2222 
L 2272 0 
L 1638 0 
L 1638 2222 
L -13 4666 
z
" transform="scale(0.015625)"/>
       <path id="DejaVuSans-65" d="M 3597 1894 
L 3597 1613 
L 953 1613 
Q 991 1019 1311 708 
Q 1631 397 2203 397 
Q 2534 397 2845 478 
Q 3156 559 3463 722 
L 3463 178 
Q 3153 47 2828 -22 
Q 2503 -91 2169 -91 
Q 1331 -91 842 396 
Q 353 884 353 1716 
Q 353 2575 817 3079 
Q 1281 3584 2069 3584 
Q 2775 3584 3186 3129 
Q 3597 2675 3597 1894 
z
M 3022 2063 
Q 3016 2534 2758 2815 
Q 2500 3097 2075 3097 
Q 1594 3097 1305 2825 
Q 1016 2553 972 2059 
L 3022 2063 
z
" transform="scale(0.015625)"/>
       <path id="DejaVuSans-61" d="M 2194 1759 
Q 1497 1759 1228 1600 
Q 959 1441 959 1056 
Q 959 750 1161 570 
Q 1363 391 1709 391 
Q 2188 391 2477 730 
Q 2766 1069 2766 1631 
L 2766 1759 
L 2194 1759 
z
M 3341 1997 
L 3341 0 
L 2766 0 
L 2766 531 
Q 2569 213 2275 61 
Q 1981 -91 1556 -91 
Q 1019 -91 701 211 
Q 384 513 384 1019 
Q 384 1609 779 1909 
Q 1175 2209 1959 2209 
L 2766 2209 
L 2766 2266 
Q 2766 2663 2505 2880 
Q 2244 3097 1772 3097 
Q 1472 3097 1187 3025 
Q 903 2953 641 2809 
L 641 3341 
Q 956 3463 1253 3523 
Q 1550 3584 1831 3584 
Q 2591 3584 2966 3190 
Q 3341 2797 3341 1997 
z
" transform="scale(0.015625)"/>
       <path id="DejaVuSans-72" d="M 2631 2963 
Q 2534 3019 2420 3045 
Q 2306 3072 2169 3072 
Q 1681 3072 1420 2755 
Q 1159 2438 1159 1844 
L 1159 0 
L 581 0 
L 581 3500 
L 1159 3500 
L 1159 2956 
Q 1341 3275 1631 3429 
Q 1922 3584 2338 3584 
Q 2397 3584 2469 3576 
Q 2541 3569 2628 3553 
L 2631 2963 
z
" transform="scale(0.015625)"/>
      </defs>
      <use xlink:href="#DejaVuSans-59"/>
      <use xlink:href="#DejaVuSans-65" x="47.833984"/>
      <use xlink:href="#DejaVuSans-61" x="109.357422"/>
      <use xlink:href="#DejaVuSans-72" x="170.636719"/>
     </g>
    </g>
   </g>
   <g id="matplotlib.axis_2">
    <g id="ytick_1">
     <g id="line2d_9">
      <defs>
       <path id="m0aea91f22f" d="M 0 0 
L -3 0 
" style="stroke: #000000; stroke-width: 0.8"/>
      </defs>
      <g>
       <use xlink:href="#m0aea91f22f" x="40.7125" y="118.015" style="stroke: #000000; stroke-width: 0.8"/>
      </g>
     </g>
     <g id="text_10">
      <!-- 0.0 -->
      <g transform="translate(21.49 121.054375) scale(0.08 -0.08)">
       <defs>
        <path id="DejaVuSans-2e" d="M 684 794 
L 1344 794 
L 1344 0 
L 684 0 
L 684 794 
z
" transform="scale(0.015625)"/>
       </defs>
       <use xlink:href="#DejaVuSans-30"/>
       <use xlink:href="#DejaVuSans-2e" x="63.623047"/>
       <use xlink:href="#DejaVuSans-30" x="95.410156"/>
      </g>
     </g>
    </g>
    <g id="ytick_2">
     <g id="line2d_10">
      <g>
       <use xlink:href="#m0aea91f22f" x="40.7125" y="91.370944" style="stroke: #000000; stroke-width: 0.8"/>
      </g>
     </g>
     <g id="text_11">
      <!-- 2.0 -->
      <g transform="translate(21.49 94.410319) scale(0.08 -0.08)">
       <use xlink:href="#DejaVuSans-32"/>
       <use xlink:href="#DejaVuSans-2e" x="63.623047"/>
       <use xlink:href="#DejaVuSans-30" x="95.410156"/>
      </g>
     </g>
    </g>
    <g id="ytick_3">
     <g id="line2d_11">
      <g>
       <use xlink:href="#m0aea91f22f" x="40.7125" y="64.726889" style="stroke: #000000; stroke-width: 0.8"/>
      </g>
     </g>
     <g id="text_12">
      <!-- 4.0 -->
      <g transform="translate(21.49 67.766264) scale(0.08 -0.08)">
       <use xlink:href="#DejaVuSans-34"/>
       <use xlink:href="#DejaVuSans-2e" x="63.623047"/>
       <use xlink:href="#DejaVuSans-30" x="95.410156"/>
      </g>
     </g>
    </g>
    <g id="ytick_4">
     <g id="line2d_12">
      <g>
       <use xlink:href="#m0aea91f22f" x="40.7125" y="38.082833" style="stroke: #000000; stroke-width: 0.8"/>
      </g>
     </g>
     <g id="text_13">
      <!-- 6.0 -->
      <g transform="translate(21.49 41.122208) scale(0.08 -0.08)">
       <use xlink:href="#DejaVuSans-36"/>
       <use xlink:href="#DejaVuSans-2e" x="63.623047"/>
       <use xlink:href="#DejaVuSans-30" x="95.410156"/>
      </g>
     </g>
    </g>
    <g id="ytick_5">
     <g id="line2d_13">
      <g>
       <use xlink:href="#m0aea91f22f" x="40.7125" y="11.438777" style="stroke: #000000; stroke-width: 0.8"/>
      </g>
     </g>
     <g id="text_14">
      <!-- 8.0 -->
      <g transform="translate(21.49 14.478152) scale(0.08 -0.08)">
       <use xlink:href="#DejaVuSans-38"/>
       <use xlink:href="#DejaVuSans-2e" x="63.623047"/>
       <use xlink:href="#DejaVuSans-30" x="95.410156"/>
      </g>
     </g>
    </g>
    <g id="text_15">
     <!-- Publications fraction ($\times 10^{-2}$) -->
     <g transform="translate(15.82625 122.007187) rotate(-90) scale(0.08 -0.08)">
      <defs>
       <path id="DejaVuSans-50" d="M 1259 4147 
L 1259 2394 
L 2053 2394 
Q 2494 2394 2734 2622 
Q 2975 2850 2975 3272 
Q 2975 3691 2734 3919 
Q 2494 4147 2053 4147 
L 1259 4147 
z
M 628 4666 
L 2053 4666 
Q 2838 4666 3239 4311 
Q 3641 3956 3641 3272 
Q 3641 2581 3239 2228 
Q 2838 1875 2053 1875 
L 1259 1875 
L 1259 0 
L 628 0 
L 628 4666 
z
" transform="scale(0.015625)"/>
       <path id="DejaVuSans-75" d="M 544 1381 
L 544 3500 
L 1119 3500 
L 1119 1403 
Q 1119 906 1312 657 
Q 1506 409 1894 409 
Q 2359 409 2629 706 
Q 2900 1003 2900 1516 
L 2900 3500 
L 3475 3500 
L 3475 0 
L 2900 0 
L 2900 538 
Q 2691 219 2414 64 
Q 2138 -91 1772 -91 
Q 1169 -91 856 284 
Q 544 659 544 1381 
z
M 1991 3584 
L 1991 3584 
z
" transform="scale(0.015625)"/>
       <path id="DejaVuSans-62" d="M 3116 1747 
Q 3116 2381 2855 2742 
Q 2594 3103 2138 3103 
Q 1681 3103 1420 2742 
Q 1159 2381 1159 1747 
Q 1159 1113 1420 752 
Q 1681 391 2138 391 
Q 2594 391 2855 752 
Q 3116 1113 3116 1747 
z
M 1159 2969 
Q 1341 3281 1617 3432 
Q 1894 3584 2278 3584 
Q 2916 3584 3314 3078 
Q 3713 2572 3713 1747 
Q 3713 922 3314 415 
Q 2916 -91 2278 -91 
Q 1894 -91 1617 61 
Q 1341 213 1159 525 
L 1159 0 
L 581 0 
L 581 4863 
L 1159 4863 
L 1159 2969 
z
" transform="scale(0.015625)"/>
       <path id="DejaVuSans-6c" d="M 603 4863 
L 1178 4863 
L 1178 0 
L 603 0 
L 603 4863 
z
" transform="scale(0.015625)"/>
       <path id="DejaVuSans-69" d="M 603 3500 
L 1178 3500 
L 1178 0 
L 603 0 
L 603 3500 
z
M 603 4863 
L 1178 4863 
L 1178 4134 
L 603 4134 
L 603 4863 
z
" transform="scale(0.015625)"/>
       <path id="DejaVuSans-63" d="M 3122 3366 
L 3122 2828 
Q 2878 2963 2633 3030 
Q 2388 3097 2138 3097 
Q 1578 3097 1268 2742 
Q 959 2388 959 1747 
Q 959 1106 1268 751 
Q 1578 397 2138 397 
Q 2388 397 2633 464 
Q 2878 531 3122 666 
L 3122 134 
Q 2881 22 2623 -34 
Q 2366 -91 2075 -91 
Q 1284 -91 818 406 
Q 353 903 353 1747 
Q 353 2603 823 3093 
Q 1294 3584 2113 3584 
Q 2378 3584 2631 3529 
Q 2884 3475 3122 3366 
z
" transform="scale(0.015625)"/>
       <path id="DejaVuSans-74" d="M 1172 4494 
L 1172 3500 
L 2356 3500 
L 2356 3053 
L 1172 3053 
L 1172 1153 
Q 1172 725 1289 603 
Q 1406 481 1766 481 
L 2356 481 
L 2356 0 
L 1766 0 
Q 1100 0 847 248 
Q 594 497 594 1153 
L 594 3053 
L 172 3053 
L 172 3500 
L 594 3500 
L 594 4494 
L 1172 4494 
z
" transform="scale(0.015625)"/>
       <path id="DejaVuSans-6f" d="M 1959 3097 
Q 1497 3097 1228 2736 
Q 959 2375 959 1747 
Q 959 1119 1226 758 
Q 1494 397 1959 397 
Q 2419 397 2687 759 
Q 2956 1122 2956 1747 
Q 2956 2369 2687 2733 
Q 2419 3097 1959 3097 
z
M 1959 3584 
Q 2709 3584 3137 3096 
Q 3566 2609 3566 1747 
Q 3566 888 3137 398 
Q 2709 -91 1959 -91 
Q 1206 -91 779 398 
Q 353 888 353 1747 
Q 353 2609 779 3096 
Q 1206 3584 1959 3584 
z
" transform="scale(0.015625)"/>
       <path id="DejaVuSans-6e" d="M 3513 2113 
L 3513 0 
L 2938 0 
L 2938 2094 
Q 2938 2591 2744 2837 
Q 2550 3084 2163 3084 
Q 1697 3084 1428 2787 
Q 1159 2491 1159 1978 
L 1159 0 
L 581 0 
L 581 3500 
L 1159 3500 
L 1159 2956 
Q 1366 3272 1645 3428 
Q 1925 3584 2291 3584 
Q 2894 3584 3203 3211 
Q 3513 2838 3513 2113 
z
" transform="scale(0.015625)"/>
       <path id="DejaVuSans-73" d="M 2834 3397 
L 2834 2853 
Q 2591 2978 2328 3040 
Q 2066 3103 1784 3103 
Q 1356 3103 1142 2972 
Q 928 2841 928 2578 
Q 928 2378 1081 2264 
Q 1234 2150 1697 2047 
L 1894 2003 
Q 2506 1872 2764 1633 
Q 3022 1394 3022 966 
Q 3022 478 2636 193 
Q 2250 -91 1575 -91 
Q 1294 -91 989 -36 
Q 684 19 347 128 
L 347 722 
Q 666 556 975 473 
Q 1284 391 1588 391 
Q 1994 391 2212 530 
Q 2431 669 2431 922 
Q 2431 1156 2273 1281 
Q 2116 1406 1581 1522 
L 1381 1569 
Q 847 1681 609 1914 
Q 372 2147 372 2553 
Q 372 3047 722 3315 
Q 1072 3584 1716 3584 
Q 2034 3584 2315 3537 
Q 2597 3491 2834 3397 
z
" transform="scale(0.015625)"/>
       <path id="DejaVuSans-20" transform="scale(0.015625)"/>
       <path id="DejaVuSans-66" d="M 2375 4863 
L 2375 4384 
L 1825 4384 
Q 1516 4384 1395 4259 
Q 1275 4134 1275 3809 
L 1275 3500 
L 2222 3500 
L 2222 3053 
L 1275 3053 
L 1275 0 
L 697 0 
L 697 3053 
L 147 3053 
L 147 3500 
L 697 3500 
L 697 3744 
Q 697 4328 969 4595 
Q 1241 4863 1831 4863 
L 2375 4863 
z
" transform="scale(0.015625)"/>
       <path id="DejaVuSans-28" d="M 1984 4856 
Q 1566 4138 1362 3434 
Q 1159 2731 1159 2009 
Q 1159 1288 1364 580 
Q 1569 -128 1984 -844 
L 1484 -844 
Q 1016 -109 783 600 
Q 550 1309 550 2009 
Q 550 2706 781 3412 
Q 1013 4119 1484 4856 
L 1984 4856 
z
" transform="scale(0.015625)"/>
       <path id="DejaVuSans-d7" d="M 4488 3438 
L 3059 2003 
L 4488 575 
L 4116 197 
L 2681 1631 
L 1247 197 
L 878 575 
L 2303 2003 
L 878 3438 
L 1247 3816 
L 2681 2381 
L 4116 3816 
L 4488 3438 
z
" transform="scale(0.015625)"/>
       <path id="DejaVuSans-2212" d="M 678 2272 
L 4684 2272 
L 4684 1741 
L 678 1741 
L 678 2272 
z
" transform="scale(0.015625)"/>
       <path id="DejaVuSans-29" d="M 513 4856 
L 1013 4856 
Q 1481 4119 1714 3412 
Q 1947 2706 1947 2009 
Q 1947 1309 1714 600 
Q 1481 -109 1013 -844 
L 513 -844 
Q 928 -128 1133 580 
Q 1338 1288 1338 2009 
Q 1338 2731 1133 3434 
Q 928 4138 513 4856 
z
" transform="scale(0.015625)"/>
      </defs>
      <use xlink:href="#DejaVuSans-50" transform="translate(0 0.765625)"/>
      <use xlink:href="#DejaVuSans-75" transform="translate(60.302734 0.765625)"/>
      <use xlink:href="#DejaVuSans-62" transform="translate(123.681641 0.765625)"/>
      <use xlink:href="#DejaVuSans-6c" transform="translate(187.158203 0.765625)"/>
      <use xlink:href="#DejaVuSans-69" transform="translate(214.941406 0.765625)"/>
      <use xlink:href="#DejaVuSans-63" transform="translate(242.724609 0.765625)"/>
      <use xlink:href="#DejaVuSans-61" transform="translate(297.705078 0.765625)"/>
      <use xlink:href="#DejaVuSans-74" transform="translate(358.984375 0.765625)"/>
      <use xlink:href="#DejaVuSans-69" transform="translate(398.193359 0.765625)"/>
      <use xlink:href="#DejaVuSans-6f" transform="translate(425.976562 0.765625)"/>
      <use xlink:href="#DejaVuSans-6e" transform="translate(487.158203 0.765625)"/>
      <use xlink:href="#DejaVuSans-73" transform="translate(550.537109 0.765625)"/>
      <use xlink:href="#DejaVuSans-20" transform="translate(602.636719 0.765625)"/>
      <use xlink:href="#DejaVuSans-66" transform="translate(634.423828 0.765625)"/>
      <use xlink:href="#DejaVuSans-72" transform="translate(669.628906 0.765625)"/>
      <use xlink:href="#DejaVuSans-61" transform="translate(710.742188 0.765625)"/>
      <use xlink:href="#DejaVuSans-63" transform="translate(772.021484 0.765625)"/>
      <use xlink:href="#DejaVuSans-74" transform="translate(827.001953 0.765625)"/>
      <use xlink:href="#DejaVuSans-69" transform="translate(866.210938 0.765625)"/>
      <use xlink:href="#DejaVuSans-6f" transform="translate(893.994141 0.765625)"/>
      <use xlink:href="#DejaVuSans-6e" transform="translate(955.175781 0.765625)"/>
      <use xlink:href="#DejaVuSans-20" transform="translate(1018.554688 0.765625)"/>
      <use xlink:href="#DejaVuSans-28" transform="translate(1050.341797 0.765625)"/>
      <use xlink:href="#DejaVuSans-d7" transform="translate(1089.355469 0.765625)"/>
      <use xlink:href="#DejaVuSans-31" transform="translate(1173.144531 0.765625)"/>
      <use xlink:href="#DejaVuSans-30" transform="translate(1236.767578 0.765625)"/>
      <use xlink:href="#DejaVuSans-2212" transform="translate(1301.347656 39.046875) scale(0.7)"/>
      <use xlink:href="#DejaVuSans-32" transform="translate(1360 39.046875) scale(0.7)"/>
      <use xlink:href="#DejaVuSans-29" transform="translate(1407.270508 0.765625)"/>
     </g>
    </g>
   </g>
   <g id="patch_48">
    <path d="M 40.7125 118.015 
L 40.7125 10.239375 
" style="fill: none; stroke: #000000; stroke-width: 0.8; stroke-linejoin: miter; stroke-linecap: square"/>
   </g>
   <g id="patch_49">
    <path d="M 40.7125 118.015 
L 219.458722 118.015 
" style="fill: none; stroke: #000000; stroke-width: 0.8; stroke-linejoin: miter; stroke-linecap: square"/>
   </g>
   <g id="legend_1">
    <g id="patch_50">
     <path d="M 47.9125 23.518125 
L 63.9125 23.518125 
L 63.9125 17.918125 
L 47.9125 17.918125 
z
"/>
    </g>
    <g id="text_16">
     <!-- Standard numerical -->
     <g transform="translate(70.3125 23.518125) scale(0.08 -0.08)">
      <defs>
       <path id="DejaVuSans-53" d="M 3425 4513 
L 3425 3897 
Q 3066 4069 2747 4153 
Q 2428 4238 2131 4238 
Q 1616 4238 1336 4038 
Q 1056 3838 1056 3469 
Q 1056 3159 1242 3001 
Q 1428 2844 1947 2747 
L 2328 2669 
Q 3034 2534 3370 2195 
Q 3706 1856 3706 1288 
Q 3706 609 3251 259 
Q 2797 -91 1919 -91 
Q 1588 -91 1214 -16 
Q 841 59 441 206 
L 441 856 
Q 825 641 1194 531 
Q 1563 422 1919 422 
Q 2459 422 2753 634 
Q 3047 847 3047 1241 
Q 3047 1584 2836 1778 
Q 2625 1972 2144 2069 
L 1759 2144 
Q 1053 2284 737 2584 
Q 422 2884 422 3419 
Q 422 4038 858 4394 
Q 1294 4750 2059 4750 
Q 2388 4750 2728 4690 
Q 3069 4631 3425 4513 
z
" transform="scale(0.015625)"/>
       <path id="DejaVuSans-64" d="M 2906 2969 
L 2906 4863 
L 3481 4863 
L 3481 0 
L 2906 0 
L 2906 525 
Q 2725 213 2448 61 
Q 2172 -91 1784 -91 
Q 1150 -91 751 415 
Q 353 922 353 1747 
Q 353 2572 751 3078 
Q 1150 3584 1784 3584 
Q 2172 3584 2448 3432 
Q 2725 3281 2906 2969 
z
M 947 1747 
Q 947 1113 1208 752 
Q 1469 391 1925 391 
Q 2381 391 2643 752 
Q 2906 1113 2906 1747 
Q 2906 2381 2643 2742 
Q 2381 3103 1925 3103 
Q 1469 3103 1208 2742 
Q 947 2381 947 1747 
z
" transform="scale(0.015625)"/>
       <path id="DejaVuSans-6d" d="M 3328 2828 
Q 3544 3216 3844 3400 
Q 4144 3584 4550 3584 
Q 5097 3584 5394 3201 
Q 5691 2819 5691 2113 
L 5691 0 
L 5113 0 
L 5113 2094 
Q 5113 2597 4934 2840 
Q 4756 3084 4391 3084 
Q 3944 3084 3684 2787 
Q 3425 2491 3425 1978 
L 3425 0 
L 2847 0 
L 2847 2094 
Q 2847 2600 2669 2842 
Q 2491 3084 2119 3084 
Q 1678 3084 1418 2786 
Q 1159 2488 1159 1978 
L 1159 0 
L 581 0 
L 581 3500 
L 1159 3500 
L 1159 2956 
Q 1356 3278 1631 3431 
Q 1906 3584 2284 3584 
Q 2666 3584 2933 3390 
Q 3200 3197 3328 2828 
z
" transform="scale(0.015625)"/>
      </defs>
      <use xlink:href="#DejaVuSans-53"/>
      <use xlink:href="#DejaVuSans-74" x="63.476562"/>
      <use xlink:href="#DejaVuSans-61" x="102.685547"/>
      <use xlink:href="#DejaVuSans-6e" x="163.964844"/>
      <use xlink:href="#DejaVuSans-64" x="227.34375"/>
      <use xlink:href="#DejaVuSans-61" x="290.820312"/>
      <use xlink:href="#DejaVuSans-72" x="352.099609"/>
      <use xlink:href="#DejaVuSans-64" x="391.462891"/>
      <use xlink:href="#DejaVuSans-20" x="454.939453"/>
      <use xlink:href="#DejaVuSans-6e" x="486.726562"/>
      <use xlink:href="#DejaVuSans-75" x="550.105469"/>
      <use xlink:href="#DejaVuSans-6d" x="613.484375"/>
      <use xlink:href="#DejaVuSans-65" x="710.896484"/>
      <use xlink:href="#DejaVuSans-72" x="772.419922"/>
      <use xlink:href="#DejaVuSans-69" x="813.533203"/>
      <use xlink:href="#DejaVuSans-63" x="841.316406"/>
      <use xlink:href="#DejaVuSans-61" x="896.296875"/>
      <use xlink:href="#DejaVuSans-6c" x="957.576172"/>
     </g>
    </g>
    <g id="patch_51">
     <path d="M 47.9125 35.260625 
L 63.9125 35.260625 
L 63.9125 29.660625 
L 47.9125 29.660625 
z
" style="fill: #2255a0; fill-opacity: 0.501961"/>
    </g>
    <g id="text_17">
     <!-- Machine learning -->
     <g transform="translate(70.3125 35.260625) scale(0.08 -0.08)">
      <defs>
       <path id="DejaVuSans-4d" d="M 628 4666 
L 1569 4666 
L 2759 1491 
L 3956 4666 
L 4897 4666 
L 4897 0 
L 4281 0 
L 4281 4097 
L 3078 897 
L 2444 897 
L 1241 4097 
L 1241 0 
L 628 0 
L 628 4666 
z
" transform="scale(0.015625)"/>
       <path id="DejaVuSans-68" d="M 3513 2113 
L 3513 0 
L 2938 0 
L 2938 2094 
Q 2938 2591 2744 2837 
Q 2550 3084 2163 3084 
Q 1697 3084 1428 2787 
Q 1159 2491 1159 1978 
L 1159 0 
L 581 0 
L 581 4863 
L 1159 4863 
L 1159 2956 
Q 1366 3272 1645 3428 
Q 1925 3584 2291 3584 
Q 2894 3584 3203 3211 
Q 3513 2838 3513 2113 
z
" transform="scale(0.015625)"/>
       <path id="DejaVuSans-67" d="M 2906 1791 
Q 2906 2416 2648 2759 
Q 2391 3103 1925 3103 
Q 1463 3103 1205 2759 
Q 947 2416 947 1791 
Q 947 1169 1205 825 
Q 1463 481 1925 481 
Q 2391 481 2648 825 
Q 2906 1169 2906 1791 
z
M 3481 434 
Q 3481 -459 3084 -895 
Q 2688 -1331 1869 -1331 
Q 1566 -1331 1297 -1286 
Q 1028 -1241 775 -1147 
L 775 -588 
Q 1028 -725 1275 -790 
Q 1522 -856 1778 -856 
Q 2344 -856 2625 -561 
Q 2906 -266 2906 331 
L 2906 616 
Q 2728 306 2450 153 
Q 2172 0 1784 0 
Q 1141 0 747 490 
Q 353 981 353 1791 
Q 353 2603 747 3093 
Q 1141 3584 1784 3584 
Q 2172 3584 2450 3431 
Q 2728 3278 2906 2969 
L 2906 3500 
L 3481 3500 
L 3481 434 
z
" transform="scale(0.015625)"/>
      </defs>
      <use xlink:href="#DejaVuSans-4d"/>
      <use xlink:href="#DejaVuSans-61" x="86.279297"/>
      <use xlink:href="#DejaVuSans-63" x="147.558594"/>
      <use xlink:href="#DejaVuSans-68" x="202.539062"/>
      <use xlink:href="#DejaVuSans-69" x="265.917969"/>
      <use xlink:href="#DejaVuSans-6e" x="293.701172"/>
      <use xlink:href="#DejaVuSans-65" x="357.080078"/>
      <use xlink:href="#DejaVuSans-20" x="418.603516"/>
      <use xlink:href="#DejaVuSans-6c" x="450.390625"/>
      <use xlink:href="#DejaVuSans-65" x="478.173828"/>
      <use xlink:href="#DejaVuSans-61" x="539.697266"/>
      <use xlink:href="#DejaVuSans-72" x="600.976562"/>
      <use xlink:href="#DejaVuSans-6e" x="640.339844"/>
      <use xlink:href="#DejaVuSans-69" x="703.71875"/>
      <use xlink:href="#DejaVuSans-6e" x="731.501953"/>
      <use xlink:href="#DejaVuSans-67" x="794.880859"/>
     </g>
    </g>
    <g id="patch_52">
     <path d="M 47.9125 47.003125 
L 63.9125 47.003125 
L 63.9125 41.403125 
L 47.9125 41.403125 
z
" style="fill: #8e8e8e"/>
    </g>
    <g id="text_18">
     <!-- Either / Both -->
     <g transform="translate(70.3125 47.003125) scale(0.08 -0.08)">
      <defs>
       <path id="DejaVuSans-45" d="M 628 4666 
L 3578 4666 
L 3578 4134 
L 1259 4134 
L 1259 2753 
L 3481 2753 
L 3481 2222 
L 1259 2222 
L 1259 531 
L 3634 531 
L 3634 0 
L 628 0 
L 628 4666 
z
" transform="scale(0.015625)"/>
       <path id="DejaVuSans-2f" d="M 1625 4666 
L 2156 4666 
L 531 -594 
L 0 -594 
L 1625 4666 
z
" transform="scale(0.015625)"/>
       <path id="DejaVuSans-42" d="M 1259 2228 
L 1259 519 
L 2272 519 
Q 2781 519 3026 730 
Q 3272 941 3272 1375 
Q 3272 1813 3026 2020 
Q 2781 2228 2272 2228 
L 1259 2228 
z
M 1259 4147 
L 1259 2741 
L 2194 2741 
Q 2656 2741 2882 2914 
Q 3109 3088 3109 3444 
Q 3109 3797 2882 3972 
Q 2656 4147 2194 4147 
L 1259 4147 
z
M 628 4666 
L 2241 4666 
Q 2963 4666 3353 4366 
Q 3744 4066 3744 3513 
Q 3744 3084 3544 2831 
Q 3344 2578 2956 2516 
Q 3422 2416 3680 2098 
Q 3938 1781 3938 1306 
Q 3938 681 3513 340 
Q 3088 0 2303 0 
L 628 0 
L 628 4666 
z
" transform="scale(0.015625)"/>
      </defs>
      <use xlink:href="#DejaVuSans-45"/>
      <use xlink:href="#DejaVuSans-69" x="63.183594"/>
      <use xlink:href="#DejaVuSans-74" x="90.966797"/>
      <use xlink:href="#DejaVuSans-68" x="130.175781"/>
      <use xlink:href="#DejaVuSans-65" x="193.554688"/>
      <use xlink:href="#DejaVuSans-72" x="255.078125"/>
      <use xlink:href="#DejaVuSans-20" x="296.191406"/>
      <use xlink:href="#DejaVuSans-2f" x="327.978516"/>
      <use xlink:href="#DejaVuSans-20" x="361.669922"/>
      <use xlink:href="#DejaVuSans-42" x="393.457031"/>
      <use xlink:href="#DejaVuSans-6f" x="462.060547"/>
      <use xlink:href="#DejaVuSans-74" x="523.242188"/>
      <use xlink:href="#DejaVuSans-68" x="562.451172"/>
     </g>
    </g>
   </g>
  </g>
  <g id="axes_2">
   <g id="patch_53">
    <path d="M 274.714252 118.015 
L 453.460473 118.015 
L 453.460473 10.239375 
L 274.714252 10.239375 
z
" style="fill: #ffffff"/>
   </g>
   <g id="patch_54">
    <path d="M 443.927341 118.015 
L 451.07719 118.015 
L 451.07719 20.037159 
L 443.927341 20.037159 
z
" clip-path="url(#p1b05b2dfd6)" style="fill: #8e8e8e"/>
   </g>
   <g id="patch_55">
    <path d="M 432.010927 118.015 
L 439.160776 118.015 
L 439.160776 34.40504 
L 432.010927 34.40504 
z
" clip-path="url(#p1b05b2dfd6)" style="fill: #8e8e8e"/>
   </g>
   <g id="patch_56">
    <path d="M 420.094512 118.015 
L 427.244361 118.015 
L 427.244361 51.268245 
L 420.094512 51.268245 
z
" clip-path="url(#p1b05b2dfd6)" style="fill: #8e8e8e"/>
   </g>
   <g id="patch_57">
    <path d="M 408.178097 118.015 
L 415.327946 118.015 
L 415.327946 63.749783 
L 408.178097 63.749783 
z
" clip-path="url(#p1b05b2dfd6)" style="fill: #8e8e8e"/>
   </g>
   <g id="patch_58">
    <path d="M 396.261682 118.015 
L 403.411531 118.015 
L 403.411531 80.005832 
L 396.261682 80.005832 
z
" clip-path="url(#p1b05b2dfd6)" style="fill: #8e8e8e"/>
   </g>
   <g id="patch_59">
    <path d="M 384.345268 118.015 
L 391.495116 118.015 
L 391.495116 87.212905 
L 384.345268 87.212905 
z
" clip-path="url(#p1b05b2dfd6)" style="fill: #8e8e8e"/>
   </g>
   <g id="patch_60">
    <path d="M 372.428853 118.015 
L 379.578702 118.015 
L 379.578702 97.137618 
L 372.428853 97.137618 
z
" clip-path="url(#p1b05b2dfd6)" style="fill: #8e8e8e"/>
   </g>
   <g id="patch_61">
    <path d="M 360.512438 118.015 
L 367.662287 118.015 
L 367.662287 103.146013 
L 360.512438 103.146013 
z
" clip-path="url(#p1b05b2dfd6)" style="fill: #8e8e8e"/>
   </g>
   <g id="patch_62">
    <path d="M 348.596023 118.015 
L 355.745872 118.015 
L 355.745872 108.822461 
L 348.596023 108.822461 
z
" clip-path="url(#p1b05b2dfd6)" style="fill: #8e8e8e"/>
   </g>
   <g id="patch_63">
    <path d="M 336.679608 118.015 
L 343.829457 118.015 
L 343.829457 109.027204 
L 336.679608 109.027204 
z
" clip-path="url(#p1b05b2dfd6)" style="fill: #8e8e8e"/>
   </g>
   <g id="patch_64">
    <path d="M 324.763194 118.015 
L 331.913043 118.015 
L 331.913043 108.113216 
L 324.763194 108.113216 
z
" clip-path="url(#p1b05b2dfd6)" style="fill: #8e8e8e"/>
   </g>
   <g id="patch_65">
    <path d="M 312.846779 118.015 
L 319.996628 118.015 
L 319.996628 111.458089 
L 312.846779 111.458089 
z
" clip-path="url(#p1b05b2dfd6)" style="fill: #8e8e8e"/>
   </g>
   <g id="patch_66">
    <path d="M 300.930364 118.015 
L 308.080213 118.015 
L 308.080213 114.091007 
L 300.930364 114.091007 
z
" clip-path="url(#p1b05b2dfd6)" style="fill: #8e8e8e"/>
   </g>
   <g id="patch_67">
    <path d="M 289.013949 118.015 
L 296.163798 118.015 
L 296.163798 108.79679 
L 289.013949 108.79679 
z
" clip-path="url(#p1b05b2dfd6)" style="fill: #8e8e8e"/>
   </g>
   <g id="patch_68">
    <path d="M 277.097535 118.015 
L 284.247383 118.015 
L 284.247383 108.867435 
L 277.097535 108.867435 
z
" clip-path="url(#p1b05b2dfd6)" style="fill: #8e8e8e"/>
   </g>
   <g id="matplotlib.axis_3">
    <g id="xtick_9">
     <g id="line2d_14">
      <g>
       <use xlink:href="#m45df81f482" x="280.672459" y="118.015" style="stroke: #000000; stroke-width: 0.8"/>
      </g>
     </g>
     <g id="text_19">
      <!-- 2010 -->
      <g transform="translate(270.492459 130.59375) scale(0.08 -0.08)">
       <use xlink:href="#DejaVuSans-32"/>
       <use xlink:href="#DejaVuSans-30" x="63.623047"/>
       <use xlink:href="#DejaVuSans-31" x="127.246094"/>
       <use xlink:href="#DejaVuSans-30" x="190.869141"/>
      </g>
     </g>
    </g>
    <g id="xtick_10">
     <g id="line2d_15">
      <g>
       <use xlink:href="#m45df81f482" x="304.505289" y="118.015" style="stroke: #000000; stroke-width: 0.8"/>
      </g>
     </g>
     <g id="text_20">
      <!-- 2012 -->
      <g transform="translate(294.325289 130.59375) scale(0.08 -0.08)">
       <use xlink:href="#DejaVuSans-32"/>
       <use xlink:href="#DejaVuSans-30" x="63.623047"/>
       <use xlink:href="#DejaVuSans-31" x="127.246094"/>
       <use xlink:href="#DejaVuSans-32" x="190.869141"/>
      </g>
     </g>
    </g>
    <g id="xtick_11">
     <g id="line2d_16">
      <g>
       <use xlink:href="#m45df81f482" x="328.338118" y="118.015" style="stroke: #000000; stroke-width: 0.8"/>
      </g>
     </g>
     <g id="text_21">
      <!-- 2014 -->
      <g transform="translate(318.158118 130.59375) scale(0.08 -0.08)">
       <use xlink:href="#DejaVuSans-32"/>
       <use xlink:href="#DejaVuSans-30" x="63.623047"/>
       <use xlink:href="#DejaVuSans-31" x="127.246094"/>
       <use xlink:href="#DejaVuSans-34" x="190.869141"/>
      </g>
     </g>
    </g>
    <g id="xtick_12">
     <g id="line2d_17">
      <g>
       <use xlink:href="#m45df81f482" x="352.170948" y="118.015" style="stroke: #000000; stroke-width: 0.8"/>
      </g>
     </g>
     <g id="text_22">
      <!-- 2016 -->
      <g transform="translate(341.990948 130.59375) scale(0.08 -0.08)">
       <use xlink:href="#DejaVuSans-32"/>
       <use xlink:href="#DejaVuSans-30" x="63.623047"/>
       <use xlink:href="#DejaVuSans-31" x="127.246094"/>
       <use xlink:href="#DejaVuSans-36" x="190.869141"/>
      </g>
     </g>
    </g>
    <g id="xtick_13">
     <g id="line2d_18">
      <g>
       <use xlink:href="#m45df81f482" x="376.003777" y="118.015" style="stroke: #000000; stroke-width: 0.8"/>
      </g>
     </g>
     <g id="text_23">
      <!-- 2018 -->
      <g transform="translate(365.823777 130.59375) scale(0.08 -0.08)">
       <use xlink:href="#DejaVuSans-32"/>
       <use xlink:href="#DejaVuSans-30" x="63.623047"/>
       <use xlink:href="#DejaVuSans-31" x="127.246094"/>
       <use xlink:href="#DejaVuSans-38" x="190.869141"/>
      </g>
     </g>
    </g>
    <g id="xtick_14">
     <g id="line2d_19">
      <g>
       <use xlink:href="#m45df81f482" x="399.836607" y="118.015" style="stroke: #000000; stroke-width: 0.8"/>
      </g>
     </g>
     <g id="text_24">
      <!-- 2020 -->
      <g transform="translate(389.656607 130.59375) scale(0.08 -0.08)">
       <use xlink:href="#DejaVuSans-32"/>
       <use xlink:href="#DejaVuSans-30" x="63.623047"/>
       <use xlink:href="#DejaVuSans-32" x="127.246094"/>
       <use xlink:href="#DejaVuSans-30" x="190.869141"/>
      </g>
     </g>
    </g>
    <g id="xtick_15">
     <g id="line2d_20">
      <g>
       <use xlink:href="#m45df81f482" x="423.669436" y="118.015" style="stroke: #000000; stroke-width: 0.8"/>
      </g>
     </g>
     <g id="text_25">
      <!-- 2022 -->
      <g transform="translate(413.489436 130.59375) scale(0.08 -0.08)">
       <use xlink:href="#DejaVuSans-32"/>
       <use xlink:href="#DejaVuSans-30" x="63.623047"/>
       <use xlink:href="#DejaVuSans-32" x="127.246094"/>
       <use xlink:href="#DejaVuSans-32" x="190.869141"/>
      </g>
     </g>
    </g>
    <g id="xtick_16">
     <g id="line2d_21">
      <g>
       <use xlink:href="#m45df81f482" x="447.502266" y="118.015" style="stroke: #000000; stroke-width: 0.8"/>
      </g>
     </g>
     <g id="text_26">
      <!-- 2024 -->
      <g transform="translate(437.322266 130.59375) scale(0.08 -0.08)">
       <use xlink:href="#DejaVuSans-32"/>
       <use xlink:href="#DejaVuSans-30" x="63.623047"/>
       <use xlink:href="#DejaVuSans-32" x="127.246094"/>
       <use xlink:href="#DejaVuSans-34" x="190.869141"/>
      </g>
     </g>
    </g>
    <g id="text_27">
     <!-- Year -->
     <g transform="translate(355.617362 142.33625) scale(0.08 -0.08)">
      <use xlink:href="#DejaVuSans-59"/>
      <use xlink:href="#DejaVuSans-65" x="47.833984"/>
      <use xlink:href="#DejaVuSans-61" x="109.357422"/>
      <use xlink:href="#DejaVuSans-72" x="170.636719"/>
     </g>
    </g>
   </g>
   <g id="matplotlib.axis_4">
    <g id="ytick_6">
     <g id="line2d_22">
      <g>
       <use xlink:href="#m0aea91f22f" x="274.714252" y="118.015" style="stroke: #000000; stroke-width: 0.8"/>
      </g>
     </g>
     <g id="text_28">
      <!-- 0.00 -->
      <g transform="translate(250.401752 121.054375) scale(0.08 -0.08)">
       <use xlink:href="#DejaVuSans-30"/>
       <use xlink:href="#DejaVuSans-2e" x="63.623047"/>
       <use xlink:href="#DejaVuSans-30" x="95.410156"/>
       <use xlink:href="#DejaVuSans-30" x="159.033203"/>
      </g>
     </g>
    </g>
    <g id="ytick_7">
     <g id="line2d_23">
      <g>
       <use xlink:href="#m0aea91f22f" x="274.714252" y="91.071094" style="stroke: #000000; stroke-width: 0.8"/>
      </g>
     </g>
     <g id="text_29">
      <!-- 0.32 -->
      <g transform="translate(250.401752 94.110469) scale(0.08 -0.08)">
       <defs>
        <path id="DejaVuSans-33" d="M 2597 2516 
Q 3050 2419 3304 2112 
Q 3559 1806 3559 1356 
Q 3559 666 3084 287 
Q 2609 -91 1734 -91 
Q 1441 -91 1130 -33 
Q 819 25 488 141 
L 488 750 
Q 750 597 1062 519 
Q 1375 441 1716 441 
Q 2309 441 2620 675 
Q 2931 909 2931 1356 
Q 2931 1769 2642 2001 
Q 2353 2234 1838 2234 
L 1294 2234 
L 1294 2753 
L 1863 2753 
Q 2328 2753 2575 2939 
Q 2822 3125 2822 3475 
Q 2822 3834 2567 4026 
Q 2313 4219 1838 4219 
Q 1578 4219 1281 4162 
Q 984 4106 628 3988 
L 628 4550 
Q 988 4650 1302 4700 
Q 1616 4750 1894 4750 
Q 2613 4750 3031 4423 
Q 3450 4097 3450 3541 
Q 3450 3153 3228 2886 
Q 3006 2619 2597 2516 
z
" transform="scale(0.015625)"/>
       </defs>
       <use xlink:href="#DejaVuSans-30"/>
       <use xlink:href="#DejaVuSans-2e" x="63.623047"/>
       <use xlink:href="#DejaVuSans-33" x="95.410156"/>
       <use xlink:href="#DejaVuSans-32" x="159.033203"/>
      </g>
     </g>
    </g>
    <g id="ytick_8">
     <g id="line2d_24">
      <g>
       <use xlink:href="#m0aea91f22f" x="274.714252" y="64.127187" style="stroke: #000000; stroke-width: 0.8"/>
      </g>
     </g>
     <g id="text_30">
      <!-- 0.63 -->
      <g transform="translate(250.401752 67.166562) scale(0.08 -0.08)">
       <use xlink:href="#DejaVuSans-30"/>
       <use xlink:href="#DejaVuSans-2e" x="63.623047"/>
       <use xlink:href="#DejaVuSans-36" x="95.410156"/>
       <use xlink:href="#DejaVuSans-33" x="159.033203"/>
      </g>
     </g>
    </g>
    <g id="ytick_9">
     <g id="line2d_25">
      <g>
       <use xlink:href="#m0aea91f22f" x="274.714252" y="37.183281" style="stroke: #000000; stroke-width: 0.8"/>
      </g>
     </g>
     <g id="text_31">
      <!-- 0.95 -->
      <g transform="translate(250.401752 40.222656) scale(0.08 -0.08)">
       <defs>
        <path id="DejaVuSans-39" d="M 703 97 
L 703 672 
Q 941 559 1184 500 
Q 1428 441 1663 441 
Q 2288 441 2617 861 
Q 2947 1281 2994 2138 
Q 2813 1869 2534 1725 
Q 2256 1581 1919 1581 
Q 1219 1581 811 2004 
Q 403 2428 403 3163 
Q 403 3881 828 4315 
Q 1253 4750 1959 4750 
Q 2769 4750 3195 4129 
Q 3622 3509 3622 2328 
Q 3622 1225 3098 567 
Q 2575 -91 1691 -91 
Q 1453 -91 1209 -44 
Q 966 3 703 97 
z
M 1959 2075 
Q 2384 2075 2632 2365 
Q 2881 2656 2881 3163 
Q 2881 3666 2632 3958 
Q 2384 4250 1959 4250 
Q 1534 4250 1286 3958 
Q 1038 3666 1038 3163 
Q 1038 2656 1286 2365 
Q 1534 2075 1959 2075 
z
" transform="scale(0.015625)"/>
        <path id="DejaVuSans-35" d="M 691 4666 
L 3169 4666 
L 3169 4134 
L 1269 4134 
L 1269 2991 
Q 1406 3038 1543 3061 
Q 1681 3084 1819 3084 
Q 2600 3084 3056 2656 
Q 3513 2228 3513 1497 
Q 3513 744 3044 326 
Q 2575 -91 1722 -91 
Q 1428 -91 1123 -41 
Q 819 9 494 109 
L 494 744 
Q 775 591 1075 516 
Q 1375 441 1709 441 
Q 2250 441 2565 725 
Q 2881 1009 2881 1497 
Q 2881 1984 2565 2268 
Q 2250 2553 1709 2553 
Q 1456 2553 1204 2497 
Q 953 2441 691 2322 
L 691 4666 
z
" transform="scale(0.015625)"/>
       </defs>
       <use xlink:href="#DejaVuSans-30"/>
       <use xlink:href="#DejaVuSans-2e" x="63.623047"/>
       <use xlink:href="#DejaVuSans-39" x="95.410156"/>
       <use xlink:href="#DejaVuSans-35" x="159.033203"/>
      </g>
     </g>
    </g>
    <g id="ytick_10">
     <g id="line2d_26">
      <g>
       <use xlink:href="#m0aea91f22f" x="274.714252" y="10.239375" style="stroke: #000000; stroke-width: 0.8"/>
      </g>
     </g>
     <g id="text_32">
      <!-- 1.26 -->
      <g transform="translate(250.401752 13.27875) scale(0.08 -0.08)">
       <use xlink:href="#DejaVuSans-31"/>
       <use xlink:href="#DejaVuSans-2e" x="63.623047"/>
       <use xlink:href="#DejaVuSans-32" x="95.410156"/>
       <use xlink:href="#DejaVuSans-36" x="159.033203"/>
      </g>
     </g>
    </g>
    <g id="text_33">
     <!-- Publications fraction ($\times 10^{-4}$) -->
     <g transform="translate(244.738002 122.007187) rotate(-90) scale(0.08 -0.08)">
      <use xlink:href="#DejaVuSans-50" transform="translate(0 0.684375)"/>
      <use xlink:href="#DejaVuSans-75" transform="translate(60.302734 0.684375)"/>
      <use xlink:href="#DejaVuSans-62" transform="translate(123.681641 0.684375)"/>
      <use xlink:href="#DejaVuSans-6c" transform="translate(187.158203 0.684375)"/>
      <use xlink:href="#DejaVuSans-69" transform="translate(214.941406 0.684375)"/>
      <use xlink:href="#DejaVuSans-63" transform="translate(242.724609 0.684375)"/>
      <use xlink:href="#DejaVuSans-61" transform="translate(297.705078 0.684375)"/>
      <use xlink:href="#DejaVuSans-74" transform="translate(358.984375 0.684375)"/>
      <use xlink:href="#DejaVuSans-69" transform="translate(398.193359 0.684375)"/>
      <use xlink:href="#DejaVuSans-6f" transform="translate(425.976562 0.684375)"/>
      <use xlink:href="#DejaVuSans-6e" transform="translate(487.158203 0.684375)"/>
      <use xlink:href="#DejaVuSans-73" transform="translate(550.537109 0.684375)"/>
      <use xlink:href="#DejaVuSans-20" transform="translate(602.636719 0.684375)"/>
      <use xlink:href="#DejaVuSans-66" transform="translate(634.423828 0.684375)"/>
      <use xlink:href="#DejaVuSans-72" transform="translate(669.628906 0.684375)"/>
      <use xlink:href="#DejaVuSans-61" transform="translate(710.742188 0.684375)"/>
      <use xlink:href="#DejaVuSans-63" transform="translate(772.021484 0.684375)"/>
      <use xlink:href="#DejaVuSans-74" transform="translate(827.001953 0.684375)"/>
      <use xlink:href="#DejaVuSans-69" transform="translate(866.210938 0.684375)"/>
      <use xlink:href="#DejaVuSans-6f" transform="translate(893.994141 0.684375)"/>
      <use xlink:href="#DejaVuSans-6e" transform="translate(955.175781 0.684375)"/>
      <use xlink:href="#DejaVuSans-20" transform="translate(1018.554688 0.684375)"/>
      <use xlink:href="#DejaVuSans-28" transform="translate(1050.341797 0.684375)"/>
      <use xlink:href="#DejaVuSans-d7" transform="translate(1089.355469 0.684375)"/>
      <use xlink:href="#DejaVuSans-31" transform="translate(1173.144531 0.684375)"/>
      <use xlink:href="#DejaVuSans-30" transform="translate(1236.767578 0.684375)"/>
      <use xlink:href="#DejaVuSans-2212" transform="translate(1301.347656 38.965625) scale(0.7)"/>
      <use xlink:href="#DejaVuSans-34" transform="translate(1360 38.965625) scale(0.7)"/>
      <use xlink:href="#DejaVuSans-29" transform="translate(1407.270508 0.684375)"/>
     </g>
    </g>
   </g>
   <g id="patch_69">
    <path d="M 274.714252 118.015 
L 274.714252 10.239375 
" style="fill: none; stroke: #000000; stroke-width: 0.8; stroke-linejoin: miter; stroke-linecap: square"/>
   </g>
   <g id="patch_70">
    <path d="M 274.714252 118.015 
L 453.460473 118.015 
" style="fill: none; stroke: #000000; stroke-width: 0.8; stroke-linejoin: miter; stroke-linecap: square"/>
   </g>
   <g id="legend_2">
    <g id="patch_71">
     <path d="M 281.914252 23.518125 
L 297.914252 23.518125 
L 297.914252 17.918125 
L 281.914252 17.918125 
z
" style="fill: #8e8e8e"/>
    </g>
    <g id="text_34">
     <!-- Wave propagation -->
     <g transform="translate(304.314252 23.518125) scale(0.08 -0.08)">
      <defs>
       <path id="DejaVuSans-57" d="M 213 4666 
L 850 4666 
L 1831 722 
L 2809 4666 
L 3519 4666 
L 4500 722 
L 5478 4666 
L 6119 4666 
L 4947 0 
L 4153 0 
L 3169 4050 
L 2175 0 
L 1381 0 
L 213 4666 
z
" transform="scale(0.015625)"/>
       <path id="DejaVuSans-76" d="M 191 3500 
L 800 3500 
L 1894 563 
L 2988 3500 
L 3597 3500 
L 2284 0 
L 1503 0 
L 191 3500 
z
" transform="scale(0.015625)"/>
       <path id="DejaVuSans-70" d="M 1159 525 
L 1159 -1331 
L 581 -1331 
L 581 3500 
L 1159 3500 
L 1159 2969 
Q 1341 3281 1617 3432 
Q 1894 3584 2278 3584 
Q 2916 3584 3314 3078 
Q 3713 2572 3713 1747 
Q 3713 922 3314 415 
Q 2916 -91 2278 -91 
Q 1894 -91 1617 61 
Q 1341 213 1159 525 
z
M 3116 1747 
Q 3116 2381 2855 2742 
Q 2594 3103 2138 3103 
Q 1681 3103 1420 2742 
Q 1159 2381 1159 1747 
Q 1159 1113 1420 752 
Q 1681 391 2138 391 
Q 2594 391 2855 752 
Q 3116 1113 3116 1747 
z
" transform="scale(0.015625)"/>
      </defs>
      <use xlink:href="#DejaVuSans-57"/>
      <use xlink:href="#DejaVuSans-61" x="92.501953"/>
      <use xlink:href="#DejaVuSans-76" x="153.78125"/>
      <use xlink:href="#DejaVuSans-65" x="212.960938"/>
      <use xlink:href="#DejaVuSans-20" x="274.484375"/>
      <use xlink:href="#DejaVuSans-70" x="306.271484"/>
      <use xlink:href="#DejaVuSans-72" x="369.748047"/>
      <use xlink:href="#DejaVuSans-6f" x="408.611328"/>
      <use xlink:href="#DejaVuSans-70" x="469.792969"/>
      <use xlink:href="#DejaVuSans-61" x="533.269531"/>
      <use xlink:href="#DejaVuSans-67" x="594.548828"/>
      <use xlink:href="#DejaVuSans-61" x="658.025391"/>
      <use xlink:href="#DejaVuSans-74" x="719.304688"/>
      <use xlink:href="#DejaVuSans-69" x="758.513672"/>
      <use xlink:href="#DejaVuSans-6f" x="786.296875"/>
      <use xlink:href="#DejaVuSans-6e" x="847.478516"/>
     </g>
    </g>
   </g>
  </g>
  <g id="axes_3">
   <g id="patch_72">
    <path d="M 40.7125 262.015 
L 219.458722 262.015 
L 219.458722 154.239375 
L 40.7125 154.239375 
z
" style="fill: #ffffff"/>
   </g>
   <g id="patch_73">
    <path d="M 48.837328 262.015 
L 95.264918 262.015 
L 95.264918 216.210359 
L 48.837328 216.210359 
z
" clip-path="url(#p21838877e7)"/>
   </g>
   <g id="patch_74">
    <path d="M 106.871816 262.015 
L 153.299406 262.015 
L 153.299406 225.920836 
L 106.871816 225.920836 
z
" clip-path="url(#p21838877e7)" style="fill: #2255a0; fill-opacity: 0.501961"/>
   </g>
   <g id="patch_75">
    <path d="M 164.906303 262.015 
L 211.333893 262.015 
L 211.333893 261.499242 
L 164.906303 261.499242 
z
" clip-path="url(#p21838877e7)" style="fill: #8e8e8e"/>
   </g>
   <g id="matplotlib.axis_5">
    <g id="xtick_17">
     <g id="line2d_27">
      <g>
       <use xlink:href="#m45df81f482" x="72.051123" y="262.015" style="stroke: #000000; stroke-width: 0.8"/>
      </g>
     </g>
     <g id="text_35">
      <!-- TensorFlow -->
      <g transform="translate(49.985498 274.59375) scale(0.08 -0.08)">
       <defs>
        <path id="DejaVuSans-54" d="M -19 4666 
L 3928 4666 
L 3928 4134 
L 2272 4134 
L 2272 0 
L 1638 0 
L 1638 4134 
L -19 4134 
L -19 4666 
z
" transform="scale(0.015625)"/>
        <path id="DejaVuSans-46" d="M 628 4666 
L 3309 4666 
L 3309 4134 
L 1259 4134 
L 1259 2759 
L 3109 2759 
L 3109 2228 
L 1259 2228 
L 1259 0 
L 628 0 
L 628 4666 
z
" transform="scale(0.015625)"/>
        <path id="DejaVuSans-77" d="M 269 3500 
L 844 3500 
L 1563 769 
L 2278 3500 
L 2956 3500 
L 3675 769 
L 4391 3500 
L 4966 3500 
L 4050 0 
L 3372 0 
L 2619 2869 
L 1863 0 
L 1184 0 
L 269 3500 
z
" transform="scale(0.015625)"/>
       </defs>
       <use xlink:href="#DejaVuSans-54"/>
       <use xlink:href="#DejaVuSans-65" x="44.083984"/>
       <use xlink:href="#DejaVuSans-6e" x="105.607422"/>
       <use xlink:href="#DejaVuSans-73" x="168.986328"/>
       <use xlink:href="#DejaVuSans-6f" x="221.085938"/>
       <use xlink:href="#DejaVuSans-72" x="282.267578"/>
       <use xlink:href="#DejaVuSans-46" x="323.380859"/>
       <use xlink:href="#DejaVuSans-6c" x="380.900391"/>
       <use xlink:href="#DejaVuSans-6f" x="408.683594"/>
       <use xlink:href="#DejaVuSans-77" x="469.865234"/>
      </g>
     </g>
    </g>
    <g id="xtick_18">
     <g id="line2d_28">
      <g>
       <use xlink:href="#m45df81f482" x="130.085611" y="262.015" style="stroke: #000000; stroke-width: 0.8"/>
      </g>
     </g>
     <g id="text_36">
      <!-- PyTorch -->
      <g transform="translate(114.806861 274.59375) scale(0.08 -0.08)">
       <defs>
        <path id="DejaVuSans-79" d="M 2059 -325 
Q 1816 -950 1584 -1140 
Q 1353 -1331 966 -1331 
L 506 -1331 
L 506 -850 
L 844 -850 
Q 1081 -850 1212 -737 
Q 1344 -625 1503 -206 
L 1606 56 
L 191 3500 
L 800 3500 
L 1894 763 
L 2988 3500 
L 3597 3500 
L 2059 -325 
z
" transform="scale(0.015625)"/>
       </defs>
       <use xlink:href="#DejaVuSans-50"/>
       <use xlink:href="#DejaVuSans-79" x="60.302734"/>
       <use xlink:href="#DejaVuSans-54" x="119.482422"/>
       <use xlink:href="#DejaVuSans-6f" x="163.566406"/>
       <use xlink:href="#DejaVuSans-72" x="224.748047"/>
       <use xlink:href="#DejaVuSans-63" x="263.611328"/>
       <use xlink:href="#DejaVuSans-68" x="318.591797"/>
      </g>
     </g>
    </g>
    <g id="xtick_19">
     <g id="line2d_29">
      <g>
       <use xlink:href="#m45df81f482" x="188.120098" y="262.015" style="stroke: #000000; stroke-width: 0.8"/>
      </g>
     </g>
     <g id="text_37">
      <!-- JAX -->
      <g transform="translate(181.533848 274.59375) scale(0.08 -0.08)">
       <defs>
        <path id="DejaVuSans-4a" d="M 628 4666 
L 1259 4666 
L 1259 325 
Q 1259 -519 939 -900 
Q 619 -1281 -91 -1281 
L -331 -1281 
L -331 -750 
L -134 -750 
Q 284 -750 456 -515 
Q 628 -281 628 325 
L 628 4666 
z
" transform="scale(0.015625)"/>
        <path id="DejaVuSans-41" d="M 2188 4044 
L 1331 1722 
L 3047 1722 
L 2188 4044 
z
M 1831 4666 
L 2547 4666 
L 4325 0 
L 3669 0 
L 3244 1197 
L 1141 1197 
L 716 0 
L 50 0 
L 1831 4666 
z
" transform="scale(0.015625)"/>
        <path id="DejaVuSans-58" d="M 403 4666 
L 1081 4666 
L 2241 2931 
L 3406 4666 
L 4084 4666 
L 2584 2425 
L 4184 0 
L 3506 0 
L 2194 1984 
L 872 0 
L 191 0 
L 1856 2491 
L 403 4666 
z
" transform="scale(0.015625)"/>
       </defs>
       <use xlink:href="#DejaVuSans-4a"/>
       <use xlink:href="#DejaVuSans-41" x="27.742188"/>
       <use xlink:href="#DejaVuSans-58" x="96.150391"/>
      </g>
     </g>
    </g>
    <g id="text_38">
     <!-- Python frameworks -->
     <g transform="translate(91.324986 286.33625) scale(0.08 -0.08)">
      <defs>
       <path id="DejaVuSans-6b" d="M 581 4863 
L 1159 4863 
L 1159 1991 
L 2875 3500 
L 3609 3500 
L 1753 1863 
L 3688 0 
L 2938 0 
L 1159 1709 
L 1159 0 
L 581 0 
L 581 4863 
z
" transform="scale(0.015625)"/>
      </defs>
      <use xlink:href="#DejaVuSans-50"/>
      <use xlink:href="#DejaVuSans-79" x="60.302734"/>
      <use xlink:href="#DejaVuSans-74" x="119.482422"/>
      <use xlink:href="#DejaVuSans-68" x="158.691406"/>
      <use xlink:href="#DejaVuSans-6f" x="222.070312"/>
      <use xlink:href="#DejaVuSans-6e" x="283.251953"/>
      <use xlink:href="#DejaVuSans-20" x="346.630859"/>
      <use xlink:href="#DejaVuSans-66" x="378.417969"/>
      <use xlink:href="#DejaVuSans-72" x="413.623047"/>
      <use xlink:href="#DejaVuSans-61" x="454.736328"/>
      <use xlink:href="#DejaVuSans-6d" x="516.015625"/>
      <use xlink:href="#DejaVuSans-65" x="613.427734"/>
      <use xlink:href="#DejaVuSans-77" x="674.951172"/>
      <use xlink:href="#DejaVuSans-6f" x="756.738281"/>
      <use xlink:href="#DejaVuSans-72" x="817.919922"/>
      <use xlink:href="#DejaVuSans-6b" x="859.033203"/>
      <use xlink:href="#DejaVuSans-73" x="916.943359"/>
     </g>
    </g>
   </g>
   <g id="matplotlib.axis_6">
    <g id="ytick_11">
     <g id="line2d_30">
      <g>
       <use xlink:href="#m0aea91f22f" x="40.7125" y="262.015" style="stroke: #000000; stroke-width: 0.8"/>
      </g>
     </g>
     <g id="text_39">
      <!-- 0 -->
      <g transform="translate(29.1225 265.054375) scale(0.08 -0.08)">
       <use xlink:href="#DejaVuSans-30"/>
      </g>
     </g>
    </g>
    <g id="ytick_12">
     <g id="line2d_31">
      <g>
       <use xlink:href="#m0aea91f22f" x="40.7125" y="240.673292" style="stroke: #000000; stroke-width: 0.8"/>
      </g>
     </g>
     <g id="text_40">
      <!-- 20 -->
      <g transform="translate(24.0325 243.712667) scale(0.08 -0.08)">
       <use xlink:href="#DejaVuSans-32"/>
       <use xlink:href="#DejaVuSans-30" x="63.623047"/>
      </g>
     </g>
    </g>
    <g id="ytick_13">
     <g id="line2d_32">
      <g>
       <use xlink:href="#m0aea91f22f" x="40.7125" y="219.331584" style="stroke: #000000; stroke-width: 0.8"/>
      </g>
     </g>
     <g id="text_41">
      <!-- 40 -->
      <g transform="translate(24.0325 222.370959) scale(0.08 -0.08)">
       <use xlink:href="#DejaVuSans-34"/>
       <use xlink:href="#DejaVuSans-30" x="63.623047"/>
      </g>
     </g>
    </g>
    <g id="ytick_14">
     <g id="line2d_33">
      <g>
       <use xlink:href="#m0aea91f22f" x="40.7125" y="197.989876" style="stroke: #000000; stroke-width: 0.8"/>
      </g>
     </g>
     <g id="text_42">
      <!-- 60 -->
      <g transform="translate(24.0325 201.029251) scale(0.08 -0.08)">
       <use xlink:href="#DejaVuSans-36"/>
       <use xlink:href="#DejaVuSans-30" x="63.623047"/>
      </g>
     </g>
    </g>
    <g id="ytick_15">
     <g id="line2d_34">
      <g>
       <use xlink:href="#m0aea91f22f" x="40.7125" y="176.648168" style="stroke: #000000; stroke-width: 0.8"/>
      </g>
     </g>
     <g id="text_43">
      <!-- 80 -->
      <g transform="translate(24.0325 179.687543) scale(0.08 -0.08)">
       <use xlink:href="#DejaVuSans-38"/>
       <use xlink:href="#DejaVuSans-30" x="63.623047"/>
      </g>
     </g>
    </g>
    <g id="ytick_16">
     <g id="line2d_35">
      <g>
       <use xlink:href="#m0aea91f22f" x="40.7125" y="155.30646" style="stroke: #000000; stroke-width: 0.8"/>
      </g>
     </g>
     <g id="text_44">
      <!-- 100 -->
      <g transform="translate(18.9425 158.345835) scale(0.08 -0.08)">
       <use xlink:href="#DejaVuSans-31"/>
       <use xlink:href="#DejaVuSans-30" x="63.623047"/>
       <use xlink:href="#DejaVuSans-30" x="127.246094"/>
      </g>
     </g>
    </g>
    <g id="text_45">
     <!-- Average interest (%) -->
     <g transform="translate(13.27875 249.360937) rotate(-90) scale(0.08 -0.08)">
      <defs>
       <path id="DejaVuSans-25" d="M 4653 2053 
Q 4381 2053 4226 1822 
Q 4072 1591 4072 1178 
Q 4072 772 4226 539 
Q 4381 306 4653 306 
Q 4919 306 5073 539 
Q 5228 772 5228 1178 
Q 5228 1588 5073 1820 
Q 4919 2053 4653 2053 
z
M 4653 2450 
Q 5147 2450 5437 2106 
Q 5728 1763 5728 1178 
Q 5728 594 5436 251 
Q 5144 -91 4653 -91 
Q 4153 -91 3862 251 
Q 3572 594 3572 1178 
Q 3572 1766 3864 2108 
Q 4156 2450 4653 2450 
z
M 1428 4353 
Q 1159 4353 1004 4120 
Q 850 3888 850 3481 
Q 850 3069 1003 2837 
Q 1156 2606 1428 2606 
Q 1700 2606 1854 2837 
Q 2009 3069 2009 3481 
Q 2009 3884 1853 4118 
Q 1697 4353 1428 4353 
z
M 4250 4750 
L 4750 4750 
L 1831 -91 
L 1331 -91 
L 4250 4750 
z
M 1428 4750 
Q 1922 4750 2215 4408 
Q 2509 4066 2509 3481 
Q 2509 2891 2217 2550 
Q 1925 2209 1428 2209 
Q 931 2209 642 2551 
Q 353 2894 353 3481 
Q 353 4063 643 4406 
Q 934 4750 1428 4750 
z
" transform="scale(0.015625)"/>
      </defs>
      <use xlink:href="#DejaVuSans-41"/>
      <use xlink:href="#DejaVuSans-76" x="62.533203"/>
      <use xlink:href="#DejaVuSans-65" x="121.712891"/>
      <use xlink:href="#DejaVuSans-72" x="183.236328"/>
      <use xlink:href="#DejaVuSans-61" x="224.349609"/>
      <use xlink:href="#DejaVuSans-67" x="285.628906"/>
      <use xlink:href="#DejaVuSans-65" x="349.105469"/>
      <use xlink:href="#DejaVuSans-20" x="410.628906"/>
      <use xlink:href="#DejaVuSans-69" x="442.416016"/>
      <use xlink:href="#DejaVuSans-6e" x="470.199219"/>
      <use xlink:href="#DejaVuSans-74" x="533.578125"/>
      <use xlink:href="#DejaVuSans-65" x="572.787109"/>
      <use xlink:href="#DejaVuSans-72" x="634.310547"/>
      <use xlink:href="#DejaVuSans-65" x="673.173828"/>
      <use xlink:href="#DejaVuSans-73" x="734.697266"/>
      <use xlink:href="#DejaVuSans-74" x="786.796875"/>
      <use xlink:href="#DejaVuSans-20" x="826.005859"/>
      <use xlink:href="#DejaVuSans-28" x="857.792969"/>
      <use xlink:href="#DejaVuSans-25" x="896.806641"/>
      <use xlink:href="#DejaVuSans-29" x="991.826172"/>
     </g>
    </g>
   </g>
   <g id="patch_76">
    <path d="M 40.7125 262.015 
L 40.7125 154.239375 
" style="fill: none; stroke: #000000; stroke-width: 0.8; stroke-linejoin: miter; stroke-linecap: square"/>
   </g>
   <g id="patch_77">
    <path d="M 40.7125 262.015 
L 219.458722 262.015 
" style="fill: none; stroke: #000000; stroke-width: 0.8; stroke-linejoin: miter; stroke-linecap: square"/>
   </g>
   <g id="text_46">
    <!-- 42.9% -->
    <g transform="translate(59.344248 214.525268) scale(0.08 -0.08)">
     <use xlink:href="#DejaVuSans-34"/>
     <use xlink:href="#DejaVuSans-32" x="63.623047"/>
     <use xlink:href="#DejaVuSans-2e" x="127.246094"/>
     <use xlink:href="#DejaVuSans-39" x="159.033203"/>
     <use xlink:href="#DejaVuSans-25" x="222.65625"/>
    </g>
   </g>
   <g id="text_47">
    <!-- 33.8% -->
    <g transform="translate(117.378736 224.235745) scale(0.08 -0.08)">
     <use xlink:href="#DejaVuSans-33"/>
     <use xlink:href="#DejaVuSans-33" x="63.623047"/>
     <use xlink:href="#DejaVuSans-2e" x="127.246094"/>
     <use xlink:href="#DejaVuSans-38" x="159.033203"/>
     <use xlink:href="#DejaVuSans-25" x="222.65625"/>
    </g>
   </g>
   <g id="text_48">
    <!-- 0.5% -->
    <g transform="translate(177.958223 259.81415) scale(0.08 -0.08)">
     <use xlink:href="#DejaVuSans-30"/>
     <use xlink:href="#DejaVuSans-2e" x="63.623047"/>
     <use xlink:href="#DejaVuSans-35" x="95.410156"/>
     <use xlink:href="#DejaVuSans-25" x="159.033203"/>
    </g>
   </g>
  </g>
  <g id="axes_4">
   <g id="patch_78">
    <path d="M 274.714252 262.015 
L 453.460473 262.015 
L 453.460473 154.239375 
L 274.714252 154.239375 
z
" style="fill: #ffffff"/>
   </g>
   <g id="matplotlib.axis_7">
    <g id="xtick_20">
     <g id="line2d_36">
      <g>
       <use xlink:href="#m45df81f482" x="274.714252" y="262.015" style="stroke: #000000; stroke-width: 0.8"/>
      </g>
     </g>
     <g id="text_49">
      <!-- 2015 -->
      <g transform="translate(264.534252 274.59375) scale(0.08 -0.08)">
       <use xlink:href="#DejaVuSans-32"/>
       <use xlink:href="#DejaVuSans-30" x="63.623047"/>
       <use xlink:href="#DejaVuSans-31" x="127.246094"/>
       <use xlink:href="#DejaVuSans-35" x="190.869141"/>
      </g>
     </g>
    </g>
    <g id="xtick_21">
     <g id="line2d_37">
      <g>
       <use xlink:href="#m45df81f482" x="309.914545" y="262.015" style="stroke: #000000; stroke-width: 0.8"/>
      </g>
     </g>
     <g id="text_50">
      <!-- 2017 -->
      <g transform="translate(299.734545 274.59375) scale(0.08 -0.08)">
       <defs>
        <path id="DejaVuSans-37" d="M 525 4666 
L 3525 4666 
L 3525 4397 
L 1831 0 
L 1172 0 
L 2766 4134 
L 525 4134 
L 525 4666 
z
" transform="scale(0.015625)"/>
       </defs>
       <use xlink:href="#DejaVuSans-32"/>
       <use xlink:href="#DejaVuSans-30" x="63.623047"/>
       <use xlink:href="#DejaVuSans-31" x="127.246094"/>
       <use xlink:href="#DejaVuSans-37" x="190.869141"/>
      </g>
     </g>
    </g>
    <g id="xtick_22">
     <g id="line2d_38">
      <g>
       <use xlink:href="#m45df81f482" x="345.066684" y="262.015" style="stroke: #000000; stroke-width: 0.8"/>
      </g>
     </g>
     <g id="text_51">
      <!-- 2019 -->
      <g transform="translate(334.886684 274.59375) scale(0.08 -0.08)">
       <use xlink:href="#DejaVuSans-32"/>
       <use xlink:href="#DejaVuSans-30" x="63.623047"/>
       <use xlink:href="#DejaVuSans-31" x="127.246094"/>
       <use xlink:href="#DejaVuSans-39" x="190.869141"/>
      </g>
     </g>
    </g>
    <g id="xtick_23">
     <g id="line2d_39">
      <g>
       <use xlink:href="#m45df81f482" x="380.266977" y="262.015" style="stroke: #000000; stroke-width: 0.8"/>
      </g>
     </g>
     <g id="text_52">
      <!-- 2021 -->
      <g transform="translate(370.086977 274.59375) scale(0.08 -0.08)">
       <use xlink:href="#DejaVuSans-32"/>
       <use xlink:href="#DejaVuSans-30" x="63.623047"/>
       <use xlink:href="#DejaVuSans-32" x="127.246094"/>
       <use xlink:href="#DejaVuSans-31" x="190.869141"/>
      </g>
     </g>
    </g>
    <g id="xtick_24">
     <g id="line2d_40">
      <g>
       <use xlink:href="#m45df81f482" x="415.419117" y="262.015" style="stroke: #000000; stroke-width: 0.8"/>
      </g>
     </g>
     <g id="text_53">
      <!-- 2023 -->
      <g transform="translate(405.239117 274.59375) scale(0.08 -0.08)">
       <use xlink:href="#DejaVuSans-32"/>
       <use xlink:href="#DejaVuSans-30" x="63.623047"/>
       <use xlink:href="#DejaVuSans-32" x="127.246094"/>
       <use xlink:href="#DejaVuSans-33" x="190.869141"/>
      </g>
     </g>
    </g>
    <g id="xtick_25">
     <g id="line2d_41">
      <g>
       <use xlink:href="#m45df81f482" x="450.61941" y="262.015" style="stroke: #000000; stroke-width: 0.8"/>
      </g>
     </g>
     <g id="text_54">
      <!-- 2025 -->
      <g transform="translate(440.43941 274.59375) scale(0.08 -0.08)">
       <use xlink:href="#DejaVuSans-32"/>
       <use xlink:href="#DejaVuSans-30" x="63.623047"/>
       <use xlink:href="#DejaVuSans-32" x="127.246094"/>
       <use xlink:href="#DejaVuSans-35" x="190.869141"/>
      </g>
     </g>
    </g>
    <g id="text_55">
     <!-- Year -->
     <g transform="translate(355.617362 286.33625) scale(0.08 -0.08)">
      <use xlink:href="#DejaVuSans-59"/>
      <use xlink:href="#DejaVuSans-65" x="47.833984"/>
      <use xlink:href="#DejaVuSans-61" x="109.357422"/>
      <use xlink:href="#DejaVuSans-72" x="170.636719"/>
     </g>
    </g>
   </g>
   <g id="matplotlib.axis_8">
    <g id="ytick_17">
     <g id="line2d_42">
      <g>
       <use xlink:href="#m0aea91f22f" x="274.714252" y="256.882827" style="stroke: #000000; stroke-width: 0.8"/>
      </g>
     </g>
     <g id="text_56">
      <!-- 0 -->
      <g transform="translate(263.124252 259.922202) scale(0.08 -0.08)">
       <use xlink:href="#DejaVuSans-30"/>
      </g>
     </g>
    </g>
    <g id="ytick_18">
     <g id="line2d_43">
      <g>
       <use xlink:href="#m0aea91f22f" x="274.714252" y="236.354137" style="stroke: #000000; stroke-width: 0.8"/>
      </g>
     </g>
     <g id="text_57">
      <!-- 20 -->
      <g transform="translate(258.034252 239.393512) scale(0.08 -0.08)">
       <use xlink:href="#DejaVuSans-32"/>
       <use xlink:href="#DejaVuSans-30" x="63.623047"/>
      </g>
     </g>
    </g>
    <g id="ytick_19">
     <g id="line2d_44">
      <g>
       <use xlink:href="#m0aea91f22f" x="274.714252" y="215.825446" style="stroke: #000000; stroke-width: 0.8"/>
      </g>
     </g>
     <g id="text_58">
      <!-- 40 -->
      <g transform="translate(258.034252 218.864821) scale(0.08 -0.08)">
       <use xlink:href="#DejaVuSans-34"/>
       <use xlink:href="#DejaVuSans-30" x="63.623047"/>
      </g>
     </g>
    </g>
    <g id="ytick_20">
     <g id="line2d_45">
      <g>
       <use xlink:href="#m0aea91f22f" x="274.714252" y="195.296756" style="stroke: #000000; stroke-width: 0.8"/>
      </g>
     </g>
     <g id="text_59">
      <!-- 60 -->
      <g transform="translate(258.034252 198.336131) scale(0.08 -0.08)">
       <use xlink:href="#DejaVuSans-36"/>
       <use xlink:href="#DejaVuSans-30" x="63.623047"/>
      </g>
     </g>
    </g>
    <g id="ytick_21">
     <g id="line2d_46">
      <g>
       <use xlink:href="#m0aea91f22f" x="274.714252" y="174.768065" style="stroke: #000000; stroke-width: 0.8"/>
      </g>
     </g>
     <g id="text_60">
      <!-- 80 -->
      <g transform="translate(258.034252 177.80744) scale(0.08 -0.08)">
       <use xlink:href="#DejaVuSans-38"/>
       <use xlink:href="#DejaVuSans-30" x="63.623047"/>
      </g>
     </g>
    </g>
    <g id="ytick_22">
     <g id="line2d_47">
      <g>
       <use xlink:href="#m0aea91f22f" x="274.714252" y="154.239375" style="stroke: #000000; stroke-width: 0.8"/>
      </g>
     </g>
     <g id="text_61">
      <!-- 100 -->
      <g transform="translate(252.944252 157.27875) scale(0.08 -0.08)">
       <use xlink:href="#DejaVuSans-31"/>
       <use xlink:href="#DejaVuSans-30" x="63.623047"/>
       <use xlink:href="#DejaVuSans-30" x="127.246094"/>
      </g>
     </g>
    </g>
    <g id="text_62">
     <!-- Interest over time (%) -->
     <g transform="translate(247.280502 252.232187) rotate(-90) scale(0.08 -0.08)">
      <defs>
       <path id="DejaVuSans-49" d="M 628 4666 
L 1259 4666 
L 1259 0 
L 628 0 
L 628 4666 
z
" transform="scale(0.015625)"/>
      </defs>
      <use xlink:href="#DejaVuSans-49"/>
      <use xlink:href="#DejaVuSans-6e" x="29.492188"/>
      <use xlink:href="#DejaVuSans-74" x="92.871094"/>
      <use xlink:href="#DejaVuSans-65" x="132.080078"/>
      <use xlink:href="#DejaVuSans-72" x="193.603516"/>
      <use xlink:href="#DejaVuSans-65" x="232.466797"/>
      <use xlink:href="#DejaVuSans-73" x="293.990234"/>
      <use xlink:href="#DejaVuSans-74" x="346.089844"/>
      <use xlink:href="#DejaVuSans-20" x="385.298828"/>
      <use xlink:href="#DejaVuSans-6f" x="417.085938"/>
      <use xlink:href="#DejaVuSans-76" x="478.267578"/>
      <use xlink:href="#DejaVuSans-65" x="537.447266"/>
      <use xlink:href="#DejaVuSans-72" x="598.970703"/>
      <use xlink:href="#DejaVuSans-20" x="640.083984"/>
      <use xlink:href="#DejaVuSans-74" x="671.871094"/>
      <use xlink:href="#DejaVuSans-69" x="711.080078"/>
      <use xlink:href="#DejaVuSans-6d" x="738.863281"/>
      <use xlink:href="#DejaVuSans-65" x="836.275391"/>
      <use xlink:href="#DejaVuSans-20" x="897.798828"/>
      <use xlink:href="#DejaVuSans-28" x="929.585938"/>
      <use xlink:href="#DejaVuSans-25" x="968.599609"/>
      <use xlink:href="#DejaVuSans-29" x="1063.619141"/>
     </g>
    </g>
   </g>
   <g id="line2d_48">
    <path d="M 274.714252 256.882827 
L 276.207014 256.882827 
L 277.555315 256.882827 
L 279.048077 256.882827 
L 280.492686 256.882827 
L 281.985448 256.882827 
L 283.430056 256.882827 
L 284.922818 256.882827 
L 286.41558 256.882827 
L 287.860189 256.882827 
L 289.352951 240.459875 
L 290.797559 250.72422 
L 292.290321 250.72422 
L 293.783083 249.697786 
L 295.179538 247.644917 
L 296.6723 246.618482 
L 298.116909 241.48631 
L 299.609671 241.48631 
L 301.054279 242.512744 
L 302.547042 242.512744 
L 304.039804 238.407006 
L 305.484412 234.301268 
L 306.977174 229.169095 
L 308.421783 226.089792 
L 309.914545 224.036923 
L 311.407307 209.666839 
L 312.755608 204.534667 
L 314.24837 202.481798 
L 315.692979 200.428929 
L 317.185741 196.32319 
L 318.630349 199.402494 
L 320.123111 201.455363 
L 321.615873 199.402494 
L 323.060482 194.270321 
L 324.553244 191.191018 
L 325.997852 192.217452 
L 327.490615 192.217452 
L 328.983377 192.217452 
L 330.331678 181.953107 
L 331.82444 184.005976 
L 333.269048 182.979542 
L 334.76181 189.138149 
L 336.206419 190.164583 
L 337.699181 190.164583 
L 339.191943 191.191018 
L 340.636552 186.058845 
L 342.129314 187.08528 
L 343.573922 198.37606 
L 345.066684 196.32319 
L 346.559446 193.243887 
L 347.907748 187.08528 
L 349.40051 188.111714 
L 350.845118 194.270321 
L 352.33788 194.270321 
L 353.782489 191.191018 
L 355.275251 199.402494 
L 356.768013 196.32319 
L 358.212621 193.243887 
L 359.705383 195.296756 
L 361.149992 202.481798 
L 362.642754 204.534667 
L 364.135516 198.37606 
L 365.531971 201.455363 
L 367.024733 200.428929 
L 368.469342 199.402494 
L 369.962104 199.402494 
L 371.406712 196.32319 
L 372.899474 205.561101 
L 374.392236 206.587536 
L 375.836845 214.799012 
L 377.329607 215.825446 
L 378.774215 216.851881 
L 380.266977 219.931185 
L 381.759739 218.90475 
L 383.108041 217.878315 
L 384.600803 217.878315 
L 386.045411 217.878315 
L 387.538173 217.878315 
L 388.982782 219.931185 
L 390.475544 223.010488 
L 391.968306 220.957619 
L 393.412914 219.931185 
L 394.905677 217.878315 
L 396.350285 219.931185 
L 397.843047 210.693274 
L 399.335809 201.455363 
L 400.68411 188.111714 
L 402.176873 191.191018 
L 403.621481 192.217452 
L 405.114243 195.296756 
L 406.558852 205.561101 
L 408.051614 207.61397 
L 409.544376 204.534667 
L 410.988984 204.534667 
L 412.481746 202.481798 
L 413.926355 207.61397 
L 415.419117 207.61397 
L 416.911879 199.402494 
L 418.26018 200.428929 
L 419.752942 201.455363 
L 421.197551 202.481798 
L 422.690313 206.587536 
L 424.134921 209.666839 
L 425.627683 211.719708 
L 427.120446 213.772577 
L 428.565054 211.719708 
L 430.057816 208.640405 
L 431.502425 214.799012 
L 432.995187 214.799012 
L 434.487949 210.693274 
L 435.884404 204.534667 
L 437.377166 208.640405 
L 438.821774 207.61397 
L 440.314536 215.825446 
L 441.759145 217.878315 
L 443.251907 220.957619 
L 444.744669 221.984054 
L 446.189277 219.931185 
L 447.682039 218.90475 
L 449.126648 223.010488 
" clip-path="url(#pd1d9ce6784)" style="fill: none; stroke: #000000; stroke-width: 2; stroke-linecap: square"/>
   </g>
   <g id="line2d_49">
    <path d="M 274.714252 256.882827 
L 276.207014 256.882827 
L 277.555315 256.882827 
L 279.048077 256.882827 
L 280.492686 256.882827 
L 281.985448 256.882827 
L 283.430056 256.882827 
L 284.922818 256.882827 
L 286.41558 256.882827 
L 287.860189 256.882827 
L 289.352951 256.882827 
L 290.797559 256.882827 
L 292.290321 256.882827 
L 293.783083 256.882827 
L 295.179538 256.882827 
L 296.6723 256.882827 
L 298.116909 256.882827 
L 299.609671 256.882827 
L 301.054279 256.882827 
L 302.547042 256.882827 
L 304.039804 256.882827 
L 305.484412 256.882827 
L 306.977174 256.882827 
L 308.421783 256.882827 
L 309.914545 256.882827 
L 311.407307 256.882827 
L 312.755608 256.882827 
L 314.24837 256.882827 
L 315.692979 256.882827 
L 317.185741 256.882827 
L 318.630349 256.882827 
L 320.123111 256.882827 
L 321.615873 256.882827 
L 323.060482 256.882827 
L 324.553244 254.829958 
L 325.997852 248.671351 
L 327.490615 245.592048 
L 328.983377 244.565613 
L 330.331678 241.48631 
L 331.82444 240.459875 
L 333.269048 238.407006 
L 334.76181 239.43344 
L 336.206419 238.407006 
L 337.699181 237.380571 
L 339.191943 237.380571 
L 340.636552 232.248399 
L 342.129314 230.19553 
L 343.573922 232.248399 
L 345.066684 233.274833 
L 346.559446 230.19553 
L 347.907748 227.116226 
L 349.40051 225.063357 
L 350.845118 228.142661 
L 352.33788 226.089792 
L 353.782489 223.010488 
L 355.275251 224.036923 
L 356.768013 225.063357 
L 358.212621 223.010488 
L 359.705383 217.878315 
L 361.149992 223.010488 
L 362.642754 226.089792 
L 364.135516 218.90475 
L 365.531971 218.90475 
L 367.024733 216.851881 
L 368.469342 215.825446 
L 369.962104 214.799012 
L 371.406712 211.719708 
L 372.899474 214.799012 
L 374.392236 217.878315 
L 375.836845 225.063357 
L 377.329607 220.957619 
L 378.774215 225.063357 
L 380.266977 227.116226 
L 381.759739 226.089792 
L 383.108041 220.957619 
L 384.600803 217.878315 
L 386.045411 219.931185 
L 387.538173 220.957619 
L 388.982782 221.984054 
L 390.475544 224.036923 
L 391.968306 221.984054 
L 393.412914 217.878315 
L 394.905677 213.772577 
L 396.350285 216.851881 
L 397.843047 208.640405 
L 399.335809 198.37606 
L 400.68411 190.164583 
L 402.176873 185.032411 
L 403.621481 194.270321 
L 405.114243 196.32319 
L 406.558852 200.428929 
L 408.051614 203.508232 
L 409.544376 202.481798 
L 410.988984 199.402494 
L 412.481746 198.37606 
L 413.926355 199.402494 
L 415.419117 201.455363 
L 416.911879 189.138149 
L 418.26018 184.005976 
L 419.752942 188.111714 
L 421.197551 192.217452 
L 422.690313 189.138149 
L 424.134921 175.7945 
L 425.627683 166.556589 
L 427.120446 172.715196 
L 428.565054 164.50372 
L 430.057816 162.450851 
L 431.502425 175.7945 
L 432.995187 173.741631 
L 434.487949 165.530155 
L 435.884404 160.397982 
L 437.377166 154.239375 
L 438.821774 164.50372 
L 440.314536 174.768065 
L 441.759145 169.635893 
L 443.251907 177.847369 
L 444.744669 178.873804 
L 446.189277 175.7945 
L 447.682039 170.662327 
L 449.126648 177.847369 
" clip-path="url(#pd1d9ce6784)" style="fill: none; stroke: #2255a0; stroke-opacity: 0.501961; stroke-width: 2; stroke-linecap: square"/>
   </g>
   <g id="line2d_50">
    <path d="M 274.714252 256.882827 
L 276.207014 256.882827 
L 277.555315 256.882827 
L 279.048077 256.882827 
L 280.492686 256.882827 
L 281.985448 256.882827 
L 283.430056 256.882827 
L 284.922818 256.882827 
L 286.41558 256.882827 
L 287.860189 256.882827 
L 289.352951 256.882827 
L 290.797559 256.882827 
L 292.290321 256.882827 
L 293.783083 256.882827 
L 295.179538 256.882827 
L 296.6723 256.882827 
L 298.116909 256.882827 
L 299.609671 256.882827 
L 301.054279 256.882827 
L 302.547042 256.882827 
L 304.039804 256.882827 
L 305.484412 256.882827 
L 306.977174 256.882827 
L 308.421783 256.882827 
L 309.914545 256.882827 
L 311.407307 256.882827 
L 312.755608 256.882827 
L 314.24837 256.882827 
L 315.692979 256.882827 
L 317.185741 256.882827 
L 318.630349 256.882827 
L 320.123111 256.882827 
L 321.615873 256.882827 
L 323.060482 256.882827 
L 324.553244 256.882827 
L 325.997852 256.882827 
L 327.490615 256.882827 
L 328.983377 256.882827 
L 330.331678 256.882827 
L 331.82444 256.882827 
L 333.269048 256.882827 
L 334.76181 256.882827 
L 336.206419 256.882827 
L 337.699181 256.882827 
L 339.191943 256.882827 
L 340.636552 256.882827 
L 342.129314 256.882827 
L 343.573922 256.882827 
L 345.066684 256.882827 
L 346.559446 256.882827 
L 347.907748 256.882827 
L 349.40051 256.882827 
L 350.845118 256.882827 
L 352.33788 256.882827 
L 353.782489 256.882827 
L 355.275251 256.882827 
L 356.768013 256.882827 
L 358.212621 256.882827 
L 359.705383 256.882827 
L 361.149992 256.882827 
L 362.642754 256.882827 
L 364.135516 256.882827 
L 365.531971 256.882827 
L 367.024733 256.882827 
L 368.469342 256.882827 
L 369.962104 256.882827 
L 371.406712 256.882827 
L 372.899474 256.882827 
L 374.392236 256.882827 
L 375.836845 256.882827 
L 377.329607 256.882827 
L 378.774215 256.882827 
L 380.266977 256.882827 
L 381.759739 256.882827 
L 383.108041 256.882827 
L 384.600803 256.882827 
L 386.045411 256.882827 
L 387.538173 256.882827 
L 388.982782 256.882827 
L 390.475544 256.882827 
L 391.968306 256.882827 
L 393.412914 256.882827 
L 394.905677 256.882827 
L 396.350285 256.882827 
L 397.843047 256.882827 
L 399.335809 256.882827 
L 400.68411 256.882827 
L 402.176873 256.882827 
L 403.621481 256.882827 
L 405.114243 256.882827 
L 406.558852 256.882827 
L 408.051614 256.882827 
L 409.544376 256.882827 
L 410.988984 255.856393 
L 412.481746 255.856393 
L 413.926355 255.856393 
L 415.419117 255.856393 
L 416.911879 255.856393 
L 418.26018 255.856393 
L 419.752942 256.882827 
L 421.197551 256.882827 
L 422.690313 256.882827 
L 424.134921 256.882827 
L 425.627683 256.882827 
L 427.120446 256.882827 
L 428.565054 256.882827 
L 430.057816 256.882827 
L 431.502425 255.856393 
L 432.995187 255.856393 
L 434.487949 254.829958 
L 435.884404 251.750655 
L 437.377166 251.750655 
L 438.821774 252.777089 
L 440.314536 251.750655 
L 441.759145 252.777089 
L 443.251907 251.750655 
L 444.744669 251.750655 
L 446.189277 250.72422 
L 447.682039 251.750655 
L 449.126648 252.777089 
" clip-path="url(#pd1d9ce6784)" style="fill: none; stroke: #8e8e8e; stroke-width: 2; stroke-linecap: square"/>
   </g>
   <g id="patch_79">
    <path d="M 274.714252 262.015 
L 274.714252 154.239375 
" style="fill: none; stroke: #000000; stroke-width: 0.8; stroke-linejoin: miter; stroke-linecap: square"/>
   </g>
   <g id="patch_80">
    <path d="M 274.714252 262.015 
L 453.460473 262.015 
" style="fill: none; stroke: #000000; stroke-width: 0.8; stroke-linejoin: miter; stroke-linecap: square"/>
   </g>
   <g id="legend_3">
    <g id="line2d_51">
     <path d="M 281.914252 164.718125 
L 289.914252 164.718125 
L 297.914252 164.718125 
" style="fill: none; stroke: #000000; stroke-width: 2; stroke-linecap: square"/>
    </g>
    <g id="text_63">
     <!-- TensorFlow -->
     <g transform="translate(304.314252 167.518125) scale(0.08 -0.08)">
      <use xlink:href="#DejaVuSans-54"/>
      <use xlink:href="#DejaVuSans-65" x="44.083984"/>
      <use xlink:href="#DejaVuSans-6e" x="105.607422"/>
      <use xlink:href="#DejaVuSans-73" x="168.986328"/>
      <use xlink:href="#DejaVuSans-6f" x="221.085938"/>
      <use xlink:href="#DejaVuSans-72" x="282.267578"/>
      <use xlink:href="#DejaVuSans-46" x="323.380859"/>
      <use xlink:href="#DejaVuSans-6c" x="380.900391"/>
      <use xlink:href="#DejaVuSans-6f" x="408.683594"/>
      <use xlink:href="#DejaVuSans-77" x="469.865234"/>
     </g>
    </g>
    <g id="line2d_52">
     <path d="M 281.914252 176.460625 
L 289.914252 176.460625 
L 297.914252 176.460625 
" style="fill: none; stroke: #2255a0; stroke-opacity: 0.501961; stroke-width: 2; stroke-linecap: square"/>
    </g>
    <g id="text_64">
     <!-- PyTorch -->
     <g transform="translate(304.314252 179.260625) scale(0.08 -0.08)">
      <use xlink:href="#DejaVuSans-50"/>
      <use xlink:href="#DejaVuSans-79" x="60.302734"/>
      <use xlink:href="#DejaVuSans-54" x="119.482422"/>
      <use xlink:href="#DejaVuSans-6f" x="163.566406"/>
      <use xlink:href="#DejaVuSans-72" x="224.748047"/>
      <use xlink:href="#DejaVuSans-63" x="263.611328"/>
      <use xlink:href="#DejaVuSans-68" x="318.591797"/>
     </g>
    </g>
    <g id="line2d_53">
     <path d="M 281.914252 188.203125 
L 289.914252 188.203125 
L 297.914252 188.203125 
" style="fill: none; stroke: #8e8e8e; stroke-width: 2; stroke-linecap: square"/>
    </g>
    <g id="text_65">
     <!-- JAX -->
     <g transform="translate(304.314252 191.003125) scale(0.08 -0.08)">
      <use xlink:href="#DejaVuSans-4a"/>
      <use xlink:href="#DejaVuSans-41" x="27.742188"/>
      <use xlink:href="#DejaVuSans-58" x="96.150391"/>
     </g>
    </g>
   </g>
  </g>
 </g>
 <defs>
  <clipPath id="p73f4f4de64">
   <rect x="40.7125" y="10.239375" width="178.746222" height="107.775625"/>
  </clipPath>
  <clipPath id="p1b05b2dfd6">
   <rect x="274.714252" y="10.239375" width="178.746222" height="107.775625"/>
  </clipPath>
  <clipPath id="p21838877e7">
   <rect x="40.7125" y="154.239375" width="178.746222" height="107.775625"/>
  </clipPath>
  <clipPath id="pd1d9ce6784">
   <rect x="274.714252" y="154.239375" width="178.746222" height="107.775625"/>
  </clipPath>
 </defs>
</svg>
