<?xml version="1.0" encoding="utf-8" standalone="no"?>
<!DOCTYPE svg PUBLIC "-//W3C//DTD SVG 1.1//EN"
  "http://www.w3.org/Graphics/SVG/1.1/DTD/svg11.dtd">
<svg xmlns:xlink="http://www.w3.org/1999/xlink" width="467.999767pt" height="295.2pt" viewBox="0 0 467.999767 295.2" xmlns="http://www.w3.org/2000/svg" version="1.1">
 <metadata>
  <rdf:RDF xmlns:dc="http://purl.org/dc/elements/1.1/" xmlns:cc="http://creativecommons.org/ns#" xmlns:rdf="http://www.w3.org/1999/02/22-rdf-syntax-ns#">
   <cc:Work>
    <dc:type rdf:resource="http://purl.org/dc/dcmitype/StillImage"/>
    <dc:date>2026-01-26T10:45:27.984140</dc:date>
    <dc:format>image/svg+xml</dc:format>
    <dc:creator>
     <cc:Agent>
      <dc:title>Matplotlib v3.8.4, https://matplotlib.org/</dc:title>
     </cc:Agent>
    </dc:creator>
   </cc:Work>
  </rdf:RDF>
 </metadata>
 <defs>
  <style type="text/css">*{stroke-linejoin: round; stroke-linecap: butt}</style>
 </defs>
 <g id="figure_1">
  <g id="patch_1">
   <path d="M 0 295.2 
L 467.999767 295.2 
L 467.999767 0 
L 0 0 
z
" style="fill: #ffffff"/>
  </g>
  <g id="axes_1">
   <g id="patch_2">
    <path d="M 41.0325 118.00625 
L 219.328185 118.00625 
L 219.328185 10.239375 
L 41.0325 10.239375 
z
" style="fill: #ffffff"/>
   </g>
   <g id="patch_3">
    <path d="M 208.927603 118.00625 
L 211.899198 118.00625 
L 211.899198 103.874117 
L 208.927603 103.874117 
z
" clip-path="url(#p523d47ff56)"/>
   </g>
   <g id="patch_4">
    <path d="M 197.041224 118.00625 
L 200.012819 118.00625 
L 200.012819 104.210077 
L 197.041224 104.210077 
z
" clip-path="url(#p523d47ff56)"/>
   </g>
   <g id="patch_5">
    <path d="M 185.154845 118.00625 
L 188.12644 118.00625 
L 188.12644 104.448071 
L 185.154845 104.448071 
z
" clip-path="url(#p523d47ff56)"/>
   </g>
   <g id="patch_6">
    <path d="M 173.268466 118.00625 
L 176.240061 118.00625 
L 176.240061 105.042579 
L 173.268466 105.042579 
z
" clip-path="url(#p523d47ff56)"/>
   </g>
   <g id="patch_7">
    <path d="M 161.382087 118.00625 
L 164.353682 118.00625 
L 164.353682 105.157823 
L 161.382087 105.157823 
z
" clip-path="url(#p523d47ff56)"/>
   </g>
   <g id="patch_8">
    <path d="M 149.495708 118.00625 
L 152.467303 118.00625 
L 152.467303 104.407801 
L 149.495708 104.407801 
z
" clip-path="url(#p523d47ff56)"/>
   </g>
   <g id="patch_9">
    <path d="M 137.609329 118.00625 
L 140.580924 118.00625 
L 140.580924 104.621398 
L 137.609329 104.621398 
z
" clip-path="url(#p523d47ff56)"/>
   </g>
   <g id="patch_10">
    <path d="M 125.72295 118.00625 
L 128.694545 118.00625 
L 128.694545 104.961374 
L 125.72295 104.961374 
z
" clip-path="url(#p523d47ff56)"/>
   </g>
   <g id="patch_11">
    <path d="M 113.836571 118.00625 
L 116.808166 118.00625 
L 116.808166 105.547418 
L 113.836571 105.547418 
z
" clip-path="url(#p523d47ff56)"/>
   </g>
   <g id="patch_12">
    <path d="M 101.950192 118.00625 
L 104.921787 118.00625 
L 104.921787 105.682045 
L 101.950192 105.682045 
z
" clip-path="url(#p523d47ff56)"/>
   </g>
   <g id="patch_13">
    <path d="M 90.063813 118.00625 
L 93.035408 118.00625 
L 93.035408 104.78858 
L 90.063813 104.78858 
z
" clip-path="url(#p523d47ff56)"/>
   </g>
   <g id="patch_14">
    <path d="M 78.177434 118.00625 
L 81.149029 118.00625 
L 81.149029 105.457967 
L 78.177434 105.457967 
z
" clip-path="url(#p523d47ff56)"/>
   </g>
   <g id="patch_15">
    <path d="M 66.291055 118.00625 
L 69.26265 118.00625 
L 69.26265 105.315557 
L 66.291055 105.315557 
z
" clip-path="url(#p523d47ff56)"/>
   </g>
   <g id="patch_16">
    <path d="M 54.404676 118.00625 
L 57.376271 118.00625 
L 57.376271 105.5189 
L 54.404676 105.5189 
z
" clip-path="url(#p523d47ff56)"/>
   </g>
   <g id="patch_17">
    <path d="M 42.518297 118.00625 
L 45.489892 118.00625 
L 45.489892 106.141699 
L 42.518297 106.141699 
z
" clip-path="url(#p523d47ff56)"/>
   </g>
   <g id="patch_18">
    <path d="M 211.899198 118.00625 
L 214.870793 118.00625 
L 214.870793 41.408669 
L 211.899198 41.408669 
z
" clip-path="url(#p523d47ff56)" style="fill: #2255a0; fill-opacity: 0.501961"/>
   </g>
   <g id="patch_19">
    <path d="M 200.012819 118.00625 
L 202.984414 118.00625 
L 202.984414 55.989964 
L 200.012819 55.989964 
z
" clip-path="url(#p523d47ff56)" style="fill: #2255a0; fill-opacity: 0.501961"/>
   </g>
   <g id="patch_20">
    <path d="M 188.12644 118.00625 
L 191.098035 118.00625 
L 191.098035 66.646164 
L 188.12644 66.646164 
z
" clip-path="url(#p523d47ff56)" style="fill: #2255a0; fill-opacity: 0.501961"/>
   </g>
   <g id="patch_21">
    <path d="M 176.240061 118.00625 
L 179.211656 118.00625 
L 179.211656 77.817701 
L 176.240061 77.817701 
z
" clip-path="url(#p523d47ff56)" style="fill: #2255a0; fill-opacity: 0.501961"/>
   </g>
   <g id="patch_22">
    <path d="M 164.353682 118.00625 
L 167.325277 118.00625 
L 167.325277 86.099902 
L 164.353682 86.099902 
z
" clip-path="url(#p523d47ff56)" style="fill: #2255a0; fill-opacity: 0.501961"/>
   </g>
   <g id="patch_23">
    <path d="M 152.467303 118.00625 
L 155.438898 118.00625 
L 155.438898 92.74423 
L 152.467303 92.74423 
z
" clip-path="url(#p523d47ff56)" style="fill: #2255a0; fill-opacity: 0.501961"/>
   </g>
   <g id="patch_24">
    <path d="M 140.580924 118.00625 
L 143.552519 118.00625 
L 143.552519 100.836128 
L 140.580924 100.836128 
z
" clip-path="url(#p523d47ff56)" style="fill: #2255a0; fill-opacity: 0.501961"/>
   </g>
   <g id="patch_25">
    <path d="M 128.694545 118.00625 
L 131.66614 118.00625 
L 131.66614 106.001088 
L 128.694545 106.001088 
z
" clip-path="url(#p523d47ff56)" style="fill: #2255a0; fill-opacity: 0.501961"/>
   </g>
   <g id="patch_26">
    <path d="M 116.808166 118.00625 
L 119.779761 118.00625 
L 119.779761 109.13891 
L 116.808166 109.13891 
z
" clip-path="url(#p523d47ff56)" style="fill: #2255a0; fill-opacity: 0.501961"/>
   </g>
   <g id="patch_27">
    <path d="M 104.921787 118.00625 
L 107.893382 118.00625 
L 107.893382 110.74331 
L 104.921787 110.74331 
z
" clip-path="url(#p523d47ff56)" style="fill: #2255a0; fill-opacity: 0.501961"/>
   </g>
   <g id="patch_28">
    <path d="M 93.035408 118.00625 
L 96.007003 118.00625 
L 96.007003 111.145759 
L 93.035408 111.145759 
z
" clip-path="url(#p523d47ff56)" style="fill: #2255a0; fill-opacity: 0.501961"/>
   </g>
   <g id="patch_29">
    <path d="M 81.149029 118.00625 
L 84.120624 118.00625 
L 84.120624 111.609985 
L 81.149029 111.609985 
z
" clip-path="url(#p523d47ff56)" style="fill: #2255a0; fill-opacity: 0.501961"/>
   </g>
   <g id="patch_30">
    <path d="M 69.26265 118.00625 
L 72.234245 118.00625 
L 72.234245 111.546201 
L 69.26265 111.546201 
z
" clip-path="url(#p523d47ff56)" style="fill: #2255a0; fill-opacity: 0.501961"/>
   </g>
   <g id="patch_31">
    <path d="M 57.376271 118.00625 
L 60.347866 118.00625 
L 60.347866 111.136298 
L 57.376271 111.136298 
z
" clip-path="url(#p523d47ff56)" style="fill: #2255a0; fill-opacity: 0.501961"/>
   </g>
   <g id="patch_32">
    <path d="M 45.489892 118.00625 
L 48.461487 118.00625 
L 48.461487 111.00331 
L 45.489892 111.00331 
z
" clip-path="url(#p523d47ff56)" style="fill: #2255a0; fill-opacity: 0.501961"/>
   </g>
   <g id="patch_33">
    <path d="M 214.870793 118.00625 
L 217.842387 118.00625 
L 217.842387 28.200521 
L 214.870793 28.200521 
z
" clip-path="url(#p523d47ff56)" style="fill: #8e8e8e"/>
   </g>
   <g id="patch_34">
    <path d="M 202.984414 118.00625 
L 205.956008 118.00625 
L 205.956008 42.928799 
L 202.984414 42.928799 
z
" clip-path="url(#p523d47ff56)" style="fill: #8e8e8e"/>
   </g>
   <g id="patch_35">
    <path d="M 191.098035 118.00625 
L 194.069629 118.00625 
L 194.069629 53.647666 
L 191.098035 53.647666 
z
" clip-path="url(#p523d47ff56)" style="fill: #8e8e8e"/>
   </g>
   <g id="patch_36">
    <path d="M 179.211656 118.00625 
L 182.18325 118.00625 
L 182.18325 65.270318 
L 179.211656 65.270318 
z
" clip-path="url(#p523d47ff56)" style="fill: #8e8e8e"/>
   </g>
   <g id="patch_37">
    <path d="M 167.325277 118.00625 
L 170.296871 118.00625 
L 170.296871 73.558117 
L 167.325277 73.558117 
z
" clip-path="url(#p523d47ff56)" style="fill: #8e8e8e"/>
   </g>
   <g id="patch_38">
    <path d="M 155.438898 118.00625 
L 158.410492 118.00625 
L 158.410492 79.366313 
L 155.438898 79.366313 
z
" clip-path="url(#p523d47ff56)" style="fill: #8e8e8e"/>
   </g>
   <g id="patch_39">
    <path d="M 143.552519 118.00625 
L 146.524113 118.00625 
L 146.524113 87.60476 
L 143.552519 87.60476 
z
" clip-path="url(#p523d47ff56)" style="fill: #8e8e8e"/>
   </g>
   <g id="patch_40">
    <path d="M 131.66614 118.00625 
L 134.637734 118.00625 
L 134.637734 93.069384 
L 131.66614 93.069384 
z
" clip-path="url(#p523d47ff56)" style="fill: #8e8e8e"/>
   </g>
   <g id="patch_41">
    <path d="M 119.779761 118.00625 
L 122.751355 118.00625 
L 122.751355 96.780076 
L 119.779761 96.780076 
z
" clip-path="url(#p523d47ff56)" style="fill: #8e8e8e"/>
   </g>
   <g id="patch_42">
    <path d="M 107.893382 118.00625 
L 110.864976 118.00625 
L 110.864976 98.499317 
L 107.893382 98.499317 
z
" clip-path="url(#p523d47ff56)" style="fill: #8e8e8e"/>
   </g>
   <g id="patch_43">
    <path d="M 96.007003 118.00625 
L 98.978598 118.00625 
L 98.978598 98.041555 
L 96.007003 98.041555 
z
" clip-path="url(#p523d47ff56)" style="fill: #8e8e8e"/>
   </g>
   <g id="patch_44">
    <path d="M 84.120624 118.00625 
L 87.092219 118.00625 
L 87.092219 99.180934 
L 84.120624 99.180934 
z
" clip-path="url(#p523d47ff56)" style="fill: #8e8e8e"/>
   </g>
   <g id="patch_45">
    <path d="M 72.234245 118.00625 
L 75.20584 118.00625 
L 75.20584 98.951132 
L 72.234245 98.951132 
z
" clip-path="url(#p523d47ff56)" style="fill: #8e8e8e"/>
   </g>
   <g id="patch_46">
    <path d="M 60.347866 118.00625 
L 63.319461 118.00625 
L 63.319461 98.762546 
L 60.347866 98.762546 
z
" clip-path="url(#p523d47ff56)" style="fill: #8e8e8e"/>
   </g>
   <g id="patch_47">
    <path d="M 48.461487 118.00625 
L 51.433082 118.00625 
L 51.433082 99.250848 
L 48.461487 99.250848 
z
" clip-path="url(#p523d47ff56)" style="fill: #8e8e8e"/>
   </g>
   <g id="matplotlib.axis_1">
    <g id="xtick_1">
     <g id="line2d_1">
      <defs>
       <path id="mf2c1b1e7fc" d="M 0 0 
L 0 3 
" style="stroke: #000000; stroke-width: 0.8"/>
      </defs>
      <g>
       <use xlink:href="#mf2c1b1e7fc" x="46.975689" y="118.00625" style="stroke: #000000; stroke-width: 0.8"/>
      </g>
     </g>
     <g id="text_1">
      <!-- 2010 -->
      <g transform="translate(36.795689 130.585) scale(0.08 -0.08)">
       <defs>
        <path id="DejaVuSans-32" d="M 1228 531 
L 3431 531 
L 3431 0 
L 469 0 
L 469 531 
Q 828 903 1448 1529 
Q 2069 2156 2228 2338 
Q 2531 2678 2651 2914 
Q 2772 3150 2772 3378 
Q 2772 3750 2511 3984 
Q 2250 4219 1831 4219 
Q 1534 4219 1204 4116 
Q 875 4013 500 3803 
L 500 4441 
Q 881 4594 1212 4672 
Q 1544 4750 1819 4750 
Q 2544 4750 2975 4387 
Q 3406 4025 3406 3419 
Q 3406 3131 3298 2873 
Q 3191 2616 2906 2266 
Q 2828 2175 2409 1742 
Q 1991 1309 1228 531 
z
" transform="scale(0.015625)"/>
        <path id="DejaVuSans-30" d="M 2034 4250 
Q 1547 4250 1301 3770 
Q 1056 3291 1056 2328 
Q 1056 1369 1301 889 
Q 1547 409 2034 409 
Q 2525 409 2770 889 
Q 3016 1369 3016 2328 
Q 3016 3291 2770 3770 
Q 2525 4250 2034 4250 
z
M 2034 4750 
Q 2819 4750 3233 4129 
Q 3647 3509 3647 2328 
Q 3647 1150 3233 529 
Q 2819 -91 2034 -91 
Q 1250 -91 836 529 
Q 422 1150 422 2328 
Q 422 3509 836 4129 
Q 1250 4750 2034 4750 
z
" transform="scale(0.015625)"/>
        <path id="DejaVuSans-31" d="M 794 531 
L 1825 531 
L 1825 4091 
L 703 3866 
L 703 4441 
L 1819 4666 
L 2450 4666 
L 2450 531 
L 3481 531 
L 3481 0 
L 794 0 
L 794 531 
z
" transform="scale(0.015625)"/>
       </defs>
       <use xlink:href="#DejaVuSans-32"/>
       <use xlink:href="#DejaVuSans-30" x="63.623047"/>
       <use xlink:href="#DejaVuSans-31" x="127.246094"/>
       <use xlink:href="#DejaVuSans-30" x="190.869141"/>
      </g>
     </g>
    </g>
    <g id="xtick_2">
     <g id="line2d_2">
      <g>
       <use xlink:href="#mf2c1b1e7fc" x="70.748447" y="118.00625" style="stroke: #000000; stroke-width: 0.8"/>
      </g>
     </g>
     <g id="text_2">
      <!-- 2012 -->
      <g transform="translate(60.568447 130.585) scale(0.08 -0.08)">
       <use xlink:href="#DejaVuSans-32"/>
       <use xlink:href="#DejaVuSans-30" x="63.623047"/>
       <use xlink:href="#DejaVuSans-31" x="127.246094"/>
       <use xlink:href="#DejaVuSans-32" x="190.869141"/>
      </g>
     </g>
    </g>
    <g id="xtick_3">
     <g id="line2d_3">
      <g>
       <use xlink:href="#mf2c1b1e7fc" x="94.521205" y="118.00625" style="stroke: #000000; stroke-width: 0.8"/>
      </g>
     </g>
     <g id="text_3">
      <!-- 2014 -->
      <g transform="translate(84.341205 130.585) scale(0.08 -0.08)">
       <defs>
        <path id="DejaVuSans-34" d="M 2419 4116 
L 825 1625 
L 2419 1625 
L 2419 4116 
z
M 2253 4666 
L 3047 4666 
L 3047 1625 
L 3713 1625 
L 3713 1100 
L 3047 1100 
L 3047 0 
L 2419 0 
L 2419 1100 
L 313 1100 
L 313 1709 
L 2253 4666 
z
" transform="scale(0.015625)"/>
       </defs>
       <use xlink:href="#DejaVuSans-32"/>
       <use xlink:href="#DejaVuSans-30" x="63.623047"/>
       <use xlink:href="#DejaVuSans-31" x="127.246094"/>
       <use xlink:href="#DejaVuSans-34" x="190.869141"/>
      </g>
     </g>
    </g>
    <g id="xtick_4">
     <g id="line2d_4">
      <g>
       <use xlink:href="#mf2c1b1e7fc" x="118.293963" y="118.00625" style="stroke: #000000; stroke-width: 0.8"/>
      </g>
     </g>
     <g id="text_4">
      <!-- 2016 -->
      <g transform="translate(108.113963 130.585) scale(0.08 -0.08)">
       <defs>
        <path id="DejaVuSans-36" d="M 2113 2584 
Q 1688 2584 1439 2293 
Q 1191 2003 1191 1497 
Q 1191 994 1439 701 
Q 1688 409 2113 409 
Q 2538 409 2786 701 
Q 3034 994 3034 1497 
Q 3034 2003 2786 2293 
Q 2538 2584 2113 2584 
z
M 3366 4563 
L 3366 3988 
Q 3128 4100 2886 4159 
Q 2644 4219 2406 4219 
Q 1781 4219 1451 3797 
Q 1122 3375 1075 2522 
Q 1259 2794 1537 2939 
Q 1816 3084 2150 3084 
Q 2853 3084 3261 2657 
Q 3669 2231 3669 1497 
Q 3669 778 3244 343 
Q 2819 -91 2113 -91 
Q 1303 -91 875 529 
Q 447 1150 447 2328 
Q 447 3434 972 4092 
Q 1497 4750 2381 4750 
Q 2619 4750 2861 4703 
Q 3103 4656 3366 4563 
z
" transform="scale(0.015625)"/>
       </defs>
       <use xlink:href="#DejaVuSans-32"/>
       <use xlink:href="#DejaVuSans-30" x="63.623047"/>
       <use xlink:href="#DejaVuSans-31" x="127.246094"/>
       <use xlink:href="#DejaVuSans-36" x="190.869141"/>
      </g>
     </g>
    </g>
    <g id="xtick_5">
     <g id="line2d_5">
      <g>
       <use xlink:href="#mf2c1b1e7fc" x="142.066721" y="118.00625" style="stroke: #000000; stroke-width: 0.8"/>
      </g>
     </g>
     <g id="text_5">
      <!-- 2018 -->
      <g transform="translate(131.886721 130.585) scale(0.08 -0.08)">
       <defs>
        <path id="DejaVuSans-38" d="M 2034 2216 
Q 1584 2216 1326 1975 
Q 1069 1734 1069 1313 
Q 1069 891 1326 650 
Q 1584 409 2034 409 
Q 2484 409 2743 651 
Q 3003 894 3003 1313 
Q 3003 1734 2745 1975 
Q 2488 2216 2034 2216 
z
M 1403 2484 
Q 997 2584 770 2862 
Q 544 3141 544 3541 
Q 544 4100 942 4425 
Q 1341 4750 2034 4750 
Q 2731 4750 3128 4425 
Q 3525 4100 3525 3541 
Q 3525 3141 3298 2862 
Q 3072 2584 2669 2484 
Q 3125 2378 3379 2068 
Q 3634 1759 3634 1313 
Q 3634 634 3220 271 
Q 2806 -91 2034 -91 
Q 1263 -91 848 271 
Q 434 634 434 1313 
Q 434 1759 690 2068 
Q 947 2378 1403 2484 
z
M 1172 3481 
Q 1172 3119 1398 2916 
Q 1625 2713 2034 2713 
Q 2441 2713 2670 2916 
Q 2900 3119 2900 3481 
Q 2900 3844 2670 4047 
Q 2441 4250 2034 4250 
Q 1625 4250 1398 4047 
Q 1172 3844 1172 3481 
z
" transform="scale(0.015625)"/>
       </defs>
       <use xlink:href="#DejaVuSans-32"/>
       <use xlink:href="#DejaVuSans-30" x="63.623047"/>
       <use xlink:href="#DejaVuSans-31" x="127.246094"/>
       <use xlink:href="#DejaVuSans-38" x="190.869141"/>
      </g>
     </g>
    </g>
    <g id="xtick_6">
     <g id="line2d_6">
      <g>
       <use xlink:href="#mf2c1b1e7fc" x="165.839479" y="118.00625" style="stroke: #000000; stroke-width: 0.8"/>
      </g>
     </g>
     <g id="text_6">
      <!-- 2020 -->
      <g transform="translate(155.659479 130.585) scale(0.08 -0.08)">
       <use xlink:href="#DejaVuSans-32"/>
       <use xlink:href="#DejaVuSans-30" x="63.623047"/>
       <use xlink:href="#DejaVuSans-32" x="127.246094"/>
       <use xlink:href="#DejaVuSans-30" x="190.869141"/>
      </g>
     </g>
    </g>
    <g id="xtick_7">
     <g id="line2d_7">
      <g>
       <use xlink:href="#mf2c1b1e7fc" x="189.612237" y="118.00625" style="stroke: #000000; stroke-width: 0.8"/>
      </g>
     </g>
     <g id="text_7">
      <!-- 2022 -->
      <g transform="translate(179.432237 130.585) scale(0.08 -0.08)">
       <use xlink:href="#DejaVuSans-32"/>
       <use xlink:href="#DejaVuSans-30" x="63.623047"/>
       <use xlink:href="#DejaVuSans-32" x="127.246094"/>
       <use xlink:href="#DejaVuSans-32" x="190.869141"/>
      </g>
     </g>
    </g>
    <g id="xtick_8">
     <g id="line2d_8">
      <g>
       <use xlink:href="#mf2c1b1e7fc" x="213.384995" y="118.00625" style="stroke: #000000; stroke-width: 0.8"/>
      </g>
     </g>
     <g id="text_8">
      <!-- 2024 -->
      <g transform="translate(203.204995 130.585) scale(0.08 -0.08)">
       <use xlink:href="#DejaVuSans-32"/>
       <use xlink:href="#DejaVuSans-30" x="63.623047"/>
       <use xlink:href="#DejaVuSans-32" x="127.246094"/>
       <use xlink:href="#DejaVuSans-34" x="190.869141"/>
      </g>
     </g>
    </g>
    <g id="text_9">
     <!-- Año -->
     <g transform="translate(122.461592 142.3275) scale(0.08 -0.08)">
      <defs>
       <path id="DejaVuSans-41" d="M 2188 4044 
L 1331 1722 
L 3047 1722 
L 2188 4044 
z
M 1831 4666 
L 2547 4666 
L 4325 0 
L 3669 0 
L 3244 1197 
L 1141 1197 
L 716 0 
L 50 0 
L 1831 4666 
z
" transform="scale(0.015625)"/>
       <path id="DejaVuSans-f1" d="M 3513 2113 
L 3513 0 
L 2938 0 
L 2938 2094 
Q 2938 2591 2744 2837 
Q 2550 3084 2163 3084 
Q 1697 3084 1428 2787 
Q 1159 2491 1159 1978 
L 1159 0 
L 581 0 
L 581 3500 
L 1159 3500 
L 1159 2956 
Q 1366 3272 1645 3428 
Q 1925 3584 2291 3584 
Q 2894 3584 3203 3211 
Q 3513 2838 3513 2113 
z
M 2063 4281 
L 1884 4453 
Q 1816 4516 1764 4545 
Q 1713 4575 1672 4575 
Q 1553 4575 1497 4461 
Q 1441 4347 1434 4091 
L 1044 4091 
Q 1050 4513 1209 4742 
Q 1369 4972 1653 4972 
Q 1772 4972 1872 4928 
Q 1972 4884 2088 4781 
L 2266 4609 
Q 2334 4547 2386 4517 
Q 2438 4488 2478 4488 
Q 2597 4488 2653 4602 
Q 2709 4716 2716 4972 
L 3106 4972 
Q 3100 4550 2940 4320 
Q 2781 4091 2497 4091 
Q 2378 4091 2278 4134 
Q 2178 4178 2063 4281 
z
" transform="scale(0.015625)"/>
       <path id="DejaVuSans-6f" d="M 1959 3097 
Q 1497 3097 1228 2736 
Q 959 2375 959 1747 
Q 959 1119 1226 758 
Q 1494 397 1959 397 
Q 2419 397 2687 759 
Q 2956 1122 2956 1747 
Q 2956 2369 2687 2733 
Q 2419 3097 1959 3097 
z
M 1959 3584 
Q 2709 3584 3137 3096 
Q 3566 2609 3566 1747 
Q 3566 888 3137 398 
Q 2709 -91 1959 -91 
Q 1206 -91 779 398 
Q 353 888 353 1747 
Q 353 2609 779 3096 
Q 1206 3584 1959 3584 
z
" transform="scale(0.015625)"/>
      </defs>
      <use xlink:href="#DejaVuSans-41"/>
      <use xlink:href="#DejaVuSans-f1" x="68.408203"/>
      <use xlink:href="#DejaVuSans-6f" x="131.787109"/>
     </g>
    </g>
   </g>
   <g id="matplotlib.axis_2">
    <g id="ytick_1">
     <g id="line2d_9">
      <defs>
       <path id="mfece0e8537" d="M 0 0 
L -3 0 
" style="stroke: #000000; stroke-width: 0.8"/>
      </defs>
      <g>
       <use xlink:href="#mfece0e8537" x="41.0325" y="118.00625" style="stroke: #000000; stroke-width: 0.8"/>
      </g>
     </g>
     <g id="text_10">
      <!-- 0.0 -->
      <g transform="translate(21.81 121.045625) scale(0.08 -0.08)">
       <defs>
        <path id="DejaVuSans-2e" d="M 684 794 
L 1344 794 
L 1344 0 
L 684 0 
L 684 794 
z
" transform="scale(0.015625)"/>
       </defs>
       <use xlink:href="#DejaVuSans-30"/>
       <use xlink:href="#DejaVuSans-2e" x="63.623047"/>
       <use xlink:href="#DejaVuSans-30" x="95.410156"/>
      </g>
     </g>
    </g>
    <g id="ytick_2">
     <g id="line2d_10">
      <g>
       <use xlink:href="#mfece0e8537" x="41.0325" y="91.364358" style="stroke: #000000; stroke-width: 0.8"/>
      </g>
     </g>
     <g id="text_11">
      <!-- 2.0 -->
      <g transform="translate(21.81 94.403733) scale(0.08 -0.08)">
       <use xlink:href="#DejaVuSans-32"/>
       <use xlink:href="#DejaVuSans-2e" x="63.623047"/>
       <use xlink:href="#DejaVuSans-30" x="95.410156"/>
      </g>
     </g>
    </g>
    <g id="ytick_3">
     <g id="line2d_11">
      <g>
       <use xlink:href="#mfece0e8537" x="41.0325" y="64.722465" style="stroke: #000000; stroke-width: 0.8"/>
      </g>
     </g>
     <g id="text_12">
      <!-- 4.0 -->
      <g transform="translate(21.81 67.76184) scale(0.08 -0.08)">
       <use xlink:href="#DejaVuSans-34"/>
       <use xlink:href="#DejaVuSans-2e" x="63.623047"/>
       <use xlink:href="#DejaVuSans-30" x="95.410156"/>
      </g>
     </g>
    </g>
    <g id="ytick_4">
     <g id="line2d_12">
      <g>
       <use xlink:href="#mfece0e8537" x="41.0325" y="38.080573" style="stroke: #000000; stroke-width: 0.8"/>
      </g>
     </g>
     <g id="text_13">
      <!-- 6.0 -->
      <g transform="translate(21.81 41.119948) scale(0.08 -0.08)">
       <use xlink:href="#DejaVuSans-36"/>
       <use xlink:href="#DejaVuSans-2e" x="63.623047"/>
       <use xlink:href="#DejaVuSans-30" x="95.410156"/>
      </g>
     </g>
    </g>
    <g id="ytick_5">
     <g id="line2d_13">
      <g>
       <use xlink:href="#mfece0e8537" x="41.0325" y="11.43868" style="stroke: #000000; stroke-width: 0.8"/>
      </g>
     </g>
     <g id="text_14">
      <!-- 8.0 -->
      <g transform="translate(21.81 14.478055) scale(0.08 -0.08)">
       <use xlink:href="#DejaVuSans-38"/>
       <use xlink:href="#DejaVuSans-2e" x="63.623047"/>
       <use xlink:href="#DejaVuSans-30" x="95.410156"/>
      </g>
     </g>
    </g>
    <g id="text_15">
     <!-- Fracción de publicaciones ($\times 10^{-2}$) -->
     <g transform="translate(16.13 133.002812) rotate(-90) scale(0.08 -0.08)">
      <defs>
       <path id="DejaVuSans-46" d="M 628 4666 
L 3309 4666 
L 3309 4134 
L 1259 4134 
L 1259 2759 
L 3109 2759 
L 3109 2228 
L 1259 2228 
L 1259 0 
L 628 0 
L 628 4666 
z
" transform="scale(0.015625)"/>
       <path id="DejaVuSans-72" d="M 2631 2963 
Q 2534 3019 2420 3045 
Q 2306 3072 2169 3072 
Q 1681 3072 1420 2755 
Q 1159 2438 1159 1844 
L 1159 0 
L 581 0 
L 581 3500 
L 1159 3500 
L 1159 2956 
Q 1341 3275 1631 3429 
Q 1922 3584 2338 3584 
Q 2397 3584 2469 3576 
Q 2541 3569 2628 3553 
L 2631 2963 
z
" transform="scale(0.015625)"/>
       <path id="DejaVuSans-61" d="M 2194 1759 
Q 1497 1759 1228 1600 
Q 959 1441 959 1056 
Q 959 750 1161 570 
Q 1363 391 1709 391 
Q 2188 391 2477 730 
Q 2766 1069 2766 1631 
L 2766 1759 
L 2194 1759 
z
M 3341 1997 
L 3341 0 
L 2766 0 
L 2766 531 
Q 2569 213 2275 61 
Q 1981 -91 1556 -91 
Q 1019 -91 701 211 
Q 384 513 384 1019 
Q 384 1609 779 1909 
Q 1175 2209 1959 2209 
L 2766 2209 
L 2766 2266 
Q 2766 2663 2505 2880 
Q 2244 3097 1772 3097 
Q 1472 3097 1187 3025 
Q 903 2953 641 2809 
L 641 3341 
Q 956 3463 1253 3523 
Q 1550 3584 1831 3584 
Q 2591 3584 2966 3190 
Q 3341 2797 3341 1997 
z
" transform="scale(0.015625)"/>
       <path id="DejaVuSans-63" d="M 3122 3366 
L 3122 2828 
Q 2878 2963 2633 3030 
Q 2388 3097 2138 3097 
Q 1578 3097 1268 2742 
Q 959 2388 959 1747 
Q 959 1106 1268 751 
Q 1578 397 2138 397 
Q 2388 397 2633 464 
Q 2878 531 3122 666 
L 3122 134 
Q 2881 22 2623 -34 
Q 2366 -91 2075 -91 
Q 1284 -91 818 406 
Q 353 903 353 1747 
Q 353 2603 823 3093 
Q 1294 3584 2113 3584 
Q 2378 3584 2631 3529 
Q 2884 3475 3122 3366 
z
" transform="scale(0.015625)"/>
       <path id="DejaVuSans-69" d="M 603 3500 
L 1178 3500 
L 1178 0 
L 603 0 
L 603 3500 
z
M 603 4863 
L 1178 4863 
L 1178 4134 
L 603 4134 
L 603 4863 
z
" transform="scale(0.015625)"/>
       <path id="DejaVuSans-f3" d="M 1959 3097 
Q 1497 3097 1228 2736 
Q 959 2375 959 1747 
Q 959 1119 1226 758 
Q 1494 397 1959 397 
Q 2419 397 2687 759 
Q 2956 1122 2956 1747 
Q 2956 2369 2687 2733 
Q 2419 3097 1959 3097 
z
M 1959 3584 
Q 2709 3584 3137 3096 
Q 3566 2609 3566 1747 
Q 3566 888 3137 398 
Q 2709 -91 1959 -91 
Q 1206 -91 779 398 
Q 353 888 353 1747 
Q 353 2609 779 3096 
Q 1206 3584 1959 3584 
z
M 2394 5119 
L 3016 5119 
L 1997 3944 
L 1519 3944 
L 2394 5119 
z
" transform="scale(0.015625)"/>
       <path id="DejaVuSans-6e" d="M 3513 2113 
L 3513 0 
L 2938 0 
L 2938 2094 
Q 2938 2591 2744 2837 
Q 2550 3084 2163 3084 
Q 1697 3084 1428 2787 
Q 1159 2491 1159 1978 
L 1159 0 
L 581 0 
L 581 3500 
L 1159 3500 
L 1159 2956 
Q 1366 3272 1645 3428 
Q 1925 3584 2291 3584 
Q 2894 3584 3203 3211 
Q 3513 2838 3513 2113 
z
" transform="scale(0.015625)"/>
       <path id="DejaVuSans-20" transform="scale(0.015625)"/>
       <path id="DejaVuSans-64" d="M 2906 2969 
L 2906 4863 
L 3481 4863 
L 3481 0 
L 2906 0 
L 2906 525 
Q 2725 213 2448 61 
Q 2172 -91 1784 -91 
Q 1150 -91 751 415 
Q 353 922 353 1747 
Q 353 2572 751 3078 
Q 1150 3584 1784 3584 
Q 2172 3584 2448 3432 
Q 2725 3281 2906 2969 
z
M 947 1747 
Q 947 1113 1208 752 
Q 1469 391 1925 391 
Q 2381 391 2643 752 
Q 2906 1113 2906 1747 
Q 2906 2381 2643 2742 
Q 2381 3103 1925 3103 
Q 1469 3103 1208 2742 
Q 947 2381 947 1747 
z
" transform="scale(0.015625)"/>
       <path id="DejaVuSans-65" d="M 3597 1894 
L 3597 1613 
L 953 1613 
Q 991 1019 1311 708 
Q 1631 397 2203 397 
Q 2534 397 2845 478 
Q 3156 559 3463 722 
L 3463 178 
Q 3153 47 2828 -22 
Q 2503 -91 2169 -91 
Q 1331 -91 842 396 
Q 353 884 353 1716 
Q 353 2575 817 3079 
Q 1281 3584 2069 3584 
Q 2775 3584 3186 3129 
Q 3597 2675 3597 1894 
z
M 3022 2063 
Q 3016 2534 2758 2815 
Q 2500 3097 2075 3097 
Q 1594 3097 1305 2825 
Q 1016 2553 972 2059 
L 3022 2063 
z
" transform="scale(0.015625)"/>
       <path id="DejaVuSans-70" d="M 1159 525 
L 1159 -1331 
L 581 -1331 
L 581 3500 
L 1159 3500 
L 1159 2969 
Q 1341 3281 1617 3432 
Q 1894 3584 2278 3584 
Q 2916 3584 3314 3078 
Q 3713 2572 3713 1747 
Q 3713 922 3314 415 
Q 2916 -91 2278 -91 
Q 1894 -91 1617 61 
Q 1341 213 1159 525 
z
M 3116 1747 
Q 3116 2381 2855 2742 
Q 2594 3103 2138 3103 
Q 1681 3103 1420 2742 
Q 1159 2381 1159 1747 
Q 1159 1113 1420 752 
Q 1681 391 2138 391 
Q 2594 391 2855 752 
Q 3116 1113 3116 1747 
z
" transform="scale(0.015625)"/>
       <path id="DejaVuSans-75" d="M 544 1381 
L 544 3500 
L 1119 3500 
L 1119 1403 
Q 1119 906 1312 657 
Q 1506 409 1894 409 
Q 2359 409 2629 706 
Q 2900 1003 2900 1516 
L 2900 3500 
L 3475 3500 
L 3475 0 
L 2900 0 
L 2900 538 
Q 2691 219 2414 64 
Q 2138 -91 1772 -91 
Q 1169 -91 856 284 
Q 544 659 544 1381 
z
M 1991 3584 
L 1991 3584 
z
" transform="scale(0.015625)"/>
       <path id="DejaVuSans-62" d="M 3116 1747 
Q 3116 2381 2855 2742 
Q 2594 3103 2138 3103 
Q 1681 3103 1420 2742 
Q 1159 2381 1159 1747 
Q 1159 1113 1420 752 
Q 1681 391 2138 391 
Q 2594 391 2855 752 
Q 3116 1113 3116 1747 
z
M 1159 2969 
Q 1341 3281 1617 3432 
Q 1894 3584 2278 3584 
Q 2916 3584 3314 3078 
Q 3713 2572 3713 1747 
Q 3713 922 3314 415 
Q 2916 -91 2278 -91 
Q 1894 -91 1617 61 
Q 1341 213 1159 525 
L 1159 0 
L 581 0 
L 581 4863 
L 1159 4863 
L 1159 2969 
z
" transform="scale(0.015625)"/>
       <path id="DejaVuSans-6c" d="M 603 4863 
L 1178 4863 
L 1178 0 
L 603 0 
L 603 4863 
z
" transform="scale(0.015625)"/>
       <path id="DejaVuSans-73" d="M 2834 3397 
L 2834 2853 
Q 2591 2978 2328 3040 
Q 2066 3103 1784 3103 
Q 1356 3103 1142 2972 
Q 928 2841 928 2578 
Q 928 2378 1081 2264 
Q 1234 2150 1697 2047 
L 1894 2003 
Q 2506 1872 2764 1633 
Q 3022 1394 3022 966 
Q 3022 478 2636 193 
Q 2250 -91 1575 -91 
Q 1294 -91 989 -36 
Q 684 19 347 128 
L 347 722 
Q 666 556 975 473 
Q 1284 391 1588 391 
Q 1994 391 2212 530 
Q 2431 669 2431 922 
Q 2431 1156 2273 1281 
Q 2116 1406 1581 1522 
L 1381 1569 
Q 847 1681 609 1914 
Q 372 2147 372 2553 
Q 372 3047 722 3315 
Q 1072 3584 1716 3584 
Q 2034 3584 2315 3537 
Q 2597 3491 2834 3397 
z
" transform="scale(0.015625)"/>
       <path id="DejaVuSans-28" d="M 1984 4856 
Q 1566 4138 1362 3434 
Q 1159 2731 1159 2009 
Q 1159 1288 1364 580 
Q 1569 -128 1984 -844 
L 1484 -844 
Q 1016 -109 783 600 
Q 550 1309 550 2009 
Q 550 2706 781 3412 
Q 1013 4119 1484 4856 
L 1984 4856 
z
" transform="scale(0.015625)"/>
       <path id="DejaVuSans-d7" d="M 4488 3438 
L 3059 2003 
L 4488 575 
L 4116 197 
L 2681 1631 
L 1247 197 
L 878 575 
L 2303 2003 
L 878 3438 
L 1247 3816 
L 2681 2381 
L 4116 3816 
L 4488 3438 
z
" transform="scale(0.015625)"/>
       <path id="DejaVuSans-2212" d="M 678 2272 
L 4684 2272 
L 4684 1741 
L 678 1741 
L 678 2272 
z
" transform="scale(0.015625)"/>
       <path id="DejaVuSans-29" d="M 513 4856 
L 1013 4856 
Q 1481 4119 1714 3412 
Q 1947 2706 1947 2009 
Q 1947 1309 1714 600 
Q 1481 -109 1013 -844 
L 513 -844 
Q 928 -128 1133 580 
Q 1338 1288 1338 2009 
Q 1338 2731 1133 3434 
Q 928 4138 513 4856 
z
" transform="scale(0.015625)"/>
      </defs>
      <use xlink:href="#DejaVuSans-46" transform="translate(0 0.765625)"/>
      <use xlink:href="#DejaVuSans-72" transform="translate(57.519531 0.765625)"/>
      <use xlink:href="#DejaVuSans-61" transform="translate(98.632812 0.765625)"/>
      <use xlink:href="#DejaVuSans-63" transform="translate(159.912109 0.765625)"/>
      <use xlink:href="#DejaVuSans-63" transform="translate(214.892578 0.765625)"/>
      <use xlink:href="#DejaVuSans-69" transform="translate(269.873047 0.765625)"/>
      <use xlink:href="#DejaVuSans-f3" transform="translate(297.65625 0.765625)"/>
      <use xlink:href="#DejaVuSans-6e" transform="translate(358.837891 0.765625)"/>
      <use xlink:href="#DejaVuSans-20" transform="translate(422.216797 0.765625)"/>
      <use xlink:href="#DejaVuSans-64" transform="translate(454.003906 0.765625)"/>
      <use xlink:href="#DejaVuSans-65" transform="translate(517.480469 0.765625)"/>
      <use xlink:href="#DejaVuSans-20" transform="translate(579.003906 0.765625)"/>
      <use xlink:href="#DejaVuSans-70" transform="translate(610.791016 0.765625)"/>
      <use xlink:href="#DejaVuSans-75" transform="translate(674.267578 0.765625)"/>
      <use xlink:href="#DejaVuSans-62" transform="translate(737.646484 0.765625)"/>
      <use xlink:href="#DejaVuSans-6c" transform="translate(801.123047 0.765625)"/>
      <use xlink:href="#DejaVuSans-69" transform="translate(828.90625 0.765625)"/>
      <use xlink:href="#DejaVuSans-63" transform="translate(856.689453 0.765625)"/>
      <use xlink:href="#DejaVuSans-61" transform="translate(911.669922 0.765625)"/>
      <use xlink:href="#DejaVuSans-63" transform="translate(972.949219 0.765625)"/>
      <use xlink:href="#DejaVuSans-69" transform="translate(1027.929688 0.765625)"/>
      <use xlink:href="#DejaVuSans-6f" transform="translate(1055.712891 0.765625)"/>
      <use xlink:href="#DejaVuSans-6e" transform="translate(1116.894531 0.765625)"/>
      <use xlink:href="#DejaVuSans-65" transform="translate(1180.273438 0.765625)"/>
      <use xlink:href="#DejaVuSans-73" transform="translate(1241.796875 0.765625)"/>
      <use xlink:href="#DejaVuSans-20" transform="translate(1293.896484 0.765625)"/>
      <use xlink:href="#DejaVuSans-28" transform="translate(1325.683594 0.765625)"/>
      <use xlink:href="#DejaVuSans-d7" transform="translate(1364.697266 0.765625)"/>
      <use xlink:href="#DejaVuSans-31" transform="translate(1448.486328 0.765625)"/>
      <use xlink:href="#DejaVuSans-30" transform="translate(1512.109375 0.765625)"/>
      <use xlink:href="#DejaVuSans-2212" transform="translate(1576.689453 39.046875) scale(0.7)"/>
      <use xlink:href="#DejaVuSans-32" transform="translate(1635.341797 39.046875) scale(0.7)"/>
      <use xlink:href="#DejaVuSans-29" transform="translate(1682.612305 0.765625)"/>
     </g>
    </g>
   </g>
   <g id="patch_48">
    <path d="M 41.0325 118.00625 
L 41.0325 10.239375 
" style="fill: none; stroke: #000000; stroke-width: 0.8; stroke-linejoin: miter; stroke-linecap: square"/>
   </g>
   <g id="patch_49">
    <path d="M 41.0325 118.00625 
L 219.328185 118.00625 
" style="fill: none; stroke: #000000; stroke-width: 0.8; stroke-linejoin: miter; stroke-linecap: square"/>
   </g>
   <g id="legend_1">
    <g id="patch_50">
     <path d="M 48.2325 23.518125 
L 64.2325 23.518125 
L 64.2325 17.918125 
L 48.2325 17.918125 
z
"/>
    </g>
    <g id="text_16">
     <!-- Métodos numéricos estándar -->
     <g transform="translate(70.6325 23.518125) scale(0.08 -0.08)">
      <defs>
       <path id="DejaVuSans-4d" d="M 628 4666 
L 1569 4666 
L 2759 1491 
L 3956 4666 
L 4897 4666 
L 4897 0 
L 4281 0 
L 4281 4097 
L 3078 897 
L 2444 897 
L 1241 4097 
L 1241 0 
L 628 0 
L 628 4666 
z
" transform="scale(0.015625)"/>
       <path id="DejaVuSans-e9" d="M 3597 1894 
L 3597 1613 
L 953 1613 
Q 991 1019 1311 708 
Q 1631 397 2203 397 
Q 2534 397 2845 478 
Q 3156 559 3463 722 
L 3463 178 
Q 3153 47 2828 -22 
Q 2503 -91 2169 -91 
Q 1331 -91 842 396 
Q 353 884 353 1716 
Q 353 2575 817 3079 
Q 1281 3584 2069 3584 
Q 2775 3584 3186 3129 
Q 3597 2675 3597 1894 
z
M 3022 2063 
Q 3016 2534 2758 2815 
Q 2500 3097 2075 3097 
Q 1594 3097 1305 2825 
Q 1016 2553 972 2059 
L 3022 2063 
z
M 2469 5119 
L 3091 5119 
L 2072 3944 
L 1594 3944 
L 2469 5119 
z
" transform="scale(0.015625)"/>
       <path id="DejaVuSans-74" d="M 1172 4494 
L 1172 3500 
L 2356 3500 
L 2356 3053 
L 1172 3053 
L 1172 1153 
Q 1172 725 1289 603 
Q 1406 481 1766 481 
L 2356 481 
L 2356 0 
L 1766 0 
Q 1100 0 847 248 
Q 594 497 594 1153 
L 594 3053 
L 172 3053 
L 172 3500 
L 594 3500 
L 594 4494 
L 1172 4494 
z
" transform="scale(0.015625)"/>
       <path id="DejaVuSans-6d" d="M 3328 2828 
Q 3544 3216 3844 3400 
Q 4144 3584 4550 3584 
Q 5097 3584 5394 3201 
Q 5691 2819 5691 2113 
L 5691 0 
L 5113 0 
L 5113 2094 
Q 5113 2597 4934 2840 
Q 4756 3084 4391 3084 
Q 3944 3084 3684 2787 
Q 3425 2491 3425 1978 
L 3425 0 
L 2847 0 
L 2847 2094 
Q 2847 2600 2669 2842 
Q 2491 3084 2119 3084 
Q 1678 3084 1418 2786 
Q 1159 2488 1159 1978 
L 1159 0 
L 581 0 
L 581 3500 
L 1159 3500 
L 1159 2956 
Q 1356 3278 1631 3431 
Q 1906 3584 2284 3584 
Q 2666 3584 2933 3390 
Q 3200 3197 3328 2828 
z
" transform="scale(0.015625)"/>
       <path id="DejaVuSans-e1" d="M 2194 1759 
Q 1497 1759 1228 1600 
Q 959 1441 959 1056 
Q 959 750 1161 570 
Q 1363 391 1709 391 
Q 2188 391 2477 730 
Q 2766 1069 2766 1631 
L 2766 1759 
L 2194 1759 
z
M 3341 1997 
L 3341 0 
L 2766 0 
L 2766 531 
Q 2569 213 2275 61 
Q 1981 -91 1556 -91 
Q 1019 -91 701 211 
Q 384 513 384 1019 
Q 384 1609 779 1909 
Q 1175 2209 1959 2209 
L 2766 2209 
L 2766 2266 
Q 2766 2663 2505 2880 
Q 2244 3097 1772 3097 
Q 1472 3097 1187 3025 
Q 903 2953 641 2809 
L 641 3341 
Q 956 3463 1253 3523 
Q 1550 3584 1831 3584 
Q 2591 3584 2966 3190 
Q 3341 2797 3341 1997 
z
M 2291 5119 
L 2913 5119 
L 1894 3944 
L 1416 3944 
L 2291 5119 
z
" transform="scale(0.015625)"/>
      </defs>
      <use xlink:href="#DejaVuSans-4d"/>
      <use xlink:href="#DejaVuSans-e9" x="86.279297"/>
      <use xlink:href="#DejaVuSans-74" x="147.802734"/>
      <use xlink:href="#DejaVuSans-6f" x="187.011719"/>
      <use xlink:href="#DejaVuSans-64" x="248.193359"/>
      <use xlink:href="#DejaVuSans-6f" x="311.669922"/>
      <use xlink:href="#DejaVuSans-73" x="372.851562"/>
      <use xlink:href="#DejaVuSans-20" x="424.951172"/>
      <use xlink:href="#DejaVuSans-6e" x="456.738281"/>
      <use xlink:href="#DejaVuSans-75" x="520.117188"/>
      <use xlink:href="#DejaVuSans-6d" x="583.496094"/>
      <use xlink:href="#DejaVuSans-e9" x="680.908203"/>
      <use xlink:href="#DejaVuSans-72" x="742.431641"/>
      <use xlink:href="#DejaVuSans-69" x="783.544922"/>
      <use xlink:href="#DejaVuSans-63" x="811.328125"/>
      <use xlink:href="#DejaVuSans-6f" x="866.308594"/>
      <use xlink:href="#DejaVuSans-73" x="927.490234"/>
      <use xlink:href="#DejaVuSans-20" x="979.589844"/>
      <use xlink:href="#DejaVuSans-65" x="1011.376953"/>
      <use xlink:href="#DejaVuSans-73" x="1072.900391"/>
      <use xlink:href="#DejaVuSans-74" x="1125"/>
      <use xlink:href="#DejaVuSans-e1" x="1164.208984"/>
      <use xlink:href="#DejaVuSans-6e" x="1225.488281"/>
      <use xlink:href="#DejaVuSans-64" x="1288.867188"/>
      <use xlink:href="#DejaVuSans-61" x="1352.34375"/>
      <use xlink:href="#DejaVuSans-72" x="1413.623047"/>
     </g>
    </g>
    <g id="patch_51">
     <path d="M 48.2325 35.580625 
L 64.2325 35.580625 
L 64.2325 29.980625 
L 48.2325 29.980625 
z
" style="fill: #2255a0; fill-opacity: 0.501961"/>
    </g>
    <g id="text_17">
     <!-- Aprendizaje automático -->
     <g transform="translate(70.6325 35.580625) scale(0.08 -0.08)">
      <defs>
       <path id="DejaVuSans-7a" d="M 353 3500 
L 3084 3500 
L 3084 2975 
L 922 459 
L 3084 459 
L 3084 0 
L 275 0 
L 275 525 
L 2438 3041 
L 353 3041 
L 353 3500 
z
" transform="scale(0.015625)"/>
       <path id="DejaVuSans-6a" d="M 603 3500 
L 1178 3500 
L 1178 -63 
Q 1178 -731 923 -1031 
Q 669 -1331 103 -1331 
L -116 -1331 
L -116 -844 
L 38 -844 
Q 366 -844 484 -692 
Q 603 -541 603 -63 
L 603 3500 
z
M 603 4863 
L 1178 4863 
L 1178 4134 
L 603 4134 
L 603 4863 
z
" transform="scale(0.015625)"/>
      </defs>
      <use xlink:href="#DejaVuSans-41"/>
      <use xlink:href="#DejaVuSans-70" x="68.408203"/>
      <use xlink:href="#DejaVuSans-72" x="131.884766"/>
      <use xlink:href="#DejaVuSans-65" x="170.748047"/>
      <use xlink:href="#DejaVuSans-6e" x="232.271484"/>
      <use xlink:href="#DejaVuSans-64" x="295.650391"/>
      <use xlink:href="#DejaVuSans-69" x="359.126953"/>
      <use xlink:href="#DejaVuSans-7a" x="386.910156"/>
      <use xlink:href="#DejaVuSans-61" x="439.400391"/>
      <use xlink:href="#DejaVuSans-6a" x="500.679688"/>
      <use xlink:href="#DejaVuSans-65" x="528.462891"/>
      <use xlink:href="#DejaVuSans-20" x="589.986328"/>
      <use xlink:href="#DejaVuSans-61" x="621.773438"/>
      <use xlink:href="#DejaVuSans-75" x="683.052734"/>
      <use xlink:href="#DejaVuSans-74" x="746.431641"/>
      <use xlink:href="#DejaVuSans-6f" x="785.640625"/>
      <use xlink:href="#DejaVuSans-6d" x="846.822266"/>
      <use xlink:href="#DejaVuSans-e1" x="944.234375"/>
      <use xlink:href="#DejaVuSans-74" x="1005.513672"/>
      <use xlink:href="#DejaVuSans-69" x="1044.722656"/>
      <use xlink:href="#DejaVuSans-63" x="1072.505859"/>
      <use xlink:href="#DejaVuSans-6f" x="1127.486328"/>
     </g>
    </g>
    <g id="patch_52">
     <path d="M 48.2325 47.323125 
L 64.2325 47.323125 
L 64.2325 41.723125 
L 48.2325 41.723125 
z
" style="fill: #8e8e8e"/>
    </g>
    <g id="text_18">
     <!-- Ambos / Combinados -->
     <g transform="translate(70.6325 47.323125) scale(0.08 -0.08)">
      <defs>
       <path id="DejaVuSans-2f" d="M 1625 4666 
L 2156 4666 
L 531 -594 
L 0 -594 
L 1625 4666 
z
" transform="scale(0.015625)"/>
       <path id="DejaVuSans-43" d="M 4122 4306 
L 4122 3641 
Q 3803 3938 3442 4084 
Q 3081 4231 2675 4231 
Q 1875 4231 1450 3742 
Q 1025 3253 1025 2328 
Q 1025 1406 1450 917 
Q 1875 428 2675 428 
Q 3081 428 3442 575 
Q 3803 722 4122 1019 
L 4122 359 
Q 3791 134 3420 21 
Q 3050 -91 2638 -91 
Q 1578 -91 968 557 
Q 359 1206 359 2328 
Q 359 3453 968 4101 
Q 1578 4750 2638 4750 
Q 3056 4750 3426 4639 
Q 3797 4528 4122 4306 
z
" transform="scale(0.015625)"/>
      </defs>
      <use xlink:href="#DejaVuSans-41"/>
      <use xlink:href="#DejaVuSans-6d" x="68.408203"/>
      <use xlink:href="#DejaVuSans-62" x="165.820312"/>
      <use xlink:href="#DejaVuSans-6f" x="229.296875"/>
      <use xlink:href="#DejaVuSans-73" x="290.478516"/>
      <use xlink:href="#DejaVuSans-20" x="342.578125"/>
      <use xlink:href="#DejaVuSans-2f" x="374.365234"/>
      <use xlink:href="#DejaVuSans-20" x="408.056641"/>
      <use xlink:href="#DejaVuSans-43" x="439.84375"/>
      <use xlink:href="#DejaVuSans-6f" x="509.667969"/>
      <use xlink:href="#DejaVuSans-6d" x="570.849609"/>
      <use xlink:href="#DejaVuSans-62" x="668.261719"/>
      <use xlink:href="#DejaVuSans-69" x="731.738281"/>
      <use xlink:href="#DejaVuSans-6e" x="759.521484"/>
      <use xlink:href="#DejaVuSans-61" x="822.900391"/>
      <use xlink:href="#DejaVuSans-64" x="884.179688"/>
      <use xlink:href="#DejaVuSans-6f" x="947.65625"/>
      <use xlink:href="#DejaVuSans-73" x="1008.837891"/>
     </g>
    </g>
   </g>
  </g>
  <g id="axes_2">
   <g id="patch_53">
    <path d="M 275.157984 118.00625 
L 453.453669 118.00625 
L 453.453669 10.239375 
L 275.157984 10.239375 
z
" style="fill: #ffffff"/>
   </g>
   <g id="patch_54">
    <path d="M 443.944566 118.00625 
L 451.076393 118.00625 
L 451.076393 20.036364 
L 443.944566 20.036364 
z
" clip-path="url(#p97795e5b1e)" style="fill: #8e8e8e"/>
   </g>
   <g id="patch_55">
    <path d="M 432.058187 118.00625 
L 439.190014 118.00625 
L 439.190014 34.403078 
L 432.058187 34.403078 
z
" clip-path="url(#p97795e5b1e)" style="fill: #8e8e8e"/>
   </g>
   <g id="patch_56">
    <path d="M 420.171808 118.00625 
L 427.303635 118.00625 
L 427.303635 51.264914 
L 420.171808 51.264914 
z
" clip-path="url(#p97795e5b1e)" style="fill: #8e8e8e"/>
   </g>
   <g id="patch_57">
    <path d="M 408.285429 118.00625 
L 415.417256 118.00625 
L 415.417256 63.745439 
L 408.285429 63.745439 
z
" clip-path="url(#p97795e5b1e)" style="fill: #8e8e8e"/>
   </g>
   <g id="patch_58">
    <path d="M 396.39905 118.00625 
L 403.530877 118.00625 
L 403.530877 80.000168 
L 396.39905 80.000168 
z
" clip-path="url(#p97795e5b1e)" style="fill: #8e8e8e"/>
   </g>
   <g id="patch_59">
    <path d="M 384.512671 118.00625 
L 391.644498 118.00625 
L 391.644498 87.206656 
L 384.512671 87.206656 
z
" clip-path="url(#p97795e5b1e)" style="fill: #8e8e8e"/>
   </g>
   <g id="patch_60">
    <path d="M 372.626292 118.00625 
L 379.758119 118.00625 
L 379.758119 97.130563 
L 372.626292 97.130563 
z
" clip-path="url(#p97795e5b1e)" style="fill: #8e8e8e"/>
   </g>
   <g id="patch_61">
    <path d="M 360.739913 118.00625 
L 367.87174 118.00625 
L 367.87174 103.13847 
L 360.739913 103.13847 
z
" clip-path="url(#p97795e5b1e)" style="fill: #8e8e8e"/>
   </g>
   <g id="patch_62">
    <path d="M 348.853534 118.00625 
L 355.985361 118.00625 
L 355.985361 108.814457 
L 348.853534 108.814457 
z
" clip-path="url(#p97795e5b1e)" style="fill: #8e8e8e"/>
   </g>
   <g id="patch_63">
    <path d="M 336.967155 118.00625 
L 344.098982 118.00625 
L 344.098982 109.019184 
L 336.967155 109.019184 
z
" clip-path="url(#p97795e5b1e)" style="fill: #8e8e8e"/>
   </g>
   <g id="patch_64">
    <path d="M 325.080776 118.00625 
L 332.212603 118.00625 
L 332.212603 108.10527 
L 325.080776 108.10527 
z
" clip-path="url(#p97795e5b1e)" style="fill: #8e8e8e"/>
   </g>
   <g id="patch_65">
    <path d="M 313.194397 118.00625 
L 320.326225 118.00625 
L 320.326225 111.449871 
L 313.194397 111.449871 
z
" clip-path="url(#p97795e5b1e)" style="fill: #8e8e8e"/>
   </g>
   <g id="patch_66">
    <path d="M 301.308018 118.00625 
L 308.439846 118.00625 
L 308.439846 114.082575 
L 301.308018 114.082575 
z
" clip-path="url(#p97795e5b1e)" style="fill: #8e8e8e"/>
   </g>
   <g id="patch_67">
    <path d="M 289.421639 118.00625 
L 296.553467 118.00625 
L 296.553467 108.788789 
L 289.421639 108.788789 
z
" clip-path="url(#p97795e5b1e)" style="fill: #8e8e8e"/>
   </g>
   <g id="patch_68">
    <path d="M 277.53526 118.00625 
L 284.667088 118.00625 
L 284.667088 108.859427 
L 277.53526 108.859427 
z
" clip-path="url(#p97795e5b1e)" style="fill: #8e8e8e"/>
   </g>
   <g id="matplotlib.axis_3">
    <g id="xtick_9">
     <g id="line2d_14">
      <g>
       <use xlink:href="#mf2c1b1e7fc" x="281.101174" y="118.00625" style="stroke: #000000; stroke-width: 0.8"/>
      </g>
     </g>
     <g id="text_19">
      <!-- 2010 -->
      <g transform="translate(270.921174 130.585) scale(0.08 -0.08)">
       <use xlink:href="#DejaVuSans-32"/>
       <use xlink:href="#DejaVuSans-30" x="63.623047"/>
       <use xlink:href="#DejaVuSans-31" x="127.246094"/>
       <use xlink:href="#DejaVuSans-30" x="190.869141"/>
      </g>
     </g>
    </g>
    <g id="xtick_10">
     <g id="line2d_15">
      <g>
       <use xlink:href="#mf2c1b1e7fc" x="304.873932" y="118.00625" style="stroke: #000000; stroke-width: 0.8"/>
      </g>
     </g>
     <g id="text_20">
      <!-- 2012 -->
      <g transform="translate(294.693932 130.585) scale(0.08 -0.08)">
       <use xlink:href="#DejaVuSans-32"/>
       <use xlink:href="#DejaVuSans-30" x="63.623047"/>
       <use xlink:href="#DejaVuSans-31" x="127.246094"/>
       <use xlink:href="#DejaVuSans-32" x="190.869141"/>
      </g>
     </g>
    </g>
    <g id="xtick_11">
     <g id="line2d_16">
      <g>
       <use xlink:href="#mf2c1b1e7fc" x="328.64669" y="118.00625" style="stroke: #000000; stroke-width: 0.8"/>
      </g>
     </g>
     <g id="text_21">
      <!-- 2014 -->
      <g transform="translate(318.46669 130.585) scale(0.08 -0.08)">
       <use xlink:href="#DejaVuSans-32"/>
       <use xlink:href="#DejaVuSans-30" x="63.623047"/>
       <use xlink:href="#DejaVuSans-31" x="127.246094"/>
       <use xlink:href="#DejaVuSans-34" x="190.869141"/>
      </g>
     </g>
    </g>
    <g id="xtick_12">
     <g id="line2d_17">
      <g>
       <use xlink:href="#mf2c1b1e7fc" x="352.419448" y="118.00625" style="stroke: #000000; stroke-width: 0.8"/>
      </g>
     </g>
     <g id="text_22">
      <!-- 2016 -->
      <g transform="translate(342.239448 130.585) scale(0.08 -0.08)">
       <use xlink:href="#DejaVuSans-32"/>
       <use xlink:href="#DejaVuSans-30" x="63.623047"/>
       <use xlink:href="#DejaVuSans-31" x="127.246094"/>
       <use xlink:href="#DejaVuSans-36" x="190.869141"/>
      </g>
     </g>
    </g>
    <g id="xtick_13">
     <g id="line2d_18">
      <g>
       <use xlink:href="#mf2c1b1e7fc" x="376.192206" y="118.00625" style="stroke: #000000; stroke-width: 0.8"/>
      </g>
     </g>
     <g id="text_23">
      <!-- 2018 -->
      <g transform="translate(366.012206 130.585) scale(0.08 -0.08)">
       <use xlink:href="#DejaVuSans-32"/>
       <use xlink:href="#DejaVuSans-30" x="63.623047"/>
       <use xlink:href="#DejaVuSans-31" x="127.246094"/>
       <use xlink:href="#DejaVuSans-38" x="190.869141"/>
      </g>
     </g>
    </g>
    <g id="xtick_14">
     <g id="line2d_19">
      <g>
       <use xlink:href="#mf2c1b1e7fc" x="399.964964" y="118.00625" style="stroke: #000000; stroke-width: 0.8"/>
      </g>
     </g>
     <g id="text_24">
      <!-- 2020 -->
      <g transform="translate(389.784964 130.585) scale(0.08 -0.08)">
       <use xlink:href="#DejaVuSans-32"/>
       <use xlink:href="#DejaVuSans-30" x="63.623047"/>
       <use xlink:href="#DejaVuSans-32" x="127.246094"/>
       <use xlink:href="#DejaVuSans-30" x="190.869141"/>
      </g>
     </g>
    </g>
    <g id="xtick_15">
     <g id="line2d_20">
      <g>
       <use xlink:href="#mf2c1b1e7fc" x="423.737722" y="118.00625" style="stroke: #000000; stroke-width: 0.8"/>
      </g>
     </g>
     <g id="text_25">
      <!-- 2022 -->
      <g transform="translate(413.557722 130.585) scale(0.08 -0.08)">
       <use xlink:href="#DejaVuSans-32"/>
       <use xlink:href="#DejaVuSans-30" x="63.623047"/>
       <use xlink:href="#DejaVuSans-32" x="127.246094"/>
       <use xlink:href="#DejaVuSans-32" x="190.869141"/>
      </g>
     </g>
    </g>
    <g id="xtick_16">
     <g id="line2d_21">
      <g>
       <use xlink:href="#mf2c1b1e7fc" x="447.51048" y="118.00625" style="stroke: #000000; stroke-width: 0.8"/>
      </g>
     </g>
     <g id="text_26">
      <!-- 2024 -->
      <g transform="translate(437.33048 130.585) scale(0.08 -0.08)">
       <use xlink:href="#DejaVuSans-32"/>
       <use xlink:href="#DejaVuSans-30" x="63.623047"/>
       <use xlink:href="#DejaVuSans-32" x="127.246094"/>
       <use xlink:href="#DejaVuSans-34" x="190.869141"/>
      </g>
     </g>
    </g>
    <g id="text_27">
     <!-- Año -->
     <g transform="translate(356.587077 142.3275) scale(0.08 -0.08)">
      <use xlink:href="#DejaVuSans-41"/>
      <use xlink:href="#DejaVuSans-f1" x="68.408203"/>
      <use xlink:href="#DejaVuSans-6f" x="131.787109"/>
     </g>
    </g>
   </g>
   <g id="matplotlib.axis_4">
    <g id="ytick_6">
     <g id="line2d_22">
      <g>
       <use xlink:href="#mfece0e8537" x="275.157984" y="118.00625" style="stroke: #000000; stroke-width: 0.8"/>
      </g>
     </g>
     <g id="text_28">
      <!-- 0.00 -->
      <g transform="translate(250.845484 121.045625) scale(0.08 -0.08)">
       <use xlink:href="#DejaVuSans-30"/>
       <use xlink:href="#DejaVuSans-2e" x="63.623047"/>
       <use xlink:href="#DejaVuSans-30" x="95.410156"/>
       <use xlink:href="#DejaVuSans-30" x="159.033203"/>
      </g>
     </g>
    </g>
    <g id="ytick_7">
     <g id="line2d_23">
      <g>
       <use xlink:href="#mfece0e8537" x="275.157984" y="91.064531" style="stroke: #000000; stroke-width: 0.8"/>
      </g>
     </g>
     <g id="text_29">
      <!-- 0.32 -->
      <g transform="translate(250.845484 94.103906) scale(0.08 -0.08)">
       <defs>
        <path id="DejaVuSans-33" d="M 2597 2516 
Q 3050 2419 3304 2112 
Q 3559 1806 3559 1356 
Q 3559 666 3084 287 
Q 2609 -91 1734 -91 
Q 1441 -91 1130 -33 
Q 819 25 488 141 
L 488 750 
Q 750 597 1062 519 
Q 1375 441 1716 441 
Q 2309 441 2620 675 
Q 2931 909 2931 1356 
Q 2931 1769 2642 2001 
Q 2353 2234 1838 2234 
L 1294 2234 
L 1294 2753 
L 1863 2753 
Q 2328 2753 2575 2939 
Q 2822 3125 2822 3475 
Q 2822 3834 2567 4026 
Q 2313 4219 1838 4219 
Q 1578 4219 1281 4162 
Q 984 4106 628 3988 
L 628 4550 
Q 988 4650 1302 4700 
Q 1616 4750 1894 4750 
Q 2613 4750 3031 4423 
Q 3450 4097 3450 3541 
Q 3450 3153 3228 2886 
Q 3006 2619 2597 2516 
z
" transform="scale(0.015625)"/>
       </defs>
       <use xlink:href="#DejaVuSans-30"/>
       <use xlink:href="#DejaVuSans-2e" x="63.623047"/>
       <use xlink:href="#DejaVuSans-33" x="95.410156"/>
       <use xlink:href="#DejaVuSans-32" x="159.033203"/>
      </g>
     </g>
    </g>
    <g id="ytick_8">
     <g id="line2d_24">
      <g>
       <use xlink:href="#mfece0e8537" x="275.157984" y="64.122812" style="stroke: #000000; stroke-width: 0.8"/>
      </g>
     </g>
     <g id="text_30">
      <!-- 0.63 -->
      <g transform="translate(250.845484 67.162187) scale(0.08 -0.08)">
       <use xlink:href="#DejaVuSans-30"/>
       <use xlink:href="#DejaVuSans-2e" x="63.623047"/>
       <use xlink:href="#DejaVuSans-36" x="95.410156"/>
       <use xlink:href="#DejaVuSans-33" x="159.033203"/>
      </g>
     </g>
    </g>
    <g id="ytick_9">
     <g id="line2d_25">
      <g>
       <use xlink:href="#mfece0e8537" x="275.157984" y="37.181094" style="stroke: #000000; stroke-width: 0.8"/>
      </g>
     </g>
     <g id="text_31">
      <!-- 0.95 -->
      <g transform="translate(250.845484 40.220469) scale(0.08 -0.08)">
       <defs>
        <path id="DejaVuSans-39" d="M 703 97 
L 703 672 
Q 941 559 1184 500 
Q 1428 441 1663 441 
Q 2288 441 2617 861 
Q 2947 1281 2994 2138 
Q 2813 1869 2534 1725 
Q 2256 1581 1919 1581 
Q 1219 1581 811 2004 
Q 403 2428 403 3163 
Q 403 3881 828 4315 
Q 1253 4750 1959 4750 
Q 2769 4750 3195 4129 
Q 3622 3509 3622 2328 
Q 3622 1225 3098 567 
Q 2575 -91 1691 -91 
Q 1453 -91 1209 -44 
Q 966 3 703 97 
z
M 1959 2075 
Q 2384 2075 2632 2365 
Q 2881 2656 2881 3163 
Q 2881 3666 2632 3958 
Q 2384 4250 1959 4250 
Q 1534 4250 1286 3958 
Q 1038 3666 1038 3163 
Q 1038 2656 1286 2365 
Q 1534 2075 1959 2075 
z
" transform="scale(0.015625)"/>
        <path id="DejaVuSans-35" d="M 691 4666 
L 3169 4666 
L 3169 4134 
L 1269 4134 
L 1269 2991 
Q 1406 3038 1543 3061 
Q 1681 3084 1819 3084 
Q 2600 3084 3056 2656 
Q 3513 2228 3513 1497 
Q 3513 744 3044 326 
Q 2575 -91 1722 -91 
Q 1428 -91 1123 -41 
Q 819 9 494 109 
L 494 744 
Q 775 591 1075 516 
Q 1375 441 1709 441 
Q 2250 441 2565 725 
Q 2881 1009 2881 1497 
Q 2881 1984 2565 2268 
Q 2250 2553 1709 2553 
Q 1456 2553 1204 2497 
Q 953 2441 691 2322 
L 691 4666 
z
" transform="scale(0.015625)"/>
       </defs>
       <use xlink:href="#DejaVuSans-30"/>
       <use xlink:href="#DejaVuSans-2e" x="63.623047"/>
       <use xlink:href="#DejaVuSans-39" x="95.410156"/>
       <use xlink:href="#DejaVuSans-35" x="159.033203"/>
      </g>
     </g>
    </g>
    <g id="ytick_10">
     <g id="line2d_26">
      <g>
       <use xlink:href="#mfece0e8537" x="275.157984" y="10.239375" style="stroke: #000000; stroke-width: 0.8"/>
      </g>
     </g>
     <g id="text_32">
      <!-- 1.26 -->
      <g transform="translate(250.845484 13.27875) scale(0.08 -0.08)">
       <use xlink:href="#DejaVuSans-31"/>
       <use xlink:href="#DejaVuSans-2e" x="63.623047"/>
       <use xlink:href="#DejaVuSans-32" x="95.410156"/>
       <use xlink:href="#DejaVuSans-36" x="159.033203"/>
      </g>
     </g>
    </g>
    <g id="text_33">
     <!-- Fracción de publicaciones ($\times 10^{-4}$) -->
     <g transform="translate(245.165484 133.002812) rotate(-90) scale(0.08 -0.08)">
      <use xlink:href="#DejaVuSans-46" transform="translate(0 0.684375)"/>
      <use xlink:href="#DejaVuSans-72" transform="translate(57.519531 0.684375)"/>
      <use xlink:href="#DejaVuSans-61" transform="translate(98.632812 0.684375)"/>
      <use xlink:href="#DejaVuSans-63" transform="translate(159.912109 0.684375)"/>
      <use xlink:href="#DejaVuSans-63" transform="translate(214.892578 0.684375)"/>
      <use xlink:href="#DejaVuSans-69" transform="translate(269.873047 0.684375)"/>
      <use xlink:href="#DejaVuSans-f3" transform="translate(297.65625 0.684375)"/>
      <use xlink:href="#DejaVuSans-6e" transform="translate(358.837891 0.684375)"/>
      <use xlink:href="#DejaVuSans-20" transform="translate(422.216797 0.684375)"/>
      <use xlink:href="#DejaVuSans-64" transform="translate(454.003906 0.684375)"/>
      <use xlink:href="#DejaVuSans-65" transform="translate(517.480469 0.684375)"/>
      <use xlink:href="#DejaVuSans-20" transform="translate(579.003906 0.684375)"/>
      <use xlink:href="#DejaVuSans-70" transform="translate(610.791016 0.684375)"/>
      <use xlink:href="#DejaVuSans-75" transform="translate(674.267578 0.684375)"/>
      <use xlink:href="#DejaVuSans-62" transform="translate(737.646484 0.684375)"/>
      <use xlink:href="#DejaVuSans-6c" transform="translate(801.123047 0.684375)"/>
      <use xlink:href="#DejaVuSans-69" transform="translate(828.90625 0.684375)"/>
      <use xlink:href="#DejaVuSans-63" transform="translate(856.689453 0.684375)"/>
      <use xlink:href="#DejaVuSans-61" transform="translate(911.669922 0.684375)"/>
      <use xlink:href="#DejaVuSans-63" transform="translate(972.949219 0.684375)"/>
      <use xlink:href="#DejaVuSans-69" transform="translate(1027.929688 0.684375)"/>
      <use xlink:href="#DejaVuSans-6f" transform="translate(1055.712891 0.684375)"/>
      <use xlink:href="#DejaVuSans-6e" transform="translate(1116.894531 0.684375)"/>
      <use xlink:href="#DejaVuSans-65" transform="translate(1180.273438 0.684375)"/>
      <use xlink:href="#DejaVuSans-73" transform="translate(1241.796875 0.684375)"/>
      <use xlink:href="#DejaVuSans-20" transform="translate(1293.896484 0.684375)"/>
      <use xlink:href="#DejaVuSans-28" transform="translate(1325.683594 0.684375)"/>
      <use xlink:href="#DejaVuSans-d7" transform="translate(1364.697266 0.684375)"/>
      <use xlink:href="#DejaVuSans-31" transform="translate(1448.486328 0.684375)"/>
      <use xlink:href="#DejaVuSans-30" transform="translate(1512.109375 0.684375)"/>
      <use xlink:href="#DejaVuSans-2212" transform="translate(1576.689453 38.965625) scale(0.7)"/>
      <use xlink:href="#DejaVuSans-34" transform="translate(1635.341797 38.965625) scale(0.7)"/>
      <use xlink:href="#DejaVuSans-29" transform="translate(1682.612305 0.684375)"/>
     </g>
    </g>
   </g>
   <g id="patch_69">
    <path d="M 275.157984 118.00625 
L 275.157984 10.239375 
" style="fill: none; stroke: #000000; stroke-width: 0.8; stroke-linejoin: miter; stroke-linecap: square"/>
   </g>
   <g id="patch_70">
    <path d="M 275.157984 118.00625 
L 453.453669 118.00625 
" style="fill: none; stroke: #000000; stroke-width: 0.8; stroke-linejoin: miter; stroke-linecap: square"/>
   </g>
   <g id="legend_2">
    <g id="patch_71">
     <path d="M 282.357984 23.838125 
L 298.357984 23.838125 
L 298.357984 18.238125 
L 282.357984 18.238125 
z
" style="fill: #8e8e8e"/>
    </g>
    <g id="text_34">
     <!-- Propagación de ondas -->
     <g transform="translate(304.757984 23.838125) scale(0.08 -0.08)">
      <defs>
       <path id="DejaVuSans-50" d="M 1259 4147 
L 1259 2394 
L 2053 2394 
Q 2494 2394 2734 2622 
Q 2975 2850 2975 3272 
Q 2975 3691 2734 3919 
Q 2494 4147 2053 4147 
L 1259 4147 
z
M 628 4666 
L 2053 4666 
Q 2838 4666 3239 4311 
Q 3641 3956 3641 3272 
Q 3641 2581 3239 2228 
Q 2838 1875 2053 1875 
L 1259 1875 
L 1259 0 
L 628 0 
L 628 4666 
z
" transform="scale(0.015625)"/>
       <path id="DejaVuSans-67" d="M 2906 1791 
Q 2906 2416 2648 2759 
Q 2391 3103 1925 3103 
Q 1463 3103 1205 2759 
Q 947 2416 947 1791 
Q 947 1169 1205 825 
Q 1463 481 1925 481 
Q 2391 481 2648 825 
Q 2906 1169 2906 1791 
z
M 3481 434 
Q 3481 -459 3084 -895 
Q 2688 -1331 1869 -1331 
Q 1566 -1331 1297 -1286 
Q 1028 -1241 775 -1147 
L 775 -588 
Q 1028 -725 1275 -790 
Q 1522 -856 1778 -856 
Q 2344 -856 2625 -561 
Q 2906 -266 2906 331 
L 2906 616 
Q 2728 306 2450 153 
Q 2172 0 1784 0 
Q 1141 0 747 490 
Q 353 981 353 1791 
Q 353 2603 747 3093 
Q 1141 3584 1784 3584 
Q 2172 3584 2450 3431 
Q 2728 3278 2906 2969 
L 2906 3500 
L 3481 3500 
L 3481 434 
z
" transform="scale(0.015625)"/>
      </defs>
      <use xlink:href="#DejaVuSans-50"/>
      <use xlink:href="#DejaVuSans-72" x="58.552734"/>
      <use xlink:href="#DejaVuSans-6f" x="97.416016"/>
      <use xlink:href="#DejaVuSans-70" x="158.597656"/>
      <use xlink:href="#DejaVuSans-61" x="222.074219"/>
      <use xlink:href="#DejaVuSans-67" x="283.353516"/>
      <use xlink:href="#DejaVuSans-61" x="346.830078"/>
      <use xlink:href="#DejaVuSans-63" x="408.109375"/>
      <use xlink:href="#DejaVuSans-69" x="463.089844"/>
      <use xlink:href="#DejaVuSans-f3" x="490.873047"/>
      <use xlink:href="#DejaVuSans-6e" x="552.054688"/>
      <use xlink:href="#DejaVuSans-20" x="615.433594"/>
      <use xlink:href="#DejaVuSans-64" x="647.220703"/>
      <use xlink:href="#DejaVuSans-65" x="710.697266"/>
      <use xlink:href="#DejaVuSans-20" x="772.220703"/>
      <use xlink:href="#DejaVuSans-6f" x="804.007812"/>
      <use xlink:href="#DejaVuSans-6e" x="865.189453"/>
      <use xlink:href="#DejaVuSans-64" x="928.568359"/>
      <use xlink:href="#DejaVuSans-61" x="992.044922"/>
      <use xlink:href="#DejaVuSans-73" x="1053.324219"/>
     </g>
    </g>
   </g>
  </g>
  <g id="axes_3">
   <g id="patch_72">
    <path d="M 41.0325 261.9975 
L 219.328185 261.9975 
L 219.328185 154.230625 
L 41.0325 154.230625 
z
" style="fill: #ffffff"/>
   </g>
   <g id="patch_73">
    <path d="M 49.136849 261.9975 
L 95.447417 261.9975 
L 95.447417 216.196578 
L 49.136849 216.196578 
z
" clip-path="url(#pad0b8b035b)"/>
   </g>
   <g id="patch_74">
    <path d="M 107.025059 261.9975 
L 153.335626 261.9975 
L 153.335626 225.906267 
L 107.025059 225.906267 
z
" clip-path="url(#pad0b8b035b)" style="fill: #2255a0; fill-opacity: 0.501961"/>
   </g>
   <g id="patch_75">
    <path d="M 164.913268 261.9975 
L 211.223835 261.9975 
L 211.223835 261.481784 
L 164.913268 261.481784 
z
" clip-path="url(#pad0b8b035b)" style="fill: #8e8e8e"/>
   </g>
   <g id="matplotlib.axis_5">
    <g id="xtick_17">
     <g id="line2d_27">
      <g>
       <use xlink:href="#mf2c1b1e7fc" x="72.292133" y="261.9975" style="stroke: #000000; stroke-width: 0.8"/>
      </g>
     </g>
     <g id="text_35">
      <!-- TensorFlow -->
      <g transform="translate(50.226508 274.57625) scale(0.08 -0.08)">
       <defs>
        <path id="DejaVuSans-54" d="M -19 4666 
L 3928 4666 
L 3928 4134 
L 2272 4134 
L 2272 0 
L 1638 0 
L 1638 4134 
L -19 4134 
L -19 4666 
z
" transform="scale(0.015625)"/>
        <path id="DejaVuSans-77" d="M 269 3500 
L 844 3500 
L 1563 769 
L 2278 3500 
L 2956 3500 
L 3675 769 
L 4391 3500 
L 4966 3500 
L 4050 0 
L 3372 0 
L 2619 2869 
L 1863 0 
L 1184 0 
L 269 3500 
z
" transform="scale(0.015625)"/>
       </defs>
       <use xlink:href="#DejaVuSans-54"/>
       <use xlink:href="#DejaVuSans-65" x="44.083984"/>
       <use xlink:href="#DejaVuSans-6e" x="105.607422"/>
       <use xlink:href="#DejaVuSans-73" x="168.986328"/>
       <use xlink:href="#DejaVuSans-6f" x="221.085938"/>
       <use xlink:href="#DejaVuSans-72" x="282.267578"/>
       <use xlink:href="#DejaVuSans-46" x="323.380859"/>
       <use xlink:href="#DejaVuSans-6c" x="380.900391"/>
       <use xlink:href="#DejaVuSans-6f" x="408.683594"/>
       <use xlink:href="#DejaVuSans-77" x="469.865234"/>
      </g>
     </g>
    </g>
    <g id="xtick_18">
     <g id="line2d_28">
      <g>
       <use xlink:href="#mf2c1b1e7fc" x="130.180342" y="261.9975" style="stroke: #000000; stroke-width: 0.8"/>
      </g>
     </g>
     <g id="text_36">
      <!-- PyTorch -->
      <g transform="translate(114.901592 274.57625) scale(0.08 -0.08)">
       <defs>
        <path id="DejaVuSans-79" d="M 2059 -325 
Q 1816 -950 1584 -1140 
Q 1353 -1331 966 -1331 
L 506 -1331 
L 506 -850 
L 844 -850 
Q 1081 -850 1212 -737 
Q 1344 -625 1503 -206 
L 1606 56 
L 191 3500 
L 800 3500 
L 1894 763 
L 2988 3500 
L 3597 3500 
L 2059 -325 
z
" transform="scale(0.015625)"/>
        <path id="DejaVuSans-68" d="M 3513 2113 
L 3513 0 
L 2938 0 
L 2938 2094 
Q 2938 2591 2744 2837 
Q 2550 3084 2163 3084 
Q 1697 3084 1428 2787 
Q 1159 2491 1159 1978 
L 1159 0 
L 581 0 
L 581 4863 
L 1159 4863 
L 1159 2956 
Q 1366 3272 1645 3428 
Q 1925 3584 2291 3584 
Q 2894 3584 3203 3211 
Q 3513 2838 3513 2113 
z
" transform="scale(0.015625)"/>
       </defs>
       <use xlink:href="#DejaVuSans-50"/>
       <use xlink:href="#DejaVuSans-79" x="60.302734"/>
       <use xlink:href="#DejaVuSans-54" x="119.482422"/>
       <use xlink:href="#DejaVuSans-6f" x="163.566406"/>
       <use xlink:href="#DejaVuSans-72" x="224.748047"/>
       <use xlink:href="#DejaVuSans-63" x="263.611328"/>
       <use xlink:href="#DejaVuSans-68" x="318.591797"/>
      </g>
     </g>
    </g>
    <g id="xtick_19">
     <g id="line2d_29">
      <g>
       <use xlink:href="#mf2c1b1e7fc" x="188.068552" y="261.9975" style="stroke: #000000; stroke-width: 0.8"/>
      </g>
     </g>
     <g id="text_37">
      <!-- JAX -->
      <g transform="translate(181.482302 274.57625) scale(0.08 -0.08)">
       <defs>
        <path id="DejaVuSans-4a" d="M 628 4666 
L 1259 4666 
L 1259 325 
Q 1259 -519 939 -900 
Q 619 -1281 -91 -1281 
L -331 -1281 
L -331 -750 
L -134 -750 
Q 284 -750 456 -515 
Q 628 -281 628 325 
L 628 4666 
z
" transform="scale(0.015625)"/>
        <path id="DejaVuSans-58" d="M 403 4666 
L 1081 4666 
L 2241 2931 
L 3406 4666 
L 4084 4666 
L 2584 2425 
L 4184 0 
L 3506 0 
L 2194 1984 
L 872 0 
L 191 0 
L 1856 2491 
L 403 4666 
z
" transform="scale(0.015625)"/>
       </defs>
       <use xlink:href="#DejaVuSans-4a"/>
       <use xlink:href="#DejaVuSans-41" x="27.742188"/>
       <use xlink:href="#DejaVuSans-58" x="96.150391"/>
      </g>
     </g>
    </g>
    <g id="text_38">
     <!-- $Framework$ de Python -->
     <g transform="translate(86.300342 286.32) scale(0.08 -0.08)">
      <defs>
       <path id="DejaVuSans-Oblique-46" d="M 1081 4666 
L 3756 4666 
L 3653 4134 
L 1606 4134 
L 1338 2759 
L 3188 2759 
L 3084 2228 
L 1234 2228 
L 800 0 
L 172 0 
L 1081 4666 
z
" transform="scale(0.015625)"/>
       <path id="DejaVuSans-Oblique-72" d="M 2853 2969 
Q 2766 3016 2653 3041 
Q 2541 3066 2413 3066 
Q 1953 3066 1609 2717 
Q 1266 2369 1153 1784 
L 800 0 
L 225 0 
L 909 3500 
L 1484 3500 
L 1375 2956 
Q 1603 3259 1920 3421 
Q 2238 3584 2597 3584 
Q 2691 3584 2781 3573 
Q 2872 3563 2963 3538 
L 2853 2969 
z
" transform="scale(0.015625)"/>
       <path id="DejaVuSans-Oblique-61" d="M 3438 1997 
L 3047 0 
L 2472 0 
L 2578 531 
Q 2325 219 2001 64 
Q 1678 -91 1281 -91 
Q 834 -91 548 182 
Q 263 456 263 884 
Q 263 1497 752 1853 
Q 1241 2209 2100 2209 
L 2900 2209 
L 2931 2363 
Q 2938 2388 2941 2417 
Q 2944 2447 2944 2509 
Q 2944 2788 2717 2942 
Q 2491 3097 2081 3097 
Q 1800 3097 1504 3025 
Q 1209 2953 897 2809 
L 997 3341 
Q 1322 3463 1633 3523 
Q 1944 3584 2234 3584 
Q 2853 3584 3176 3315 
Q 3500 3047 3500 2534 
Q 3500 2431 3484 2292 
Q 3469 2153 3438 1997 
z
M 2816 1759 
L 2241 1759 
Q 1534 1759 1195 1570 
Q 856 1381 856 984 
Q 856 709 1029 553 
Q 1203 397 1509 397 
Q 1978 397 2328 733 
Q 2678 1069 2791 1631 
L 2816 1759 
z
" transform="scale(0.015625)"/>
       <path id="DejaVuSans-Oblique-6d" d="M 5747 2113 
L 5338 0 
L 4763 0 
L 5166 2094 
Q 5191 2228 5203 2325 
Q 5216 2422 5216 2491 
Q 5216 2772 5059 2928 
Q 4903 3084 4622 3084 
Q 4203 3084 3875 2770 
Q 3547 2456 3450 1953 
L 3066 0 
L 2491 0 
L 2900 2094 
Q 2925 2209 2937 2307 
Q 2950 2406 2950 2484 
Q 2950 2769 2794 2926 
Q 2638 3084 2363 3084 
Q 1938 3084 1609 2770 
Q 1281 2456 1184 1953 
L 800 0 
L 225 0 
L 909 3500 
L 1484 3500 
L 1375 2956 
Q 1609 3263 1923 3423 
Q 2238 3584 2597 3584 
Q 2978 3584 3223 3384 
Q 3469 3184 3519 2828 
Q 3781 3197 4126 3390 
Q 4472 3584 4856 3584 
Q 5306 3584 5551 3325 
Q 5797 3066 5797 2591 
Q 5797 2488 5784 2364 
Q 5772 2241 5747 2113 
z
" transform="scale(0.015625)"/>
       <path id="DejaVuSans-Oblique-65" d="M 3078 2063 
Q 3088 2113 3092 2166 
Q 3097 2219 3097 2272 
Q 3097 2653 2873 2875 
Q 2650 3097 2266 3097 
Q 1838 3097 1509 2826 
Q 1181 2556 1013 2059 
L 3078 2063 
z
M 3578 1613 
L 903 1613 
Q 884 1494 878 1425 
Q 872 1356 872 1306 
Q 872 872 1139 634 
Q 1406 397 1894 397 
Q 2269 397 2603 481 
Q 2938 566 3225 728 
L 3116 159 
Q 2806 34 2476 -28 
Q 2147 -91 1806 -91 
Q 1078 -91 686 257 
Q 294 606 294 1247 
Q 294 1794 489 2264 
Q 684 2734 1063 3103 
Q 1306 3334 1642 3459 
Q 1978 3584 2356 3584 
Q 2950 3584 3301 3228 
Q 3653 2872 3653 2272 
Q 3653 2128 3634 1964 
Q 3616 1800 3578 1613 
z
" transform="scale(0.015625)"/>
       <path id="DejaVuSans-Oblique-77" d="M 544 3500 
L 1113 3500 
L 1259 684 
L 2566 3500 
L 3231 3500 
L 3425 684 
L 4666 3500 
L 5241 3500 
L 3641 0 
L 2969 0 
L 2797 2900 
L 1459 0 
L 781 0 
L 544 3500 
z
" transform="scale(0.015625)"/>
       <path id="DejaVuSans-Oblique-6f" d="M 1625 -91 
Q 1009 -91 651 289 
Q 294 669 294 1325 
Q 294 1706 417 2101 
Q 541 2497 738 2766 
Q 1047 3184 1428 3384 
Q 1809 3584 2291 3584 
Q 2888 3584 3255 3212 
Q 3622 2841 3622 2241 
Q 3622 1825 3500 1412 
Q 3378 1000 3181 728 
Q 2875 309 2494 109 
Q 2113 -91 1625 -91 
z
M 891 1344 
Q 891 869 1089 633 
Q 1288 397 1691 397 
Q 2269 397 2648 901 
Q 3028 1406 3028 2181 
Q 3028 2634 2825 2865 
Q 2622 3097 2228 3097 
Q 1903 3097 1650 2945 
Q 1397 2794 1197 2484 
Q 1050 2253 970 1956 
Q 891 1659 891 1344 
z
" transform="scale(0.015625)"/>
       <path id="DejaVuSans-Oblique-6b" d="M 1172 4863 
L 1747 4863 
L 1197 2028 
L 3169 3500 
L 3916 3500 
L 1716 1825 
L 3322 0 
L 2625 0 
L 1131 1709 
L 800 0 
L 225 0 
L 1172 4863 
z
" transform="scale(0.015625)"/>
      </defs>
      <use xlink:href="#DejaVuSans-Oblique-46" transform="translate(0 0.015625)"/>
      <use xlink:href="#DejaVuSans-Oblique-72" transform="translate(57.519531 0.015625)"/>
      <use xlink:href="#DejaVuSans-Oblique-61" transform="translate(98.632812 0.015625)"/>
      <use xlink:href="#DejaVuSans-Oblique-6d" transform="translate(159.912109 0.015625)"/>
      <use xlink:href="#DejaVuSans-Oblique-65" transform="translate(257.324219 0.015625)"/>
      <use xlink:href="#DejaVuSans-Oblique-77" transform="translate(318.847656 0.015625)"/>
      <use xlink:href="#DejaVuSans-Oblique-6f" transform="translate(400.634766 0.015625)"/>
      <use xlink:href="#DejaVuSans-Oblique-72" transform="translate(461.816406 0.015625)"/>
      <use xlink:href="#DejaVuSans-Oblique-6b" transform="translate(502.929688 0.015625)"/>
      <use xlink:href="#DejaVuSans-20" transform="translate(560.839844 0.015625)"/>
      <use xlink:href="#DejaVuSans-64" transform="translate(592.626953 0.015625)"/>
      <use xlink:href="#DejaVuSans-65" transform="translate(656.103516 0.015625)"/>
      <use xlink:href="#DejaVuSans-20" transform="translate(717.626953 0.015625)"/>
      <use xlink:href="#DejaVuSans-50" transform="translate(749.414062 0.015625)"/>
      <use xlink:href="#DejaVuSans-79" transform="translate(809.716797 0.015625)"/>
      <use xlink:href="#DejaVuSans-74" transform="translate(868.896484 0.015625)"/>
      <use xlink:href="#DejaVuSans-68" transform="translate(908.105469 0.015625)"/>
      <use xlink:href="#DejaVuSans-6f" transform="translate(971.484375 0.015625)"/>
      <use xlink:href="#DejaVuSans-6e" transform="translate(1032.666016 0.015625)"/>
     </g>
    </g>
   </g>
   <g id="matplotlib.axis_6">
    <g id="ytick_11">
     <g id="line2d_30">
      <g>
       <use xlink:href="#mfece0e8537" x="41.0325" y="261.9975" style="stroke: #000000; stroke-width: 0.8"/>
      </g>
     </g>
     <g id="text_39">
      <!-- 0 -->
      <g transform="translate(29.4425 265.036875) scale(0.08 -0.08)">
       <use xlink:href="#DejaVuSans-30"/>
      </g>
     </g>
    </g>
    <g id="ytick_12">
     <g id="line2d_31">
      <g>
       <use xlink:href="#mfece0e8537" x="41.0325" y="240.657525" style="stroke: #000000; stroke-width: 0.8"/>
      </g>
     </g>
     <g id="text_40">
      <!-- 20 -->
      <g transform="translate(24.3525 243.6969) scale(0.08 -0.08)">
       <use xlink:href="#DejaVuSans-32"/>
       <use xlink:href="#DejaVuSans-30" x="63.623047"/>
      </g>
     </g>
    </g>
    <g id="ytick_13">
     <g id="line2d_32">
      <g>
       <use xlink:href="#mfece0e8537" x="41.0325" y="219.31755" style="stroke: #000000; stroke-width: 0.8"/>
      </g>
     </g>
     <g id="text_41">
      <!-- 40 -->
      <g transform="translate(24.3525 222.356925) scale(0.08 -0.08)">
       <use xlink:href="#DejaVuSans-34"/>
       <use xlink:href="#DejaVuSans-30" x="63.623047"/>
      </g>
     </g>
    </g>
    <g id="ytick_14">
     <g id="line2d_33">
      <g>
       <use xlink:href="#mfece0e8537" x="41.0325" y="197.977574" style="stroke: #000000; stroke-width: 0.8"/>
      </g>
     </g>
     <g id="text_42">
      <!-- 60 -->
      <g transform="translate(24.3525 201.016949) scale(0.08 -0.08)">
       <use xlink:href="#DejaVuSans-36"/>
       <use xlink:href="#DejaVuSans-30" x="63.623047"/>
      </g>
     </g>
    </g>
    <g id="ytick_15">
     <g id="line2d_34">
      <g>
       <use xlink:href="#mfece0e8537" x="41.0325" y="176.637599" style="stroke: #000000; stroke-width: 0.8"/>
      </g>
     </g>
     <g id="text_43">
      <!-- 80 -->
      <g transform="translate(24.3525 179.676974) scale(0.08 -0.08)">
       <use xlink:href="#DejaVuSans-38"/>
       <use xlink:href="#DejaVuSans-30" x="63.623047"/>
      </g>
     </g>
    </g>
    <g id="ytick_16">
     <g id="line2d_35">
      <g>
       <use xlink:href="#mfece0e8537" x="41.0325" y="155.297624" style="stroke: #000000; stroke-width: 0.8"/>
      </g>
     </g>
     <g id="text_44">
      <!-- 100 -->
      <g transform="translate(19.2625 158.336999) scale(0.08 -0.08)">
       <use xlink:href="#DejaVuSans-31"/>
       <use xlink:href="#DejaVuSans-30" x="63.623047"/>
       <use xlink:href="#DejaVuSans-30" x="127.246094"/>
      </g>
     </g>
    </g>
    <g id="text_45">
     <!-- Interés promedio (%) -->
     <g transform="translate(13.59875 250.419063) rotate(-90) scale(0.08 -0.08)">
      <defs>
       <path id="DejaVuSans-49" d="M 628 4666 
L 1259 4666 
L 1259 0 
L 628 0 
L 628 4666 
z
" transform="scale(0.015625)"/>
       <path id="DejaVuSans-25" d="M 4653 2053 
Q 4381 2053 4226 1822 
Q 4072 1591 4072 1178 
Q 4072 772 4226 539 
Q 4381 306 4653 306 
Q 4919 306 5073 539 
Q 5228 772 5228 1178 
Q 5228 1588 5073 1820 
Q 4919 2053 4653 2053 
z
M 4653 2450 
Q 5147 2450 5437 2106 
Q 5728 1763 5728 1178 
Q 5728 594 5436 251 
Q 5144 -91 4653 -91 
Q 4153 -91 3862 251 
Q 3572 594 3572 1178 
Q 3572 1766 3864 2108 
Q 4156 2450 4653 2450 
z
M 1428 4353 
Q 1159 4353 1004 4120 
Q 850 3888 850 3481 
Q 850 3069 1003 2837 
Q 1156 2606 1428 2606 
Q 1700 2606 1854 2837 
Q 2009 3069 2009 3481 
Q 2009 3884 1853 4118 
Q 1697 4353 1428 4353 
z
M 4250 4750 
L 4750 4750 
L 1831 -91 
L 1331 -91 
L 4250 4750 
z
M 1428 4750 
Q 1922 4750 2215 4408 
Q 2509 4066 2509 3481 
Q 2509 2891 2217 2550 
Q 1925 2209 1428 2209 
Q 931 2209 642 2551 
Q 353 2894 353 3481 
Q 353 4063 643 4406 
Q 934 4750 1428 4750 
z
" transform="scale(0.015625)"/>
      </defs>
      <use xlink:href="#DejaVuSans-49"/>
      <use xlink:href="#DejaVuSans-6e" x="29.492188"/>
      <use xlink:href="#DejaVuSans-74" x="92.871094"/>
      <use xlink:href="#DejaVuSans-65" x="132.080078"/>
      <use xlink:href="#DejaVuSans-72" x="193.603516"/>
      <use xlink:href="#DejaVuSans-e9" x="232.466797"/>
      <use xlink:href="#DejaVuSans-73" x="293.990234"/>
      <use xlink:href="#DejaVuSans-20" x="346.089844"/>
      <use xlink:href="#DejaVuSans-70" x="377.876953"/>
      <use xlink:href="#DejaVuSans-72" x="441.353516"/>
      <use xlink:href="#DejaVuSans-6f" x="480.216797"/>
      <use xlink:href="#DejaVuSans-6d" x="541.398438"/>
      <use xlink:href="#DejaVuSans-65" x="638.810547"/>
      <use xlink:href="#DejaVuSans-64" x="700.333984"/>
      <use xlink:href="#DejaVuSans-69" x="763.810547"/>
      <use xlink:href="#DejaVuSans-6f" x="791.59375"/>
      <use xlink:href="#DejaVuSans-20" x="852.775391"/>
      <use xlink:href="#DejaVuSans-28" x="884.5625"/>
      <use xlink:href="#DejaVuSans-25" x="923.576172"/>
      <use xlink:href="#DejaVuSans-29" x="1018.595703"/>
     </g>
    </g>
   </g>
   <g id="patch_76">
    <path d="M 41.0325 261.9975 
L 41.0325 154.230625 
" style="fill: none; stroke: #000000; stroke-width: 0.8; stroke-linejoin: miter; stroke-linecap: square"/>
   </g>
   <g id="patch_77">
    <path d="M 41.0325 261.9975 
L 219.328185 261.9975 
" style="fill: none; stroke: #000000; stroke-width: 0.8; stroke-linejoin: miter; stroke-linecap: square"/>
   </g>
   <g id="text_46">
    <!-- 42.9% -->
    <g transform="translate(59.585258 214.511488) scale(0.08 -0.08)">
     <use xlink:href="#DejaVuSans-34"/>
     <use xlink:href="#DejaVuSans-32" x="63.623047"/>
     <use xlink:href="#DejaVuSans-2e" x="127.246094"/>
     <use xlink:href="#DejaVuSans-39" x="159.033203"/>
     <use xlink:href="#DejaVuSans-25" x="222.65625"/>
    </g>
   </g>
   <g id="text_47">
    <!-- 33.8% -->
    <g transform="translate(117.473467 224.221177) scale(0.08 -0.08)">
     <use xlink:href="#DejaVuSans-33"/>
     <use xlink:href="#DejaVuSans-33" x="63.623047"/>
     <use xlink:href="#DejaVuSans-2e" x="127.246094"/>
     <use xlink:href="#DejaVuSans-38" x="159.033203"/>
     <use xlink:href="#DejaVuSans-25" x="222.65625"/>
    </g>
   </g>
   <g id="text_48">
    <!-- 0.5% -->
    <g transform="translate(177.906677 259.796694) scale(0.08 -0.08)">
     <use xlink:href="#DejaVuSans-30"/>
     <use xlink:href="#DejaVuSans-2e" x="63.623047"/>
     <use xlink:href="#DejaVuSans-35" x="95.410156"/>
     <use xlink:href="#DejaVuSans-25" x="159.033203"/>
    </g>
   </g>
  </g>
  <g id="axes_4">
   <g id="patch_78">
    <path d="M 275.157984 261.9975 
L 453.453669 261.9975 
L 453.453669 154.230625 
L 275.157984 154.230625 
z
" style="fill: #ffffff"/>
   </g>
   <g id="matplotlib.axis_7">
    <g id="xtick_20">
     <g id="line2d_36">
      <g>
       <use xlink:href="#mf2c1b1e7fc" x="275.157984" y="261.9975" style="stroke: #000000; stroke-width: 0.8"/>
      </g>
     </g>
     <g id="text_49">
      <!-- 2015 -->
      <g transform="translate(264.977984 274.57625) scale(0.08 -0.08)">
       <use xlink:href="#DejaVuSans-32"/>
       <use xlink:href="#DejaVuSans-30" x="63.623047"/>
       <use xlink:href="#DejaVuSans-31" x="127.246094"/>
       <use xlink:href="#DejaVuSans-35" x="190.869141"/>
      </g>
     </g>
    </g>
    <g id="xtick_21">
     <g id="line2d_37">
      <g>
       <use xlink:href="#mf2c1b1e7fc" x="310.269554" y="261.9975" style="stroke: #000000; stroke-width: 0.8"/>
      </g>
     </g>
     <g id="text_50">
      <!-- 2017 -->
      <g transform="translate(300.089554 274.57625) scale(0.08 -0.08)">
       <defs>
        <path id="DejaVuSans-37" d="M 525 4666 
L 3525 4666 
L 3525 4397 
L 1831 0 
L 1172 0 
L 2766 4134 
L 525 4134 
L 525 4666 
z
" transform="scale(0.015625)"/>
       </defs>
       <use xlink:href="#DejaVuSans-32"/>
       <use xlink:href="#DejaVuSans-30" x="63.623047"/>
       <use xlink:href="#DejaVuSans-31" x="127.246094"/>
       <use xlink:href="#DejaVuSans-37" x="190.869141"/>
      </g>
     </g>
    </g>
    <g id="xtick_22">
     <g id="line2d_38">
      <g>
       <use xlink:href="#mf2c1b1e7fc" x="345.333091" y="261.9975" style="stroke: #000000; stroke-width: 0.8"/>
      </g>
     </g>
     <g id="text_51">
      <!-- 2019 -->
      <g transform="translate(335.153091 274.57625) scale(0.08 -0.08)">
       <use xlink:href="#DejaVuSans-32"/>
       <use xlink:href="#DejaVuSans-30" x="63.623047"/>
       <use xlink:href="#DejaVuSans-31" x="127.246094"/>
       <use xlink:href="#DejaVuSans-39" x="190.869141"/>
      </g>
     </g>
    </g>
    <g id="xtick_23">
     <g id="line2d_39">
      <g>
       <use xlink:href="#mf2c1b1e7fc" x="380.44466" y="261.9975" style="stroke: #000000; stroke-width: 0.8"/>
      </g>
     </g>
     <g id="text_52">
      <!-- 2021 -->
      <g transform="translate(370.26466 274.57625) scale(0.08 -0.08)">
       <use xlink:href="#DejaVuSans-32"/>
       <use xlink:href="#DejaVuSans-30" x="63.623047"/>
       <use xlink:href="#DejaVuSans-32" x="127.246094"/>
       <use xlink:href="#DejaVuSans-31" x="190.869141"/>
      </g>
     </g>
    </g>
    <g id="xtick_24">
     <g id="line2d_40">
      <g>
       <use xlink:href="#mf2c1b1e7fc" x="415.508197" y="261.9975" style="stroke: #000000; stroke-width: 0.8"/>
      </g>
     </g>
     <g id="text_53">
      <!-- 2023 -->
      <g transform="translate(405.328197 274.57625) scale(0.08 -0.08)">
       <use xlink:href="#DejaVuSans-32"/>
       <use xlink:href="#DejaVuSans-30" x="63.623047"/>
       <use xlink:href="#DejaVuSans-32" x="127.246094"/>
       <use xlink:href="#DejaVuSans-33" x="190.869141"/>
      </g>
     </g>
    </g>
    <g id="xtick_25">
     <g id="line2d_41">
      <g>
       <use xlink:href="#mf2c1b1e7fc" x="450.619767" y="261.9975" style="stroke: #000000; stroke-width: 0.8"/>
      </g>
     </g>
     <g id="text_54">
      <!-- 2025 -->
      <g transform="translate(440.439767 274.57625) scale(0.08 -0.08)">
       <use xlink:href="#DejaVuSans-32"/>
       <use xlink:href="#DejaVuSans-30" x="63.623047"/>
       <use xlink:href="#DejaVuSans-32" x="127.246094"/>
       <use xlink:href="#DejaVuSans-35" x="190.869141"/>
      </g>
     </g>
    </g>
    <g id="text_55">
     <!-- Año -->
     <g transform="translate(356.587077 286.31875) scale(0.08 -0.08)">
      <use xlink:href="#DejaVuSans-41"/>
      <use xlink:href="#DejaVuSans-f1" x="68.408203"/>
      <use xlink:href="#DejaVuSans-6f" x="131.787109"/>
     </g>
    </g>
   </g>
   <g id="matplotlib.axis_8">
    <g id="ytick_17">
     <g id="line2d_42">
      <g>
       <use xlink:href="#mfece0e8537" x="275.157984" y="256.865744" style="stroke: #000000; stroke-width: 0.8"/>
      </g>
     </g>
     <g id="text_56">
      <!-- 0 -->
      <g transform="translate(263.567984 259.905119) scale(0.08 -0.08)">
       <use xlink:href="#DejaVuSans-30"/>
      </g>
     </g>
    </g>
    <g id="ytick_18">
     <g id="line2d_43">
      <g>
       <use xlink:href="#mfece0e8537" x="275.157984" y="236.33872" style="stroke: #000000; stroke-width: 0.8"/>
      </g>
     </g>
     <g id="text_57">
      <!-- 20 -->
      <g transform="translate(258.477984 239.378095) scale(0.08 -0.08)">
       <use xlink:href="#DejaVuSans-32"/>
       <use xlink:href="#DejaVuSans-30" x="63.623047"/>
      </g>
     </g>
    </g>
    <g id="ytick_19">
     <g id="line2d_44">
      <g>
       <use xlink:href="#mfece0e8537" x="275.157984" y="215.811696" style="stroke: #000000; stroke-width: 0.8"/>
      </g>
     </g>
     <g id="text_58">
      <!-- 40 -->
      <g transform="translate(258.477984 218.851071) scale(0.08 -0.08)">
       <use xlink:href="#DejaVuSans-34"/>
       <use xlink:href="#DejaVuSans-30" x="63.623047"/>
      </g>
     </g>
    </g>
    <g id="ytick_20">
     <g id="line2d_45">
      <g>
       <use xlink:href="#mfece0e8537" x="275.157984" y="195.284673" style="stroke: #000000; stroke-width: 0.8"/>
      </g>
     </g>
     <g id="text_59">
      <!-- 60 -->
      <g transform="translate(258.477984 198.324048) scale(0.08 -0.08)">
       <use xlink:href="#DejaVuSans-36"/>
       <use xlink:href="#DejaVuSans-30" x="63.623047"/>
      </g>
     </g>
    </g>
    <g id="ytick_21">
     <g id="line2d_46">
      <g>
       <use xlink:href="#mfece0e8537" x="275.157984" y="174.757649" style="stroke: #000000; stroke-width: 0.8"/>
      </g>
     </g>
     <g id="text_60">
      <!-- 80 -->
      <g transform="translate(258.477984 177.797024) scale(0.08 -0.08)">
       <use xlink:href="#DejaVuSans-38"/>
       <use xlink:href="#DejaVuSans-30" x="63.623047"/>
      </g>
     </g>
    </g>
    <g id="ytick_22">
     <g id="line2d_47">
      <g>
       <use xlink:href="#mfece0e8537" x="275.157984" y="154.230625" style="stroke: #000000; stroke-width: 0.8"/>
      </g>
     </g>
     <g id="text_61">
      <!-- 100 -->
      <g transform="translate(253.387984 157.27) scale(0.08 -0.08)">
       <use xlink:href="#DejaVuSans-31"/>
       <use xlink:href="#DejaVuSans-30" x="63.623047"/>
       <use xlink:href="#DejaVuSans-30" x="127.246094"/>
      </g>
     </g>
    </g>
    <g id="text_62">
     <!-- Interés a lo largo del tiempo (%) -->
     <g transform="translate(247.724234 272.776563) rotate(-90) scale(0.08 -0.08)">
      <use xlink:href="#DejaVuSans-49"/>
      <use xlink:href="#DejaVuSans-6e" x="29.492188"/>
      <use xlink:href="#DejaVuSans-74" x="92.871094"/>
      <use xlink:href="#DejaVuSans-65" x="132.080078"/>
      <use xlink:href="#DejaVuSans-72" x="193.603516"/>
      <use xlink:href="#DejaVuSans-e9" x="232.466797"/>
      <use xlink:href="#DejaVuSans-73" x="293.990234"/>
      <use xlink:href="#DejaVuSans-20" x="346.089844"/>
      <use xlink:href="#DejaVuSans-61" x="377.876953"/>
      <use xlink:href="#DejaVuSans-20" x="439.15625"/>
      <use xlink:href="#DejaVuSans-6c" x="470.943359"/>
      <use xlink:href="#DejaVuSans-6f" x="498.726562"/>
      <use xlink:href="#DejaVuSans-20" x="559.908203"/>
      <use xlink:href="#DejaVuSans-6c" x="591.695312"/>
      <use xlink:href="#DejaVuSans-61" x="619.478516"/>
      <use xlink:href="#DejaVuSans-72" x="680.757812"/>
      <use xlink:href="#DejaVuSans-67" x="720.121094"/>
      <use xlink:href="#DejaVuSans-6f" x="783.597656"/>
      <use xlink:href="#DejaVuSans-20" x="844.779297"/>
      <use xlink:href="#DejaVuSans-64" x="876.566406"/>
      <use xlink:href="#DejaVuSans-65" x="940.042969"/>
      <use xlink:href="#DejaVuSans-6c" x="1001.566406"/>
      <use xlink:href="#DejaVuSans-20" x="1029.349609"/>
      <use xlink:href="#DejaVuSans-74" x="1061.136719"/>
      <use xlink:href="#DejaVuSans-69" x="1100.345703"/>
      <use xlink:href="#DejaVuSans-65" x="1128.128906"/>
      <use xlink:href="#DejaVuSans-6d" x="1189.652344"/>
      <use xlink:href="#DejaVuSans-70" x="1287.064453"/>
      <use xlink:href="#DejaVuSans-6f" x="1350.541016"/>
      <use xlink:href="#DejaVuSans-20" x="1411.722656"/>
      <use xlink:href="#DejaVuSans-28" x="1443.509766"/>
      <use xlink:href="#DejaVuSans-25" x="1482.523438"/>
      <use xlink:href="#DejaVuSans-29" x="1577.542969"/>
     </g>
    </g>
   </g>
   <g id="line2d_48">
    <path d="M 275.157984 256.865744 
L 276.646984 256.865744 
L 277.991887 256.865744 
L 279.480886 256.865744 
L 280.921854 256.865744 
L 282.410853 256.865744 
L 283.85182 256.865744 
L 285.34082 256.865744 
L 286.829819 256.865744 
L 288.270787 256.865744 
L 289.759786 240.444125 
L 291.200753 250.707637 
L 292.689753 250.707637 
L 294.178752 249.681286 
L 295.571688 247.628583 
L 297.060687 246.602232 
L 298.501654 241.470476 
L 299.990654 241.470476 
L 301.431621 242.496827 
L 302.920621 242.496827 
L 304.40962 238.391423 
L 305.850587 234.286018 
L 307.339587 229.154262 
L 308.780554 226.075208 
L 310.269554 224.022506 
L 311.758553 209.653589 
L 313.103456 204.521833 
L 314.592456 202.469131 
L 316.033423 200.416429 
L 317.522422 196.311024 
L 318.96339 199.390077 
L 320.452389 201.44278 
L 321.941389 199.390077 
L 323.382356 194.258321 
L 324.871356 191.179268 
L 326.312323 192.205619 
L 327.801322 192.205619 
L 329.290322 192.205619 
L 330.635225 181.942107 
L 332.124224 183.99481 
L 333.565191 182.968458 
L 335.054191 189.126565 
L 336.495158 190.152917 
L 337.984158 190.152917 
L 339.473157 191.179268 
L 340.914125 186.047512 
L 342.403124 187.073863 
L 343.844091 198.363726 
L 345.333091 196.311024 
L 346.82209 193.23197 
L 348.166993 187.073863 
L 349.655993 188.100214 
L 351.09696 194.258321 
L 352.58596 194.258321 
L 354.026927 191.179268 
L 355.515926 199.390077 
L 357.004926 196.311024 
L 358.445893 193.23197 
L 359.934893 195.284673 
L 361.37586 202.469131 
L 362.864859 204.521833 
L 364.353859 198.363726 
L 365.746794 201.44278 
L 367.235794 200.416429 
L 368.676761 199.390077 
L 370.16576 199.390077 
L 371.606728 196.311024 
L 373.095727 205.548185 
L 374.584727 206.574536 
L 376.025694 214.785345 
L 377.514693 215.811696 
L 378.955661 216.838048 
L 380.44466 219.917101 
L 381.93366 218.89075 
L 383.278563 217.864399 
L 384.767562 217.864399 
L 386.208529 217.864399 
L 387.697529 217.864399 
L 389.138496 219.917101 
L 390.627496 222.996155 
L 392.116495 220.943452 
L 393.557462 219.917101 
L 395.046462 217.864399 
L 396.487429 219.917101 
L 397.976429 210.67994 
L 399.465428 201.44278 
L 400.810331 188.100214 
L 402.299331 191.179268 
L 403.740298 192.205619 
L 405.229297 195.284673 
L 406.670265 205.548185 
L 408.159264 207.600887 
L 409.648264 204.521833 
L 411.089231 204.521833 
L 412.578231 202.469131 
L 414.019198 207.600887 
L 415.508197 207.600887 
L 416.997197 199.390077 
L 418.3421 200.416429 
L 419.831099 201.44278 
L 421.272066 202.469131 
L 422.761066 206.574536 
L 424.202033 209.653589 
L 425.691033 211.706292 
L 427.180032 213.758994 
L 428.621 211.706292 
L 430.109999 208.627238 
L 431.550966 214.785345 
L 433.039966 214.785345 
L 434.528965 210.67994 
L 435.9219 204.521833 
L 437.4109 208.627238 
L 438.851867 207.600887 
L 440.340867 215.811696 
L 441.781834 217.864399 
L 443.270834 220.943452 
L 444.759833 221.969804 
L 446.2008 219.917101 
L 447.6898 218.89075 
L 449.130767 222.996155 
" clip-path="url(#p90db574574)" style="fill: none; stroke: #000000; stroke-width: 2; stroke-linecap: square"/>
   </g>
   <g id="line2d_49">
    <path d="M 275.157984 256.865744 
L 276.646984 256.865744 
L 277.991887 256.865744 
L 279.480886 256.865744 
L 280.921854 256.865744 
L 282.410853 256.865744 
L 283.85182 256.865744 
L 285.34082 256.865744 
L 286.829819 256.865744 
L 288.270787 256.865744 
L 289.759786 256.865744 
L 291.200753 256.865744 
L 292.689753 256.865744 
L 294.178752 256.865744 
L 295.571688 256.865744 
L 297.060687 256.865744 
L 298.501654 256.865744 
L 299.990654 256.865744 
L 301.431621 256.865744 
L 302.920621 256.865744 
L 304.40962 256.865744 
L 305.850587 256.865744 
L 307.339587 256.865744 
L 308.780554 256.865744 
L 310.269554 256.865744 
L 311.758553 256.865744 
L 313.103456 256.865744 
L 314.592456 256.865744 
L 316.033423 256.865744 
L 317.522422 256.865744 
L 318.96339 256.865744 
L 320.452389 256.865744 
L 321.941389 256.865744 
L 323.382356 256.865744 
L 324.871356 254.813042 
L 326.312323 248.654935 
L 327.801322 245.575881 
L 329.290322 244.54953 
L 330.635225 241.470476 
L 332.124224 240.444125 
L 333.565191 238.391423 
L 335.054191 239.417774 
L 336.495158 238.391423 
L 337.984158 237.365071 
L 339.473157 237.365071 
L 340.914125 232.233315 
L 342.403124 230.180613 
L 343.844091 232.233315 
L 345.333091 233.259667 
L 346.82209 230.180613 
L 348.166993 227.10156 
L 349.655993 225.048857 
L 351.09696 228.127911 
L 352.58596 226.075208 
L 354.026927 222.996155 
L 355.515926 224.022506 
L 357.004926 225.048857 
L 358.445893 222.996155 
L 359.934893 217.864399 
L 361.37586 222.996155 
L 362.864859 226.075208 
L 364.353859 218.89075 
L 365.746794 218.89075 
L 367.235794 216.838048 
L 368.676761 215.811696 
L 370.16576 214.785345 
L 371.606728 211.706292 
L 373.095727 214.785345 
L 374.584727 217.864399 
L 376.025694 225.048857 
L 377.514693 220.943452 
L 378.955661 225.048857 
L 380.44466 227.10156 
L 381.93366 226.075208 
L 383.278563 220.943452 
L 384.767562 217.864399 
L 386.208529 219.917101 
L 387.697529 220.943452 
L 389.138496 221.969804 
L 390.627496 224.022506 
L 392.116495 221.969804 
L 393.557462 217.864399 
L 395.046462 213.758994 
L 396.487429 216.838048 
L 397.976429 208.627238 
L 399.465428 198.363726 
L 400.810331 190.152917 
L 402.299331 185.021161 
L 403.740298 194.258321 
L 405.229297 196.311024 
L 406.670265 200.416429 
L 408.159264 203.495482 
L 409.648264 202.469131 
L 411.089231 199.390077 
L 412.578231 198.363726 
L 414.019198 199.390077 
L 415.508197 201.44278 
L 416.997197 189.126565 
L 418.3421 183.99481 
L 419.831099 188.100214 
L 421.272066 192.205619 
L 422.761066 189.126565 
L 424.202033 175.784 
L 425.691033 166.546839 
L 427.180032 172.704946 
L 428.621 164.494137 
L 430.109999 162.441435 
L 431.550966 175.784 
L 433.039966 173.731298 
L 434.528965 165.520488 
L 435.9219 160.388732 
L 437.4109 154.230625 
L 438.851867 164.494137 
L 440.340867 174.757649 
L 441.781834 169.625893 
L 443.270834 177.836702 
L 444.759833 178.863054 
L 446.2008 175.784 
L 447.6898 170.652244 
L 449.130767 177.836702 
" clip-path="url(#p90db574574)" style="fill: none; stroke: #2255a0; stroke-opacity: 0.501961; stroke-width: 2; stroke-linecap: square"/>
   </g>
   <g id="line2d_50">
    <path d="M 275.157984 256.865744 
L 276.646984 256.865744 
L 277.991887 256.865744 
L 279.480886 256.865744 
L 280.921854 256.865744 
L 282.410853 256.865744 
L 283.85182 256.865744 
L 285.34082 256.865744 
L 286.829819 256.865744 
L 288.270787 256.865744 
L 289.759786 256.865744 
L 291.200753 256.865744 
L 292.689753 256.865744 
L 294.178752 256.865744 
L 295.571688 256.865744 
L 297.060687 256.865744 
L 298.501654 256.865744 
L 299.990654 256.865744 
L 301.431621 256.865744 
L 302.920621 256.865744 
L 304.40962 256.865744 
L 305.850587 256.865744 
L 307.339587 256.865744 
L 308.780554 256.865744 
L 310.269554 256.865744 
L 311.758553 256.865744 
L 313.103456 256.865744 
L 314.592456 256.865744 
L 316.033423 256.865744 
L 317.522422 256.865744 
L 318.96339 256.865744 
L 320.452389 256.865744 
L 321.941389 256.865744 
L 323.382356 256.865744 
L 324.871356 256.865744 
L 326.312323 256.865744 
L 327.801322 256.865744 
L 329.290322 256.865744 
L 330.635225 256.865744 
L 332.124224 256.865744 
L 333.565191 256.865744 
L 335.054191 256.865744 
L 336.495158 256.865744 
L 337.984158 256.865744 
L 339.473157 256.865744 
L 340.914125 256.865744 
L 342.403124 256.865744 
L 343.844091 256.865744 
L 345.333091 256.865744 
L 346.82209 256.865744 
L 348.166993 256.865744 
L 349.655993 256.865744 
L 351.09696 256.865744 
L 352.58596 256.865744 
L 354.026927 256.865744 
L 355.515926 256.865744 
L 357.004926 256.865744 
L 358.445893 256.865744 
L 359.934893 256.865744 
L 361.37586 256.865744 
L 362.864859 256.865744 
L 364.353859 256.865744 
L 365.746794 256.865744 
L 367.235794 256.865744 
L 368.676761 256.865744 
L 370.16576 256.865744 
L 371.606728 256.865744 
L 373.095727 256.865744 
L 374.584727 256.865744 
L 376.025694 256.865744 
L 377.514693 256.865744 
L 378.955661 256.865744 
L 380.44466 256.865744 
L 381.93366 256.865744 
L 383.278563 256.865744 
L 384.767562 256.865744 
L 386.208529 256.865744 
L 387.697529 256.865744 
L 389.138496 256.865744 
L 390.627496 256.865744 
L 392.116495 256.865744 
L 393.557462 256.865744 
L 395.046462 256.865744 
L 396.487429 256.865744 
L 397.976429 256.865744 
L 399.465428 256.865744 
L 400.810331 256.865744 
L 402.299331 256.865744 
L 403.740298 256.865744 
L 405.229297 256.865744 
L 406.670265 256.865744 
L 408.159264 256.865744 
L 409.648264 256.865744 
L 411.089231 255.839393 
L 412.578231 255.839393 
L 414.019198 255.839393 
L 415.508197 255.839393 
L 416.997197 255.839393 
L 418.3421 255.839393 
L 419.831099 256.865744 
L 421.272066 256.865744 
L 422.761066 256.865744 
L 424.202033 256.865744 
L 425.691033 256.865744 
L 427.180032 256.865744 
L 428.621 256.865744 
L 430.109999 256.865744 
L 431.550966 255.839393 
L 433.039966 255.839393 
L 434.528965 254.813042 
L 435.9219 251.733988 
L 437.4109 251.733988 
L 438.851867 252.760339 
L 440.340867 251.733988 
L 441.781834 252.760339 
L 443.270834 251.733988 
L 444.759833 251.733988 
L 446.2008 250.707637 
L 447.6898 251.733988 
L 449.130767 252.760339 
" clip-path="url(#p90db574574)" style="fill: none; stroke: #8e8e8e; stroke-width: 2; stroke-linecap: square"/>
   </g>
   <g id="patch_79">
    <path d="M 275.157984 261.9975 
L 275.157984 154.230625 
" style="fill: none; stroke: #000000; stroke-width: 0.8; stroke-linejoin: miter; stroke-linecap: square"/>
   </g>
   <g id="patch_80">
    <path d="M 275.157984 261.9975 
L 453.453669 261.9975 
" style="fill: none; stroke: #000000; stroke-width: 0.8; stroke-linejoin: miter; stroke-linecap: square"/>
   </g>
   <g id="legend_3">
    <g id="line2d_51">
     <path d="M 282.357984 164.709375 
L 290.357984 164.709375 
L 298.357984 164.709375 
" style="fill: none; stroke: #000000; stroke-width: 2; stroke-linecap: square"/>
    </g>
    <g id="text_63">
     <!-- TensorFlow -->
     <g transform="translate(304.757984 167.509375) scale(0.08 -0.08)">
      <use xlink:href="#DejaVuSans-54"/>
      <use xlink:href="#DejaVuSans-65" x="44.083984"/>
      <use xlink:href="#DejaVuSans-6e" x="105.607422"/>
      <use xlink:href="#DejaVuSans-73" x="168.986328"/>
      <use xlink:href="#DejaVuSans-6f" x="221.085938"/>
      <use xlink:href="#DejaVuSans-72" x="282.267578"/>
      <use xlink:href="#DejaVuSans-46" x="323.380859"/>
      <use xlink:href="#DejaVuSans-6c" x="380.900391"/>
      <use xlink:href="#DejaVuSans-6f" x="408.683594"/>
      <use xlink:href="#DejaVuSans-77" x="469.865234"/>
     </g>
    </g>
    <g id="line2d_52">
     <path d="M 282.357984 176.451875 
L 290.357984 176.451875 
L 298.357984 176.451875 
" style="fill: none; stroke: #2255a0; stroke-opacity: 0.501961; stroke-width: 2; stroke-linecap: square"/>
    </g>
    <g id="text_64">
     <!-- PyTorch -->
     <g transform="translate(304.757984 179.251875) scale(0.08 -0.08)">
      <use xlink:href="#DejaVuSans-50"/>
      <use xlink:href="#DejaVuSans-79" x="60.302734"/>
      <use xlink:href="#DejaVuSans-54" x="119.482422"/>
      <use xlink:href="#DejaVuSans-6f" x="163.566406"/>
      <use xlink:href="#DejaVuSans-72" x="224.748047"/>
      <use xlink:href="#DejaVuSans-63" x="263.611328"/>
      <use xlink:href="#DejaVuSans-68" x="318.591797"/>
     </g>
    </g>
    <g id="line2d_53">
     <path d="M 282.357984 188.194375 
L 290.357984 188.194375 
L 298.357984 188.194375 
" style="fill: none; stroke: #8e8e8e; stroke-width: 2; stroke-linecap: square"/>
    </g>
    <g id="text_65">
     <!-- JAX -->
     <g transform="translate(304.757984 190.994375) scale(0.08 -0.08)">
      <use xlink:href="#DejaVuSans-4a"/>
      <use xlink:href="#DejaVuSans-41" x="27.742188"/>
      <use xlink:href="#DejaVuSans-58" x="96.150391"/>
     </g>
    </g>
   </g>
  </g>
 </g>
 <defs>
  <clipPath id="p523d47ff56">
   <rect x="41.0325" y="10.239375" width="178.295685" height="107.766875"/>
  </clipPath>
  <clipPath id="p97795e5b1e">
   <rect x="275.157984" y="10.239375" width="178.295685" height="107.766875"/>
  </clipPath>
  <clipPath id="pad0b8b035b">
   <rect x="41.0325" y="154.230625" width="178.295685" height="107.766875"/>
  </clipPath>
  <clipPath id="p90db574574">
   <rect x="275.157984" y="154.230625" width="178.295685" height="107.766875"/>
  </clipPath>
 </defs>
</svg>
