<?xml version="1.0" encoding="utf-8" standalone="no"?>
<!DOCTYPE svg PUBLIC "-//W3C//DTD SVG 1.1//EN"
  "http://www.w3.org/Graphics/SVG/1.1/DTD/svg11.dtd">
<svg xmlns:xlink="http://www.w3.org/1999/xlink" width="396pt" height="439.2pt" viewBox="0 0 396 439.2" xmlns="http://www.w3.org/2000/svg" version="1.1">
 <metadata>
  <rdf:RDF xmlns:dc="http://purl.org/dc/elements/1.1/" xmlns:cc="http://creativecommons.org/ns#" xmlns:rdf="http://www.w3.org/1999/02/22-rdf-syntax-ns#">
   <cc:Work>
    <dc:type rdf:resource="http://purl.org/dc/dcmitype/StillImage"/>
    <dc:date>2025-10-09T16:51:49.130662</dc:date>
    <dc:format>image/svg+xml</dc:format>
    <dc:creator>
     <cc:Agent>
      <dc:title>Matplotlib v3.8.4, https://matplotlib.org/</dc:title>
     </cc:Agent>
    </dc:creator>
   </cc:Work>
  </rdf:RDF>
 </metadata>
 <defs>
  <style type="text/css">*{stroke-linejoin: round; stroke-linecap: butt}</style>
 </defs>
 <g id="figure_1">
  <g id="patch_1">
   <path d="M 0 439.2 
L 396 439.2 
L 396 0 
L 0 0 
z
" style="fill: #ffffff"/>
  </g>
  <g id="axes_1">
   <g id="patch_2">
    <path d="M 34.240625 77.52875 
L 388.8 77.52875 
L 388.8 7.2 
L 34.240625 7.2 
z
" style="fill: #ffffff"/>
   </g>
   <g id="matplotlib.axis_1">
    <g id="xtick_1">
     <g id="line2d_1">
      <defs>
       <path id="m9cf4002dc6" d="M 0 0 
L 0 3.5 
" style="stroke: #000000; stroke-width: 0.8"/>
      </defs>
      <g>
       <use xlink:href="#m9cf4002dc6" x="50.35696" y="77.52875" style="stroke: #000000; stroke-width: 0.8"/>
      </g>
     </g>
    </g>
    <g id="xtick_2">
     <g id="line2d_2">
      <g>
       <use xlink:href="#m9cf4002dc6" x="211.520312" y="77.52875" style="stroke: #000000; stroke-width: 0.8"/>
      </g>
     </g>
    </g>
    <g id="xtick_3">
     <g id="line2d_3">
      <g>
       <use xlink:href="#m9cf4002dc6" x="372.683665" y="77.52875" style="stroke: #000000; stroke-width: 0.8"/>
      </g>
     </g>
    </g>
   </g>
   <g id="matplotlib.axis_2">
    <g id="ytick_1">
     <g id="line2d_4">
      <defs>
       <path id="m91b4d79678" d="M 0 0 
L -3.5 0 
" style="stroke: #000000; stroke-width: 0.8"/>
      </defs>
      <g>
       <use xlink:href="#m91b4d79678" x="34.240625" y="67.674896" style="stroke: #000000; stroke-width: 0.8"/>
      </g>
     </g>
     <g id="text_1">
      <!-- 0 -->
      <g transform="translate(20.878125 71.474115) scale(0.1 -0.1)">
       <defs>
        <path id="DejaVuSans-30" d="M 2034 4250 
Q 1547 4250 1301 3770 
Q 1056 3291 1056 2328 
Q 1056 1369 1301 889 
Q 1547 409 2034 409 
Q 2525 409 2770 889 
Q 3016 1369 3016 2328 
Q 3016 3291 2770 3770 
Q 2525 4250 2034 4250 
z
M 2034 4750 
Q 2819 4750 3233 4129 
Q 3647 3509 3647 2328 
Q 3647 1150 3233 529 
Q 2819 -91 2034 -91 
Q 1250 -91 836 529 
Q 422 1150 422 2328 
Q 422 3509 836 4129 
Q 1250 4750 2034 4750 
z
" transform="scale(0.015625)"/>
       </defs>
       <use xlink:href="#DejaVuSans-30"/>
      </g>
     </g>
    </g>
    <g id="ytick_2">
     <g id="line2d_5">
      <g>
       <use xlink:href="#m91b4d79678" x="34.240625" y="43.894729" style="stroke: #000000; stroke-width: 0.8"/>
      </g>
     </g>
     <g id="text_2">
      <!-- 1 -->
      <g transform="translate(20.878125 47.693948) scale(0.1 -0.1)">
       <defs>
        <path id="DejaVuSans-31" d="M 794 531 
L 1825 531 
L 1825 4091 
L 703 3866 
L 703 4441 
L 1819 4666 
L 2450 4666 
L 2450 531 
L 3481 531 
L 3481 0 
L 794 0 
L 794 531 
z
" transform="scale(0.015625)"/>
       </defs>
       <use xlink:href="#DejaVuSans-31"/>
      </g>
     </g>
    </g>
    <g id="ytick_3">
     <g id="line2d_6">
      <g>
       <use xlink:href="#m91b4d79678" x="34.240625" y="20.114563" style="stroke: #000000; stroke-width: 0.8"/>
      </g>
     </g>
     <g id="text_3">
      <!-- 2 -->
      <g transform="translate(20.878125 23.913781) scale(0.1 -0.1)">
       <defs>
        <path id="DejaVuSans-32" d="M 1228 531 
L 3431 531 
L 3431 0 
L 469 0 
L 469 531 
Q 828 903 1448 1529 
Q 2069 2156 2228 2338 
Q 2531 2678 2651 2914 
Q 2772 3150 2772 3378 
Q 2772 3750 2511 3984 
Q 2250 4219 1831 4219 
Q 1534 4219 1204 4116 
Q 875 4013 500 3803 
L 500 4441 
Q 881 4594 1212 4672 
Q 1544 4750 1819 4750 
Q 2544 4750 2975 4387 
Q 3406 4025 3406 3419 
Q 3406 3131 3298 2873 
Q 3191 2616 2906 2266 
Q 2828 2175 2409 1742 
Q 1991 1309 1228 531 
z
" transform="scale(0.015625)"/>
       </defs>
       <use xlink:href="#DejaVuSans-32"/>
      </g>
     </g>
    </g>
    <g id="text_4">
     <!-- $f(x)$ -->
     <g transform="translate(14.798438 51.014375) rotate(-90) scale(0.1 -0.1)">
      <defs>
       <path id="DejaVuSans-Oblique-66" d="M 3059 4863 
L 2969 4384 
L 2419 4384 
Q 2106 4384 1964 4261 
Q 1822 4138 1753 3809 
L 1691 3500 
L 2638 3500 
L 2553 3053 
L 1606 3053 
L 1013 0 
L 434 0 
L 1031 3053 
L 481 3053 
L 563 3500 
L 1113 3500 
L 1159 3744 
Q 1278 4363 1576 4613 
Q 1875 4863 2516 4863 
L 3059 4863 
z
" transform="scale(0.015625)"/>
       <path id="DejaVuSans-28" d="M 1984 4856 
Q 1566 4138 1362 3434 
Q 1159 2731 1159 2009 
Q 1159 1288 1364 580 
Q 1569 -128 1984 -844 
L 1484 -844 
Q 1016 -109 783 600 
Q 550 1309 550 2009 
Q 550 2706 781 3412 
Q 1013 4119 1484 4856 
L 1984 4856 
z
" transform="scale(0.015625)"/>
       <path id="DejaVuSans-Oblique-78" d="M 3841 3500 
L 2234 1784 
L 3219 0 
L 2559 0 
L 1819 1388 
L 531 0 
L -166 0 
L 1556 1844 
L 641 3500 
L 1300 3500 
L 1972 2234 
L 3144 3500 
L 3841 3500 
z
" transform="scale(0.015625)"/>
       <path id="DejaVuSans-29" d="M 513 4856 
L 1013 4856 
Q 1481 4119 1714 3412 
Q 1947 2706 1947 2009 
Q 1947 1309 1714 600 
Q 1481 -109 1013 -844 
L 513 -844 
Q 928 -128 1133 580 
Q 1338 1288 1338 2009 
Q 1338 2731 1133 3434 
Q 928 4138 513 4856 
z
" transform="scale(0.015625)"/>
      </defs>
      <use xlink:href="#DejaVuSans-Oblique-66" transform="translate(0 0.015625)"/>
      <use xlink:href="#DejaVuSans-28" transform="translate(35.205078 0.015625)"/>
      <use xlink:href="#DejaVuSans-Oblique-78" transform="translate(74.21875 0.015625)"/>
      <use xlink:href="#DejaVuSans-29" transform="translate(133.398438 0.015625)"/>
     </g>
    </g>
   </g>
   <g id="line2d_7">
    <path d="M 34.240625 42.981299 
L 37.822033 41.03826 
L 41.403441 39.319915 
L 44.984848 37.845123 
L 48.566256 36.629687 
L 52.147664 35.68616 
L 55.729072 35.023683 
L 59.31048 34.647878 
L 62.891888 34.560771 
L 66.473295 34.760772 
L 70.054703 35.24269 
L 73.636111 35.997792 
L 77.217519 37.013919 
L 80.798927 38.275623 
L 84.380335 39.764367 
L 87.961742 41.458743 
L 91.54315 43.334741 
L 95.124558 45.366039 
L 98.705966 47.524331 
L 102.287374 49.779669 
L 105.868782 52.100834 
L 109.450189 54.455719 
L 113.031597 56.811724 
L 116.613005 59.136152 
L 120.194413 61.396618 
L 123.775821 63.561439 
L 127.357229 65.600026 
L 130.938636 67.483263 
L 134.520044 69.183856 
L 138.101452 70.676676 
L 141.68286 71.93906 
L 145.264268 72.951094 
L 148.845676 73.695852 
L 152.427083 74.159605 
L 156.008491 74.331989 
L 159.589899 74.206126 
L 163.171307 73.778712 
L 166.752715 73.050053 
L 170.334122 72.024056 
L 173.91553 70.708185 
L 177.496938 69.113358 
L 181.078346 67.253818 
L 184.659754 65.146948 
L 188.241162 62.813058 
L 191.822569 60.275129 
L 195.403977 57.55853 
L 198.985385 54.690699 
L 202.566793 51.700802 
L 206.148201 48.619373 
L 209.729609 45.477932 
L 213.311016 42.308591 
L 216.892424 39.14366 
L 220.473832 36.015242 
L 224.05524 32.954831 
L 227.636648 29.992928 
L 231.218056 27.158652 
L 234.799463 24.479383 
L 238.380871 21.980419 
L 241.962279 19.684662 
L 245.543687 17.612326 
L 249.125095 15.780691 
L 252.706503 14.203881 
L 256.28791 12.892688 
L 259.869318 11.854432 
L 263.450726 11.092869 
L 267.032134 10.608139 
L 270.613542 10.396761 
L 274.194949 10.451669 
L 277.776357 10.762296 
L 281.357765 11.314697 
L 284.939173 12.091722 
L 288.520581 13.073215 
L 292.101989 14.236262 
L 295.683396 15.555467 
L 299.264804 17.003259 
L 302.846212 18.550229 
L 306.42762 20.165484 
L 310.009028 21.817022 
L 313.590436 23.472124 
L 317.171843 25.097749 
L 320.753251 26.660937 
L 324.334659 28.129205 
L 327.916067 29.470945 
L 331.497475 30.655809 
L 335.078883 31.65507 
L 338.66029 32.441974 
L 342.241698 32.992063 
L 345.823106 33.283465 
L 349.404514 33.297163 
L 352.985922 33.017217 
L 356.56733 32.430953 
L 360.148737 31.529114 
L 363.730145 30.305962 
L 367.311553 28.759347 
L 370.892961 26.890718 
L 374.474369 24.705099 
L 378.055777 22.21102 
L 381.637184 19.420401 
L 385.218592 16.348395 
L 388.8 13.013194 
" clip-path="url(#p22caa9c88d)" style="fill: none; stroke-dasharray: 16.65,7.2; stroke-dashoffset: 0; stroke: #cecece; stroke-width: 4.5"/>
   </g>
   <g id="line2d_8">
    <path d="M 34.240625 54.580005 
L 37.822033 54.577134 
L 41.403441 54.574149 
L 44.984848 54.571037 
L 48.566256 54.567796 
L 52.147664 54.564414 
L 55.729072 54.560883 
L 59.31048 54.557191 
L 62.891888 54.553331 
L 66.473295 54.549288 
L 70.054703 54.545047 
L 73.636111 54.540597 
L 77.217519 54.535921 
L 80.798927 54.531001 
L 84.380335 54.525817 
L 87.961742 54.520347 
L 91.54315 54.514566 
L 95.124558 54.50845 
L 98.705966 54.501965 
L 102.287374 54.49508 
L 105.868782 54.487753 
L 109.450189 54.479945 
L 113.031597 54.471603 
L 116.613005 54.462672 
L 120.194413 54.453087 
L 123.775821 54.442774 
L 127.357229 54.431644 
L 130.938636 54.4196 
L 134.520044 54.406521 
L 138.101452 54.392272 
L 141.68286 54.376684 
L 145.264268 54.359562 
L 148.845676 54.340667 
L 152.427083 54.319708 
L 156.008491 54.29633 
L 159.589899 54.270085 
L 163.171307 54.240416 
L 166.752715 54.206601 
L 170.334122 54.167714 
L 173.91553 54.122517 
L 177.496938 54.069342 
L 181.078346 54.005875 
L 184.659754 53.928818 
L 188.241162 53.833288 
L 191.822569 53.711767 
L 195.403977 53.55202 
L 198.985385 53.332778 
L 202.566793 53.01355 
L 206.148201 52.50704 
L 209.729609 51.586884 
L 213.311016 49.466848 
L 216.892424 42.267105 
L 220.473832 29.715315 
L 224.05524 25.587359 
L 227.636648 24.150112 
L 231.218056 23.448509 
L 234.799463 23.036351 
L 238.380871 22.765916 
L 241.962279 22.575058 
L 245.543687 22.433241 
L 249.125095 22.323752 
L 252.706503 22.236686 
L 256.28791 22.165802 
L 259.869318 22.106979 
L 263.450726 22.057381 
L 267.032134 22.015002 
L 270.613542 21.978369 
L 274.194949 21.946389 
L 277.776357 21.918231 
L 281.357765 21.893245 
L 284.939173 21.87093 
L 288.520581 21.850876 
L 292.101989 21.832753 
L 295.683396 21.8163 
L 299.264804 21.801295 
L 302.846212 21.787552 
L 306.42762 21.774922 
L 310.009028 21.763275 
L 313.590436 21.752498 
L 317.171843 21.7425 
L 320.753251 21.733198 
L 324.334659 21.72452 
L 327.916067 21.716409 
L 331.497475 21.708806 
L 335.078883 21.70167 
L 338.66029 21.694957 
L 342.241698 21.688631 
L 345.823106 21.682658 
L 349.404514 21.677012 
L 352.985922 21.671664 
L 356.56733 21.666592 
L 360.148737 21.661776 
L 363.730145 21.657196 
L 367.311553 21.652837 
L 370.892961 21.648681 
L 374.474369 21.644716 
L 378.055777 21.640928 
L 381.637184 21.637304 
L 385.218592 21.633837 
L 388.8 21.630515 
" clip-path="url(#p22caa9c88d)" style="fill: none; stroke: #2255a0; stroke-opacity: 0.9; stroke-width: 1.5; stroke-linecap: square"/>
   </g>
   <g id="patch_3">
    <path d="M 34.240625 77.52875 
L 34.240625 7.2 
" style="fill: none; stroke: #000000; stroke-width: 0.8; stroke-linejoin: miter; stroke-linecap: square"/>
   </g>
   <g id="patch_4">
    <path d="M 388.8 77.52875 
L 388.8 7.2 
" style="fill: none; stroke: #000000; stroke-width: 0.8; stroke-linejoin: miter; stroke-linecap: square"/>
   </g>
   <g id="patch_5">
    <path d="M 34.240625 77.52875 
L 388.8 77.52875 
" style="fill: none; stroke: #000000; stroke-width: 0.8; stroke-linejoin: miter; stroke-linecap: square"/>
   </g>
   <g id="patch_6">
    <path d="M 34.240625 7.2 
L 388.8 7.2 
" style="fill: none; stroke: #000000; stroke-width: 0.8; stroke-linejoin: miter; stroke-linecap: square"/>
   </g>
   <g id="text_5">
    <!-- 1 neurons -->
    <g style="fill: #2255a0" transform="translate(41.331812 18.961606) scale(0.09 -0.09)">
     <defs>
      <path id="DejaVuSans-20" transform="scale(0.015625)"/>
      <path id="DejaVuSans-6e" d="M 3513 2113 
L 3513 0 
L 2938 0 
L 2938 2094 
Q 2938 2591 2744 2837 
Q 2550 3084 2163 3084 
Q 1697 3084 1428 2787 
Q 1159 2491 1159 1978 
L 1159 0 
L 581 0 
L 581 3500 
L 1159 3500 
L 1159 2956 
Q 1366 3272 1645 3428 
Q 1925 3584 2291 3584 
Q 2894 3584 3203 3211 
Q 3513 2838 3513 2113 
z
" transform="scale(0.015625)"/>
      <path id="DejaVuSans-65" d="M 3597 1894 
L 3597 1613 
L 953 1613 
Q 991 1019 1311 708 
Q 1631 397 2203 397 
Q 2534 397 2845 478 
Q 3156 559 3463 722 
L 3463 178 
Q 3153 47 2828 -22 
Q 2503 -91 2169 -91 
Q 1331 -91 842 396 
Q 353 884 353 1716 
Q 353 2575 817 3079 
Q 1281 3584 2069 3584 
Q 2775 3584 3186 3129 
Q 3597 2675 3597 1894 
z
M 3022 2063 
Q 3016 2534 2758 2815 
Q 2500 3097 2075 3097 
Q 1594 3097 1305 2825 
Q 1016 2553 972 2059 
L 3022 2063 
z
" transform="scale(0.015625)"/>
      <path id="DejaVuSans-75" d="M 544 1381 
L 544 3500 
L 1119 3500 
L 1119 1403 
Q 1119 906 1312 657 
Q 1506 409 1894 409 
Q 2359 409 2629 706 
Q 2900 1003 2900 1516 
L 2900 3500 
L 3475 3500 
L 3475 0 
L 2900 0 
L 2900 538 
Q 2691 219 2414 64 
Q 2138 -91 1772 -91 
Q 1169 -91 856 284 
Q 544 659 544 1381 
z
M 1991 3584 
L 1991 3584 
z
" transform="scale(0.015625)"/>
      <path id="DejaVuSans-72" d="M 2631 2963 
Q 2534 3019 2420 3045 
Q 2306 3072 2169 3072 
Q 1681 3072 1420 2755 
Q 1159 2438 1159 1844 
L 1159 0 
L 581 0 
L 581 3500 
L 1159 3500 
L 1159 2956 
Q 1341 3275 1631 3429 
Q 1922 3584 2338 3584 
Q 2397 3584 2469 3576 
Q 2541 3569 2628 3553 
L 2631 2963 
z
" transform="scale(0.015625)"/>
      <path id="DejaVuSans-6f" d="M 1959 3097 
Q 1497 3097 1228 2736 
Q 959 2375 959 1747 
Q 959 1119 1226 758 
Q 1494 397 1959 397 
Q 2419 397 2687 759 
Q 2956 1122 2956 1747 
Q 2956 2369 2687 2733 
Q 2419 3097 1959 3097 
z
M 1959 3584 
Q 2709 3584 3137 3096 
Q 3566 2609 3566 1747 
Q 3566 888 3137 398 
Q 2709 -91 1959 -91 
Q 1206 -91 779 398 
Q 353 888 353 1747 
Q 353 2609 779 3096 
Q 1206 3584 1959 3584 
z
" transform="scale(0.015625)"/>
      <path id="DejaVuSans-73" d="M 2834 3397 
L 2834 2853 
Q 2591 2978 2328 3040 
Q 2066 3103 1784 3103 
Q 1356 3103 1142 2972 
Q 928 2841 928 2578 
Q 928 2378 1081 2264 
Q 1234 2150 1697 2047 
L 1894 2003 
Q 2506 1872 2764 1633 
Q 3022 1394 3022 966 
Q 3022 478 2636 193 
Q 2250 -91 1575 -91 
Q 1294 -91 989 -36 
Q 684 19 347 128 
L 347 722 
Q 666 556 975 473 
Q 1284 391 1588 391 
Q 1994 391 2212 530 
Q 2431 669 2431 922 
Q 2431 1156 2273 1281 
Q 2116 1406 1581 1522 
L 1381 1569 
Q 847 1681 609 1914 
Q 372 2147 372 2553 
Q 372 3047 722 3315 
Q 1072 3584 1716 3584 
Q 2034 3584 2315 3537 
Q 2597 3491 2834 3397 
z
" transform="scale(0.015625)"/>
     </defs>
     <use xlink:href="#DejaVuSans-31"/>
     <use xlink:href="#DejaVuSans-20" x="63.623047"/>
     <use xlink:href="#DejaVuSans-6e" x="95.410156"/>
     <use xlink:href="#DejaVuSans-65" x="158.789062"/>
     <use xlink:href="#DejaVuSans-75" x="220.3125"/>
     <use xlink:href="#DejaVuSans-72" x="283.691406"/>
     <use xlink:href="#DejaVuSans-6f" x="322.554688"/>
     <use xlink:href="#DejaVuSans-6e" x="383.736328"/>
     <use xlink:href="#DejaVuSans-73" x="447.115234"/>
    </g>
   </g>
  </g>
  <g id="axes_2">
   <g id="patch_7">
    <path d="M 34.240625 158.5575 
L 388.8 158.5575 
L 388.8 88.22875 
L 34.240625 88.22875 
z
" style="fill: #ffffff"/>
   </g>
   <g id="matplotlib.axis_3">
    <g id="xtick_4">
     <g id="line2d_9">
      <g>
       <use xlink:href="#m9cf4002dc6" x="50.35696" y="158.5575" style="stroke: #000000; stroke-width: 0.8"/>
      </g>
     </g>
    </g>
    <g id="xtick_5">
     <g id="line2d_10">
      <g>
       <use xlink:href="#m9cf4002dc6" x="211.520312" y="158.5575" style="stroke: #000000; stroke-width: 0.8"/>
      </g>
     </g>
    </g>
    <g id="xtick_6">
     <g id="line2d_11">
      <g>
       <use xlink:href="#m9cf4002dc6" x="372.683665" y="158.5575" style="stroke: #000000; stroke-width: 0.8"/>
      </g>
     </g>
    </g>
   </g>
   <g id="matplotlib.axis_4">
    <g id="ytick_4">
     <g id="line2d_12">
      <g>
       <use xlink:href="#m91b4d79678" x="34.240625" y="148.703646" style="stroke: #000000; stroke-width: 0.8"/>
      </g>
     </g>
     <g id="text_6">
      <!-- 0 -->
      <g transform="translate(20.878125 152.502865) scale(0.1 -0.1)">
       <use xlink:href="#DejaVuSans-30"/>
      </g>
     </g>
    </g>
    <g id="ytick_5">
     <g id="line2d_13">
      <g>
       <use xlink:href="#m91b4d79678" x="34.240625" y="124.923479" style="stroke: #000000; stroke-width: 0.8"/>
      </g>
     </g>
     <g id="text_7">
      <!-- 1 -->
      <g transform="translate(20.878125 128.722698) scale(0.1 -0.1)">
       <use xlink:href="#DejaVuSans-31"/>
      </g>
     </g>
    </g>
    <g id="ytick_6">
     <g id="line2d_14">
      <g>
       <use xlink:href="#m91b4d79678" x="34.240625" y="101.143313" style="stroke: #000000; stroke-width: 0.8"/>
      </g>
     </g>
     <g id="text_8">
      <!-- 2 -->
      <g transform="translate(20.878125 104.942531) scale(0.1 -0.1)">
       <use xlink:href="#DejaVuSans-32"/>
      </g>
     </g>
    </g>
    <g id="text_9">
     <!-- $f(x)$ -->
     <g transform="translate(14.798438 132.043125) rotate(-90) scale(0.1 -0.1)">
      <use xlink:href="#DejaVuSans-Oblique-66" transform="translate(0 0.015625)"/>
      <use xlink:href="#DejaVuSans-28" transform="translate(35.205078 0.015625)"/>
      <use xlink:href="#DejaVuSans-Oblique-78" transform="translate(74.21875 0.015625)"/>
      <use xlink:href="#DejaVuSans-29" transform="translate(133.398438 0.015625)"/>
     </g>
    </g>
   </g>
   <g id="line2d_15">
    <path d="M 34.240625 124.010049 
L 37.822033 122.06701 
L 41.403441 120.348665 
L 44.984848 118.873873 
L 48.566256 117.658437 
L 52.147664 116.71491 
L 55.729072 116.052433 
L 59.31048 115.676628 
L 62.891888 115.589521 
L 66.473295 115.789522 
L 70.054703 116.27144 
L 73.636111 117.026542 
L 77.217519 118.042669 
L 80.798927 119.304373 
L 84.380335 120.793117 
L 87.961742 122.487493 
L 91.54315 124.363491 
L 95.124558 126.394789 
L 98.705966 128.553081 
L 102.287374 130.808419 
L 105.868782 133.129584 
L 109.450189 135.484469 
L 113.031597 137.840474 
L 116.613005 140.164902 
L 120.194413 142.425368 
L 123.775821 144.590189 
L 127.357229 146.628776 
L 130.938636 148.512013 
L 134.520044 150.212606 
L 138.101452 151.705426 
L 141.68286 152.96781 
L 145.264268 153.979844 
L 148.845676 154.724602 
L 152.427083 155.188355 
L 156.008491 155.360739 
L 159.589899 155.234876 
L 163.171307 154.807462 
L 166.752715 154.078803 
L 170.334122 153.052806 
L 173.91553 151.736935 
L 177.496938 150.142108 
L 181.078346 148.282568 
L 184.659754 146.175698 
L 188.241162 143.841808 
L 191.822569 141.303879 
L 195.403977 138.58728 
L 198.985385 135.719449 
L 202.566793 132.729552 
L 206.148201 129.648123 
L 209.729609 126.506682 
L 213.311016 123.337341 
L 216.892424 120.17241 
L 220.473832 117.043992 
L 224.05524 113.983581 
L 227.636648 111.021678 
L 231.218056 108.187402 
L 234.799463 105.508133 
L 238.380871 103.009169 
L 241.962279 100.713412 
L 245.543687 98.641076 
L 249.125095 96.809441 
L 252.706503 95.232631 
L 256.28791 93.921438 
L 259.869318 92.883182 
L 263.450726 92.121619 
L 267.032134 91.636889 
L 270.613542 91.425511 
L 274.194949 91.480419 
L 277.776357 91.791046 
L 281.357765 92.343447 
L 284.939173 93.120472 
L 288.520581 94.101965 
L 292.101989 95.265012 
L 295.683396 96.584217 
L 299.264804 98.032009 
L 302.846212 99.578979 
L 306.42762 101.194234 
L 310.009028 102.845772 
L 313.590436 104.500874 
L 317.171843 106.126499 
L 320.753251 107.689687 
L 324.334659 109.157955 
L 327.916067 110.499695 
L 331.497475 111.684559 
L 335.078883 112.68382 
L 338.66029 113.470724 
L 342.241698 114.020813 
L 345.823106 114.312215 
L 349.404514 114.325913 
L 352.985922 114.045967 
L 356.56733 113.459703 
L 360.148737 112.557864 
L 363.730145 111.334712 
L 367.311553 109.788097 
L 370.892961 107.919468 
L 374.474369 105.733849 
L 378.055777 103.23977 
L 381.637184 100.449151 
L 385.218592 97.377145 
L 388.8 94.041944 
" clip-path="url(#p2c5317933c)" style="fill: none; stroke-dasharray: 16.65,7.2; stroke-dashoffset: 0; stroke: #cecece; stroke-width: 4.5"/>
   </g>
   <g id="line2d_16">
    <path d="M 34.240625 135.608755 
L 37.822033 135.605884 
L 41.403441 135.602899 
L 44.984848 135.599787 
L 48.566256 135.596546 
L 52.147664 135.593164 
L 55.729072 135.589633 
L 59.31048 135.585941 
L 62.891888 135.582081 
L 66.473295 135.578038 
L 70.054703 135.573797 
L 73.636111 135.569347 
L 77.217519 135.564671 
L 80.798927 135.559751 
L 84.380335 135.554567 
L 87.961742 135.549097 
L 91.54315 135.543316 
L 95.124558 135.5372 
L 98.705966 135.530715 
L 102.287374 135.52383 
L 105.868782 135.516503 
L 109.450189 135.508695 
L 113.031597 135.500353 
L 116.613005 135.491422 
L 120.194413 135.481837 
L 123.775821 135.471524 
L 127.357229 135.460394 
L 130.938636 135.44835 
L 134.520044 135.435271 
L 138.101452 135.421022 
L 141.68286 135.405434 
L 145.264268 135.388312 
L 148.845676 135.369417 
L 152.427083 135.348458 
L 156.008491 135.32508 
L 159.589899 135.298835 
L 163.171307 135.269166 
L 166.752715 135.235351 
L 170.334122 135.196464 
L 173.91553 135.151267 
L 177.496938 135.098092 
L 181.078346 135.034625 
L 184.659754 134.957568 
L 188.241162 134.862038 
L 191.822569 134.740517 
L 195.403977 134.58077 
L 198.985385 134.361528 
L 202.566793 134.0423 
L 206.148201 133.53579 
L 209.729609 132.615634 
L 213.311016 130.495598 
L 216.892424 123.295855 
L 220.473832 110.744065 
L 224.05524 106.616109 
L 227.636648 105.178862 
L 231.218056 104.477259 
L 234.799463 104.065101 
L 238.380871 103.794666 
L 241.962279 103.603808 
L 245.543687 103.461991 
L 249.125095 103.352502 
L 252.706503 103.265436 
L 256.28791 103.194552 
L 259.869318 103.135729 
L 263.450726 103.086131 
L 267.032134 103.043752 
L 270.613542 103.007119 
L 274.194949 102.975139 
L 277.776357 102.946981 
L 281.357765 102.921995 
L 284.939173 102.89968 
L 288.520581 102.879626 
L 292.101989 102.861503 
L 295.683396 102.84505 
L 299.264804 102.830045 
L 302.846212 102.816302 
L 306.42762 102.803672 
L 310.009028 102.792025 
L 313.590436 102.781248 
L 317.171843 102.77125 
L 320.753251 102.761948 
L 324.334659 102.75327 
L 327.916067 102.745159 
L 331.497475 102.737556 
L 335.078883 102.73042 
L 338.66029 102.723707 
L 342.241698 102.717381 
L 345.823106 102.711408 
L 349.404514 102.705762 
L 352.985922 102.700414 
L 356.56733 102.695342 
L 360.148737 102.690526 
L 363.730145 102.685946 
L 367.311553 102.681587 
L 370.892961 102.677431 
L 374.474369 102.673466 
L 378.055777 102.669678 
L 381.637184 102.666054 
L 385.218592 102.662587 
L 388.8 102.659265 
" clip-path="url(#p2c5317933c)" style="fill: none; stroke: #2255a0; stroke-opacity: 0.4; stroke-linecap: square"/>
   </g>
   <g id="line2d_17">
    <path d="M 34.240625 112.526396 
L 37.822033 113.282588 
L 41.403441 114.064996 
L 44.984848 114.874984 
L 48.566256 115.713635 
L 52.147664 116.582041 
L 55.729072 117.481745 
L 59.31048 118.413742 
L 62.891888 119.379212 
L 66.473295 120.379788 
L 70.054703 121.416199 
L 73.636111 122.490071 
L 77.217519 123.602317 
L 80.798927 124.754117 
L 84.380335 125.94619 
L 87.961742 127.179721 
L 91.54315 128.454708 
L 95.124558 129.771787 
L 98.705966 131.130231 
L 102.287374 132.529769 
L 105.868782 133.969039 
L 109.450189 135.445593 
L 113.031597 136.956619 
L 116.613005 138.497534 
L 120.194413 140.06267 
L 123.775821 141.644317 
L 127.357229 143.232948 
L 130.938636 144.816228 
L 134.520044 146.379187 
L 138.101452 147.903275 
L 141.68286 149.366222 
L 145.264268 150.741856 
L 148.845676 151.999154 
L 152.427083 153.102737 
L 156.008491 154.013008 
L 159.589899 154.686334 
L 163.171307 155.07645 
L 166.752715 155.136231 
L 170.334122 154.819729 
L 173.91553 154.085942 
L 177.496938 152.902191 
L 181.078346 151.248268 
L 184.659754 149.120466 
L 188.241162 146.534773 
L 191.822569 143.528529 
L 195.403977 140.160237 
L 198.985385 136.507019 
L 202.566793 132.659935 
L 206.148201 128.717671 
L 209.729609 124.779426 
L 213.311016 120.938204 
L 216.892424 117.275188 
L 220.473832 113.855833 
L 224.05524 110.728192 
L 227.636648 107.922743 
L 231.218056 105.454229 
L 234.799463 103.323445 
L 238.380871 101.52082 
L 241.962279 100.028617 
L 245.543687 98.823978 
L 249.125095 97.881097 
L 252.706503 97.1728 
L 256.28791 96.672194 
L 259.869318 96.353378 
L 263.450726 96.191909 
L 267.032134 96.165648 
L 270.613542 96.25432 
L 274.194949 96.44019 
L 277.776357 96.707211 
L 281.357765 97.041581 
L 284.939173 97.4312 
L 288.520581 97.865538 
L 292.101989 98.335983 
L 295.683396 98.834365 
L 299.264804 99.354431 
L 302.846212 99.890459 
L 306.42762 100.43801 
L 310.009028 100.992727 
L 313.590436 101.551618 
L 317.171843 102.111867 
L 320.753251 102.670939 
L 324.334659 103.227016 
L 327.916067 103.778467 
L 331.497475 104.324112 
L 335.078883 104.862864 
L 338.66029 105.393815 
L 342.241698 105.916418 
L 345.823106 106.430133 
L 349.404514 106.934321 
L 352.985922 107.429167 
L 356.56733 107.914216 
L 360.148737 108.389196 
L 363.730145 108.854376 
L 367.311553 109.309581 
L 370.892961 109.754896 
L 374.474369 110.190506 
L 378.055777 110.616318 
L 381.637184 111.032787 
L 385.218592 111.439549 
L 388.8 111.837239 
" clip-path="url(#p2c5317933c)" style="fill: none; stroke: #2255a0; stroke-opacity: 0.9; stroke-width: 1.5; stroke-linecap: square"/>
   </g>
   <g id="patch_8">
    <path d="M 34.240625 158.5575 
L 34.240625 88.22875 
" style="fill: none; stroke: #000000; stroke-width: 0.8; stroke-linejoin: miter; stroke-linecap: square"/>
   </g>
   <g id="patch_9">
    <path d="M 388.8 158.5575 
L 388.8 88.22875 
" style="fill: none; stroke: #000000; stroke-width: 0.8; stroke-linejoin: miter; stroke-linecap: square"/>
   </g>
   <g id="patch_10">
    <path d="M 34.240625 158.5575 
L 388.8 158.5575 
" style="fill: none; stroke: #000000; stroke-width: 0.8; stroke-linejoin: miter; stroke-linecap: square"/>
   </g>
   <g id="patch_11">
    <path d="M 34.240625 88.22875 
L 388.8 88.22875 
" style="fill: none; stroke: #000000; stroke-width: 0.8; stroke-linejoin: miter; stroke-linecap: square"/>
   </g>
   <g id="text_10">
    <!-- 2 neurons -->
    <g style="fill: #2255a0" transform="translate(41.331812 99.990356) scale(0.09 -0.09)">
     <use xlink:href="#DejaVuSans-32"/>
     <use xlink:href="#DejaVuSans-20" x="63.623047"/>
     <use xlink:href="#DejaVuSans-6e" x="95.410156"/>
     <use xlink:href="#DejaVuSans-65" x="158.789062"/>
     <use xlink:href="#DejaVuSans-75" x="220.3125"/>
     <use xlink:href="#DejaVuSans-72" x="283.691406"/>
     <use xlink:href="#DejaVuSans-6f" x="322.554688"/>
     <use xlink:href="#DejaVuSans-6e" x="383.736328"/>
     <use xlink:href="#DejaVuSans-73" x="447.115234"/>
    </g>
   </g>
  </g>
  <g id="axes_3">
   <g id="patch_12">
    <path d="M 34.240625 239.58625 
L 388.8 239.58625 
L 388.8 169.2575 
L 34.240625 169.2575 
z
" style="fill: #ffffff"/>
   </g>
   <g id="matplotlib.axis_5">
    <g id="xtick_7">
     <g id="line2d_18">
      <g>
       <use xlink:href="#m9cf4002dc6" x="50.35696" y="239.58625" style="stroke: #000000; stroke-width: 0.8"/>
      </g>
     </g>
    </g>
    <g id="xtick_8">
     <g id="line2d_19">
      <g>
       <use xlink:href="#m9cf4002dc6" x="211.520312" y="239.58625" style="stroke: #000000; stroke-width: 0.8"/>
      </g>
     </g>
    </g>
    <g id="xtick_9">
     <g id="line2d_20">
      <g>
       <use xlink:href="#m9cf4002dc6" x="372.683665" y="239.58625" style="stroke: #000000; stroke-width: 0.8"/>
      </g>
     </g>
    </g>
   </g>
   <g id="matplotlib.axis_6">
    <g id="ytick_7">
     <g id="line2d_21">
      <g>
       <use xlink:href="#m91b4d79678" x="34.240625" y="228.575427" style="stroke: #000000; stroke-width: 0.8"/>
      </g>
     </g>
     <g id="text_11">
      <!-- 0 -->
      <g transform="translate(20.878125 232.374646) scale(0.1 -0.1)">
       <use xlink:href="#DejaVuSans-30"/>
      </g>
     </g>
    </g>
    <g id="ytick_8">
     <g id="line2d_22">
      <g>
       <use xlink:href="#m91b4d79678" x="34.240625" y="205.275599" style="stroke: #000000; stroke-width: 0.8"/>
      </g>
     </g>
     <g id="text_12">
      <!-- 1 -->
      <g transform="translate(20.878125 209.074818) scale(0.1 -0.1)">
       <use xlink:href="#DejaVuSans-31"/>
      </g>
     </g>
    </g>
    <g id="ytick_9">
     <g id="line2d_23">
      <g>
       <use xlink:href="#m91b4d79678" x="34.240625" y="181.975771" style="stroke: #000000; stroke-width: 0.8"/>
      </g>
     </g>
     <g id="text_13">
      <!-- 2 -->
      <g transform="translate(20.878125 185.77499) scale(0.1 -0.1)">
       <use xlink:href="#DejaVuSans-32"/>
      </g>
     </g>
    </g>
    <g id="text_14">
     <!-- $f(x)$ -->
     <g transform="translate(14.798438 213.071875) rotate(-90) scale(0.1 -0.1)">
      <use xlink:href="#DejaVuSans-Oblique-66" transform="translate(0 0.015625)"/>
      <use xlink:href="#DejaVuSans-28" transform="translate(35.205078 0.015625)"/>
      <use xlink:href="#DejaVuSans-Oblique-78" transform="translate(74.21875 0.015625)"/>
      <use xlink:href="#DejaVuSans-29" transform="translate(133.398438 0.015625)"/>
     </g>
    </g>
   </g>
   <g id="line2d_24">
    <path d="M 34.240625 204.38062 
L 37.822033 202.476828 
L 41.403441 200.793192 
L 44.984848 199.34819 
L 48.566256 198.157305 
L 52.147664 197.232836 
L 55.729072 196.583741 
L 59.31048 196.215526 
L 62.891888 196.130179 
L 66.473295 196.32614 
L 70.054703 196.798323 
L 73.636111 197.538174 
L 77.217519 198.533775 
L 80.798927 199.769994 
L 84.380335 201.228666 
L 87.961742 202.888818 
L 91.54315 204.726922 
L 95.124558 206.71719 
L 98.705966 208.831886 
L 102.287374 211.041668 
L 105.868782 213.315947 
L 109.450189 215.623266 
L 113.031597 217.931681 
L 116.613005 220.209159 
L 120.194413 222.423965 
L 123.775821 224.545058 
L 127.357229 226.542468 
L 130.938636 228.387665 
L 134.520044 230.053908 
L 138.101452 231.516574 
L 141.68286 232.753459 
L 145.264268 233.745051 
L 148.845676 234.474765 
L 152.427083 234.929151 
L 156.008491 235.098052 
L 159.589899 234.974732 
L 163.171307 234.555951 
L 166.752715 233.84201 
L 170.334122 232.836738 
L 173.91553 231.547446 
L 177.496938 229.984834 
L 181.078346 228.162855 
L 184.659754 226.098542 
L 188.241162 223.811794 
L 191.822569 221.325129 
L 195.403977 218.663403 
L 198.985385 215.8535 
L 202.566793 212.923996 
L 206.148201 209.90481 
L 209.729609 206.826822 
L 213.311016 203.721499 
L 216.892424 200.620497 
L 220.473832 197.55527 
L 224.05524 194.556678 
L 227.636648 191.654602 
L 231.218056 188.877576 
L 234.799463 186.252426 
L 238.380871 183.80394 
L 241.962279 181.554554 
L 245.543687 179.524078 
L 249.125095 177.72944 
L 252.706503 176.184481 
L 256.28791 174.899772 
L 259.869318 173.882488 
L 263.450726 173.136308 
L 267.032134 172.66137 
L 270.613542 172.454261 
L 274.194949 172.50806 
L 277.776357 172.812412 
L 281.357765 173.353656 
L 284.939173 174.114985 
L 288.520581 175.076653 
L 292.101989 176.216207 
L 295.683396 177.508766 
L 299.264804 178.927314 
L 302.846212 180.443036 
L 306.42762 182.025664 
L 310.009028 183.643842 
L 313.590436 185.265513 
L 317.171843 186.858302 
L 320.753251 188.389914 
L 324.334659 189.828524 
L 327.916067 191.143163 
L 331.497475 192.304094 
L 335.078883 193.283171 
L 338.66029 194.05418 
L 342.241698 194.593157 
L 345.823106 194.878673 
L 349.404514 194.892095 
L 352.985922 194.617803 
L 356.56733 194.043381 
L 360.148737 193.159758 
L 363.730145 191.961314 
L 367.311553 190.445939 
L 370.892961 188.615054 
L 374.474369 186.473583 
L 378.055777 184.029882 
L 381.637184 181.295631 
L 385.218592 178.285677 
L 388.8 175.017844 
" clip-path="url(#p32cd1c470d)" style="fill: none; stroke-dasharray: 16.65,7.2; stroke-dashoffset: 0; stroke: #cecece; stroke-width: 4.5"/>
   </g>
   <g id="line2d_25">
    <path d="M 34.240625 215.745042 
L 37.822033 215.742229 
L 41.403441 215.739304 
L 44.984848 215.736255 
L 48.566256 215.733079 
L 52.147664 215.729766 
L 55.729072 215.726306 
L 59.31048 215.722688 
L 62.891888 215.718906 
L 66.473295 215.714945 
L 70.054703 215.710789 
L 73.636111 215.70643 
L 77.217519 215.701848 
L 80.798927 215.697027 
L 84.380335 215.691948 
L 87.961742 215.686589 
L 91.54315 215.680925 
L 95.124558 215.674932 
L 98.705966 215.668578 
L 102.287374 215.661832 
L 105.868782 215.654653 
L 109.450189 215.647002 
L 113.031597 215.63883 
L 116.613005 215.630079 
L 120.194413 215.620688 
L 123.775821 215.610583 
L 127.357229 215.599677 
L 130.938636 215.587877 
L 134.520044 215.575062 
L 138.101452 215.561101 
L 141.68286 215.545828 
L 145.264268 215.529051 
L 148.845676 215.510538 
L 152.427083 215.490003 
L 156.008491 215.467096 
L 159.589899 215.441382 
L 163.171307 215.412312 
L 166.752715 215.37918 
L 170.334122 215.341078 
L 173.91553 215.296794 
L 177.496938 215.244694 
L 181.078346 215.182509 
L 184.659754 215.107008 
L 188.241162 215.013408 
L 191.822569 214.894341 
L 195.403977 214.737821 
L 198.985385 214.523007 
L 202.566793 214.210228 
L 206.148201 213.713949 
L 209.729609 212.812379 
L 213.311016 210.735166 
L 216.892424 203.680852 
L 220.473832 191.382597 
L 224.05524 187.338022 
L 227.636648 185.929806 
L 231.218056 185.242375 
L 234.799463 184.838542 
L 238.380871 184.573569 
L 241.962279 184.386567 
L 245.543687 184.247614 
L 249.125095 184.140337 
L 252.706503 184.055029 
L 256.28791 183.985577 
L 259.869318 183.927943 
L 263.450726 183.879346 
L 267.032134 183.837824 
L 270.613542 183.80193 
L 274.194949 183.770597 
L 277.776357 183.743007 
L 281.357765 183.718526 
L 284.939173 183.696662 
L 288.520581 183.677013 
L 292.101989 183.659256 
L 295.683396 183.643135 
L 299.264804 183.628433 
L 302.846212 183.614968 
L 306.42762 183.602593 
L 310.009028 183.591181 
L 313.590436 183.580622 
L 317.171843 183.570826 
L 320.753251 183.561711 
L 324.334659 183.553209 
L 327.916067 183.545262 
L 331.497475 183.537813 
L 335.078883 183.530821 
L 338.66029 183.524243 
L 342.241698 183.518045 
L 345.823106 183.512192 
L 349.404514 183.506661 
L 352.985922 183.501421 
L 356.56733 183.496451 
L 360.148737 183.491733 
L 363.730145 183.487245 
L 367.311553 183.482974 
L 370.892961 183.478902 
L 374.474369 183.475017 
L 378.055777 183.471306 
L 381.637184 183.467755 
L 385.218592 183.464358 
L 388.8 183.461103 
" clip-path="url(#p32cd1c470d)" style="fill: none; stroke: #2255a0; stroke-opacity: 0.4; stroke-linecap: square"/>
   </g>
   <g id="line2d_26">
    <path d="M 34.240625 193.128926 
L 37.822033 193.869844 
L 41.403441 194.636448 
L 44.984848 195.430075 
L 48.566256 196.251786 
L 52.147664 197.102651 
L 55.729072 197.984181 
L 59.31048 198.897353 
L 62.891888 199.843321 
L 66.473295 200.823687 
L 70.054703 201.839163 
L 73.636111 202.891344 
L 77.217519 203.981124 
L 80.798927 205.109658 
L 84.380335 206.277652 
L 87.961742 207.486267 
L 91.54315 208.7355 
L 95.124558 210.025975 
L 98.705966 211.35698 
L 102.287374 212.728248 
L 105.868782 214.138447 
L 109.450189 215.585176 
L 113.031597 217.06568 
L 116.613005 218.57547 
L 120.194413 220.108992 
L 123.775821 221.658691 
L 127.357229 223.215233 
L 130.938636 224.766531 
L 134.520044 226.29792 
L 138.101452 227.791223 
L 141.68286 229.224619 
L 145.264268 230.572467 
L 148.845676 231.804369 
L 152.427083 232.88566 
L 156.008491 233.777545 
L 159.589899 234.43727 
L 163.171307 234.819506 
L 166.752715 234.878079 
L 170.334122 234.56797 
L 173.91553 233.849006 
L 177.496938 232.689165 
L 181.078346 231.06865 
L 184.659754 228.983828 
L 188.241162 226.450363 
L 191.822569 223.504843 
L 195.403977 220.204587 
L 198.985385 216.625162 
L 202.566793 212.855786 
L 206.148201 208.993152 
L 209.729609 205.134456 
L 213.311016 201.370823 
L 216.892424 197.781797 
L 220.473832 194.43151 
L 224.05524 191.367044 
L 227.636648 188.618263 
L 231.218056 186.199611 
L 234.799463 184.111867 
L 238.380871 182.345654 
L 241.962279 180.883592 
L 245.543687 179.703286 
L 249.125095 178.77945 
L 252.706503 178.08546 
L 256.28791 177.594966 
L 259.869318 177.28259 
L 263.450726 177.124381 
L 267.032134 177.098651 
L 270.613542 177.185532 
L 274.194949 177.367648 
L 277.776357 177.629275 
L 281.357765 177.956891 
L 284.939173 178.33864 
L 288.520581 178.764205 
L 292.101989 179.225148 
L 295.683396 179.713463 
L 299.264804 180.223023 
L 302.846212 180.748225 
L 306.42762 181.284715 
L 310.009028 181.828228 
L 313.590436 182.375829 
L 317.171843 182.924762 
L 320.753251 183.472541 
L 324.334659 184.017386 
L 327.916067 184.557698 
L 331.497475 185.092321 
L 335.078883 185.620191 
L 338.66029 186.140418 
L 342.241698 186.652464 
L 345.823106 187.155803 
L 349.404514 187.649806 
L 352.985922 188.134657 
L 356.56733 188.609908 
L 360.148737 189.075294 
L 363.730145 189.531078 
L 367.311553 189.977088 
L 370.892961 190.413408 
L 374.474369 190.840219 
L 378.055777 191.25743 
L 381.637184 191.665487 
L 385.218592 192.064033 
L 388.8 192.45369 
" clip-path="url(#p32cd1c470d)" style="fill: none; stroke: #2255a0; stroke-opacity: 0.4; stroke-linecap: square"/>
   </g>
   <g id="line2d_27">
    <path d="M 34.240625 193.71843 
L 37.822033 194.351314 
L 41.403441 195.010417 
L 44.984848 195.697385 
L 48.566256 196.413549 
L 52.147664 197.160866 
L 55.729072 197.94076 
L 59.31048 198.75545 
L 62.891888 199.60676 
L 66.473295 200.496956 
L 70.054703 201.428082 
L 73.636111 202.402404 
L 77.217519 203.422545 
L 80.798927 204.490681 
L 84.380335 205.609481 
L 87.961742 206.781298 
L 91.54315 208.008755 
L 95.124558 209.293898 
L 98.705966 210.638946 
L 102.287374 212.045589 
L 105.868782 213.514849 
L 109.450189 215.046993 
L 113.031597 216.641222 
L 116.613005 218.295045 
L 120.194413 220.004109 
L 123.775821 221.761257 
L 127.357229 223.555514 
L 130.938636 225.371591 
L 134.520044 227.188202 
L 138.101452 228.977036 
L 141.68286 230.701121 
L 145.264268 232.314014 
L 148.845676 233.758254 
L 152.427083 234.966136 
L 156.008491 235.860975 
L 159.589899 236.36158 
L 163.171307 236.389489 
L 166.752715 235.879752 
L 170.334122 234.794238 
L 173.91553 233.135571 
L 177.496938 230.956756 
L 181.078346 228.362705 
L 184.659754 225.499189 
L 188.241162 222.530454 
L 191.822569 219.609757 
L 195.403977 216.851005 
L 198.985385 214.308564 
L 202.566793 211.969284 
L 206.148201 209.755772 
L 209.729609 207.539104 
L 213.311016 205.159428 
L 216.892424 202.457354 
L 220.473832 199.320871 
L 224.05524 195.746801 
L 227.636648 191.88711 
L 231.218056 188.031285 
L 234.799463 184.502235 
L 238.380871 181.534519 
L 241.962279 179.221014 
L 245.543687 177.539149 
L 249.125095 176.404706 
L 252.706503 175.715294 
L 256.28791 175.374564 
L 259.869318 175.300571 
L 263.450726 175.427583 
L 267.032134 175.704318 
L 270.613542 176.090864 
L 274.194949 176.556961 
L 277.776357 177.079452 
L 281.357765 177.640696 
L 284.939173 178.227181 
L 288.520581 178.828556 
L 292.101989 179.437129 
L 295.683396 180.046949 
L 299.264804 180.653611 
L 302.846212 181.253474 
L 306.42762 181.844272 
L 310.009028 182.424221 
L 313.590436 182.991865 
L 317.171843 183.54631 
L 320.753251 184.087155 
L 324.334659 184.613869 
L 327.916067 185.126362 
L 331.497475 185.624767 
L 335.078883 186.108816 
L 338.66029 186.57909 
L 342.241698 187.035853 
L 345.823106 187.479107 
L 349.404514 187.909205 
L 352.985922 188.326773 
L 356.56733 188.732074 
L 360.148737 189.125463 
L 363.730145 189.507389 
L 367.311553 189.878027 
L 370.892961 190.237909 
L 374.474369 190.587392 
L 378.055777 190.926831 
L 381.637184 191.256582 
L 385.218592 191.57709 
L 388.8 191.88862 
" clip-path="url(#p32cd1c470d)" style="fill: none; stroke: #2255a0; stroke-opacity: 0.9; stroke-width: 1.5; stroke-linecap: square"/>
   </g>
   <g id="patch_13">
    <path d="M 34.240625 239.58625 
L 34.240625 169.2575 
" style="fill: none; stroke: #000000; stroke-width: 0.8; stroke-linejoin: miter; stroke-linecap: square"/>
   </g>
   <g id="patch_14">
    <path d="M 388.8 239.58625 
L 388.8 169.2575 
" style="fill: none; stroke: #000000; stroke-width: 0.8; stroke-linejoin: miter; stroke-linecap: square"/>
   </g>
   <g id="patch_15">
    <path d="M 34.240625 239.58625 
L 388.8 239.58625 
" style="fill: none; stroke: #000000; stroke-width: 0.8; stroke-linejoin: miter; stroke-linecap: square"/>
   </g>
   <g id="patch_16">
    <path d="M 34.240625 169.2575 
L 388.8 169.2575 
" style="fill: none; stroke: #000000; stroke-width: 0.8; stroke-linejoin: miter; stroke-linecap: square"/>
   </g>
   <g id="text_15">
    <!-- 3 neurons -->
    <g style="fill: #2255a0" transform="translate(41.331812 181.019106) scale(0.09 -0.09)">
     <defs>
      <path id="DejaVuSans-33" d="M 2597 2516 
Q 3050 2419 3304 2112 
Q 3559 1806 3559 1356 
Q 3559 666 3084 287 
Q 2609 -91 1734 -91 
Q 1441 -91 1130 -33 
Q 819 25 488 141 
L 488 750 
Q 750 597 1062 519 
Q 1375 441 1716 441 
Q 2309 441 2620 675 
Q 2931 909 2931 1356 
Q 2931 1769 2642 2001 
Q 2353 2234 1838 2234 
L 1294 2234 
L 1294 2753 
L 1863 2753 
Q 2328 2753 2575 2939 
Q 2822 3125 2822 3475 
Q 2822 3834 2567 4026 
Q 2313 4219 1838 4219 
Q 1578 4219 1281 4162 
Q 984 4106 628 3988 
L 628 4550 
Q 988 4650 1302 4700 
Q 1616 4750 1894 4750 
Q 2613 4750 3031 4423 
Q 3450 4097 3450 3541 
Q 3450 3153 3228 2886 
Q 3006 2619 2597 2516 
z
" transform="scale(0.015625)"/>
     </defs>
     <use xlink:href="#DejaVuSans-33"/>
     <use xlink:href="#DejaVuSans-20" x="63.623047"/>
     <use xlink:href="#DejaVuSans-6e" x="95.410156"/>
     <use xlink:href="#DejaVuSans-65" x="158.789062"/>
     <use xlink:href="#DejaVuSans-75" x="220.3125"/>
     <use xlink:href="#DejaVuSans-72" x="283.691406"/>
     <use xlink:href="#DejaVuSans-6f" x="322.554688"/>
     <use xlink:href="#DejaVuSans-6e" x="383.736328"/>
     <use xlink:href="#DejaVuSans-73" x="447.115234"/>
    </g>
   </g>
  </g>
  <g id="axes_4">
   <g id="patch_17">
    <path d="M 34.240625 320.615 
L 388.8 320.615 
L 388.8 250.28625 
L 34.240625 250.28625 
z
" style="fill: #ffffff"/>
   </g>
   <g id="matplotlib.axis_7">
    <g id="xtick_10">
     <g id="line2d_28">
      <g>
       <use xlink:href="#m9cf4002dc6" x="50.35696" y="320.615" style="stroke: #000000; stroke-width: 0.8"/>
      </g>
     </g>
    </g>
    <g id="xtick_11">
     <g id="line2d_29">
      <g>
       <use xlink:href="#m9cf4002dc6" x="211.520312" y="320.615" style="stroke: #000000; stroke-width: 0.8"/>
      </g>
     </g>
    </g>
    <g id="xtick_12">
     <g id="line2d_30">
      <g>
       <use xlink:href="#m9cf4002dc6" x="372.683665" y="320.615" style="stroke: #000000; stroke-width: 0.8"/>
      </g>
     </g>
    </g>
   </g>
   <g id="matplotlib.axis_8">
    <g id="ytick_10">
     <g id="line2d_31">
      <g>
       <use xlink:href="#m91b4d79678" x="34.240625" y="309.604177" style="stroke: #000000; stroke-width: 0.8"/>
      </g>
     </g>
     <g id="text_16">
      <!-- 0 -->
      <g transform="translate(20.878125 313.403396) scale(0.1 -0.1)">
       <use xlink:href="#DejaVuSans-30"/>
      </g>
     </g>
    </g>
    <g id="ytick_11">
     <g id="line2d_32">
      <g>
       <use xlink:href="#m91b4d79678" x="34.240625" y="286.304349" style="stroke: #000000; stroke-width: 0.8"/>
      </g>
     </g>
     <g id="text_17">
      <!-- 1 -->
      <g transform="translate(20.878125 290.103568) scale(0.1 -0.1)">
       <use xlink:href="#DejaVuSans-31"/>
      </g>
     </g>
    </g>
    <g id="ytick_12">
     <g id="line2d_33">
      <g>
       <use xlink:href="#m91b4d79678" x="34.240625" y="263.004521" style="stroke: #000000; stroke-width: 0.8"/>
      </g>
     </g>
     <g id="text_18">
      <!-- 2 -->
      <g transform="translate(20.878125 266.80374) scale(0.1 -0.1)">
       <use xlink:href="#DejaVuSans-32"/>
      </g>
     </g>
    </g>
    <g id="text_19">
     <!-- $f(x)$ -->
     <g transform="translate(14.798438 294.100625) rotate(-90) scale(0.1 -0.1)">
      <use xlink:href="#DejaVuSans-Oblique-66" transform="translate(0 0.015625)"/>
      <use xlink:href="#DejaVuSans-28" transform="translate(35.205078 0.015625)"/>
      <use xlink:href="#DejaVuSans-Oblique-78" transform="translate(74.21875 0.015625)"/>
      <use xlink:href="#DejaVuSans-29" transform="translate(133.398438 0.015625)"/>
     </g>
    </g>
   </g>
   <g id="line2d_34">
    <path d="M 34.240625 285.40937 
L 37.822033 283.505578 
L 41.403441 281.821942 
L 44.984848 280.37694 
L 48.566256 279.186055 
L 52.147664 278.261586 
L 55.729072 277.612491 
L 59.31048 277.244276 
L 62.891888 277.158929 
L 66.473295 277.35489 
L 70.054703 277.827073 
L 73.636111 278.566924 
L 77.217519 279.562525 
L 80.798927 280.798744 
L 84.380335 282.257416 
L 87.961742 283.917568 
L 91.54315 285.755672 
L 95.124558 287.74594 
L 98.705966 289.860636 
L 102.287374 292.070418 
L 105.868782 294.344697 
L 109.450189 296.652016 
L 113.031597 298.960431 
L 116.613005 301.237909 
L 120.194413 303.452715 
L 123.775821 305.573808 
L 127.357229 307.571218 
L 130.938636 309.416415 
L 134.520044 311.082658 
L 138.101452 312.545324 
L 141.68286 313.782209 
L 145.264268 314.773801 
L 148.845676 315.503515 
L 152.427083 315.957901 
L 156.008491 316.126802 
L 159.589899 316.003482 
L 163.171307 315.584701 
L 166.752715 314.87076 
L 170.334122 313.865488 
L 173.91553 312.576196 
L 177.496938 311.013584 
L 181.078346 309.191605 
L 184.659754 307.127292 
L 188.241162 304.840544 
L 191.822569 302.353879 
L 195.403977 299.692153 
L 198.985385 296.88225 
L 202.566793 293.952746 
L 206.148201 290.93356 
L 209.729609 287.855572 
L 213.311016 284.750249 
L 216.892424 281.649247 
L 220.473832 278.58402 
L 224.05524 275.585428 
L 227.636648 272.683352 
L 231.218056 269.906326 
L 234.799463 267.281176 
L 238.380871 264.83269 
L 241.962279 262.583304 
L 245.543687 260.552828 
L 249.125095 258.75819 
L 252.706503 257.213231 
L 256.28791 255.928522 
L 259.869318 254.911238 
L 263.450726 254.165058 
L 267.032134 253.69012 
L 270.613542 253.483011 
L 274.194949 253.53681 
L 277.776357 253.841162 
L 281.357765 254.382406 
L 284.939173 255.143735 
L 288.520581 256.105403 
L 292.101989 257.244957 
L 295.683396 258.537516 
L 299.264804 259.956064 
L 302.846212 261.471786 
L 306.42762 263.054414 
L 310.009028 264.672592 
L 313.590436 266.294263 
L 317.171843 267.887052 
L 320.753251 269.418664 
L 324.334659 270.857274 
L 327.916067 272.171913 
L 331.497475 273.332844 
L 335.078883 274.311921 
L 338.66029 275.08293 
L 342.241698 275.621907 
L 345.823106 275.907423 
L 349.404514 275.920845 
L 352.985922 275.646553 
L 356.56733 275.072131 
L 360.148737 274.188508 
L 363.730145 272.990064 
L 367.311553 271.474689 
L 370.892961 269.643804 
L 374.474369 267.502333 
L 378.055777 265.058632 
L 381.637184 262.324381 
L 385.218592 259.314427 
L 388.8 256.046594 
" clip-path="url(#pf8a4c1e019)" style="fill: none; stroke-dasharray: 16.65,7.2; stroke-dashoffset: 0; stroke: #cecece; stroke-width: 4.5"/>
   </g>
   <g id="line2d_35">
    <path d="M 34.240625 296.773792 
L 37.822033 296.770979 
L 41.403441 296.768054 
L 44.984848 296.765005 
L 48.566256 296.761829 
L 52.147664 296.758516 
L 55.729072 296.755056 
L 59.31048 296.751438 
L 62.891888 296.747656 
L 66.473295 296.743695 
L 70.054703 296.739539 
L 73.636111 296.73518 
L 77.217519 296.730598 
L 80.798927 296.725777 
L 84.380335 296.720698 
L 87.961742 296.715339 
L 91.54315 296.709675 
L 95.124558 296.703682 
L 98.705966 296.697328 
L 102.287374 296.690582 
L 105.868782 296.683403 
L 109.450189 296.675752 
L 113.031597 296.66758 
L 116.613005 296.658829 
L 120.194413 296.649438 
L 123.775821 296.639333 
L 127.357229 296.628427 
L 130.938636 296.616627 
L 134.520044 296.603812 
L 138.101452 296.589851 
L 141.68286 296.574578 
L 145.264268 296.557801 
L 148.845676 296.539288 
L 152.427083 296.518753 
L 156.008491 296.495846 
L 159.589899 296.470132 
L 163.171307 296.441062 
L 166.752715 296.40793 
L 170.334122 296.369828 
L 173.91553 296.325544 
L 177.496938 296.273444 
L 181.078346 296.211259 
L 184.659754 296.135758 
L 188.241162 296.042158 
L 191.822569 295.923091 
L 195.403977 295.766571 
L 198.985385 295.551757 
L 202.566793 295.238978 
L 206.148201 294.742699 
L 209.729609 293.841129 
L 213.311016 291.763916 
L 216.892424 284.709602 
L 220.473832 272.411347 
L 224.05524 268.366772 
L 227.636648 266.958556 
L 231.218056 266.271125 
L 234.799463 265.867292 
L 238.380871 265.602319 
L 241.962279 265.415317 
L 245.543687 265.276364 
L 249.125095 265.169087 
L 252.706503 265.083779 
L 256.28791 265.014327 
L 259.869318 264.956693 
L 263.450726 264.908096 
L 267.032134 264.866574 
L 270.613542 264.83068 
L 274.194949 264.799347 
L 277.776357 264.771757 
L 281.357765 264.747276 
L 284.939173 264.725412 
L 288.520581 264.705763 
L 292.101989 264.688006 
L 295.683396 264.671885 
L 299.264804 264.657183 
L 302.846212 264.643718 
L 306.42762 264.631343 
L 310.009028 264.619931 
L 313.590436 264.609372 
L 317.171843 264.599576 
L 320.753251 264.590461 
L 324.334659 264.581959 
L 327.916067 264.574012 
L 331.497475 264.566563 
L 335.078883 264.559571 
L 338.66029 264.552993 
L 342.241698 264.546795 
L 345.823106 264.540942 
L 349.404514 264.535411 
L 352.985922 264.530171 
L 356.56733 264.525201 
L 360.148737 264.520483 
L 363.730145 264.515995 
L 367.311553 264.511724 
L 370.892961 264.507652 
L 374.474369 264.503767 
L 378.055777 264.500056 
L 381.637184 264.496505 
L 385.218592 264.493108 
L 388.8 264.489853 
" clip-path="url(#pf8a4c1e019)" style="fill: none; stroke: #2255a0; stroke-opacity: 0.4; stroke-linecap: square"/>
   </g>
   <g id="line2d_36">
    <path d="M 34.240625 274.157676 
L 37.822033 274.898594 
L 41.403441 275.665198 
L 44.984848 276.458825 
L 48.566256 277.280536 
L 52.147664 278.131401 
L 55.729072 279.012931 
L 59.31048 279.926103 
L 62.891888 280.872071 
L 66.473295 281.852437 
L 70.054703 282.867913 
L 73.636111 283.920094 
L 77.217519 285.009874 
L 80.798927 286.138408 
L 84.380335 287.306402 
L 87.961742 288.515017 
L 91.54315 289.76425 
L 95.124558 291.054725 
L 98.705966 292.38573 
L 102.287374 293.756998 
L 105.868782 295.167197 
L 109.450189 296.613926 
L 113.031597 298.09443 
L 116.613005 299.60422 
L 120.194413 301.137742 
L 123.775821 302.687441 
L 127.357229 304.243983 
L 130.938636 305.795281 
L 134.520044 307.32667 
L 138.101452 308.819973 
L 141.68286 310.253369 
L 145.264268 311.601217 
L 148.845676 312.833119 
L 152.427083 313.91441 
L 156.008491 314.806295 
L 159.589899 315.46602 
L 163.171307 315.848256 
L 166.752715 315.906829 
L 170.334122 315.59672 
L 173.91553 314.877756 
L 177.496938 313.717915 
L 181.078346 312.0974 
L 184.659754 310.012578 
L 188.241162 307.479113 
L 191.822569 304.533593 
L 195.403977 301.233337 
L 198.985385 297.653912 
L 202.566793 293.884536 
L 206.148201 290.021902 
L 209.729609 286.163206 
L 213.311016 282.399573 
L 216.892424 278.810547 
L 220.473832 275.46026 
L 224.05524 272.395794 
L 227.636648 269.647013 
L 231.218056 267.228361 
L 234.799463 265.140617 
L 238.380871 263.374404 
L 241.962279 261.912342 
L 245.543687 260.732036 
L 249.125095 259.8082 
L 252.706503 259.11421 
L 256.28791 258.623716 
L 259.869318 258.31134 
L 263.450726 258.153131 
L 267.032134 258.127401 
L 270.613542 258.214282 
L 274.194949 258.396398 
L 277.776357 258.658025 
L 281.357765 258.985641 
L 284.939173 259.36739 
L 288.520581 259.792955 
L 292.101989 260.253898 
L 295.683396 260.742213 
L 299.264804 261.251773 
L 302.846212 261.776975 
L 306.42762 262.313465 
L 310.009028 262.856978 
L 313.590436 263.404579 
L 317.171843 263.953512 
L 320.753251 264.501291 
L 324.334659 265.046136 
L 327.916067 265.586448 
L 331.497475 266.121071 
L 335.078883 266.648941 
L 338.66029 267.169168 
L 342.241698 267.681214 
L 345.823106 268.184553 
L 349.404514 268.678556 
L 352.985922 269.163407 
L 356.56733 269.638658 
L 360.148737 270.104044 
L 363.730145 270.559828 
L 367.311553 271.005838 
L 370.892961 271.442158 
L 374.474369 271.868969 
L 378.055777 272.28618 
L 381.637184 272.694237 
L 385.218592 273.092783 
L 388.8 273.48244 
" clip-path="url(#pf8a4c1e019)" style="fill: none; stroke: #2255a0; stroke-opacity: 0.4; stroke-linecap: square"/>
   </g>
   <g id="line2d_37">
    <path d="M 34.240625 274.74718 
L 37.822033 275.380064 
L 41.403441 276.039167 
L 44.984848 276.726135 
L 48.566256 277.442299 
L 52.147664 278.189616 
L 55.729072 278.96951 
L 59.31048 279.7842 
L 62.891888 280.63551 
L 66.473295 281.525706 
L 70.054703 282.456832 
L 73.636111 283.431154 
L 77.217519 284.451295 
L 80.798927 285.519431 
L 84.380335 286.638231 
L 87.961742 287.810048 
L 91.54315 289.037505 
L 95.124558 290.322648 
L 98.705966 291.667696 
L 102.287374 293.074339 
L 105.868782 294.543599 
L 109.450189 296.075743 
L 113.031597 297.669972 
L 116.613005 299.323795 
L 120.194413 301.032859 
L 123.775821 302.790007 
L 127.357229 304.584264 
L 130.938636 306.400341 
L 134.520044 308.216952 
L 138.101452 310.005786 
L 141.68286 311.729871 
L 145.264268 313.342764 
L 148.845676 314.787004 
L 152.427083 315.994886 
L 156.008491 316.889725 
L 159.589899 317.39033 
L 163.171307 317.418239 
L 166.752715 316.908502 
L 170.334122 315.822988 
L 173.91553 314.164321 
L 177.496938 311.985506 
L 181.078346 309.391455 
L 184.659754 306.527939 
L 188.241162 303.559204 
L 191.822569 300.638507 
L 195.403977 297.879755 
L 198.985385 295.337314 
L 202.566793 292.998034 
L 206.148201 290.784522 
L 209.729609 288.567854 
L 213.311016 286.188178 
L 216.892424 283.486104 
L 220.473832 280.349621 
L 224.05524 276.775551 
L 227.636648 272.91586 
L 231.218056 269.060035 
L 234.799463 265.530985 
L 238.380871 262.563269 
L 241.962279 260.249764 
L 245.543687 258.567899 
L 249.125095 257.433456 
L 252.706503 256.744044 
L 256.28791 256.403314 
L 259.869318 256.329321 
L 263.450726 256.456333 
L 267.032134 256.733068 
L 270.613542 257.119614 
L 274.194949 257.585711 
L 277.776357 258.108202 
L 281.357765 258.669446 
L 284.939173 259.255931 
L 288.520581 259.857306 
L 292.101989 260.465879 
L 295.683396 261.075699 
L 299.264804 261.682361 
L 302.846212 262.282224 
L 306.42762 262.873022 
L 310.009028 263.452971 
L 313.590436 264.020615 
L 317.171843 264.57506 
L 320.753251 265.115905 
L 324.334659 265.642619 
L 327.916067 266.155112 
L 331.497475 266.653517 
L 335.078883 267.137566 
L 338.66029 267.60784 
L 342.241698 268.064603 
L 345.823106 268.507857 
L 349.404514 268.937955 
L 352.985922 269.355523 
L 356.56733 269.760824 
L 360.148737 270.154213 
L 363.730145 270.536139 
L 367.311553 270.906777 
L 370.892961 271.266659 
L 374.474369 271.616142 
L 378.055777 271.955581 
L 381.637184 272.285332 
L 385.218592 272.60584 
L 388.8 272.91737 
" clip-path="url(#pf8a4c1e019)" style="fill: none; stroke: #2255a0; stroke-opacity: 0.4; stroke-linecap: square"/>
   </g>
   <g id="line2d_38">
    <path d="M 34.240625 283.742687 
L 37.822033 282.521673 
L 41.403441 281.421139 
L 44.984848 280.452416 
L 48.566256 279.62715 
L 52.147664 278.957736 
L 55.729072 278.456708 
L 59.31048 278.137268 
L 62.891888 278.012211 
L 66.473295 278.094161 
L 70.054703 278.394847 
L 73.636111 278.924539 
L 77.217519 279.691234 
L 80.798927 280.699774 
L 84.380335 281.951363 
L 87.961742 283.441511 
L 91.54315 285.16053 
L 95.124558 287.091175 
L 98.705966 289.209451 
L 102.287374 291.483535 
L 105.868782 293.875167 
L 109.450189 296.339859 
L 113.031597 298.82926 
L 116.613005 301.292707 
L 120.194413 303.680161 
L 123.775821 305.943847 
L 127.357229 308.041102 
L 130.938636 309.934906 
L 134.520044 311.595751 
L 138.101452 313.001283 
L 141.68286 314.136437 
L 145.264268 314.992546 
L 148.845676 315.566812 
L 152.427083 315.860788 
L 156.008491 315.879676 
L 159.589899 315.631162 
L 163.171307 315.124358 
L 166.752715 314.36913 
L 170.334122 313.374987 
L 173.91553 312.150596 
L 177.496938 310.703245 
L 181.078346 309.038 
L 184.659754 307.156995 
L 188.241162 305.060095 
L 191.822569 302.743925 
L 195.403977 300.20435 
L 198.985385 297.439371 
L 202.566793 294.455165 
L 206.148201 291.27533 
L 209.729609 287.949284 
L 213.311016 284.553022 
L 216.892424 281.17818 
L 220.473832 277.911241 
L 224.05524 274.816022 
L 227.636648 271.928609 
L 231.218056 269.262555 
L 234.799463 266.81844 
L 238.380871 264.591284 
L 241.962279 262.575579 
L 245.543687 260.767458 
L 249.125095 259.165227 
L 252.706503 257.769516 
L 256.28791 256.582902 
L 259.869318 255.608935 
L 263.450726 254.852017 
L 267.032134 254.316416 
L 270.613542 254.005951 
L 274.194949 253.922803 
L 277.776357 254.067768 
L 281.357765 254.438983 
L 284.939173 255.031514 
L 288.520581 255.836917 
L 292.101989 256.843012 
L 295.683396 258.032921 
L 299.264804 259.385522 
L 302.846212 260.87518 
L 306.42762 262.471764 
L 310.009028 264.141497 
L 313.590436 265.847317 
L 317.171843 267.54967 
L 320.753251 269.207893 
L 324.334659 270.780699 
L 327.916067 272.228052 
L 331.497475 273.511548 
L 335.078883 274.595862 
L 338.66029 275.44926 
L 342.241698 276.044146 
L 345.823106 276.357587 
L 349.404514 276.371365 
L 352.985922 276.071745 
L 356.56733 275.449572 
L 360.148737 274.499559 
L 363.730145 273.220284 
L 367.311553 271.613344 
L 370.892961 269.6831 
L 374.474369 267.436079 
L 378.055777 264.880682 
L 381.637184 262.026644 
L 385.218592 258.884674 
L 388.8 255.466412 
" clip-path="url(#pf8a4c1e019)" style="fill: none; stroke: #2255a0; stroke-opacity: 0.9; stroke-width: 1.5; stroke-linecap: square"/>
   </g>
   <g id="patch_18">
    <path d="M 34.240625 320.615 
L 34.240625 250.28625 
" style="fill: none; stroke: #000000; stroke-width: 0.8; stroke-linejoin: miter; stroke-linecap: square"/>
   </g>
   <g id="patch_19">
    <path d="M 388.8 320.615 
L 388.8 250.28625 
" style="fill: none; stroke: #000000; stroke-width: 0.8; stroke-linejoin: miter; stroke-linecap: square"/>
   </g>
   <g id="patch_20">
    <path d="M 34.240625 320.615 
L 388.8 320.615 
" style="fill: none; stroke: #000000; stroke-width: 0.8; stroke-linejoin: miter; stroke-linecap: square"/>
   </g>
   <g id="patch_21">
    <path d="M 34.240625 250.28625 
L 388.8 250.28625 
" style="fill: none; stroke: #000000; stroke-width: 0.8; stroke-linejoin: miter; stroke-linecap: square"/>
   </g>
   <g id="text_20">
    <!-- 4 neurons -->
    <g style="fill: #2255a0" transform="translate(41.331812 262.047856) scale(0.09 -0.09)">
     <defs>
      <path id="DejaVuSans-34" d="M 2419 4116 
L 825 1625 
L 2419 1625 
L 2419 4116 
z
M 2253 4666 
L 3047 4666 
L 3047 1625 
L 3713 1625 
L 3713 1100 
L 3047 1100 
L 3047 0 
L 2419 0 
L 2419 1100 
L 313 1100 
L 313 1709 
L 2253 4666 
z
" transform="scale(0.015625)"/>
     </defs>
     <use xlink:href="#DejaVuSans-34"/>
     <use xlink:href="#DejaVuSans-20" x="63.623047"/>
     <use xlink:href="#DejaVuSans-6e" x="95.410156"/>
     <use xlink:href="#DejaVuSans-65" x="158.789062"/>
     <use xlink:href="#DejaVuSans-75" x="220.3125"/>
     <use xlink:href="#DejaVuSans-72" x="283.691406"/>
     <use xlink:href="#DejaVuSans-6f" x="322.554688"/>
     <use xlink:href="#DejaVuSans-6e" x="383.736328"/>
     <use xlink:href="#DejaVuSans-73" x="447.115234"/>
    </g>
   </g>
  </g>
  <g id="axes_5">
   <g id="patch_22">
    <path d="M 34.240625 401.64375 
L 388.8 401.64375 
L 388.8 331.315 
L 34.240625 331.315 
z
" style="fill: #ffffff"/>
   </g>
   <g id="matplotlib.axis_9">
    <g id="xtick_13">
     <g id="line2d_39">
      <g>
       <use xlink:href="#m9cf4002dc6" x="50.35696" y="401.64375" style="stroke: #000000; stroke-width: 0.8"/>
      </g>
     </g>
     <g id="text_21">
      <!-- 1 -->
      <g transform="translate(42.985866 416.242188) scale(0.1 -0.1)">
       <defs>
        <path id="DejaVuSans-2212" d="M 678 2272 
L 4684 2272 
L 4684 1741 
L 678 1741 
L 678 2272 
z
" transform="scale(0.015625)"/>
       </defs>
       <use xlink:href="#DejaVuSans-2212"/>
       <use xlink:href="#DejaVuSans-31" x="83.789062"/>
      </g>
     </g>
    </g>
    <g id="xtick_14">
     <g id="line2d_40">
      <g>
       <use xlink:href="#m9cf4002dc6" x="211.520312" y="401.64375" style="stroke: #000000; stroke-width: 0.8"/>
      </g>
     </g>
     <g id="text_22">
      <!-- 0 -->
      <g transform="translate(208.339062 416.242188) scale(0.1 -0.1)">
       <use xlink:href="#DejaVuSans-30"/>
      </g>
     </g>
    </g>
    <g id="xtick_15">
     <g id="line2d_41">
      <g>
       <use xlink:href="#m9cf4002dc6" x="372.683665" y="401.64375" style="stroke: #000000; stroke-width: 0.8"/>
      </g>
     </g>
     <g id="text_23">
      <!-- 1 -->
      <g transform="translate(369.502415 416.242188) scale(0.1 -0.1)">
       <use xlink:href="#DejaVuSans-31"/>
      </g>
     </g>
    </g>
    <g id="text_24">
     <!-- $x$ -->
     <g transform="translate(208.520312 429.920312) scale(0.1 -0.1)">
      <use xlink:href="#DejaVuSans-Oblique-78" transform="translate(0 0.3125)"/>
     </g>
    </g>
   </g>
   <g id="matplotlib.axis_10">
    <g id="ytick_13">
     <g id="line2d_42">
      <g>
       <use xlink:href="#m91b4d79678" x="34.240625" y="390.632927" style="stroke: #000000; stroke-width: 0.8"/>
      </g>
     </g>
     <g id="text_25">
      <!-- 0 -->
      <g transform="translate(20.878125 394.432146) scale(0.1 -0.1)">
       <use xlink:href="#DejaVuSans-30"/>
      </g>
     </g>
    </g>
    <g id="ytick_14">
     <g id="line2d_43">
      <g>
       <use xlink:href="#m91b4d79678" x="34.240625" y="367.333099" style="stroke: #000000; stroke-width: 0.8"/>
      </g>
     </g>
     <g id="text_26">
      <!-- 1 -->
      <g transform="translate(20.878125 371.132318) scale(0.1 -0.1)">
       <use xlink:href="#DejaVuSans-31"/>
      </g>
     </g>
    </g>
    <g id="ytick_15">
     <g id="line2d_44">
      <g>
       <use xlink:href="#m91b4d79678" x="34.240625" y="344.033271" style="stroke: #000000; stroke-width: 0.8"/>
      </g>
     </g>
     <g id="text_27">
      <!-- 2 -->
      <g transform="translate(20.878125 347.83249) scale(0.1 -0.1)">
       <use xlink:href="#DejaVuSans-32"/>
      </g>
     </g>
    </g>
    <g id="text_28">
     <!-- $f(x)$ -->
     <g transform="translate(14.798438 375.129375) rotate(-90) scale(0.1 -0.1)">
      <use xlink:href="#DejaVuSans-Oblique-66" transform="translate(0 0.015625)"/>
      <use xlink:href="#DejaVuSans-28" transform="translate(35.205078 0.015625)"/>
      <use xlink:href="#DejaVuSans-Oblique-78" transform="translate(74.21875 0.015625)"/>
      <use xlink:href="#DejaVuSans-29" transform="translate(133.398438 0.015625)"/>
     </g>
    </g>
   </g>
   <g id="line2d_45">
    <path d="M 34.240625 366.43812 
L 37.822033 364.534328 
L 41.403441 362.850692 
L 44.984848 361.40569 
L 48.566256 360.214805 
L 52.147664 359.290336 
L 55.729072 358.641241 
L 59.31048 358.273026 
L 62.891888 358.187679 
L 66.473295 358.38364 
L 70.054703 358.855823 
L 73.636111 359.595674 
L 77.217519 360.591275 
L 80.798927 361.827494 
L 84.380335 363.286166 
L 87.961742 364.946318 
L 91.54315 366.784422 
L 95.124558 368.77469 
L 98.705966 370.889386 
L 102.287374 373.099168 
L 105.868782 375.373447 
L 109.450189 377.680766 
L 113.031597 379.989181 
L 116.613005 382.266659 
L 120.194413 384.481465 
L 123.775821 386.602558 
L 127.357229 388.599968 
L 130.938636 390.445165 
L 134.520044 392.111408 
L 138.101452 393.574074 
L 141.68286 394.810959 
L 145.264268 395.802551 
L 148.845676 396.532265 
L 152.427083 396.986651 
L 156.008491 397.155552 
L 159.589899 397.032232 
L 163.171307 396.613451 
L 166.752715 395.89951 
L 170.334122 394.894238 
L 173.91553 393.604946 
L 177.496938 392.042334 
L 181.078346 390.220355 
L 184.659754 388.156042 
L 188.241162 385.869294 
L 191.822569 383.382629 
L 195.403977 380.720903 
L 198.985385 377.911 
L 202.566793 374.981496 
L 206.148201 371.96231 
L 209.729609 368.884322 
L 213.311016 365.778999 
L 216.892424 362.677997 
L 220.473832 359.61277 
L 224.05524 356.614178 
L 227.636648 353.712102 
L 231.218056 350.935076 
L 234.799463 348.309926 
L 238.380871 345.86144 
L 241.962279 343.612054 
L 245.543687 341.581578 
L 249.125095 339.78694 
L 252.706503 338.241981 
L 256.28791 336.957272 
L 259.869318 335.939988 
L 263.450726 335.193808 
L 267.032134 334.71887 
L 270.613542 334.511761 
L 274.194949 334.56556 
L 277.776357 334.869912 
L 281.357765 335.411156 
L 284.939173 336.172485 
L 288.520581 337.134153 
L 292.101989 338.273707 
L 295.683396 339.566266 
L 299.264804 340.984814 
L 302.846212 342.500536 
L 306.42762 344.083164 
L 310.009028 345.701342 
L 313.590436 347.323013 
L 317.171843 348.915802 
L 320.753251 350.447414 
L 324.334659 351.886024 
L 327.916067 353.200663 
L 331.497475 354.361594 
L 335.078883 355.340671 
L 338.66029 356.11168 
L 342.241698 356.650657 
L 345.823106 356.936173 
L 349.404514 356.949595 
L 352.985922 356.675303 
L 356.56733 356.100881 
L 360.148737 355.217258 
L 363.730145 354.018814 
L 367.311553 352.503439 
L 370.892961 350.672554 
L 374.474369 348.531083 
L 378.055777 346.087382 
L 381.637184 343.353131 
L 385.218592 340.343177 
L 388.8 337.075344 
" clip-path="url(#p8509cd2b4e)" style="fill: none; stroke-dasharray: 16.65,7.2; stroke-dashoffset: 0; stroke: #cecece; stroke-width: 4.5"/>
   </g>
   <g id="line2d_46">
    <path d="M 34.240625 377.802542 
L 37.822033 377.799729 
L 41.403441 377.796804 
L 44.984848 377.793755 
L 48.566256 377.790579 
L 52.147664 377.787266 
L 55.729072 377.783806 
L 59.31048 377.780188 
L 62.891888 377.776406 
L 66.473295 377.772445 
L 70.054703 377.768289 
L 73.636111 377.76393 
L 77.217519 377.759348 
L 80.798927 377.754527 
L 84.380335 377.749448 
L 87.961742 377.744089 
L 91.54315 377.738425 
L 95.124558 377.732432 
L 98.705966 377.726078 
L 102.287374 377.719332 
L 105.868782 377.712153 
L 109.450189 377.704502 
L 113.031597 377.69633 
L 116.613005 377.687579 
L 120.194413 377.678188 
L 123.775821 377.668083 
L 127.357229 377.657177 
L 130.938636 377.645377 
L 134.520044 377.632562 
L 138.101452 377.618601 
L 141.68286 377.603328 
L 145.264268 377.586551 
L 148.845676 377.568038 
L 152.427083 377.547503 
L 156.008491 377.524596 
L 159.589899 377.498882 
L 163.171307 377.469812 
L 166.752715 377.43668 
L 170.334122 377.398578 
L 173.91553 377.354294 
L 177.496938 377.302194 
L 181.078346 377.240009 
L 184.659754 377.164508 
L 188.241162 377.070908 
L 191.822569 376.951841 
L 195.403977 376.795321 
L 198.985385 376.580507 
L 202.566793 376.267728 
L 206.148201 375.771449 
L 209.729609 374.869879 
L 213.311016 372.792666 
L 216.892424 365.738352 
L 220.473832 353.440097 
L 224.05524 349.395522 
L 227.636648 347.987306 
L 231.218056 347.299875 
L 234.799463 346.896042 
L 238.380871 346.631069 
L 241.962279 346.444067 
L 245.543687 346.305114 
L 249.125095 346.197837 
L 252.706503 346.112529 
L 256.28791 346.043077 
L 259.869318 345.985443 
L 263.450726 345.936846 
L 267.032134 345.895324 
L 270.613542 345.85943 
L 274.194949 345.828097 
L 277.776357 345.800507 
L 281.357765 345.776026 
L 284.939173 345.754162 
L 288.520581 345.734513 
L 292.101989 345.716756 
L 295.683396 345.700635 
L 299.264804 345.685933 
L 302.846212 345.672468 
L 306.42762 345.660093 
L 310.009028 345.648681 
L 313.590436 345.638122 
L 317.171843 345.628326 
L 320.753251 345.619211 
L 324.334659 345.610709 
L 327.916067 345.602762 
L 331.497475 345.595313 
L 335.078883 345.588321 
L 338.66029 345.581743 
L 342.241698 345.575545 
L 345.823106 345.569692 
L 349.404514 345.564161 
L 352.985922 345.558921 
L 356.56733 345.553951 
L 360.148737 345.549233 
L 363.730145 345.544745 
L 367.311553 345.540474 
L 370.892961 345.536402 
L 374.474369 345.532517 
L 378.055777 345.528806 
L 381.637184 345.525255 
L 385.218592 345.521858 
L 388.8 345.518603 
" clip-path="url(#p8509cd2b4e)" style="fill: none; stroke: #2255a0; stroke-opacity: 0.4; stroke-linecap: square"/>
   </g>
   <g id="line2d_47">
    <path d="M 34.240625 355.186426 
L 37.822033 355.927344 
L 41.403441 356.693948 
L 44.984848 357.487575 
L 48.566256 358.309286 
L 52.147664 359.160151 
L 55.729072 360.041681 
L 59.31048 360.954853 
L 62.891888 361.900821 
L 66.473295 362.881187 
L 70.054703 363.896663 
L 73.636111 364.948844 
L 77.217519 366.038624 
L 80.798927 367.167158 
L 84.380335 368.335152 
L 87.961742 369.543767 
L 91.54315 370.793 
L 95.124558 372.083475 
L 98.705966 373.41448 
L 102.287374 374.785748 
L 105.868782 376.195947 
L 109.450189 377.642676 
L 113.031597 379.12318 
L 116.613005 380.63297 
L 120.194413 382.166492 
L 123.775821 383.716191 
L 127.357229 385.272733 
L 130.938636 386.824031 
L 134.520044 388.35542 
L 138.101452 389.848723 
L 141.68286 391.282119 
L 145.264268 392.629967 
L 148.845676 393.861869 
L 152.427083 394.94316 
L 156.008491 395.835045 
L 159.589899 396.49477 
L 163.171307 396.877006 
L 166.752715 396.935579 
L 170.334122 396.62547 
L 173.91553 395.906506 
L 177.496938 394.746665 
L 181.078346 393.12615 
L 184.659754 391.041328 
L 188.241162 388.507863 
L 191.822569 385.562343 
L 195.403977 382.262087 
L 198.985385 378.682662 
L 202.566793 374.913286 
L 206.148201 371.050652 
L 209.729609 367.191956 
L 213.311016 363.428323 
L 216.892424 359.839297 
L 220.473832 356.48901 
L 224.05524 353.424544 
L 227.636648 350.675763 
L 231.218056 348.257111 
L 234.799463 346.169367 
L 238.380871 344.403154 
L 241.962279 342.941092 
L 245.543687 341.760786 
L 249.125095 340.83695 
L 252.706503 340.14296 
L 256.28791 339.652466 
L 259.869318 339.34009 
L 263.450726 339.181881 
L 267.032134 339.156151 
L 270.613542 339.243032 
L 274.194949 339.425148 
L 277.776357 339.686775 
L 281.357765 340.014391 
L 284.939173 340.39614 
L 288.520581 340.821705 
L 292.101989 341.282648 
L 295.683396 341.770963 
L 299.264804 342.280523 
L 302.846212 342.805725 
L 306.42762 343.342215 
L 310.009028 343.885728 
L 313.590436 344.433329 
L 317.171843 344.982262 
L 320.753251 345.530041 
L 324.334659 346.074886 
L 327.916067 346.615198 
L 331.497475 347.149821 
L 335.078883 347.677691 
L 338.66029 348.197918 
L 342.241698 348.709964 
L 345.823106 349.213303 
L 349.404514 349.707306 
L 352.985922 350.192157 
L 356.56733 350.667408 
L 360.148737 351.132794 
L 363.730145 351.588578 
L 367.311553 352.034588 
L 370.892961 352.470908 
L 374.474369 352.897719 
L 378.055777 353.31493 
L 381.637184 353.722987 
L 385.218592 354.121533 
L 388.8 354.51119 
" clip-path="url(#p8509cd2b4e)" style="fill: none; stroke: #2255a0; stroke-opacity: 0.4; stroke-linecap: square"/>
   </g>
   <g id="line2d_48">
    <path d="M 34.240625 355.77593 
L 37.822033 356.408814 
L 41.403441 357.067917 
L 44.984848 357.754885 
L 48.566256 358.471049 
L 52.147664 359.218366 
L 55.729072 359.99826 
L 59.31048 360.81295 
L 62.891888 361.66426 
L 66.473295 362.554456 
L 70.054703 363.485582 
L 73.636111 364.459904 
L 77.217519 365.480045 
L 80.798927 366.548181 
L 84.380335 367.666981 
L 87.961742 368.838798 
L 91.54315 370.066255 
L 95.124558 371.351398 
L 98.705966 372.696446 
L 102.287374 374.103089 
L 105.868782 375.572349 
L 109.450189 377.104493 
L 113.031597 378.698722 
L 116.613005 380.352545 
L 120.194413 382.061609 
L 123.775821 383.818757 
L 127.357229 385.613014 
L 130.938636 387.429091 
L 134.520044 389.245702 
L 138.101452 391.034536 
L 141.68286 392.758621 
L 145.264268 394.371514 
L 148.845676 395.815754 
L 152.427083 397.023636 
L 156.008491 397.918475 
L 159.589899 398.41908 
L 163.171307 398.446989 
L 166.752715 397.937252 
L 170.334122 396.851738 
L 173.91553 395.193071 
L 177.496938 393.014256 
L 181.078346 390.420205 
L 184.659754 387.556689 
L 188.241162 384.587954 
L 191.822569 381.667257 
L 195.403977 378.908505 
L 198.985385 376.366064 
L 202.566793 374.026784 
L 206.148201 371.813272 
L 209.729609 369.596604 
L 213.311016 367.216928 
L 216.892424 364.514854 
L 220.473832 361.378371 
L 224.05524 357.804301 
L 227.636648 353.94461 
L 231.218056 350.088785 
L 234.799463 346.559735 
L 238.380871 343.592019 
L 241.962279 341.278514 
L 245.543687 339.596649 
L 249.125095 338.462206 
L 252.706503 337.772794 
L 256.28791 337.432064 
L 259.869318 337.358071 
L 263.450726 337.485083 
L 267.032134 337.761818 
L 270.613542 338.148364 
L 274.194949 338.614461 
L 277.776357 339.136952 
L 281.357765 339.698196 
L 284.939173 340.284681 
L 288.520581 340.886056 
L 292.101989 341.494629 
L 295.683396 342.104449 
L 299.264804 342.711111 
L 302.846212 343.310974 
L 306.42762 343.901772 
L 310.009028 344.481721 
L 313.590436 345.049365 
L 317.171843 345.60381 
L 320.753251 346.144655 
L 324.334659 346.671369 
L 327.916067 347.183862 
L 331.497475 347.682267 
L 335.078883 348.166316 
L 338.66029 348.63659 
L 342.241698 349.093353 
L 345.823106 349.536607 
L 349.404514 349.966705 
L 352.985922 350.384273 
L 356.56733 350.789574 
L 360.148737 351.182963 
L 363.730145 351.564889 
L 367.311553 351.935527 
L 370.892961 352.295409 
L 374.474369 352.644892 
L 378.055777 352.984331 
L 381.637184 353.314082 
L 385.218592 353.63459 
L 388.8 353.94612 
" clip-path="url(#p8509cd2b4e)" style="fill: none; stroke: #2255a0; stroke-opacity: 0.4; stroke-linecap: square"/>
   </g>
   <g id="line2d_49">
    <path d="M 34.240625 364.771437 
L 37.822033 363.550423 
L 41.403441 362.449889 
L 44.984848 361.481166 
L 48.566256 360.6559 
L 52.147664 359.986486 
L 55.729072 359.485458 
L 59.31048 359.166018 
L 62.891888 359.040961 
L 66.473295 359.122911 
L 70.054703 359.423597 
L 73.636111 359.953289 
L 77.217519 360.719984 
L 80.798927 361.728524 
L 84.380335 362.980113 
L 87.961742 364.470261 
L 91.54315 366.18928 
L 95.124558 368.119925 
L 98.705966 370.238201 
L 102.287374 372.512285 
L 105.868782 374.903917 
L 109.450189 377.368609 
L 113.031597 379.85801 
L 116.613005 382.321457 
L 120.194413 384.708911 
L 123.775821 386.972597 
L 127.357229 389.069852 
L 130.938636 390.963656 
L 134.520044 392.624501 
L 138.101452 394.030033 
L 141.68286 395.165187 
L 145.264268 396.021296 
L 148.845676 396.595562 
L 152.427083 396.889538 
L 156.008491 396.908426 
L 159.589899 396.659912 
L 163.171307 396.153108 
L 166.752715 395.39788 
L 170.334122 394.403737 
L 173.91553 393.179346 
L 177.496938 391.731995 
L 181.078346 390.06675 
L 184.659754 388.185745 
L 188.241162 386.088845 
L 191.822569 383.772675 
L 195.403977 381.2331 
L 198.985385 378.468121 
L 202.566793 375.483915 
L 206.148201 372.30408 
L 209.729609 368.978034 
L 213.311016 365.581772 
L 216.892424 362.20693 
L 220.473832 358.939991 
L 224.05524 355.844772 
L 227.636648 352.957359 
L 231.218056 350.291305 
L 234.799463 347.84719 
L 238.380871 345.620034 
L 241.962279 343.604329 
L 245.543687 341.796208 
L 249.125095 340.193977 
L 252.706503 338.798266 
L 256.28791 337.611652 
L 259.869318 336.637685 
L 263.450726 335.880767 
L 267.032134 335.345166 
L 270.613542 335.034701 
L 274.194949 334.951553 
L 277.776357 335.096518 
L 281.357765 335.467733 
L 284.939173 336.060264 
L 288.520581 336.865667 
L 292.101989 337.871762 
L 295.683396 339.061671 
L 299.264804 340.414272 
L 302.846212 341.90393 
L 306.42762 343.500514 
L 310.009028 345.170247 
L 313.590436 346.876067 
L 317.171843 348.57842 
L 320.753251 350.236643 
L 324.334659 351.809449 
L 327.916067 353.256802 
L 331.497475 354.540298 
L 335.078883 355.624612 
L 338.66029 356.47801 
L 342.241698 357.072896 
L 345.823106 357.386337 
L 349.404514 357.400115 
L 352.985922 357.100495 
L 356.56733 356.478322 
L 360.148737 355.528309 
L 363.730145 354.249034 
L 367.311553 352.642094 
L 370.892961 350.71185 
L 374.474369 348.464829 
L 378.055777 345.909432 
L 381.637184 343.055394 
L 385.218592 339.913424 
L 388.8 336.495162 
" clip-path="url(#p8509cd2b4e)" style="fill: none; stroke: #2255a0; stroke-opacity: 0.4; stroke-linecap: square"/>
   </g>
   <g id="line2d_50">
    <path d="M 34.240625 366.615823 
L 37.822033 364.556433 
L 41.403441 362.786373 
L 44.984848 361.305981 
L 48.566256 360.11471 
L 52.147664 359.211215 
L 55.729072 358.59342 
L 59.31048 358.258357 
L 62.891888 358.201974 
L 66.473295 358.418888 
L 70.054703 358.902418 
L 73.636111 359.64397 
L 77.217519 360.633057 
L 80.798927 361.856871 
L 84.380335 363.300055 
L 87.961742 364.944489 
L 91.54315 366.769211 
L 95.124558 368.750397 
L 98.705966 370.861418 
L 102.287374 373.073174 
L 105.868782 375.35437 
L 109.450189 377.672195 
L 113.031597 379.992677 
L 116.613005 382.281722 
L 120.194413 384.505522 
L 123.775821 386.631346 
L 127.357229 388.628187 
L 130.938636 390.467312 
L 134.520044 392.122469 
L 138.101452 393.570281 
L 141.68286 394.790395 
L 145.264268 395.765517 
L 148.845676 396.481304 
L 152.427083 396.926374 
L 156.008491 397.092127 
L 159.589899 396.972731 
L 163.171307 396.56502 
L 166.752715 395.868575 
L 170.334122 394.885582 
L 173.91553 393.621094 
L 177.496938 392.083105 
L 181.078346 390.282727 
L 184.659754 388.234324 
L 188.241162 385.955595 
L 191.822569 383.467688 
L 195.403977 380.79509 
L 198.985385 377.965378 
L 202.566793 375.008997 
L 206.148201 371.958552 
L 209.729609 368.848339 
L 213.311016 365.713335 
L 216.892424 362.588763 
L 220.473832 359.508847 
L 224.05524 356.506391 
L 227.636648 353.612064 
L 231.218056 350.853844 
L 234.799463 348.256778 
L 238.380871 345.842825 
L 241.962279 343.630848 
L 245.543687 341.636674 
L 249.125095 339.873332 
L 252.706503 338.351212 
L 256.28791 337.078298 
L 259.869318 336.060196 
L 263.450726 335.300559 
L 267.032134 334.800598 
L 270.613542 334.559461 
L 274.194949 334.573805 
L 277.776357 334.837584 
L 281.357765 335.341776 
L 284.939173 336.074008 
L 288.520581 337.01812 
L 292.101989 338.154072 
L 295.683396 339.457838 
L 299.264804 340.901323 
L 302.846212 342.453007 
L 306.42762 344.078389 
L 310.009028 345.740725 
L 313.590436 347.402392 
L 317.171843 349.025707 
L 320.753251 350.57426 
L 324.334659 352.013656 
L 327.916067 353.31253 
L 331.497475 354.44284 
L 335.078883 355.379999 
L 338.66029 356.103274 
L 342.241698 356.594856 
L 345.823106 356.840059 
L 349.404514 356.826293 
L 352.985922 356.542828 
L 356.56733 355.980251 
L 360.148737 355.129775 
L 363.730145 353.982831 
L 367.311553 352.530814 
L 370.892961 350.764601 
L 374.474369 348.674478 
L 378.055777 346.249982 
L 381.637184 343.479784 
L 385.218592 340.352076 
L 388.8 336.854334 
" clip-path="url(#p8509cd2b4e)" style="fill: none; stroke: #2255a0; stroke-opacity: 0.9; stroke-width: 1.5; stroke-linecap: square"/>
   </g>
   <g id="patch_23">
    <path d="M 34.240625 401.64375 
L 34.240625 331.315 
" style="fill: none; stroke: #000000; stroke-width: 0.8; stroke-linejoin: miter; stroke-linecap: square"/>
   </g>
   <g id="patch_24">
    <path d="M 388.8 401.64375 
L 388.8 331.315 
" style="fill: none; stroke: #000000; stroke-width: 0.8; stroke-linejoin: miter; stroke-linecap: square"/>
   </g>
   <g id="patch_25">
    <path d="M 34.240625 401.64375 
L 388.8 401.64375 
" style="fill: none; stroke: #000000; stroke-width: 0.8; stroke-linejoin: miter; stroke-linecap: square"/>
   </g>
   <g id="patch_26">
    <path d="M 34.240625 331.315 
L 388.8 331.315 
" style="fill: none; stroke: #000000; stroke-width: 0.8; stroke-linejoin: miter; stroke-linecap: square"/>
   </g>
   <g id="text_29">
    <!-- 5 neurons -->
    <g style="fill: #2255a0" transform="translate(41.331812 343.076606) scale(0.09 -0.09)">
     <defs>
      <path id="DejaVuSans-35" d="M 691 4666 
L 3169 4666 
L 3169 4134 
L 1269 4134 
L 1269 2991 
Q 1406 3038 1543 3061 
Q 1681 3084 1819 3084 
Q 2600 3084 3056 2656 
Q 3513 2228 3513 1497 
Q 3513 744 3044 326 
Q 2575 -91 1722 -91 
Q 1428 -91 1123 -41 
Q 819 9 494 109 
L 494 744 
Q 775 591 1075 516 
Q 1375 441 1709 441 
Q 2250 441 2565 725 
Q 2881 1009 2881 1497 
Q 2881 1984 2565 2268 
Q 2250 2553 1709 2553 
Q 1456 2553 1204 2497 
Q 953 2441 691 2322 
L 691 4666 
z
" transform="scale(0.015625)"/>
     </defs>
     <use xlink:href="#DejaVuSans-35"/>
     <use xlink:href="#DejaVuSans-20" x="63.623047"/>
     <use xlink:href="#DejaVuSans-6e" x="95.410156"/>
     <use xlink:href="#DejaVuSans-65" x="158.789062"/>
     <use xlink:href="#DejaVuSans-75" x="220.3125"/>
     <use xlink:href="#DejaVuSans-72" x="283.691406"/>
     <use xlink:href="#DejaVuSans-6f" x="322.554688"/>
     <use xlink:href="#DejaVuSans-6e" x="383.736328"/>
     <use xlink:href="#DejaVuSans-73" x="447.115234"/>
    </g>
   </g>
   <g id="legend_1">
    <g id="line2d_51">
     <path d="M 300.84 378.2375 
L 308.84 378.2375 
L 316.84 378.2375 
" style="fill: none; stroke-dasharray: 16.65,7.2; stroke-dashoffset: 0; stroke: #cecece; stroke-width: 4.5"/>
    </g>
    <g id="text_30">
     <!-- Target -->
     <g transform="translate(323.24 381.0375) scale(0.08 -0.08)">
      <defs>
       <path id="DejaVuSans-54" d="M -19 4666 
L 3928 4666 
L 3928 4134 
L 2272 4134 
L 2272 0 
L 1638 0 
L 1638 4134 
L -19 4134 
L -19 4666 
z
" transform="scale(0.015625)"/>
       <path id="DejaVuSans-61" d="M 2194 1759 
Q 1497 1759 1228 1600 
Q 959 1441 959 1056 
Q 959 750 1161 570 
Q 1363 391 1709 391 
Q 2188 391 2477 730 
Q 2766 1069 2766 1631 
L 2766 1759 
L 2194 1759 
z
M 3341 1997 
L 3341 0 
L 2766 0 
L 2766 531 
Q 2569 213 2275 61 
Q 1981 -91 1556 -91 
Q 1019 -91 701 211 
Q 384 513 384 1019 
Q 384 1609 779 1909 
Q 1175 2209 1959 2209 
L 2766 2209 
L 2766 2266 
Q 2766 2663 2505 2880 
Q 2244 3097 1772 3097 
Q 1472 3097 1187 3025 
Q 903 2953 641 2809 
L 641 3341 
Q 956 3463 1253 3523 
Q 1550 3584 1831 3584 
Q 2591 3584 2966 3190 
Q 3341 2797 3341 1997 
z
" transform="scale(0.015625)"/>
       <path id="DejaVuSans-67" d="M 2906 1791 
Q 2906 2416 2648 2759 
Q 2391 3103 1925 3103 
Q 1463 3103 1205 2759 
Q 947 2416 947 1791 
Q 947 1169 1205 825 
Q 1463 481 1925 481 
Q 2391 481 2648 825 
Q 2906 1169 2906 1791 
z
M 3481 434 
Q 3481 -459 3084 -895 
Q 2688 -1331 1869 -1331 
Q 1566 -1331 1297 -1286 
Q 1028 -1241 775 -1147 
L 775 -588 
Q 1028 -725 1275 -790 
Q 1522 -856 1778 -856 
Q 2344 -856 2625 -561 
Q 2906 -266 2906 331 
L 2906 616 
Q 2728 306 2450 153 
Q 2172 0 1784 0 
Q 1141 0 747 490 
Q 353 981 353 1791 
Q 353 2603 747 3093 
Q 1141 3584 1784 3584 
Q 2172 3584 2450 3431 
Q 2728 3278 2906 2969 
L 2906 3500 
L 3481 3500 
L 3481 434 
z
" transform="scale(0.015625)"/>
       <path id="DejaVuSans-74" d="M 1172 4494 
L 1172 3500 
L 2356 3500 
L 2356 3053 
L 1172 3053 
L 1172 1153 
Q 1172 725 1289 603 
Q 1406 481 1766 481 
L 2356 481 
L 2356 0 
L 1766 0 
Q 1100 0 847 248 
Q 594 497 594 1153 
L 594 3053 
L 172 3053 
L 172 3500 
L 594 3500 
L 594 4494 
L 1172 4494 
z
" transform="scale(0.015625)"/>
      </defs>
      <use xlink:href="#DejaVuSans-54"/>
      <use xlink:href="#DejaVuSans-61" x="44.583984"/>
      <use xlink:href="#DejaVuSans-72" x="105.863281"/>
      <use xlink:href="#DejaVuSans-67" x="145.226562"/>
      <use xlink:href="#DejaVuSans-65" x="208.703125"/>
      <use xlink:href="#DejaVuSans-74" x="270.226562"/>
     </g>
    </g>
    <g id="line2d_52">
     <path d="M 300.84 389.98 
L 308.84 389.98 
L 316.84 389.98 
" style="fill: none; stroke: #2255a0; stroke-opacity: 0.9; stroke-width: 1.5; stroke-linecap: square"/>
    </g>
    <g id="text_31">
     <!-- Approximation -->
     <g transform="translate(323.24 392.78) scale(0.08 -0.08)">
      <defs>
       <path id="DejaVuSans-41" d="M 2188 4044 
L 1331 1722 
L 3047 1722 
L 2188 4044 
z
M 1831 4666 
L 2547 4666 
L 4325 0 
L 3669 0 
L 3244 1197 
L 1141 1197 
L 716 0 
L 50 0 
L 1831 4666 
z
" transform="scale(0.015625)"/>
       <path id="DejaVuSans-70" d="M 1159 525 
L 1159 -1331 
L 581 -1331 
L 581 3500 
L 1159 3500 
L 1159 2969 
Q 1341 3281 1617 3432 
Q 1894 3584 2278 3584 
Q 2916 3584 3314 3078 
Q 3713 2572 3713 1747 
Q 3713 922 3314 415 
Q 2916 -91 2278 -91 
Q 1894 -91 1617 61 
Q 1341 213 1159 525 
z
M 3116 1747 
Q 3116 2381 2855 2742 
Q 2594 3103 2138 3103 
Q 1681 3103 1420 2742 
Q 1159 2381 1159 1747 
Q 1159 1113 1420 752 
Q 1681 391 2138 391 
Q 2594 391 2855 752 
Q 3116 1113 3116 1747 
z
" transform="scale(0.015625)"/>
       <path id="DejaVuSans-78" d="M 3513 3500 
L 2247 1797 
L 3578 0 
L 2900 0 
L 1881 1375 
L 863 0 
L 184 0 
L 1544 1831 
L 300 3500 
L 978 3500 
L 1906 2253 
L 2834 3500 
L 3513 3500 
z
" transform="scale(0.015625)"/>
       <path id="DejaVuSans-69" d="M 603 3500 
L 1178 3500 
L 1178 0 
L 603 0 
L 603 3500 
z
M 603 4863 
L 1178 4863 
L 1178 4134 
L 603 4134 
L 603 4863 
z
" transform="scale(0.015625)"/>
       <path id="DejaVuSans-6d" d="M 3328 2828 
Q 3544 3216 3844 3400 
Q 4144 3584 4550 3584 
Q 5097 3584 5394 3201 
Q 5691 2819 5691 2113 
L 5691 0 
L 5113 0 
L 5113 2094 
Q 5113 2597 4934 2840 
Q 4756 3084 4391 3084 
Q 3944 3084 3684 2787 
Q 3425 2491 3425 1978 
L 3425 0 
L 2847 0 
L 2847 2094 
Q 2847 2600 2669 2842 
Q 2491 3084 2119 3084 
Q 1678 3084 1418 2786 
Q 1159 2488 1159 1978 
L 1159 0 
L 581 0 
L 581 3500 
L 1159 3500 
L 1159 2956 
Q 1356 3278 1631 3431 
Q 1906 3584 2284 3584 
Q 2666 3584 2933 3390 
Q 3200 3197 3328 2828 
z
" transform="scale(0.015625)"/>
      </defs>
      <use xlink:href="#DejaVuSans-41"/>
      <use xlink:href="#DejaVuSans-70" x="68.408203"/>
      <use xlink:href="#DejaVuSans-70" x="131.884766"/>
      <use xlink:href="#DejaVuSans-72" x="195.361328"/>
      <use xlink:href="#DejaVuSans-6f" x="234.224609"/>
      <use xlink:href="#DejaVuSans-78" x="292.28125"/>
      <use xlink:href="#DejaVuSans-69" x="351.460938"/>
      <use xlink:href="#DejaVuSans-6d" x="379.244141"/>
      <use xlink:href="#DejaVuSans-61" x="476.65625"/>
      <use xlink:href="#DejaVuSans-74" x="537.935547"/>
      <use xlink:href="#DejaVuSans-69" x="577.144531"/>
      <use xlink:href="#DejaVuSans-6f" x="604.927734"/>
      <use xlink:href="#DejaVuSans-6e" x="666.109375"/>
     </g>
    </g>
   </g>
  </g>
 </g>
 <defs>
  <clipPath id="p22caa9c88d">
   <rect x="34.240625" y="7.2" width="354.559375" height="70.32875"/>
  </clipPath>
  <clipPath id="p2c5317933c">
   <rect x="34.240625" y="88.22875" width="354.559375" height="70.32875"/>
  </clipPath>
  <clipPath id="p32cd1c470d">
   <rect x="34.240625" y="169.2575" width="354.559375" height="70.32875"/>
  </clipPath>
  <clipPath id="pf8a4c1e019">
   <rect x="34.240625" y="250.28625" width="354.559375" height="70.32875"/>
  </clipPath>
  <clipPath id="p8509cd2b4e">
   <rect x="34.240625" y="331.315" width="354.559375" height="70.32875"/>
  </clipPath>
 </defs>
</svg>
