<svg class="main-svg" xmlns="http://www.w3.org/2000/svg" xmlns:xlink="http://www.w3.org/1999/xlink" width="665" height="200" viewBox="0 0 665 200" style=""><rect x="0" y="0" width="665" height="200" style="fill: rgb(255, 255, 255); fill-opacity: 1;"/><defs id="defs-6ff4cd"><g class="clips"><clipPath id="clip6ff4cdxyplot" class="plotclip"><rect width="532" height="183"/></clipPath><clipPath class="axesclip" id="clip6ff4cdx"><rect x="5" y="0" width="532" height="200"/></clipPath><clipPath class="axesclip" id="clip6ff4cdy"><rect x="0" y="12" width="665" height="183"/></clipPath><clipPath class="axesclip" id="clip6ff4cdxy"><rect x="5" y="12" width="532" height="183"/></clipPath></g><g class="gradients"/><g class="patterns"/></defs><g class="bglayer"/><g class="layer-below"><g class="imagelayer"/><g class="shapelayer"/></g><g class="cartesianlayer"><g class="subplot xy"><g class="layer-subplot"><g class="shapelayer"/><g class="imagelayer"/></g><g class="minor-gridlayer"><g class="x"/><g class="y"/></g><g class="gridlayer"><g class="x"/><g class="y"/></g><g class="zerolinelayer"/><g class="layer-between"><g class="shapelayer"/><g class="imagelayer"/></g><path class="xlines-below"/><path class="ylines-below"/><g class="overlines-below"/><g class="xaxislayer-below"/><g class="yaxislayer-below"/><g class="overaxes-below"/><g class="overplot"><g class="xy" transform="translate(5,12)" clip-path="url(#clip6ff4cdxyplot)"><g class="scatterlayer mlayer"><g class="trace scatter trace77d0ab" style="stroke-miterlimit: 2; opacity: 1;"><g class="fills"/><g class="errorbars"/><g class="lines"/><g class="points"/><g class="text"/></g><g class="trace scatter trace2f5bc2" style="stroke-miterlimit: 2; opacity: 1;"><g class="fills"/><g class="errorbars"/><g class="lines"/><g class="points"/><g class="text"/></g><g class="trace scatter tracebe36bd" style="stroke-miterlimit: 2; opacity: 1;"><g class="fills"/><g class="errorbars"/><g class="lines"/><g class="points"/><g class="text"/></g></g></g></g><g class="zerolinelayer-above"/><path class="xlines-above crisp" d="M0,0" style="fill: none;"/><path class="ylines-above crisp" d="M0,0" style="fill: none;"/><g class="overlines-above"/><g class="xaxislayer-above"/><g class="yaxislayer-above"/><g class="overaxes-above"/></g></g><g class="polarlayer"/><g class="smithlayer"/><g class="ternarylayer"/><g class="geolayer"/><g class="funnelarealayer"/><g class="pielayer"/><g class="iciclelayer"/><g class="treemaplayer"/><g class="sunburstlayer"/><g class="glimages"/><g class="sankey" transform="translate(5,12)matrix(1 0 0 1 0 0)" style="box-sizing: content-box; position: absolute; left: 0px; shape-rendering: geometricprecision; pointer-events: none;"><g class="sankey-links" style="fill: none;"><path class="sankey-link" d="M12,132.2844953372627C136,132.2844953372627 136,150.95454545454544 260,150.95454545454544L260,183C136,183 136,164.32994988271727 12,164.32994988271727Z" style="stroke: rgb(68, 68, 68); stroke-opacity: 1; fill: rgb(150, 150, 150); fill-opacity: 0.45; stroke-width: 0; opacity: 1;"/><path class="sankey-link" d="M12,23.329949882717266C136,23.329949882717266 136,35.99999999999991 260,35.99999999999991L260,144.95454545454535C136,144.95454545454535 136,132.2844953372627 12,132.2844953372627Z" style="stroke: rgb(68, 68, 68); stroke-opacity: 1; fill: rgb(150, 150, 150); fill-opacity: 0.45; stroke-width: 0; opacity: 1;"/><path class="sankey-link" d="M272,157.36363636363635C396,157.36363636363635 396,60.47727272727289 520,60.47727272727289L520,66.8863636363638C396,66.8863636363638 396,163.77272727272728 272,163.77272727272728Z" style="stroke: rgb(68, 68, 68); stroke-opacity: 1; fill: rgb(31, 119, 180); fill-opacity: 0.45; stroke-width: 0; opacity: 1;"/><path class="sankey-link" d="M272,163.77272727272725C396,163.77272727272725 396,92.11363636363643 520,92.11363636363643L520,98.52272727272734C396,98.52272727272734 396,170.1818181818182 272,170.1818181818182Z" style="stroke: rgb(68, 68, 68); stroke-opacity: 1; fill: rgb(31, 119, 180); fill-opacity: 0.45; stroke-width: 0; opacity: 1;"/><path class="sankey-link" d="M272,150.95454545454544C396,150.95454545454544 396,25.636363636363765 520,25.636363636363765L520,32.045454545454675C396,32.045454545454675 396,157.36363636363637 272,157.36363636363637Z" style="stroke: rgb(68, 68, 68); stroke-opacity: 1; fill: rgb(31, 119, 180); fill-opacity: 0.45; stroke-width: 0; opacity: 1;"/><path class="sankey-link" d="M272,170.18181818181816C396,170.18181818181816 396,114.13636363636373 520,114.13636363636373L520,117.3409090909092C396,117.3409090909092 396,173.3863636363636 272,173.3863636363636Z" style="stroke: rgb(68, 68, 68); stroke-opacity: 1; fill: rgb(31, 119, 180); fill-opacity: 0.45; stroke-width: 0; opacity: 1;"/><path class="sankey-link" d="M272,173.38636363636363C396,173.38636363636363 396,132.95454545454555 520,132.95454545454555L520,136.159090909091C396,136.159090909091 396,176.59090909090907 272,176.59090909090907Z" style="stroke: rgb(68, 68, 68); stroke-opacity: 1; fill: rgb(31, 119, 180); fill-opacity: 0.45; stroke-width: 0; opacity: 1;"/><path class="sankey-link" d="M272,179.79545454545456C396,179.79545454545456 396,167.38636363636365 520,167.38636363636365L520,170.5909090909091C396,170.5909090909091 396,183 272,183Z" style="stroke: rgb(68, 68, 68); stroke-opacity: 1; fill: rgb(31, 119, 180); fill-opacity: 0.45; stroke-width: 0; opacity: 1;"/><path class="sankey-link" d="M272,176.5909090909091C396,176.5909090909091 396,151.7727272727273 520,151.7727272727273L520,154.97727272727275C396,154.97727272727275 396,179.79545454545453 272,179.79545454545453Z" style="stroke: rgb(68, 68, 68); stroke-opacity: 1; fill: rgb(31, 119, 180); fill-opacity: 0.45; stroke-width: 0; opacity: 1;"/><path class="sankey-link" d="M272,61.63636363636354C396,61.63636363636354 396,38.0454545454547 520,38.0454545454547L520,60.47727272727289C396,60.47727272727289 396,84.06818181818173 272,84.06818181818173Z" style="stroke: rgb(68, 68, 68); stroke-opacity: 1; fill: rgb(255, 127, 14); fill-opacity: 0.45; stroke-width: 0; opacity: 1;"/><path class="sankey-link" d="M272,84.06818181818173C396,84.06818181818173 396,72.88636363636371 520,72.88636363636371L520,92.11363636363643C396,92.11363636363643 396,103.29545454545445 272,103.29545454545445Z" style="stroke: rgb(68, 68, 68); stroke-opacity: 1; fill: rgb(255, 127, 14); fill-opacity: 0.45; stroke-width: 0; opacity: 1;"/><path class="sankey-link" d="M272,35.99999999999991C396,35.99999999999991 396,1.2789769243681803e-13 520,1.2789769243681803e-13L520,25.636363636363765C396,25.636363636363765 396,61.63636363636355 272,61.63636363636355Z" style="stroke: rgb(68, 68, 68); stroke-opacity: 1; fill: rgb(255, 127, 14); fill-opacity: 0.45; stroke-width: 0; opacity: 1;"/><path class="sankey-link" d="M272,103.29545454545445C396,103.29545454545445 396,104.52272727272737 520,104.52272727272737L520,114.13636363636374C396,114.13636363636374 396,112.90909090909082 272,112.90909090909082Z" style="stroke: rgb(68, 68, 68); stroke-opacity: 1; fill: rgb(255, 127, 14); fill-opacity: 0.45; stroke-width: 0; opacity: 1;"/><path class="sankey-link" d="M272,112.9090909090908C396,112.9090909090908 396,123.34090909090918 520,123.34090909090918L520,132.95454545454555C396,132.95454545454555 396,122.52272727272718 272,122.52272727272718Z" style="stroke: rgb(68, 68, 68); stroke-opacity: 1; fill: rgb(255, 127, 14); fill-opacity: 0.45; stroke-width: 0; opacity: 1;"/><path class="sankey-link" d="M272,132.13636363636354C396,132.13636363636354 396,160.97727272727275 520,160.97727272727275L520,167.38636363636368C396,167.38636363636368 396,138.54545454545448 272,138.54545454545448Z" style="stroke: rgb(68, 68, 68); stroke-opacity: 1; fill: rgb(255, 127, 14); fill-opacity: 0.45; stroke-width: 0; opacity: 1;"/><path class="sankey-link" d="M272,122.52272727272717C396,122.52272727272717 396,142.15909090909093 520,142.15909090909093L520,151.7727272727273C396,151.7727272727273 396,132.13636363636354 272,132.13636363636354Z" style="stroke: rgb(68, 68, 68); stroke-opacity: 1; fill: rgb(255, 127, 14); fill-opacity: 0.45; stroke-width: 0; opacity: 1;"/><path class="sankey-link" d="M272,138.54545454545445C396,138.54545454545445 396,176.59090909090912 520,176.59090909090912L520,183.00000000000006C396,183.00000000000006 396,144.95454545454538 272,144.95454545454538Z" style="stroke: rgb(68, 68, 68); stroke-opacity: 1; fill: rgb(255, 127, 14); fill-opacity: 0.45; stroke-width: 0; opacity: 1;"/></g><g class="sankey-node-set" style="cursor: move;"><g class="sankey-node" transform="translate(0.000,23.330)" style="opacity: 1;"><rect class="node-rect" width="12" height="141.00000000000003" style="stroke-width: 0; stroke: rgb(68, 68, 68); stroke-opacity: 1; fill: rgb(108, 117, 125); fill-opacity: 1;"/><text class="node-label" data-notex="1" x="0" y="0" text-anchor="start" transform="translate(15,74.35000000000001)" style="cursor: default; font-family: 'Open Sans', verdana, arial, sans-serif; font-size: 11px; fill: rgb(0, 0, 0); fill-opacity: 1; text-shadow: rgb(255, 255, 255) 1px 1px 1px, rgb(255, 255, 255) -1px -1px 1px, rgb(255, 255, 255) 1px -1px 1px, rgb(255, 255, 255) -1px 1px 1px; white-space: pre;">All studies (44)</text></g><g class="sankey-node" transform="translate(260.000,150.955)" style="opacity: 1;"><rect class="node-rect" width="12" height="32.04545454545456" style="stroke-width: 0; stroke: rgb(68, 68, 68); stroke-opacity: 1; fill: rgb(31, 119, 180); fill-opacity: 1;"/><text class="node-label" data-notex="1" x="0" y="0" text-anchor="start" transform="translate(15,19.872727272727282)" style="cursor: default; font-family: 'Open Sans', verdana, arial, sans-serif; font-size: 11px; fill: rgb(0, 0, 0); fill-opacity: 1; text-shadow: rgb(255, 255, 255) 1px 1px 1px, rgb(255, 255, 255) -1px -1px 1px, rgb(255, 255, 255) 1px -1px 1px, rgb(255, 255, 255) -1px 1px 1px; white-space: pre;">Forward problems</text></g><g class="sankey-node" transform="translate(260.000,36.000)" style="opacity: 1;"><rect class="node-rect" width="12" height="108.95454545454552" style="stroke-width: 0; stroke: rgb(68, 68, 68); stroke-opacity: 1; fill: rgb(255, 127, 14); fill-opacity: 1;"/><text class="node-label" data-notex="1" x="0" y="0" text-anchor="start" transform="translate(15,58.327272727272764)" style="cursor: default; font-family: 'Open Sans', verdana, arial, sans-serif; font-size: 11px; fill: rgb(0, 0, 0); fill-opacity: 1; text-shadow: rgb(255, 255, 255) 1px 1px 1px, rgb(255, 255, 255) -1px -1px 1px, rgb(255, 255, 255) 1px -1px 1px, rgb(255, 255, 255) -1px 1px 1px; white-space: pre;">Inverse problems</text></g><g class="sankey-node" transform="translate(520.000,38.045)" style="opacity: 1;"><rect class="node-rect" width="12" height="28.84090909090901" style="stroke-width: 0; stroke: rgb(68, 68, 68); stroke-opacity: 1; fill: rgb(76, 120, 168); fill-opacity: 1;"/><text class="node-label" data-notex="1" x="0" y="0" text-anchor="end" transform="translate(-3,18.270454545454506)" style="cursor: default; font-family: 'Open Sans', verdana, arial, sans-serif; font-size: 11px; fill: rgb(0, 0, 0); fill-opacity: 1; text-shadow: rgb(255, 255, 255) 1px 1px 1px, rgb(255, 255, 255) -1px -1px 1px, rgb(255, 255, 255) 1px -1px 1px, rgb(255, 255, 255) -1px 1px 1px; white-space: pre;">Neural operators</text></g><g class="sankey-node" transform="translate(520.000,72.886)" style="opacity: 1;"><rect class="node-rect" width="12" height="25.636363636363654" style="stroke-width: 0; stroke: rgb(68, 68, 68); stroke-opacity: 1; fill: rgb(76, 120, 168); fill-opacity: 1;"/><text class="node-label" data-notex="1" x="0" y="0" text-anchor="end" transform="translate(-3,16.66818181818183)" style="cursor: default; font-family: 'Open Sans', verdana, arial, sans-serif; font-size: 11px; fill: rgb(0, 0, 0); fill-opacity: 1; text-shadow: rgb(255, 255, 255) 1px 1px 1px, rgb(255, 255, 255) -1px -1px 1px, rgb(255, 255, 255) 1px -1px 1px, rgb(255, 255, 255) -1px 1px 1px; white-space: pre;">Convolutional</text></g><g class="sankey-node" transform="translate(520.000,0.000)" style="opacity: 1;"><rect class="node-rect" width="12" height="32.045454545454575" style="stroke-width: 0; stroke: rgb(68, 68, 68); stroke-opacity: 1; fill: rgb(76, 120, 168); fill-opacity: 1;"/><text class="node-label" data-notex="1" x="0" y="0" text-anchor="end" transform="translate(-3,19.87272727272729)" style="cursor: default; font-family: 'Open Sans', verdana, arial, sans-serif; font-size: 11px; fill: rgb(0, 0, 0); fill-opacity: 1; text-shadow: rgb(255, 255, 255) 1px 1px 1px, rgb(255, 255, 255) -1px -1px 1px, rgb(255, 255, 255) 1px -1px 1px, rgb(255, 255, 255) -1px 1px 1px; white-space: pre;">PINNs</text></g><g class="sankey-node" transform="translate(520.000,104.523)" style="opacity: 1;"><rect class="node-rect" width="12" height="12.818181818181813" style="stroke-width: 0; stroke: rgb(68, 68, 68); stroke-opacity: 1; fill: rgb(178, 121, 162); fill-opacity: 1;"/><text class="node-label" data-notex="1" x="0" y="0" text-anchor="end" transform="translate(-3,10.259090909090906)" style="cursor: default; font-family: 'Open Sans', verdana, arial, sans-serif; font-size: 11px; fill: rgb(0, 0, 0); fill-opacity: 1; text-shadow: rgb(255, 255, 255) 1px 1px 1px, rgb(255, 255, 255) -1px -1px 1px, rgb(255, 255, 255) 1px -1px 1px, rgb(255, 255, 255) -1px 1px 1px; white-space: pre;">Gaussian processes</text></g><g class="sankey-node" transform="translate(520.000,123.341)" style="opacity: 1;"><rect class="node-rect" width="12" height="12.818181818181756" style="stroke-width: 0; stroke: rgb(68, 68, 68); stroke-opacity: 1; fill: rgb(76, 120, 168); fill-opacity: 1;"/><text class="node-label" data-notex="1" x="0" y="0" text-anchor="end" transform="translate(-3,10.259090909090878)" style="cursor: default; font-family: 'Open Sans', verdana, arial, sans-serif; font-size: 11px; fill: rgb(0, 0, 0); fill-opacity: 1; text-shadow: rgb(255, 255, 255) 1px 1px 1px, rgb(255, 255, 255) -1px -1px 1px, rgb(255, 255, 255) 1px -1px 1px, rgb(255, 255, 255) -1px 1px 1px; white-space: pre;">Recurrent</text></g><g class="sankey-node" transform="translate(520.000,160.977)" style="opacity: 1;"><rect class="node-rect" width="12" height="9.613636363636374" style="stroke-width: 0; stroke: rgb(68, 68, 68); stroke-opacity: 1; fill: rgb(76, 120, 168); fill-opacity: 1;"/><text class="node-label" data-notex="1" x="0" y="0" text-anchor="end" transform="translate(-3,8.656818181818187)" style="cursor: default; font-family: 'Open Sans', verdana, arial, sans-serif; font-size: 11px; fill: rgb(0, 0, 0); fill-opacity: 1; text-shadow: rgb(255, 255, 255) 1px 1px 1px, rgb(255, 255, 255) -1px -1px 1px, rgb(255, 255, 255) 1px -1px 1px, rgb(255, 255, 255) -1px 1px 1px; white-space: pre;">Generative adversarial</text></g><g class="sankey-node" transform="translate(520.000,142.159)" style="opacity: 1;"><rect class="node-rect" width="12" height="12.818181818181813" style="stroke-width: 0; stroke: rgb(68, 68, 68); stroke-opacity: 1; fill: rgb(158, 158, 158); fill-opacity: 1;"/><text class="node-label" data-notex="1" x="0" y="0" text-anchor="end" transform="translate(-3,10.259090909090906)" style="cursor: default; font-family: 'Open Sans', verdana, arial, sans-serif; font-size: 11px; fill: rgb(0, 0, 0); fill-opacity: 1; text-shadow: rgb(255, 255, 255) 1px 1px 1px, rgb(255, 255, 255) -1px -1px 1px, rgb(255, 255, 255) 1px -1px 1px, rgb(255, 255, 255) -1px 1px 1px; white-space: pre;">Finite differences</text></g><g class="sankey-node" transform="translate(520.000,176.591)" style="opacity: 1;"><rect class="node-rect" width="12" height="6.409090909090878" style="stroke-width: 0; stroke: rgb(68, 68, 68); stroke-opacity: 1; fill: rgb(158, 158, 158); fill-opacity: 1;"/><text class="node-label" data-notex="1" x="0" y="0" text-anchor="end" transform="translate(-3,7.054545454545439)" style="cursor: default; font-family: 'Open Sans', verdana, arial, sans-serif; font-size: 11px; fill: rgb(0, 0, 0); fill-opacity: 1; text-shadow: rgb(255, 255, 255) 1px 1px 1px, rgb(255, 255, 255) -1px -1px 1px, rgb(255, 255, 255) 1px -1px 1px, rgb(255, 255, 255) -1px 1px 1px; white-space: pre;">Spectral elements</text></g></g></g><defs id="topdefs-6ff4cd"><g class="clips"/><clipPath id="legend6ff4cd"><rect width="128" height="87" x="0" y="0"/></clipPath></defs><g class="layer-above"><g class="imagelayer"/><g class="shapelayer"/></g><g class="infolayer"><g class="legend" pointer-events="all" transform="translate(531.68,5.099999999999994)"><rect class="bg" shape-rendering="crispEdges" style="stroke: rgb(68, 68, 68); stroke-opacity: 1; fill: rgb(0, 0, 0); fill-opacity: 0; stroke-width: 0px;" width="128" height="87" x="0" y="0"/><g class="scrollbox" transform="" clip-path="url(#legend6ff4cd)"><g class="groups" transform=""><g class="traces" transform="translate(0,14.5)" style="opacity: 1;"><text class="legendtext" text-anchor="start" x="40" y="3.5100000000000002" style="font-family: 'Open Sans', verdana, arial, sans-serif; font-size: 9px; fill: rgb(0, 0, 0); fill-opacity: 1; white-space: pre;">Machine learning</text><g class="layers" style="opacity: 1;"><g class="legendfill"/><g class="legendlines"/><g class="legendsymbols"><g class="legendpoints"><path class="scatterpts" transform="translate(20,0)" d="M5,0A5,5 0 1,1 0,-5A5,5 0 0,1 5,0Z" style="opacity: 1; stroke-width: 0px; fill: rgb(76, 120, 168); fill-opacity: 1;"/></g></g></g><rect class="legendtoggle" x="0" y="-9.5" width="122.5" height="19" style="fill: rgb(0, 0, 0); fill-opacity: 0;"/></g></g><g class="groups" transform="translate(0,10)"><g class="traces" transform="translate(0,33.5)" style="opacity: 1;"><text class="legendtext" text-anchor="start" x="40" y="3.5100000000000002" style="font-family: 'Open Sans', verdana, arial, sans-serif; font-size: 9px; fill: rgb(0, 0, 0); fill-opacity: 1; white-space: pre;">Standard numerical</text><g class="layers" style="opacity: 1;"><g class="legendfill"/><g class="legendlines"/><g class="legendsymbols"><g class="legendpoints"><path class="scatterpts" transform="translate(20,0)" d="M5,0A5,5 0 1,1 0,-5A5,5 0 0,1 5,0Z" style="opacity: 1; stroke-width: 0px; fill: rgb(158, 158, 158); fill-opacity: 1;"/></g></g></g><rect class="legendtoggle" x="0" y="-9.5" width="122.5" height="19" style="fill: rgb(0, 0, 0); fill-opacity: 0;"/></g></g><g class="groups" transform="translate(0,20)"><g class="traces" transform="translate(0,52.5)" style="opacity: 1;"><text class="legendtext" text-anchor="start" x="40" y="3.5100000000000002" style="font-family: 'Open Sans', verdana, arial, sans-serif; font-size: 9px; fill: rgb(0, 0, 0); fill-opacity: 1; white-space: pre;">Probabilistic</text><g class="layers" style="opacity: 1;"><g class="legendfill"/><g class="legendlines"/><g class="legendsymbols"><g class="legendpoints"><path class="scatterpts" transform="translate(20,0)" d="M5,0A5,5 0 1,1 0,-5A5,5 0 0,1 5,0Z" style="opacity: 1; stroke-width: 0px; fill: rgb(178, 121, 162); fill-opacity: 1;"/></g></g></g><rect class="legendtoggle" x="0" y="-9.5" width="122.5" height="19" style="fill: rgb(0, 0, 0); fill-opacity: 0;"/></g></g></g><rect class="scrollbar" rx="20" ry="3" width="0" height="0" style="fill: rgb(128, 139, 164); fill-opacity: 1;" x="0" y="0"/></g><g class="g-gtitle"/><g class="first-render"/></g></svg>