<?xml version="1.0" encoding="utf-8" standalone="no"?>
<!DOCTYPE svg PUBLIC "-//W3C//DTD SVG 1.1//EN"
  "http://www.w3.org/Graphics/SVG/1.1/DTD/svg11.dtd">
<svg xmlns:xlink="http://www.w3.org/1999/xlink" width="387.897391pt" height="151.2pt" viewBox="0 0 387.897391 151.2" xmlns="http://www.w3.org/2000/svg" version="1.1">
 <metadata>
  <rdf:RDF xmlns:dc="http://purl.org/dc/elements/1.1/" xmlns:cc="http://creativecommons.org/ns#" xmlns:rdf="http://www.w3.org/1999/02/22-rdf-syntax-ns#">
   <cc:Work>
    <dc:type rdf:resource="http://purl.org/dc/dcmitype/StillImage"/>
    <dc:date>2025-10-13T17:58:03.258264</dc:date>
    <dc:format>image/svg+xml</dc:format>
    <dc:creator>
     <cc:Agent>
      <dc:title>Matplotlib v3.8.4, https://matplotlib.org/</dc:title>
     </cc:Agent>
    </dc:creator>
   </cc:Work>
  </rdf:RDF>
 </metadata>
 <defs>
  <style type="text/css">*{stroke-linejoin: round; stroke-linecap: butt}</style>
 </defs>
 <g id="figure_1">
  <g id="patch_1">
   <path d="M 0 151.2 
L 387.897391 151.2 
L 387.897391 0 
L 0 0 
z
" style="fill: #ffffff"/>
  </g>
  <g id="axes_1">
   <g id="line2d_1">
    <path d="M 14.639863 152.2 
L 17.782907 144.795687 
L 21.039186 137.596308 
L 24.295464 130.862697 
L 27.551743 124.582372 
L 30.808022 118.74285 
L 34.064301 113.331648 
L 37.32058 108.336282 
L 40.576859 103.744271 
L 43.833138 99.54313 
L 47.089417 95.720378 
L 50.345696 92.263531 
L 53.601975 89.160106 
L 56.858254 86.39762 
L 60.114533 83.963591 
L 63.370812 81.845536 
L 66.627091 80.030972 
L 69.88337 78.507415 
L 73.139649 77.262383 
L 76.395928 76.283393 
L 79.652207 75.557962 
L 82.908486 75.073607 
L 86.164764 74.817846 
L 89.421043 74.778195 
L 92.677322 74.942171 
L 95.933601 75.297292 
L 100.00395 75.990973 
L 104.074299 76.939432 
L 108.144647 78.118289 
L 112.214996 79.503162 
L 117.099414 81.402624 
L 122.797903 83.893036 
L 129.310461 87.01911 
L 137.451158 91.200255 
L 156.988832 101.361 
L 163.501389 104.437923 
L 169.199878 106.869967 
L 174.084296 108.70799 
L 178.154645 110.033618 
L 182.224993 111.145916 
L 186.295342 112.020502 
L 190.365691 112.632995 
L 193.62197 112.9179 
L 196.878249 113.006978 
L 200.134528 112.887749 
L 203.390807 112.547728 
L 206.647086 111.974432 
L 209.903364 111.15538 
L 213.159643 110.078087 
L 216.415922 108.730071 
L 219.672201 107.098849 
L 222.92848 105.171938 
L 226.184759 102.936856 
L 229.441038 100.381118 
L 232.697317 97.492244 
L 235.953596 94.257748 
L 239.209875 90.665149 
L 242.466154 86.701964 
L 245.722433 82.35571 
L 248.978712 77.613903 
L 252.234991 72.464062 
L 255.49127 66.893702 
L 258.747549 60.890342 
L 262.003828 54.441498 
L 265.260107 47.534687 
L 268.516386 40.157427 
L 271.772664 32.297234 
L 275.028943 23.941625 
L 278.285222 15.078119 
L 282.355571 3.265486 
L 283.757783 -1 
L 283.757783 -1 
" clip-path="url(#pf15bd7e0db)" style="fill: none; stroke: #afafaf; stroke-width: 5; stroke-linecap: square"/>
   </g>
   <g id="line2d_2">
    <path d="M 14.473075 152.2 
L 47.903487 89.091478 
L 87.792904 72.725101 
L 88.606974 72.540936 
L 129.310461 85.87793 
L 169.199878 107.843188 
L 170.013947 108.124977 
L 209.903364 113.776831 
L 210.717434 113.396677 
L 250.606851 80.201497 
L 251.420921 78.536619 
L 283.892041 -1 
L 283.892041 -1 
" clip-path="url(#pf15bd7e0db)" style="fill: none; stroke: #2255a0; stroke-linecap: square"/>
   </g>
   <g id="line2d_3">
    <path d="M 14.473075 152.2 
L 47.903487 89.091478 
L 87.792904 72.725101 
L 88.606974 72.540936 
L 129.310461 85.87793 
L 169.199878 107.843188 
L 170.013947 108.124977 
L 209.903364 113.776831 
L 210.717434 113.396677 
L 250.606851 80.201497 
L 251.420921 78.536619 
L 283.892041 -1 
L 283.892041 -1 
" clip-path="url(#pf15bd7e0db)" style="fill: none; stroke: #2760ae; stroke-linecap: square"/>
   </g>
   <g id="line2d_4">
    <path d="M 14.473075 152.2 
L 47.903487 89.091478 
L 87.792904 72.725101 
L 88.606974 72.540936 
L 129.310461 85.87793 
L 169.199878 107.843188 
L 170.013947 108.124977 
L 209.903364 113.776831 
L 210.717434 113.396677 
L 332.013825 12.456252 
L 332.013825 12.456252 
" clip-path="url(#pf15bd7e0db)" style="fill: none; stroke: #2c6cbb; stroke-linecap: square"/>
   </g>
   <g id="line2d_5">
    <path d="M 14.473075 152.2 
L 47.903487 89.091478 
L 87.792904 72.725101 
L 88.606974 72.540936 
L 129.310461 85.87793 
L 169.199878 107.843188 
L 170.013947 108.124977 
L 332.013825 131.078452 
L 332.013825 131.078452 
" clip-path="url(#pf15bd7e0db)" style="fill: none; stroke: #3177c9; stroke-linecap: square"/>
   </g>
   <g id="line2d_6">
    <path d="M 14.473075 152.2 
L 47.903487 89.091478 
L 87.792904 72.725101 
L 88.606974 72.540936 
L 129.310461 85.87793 
L 249.75291 152.2 
L 249.75291 152.2 
" clip-path="url(#pf15bd7e0db)" style="fill: none; stroke: #3683d6; stroke-linecap: square"/>
   </g>
   <g id="line2d_7">
    <path d="M 14.473075 152.2 
L 47.903487 89.091478 
L 87.792904 72.725101 
L 88.606974 72.540936 
L 332.013825 151.886039 
L 332.013825 151.886039 
" clip-path="url(#pf15bd7e0db)" style="fill: none; stroke: #3b8ee4; stroke-linecap: square"/>
   </g>
   <g id="line2d_8">
    <path d="M 14.473075 152.2 
L 47.903487 89.091478 
L 267.481459 -1 
L 267.481459 -1 
" clip-path="url(#pf15bd7e0db)" style="fill: none; stroke: #409af1; stroke-linecap: square"/>
   </g>
   <g id="line2d_9">
    <path d="M 14.473075 152.2 
L 95.434089 -1 
L 95.434089 -1 
" clip-path="url(#pf15bd7e0db)" style="fill: none; stroke: #45a5ff; stroke-linecap: square"/>
   </g>
   <g id="legend_1">
    <g id="line2d_10">
     <path d="M 14.4 20.718125 
L 22.4 20.718125 
L 30.4 20.718125 
" style="fill: none; stroke: #afafaf; stroke-width: 5; stroke-linecap: square"/>
    </g>
    <g id="text_1">
     <!-- $f(x)$ -->
     <g transform="translate(36.8 23.518125) scale(0.08 -0.08)">
      <defs>
       <path id="DejaVuSans-Oblique-66" d="M 3059 4863 
L 2969 4384 
L 2419 4384 
Q 2106 4384 1964 4261 
Q 1822 4138 1753 3809 
L 1691 3500 
L 2638 3500 
L 2553 3053 
L 1606 3053 
L 1013 0 
L 434 0 
L 1031 3053 
L 481 3053 
L 563 3500 
L 1113 3500 
L 1159 3744 
Q 1278 4363 1576 4613 
Q 1875 4863 2516 4863 
L 3059 4863 
z
" transform="scale(0.015625)"/>
       <path id="DejaVuSans-28" d="M 1984 4856 
Q 1566 4138 1362 3434 
Q 1159 2731 1159 2009 
Q 1159 1288 1364 580 
Q 1569 -128 1984 -844 
L 1484 -844 
Q 1016 -109 783 600 
Q 550 1309 550 2009 
Q 550 2706 781 3412 
Q 1013 4119 1484 4856 
L 1984 4856 
z
" transform="scale(0.015625)"/>
       <path id="DejaVuSans-Oblique-78" d="M 3841 3500 
L 2234 1784 
L 3219 0 
L 2559 0 
L 1819 1388 
L 531 0 
L -166 0 
L 1556 1844 
L 641 3500 
L 1300 3500 
L 1972 2234 
L 3144 3500 
L 3841 3500 
z
" transform="scale(0.015625)"/>
       <path id="DejaVuSans-29" d="M 513 4856 
L 1013 4856 
Q 1481 4119 1714 3412 
Q 1947 2706 1947 2009 
Q 1947 1309 1714 600 
Q 1481 -109 1013 -844 
L 513 -844 
Q 928 -128 1133 580 
Q 1338 1288 1338 2009 
Q 1338 2731 1133 3434 
Q 928 4138 513 4856 
z
" transform="scale(0.015625)"/>
      </defs>
      <use xlink:href="#DejaVuSans-Oblique-66" transform="translate(0 0.015625)"/>
      <use xlink:href="#DejaVuSans-28" transform="translate(35.205078 0.015625)"/>
      <use xlink:href="#DejaVuSans-Oblique-78" transform="translate(74.21875 0.015625)"/>
      <use xlink:href="#DejaVuSans-29" transform="translate(133.398438 0.015625)"/>
     </g>
    </g>
   </g>
  </g>
  <g id="axes_2">
   <g id="patch_2">
    <path d="M 348.254516 139.296875 
L 354.707391 139.296875 
L 354.707391 10.239375 
L 348.254516 10.239375 
z
" style="fill: #ffffff"/>
   </g>
   <g id="QuadMesh_1">
    <path d="M 348.254516 139.296875 
L 354.707391 139.296875 
L 354.707391 123.164687 
L 348.254516 123.164687 
L 348.254516 139.296875 
" clip-path="url(#pc86e7e982b)" style="fill: #45a5ff"/>
    <path d="M 348.254516 123.164687 
L 354.707391 123.164687 
L 354.707391 107.0325 
L 348.254516 107.0325 
L 348.254516 123.164687 
" clip-path="url(#pc86e7e982b)" style="fill: #409af1; fill-opacity: 0.928852"/>
    <path d="M 348.254516 107.0325 
L 354.707391 107.0325 
L 354.707391 90.900312 
L 348.254516 90.900312 
L 348.254516 107.0325 
" clip-path="url(#pc86e7e982b)" style="fill: #3b8ee4; fill-opacity: 0.857703"/>
    <path d="M 348.254516 90.900312 
L 354.707391 90.900312 
L 354.707391 74.768125 
L 348.254516 74.768125 
L 348.254516 90.900312 
" clip-path="url(#pc86e7e982b)" style="fill: #3683d6; fill-opacity: 0.786555"/>
    <path d="M 348.254516 74.768125 
L 354.707391 74.768125 
L 354.707391 58.635937 
L 348.254516 58.635937 
L 348.254516 74.768125 
" clip-path="url(#pc86e7e982b)" style="fill: #3177c9; fill-opacity: 0.715406"/>
    <path d="M 348.254516 58.635937 
L 354.707391 58.635937 
L 354.707391 42.50375 
L 348.254516 42.50375 
L 348.254516 58.635937 
" clip-path="url(#pc86e7e982b)" style="fill: #2c6cbb; fill-opacity: 0.644258"/>
    <path d="M 348.254516 42.50375 
L 354.707391 42.50375 
L 354.707391 26.371562 
L 348.254516 26.371562 
L 348.254516 42.50375 
" clip-path="url(#pc86e7e982b)" style="fill: #2760ae; fill-opacity: 0.573109"/>
    <path d="M 348.254516 26.371562 
L 354.707391 26.371562 
L 354.707391 10.239375 
L 348.254516 10.239375 
L 348.254516 26.371562 
" clip-path="url(#pc86e7e982b)" style="fill: #2255a0; fill-opacity: 0.501961"/>
   </g>
   <g id="matplotlib.axis_1"/>
   <g id="matplotlib.axis_2">
    <g id="ytick_1">
     <g id="line2d_11">
      <defs>
       <path id="m26ad76d1b3" d="M 0 0 
L 3 0 
" style="stroke: #000000; stroke-width: 0.8"/>
      </defs>
      <g>
       <use xlink:href="#m26ad76d1b3" x="354.707391" y="139.296875" style="stroke: #000000; stroke-width: 0.8"/>
      </g>
     </g>
     <g id="text_2">
      <!-- 0 -->
      <g transform="translate(361.207391 142.33625) scale(0.08 -0.08)">
       <defs>
        <path id="DejaVuSans-30" d="M 2034 4250 
Q 1547 4250 1301 3770 
Q 1056 3291 1056 2328 
Q 1056 1369 1301 889 
Q 1547 409 2034 409 
Q 2525 409 2770 889 
Q 3016 1369 3016 2328 
Q 3016 3291 2770 3770 
Q 2525 4250 2034 4250 
z
M 2034 4750 
Q 2819 4750 3233 4129 
Q 3647 3509 3647 2328 
Q 3647 1150 3233 529 
Q 2819 -91 2034 -91 
Q 1250 -91 836 529 
Q 422 1150 422 2328 
Q 422 3509 836 4129 
Q 1250 4750 2034 4750 
z
" transform="scale(0.015625)"/>
       </defs>
       <use xlink:href="#DejaVuSans-30"/>
      </g>
     </g>
    </g>
    <g id="ytick_2">
     <g id="line2d_12">
      <g>
       <use xlink:href="#m26ad76d1b3" x="354.707391" y="123.164687" style="stroke: #000000; stroke-width: 0.8"/>
      </g>
     </g>
     <g id="text_3">
      <!-- 1 -->
      <g transform="translate(361.207391 126.204062) scale(0.08 -0.08)">
       <defs>
        <path id="DejaVuSans-31" d="M 794 531 
L 1825 531 
L 1825 4091 
L 703 3866 
L 703 4441 
L 1819 4666 
L 2450 4666 
L 2450 531 
L 3481 531 
L 3481 0 
L 794 0 
L 794 531 
z
" transform="scale(0.015625)"/>
       </defs>
       <use xlink:href="#DejaVuSans-31"/>
      </g>
     </g>
    </g>
    <g id="ytick_3">
     <g id="line2d_13">
      <g>
       <use xlink:href="#m26ad76d1b3" x="354.707391" y="107.0325" style="stroke: #000000; stroke-width: 0.8"/>
      </g>
     </g>
     <g id="text_4">
      <!-- 2 -->
      <g transform="translate(361.207391 110.071875) scale(0.08 -0.08)">
       <defs>
        <path id="DejaVuSans-32" d="M 1228 531 
L 3431 531 
L 3431 0 
L 469 0 
L 469 531 
Q 828 903 1448 1529 
Q 2069 2156 2228 2338 
Q 2531 2678 2651 2914 
Q 2772 3150 2772 3378 
Q 2772 3750 2511 3984 
Q 2250 4219 1831 4219 
Q 1534 4219 1204 4116 
Q 875 4013 500 3803 
L 500 4441 
Q 881 4594 1212 4672 
Q 1544 4750 1819 4750 
Q 2544 4750 2975 4387 
Q 3406 4025 3406 3419 
Q 3406 3131 3298 2873 
Q 3191 2616 2906 2266 
Q 2828 2175 2409 1742 
Q 1991 1309 1228 531 
z
" transform="scale(0.015625)"/>
       </defs>
       <use xlink:href="#DejaVuSans-32"/>
      </g>
     </g>
    </g>
    <g id="ytick_4">
     <g id="line2d_14">
      <g>
       <use xlink:href="#m26ad76d1b3" x="354.707391" y="90.900312" style="stroke: #000000; stroke-width: 0.8"/>
      </g>
     </g>
     <g id="text_5">
      <!-- 3 -->
      <g transform="translate(361.207391 93.939687) scale(0.08 -0.08)">
       <defs>
        <path id="DejaVuSans-33" d="M 2597 2516 
Q 3050 2419 3304 2112 
Q 3559 1806 3559 1356 
Q 3559 666 3084 287 
Q 2609 -91 1734 -91 
Q 1441 -91 1130 -33 
Q 819 25 488 141 
L 488 750 
Q 750 597 1062 519 
Q 1375 441 1716 441 
Q 2309 441 2620 675 
Q 2931 909 2931 1356 
Q 2931 1769 2642 2001 
Q 2353 2234 1838 2234 
L 1294 2234 
L 1294 2753 
L 1863 2753 
Q 2328 2753 2575 2939 
Q 2822 3125 2822 3475 
Q 2822 3834 2567 4026 
Q 2313 4219 1838 4219 
Q 1578 4219 1281 4162 
Q 984 4106 628 3988 
L 628 4550 
Q 988 4650 1302 4700 
Q 1616 4750 1894 4750 
Q 2613 4750 3031 4423 
Q 3450 4097 3450 3541 
Q 3450 3153 3228 2886 
Q 3006 2619 2597 2516 
z
" transform="scale(0.015625)"/>
       </defs>
       <use xlink:href="#DejaVuSans-33"/>
      </g>
     </g>
    </g>
    <g id="ytick_5">
     <g id="line2d_15">
      <g>
       <use xlink:href="#m26ad76d1b3" x="354.707391" y="74.768125" style="stroke: #000000; stroke-width: 0.8"/>
      </g>
     </g>
     <g id="text_6">
      <!-- 4 -->
      <g transform="translate(361.207391 77.8075) scale(0.08 -0.08)">
       <defs>
        <path id="DejaVuSans-34" d="M 2419 4116 
L 825 1625 
L 2419 1625 
L 2419 4116 
z
M 2253 4666 
L 3047 4666 
L 3047 1625 
L 3713 1625 
L 3713 1100 
L 3047 1100 
L 3047 0 
L 2419 0 
L 2419 1100 
L 313 1100 
L 313 1709 
L 2253 4666 
z
" transform="scale(0.015625)"/>
       </defs>
       <use xlink:href="#DejaVuSans-34"/>
      </g>
     </g>
    </g>
    <g id="ytick_6">
     <g id="line2d_16">
      <g>
       <use xlink:href="#m26ad76d1b3" x="354.707391" y="58.635937" style="stroke: #000000; stroke-width: 0.8"/>
      </g>
     </g>
     <g id="text_7">
      <!-- 5 -->
      <g transform="translate(361.207391 61.675312) scale(0.08 -0.08)">
       <defs>
        <path id="DejaVuSans-35" d="M 691 4666 
L 3169 4666 
L 3169 4134 
L 1269 4134 
L 1269 2991 
Q 1406 3038 1543 3061 
Q 1681 3084 1819 3084 
Q 2600 3084 3056 2656 
Q 3513 2228 3513 1497 
Q 3513 744 3044 326 
Q 2575 -91 1722 -91 
Q 1428 -91 1123 -41 
Q 819 9 494 109 
L 494 744 
Q 775 591 1075 516 
Q 1375 441 1709 441 
Q 2250 441 2565 725 
Q 2881 1009 2881 1497 
Q 2881 1984 2565 2268 
Q 2250 2553 1709 2553 
Q 1456 2553 1204 2497 
Q 953 2441 691 2322 
L 691 4666 
z
" transform="scale(0.015625)"/>
       </defs>
       <use xlink:href="#DejaVuSans-35"/>
      </g>
     </g>
    </g>
    <g id="ytick_7">
     <g id="line2d_17">
      <g>
       <use xlink:href="#m26ad76d1b3" x="354.707391" y="42.50375" style="stroke: #000000; stroke-width: 0.8"/>
      </g>
     </g>
     <g id="text_8">
      <!-- 6 -->
      <g transform="translate(361.207391 45.543125) scale(0.08 -0.08)">
       <defs>
        <path id="DejaVuSans-36" d="M 2113 2584 
Q 1688 2584 1439 2293 
Q 1191 2003 1191 1497 
Q 1191 994 1439 701 
Q 1688 409 2113 409 
Q 2538 409 2786 701 
Q 3034 994 3034 1497 
Q 3034 2003 2786 2293 
Q 2538 2584 2113 2584 
z
M 3366 4563 
L 3366 3988 
Q 3128 4100 2886 4159 
Q 2644 4219 2406 4219 
Q 1781 4219 1451 3797 
Q 1122 3375 1075 2522 
Q 1259 2794 1537 2939 
Q 1816 3084 2150 3084 
Q 2853 3084 3261 2657 
Q 3669 2231 3669 1497 
Q 3669 778 3244 343 
Q 2819 -91 2113 -91 
Q 1303 -91 875 529 
Q 447 1150 447 2328 
Q 447 3434 972 4092 
Q 1497 4750 2381 4750 
Q 2619 4750 2861 4703 
Q 3103 4656 3366 4563 
z
" transform="scale(0.015625)"/>
       </defs>
       <use xlink:href="#DejaVuSans-36"/>
      </g>
     </g>
    </g>
    <g id="ytick_8">
     <g id="line2d_18">
      <g>
       <use xlink:href="#m26ad76d1b3" x="354.707391" y="26.371562" style="stroke: #000000; stroke-width: 0.8"/>
      </g>
     </g>
     <g id="text_9">
      <!-- 7 -->
      <g transform="translate(361.207391 29.410937) scale(0.08 -0.08)">
       <defs>
        <path id="DejaVuSans-37" d="M 525 4666 
L 3525 4666 
L 3525 4397 
L 1831 0 
L 1172 0 
L 2766 4134 
L 525 4134 
L 525 4666 
z
" transform="scale(0.015625)"/>
       </defs>
       <use xlink:href="#DejaVuSans-37"/>
      </g>
     </g>
    </g>
    <g id="ytick_9">
     <g id="line2d_19">
      <g>
       <use xlink:href="#m26ad76d1b3" x="354.707391" y="10.239375" style="stroke: #000000; stroke-width: 0.8"/>
      </g>
     </g>
     <g id="text_10">
      <!-- 8 -->
      <g transform="translate(361.207391 13.27875) scale(0.08 -0.08)">
       <defs>
        <path id="DejaVuSans-38" d="M 2034 2216 
Q 1584 2216 1326 1975 
Q 1069 1734 1069 1313 
Q 1069 891 1326 650 
Q 1584 409 2034 409 
Q 2484 409 2743 651 
Q 3003 894 3003 1313 
Q 3003 1734 2745 1975 
Q 2488 2216 2034 2216 
z
M 1403 2484 
Q 997 2584 770 2862 
Q 544 3141 544 3541 
Q 544 4100 942 4425 
Q 1341 4750 2034 4750 
Q 2731 4750 3128 4425 
Q 3525 4100 3525 3541 
Q 3525 3141 3298 2862 
Q 3072 2584 2669 2484 
Q 3125 2378 3379 2068 
Q 3634 1759 3634 1313 
Q 3634 634 3220 271 
Q 2806 -91 2034 -91 
Q 1263 -91 848 271 
Q 434 634 434 1313 
Q 434 1759 690 2068 
Q 947 2378 1403 2484 
z
M 1172 3481 
Q 1172 3119 1398 2916 
Q 1625 2713 2034 2713 
Q 2441 2713 2670 2916 
Q 2900 3119 2900 3481 
Q 2900 3844 2670 4047 
Q 2441 4250 2034 4250 
Q 1625 4250 1398 4047 
Q 1172 3844 1172 3481 
z
" transform="scale(0.015625)"/>
       </defs>
       <use xlink:href="#DejaVuSans-38"/>
      </g>
     </g>
    </g>
    <g id="text_11">
     <!-- $\hat{f}_{N}(x)$ -->
     <g transform="translate(379.033641 83.928125) rotate(-90) scale(0.08 -0.08)">
      <defs>
       <path id="DejaVuSans-302" d="M -1831 5119 
L -1369 5119 
L -603 3944 
L -1038 3944 
L -1600 4709 
L -2163 3944 
L -2597 3944 
L -1831 5119 
z
M -1600 3584 
L -1600 3584 
z
" transform="scale(0.015625)"/>
       <path id="DejaVuSans-Oblique-4e" d="M 1081 4666 
L 1931 4666 
L 3219 666 
L 4000 4666 
L 4616 4666 
L 3706 0 
L 2853 0 
L 1569 4025 
L 788 0 
L 172 0 
L 1081 4666 
z
" transform="scale(0.015625)"/>
      </defs>
      <use xlink:href="#DejaVuSans-302" transform="translate(47.379395 33.015625)"/>
      <use xlink:href="#DejaVuSans-Oblique-66" transform="translate(0 0.53125)"/>
      <use xlink:href="#DejaVuSans-Oblique-4e" transform="translate(36.162109 -15.875) scale(0.7)"/>
      <use xlink:href="#DejaVuSans-28" transform="translate(91.259766 0.53125)"/>
      <use xlink:href="#DejaVuSans-Oblique-78" transform="translate(130.273438 0.53125)"/>
      <use xlink:href="#DejaVuSans-29" transform="translate(189.453125 0.53125)"/>
     </g>
    </g>
   </g>
   <g id="LineCollection_1"/>
   <g id="patch_3">
    <path d="M 348.254516 139.296875 
L 351.480954 139.296875 
L 354.707391 139.296875 
L 354.707391 10.239375 
L 351.480954 10.239375 
L 348.254516 10.239375 
L 348.254516 139.296875 
z
" style="fill: none; stroke: #000000; stroke-width: 0.8; stroke-linejoin: miter; stroke-linecap: square"/>
   </g>
  </g>
 </g>
 <defs>
  <clipPath id="pf15bd7e0db">
   <rect x="7.2" y="10.239375" width="324.813825" height="129.0575"/>
  </clipPath>
  <clipPath id="pc86e7e982b">
   <rect x="348.254516" y="10.239375" width="6.452875" height="129.0575"/>
  </clipPath>
 </defs>
</svg>
