<svg class="main-svg" xmlns="http://www.w3.org/2000/svg" xmlns:xlink="http://www.w3.org/1999/xlink" width="600" height="300" viewBox="0 0 600 300" style=""><rect x="0" y="0" width="600" height="300" style="fill: rgb(255, 255, 255); fill-opacity: 1;"/><defs id="defs-1c4916"><g class="clips"/><g class="gradients"/><g class="patterns"/></defs><g class="bglayer"/><g class="layer-below"><g class="imagelayer"/><g class="shapelayer"/></g><g class="cartesianlayer"/><g class="polarlayer"/><g class="smithlayer"/><g class="ternarylayer"/><g class="geolayer"/><g class="funnelarealayer"/><g class="pielayer"/><g class="iciclelayer"/><g class="treemaplayer"/><g class="sunburstlayer"/><g class="glimages"/><g class="sankey" transform="translate(5,5)matrix(1 0 0 1 0 0)" style="box-sizing: content-box; position: absolute; left: 0px; shape-rendering: geometricprecision; pointer-events: none;"><g class="sankey-links" style="fill: none;"><path class="sankey-link" d="M8,226.36363636363637C149.5,226.36363636363637 149.5,226.36363636363626 291,226.36363636363626L291,289.9999999999999C149.5,289.9999999999999 149.5,290 8,290Z" style="stroke: rgb(68, 68, 68); stroke-opacity: 1; fill: rgb(180, 180, 180); fill-opacity: 0.5; stroke-width: 0; opacity: 1;"/><path class="sankey-link" d="M8,10C149.5,10 149.5,-9.947598300641403e-14 291,-9.947598300641403e-14L291,216.36363636363626C149.5,216.36363636363626 149.5,226.36363636363635 8,226.36363636363635Z" style="stroke: rgb(68, 68, 68); stroke-opacity: 1; fill: rgb(180, 180, 180); fill-opacity: 0.5; stroke-width: 0; opacity: 1;"/><path class="sankey-link" d="M299,226.36363636363623C440.5,226.36363636363623 440.5,124.54545454545492 582,124.54545454545492L582,130.90909090909128C440.5,130.90909090909128 440.5,232.7272727272726 299,232.7272727272726Z" style="stroke: rgb(68, 68, 68); stroke-opacity: 1; fill: rgb(180, 180, 180); fill-opacity: 0.5; stroke-width: 0; opacity: 1;"/><path class="sankey-link" d="M299,232.7272727272726C440.5,232.7272727272726 440.5,147.27272727272762 582,147.27272727272762L582,153.636363636364C440.5,153.636363636364 440.5,239.09090909090898 299,239.09090909090898Z" style="stroke: rgb(68, 68, 68); stroke-opacity: 1; fill: rgb(180, 180, 180); fill-opacity: 0.5; stroke-width: 0; opacity: 1;"/><path class="sankey-link" d="M299,239.09090909090898C440.5,239.09090909090898 440.5,170.0000000000003 582,170.0000000000003L582,176.3636363636367C440.5,176.3636363636367 440.5,245.45454545454535 299,245.45454545454535Z" style="stroke: rgb(68, 68, 68); stroke-opacity: 1; fill: rgb(180, 180, 180); fill-opacity: 0.5; stroke-width: 0; opacity: 1;"/><path class="sankey-link" d="M299,245.45454545454535C440.5,245.45454545454535 440.5,192.727272727273 582,192.727272727273L582,199.09090909090938C440.5,199.09090909090938 440.5,251.81818181818173 299,251.81818181818173Z" style="stroke: rgb(68, 68, 68); stroke-opacity: 1; fill: rgb(180, 180, 180); fill-opacity: 0.5; stroke-width: 0; opacity: 1;"/><path class="sankey-link" d="M299,251.81818181818173C440.5,251.81818181818173 440.5,215.4545454545457 582,215.4545454545457L582,221.81818181818207C440.5,221.81818181818207 440.5,258.1818181818181 299,258.1818181818181Z" style="stroke: rgb(68, 68, 68); stroke-opacity: 1; fill: rgb(180, 180, 180); fill-opacity: 0.5; stroke-width: 0; opacity: 1;"/><path class="sankey-link" d="M299,258.1818181818181C440.5,258.1818181818181 440.5,238.18181818181844 582,238.18181818181844L582,244.54545454545482C440.5,244.54545454545482 440.5,264.54545454545445 299,264.54545454545445Z" style="stroke: rgb(68, 68, 68); stroke-opacity: 1; fill: rgb(180, 180, 180); fill-opacity: 0.5; stroke-width: 0; opacity: 1;"/><path class="sankey-link" d="M299,264.54545454545445C440.5,264.54545454545445 440.5,260.90909090909116 582,260.90909090909116L582,267.27272727272754C440.5,267.27272727272754 440.5,270.9090909090908 299,270.9090909090908Z" style="stroke: rgb(68, 68, 68); stroke-opacity: 1; fill: rgb(180, 180, 180); fill-opacity: 0.5; stroke-width: 0; opacity: 1;"/><path class="sankey-link" d="M299,270.9090909090908C440.5,270.9090909090908 440.5,283.6363636363636 582,283.6363636363636L582,290C440.5,290 440.5,277.2727272727272 299,277.2727272727272Z" style="stroke: rgb(68, 68, 68); stroke-opacity: 1; fill: rgb(180, 180, 180); fill-opacity: 0.5; stroke-width: 0; opacity: 1;"/><path class="sankey-link" d="M299,-1.0658141036401503e-13C440.5,-1.0658141036401503e-13 440.5,118.18181818181856 582,118.18181818181856L582,124.54545454545493C440.5,124.54545454545493 440.5,6.363636363636257 299,6.363636363636257Z" style="stroke: rgb(68, 68, 68); stroke-opacity: 1; fill: rgb(180, 180, 180); fill-opacity: 0.5; stroke-width: 0; opacity: 1;"/><path class="sankey-link" d="M299,6.363636363636257C440.5,6.363636363636257 440.5,140.90909090909125 582,140.90909090909125L582,147.27272727272762C440.5,147.27272727272762 440.5,12.72727272727262 299,12.72727272727262Z" style="stroke: rgb(68, 68, 68); stroke-opacity: 1; fill: rgb(180, 180, 180); fill-opacity: 0.5; stroke-width: 0; opacity: 1;"/><path class="sankey-link" d="M299,12.72727272727262C440.5,12.72727272727262 440.5,163.63636363636394 582,163.63636363636394L582,170.0000000000003C440.5,170.0000000000003 440.5,19.090909090908983 299,19.090909090908983Z" style="stroke: rgb(68, 68, 68); stroke-opacity: 1; fill: rgb(180, 180, 180); fill-opacity: 0.5; stroke-width: 0; opacity: 1;"/><path class="sankey-link" d="M299,19.090909090908987C440.5,19.090909090908987 440.5,186.36363636363663 582,186.36363636363663L582,192.727272727273C440.5,192.727272727273 440.5,25.454545454545347 299,25.454545454545347Z" style="stroke: rgb(68, 68, 68); stroke-opacity: 1; fill: rgb(180, 180, 180); fill-opacity: 0.5; stroke-width: 0; opacity: 1;"/><path class="sankey-link" d="M299,25.454545454545347C440.5,25.454545454545347 440.5,209.09090909090932 582,209.09090909090932L582,215.4545454545457C440.5,215.4545454545457 440.5,31.818181818181706 299,31.818181818181706Z" style="stroke: rgb(68, 68, 68); stroke-opacity: 1; fill: rgb(180, 180, 180); fill-opacity: 0.5; stroke-width: 0; opacity: 1;"/><path class="sankey-link" d="M299,31.818181818181714C440.5,31.818181818181714 440.5,231.81818181818207 582,231.81818181818207L582,238.18181818181844C440.5,238.18181818181844 440.5,38.18181818181807 299,38.18181818181807Z" style="stroke: rgb(68, 68, 68); stroke-opacity: 1; fill: rgb(180, 180, 180); fill-opacity: 0.5; stroke-width: 0; opacity: 1;"/><path class="sankey-link" d="M299,38.18181818181807C440.5,38.18181818181807 440.5,254.5454545454548 582,254.5454545454548L582,260.90909090909116C440.5,260.90909090909116 440.5,44.54545454545443 299,44.54545454545443Z" style="stroke: rgb(68, 68, 68); stroke-opacity: 1; fill: rgb(180, 180, 180); fill-opacity: 0.5; stroke-width: 0; opacity: 1;"/><path class="sankey-link" d="M299,44.54545454545443C440.5,44.54545454545443 440.5,277.27272727272725 582,277.27272727272725L582,283.6363636363636C440.5,283.6363636363636 440.5,50.90909090909079 299,50.90909090909079Z" style="stroke: rgb(68, 68, 68); stroke-opacity: 1; fill: rgb(180, 180, 180); fill-opacity: 0.5; stroke-width: 0; opacity: 1;"/></g><g class="sankey-node-set" style="cursor: move;"><g class="sankey-node" transform="translate(0.000,10.000)" style="opacity: 1;"><rect class="node-rect" width="8" height="280" style="stroke-width: 0; stroke: rgb(68, 68, 68); stroke-opacity: 1; fill: rgb(187, 187, 187); fill-opacity: 1;"/><text class="node-label" data-notex="1" x="0" y="0" text-anchor="start" transform="translate(11,143.15)" style="cursor: default; font-family: 'Open Sans', verdana, arial, sans-serif; font-size: 9px; fill: rgb(42, 63, 95); fill-opacity: 1; text-shadow: rgb(255, 255, 255) 1px 1px 1px, rgb(255, 255, 255) -1px -1px 1px, rgb(255, 255, 255) 1px -1px 1px, rgb(255, 255, 255) -1px 1px 1px; white-space: pre;">All studies (44)</text></g><g class="sankey-node" transform="translate(291.000,226.364)" style="opacity: 1;"><rect class="node-rect" width="8" height="63.63636363636377" style="stroke-width: 0; stroke: rgb(68, 68, 68); stroke-opacity: 1; fill: rgb(187, 187, 187); fill-opacity: 1;"/><text class="node-label" data-notex="1" x="0" y="0" text-anchor="start" transform="translate(11,34.96818181818188)" style="cursor: default; font-family: 'Open Sans', verdana, arial, sans-serif; font-size: 9px; fill: rgb(42, 63, 95); fill-opacity: 1; text-shadow: rgb(255, 255, 255) 1px 1px 1px, rgb(255, 255, 255) -1px -1px 1px, rgb(255, 255, 255) 1px -1px 1px, rgb(255, 255, 255) -1px 1px 1px; white-space: pre;">Forward problems</text></g><g class="sankey-node" transform="translate(291.000,-0.000)" style="opacity: 1;"><rect class="node-rect" width="8" height="216.36363636363635" style="stroke-width: 0; stroke: rgb(68, 68, 68); stroke-opacity: 1; fill: rgb(187, 187, 187); fill-opacity: 1;"/><text class="node-label" data-notex="1" x="0" y="0" text-anchor="start" transform="translate(11,111.33181818181818)" style="cursor: default; font-family: 'Open Sans', verdana, arial, sans-serif; font-size: 9px; fill: rgb(42, 63, 95); fill-opacity: 1; text-shadow: rgb(255, 255, 255) 1px 1px 1px, rgb(255, 255, 255) -1px -1px 1px, rgb(255, 255, 255) 1px -1px 1px, rgb(255, 255, 255) -1px 1px 1px; white-space: pre;">Inverse problems</text></g><g class="sankey-node" transform="translate(582.000,118.182)" style="opacity: 1;"><rect class="node-rect" width="8" height="12.727272727272691" style="stroke-width: 0; stroke: rgb(68, 68, 68); stroke-opacity: 1; fill: rgb(187, 187, 187); fill-opacity: 1;"/><text class="node-label" data-notex="1" x="0" y="0" text-anchor="end" transform="translate(-3,9.513636363636346)" style="cursor: default; font-family: 'Open Sans', verdana, arial, sans-serif; font-size: 9px; fill: rgb(42, 63, 95); fill-opacity: 1; text-shadow: rgb(255, 255, 255) 1px 1px 1px, rgb(255, 255, 255) -1px -1px 1px, rgb(255, 255, 255) 1px -1px 1px, rgb(255, 255, 255) -1px 1px 1px; white-space: pre;">Finite differences</text></g><g class="sankey-node" transform="translate(582.000,140.909)" style="opacity: 1;"><rect class="node-rect" width="8" height="12.727272727272691" style="stroke-width: 0; stroke: rgb(68, 68, 68); stroke-opacity: 1; fill: rgb(187, 187, 187); fill-opacity: 1;"/><text class="node-label" data-notex="1" x="0" y="0" text-anchor="end" transform="translate(-3,9.513636363636346)" style="cursor: default; font-family: 'Open Sans', verdana, arial, sans-serif; font-size: 9px; fill: rgb(42, 63, 95); fill-opacity: 1; text-shadow: rgb(255, 255, 255) 1px 1px 1px, rgb(255, 255, 255) -1px -1px 1px, rgb(255, 255, 255) 1px -1px 1px, rgb(255, 255, 255) -1px 1px 1px; white-space: pre;">Spectral elements</text></g><g class="sankey-node" transform="translate(582.000,163.636)" style="opacity: 1;"><rect class="node-rect" width="8" height="12.727272727272691" style="stroke-width: 0; stroke: rgb(68, 68, 68); stroke-opacity: 1; fill: rgb(187, 187, 187); fill-opacity: 1;"/><text class="node-label" data-notex="1" x="0" y="0" text-anchor="end" transform="translate(-3,9.513636363636346)" style="cursor: default; font-family: 'Open Sans', verdana, arial, sans-serif; font-size: 9px; fill: rgb(42, 63, 95); fill-opacity: 1; text-shadow: rgb(255, 255, 255) 1px 1px 1px, rgb(255, 255, 255) -1px -1px 1px, rgb(255, 255, 255) 1px -1px 1px, rgb(255, 255, 255) -1px 1px 1px; white-space: pre;">Gaussian processes</text></g><g class="sankey-node" transform="translate(582.000,186.364)" style="opacity: 1;"><rect class="node-rect" width="8" height="12.727272727272691" style="stroke-width: 0; stroke: rgb(68, 68, 68); stroke-opacity: 1; fill: rgb(187, 187, 187); fill-opacity: 1;"/><text class="node-label" data-notex="1" x="0" y="0" text-anchor="end" transform="translate(-3,9.513636363636346)" style="cursor: default; font-family: 'Open Sans', verdana, arial, sans-serif; font-size: 9px; fill: rgb(42, 63, 95); fill-opacity: 1; text-shadow: rgb(255, 255, 255) 1px 1px 1px, rgb(255, 255, 255) -1px -1px 1px, rgb(255, 255, 255) 1px -1px 1px, rgb(255, 255, 255) -1px 1px 1px; white-space: pre;">PINNs</text></g><g class="sankey-node" transform="translate(582.000,209.091)" style="opacity: 1;"><rect class="node-rect" width="8" height="12.727272727272748" style="stroke-width: 0; stroke: rgb(68, 68, 68); stroke-opacity: 1; fill: rgb(187, 187, 187); fill-opacity: 1;"/><text class="node-label" data-notex="1" x="0" y="0" text-anchor="end" transform="translate(-3,9.513636363636374)" style="cursor: default; font-family: 'Open Sans', verdana, arial, sans-serif; font-size: 9px; fill: rgb(42, 63, 95); fill-opacity: 1; text-shadow: rgb(255, 255, 255) 1px 1px 1px, rgb(255, 255, 255) -1px -1px 1px, rgb(255, 255, 255) 1px -1px 1px, rgb(255, 255, 255) -1px 1px 1px; white-space: pre;">Neural operators</text></g><g class="sankey-node" transform="translate(582.000,231.818)" style="opacity: 1;"><rect class="node-rect" width="8" height="12.72727272727272" style="stroke-width: 0; stroke: rgb(68, 68, 68); stroke-opacity: 1; fill: rgb(187, 187, 187); fill-opacity: 1;"/><text class="node-label" data-notex="1" x="0" y="0" text-anchor="end" transform="translate(-3,9.51363636363636)" style="cursor: default; font-family: 'Open Sans', verdana, arial, sans-serif; font-size: 9px; fill: rgb(42, 63, 95); fill-opacity: 1; text-shadow: rgb(255, 255, 255) 1px 1px 1px, rgb(255, 255, 255) -1px -1px 1px, rgb(255, 255, 255) 1px -1px 1px, rgb(255, 255, 255) -1px 1px 1px; white-space: pre;">Convolutional</text></g><g class="sankey-node" transform="translate(582.000,254.545)" style="opacity: 1;"><rect class="node-rect" width="8" height="12.727272727272464" style="stroke-width: 0; stroke: rgb(68, 68, 68); stroke-opacity: 1; fill: rgb(187, 187, 187); fill-opacity: 1;"/><text class="node-label" data-notex="1" x="0" y="0" text-anchor="end" transform="translate(-3,9.513636363636232)" style="cursor: default; font-family: 'Open Sans', verdana, arial, sans-serif; font-size: 9px; fill: rgb(42, 63, 95); fill-opacity: 1; text-shadow: rgb(255, 255, 255) 1px 1px 1px, rgb(255, 255, 255) -1px -1px 1px, rgb(255, 255, 255) 1px -1px 1px, rgb(255, 255, 255) -1px 1px 1px; white-space: pre;">Recurrent</text></g><g class="sankey-node" transform="translate(582.000,277.273)" style="opacity: 1;"><rect class="node-rect" width="8" height="12.727272727272748" style="stroke-width: 0; stroke: rgb(68, 68, 68); stroke-opacity: 1; fill: rgb(187, 187, 187); fill-opacity: 1;"/><text class="node-label" data-notex="1" x="0" y="0" text-anchor="end" transform="translate(-3,9.513636363636374)" style="cursor: default; font-family: 'Open Sans', verdana, arial, sans-serif; font-size: 9px; fill: rgb(42, 63, 95); fill-opacity: 1; text-shadow: rgb(255, 255, 255) 1px 1px 1px, rgb(255, 255, 255) -1px -1px 1px, rgb(255, 255, 255) 1px -1px 1px, rgb(255, 255, 255) -1px 1px 1px; white-space: pre;">Generative adversarial</text></g></g></g><defs id="topdefs-1c4916"><g class="clips"/></defs><g class="layer-above"><g class="imagelayer"/><g class="shapelayer"/></g><g class="infolayer"><g class="g-gtitle"/><g class="first-render"/></g></svg>