<?xml version="1.0" encoding="UTF-8" standalone="no"?>
<!-- Created with Inkscape (http://www.inkscape.org/) -->

<svg
   width="74.999733mm"
   height="49.999359mm"
   viewBox="0 0 74.999733 49.999359"
   version="1.1"
   id="svg1913"
   inkscape:version="1.2.2 (732a01da63, 2022-12-09)"
   sodipodi:docname="publications_with_relative.svg"
   xmlns:inkscape="http://www.inkscape.org/namespaces/inkscape"
   xmlns:sodipodi="http://sodipodi.sourceforge.net/DTD/sodipodi-0.dtd"
   xmlns="http://www.w3.org/2000/svg"
   xmlns:svg="http://www.w3.org/2000/svg">
  <sodipodi:namedview
     id="namedview1915"
     pagecolor="#ffffff"
     bordercolor="#000000"
     borderopacity="0.25"
     inkscape:showpageshadow="2"
     inkscape:pageopacity="0.0"
     inkscape:pagecheckerboard="0"
     inkscape:deskcolor="#d1d1d1"
     inkscape:document-units="mm"
     showgrid="false"
     inkscape:zoom="2.8649832"
     inkscape:cx="180.62933"
     inkscape:cy="79.407098"
     inkscape:window-width="2400"
     inkscape:window-height="1261"
     inkscape:window-x="2391"
     inkscape:window-y="-9"
     inkscape:window-maximized="1"
     inkscape:current-layer="layer1" />
  <defs
     id="defs1910">
    <clipPath
       id="clip-0">
      <path
         clip-rule="nonzero"
         d="M 0,0 H 212.59766 V 141.73047 H 0 Z m 0,0"
         id="path2987" />
    </clipPath>
  </defs>
  <g
     inkscape:label="Capa 1"
     inkscape:groupmode="layer"
     id="layer1"
     transform="translate(8.594082,-1.320282)">
    <g
       id="g3520"
       transform="matrix(0.35277778,0,0,0.35277778,-8.594082,1.320282)">
      <g
         clip-path="url(#clip-0)"
         id="g2994">
        <path
           fill-rule="nonzero"
           fill="#ffffff"
           fill-opacity="1"
           d="M 0,141.73047 H 212.59766 V 0 H 0 Z m 0,0"
           id="path2992" />
      </g>
      <path
         fill-rule="nonzero"
         fill="#ffffff"
         fill-opacity="1"
         d="M 34.890625,103.99219 H 166.88672 V 19.746094 H 34.890625 Z m 0,0"
         id="path2996" />
      <path
         fill="none"
         stroke-width="0.8"
         stroke-linecap="butt"
         stroke-linejoin="round"
         stroke="#000000"
         stroke-opacity="1"
         stroke-miterlimit="10"
         d="m 40.890625,37.740096 v -3.5"
         transform="matrix(1,0,0,-1,0,141.73228)"
         id="path2998" />
      <g
         fill="#000000"
         fill-opacity="1"
         id="g3008">
        <g
           id="use3000"
           transform="translate(32.421406,116.52686)">
          <path
             d="m 2.25,-1.625 c 0.125,-0.125 0.453125,-0.390625 0.59375,-0.5 0.484375,-0.453125 0.953125,-0.890625 0.953125,-1.609375 0,-0.953125 -0.796875,-1.5625 -1.78125,-1.5625 -0.96875,0 -1.59375,0.71875 -1.59375,1.4375 0,0.390625 0.3125,0.4375 0.421875,0.4375 0.171875,0 0.421875,-0.109375 0.421875,-0.421875 0,-0.40625 -0.40625,-0.40625 -0.5,-0.40625 C 1,-4.84375 1.53125,-5.03125 1.921875,-5.03125 c 0.734375,0 1.125,0.625 1.125,1.296875 0,0.828125 -0.578125,1.4375 -1.53125,2.390625 l -1,1.046875 C 0.421875,-0.21875 0.421875,-0.203125 0.421875,0 H 3.5625 l 0.234375,-1.421875 h -0.25 C 3.53125,-1.265625 3.46875,-0.875 3.375,-0.71875 c -0.046875,0.0625 -0.65625,0.0625 -0.78125,0.0625 H 1.171875 Z m 0,0"
             id="path4478" />
        </g>
        <g
           id="use3002"
           transform="translate(36.653534,116.52686)">
          <path
             d="m 3.890625,-2.546875 c 0,-0.84375 -0.078125,-1.359375 -0.34375,-1.875 -0.34375,-0.703125 -1,-0.875 -1.4375,-0.875 -1,0 -1.375,0.75 -1.484375,0.96875 -0.28125,0.578125 -0.296875,1.375 -0.296875,1.78125 0,0.53125 0.015625,1.328125 0.40625,1.96875 0.359375,0.59375 0.953125,0.75 1.375,0.75 0.390625,0 1.0625,-0.125 1.46875,-0.90625 0.296875,-0.578125 0.3125,-1.296875 0.3125,-1.8125 z M 2.109375,-0.0625 C 1.84375,-0.0625 1.296875,-0.1875 1.125,-1.015625 1.03125,-1.46875 1.03125,-2.21875 1.03125,-2.640625 1.03125,-3.1875 1.03125,-3.75 1.125,-4.1875 1.296875,-5 1.90625,-5.078125 2.109375,-5.078125 c 0.265625,0 0.828125,0.140625 0.984375,0.859375 0.09375,0.4375 0.09375,1.046875 0.09375,1.578125 0,0.46875 0,1.1875 -0.09375,1.640625 -0.171875,0.828125 -0.71875,0.9375 -0.984375,0.9375 z m 0,0"
             id="path4422" />
        </g>
        <g
           id="use3004"
           transform="translate(40.885662,116.52686)">
          <path
             d="m 2.5,-5.078125 c 0,-0.21875 -0.015625,-0.21875 -0.234375,-0.21875 -0.328125,0.3125 -0.75,0.5 -1.5,0.5 v 0.265625 c 0.21875,0 0.640625,0 1.109375,-0.203125 v 4.078125 c 0,0.296875 -0.03125,0.390625 -0.78125,0.390625 H 0.8125 V 0 c 0.328125,-0.03125 1.015625,-0.03125 1.375,-0.03125 0.359375,0 1.046875,0 1.375,0.03125 V -0.265625 H 3.28125 c -0.75,0 -0.78125,-0.09375 -0.78125,-0.390625 z m 0,0"
             id="path4386" />
        </g>
        <g
           id="use3006"
           transform="translate(45.11779,116.52686)">
          <path
             d="m 3.890625,-2.546875 c 0,-0.84375 -0.078125,-1.359375 -0.34375,-1.875 -0.34375,-0.703125 -1,-0.875 -1.4375,-0.875 -1,0 -1.375,0.75 -1.484375,0.96875 -0.28125,0.578125 -0.296875,1.375 -0.296875,1.78125 0,0.53125 0.015625,1.328125 0.40625,1.96875 0.359375,0.59375 0.953125,0.75 1.375,0.75 0.390625,0 1.0625,-0.125 1.46875,-0.90625 0.296875,-0.578125 0.3125,-1.296875 0.3125,-1.8125 z M 2.109375,-0.0625 C 1.84375,-0.0625 1.296875,-0.1875 1.125,-1.015625 1.03125,-1.46875 1.03125,-2.21875 1.03125,-2.640625 1.03125,-3.1875 1.03125,-3.75 1.125,-4.1875 1.296875,-5 1.90625,-5.078125 2.109375,-5.078125 c 0.265625,0 0.828125,0.140625 0.984375,0.859375 0.09375,0.4375 0.09375,1.046875 0.09375,1.578125 0,0.46875 0,1.1875 -0.09375,1.640625 -0.171875,0.828125 -0.71875,0.9375 -0.984375,0.9375 z m 0,0"
             id="path4426" />
        </g>
      </g>
      <path
         fill="none"
         stroke-width="0.8"
         stroke-linecap="butt"
         stroke-linejoin="round"
         stroke="#000000"
         stroke-opacity="1"
         stroke-miterlimit="10"
         d="m 68.582031,37.740096 v -3.5"
         transform="matrix(1,0,0,-1,0,141.73228)"
         id="path3010" />
      <g
         fill="#000000"
         fill-opacity="1"
         id="g3020">
        <g
           id="use3012"
           transform="translate(60.113297,116.52686)">
          <path
             d="m 2.25,-1.625 c 0.125,-0.125 0.453125,-0.390625 0.59375,-0.5 0.484375,-0.453125 0.953125,-0.890625 0.953125,-1.609375 0,-0.953125 -0.796875,-1.5625 -1.78125,-1.5625 -0.96875,0 -1.59375,0.71875 -1.59375,1.4375 0,0.390625 0.3125,0.4375 0.421875,0.4375 0.171875,0 0.421875,-0.109375 0.421875,-0.421875 0,-0.40625 -0.40625,-0.40625 -0.5,-0.40625 C 1,-4.84375 1.53125,-5.03125 1.921875,-5.03125 c 0.734375,0 1.125,0.625 1.125,1.296875 0,0.828125 -0.578125,1.4375 -1.53125,2.390625 l -1,1.046875 C 0.421875,-0.21875 0.421875,-0.203125 0.421875,0 H 3.5625 l 0.234375,-1.421875 h -0.25 C 3.53125,-1.265625 3.46875,-0.875 3.375,-0.71875 c -0.046875,0.0625 -0.65625,0.0625 -0.78125,0.0625 H 1.171875 Z m 0,0"
             id="path4482" />
        </g>
        <g
           id="use3014"
           transform="translate(64.345428,116.52686)">
          <path
             d="m 3.890625,-2.546875 c 0,-0.84375 -0.078125,-1.359375 -0.34375,-1.875 -0.34375,-0.703125 -1,-0.875 -1.4375,-0.875 -1,0 -1.375,0.75 -1.484375,0.96875 -0.28125,0.578125 -0.296875,1.375 -0.296875,1.78125 0,0.53125 0.015625,1.328125 0.40625,1.96875 0.359375,0.59375 0.953125,0.75 1.375,0.75 0.390625,0 1.0625,-0.125 1.46875,-0.90625 0.296875,-0.578125 0.3125,-1.296875 0.3125,-1.8125 z M 2.109375,-0.0625 C 1.84375,-0.0625 1.296875,-0.1875 1.125,-1.015625 1.03125,-1.46875 1.03125,-2.21875 1.03125,-2.640625 1.03125,-3.1875 1.03125,-3.75 1.125,-4.1875 1.296875,-5 1.90625,-5.078125 2.109375,-5.078125 c 0.265625,0 0.828125,0.140625 0.984375,0.859375 0.09375,0.4375 0.09375,1.046875 0.09375,1.578125 0,0.46875 0,1.1875 -0.09375,1.640625 -0.171875,0.828125 -0.71875,0.9375 -0.984375,0.9375 z m 0,0"
             id="path4430" />
        </g>
        <g
           id="use3016"
           transform="translate(68.577553,116.52686)">
          <path
             d="m 2.5,-5.078125 c 0,-0.21875 -0.015625,-0.21875 -0.234375,-0.21875 -0.328125,0.3125 -0.75,0.5 -1.5,0.5 v 0.265625 c 0.21875,0 0.640625,0 1.109375,-0.203125 v 4.078125 c 0,0.296875 -0.03125,0.390625 -0.78125,0.390625 H 0.8125 V 0 c 0.328125,-0.03125 1.015625,-0.03125 1.375,-0.03125 0.359375,0 1.046875,0 1.375,0.03125 V -0.265625 H 3.28125 c -0.75,0 -0.78125,-0.09375 -0.78125,-0.390625 z m 0,0"
             id="path4390" />
        </g>
        <g
           id="use3018"
           transform="translate(72.809685,116.52686)">
          <path
             d="m 2.015625,-2.65625 c 0.625,0 1.03125,0.453125 1.03125,1.296875 0,1 -0.5625,1.28125 -0.984375,1.28125 -0.4375,0 -1.046875,-0.15625 -1.328125,-0.578125 0.296875,0 0.5,-0.1875 0.5,-0.4375 0,-0.265625 -0.1875,-0.4375 -0.453125,-0.4375 -0.203125,0 -0.4375,0.125 -0.4375,0.453125 0,0.75 0.8125,1.25 1.734375,1.25 C 3.125,0.171875 3.875,-0.5625 3.875,-1.359375 3.875,-2.03125 3.34375,-2.625 2.53125,-2.8125 c 0.625,-0.21875 1.109375,-0.75 1.109375,-1.390625 0,-0.640625 -0.71875,-1.09375 -1.546875,-1.09375 -0.859375,0 -1.5,0.453125 -1.5,1.0625 0,0.296875 0.1875,0.421875 0.40625,0.421875 0.25,0 0.40625,-0.171875 0.40625,-0.40625 0,-0.296875 -0.265625,-0.40625 -0.4375,-0.40625 0.34375,-0.4375 0.953125,-0.46875 1.09375,-0.46875 0.203125,0 0.8125,0.0625 0.8125,0.890625 0,0.546875 -0.234375,0.890625 -0.34375,1.015625 -0.234375,0.25 -0.421875,0.265625 -0.90625,0.296875 -0.15625,0 -0.21875,0.015625 -0.21875,0.125 0,0.109375 0.078125,0.109375 0.21875,0.109375 z m 0,0"
             id="path4378" />
        </g>
      </g>
      <path
         fill="none"
         stroke-width="0.8"
         stroke-linecap="butt"
         stroke-linejoin="round"
         stroke="#000000"
         stroke-opacity="1"
         stroke-miterlimit="10"
         d="m 96.273438,37.740096 v -3.5"
         transform="matrix(1,0,0,-1,0,141.73228)"
         id="path3022" />
      <g
         fill="#000000"
         fill-opacity="1"
         id="g3032">
        <g
           id="use3024"
           transform="translate(87.805183,116.52686)">
          <path
             d="m 2.25,-1.625 c 0.125,-0.125 0.453125,-0.390625 0.59375,-0.5 0.484375,-0.453125 0.953125,-0.890625 0.953125,-1.609375 0,-0.953125 -0.796875,-1.5625 -1.78125,-1.5625 -0.96875,0 -1.59375,0.71875 -1.59375,1.4375 0,0.390625 0.3125,0.4375 0.421875,0.4375 0.171875,0 0.421875,-0.109375 0.421875,-0.421875 0,-0.40625 -0.40625,-0.40625 -0.5,-0.40625 C 1,-4.84375 1.53125,-5.03125 1.921875,-5.03125 c 0.734375,0 1.125,0.625 1.125,1.296875 0,0.828125 -0.578125,1.4375 -1.53125,2.390625 l -1,1.046875 C 0.421875,-0.21875 0.421875,-0.203125 0.421875,0 H 3.5625 l 0.234375,-1.421875 h -0.25 C 3.53125,-1.265625 3.46875,-0.875 3.375,-0.71875 c -0.046875,0.0625 -0.65625,0.0625 -0.78125,0.0625 H 1.171875 Z m 0,0"
             id="path4486" />
        </g>
        <g
           id="use3026"
           transform="translate(92.037315,116.52686)">
          <path
             d="m 3.890625,-2.546875 c 0,-0.84375 -0.078125,-1.359375 -0.34375,-1.875 -0.34375,-0.703125 -1,-0.875 -1.4375,-0.875 -1,0 -1.375,0.75 -1.484375,0.96875 -0.28125,0.578125 -0.296875,1.375 -0.296875,1.78125 0,0.53125 0.015625,1.328125 0.40625,1.96875 0.359375,0.59375 0.953125,0.75 1.375,0.75 0.390625,0 1.0625,-0.125 1.46875,-0.90625 0.296875,-0.578125 0.3125,-1.296875 0.3125,-1.8125 z M 2.109375,-0.0625 C 1.84375,-0.0625 1.296875,-0.1875 1.125,-1.015625 1.03125,-1.46875 1.03125,-2.21875 1.03125,-2.640625 1.03125,-3.1875 1.03125,-3.75 1.125,-4.1875 1.296875,-5 1.90625,-5.078125 2.109375,-5.078125 c 0.265625,0 0.828125,0.140625 0.984375,0.859375 0.09375,0.4375 0.09375,1.046875 0.09375,1.578125 0,0.46875 0,1.1875 -0.09375,1.640625 -0.171875,0.828125 -0.71875,0.9375 -0.984375,0.9375 z m 0,0"
             id="path4434" />
        </g>
        <g
           id="use3028"
           transform="translate(96.269447,116.52686)">
          <path
             d="m 2.5,-5.078125 c 0,-0.21875 -0.015625,-0.21875 -0.234375,-0.21875 -0.328125,0.3125 -0.75,0.5 -1.5,0.5 v 0.265625 c 0.21875,0 0.640625,0 1.109375,-0.203125 v 4.078125 c 0,0.296875 -0.03125,0.390625 -0.78125,0.390625 H 0.8125 V 0 c 0.328125,-0.03125 1.015625,-0.03125 1.375,-0.03125 0.359375,0 1.046875,0 1.375,0.03125 V -0.265625 H 3.28125 c -0.75,0 -0.78125,-0.09375 -0.78125,-0.390625 z m 0,0"
             id="path4394" />
        </g>
        <g
           id="use3030"
           transform="translate(100.50157,116.52686)">
          <path
             d="m 1.09375,-2.640625 c 0,-0.65625 0.0625,-1.234375 0.34375,-1.71875 0.25,-0.40625 0.65625,-0.734375 1.15625,-0.734375 0.15625,0 0.515625,0.03125 0.703125,0.296875 C 2.9375,-4.765625 2.90625,-4.5 2.90625,-4.421875 c 0,0.25 0.1875,0.375 0.375,0.375 0.140625,0 0.375,-0.078125 0.375,-0.390625 0,-0.46875 -0.359375,-0.859375 -1.078125,-0.859375 -1.109375,0 -2.234375,1.046875 -2.234375,2.765625 0,2.171875 1.015625,2.703125 1.78125,2.703125 0.390625,0 0.796875,-0.109375 1.15625,-0.453125 C 3.609375,-0.59375 3.875,-0.921875 3.875,-1.625 c 0,-1.03125 -0.796875,-1.765625 -1.671875,-1.765625 -0.578125,0 -0.921875,0.359375 -1.109375,0.75 z m 1.03125,2.5625 c -0.421875,0 -0.6875,-0.28125 -0.796875,-0.515625 C 1.140625,-0.953125 1.125,-1.484375 1.125,-1.796875 c 0,-0.78125 0.421875,-1.375 1.046875,-1.375 0.390625,0 0.640625,0.203125 0.78125,0.484375 C 3.125,-2.390625 3.125,-2.03125 3.125,-1.625 c 0,0.40625 0,0.75 -0.15625,1.046875 -0.21875,0.359375 -0.484375,0.5 -0.84375,0.5 z m 0,0"
             id="path4374" />
        </g>
      </g>
      <path
         fill="none"
         stroke-width="0.8"
         stroke-linecap="butt"
         stroke-linejoin="round"
         stroke="#000000"
         stroke-opacity="1"
         stroke-miterlimit="10"
         d="m 123.96484,37.740096 v -3.5"
         transform="matrix(1,0,0,-1,0,141.73228)"
         id="path3034" />
      <g
         fill="#000000"
         fill-opacity="1"
         id="g3044">
        <g
           id="use3036"
           transform="translate(115.49708,116.52686)">
          <path
             d="m 2.25,-1.625 c 0.125,-0.125 0.453125,-0.390625 0.59375,-0.5 0.484375,-0.453125 0.953125,-0.890625 0.953125,-1.609375 0,-0.953125 -0.796875,-1.5625 -1.78125,-1.5625 -0.96875,0 -1.59375,0.71875 -1.59375,1.4375 0,0.390625 0.3125,0.4375 0.421875,0.4375 0.171875,0 0.421875,-0.109375 0.421875,-0.421875 0,-0.40625 -0.40625,-0.40625 -0.5,-0.40625 C 1,-4.84375 1.53125,-5.03125 1.921875,-5.03125 c 0.734375,0 1.125,0.625 1.125,1.296875 0,0.828125 -0.578125,1.4375 -1.53125,2.390625 l -1,1.046875 C 0.421875,-0.21875 0.421875,-0.203125 0.421875,0 H 3.5625 l 0.234375,-1.421875 h -0.25 C 3.53125,-1.265625 3.46875,-0.875 3.375,-0.71875 c -0.046875,0.0625 -0.65625,0.0625 -0.78125,0.0625 H 1.171875 Z m 0,0"
             id="path4490" />
        </g>
        <g
           id="use3038"
           transform="translate(119.72921,116.52686)">
          <path
             d="m 3.890625,-2.546875 c 0,-0.84375 -0.078125,-1.359375 -0.34375,-1.875 -0.34375,-0.703125 -1,-0.875 -1.4375,-0.875 -1,0 -1.375,0.75 -1.484375,0.96875 -0.28125,0.578125 -0.296875,1.375 -0.296875,1.78125 0,0.53125 0.015625,1.328125 0.40625,1.96875 0.359375,0.59375 0.953125,0.75 1.375,0.75 0.390625,0 1.0625,-0.125 1.46875,-0.90625 0.296875,-0.578125 0.3125,-1.296875 0.3125,-1.8125 z M 2.109375,-0.0625 C 1.84375,-0.0625 1.296875,-0.1875 1.125,-1.015625 1.03125,-1.46875 1.03125,-2.21875 1.03125,-2.640625 1.03125,-3.1875 1.03125,-3.75 1.125,-4.1875 1.296875,-5 1.90625,-5.078125 2.109375,-5.078125 c 0.265625,0 0.828125,0.140625 0.984375,0.859375 0.09375,0.4375 0.09375,1.046875 0.09375,1.578125 0,0.46875 0,1.1875 -0.09375,1.640625 -0.171875,0.828125 -0.71875,0.9375 -0.984375,0.9375 z m 0,0"
             id="path4438" />
        </g>
        <g
           id="use3040"
           transform="translate(123.96133,116.52686)">
          <path
             d="m 2.5,-5.078125 c 0,-0.21875 -0.015625,-0.21875 -0.234375,-0.21875 -0.328125,0.3125 -0.75,0.5 -1.5,0.5 v 0.265625 c 0.21875,0 0.640625,0 1.109375,-0.203125 v 4.078125 c 0,0.296875 -0.03125,0.390625 -0.78125,0.390625 H 0.8125 V 0 c 0.328125,-0.03125 1.015625,-0.03125 1.375,-0.03125 0.359375,0 1.046875,0 1.375,0.03125 V -0.265625 H 3.28125 c -0.75,0 -0.78125,-0.09375 -0.78125,-0.390625 z m 0,0"
             id="path4398" />
        </g>
        <g
           id="use3042"
           transform="translate(128.19347,116.52686)">
          <path
             d="m 3.125,-2.34375 c 0,1.9375 -0.921875,2.265625 -1.390625,2.265625 -0.171875,0 -0.578125,-0.015625 -0.796875,-0.265625 0.359375,-0.03125 0.375,-0.296875 0.375,-0.375 0,-0.234375 -0.1875,-0.375 -0.375,-0.375 -0.140625,0 -0.375,0.09375 -0.375,0.390625 0,0.546875 0.453125,0.875 1.1875,0.875 1.09375,0 2.125,-1.09375 2.125,-2.796875 0,-2.0625 -0.921875,-2.671875 -1.734375,-2.671875 -0.953125,0 -1.796875,0.734375 -1.796875,1.78125 C 0.34375,-2.5 1.125,-1.75 2.03125,-1.75 c 0.5625,0 0.90625,-0.359375 1.09375,-0.765625 z m -1.0625,0.375 c -0.375,0 -0.609375,-0.171875 -0.78125,-0.46875 -0.1875,-0.28125 -0.1875,-0.671875 -0.1875,-1.078125 0,-0.46875 0,-0.796875 0.21875,-1.125 0.203125,-0.296875 0.453125,-0.453125 0.828125,-0.453125 0.53125,0 0.765625,0.53125 0.796875,0.5625 0.15625,0.390625 0.171875,1.015625 0.171875,1.171875 0,0.640625 -0.34375,1.390625 -1.046875,1.390625 z m 0,0"
             id="path4370" />
        </g>
      </g>
      <path
         fill="none"
         stroke-width="0.8"
         stroke-linecap="butt"
         stroke-linejoin="round"
         stroke="#000000"
         stroke-opacity="1"
         stroke-miterlimit="10"
         d="m 151.65625,37.740096 v -3.5"
         transform="matrix(1,0,0,-1,0,141.73228)"
         id="path3046" />
      <g
         fill="#000000"
         fill-opacity="1"
         id="g3056">
        <g
           id="use3048"
           transform="translate(143.18896,116.52686)">
          <path
             d="m 2.25,-1.625 c 0.125,-0.125 0.453125,-0.390625 0.59375,-0.5 0.484375,-0.453125 0.953125,-0.890625 0.953125,-1.609375 0,-0.953125 -0.796875,-1.5625 -1.78125,-1.5625 -0.96875,0 -1.59375,0.71875 -1.59375,1.4375 0,0.390625 0.3125,0.4375 0.421875,0.4375 0.171875,0 0.421875,-0.109375 0.421875,-0.421875 0,-0.40625 -0.40625,-0.40625 -0.5,-0.40625 C 1,-4.84375 1.53125,-5.03125 1.921875,-5.03125 c 0.734375,0 1.125,0.625 1.125,1.296875 0,0.828125 -0.578125,1.4375 -1.53125,2.390625 l -1,1.046875 C 0.421875,-0.21875 0.421875,-0.203125 0.421875,0 H 3.5625 l 0.234375,-1.421875 h -0.25 C 3.53125,-1.265625 3.46875,-0.875 3.375,-0.71875 c -0.046875,0.0625 -0.65625,0.0625 -0.78125,0.0625 H 1.171875 Z m 0,0"
             id="path4494" />
        </g>
        <g
           id="use3050"
           transform="translate(147.4211,116.52686)">
          <path
             d="m 3.890625,-2.546875 c 0,-0.84375 -0.078125,-1.359375 -0.34375,-1.875 -0.34375,-0.703125 -1,-0.875 -1.4375,-0.875 -1,0 -1.375,0.75 -1.484375,0.96875 -0.28125,0.578125 -0.296875,1.375 -0.296875,1.78125 0,0.53125 0.015625,1.328125 0.40625,1.96875 0.359375,0.59375 0.953125,0.75 1.375,0.75 0.390625,0 1.0625,-0.125 1.46875,-0.90625 0.296875,-0.578125 0.3125,-1.296875 0.3125,-1.8125 z M 2.109375,-0.0625 C 1.84375,-0.0625 1.296875,-0.1875 1.125,-1.015625 1.03125,-1.46875 1.03125,-2.21875 1.03125,-2.640625 1.03125,-3.1875 1.03125,-3.75 1.125,-4.1875 1.296875,-5 1.90625,-5.078125 2.109375,-5.078125 c 0.265625,0 0.828125,0.140625 0.984375,0.859375 0.09375,0.4375 0.09375,1.046875 0.09375,1.578125 0,0.46875 0,1.1875 -0.09375,1.640625 -0.171875,0.828125 -0.71875,0.9375 -0.984375,0.9375 z m 0,0"
             id="path4442" />
        </g>
        <g
           id="use3052"
           transform="translate(151.65323,116.52686)">
          <path
             d="m 2.25,-1.625 c 0.125,-0.125 0.453125,-0.390625 0.59375,-0.5 0.484375,-0.453125 0.953125,-0.890625 0.953125,-1.609375 0,-0.953125 -0.796875,-1.5625 -1.78125,-1.5625 -0.96875,0 -1.59375,0.71875 -1.59375,1.4375 0,0.390625 0.3125,0.4375 0.421875,0.4375 0.171875,0 0.421875,-0.109375 0.421875,-0.421875 0,-0.40625 -0.40625,-0.40625 -0.5,-0.40625 C 1,-4.84375 1.53125,-5.03125 1.921875,-5.03125 c 0.734375,0 1.125,0.625 1.125,1.296875 0,0.828125 -0.578125,1.4375 -1.53125,2.390625 l -1,1.046875 C 0.421875,-0.21875 0.421875,-0.203125 0.421875,0 H 3.5625 l 0.234375,-1.421875 h -0.25 C 3.53125,-1.265625 3.46875,-0.875 3.375,-0.71875 c -0.046875,0.0625 -0.65625,0.0625 -0.78125,0.0625 H 1.171875 Z m 0,0"
             id="path4498" />
        </g>
        <g
           id="use3054"
           transform="translate(155.88536,116.52686)">
          <path
             d="m 2.25,-1.625 c 0.125,-0.125 0.453125,-0.390625 0.59375,-0.5 0.484375,-0.453125 0.953125,-0.890625 0.953125,-1.609375 0,-0.953125 -0.796875,-1.5625 -1.78125,-1.5625 -0.96875,0 -1.59375,0.71875 -1.59375,1.4375 0,0.390625 0.3125,0.4375 0.421875,0.4375 0.171875,0 0.421875,-0.109375 0.421875,-0.421875 0,-0.40625 -0.40625,-0.40625 -0.5,-0.40625 C 1,-4.84375 1.53125,-5.03125 1.921875,-5.03125 c 0.734375,0 1.125,0.625 1.125,1.296875 0,0.828125 -0.578125,1.4375 -1.53125,2.390625 l -1,1.046875 C 0.421875,-0.21875 0.421875,-0.203125 0.421875,0 H 3.5625 l 0.234375,-1.421875 h -0.25 C 3.53125,-1.265625 3.46875,-0.875 3.375,-0.71875 c -0.046875,0.0625 -0.65625,0.0625 -0.78125,0.0625 H 1.171875 Z m 0,0"
             id="path4502" />
        </g>
      </g>
      <path
         fill="none"
         stroke-width="0.6"
         stroke-linecap="butt"
         stroke-linejoin="round"
         stroke="#000000"
         stroke-opacity="1"
         stroke-miterlimit="10"
         d="m 54.734375,37.740096 v -2"
         transform="matrix(1,0,0,-1,0,141.73228)"
         id="path3058" />
      <path
         fill="none"
         stroke-width="0.6"
         stroke-linecap="butt"
         stroke-linejoin="round"
         stroke="#000000"
         stroke-opacity="1"
         stroke-miterlimit="10"
         d="m 82.425781,37.740096 v -2"
         transform="matrix(1,0,0,-1,0,141.73228)"
         id="path3060" />
      <path
         fill="none"
         stroke-width="0.6"
         stroke-linecap="butt"
         stroke-linejoin="round"
         stroke="#000000"
         stroke-opacity="1"
         stroke-miterlimit="10"
         d="m 110.12109,37.740096 v -2"
         transform="matrix(1,0,0,-1,0,141.73228)"
         id="path3062" />
      <path
         fill="none"
         stroke-width="0.6"
         stroke-linecap="butt"
         stroke-linejoin="round"
         stroke="#000000"
         stroke-opacity="1"
         stroke-miterlimit="10"
         d="m 137.8125,37.740096 v -2"
         transform="matrix(1,0,0,-1,0,141.73228)"
         id="path3064" />
      <path
         fill="none"
         stroke-width="0.6"
         stroke-linecap="butt"
         stroke-linejoin="round"
         stroke="#000000"
         stroke-opacity="1"
         stroke-miterlimit="10"
         d="m 165.50391,37.740096 v -2"
         transform="matrix(1,0,0,-1,0,141.73228)"
         id="path3066" />
      <g
         fill="#000000"
         fill-opacity="1"
         id="g3070">
        <g
           id="use3068"
           transform="translate(90.912376,128.9951)">
          <path
             d="M 6.078125,-5.859375 C 6.453125,-6.453125 7.03125,-6.5 7.359375,-6.5 V -6.8125 C 7.046875,-6.78125 6.65625,-6.78125 6.375,-6.78125 6.078125,-6.78125 5.5,-6.796875 5.234375,-6.8125 V -6.5 c 0.40625,0 0.5625,0.1875 0.5625,0.390625 0,0.109375 -0.0625,0.234375 -0.09375,0.296875 L 4.0625,-3.140625 2.25,-6.078125 C 2.1875,-6.1875 2.1875,-6.203125 2.1875,-6.25 c 0,-0.203125 0.25,-0.25 0.6875,-0.25 v -0.3125 c -0.359375,0.03125 -1.078125,0.03125 -1.46875,0.03125 -0.421875,0 -0.875,0 -1.296875,-0.03125 V -6.5 h 0.1875 c 0.671875,0 0.75,0.109375 0.90625,0.375 l 2.09375,3.40625 v 1.9375 c 0,0.359375 -0.015625,0.46875 -0.78125,0.46875 h -0.25 V 0 C 2.625,-0.03125 3.34375,-0.03125 3.734375,-0.03125 c 0.375,0 1.09375,0 1.453125,0.03125 V -0.3125 H 4.953125 C 4.1875,-0.3125 4.15625,-0.40625 4.15625,-0.796875 V -2.71875 Z m 0,0"
             id="path4230" />
        </g>
      </g>
      <g
         fill="#000000"
         fill-opacity="1"
         id="g3078">
        <g
           id="use3072"
           transform="translate(97.554131,128.9951)">
          <path
             d="M 1.109375,-2.515625 C 1.171875,-4 2.015625,-4.25 2.359375,-4.25 c 1.015625,0 1.125,1.34375 1.125,1.734375 z m 0,0.21875 h 2.78125 c 0.21875,0 0.25,0 0.25,-0.21875 0,-0.984375 -0.546875,-1.953125 -1.78125,-1.953125 -1.15625,0 -2.078125,1.03125 -2.078125,2.28125 0,1.328125 1.046875,2.296875 2.1875,2.296875 C 3.6875,0.109375 4.140625,-1 4.140625,-1.1875 4.140625,-1.28125 4.0625,-1.3125 4,-1.3125 c -0.078125,0 -0.109375,0.0625 -0.125,0.140625 -0.34375,1.03125 -1.25,1.03125 -1.34375,1.03125 -0.5,0 -0.890625,-0.296875 -1.125,-0.671875 -0.296875,-0.46875 -0.296875,-1.125 -0.296875,-1.484375 z m 0,0"
             id="path4278" />
        </g>
        <g
           id="use3074"
           transform="translate(101.97754,128.9951)">
          <path
             d="m 3.3125,-0.75 c 0.046875,0.390625 0.3125,0.8125 0.78125,0.8125 0.21875,0 0.828125,-0.140625 0.828125,-0.953125 v -0.5625 h -0.25 v 0.5625 c 0,0.578125 -0.25,0.640625 -0.359375,0.640625 -0.328125,0 -0.375,-0.453125 -0.375,-0.5 v -1.984375 c 0,-0.421875 0,-0.8125 -0.359375,-1.1875 C 3.1875,-4.3125 2.6875,-4.46875 2.21875,-4.46875 c -0.828125,0 -1.515625,0.46875 -1.515625,1.125 0,0.296875 0.203125,0.46875 0.46875,0.46875 0.28125,0 0.453125,-0.203125 0.453125,-0.453125 0,-0.125 -0.046875,-0.453125 -0.515625,-0.453125 C 1.390625,-4.140625 1.875,-4.25 2.1875,-4.25 c 0.5,0 1.0625,0.390625 1.0625,1.28125 v 0.359375 c -0.515625,0.03125 -1.203125,0.0625 -1.828125,0.359375 -0.75,0.34375 -1,0.859375 -1,1.296875 0,0.8125 0.96875,1.0625 1.59375,1.0625 0.65625,0 1.109375,-0.40625 1.296875,-0.859375 z M 3.25,-2.390625 v 1 c 0,0.9375 -0.71875,1.28125 -1.171875,1.28125 -0.484375,0 -0.890625,-0.34375 -0.890625,-0.84375 0,-0.546875 0.421875,-1.375 2.0625,-1.4375 z m 0,0"
             id="path4362" />
        </g>
        <g
           id="use3076"
           transform="translate(106.95886,128.9951)">
          <path
             d="M 1.671875,-3.3125 V -4.40625 L 0.28125,-4.296875 v 0.3125 c 0.703125,0 0.78125,0.0625 0.78125,0.5625 V -0.75 c 0,0.4375 -0.109375,0.4375 -0.78125,0.4375 V 0 c 0.390625,-0.015625 0.859375,-0.03125 1.140625,-0.03125 0.390625,0 0.859375,0 1.265625,0.03125 V -0.3125 H 2.46875 c -0.734375,0 -0.75,-0.109375 -0.75,-0.46875 V -2.3125 c 0,-0.984375 0.421875,-1.875 1.171875,-1.875 0.0625,0 0.09375,0 0.109375,0.015625 -0.03125,0 -0.234375,0.125 -0.234375,0.390625 0,0.265625 0.21875,0.421875 0.4375,0.421875 0.171875,0 0.421875,-0.125 0.421875,-0.4375 0,-0.3125 -0.3125,-0.609375 -0.734375,-0.609375 -0.734375,0 -1.09375,0.671875 -1.21875,1.09375 z m 0,0"
             id="path4358" />
        </g>
      </g>
      <path
         fill="none"
         stroke-width="0.8"
         stroke-linecap="butt"
         stroke-linejoin="round"
         stroke="#000000"
         stroke-opacity="1"
         stroke-miterlimit="10"
         d="m 34.890625,52.240096 h -3.5"
         transform="matrix(1,0,0,-1,0,141.73228)"
         id="path3080" />
      <g
         fill="#000000"
         fill-opacity="1"
         id="g3084">
        <g
           id="use3082"
           transform="translate(23.655678,92.259087)">
          <path
             d="m 2.5,-5.078125 c 0,-0.21875 -0.015625,-0.21875 -0.234375,-0.21875 -0.328125,0.3125 -0.75,0.5 -1.5,0.5 v 0.265625 c 0.21875,0 0.640625,0 1.109375,-0.203125 v 4.078125 c 0,0.296875 -0.03125,0.390625 -0.78125,0.390625 H 0.8125 V 0 c 0.328125,-0.03125 1.015625,-0.03125 1.375,-0.03125 0.359375,0 1.046875,0 1.375,0.03125 V -0.265625 H 3.28125 c -0.75,0 -0.78125,-0.09375 -0.78125,-0.390625 z m 0,0"
             id="path4402" />
        </g>
      </g>
      <path
         fill="none"
         stroke-width="0.8"
         stroke-linecap="butt"
         stroke-linejoin="round"
         stroke="#000000"
         stroke-opacity="1"
         stroke-miterlimit="10"
         d="m 34.890625,68.681502 h -3.5"
         transform="matrix(1,0,0,-1,0,141.73228)"
         id="path3086" />
      <g
         fill="#000000"
         fill-opacity="1"
         id="g3090">
        <g
           id="use3088"
           transform="translate(23.655678,75.816879)">
          <path
             d="m 2.25,-1.625 c 0.125,-0.125 0.453125,-0.390625 0.59375,-0.5 0.484375,-0.453125 0.953125,-0.890625 0.953125,-1.609375 0,-0.953125 -0.796875,-1.5625 -1.78125,-1.5625 -0.96875,0 -1.59375,0.71875 -1.59375,1.4375 0,0.390625 0.3125,0.4375 0.421875,0.4375 0.171875,0 0.421875,-0.109375 0.421875,-0.421875 0,-0.40625 -0.40625,-0.40625 -0.5,-0.40625 C 1,-4.84375 1.53125,-5.03125 1.921875,-5.03125 c 0.734375,0 1.125,0.625 1.125,1.296875 0,0.828125 -0.578125,1.4375 -1.53125,2.390625 l -1,1.046875 C 0.421875,-0.21875 0.421875,-0.203125 0.421875,0 H 3.5625 l 0.234375,-1.421875 h -0.25 C 3.53125,-1.265625 3.46875,-0.875 3.375,-0.71875 c -0.046875,0.0625 -0.65625,0.0625 -0.78125,0.0625 H 1.171875 Z m 0,0"
             id="path4506" />
        </g>
      </g>
      <path
         fill="none"
         stroke-width="0.8"
         stroke-linecap="butt"
         stroke-linejoin="round"
         stroke="#000000"
         stroke-opacity="1"
         stroke-miterlimit="10"
         d="m 34.890625,85.126815 h -3.5"
         transform="matrix(1,0,0,-1,0,141.73228)"
         id="path3092" />
      <g
         fill="#000000"
         fill-opacity="1"
         id="g3096">
        <g
           id="use3094"
           transform="translate(23.655678,59.37468)">
          <path
             d="m 2.015625,-2.65625 c 0.625,0 1.03125,0.453125 1.03125,1.296875 0,1 -0.5625,1.28125 -0.984375,1.28125 -0.4375,0 -1.046875,-0.15625 -1.328125,-0.578125 0.296875,0 0.5,-0.1875 0.5,-0.4375 0,-0.265625 -0.1875,-0.4375 -0.453125,-0.4375 -0.203125,0 -0.4375,0.125 -0.4375,0.453125 0,0.75 0.8125,1.25 1.734375,1.25 C 3.125,0.171875 3.875,-0.5625 3.875,-1.359375 3.875,-2.03125 3.34375,-2.625 2.53125,-2.8125 c 0.625,-0.21875 1.109375,-0.75 1.109375,-1.390625 0,-0.640625 -0.71875,-1.09375 -1.546875,-1.09375 -0.859375,0 -1.5,0.453125 -1.5,1.0625 0,0.296875 0.1875,0.421875 0.40625,0.421875 0.25,0 0.40625,-0.171875 0.40625,-0.40625 0,-0.296875 -0.265625,-0.40625 -0.4375,-0.40625 0.34375,-0.4375 0.953125,-0.46875 1.09375,-0.46875 0.203125,0 0.8125,0.0625 0.8125,0.890625 0,0.546875 -0.234375,0.890625 -0.34375,1.015625 -0.234375,0.25 -0.421875,0.265625 -0.90625,0.296875 -0.15625,0 -0.21875,0.015625 -0.21875,0.125 0,0.109375 0.078125,0.109375 0.21875,0.109375 z m 0,0"
             id="path4382" />
        </g>
      </g>
      <path
         fill="none"
         stroke-width="0.8"
         stroke-linecap="butt"
         stroke-linejoin="round"
         stroke="#000000"
         stroke-opacity="1"
         stroke-miterlimit="10"
         d="m 34.890625,101.56822 h -3.5"
         transform="matrix(1,0,0,-1,0,141.73228)"
         id="path3098" />
      <g
         fill="#000000"
         fill-opacity="1"
         id="g3102">
        <g
           id="use3100"
           transform="translate(23.655678,42.93248)">
          <path
             d="m 3.140625,-5.15625 c 0,-0.15625 0,-0.21875 -0.171875,-0.21875 -0.09375,0 -0.109375,0 -0.1875,0.109375 L 0.234375,-1.5625 v 0.25 h 2.25 v 0.671875 c 0,0.296875 -0.015625,0.375 -0.640625,0.375 H 1.671875 V 0 c 0.671875,-0.03125 0.6875,-0.03125 1.140625,-0.03125 0.453125,0 0.46875,0 1.140625,0.03125 V -0.265625 H 3.78125 c -0.625,0 -0.640625,-0.078125 -0.640625,-0.375 V -1.3125 h 0.84375 v -0.25 h -0.84375 z m -0.59375,0.640625 V -1.5625 h -2.03125 z m 0,0"
             id="path4366" />
        </g>
      </g>
      <path
         fill="none"
         stroke-width="0.8"
         stroke-linecap="butt"
         stroke-linejoin="round"
         stroke="#000000"
         stroke-opacity="1"
         stroke-miterlimit="10"
         d="m 34.890625,118.00963 h -3.5"
         transform="matrix(1,0,0,-1,0,141.73228)"
         id="path3104" />
      <g
         fill="#000000"
         fill-opacity="1"
         id="g3108">
        <g
           id="use3106"
           transform="translate(23.655678,26.490278)">
          <path
             d="m 1.109375,-4.484375 c 0.109375,0.03125 0.421875,0.125 0.765625,0.125 1,0 1.59375,-0.703125 1.59375,-0.828125 0,-0.09375 -0.046875,-0.109375 -0.09375,-0.109375 -0.015625,0 -0.03125,0 -0.09375,0.03125 -0.3125,0.125 -0.6875,0.21875 -1.109375,0.21875 -0.46875,0 -0.859375,-0.109375 -1.109375,-0.21875 -0.078125,-0.03125 -0.09375,-0.03125 -0.109375,-0.03125 -0.09375,0 -0.09375,0.078125 -0.09375,0.234375 v 2.328125 c 0,0.140625 0,0.234375 0.125,0.234375 0.0625,0 0.078125,-0.03125 0.125,-0.09375 C 1.203125,-2.703125 1.5,-3.109375 2.1875,-3.109375 c 0.4375,0 0.65625,0.359375 0.734375,0.515625 0.125,0.28125 0.140625,0.65625 0.140625,0.953125 0,0.296875 0,0.734375 -0.21875,1.078125 -0.15625,0.25 -0.484375,0.484375 -0.90625,0.484375 -0.515625,0 -1.015625,-0.3125 -1.203125,-0.84375 C 0.75,-0.90625 0.8125,-0.90625 0.8125,-0.90625 c 0.21875,0 0.40625,-0.140625 0.40625,-0.390625 0,-0.296875 -0.234375,-0.40625 -0.390625,-0.40625 -0.15625,0 -0.40625,0.078125 -0.40625,0.421875 0,0.71875 0.625,1.453125 1.53125,1.453125 1,0 1.84375,-0.78125 1.84375,-1.765625 0,-0.921875 -0.671875,-1.75 -1.609375,-1.75 -0.390625,0 -0.765625,0.125 -1.078125,0.40625 z m 0,0"
             id="path4286" />
        </g>
      </g>
      <path
         fill="none"
         stroke-width="0.6"
         stroke-linecap="butt"
         stroke-linejoin="round"
         stroke="#000000"
         stroke-opacity="1"
         stroke-miterlimit="10"
         d="m 34.890625,44.021346 h -2"
         transform="matrix(1,0,0,-1,0,141.73228)"
         id="path3110" />
      <path
         fill="none"
         stroke-width="0.6"
         stroke-linecap="butt"
         stroke-linejoin="round"
         stroke="#000000"
         stroke-opacity="1"
         stroke-miterlimit="10"
         d="m 34.890625,60.462752 h -2"
         transform="matrix(1,0,0,-1,0,141.73228)"
         id="path3112" />
      <path
         fill="none"
         stroke-width="0.6"
         stroke-linecap="butt"
         stroke-linejoin="round"
         stroke="#000000"
         stroke-opacity="1"
         stroke-miterlimit="10"
         d="m 34.890625,76.904158 h -2"
         transform="matrix(1,0,0,-1,0,141.73228)"
         id="path3114" />
      <path
         fill="none"
         stroke-width="0.6"
         stroke-linecap="butt"
         stroke-linejoin="round"
         stroke="#000000"
         stroke-opacity="1"
         stroke-miterlimit="10"
         d="m 34.890625,93.345565 h -2"
         transform="matrix(1,0,0,-1,0,141.73228)"
         id="path3116" />
      <path
         fill="none"
         stroke-width="0.6"
         stroke-linecap="butt"
         stroke-linejoin="round"
         stroke="#000000"
         stroke-opacity="1"
         stroke-miterlimit="10"
         d="m 34.890625,109.78697 h -2"
         transform="matrix(1,0,0,-1,0,141.73228)"
         id="path3118" />
      <g
         fill="#000000"
         fill-opacity="1"
         id="g3136">
        <g
           id="use3120"
           transform="translate(17.718498,81.129929)">
          <path
             d="m -6.9375,-3.96875 c -0.125,0.046875 -0.203125,0.078125 -0.203125,0.234375 0,0.15625 0.0625,0.1875 0.203125,0.234375 l 5.953125,2.0625 C -0.46875,-1.25 -0.3125,-0.859375 -0.3125,-0.3125 H 0 c -0.015625,-0.234375 -0.03125,-0.671875 -0.03125,-1.015625 0,-0.3125 0.015625,-0.828125 0.03125,-1.15625 h -0.3125 c 0,0.5 -0.25,0.75 -0.5,0.75 -0.03125,0 -0.140625,-0.015625 -0.15625,-0.015625 L -2.265625,-2.21875 V -4.671875 L -0.75,-5.203125 c 0.046875,-0.015625 0.109375,-0.03125 0.140625,-0.03125 0.296875,0 0.296875,0.5625 0.296875,0.828125 H 0 c -0.03125,-0.359375 -0.03125,-1.0625 -0.03125,-1.4375 0,-0.421875 0.015625,-0.890625 0.03125,-1.296875 h -0.3125 v 0.171875 c 0,0.59375 -0.0625,0.734375 -0.390625,0.84375 z m 1.109375,0.53125 3.25,-1.125 v 2.234375 z m 0,0"
             id="path4354" />
        </g>
        <g
           id="use3122"
           transform="translate(17.718498,73.657951)">
          <path
             d="m -3.765625,-1.71875 h -3.15625 l 0.109375,1.4375 H -6.5 c 0,-0.703125 0.0625,-0.78125 0.5625,-0.78125 H 0 v -0.25 c -0.015625,0 -0.15625,-0.078125 -0.625,-0.359375 0.234375,-0.140625 0.734375,-0.5625 0.734375,-1.296875 0,-1.1875 -0.984375,-2.21875 -2.265625,-2.21875 -1.265625,0 -2.25,0.96875 -2.25,2.109375 0,0.78125 0.46875,1.203125 0.640625,1.359375 z m 2.625,-0.03125 H -3.1875 c -0.1875,0 -0.203125,0 -0.359375,-0.109375 C -4.109375,-2.25 -4.1875,-2.796875 -4.1875,-3.03125 c 0,-0.453125 0.265625,-0.8125 0.640625,-1.046875 0.40625,-0.265625 0.96875,-0.28125 1.390625,-0.28125 0.359375,0 0.953125,0.015625 1.40625,0.296875 0.3125,0.21875 0.640625,0.59375 0.640625,1.125 0,0.453125 -0.234375,0.8125 -0.609375,1.046875 C -0.921875,-1.75 -0.953125,-1.75 -1.140625,-1.75 Z m 0,0"
             id="path4310" />
        </g>
        <g
           id="use3124"
           transform="translate(17.718498,68.128685)">
          <path
             d="m -1.9375,-2.078125 c 0.046875,-0.21875 0.203125,-1.03125 0.921875,-1.03125 0.5,0 0.90625,0.34375 0.90625,1.125 0,0.84375 -0.5625,1.203125 -1.421875,1.390625 -0.125,0.03125 -0.15625,0.03125 -0.15625,0.140625 0,0.125 0.0625,0.125 0.234375,0.125 H -0.125 c 0.171875,0 0.234375,0 0.234375,-0.109375 0,-0.046875 -0.015625,-0.0625 -0.203125,-0.25 -0.015625,-0.015625 -0.03125,-0.015625 -0.21875,-0.203125 0.40625,-0.4375 0.421875,-0.890625 0.421875,-1.09375 0,-1.140625 -0.671875,-1.609375 -1.390625,-1.609375 -0.515625,0 -0.828125,0.296875 -0.9375,0.421875 -0.328125,0.328125 -0.40625,0.71875 -0.484375,1.140625 -0.109375,0.5625 -0.234375,1.21875 -0.8125,1.21875 -0.359375,0 -0.765625,-0.25 -0.765625,-1.109375 0,-1.09375 0.90625,-1.15625 1.203125,-1.171875 0.09375,0 0.09375,-0.09375 0.09375,-0.109375 0,-0.140625 -0.046875,-0.140625 -0.234375,-0.140625 h -1.015625 c -0.15625,0 -0.234375,0 -0.234375,0.109375 0,0.046875 0,0.078125 0.125,0.203125 0.03125,0.03125 0.125,0.125 0.15625,0.171875 -0.28125,0.375 -0.28125,0.78125 -0.28125,0.9375 0,1.21875 0.671875,1.59375 1.234375,1.59375 0.34375,0 0.625,-0.15625 0.84375,-0.421875 0.25,-0.328125 0.3125,-0.609375 0.453125,-1.328125 z m 0,0"
             id="path4270" />
        </g>
        <g
           id="use3126"
           transform="translate(17.718498,64.2034)">
          <path
             d="m -2.140625,-4.6875 c -1.265625,0 -2.328125,0.984375 -2.328125,2.1875 0,1.25 1.09375,2.21875 2.328125,2.21875 1.296875,0 2.25,-1.03125 2.25,-2.203125 0,-1.203125 -0.984375,-2.203125 -2.25,-2.203125 z m 2,2.1875 c 0,0.4375 -0.203125,0.875 -0.671875,1.140625 -0.4375,0.25 -1.046875,0.25 -1.40625,0.25 -0.390625,0 -0.921875,0 -1.359375,-0.234375 C -4.03125,-1.609375 -4.25,-2.078125 -4.25,-2.484375 c 0,-0.4375 0.21875,-0.859375 0.65625,-1.125 0.421875,-0.265625 1,-0.265625 1.375,-0.265625 0.359375,0 0.90625,0 1.34375,0.21875 0.453125,0.234375 0.734375,0.671875 0.734375,1.15625 z m 0,0"
             id="path4306" />
        </g>
        <g
           id="use3128"
           transform="translate(17.718498,59.222084)">
          <path
             d="m -6.921875,-1.765625 0.109375,1.4375 H -6.5 c 0,-0.703125 0.0625,-0.78125 0.5625,-0.78125 H -0.75 c 0.4375,0 0.4375,0.109375 0.4375,0.78125 H 0 C -0.015625,-0.65625 -0.03125,-1.1875 -0.03125,-1.4375 c 0,-0.25 0.015625,-0.734375 0.03125,-1.109375 h -0.3125 c 0,0.671875 0,0.78125 -0.4375,0.78125 z m 0,0"
             id="path4346" />
        </g>
        <g
           id="use3130"
           transform="translate(17.718498,56.462433)">
          <path
             d="M -0.78125,-3.890625 H 0.109375 L 0,-5.328125 h -0.3125 c 0,0.6875 -0.0625,0.765625 -0.5625,0.765625 h -3.53125 l 0.109375,1.46875 h 0.3125 c 0,-0.6875 0.0625,-0.78125 0.5625,-0.78125 h 1.765625 c 0.875,0 1.546875,0.484375 1.546875,1.21875 0,0.828125 -0.46875,0.875 -0.984375,0.875 h -3.3125 l 0.109375,1.46875 h 0.3125 c 0,-0.78125 0.03125,-0.78125 0.90625,-0.78125 h 1.5 c 0.78125,0 1.6875,0 1.6875,-1.515625 0,-0.5625 -0.28125,-1 -0.890625,-1.28125 z m 0,0"
             id="path4242" />
        </g>
        <g
           id="use3132"
           transform="translate(17.718498,50.933167)">
          <path
             d="m -3.984375,-1.71875 v -1.4375 h -0.3125 v 1.4375 H -6.125 v 0.25 c 0.8125,0 1.875,0.296875 1.921875,1.28125 h 0.21875 v -0.84375 h 2.75 c 1.21875,0 1.34375,-0.9375 1.34375,-1.296875 0,-0.703125 -0.703125,-0.984375 -1.34375,-0.984375 h -0.5625 v 0.25 H -1.25 c 0.734375,0 1.109375,0.296875 1.109375,0.671875 0,0.671875 -0.90625,0.671875 -1.078125,0.671875 z m 0,0"
             id="path4338" />
        </g>
        <g
           id="use3134"
           transform="translate(17.718498,47.067661)">
          <path
             d="M -2.515625,-1.109375 C -4,-1.171875 -4.25,-2.015625 -4.25,-2.359375 c 0,-1.015625 1.34375,-1.125 1.734375,-1.125 z m 0.21875,0 v -2.78125 c 0,-0.21875 0,-0.25 -0.21875,-0.25 -0.984375,0 -1.953125,0.546875 -1.953125,1.78125 0,1.15625 1.03125,2.078125 2.28125,2.078125 1.328125,0 2.296875,-1.046875 2.296875,-2.1875 0,-1.21875 -1.109375,-1.671875 -1.296875,-1.671875 -0.09375,0 -0.125,0.078125 -0.125,0.140625 0,0.078125 0.0625,0.109375 0.140625,0.125 1.03125,0.34375 1.03125,1.25 1.03125,1.34375 0,0.5 -0.296875,0.890625 -0.671875,1.125 -0.46875,0.296875 -1.125,0.296875 -1.484375,0.296875 z m 0,0"
             id="path4326" />
        </g>
      </g>
      <g
         fill="#000000"
         fill-opacity="1"
         id="g3140">
        <g
           id="use3138"
           transform="translate(34.889858,16.745508)">
          <path
             d="m 5.21875,-3.671875 c 0.09375,-0.09375 0.109375,-0.125 0.109375,-0.1875 0,-0.09375 -0.078125,-0.1875 -0.1875,-0.1875 -0.0625,0 -0.09375,0.03125 -0.1875,0.125 L 3.296875,-2.25 1.625,-3.921875 c -0.109375,-0.109375 -0.140625,-0.125 -0.203125,-0.125 -0.09375,0 -0.171875,0.09375 -0.171875,0.1875 0,0.078125 0.03125,0.109375 0.109375,0.1875 l 1.671875,1.6875 -1.671875,1.65625 C 1.265625,-0.21875 1.25,-0.1875 1.25,-0.125 c 0,0.09375 0.078125,0.1875 0.171875,0.1875 0.078125,0 0.09375,-0.03125 0.1875,-0.125 l 1.671875,-1.671875 1.734375,1.75 C 5.0625,0.03125 5.109375,0.0625 5.140625,0.0625 c 0.109375,0 0.1875,-0.09375 0.1875,-0.1875 0,-0.0625 -0.03125,-0.09375 -0.03125,-0.109375 -0.03125,-0.046875 -1.3125,-1.3125 -1.75,-1.75 z m 0,0"
             id="path4222" />
        </g>
      </g>
      <g
         fill="#000000"
         fill-opacity="1"
         id="g3146">
        <g
           id="use3142"
           transform="translate(41.476364,16.745508)">
          <path
             d="m 2.5,-5.078125 c 0,-0.21875 -0.015625,-0.21875 -0.234375,-0.21875 -0.328125,0.3125 -0.75,0.5 -1.5,0.5 v 0.265625 c 0.21875,0 0.640625,0 1.109375,-0.203125 v 4.078125 c 0,0.296875 -0.03125,0.390625 -0.78125,0.390625 H 0.8125 V 0 c 0.328125,-0.03125 1.015625,-0.03125 1.375,-0.03125 0.359375,0 1.046875,0 1.375,0.03125 V -0.265625 H 3.28125 c -0.75,0 -0.78125,-0.09375 -0.78125,-0.390625 z m 0,0"
             id="path4406" />
        </g>
        <g
           id="use3144"
           transform="translate(45.708496,16.745508)">
          <path
             d="m 3.890625,-2.546875 c 0,-0.84375 -0.078125,-1.359375 -0.34375,-1.875 -0.34375,-0.703125 -1,-0.875 -1.4375,-0.875 -1,0 -1.375,0.75 -1.484375,0.96875 -0.28125,0.578125 -0.296875,1.375 -0.296875,1.78125 0,0.53125 0.015625,1.328125 0.40625,1.96875 0.359375,0.59375 0.953125,0.75 1.375,0.75 0.390625,0 1.0625,-0.125 1.46875,-0.90625 0.296875,-0.578125 0.3125,-1.296875 0.3125,-1.8125 z M 2.109375,-0.0625 C 1.84375,-0.0625 1.296875,-0.1875 1.125,-1.015625 1.03125,-1.46875 1.03125,-2.21875 1.03125,-2.640625 1.03125,-3.1875 1.03125,-3.75 1.125,-4.1875 1.296875,-5 1.90625,-5.078125 2.109375,-5.078125 c 0.265625,0 0.828125,0.140625 0.984375,0.859375 0.09375,0.4375 0.09375,1.046875 0.09375,1.578125 0,0.46875 0,1.1875 -0.09375,1.640625 -0.171875,0.828125 -0.71875,0.9375 -0.984375,0.9375 z m 0,0"
             id="path4446" />
        </g>
      </g>
      <g
         fill="#000000"
         fill-opacity="1"
         id="g3150">
        <g
           id="use3148"
           transform="translate(49.944733,13.932723)">
          <path
             d="m 1.765625,-1.984375 c 0.5,0 0.84375,0.34375 0.84375,0.953125 0,0.65625 -0.390625,0.9375 -0.828125,0.9375 C 1.609375,-0.09375 1,-0.125 0.734375,-0.46875 0.96875,-0.5 1.0625,-0.65625 1.0625,-0.8125 c 0,-0.203125 -0.140625,-0.34375 -0.34375,-0.34375 -0.15625,0 -0.34375,0.109375 -0.34375,0.359375 0,0.59375 0.65625,0.921875 1.421875,0.921875 0.890625,0 1.46875,-0.5625 1.46875,-1.15625 0,-0.4375 -0.328125,-0.90625 -1.046875,-1.078125 0.484375,-0.15625 0.859375,-0.546875 0.859375,-1.03125 0,-0.484375 -0.5625,-0.84375 -1.28125,-0.84375 -0.703125,0 -1.234375,0.328125 -1.234375,0.8125 0,0.265625 0.203125,0.328125 0.328125,0.328125 0.15625,0 0.3125,-0.09375 0.3125,-0.3125 0,-0.1875 -0.125,-0.296875 -0.296875,-0.3125 0.28125,-0.3125 0.828125,-0.3125 0.890625,-0.3125 0.296875,0 0.6875,0.140625 0.6875,0.640625 0,0.328125 -0.1875,0.90625 -0.796875,0.9375 -0.109375,0 -0.265625,0.015625 -0.3125,0.015625 -0.0625,0.015625 -0.125,0.015625 -0.125,0.109375 0,0.09375 0.0625,0.09375 0.15625,0.09375 z m 0,0"
             id="path4314" />
        </g>
      </g>
      <path
         fill="none"
         stroke-width="1.5"
         stroke-linecap="square"
         stroke-linejoin="round"
         stroke="#808080"
         stroke-opacity="1"
         stroke-miterlimit="10"
         d="m 160.88672,118.15806 v -14.55078 h -9.23047 V 84.712752 h -9.23047 V 70.064315 h -9.23047 v -8.976563 h -9.23047 v -7.597656 h -9.23046 v -3.617188 h -9.23047 v -3.4375 h -9.230472 v -1.90625 H 87.042969 V 44.349471 H 77.8125 V 43.658065 H 68.582031 V 42.39244 h -9.230468 v -0.28125 h -9.230469 v -0.542969 h -9.230469"
         transform="matrix(1,0,0,-1,0,141.73228)"
         id="path3152" />
      <path
         fill="none"
         stroke-width="0.8"
         stroke-linecap="square"
         stroke-linejoin="miter"
         stroke="#000000"
         stroke-opacity="1"
         stroke-miterlimit="10"
         d="M 34.890625,37.740096 V 121.98619"
         transform="matrix(1,0,0,-1,0,141.73228)"
         id="path3154" />
      <path
         fill="none"
         stroke-width="0.8"
         stroke-linecap="square"
         stroke-linejoin="miter"
         stroke="#000000"
         stroke-opacity="1"
         stroke-miterlimit="10"
         d="M 166.88672,37.740096 V 121.98619"
         transform="matrix(1,0,0,-1,0,141.73228)"
         id="path3156" />
      <path
         fill="none"
         stroke-width="0.8"
         stroke-linecap="square"
         stroke-linejoin="miter"
         stroke="#000000"
         stroke-opacity="1"
         stroke-miterlimit="10"
         d="M 34.890625,37.740096 H 166.88672"
         transform="matrix(1,0,0,-1,0,141.73228)"
         id="path3158" />
      <path
         fill="none"
         stroke-width="0.8"
         stroke-linecap="butt"
         stroke-linejoin="round"
         stroke="#0000ff"
         stroke-opacity="1"
         stroke-miterlimit="10"
         d="m 166.88672,49.482283 h 3.5"
         transform="matrix(1,0,0,-1,0,141.73228)"
         id="path3160" />
      <g
         fill="#0000ff"
         fill-opacity="1"
         id="g3164">
        <g
           id="use3162"
           transform="translate(173.88788,95.017754)">
          <path
             d="m 3.890625,-2.546875 c 0,-0.84375 -0.078125,-1.359375 -0.34375,-1.875 -0.34375,-0.703125 -1,-0.875 -1.4375,-0.875 -1,0 -1.375,0.75 -1.484375,0.96875 -0.28125,0.578125 -0.296875,1.375 -0.296875,1.78125 0,0.53125 0.015625,1.328125 0.40625,1.96875 0.359375,0.59375 0.953125,0.75 1.375,0.75 0.390625,0 1.0625,-0.125 1.46875,-0.90625 0.296875,-0.578125 0.3125,-1.296875 0.3125,-1.8125 z M 2.109375,-0.0625 C 1.84375,-0.0625 1.296875,-0.1875 1.125,-1.015625 1.03125,-1.46875 1.03125,-2.21875 1.03125,-2.640625 1.03125,-3.1875 1.03125,-3.75 1.125,-4.1875 1.296875,-5 1.90625,-5.078125 2.109375,-5.078125 c 0.265625,0 0.828125,0.140625 0.984375,0.859375 0.09375,0.4375 0.09375,1.046875 0.09375,1.578125 0,0.46875 0,1.1875 -0.09375,1.640625 -0.171875,0.828125 -0.71875,0.9375 -0.984375,0.9375 z m 0,0"
             id="path4450" />
        </g>
      </g>
      <g
         fill="#0000ff"
         fill-opacity="1"
         id="g3168">
        <g
           id="use3166"
           transform="translate(178.12206,95.017754)">
          <path
             d="m 1.625,-0.4375 c 0,-0.265625 -0.234375,-0.453125 -0.453125,-0.453125 -0.25,0 -0.4375,0.21875 -0.4375,0.4375 C 0.734375,-0.171875 0.953125,0 1.171875,0 1.421875,0 1.625,-0.203125 1.625,-0.4375 Z m 0,0"
             id="path4250" />
        </g>
      </g>
      <g
         fill="#0000ff"
         fill-opacity="1"
         id="g3174">
        <g
           id="use3170"
           transform="translate(180.47438,95.017754)">
          <path
             d="m 2.25,-1.625 c 0.125,-0.125 0.453125,-0.390625 0.59375,-0.5 0.484375,-0.453125 0.953125,-0.890625 0.953125,-1.609375 0,-0.953125 -0.796875,-1.5625 -1.78125,-1.5625 -0.96875,0 -1.59375,0.71875 -1.59375,1.4375 0,0.390625 0.3125,0.4375 0.421875,0.4375 0.171875,0 0.421875,-0.109375 0.421875,-0.421875 0,-0.40625 -0.40625,-0.40625 -0.5,-0.40625 C 1,-4.84375 1.53125,-5.03125 1.921875,-5.03125 c 0.734375,0 1.125,0.625 1.125,1.296875 0,0.828125 -0.578125,1.4375 -1.53125,2.390625 l -1,1.046875 C 0.421875,-0.21875 0.421875,-0.203125 0.421875,0 H 3.5625 l 0.234375,-1.421875 h -0.25 C 3.53125,-1.265625 3.46875,-0.875 3.375,-0.71875 c -0.046875,0.0625 -0.65625,0.0625 -0.78125,0.0625 H 1.171875 Z m 0,0"
             id="path4510" />
        </g>
        <g
           id="use3172"
           transform="translate(184.70651,95.017754)">
          <path
             d="m 1.109375,-4.484375 c 0.109375,0.03125 0.421875,0.125 0.765625,0.125 1,0 1.59375,-0.703125 1.59375,-0.828125 0,-0.09375 -0.046875,-0.109375 -0.09375,-0.109375 -0.015625,0 -0.03125,0 -0.09375,0.03125 -0.3125,0.125 -0.6875,0.21875 -1.109375,0.21875 -0.46875,0 -0.859375,-0.109375 -1.109375,-0.21875 -0.078125,-0.03125 -0.09375,-0.03125 -0.109375,-0.03125 -0.09375,0 -0.09375,0.078125 -0.09375,0.234375 v 2.328125 c 0,0.140625 0,0.234375 0.125,0.234375 0.0625,0 0.078125,-0.03125 0.125,-0.09375 C 1.203125,-2.703125 1.5,-3.109375 2.1875,-3.109375 c 0.4375,0 0.65625,0.359375 0.734375,0.515625 0.125,0.28125 0.140625,0.65625 0.140625,0.953125 0,0.296875 0,0.734375 -0.21875,1.078125 -0.15625,0.25 -0.484375,0.484375 -0.90625,0.484375 -0.515625,0 -1.015625,-0.3125 -1.203125,-0.84375 C 0.75,-0.90625 0.8125,-0.90625 0.8125,-0.90625 c 0.21875,0 0.40625,-0.140625 0.40625,-0.390625 0,-0.296875 -0.234375,-0.40625 -0.390625,-0.40625 -0.15625,0 -0.40625,0.078125 -0.40625,0.421875 0,0.71875 0.625,1.453125 1.53125,1.453125 1,0 1.84375,-0.78125 1.84375,-1.765625 0,-0.921875 -0.671875,-1.75 -1.609375,-1.75 -0.390625,0 -0.765625,0.125 -1.078125,0.40625 z m 0,0"
             id="path4290" />
        </g>
      </g>
      <path
         fill="none"
         stroke-width="0.8"
         stroke-linecap="butt"
         stroke-linejoin="round"
         stroke="#0000ff"
         stroke-opacity="1"
         stroke-miterlimit="10"
         d="m 166.88672,67.478377 h 3.5"
         transform="matrix(1,0,0,-1,0,141.73228)"
         id="path3176" />
      <g
         fill="#0000ff"
         fill-opacity="1"
         id="g3180">
        <g
           id="use3178"
           transform="translate(173.88788,77.021568)">
          <path
             d="m 3.890625,-2.546875 c 0,-0.84375 -0.078125,-1.359375 -0.34375,-1.875 -0.34375,-0.703125 -1,-0.875 -1.4375,-0.875 -1,0 -1.375,0.75 -1.484375,0.96875 -0.28125,0.578125 -0.296875,1.375 -0.296875,1.78125 0,0.53125 0.015625,1.328125 0.40625,1.96875 0.359375,0.59375 0.953125,0.75 1.375,0.75 0.390625,0 1.0625,-0.125 1.46875,-0.90625 0.296875,-0.578125 0.3125,-1.296875 0.3125,-1.8125 z M 2.109375,-0.0625 C 1.84375,-0.0625 1.296875,-0.1875 1.125,-1.015625 1.03125,-1.46875 1.03125,-2.21875 1.03125,-2.640625 1.03125,-3.1875 1.03125,-3.75 1.125,-4.1875 1.296875,-5 1.90625,-5.078125 2.109375,-5.078125 c 0.265625,0 0.828125,0.140625 0.984375,0.859375 0.09375,0.4375 0.09375,1.046875 0.09375,1.578125 0,0.46875 0,1.1875 -0.09375,1.640625 -0.171875,0.828125 -0.71875,0.9375 -0.984375,0.9375 z m 0,0"
             id="path4454" />
        </g>
      </g>
      <g
         fill="#0000ff"
         fill-opacity="1"
         id="g3184">
        <g
           id="use3182"
           transform="translate(178.12206,77.021568)">
          <path
             d="m 1.625,-0.4375 c 0,-0.265625 -0.234375,-0.453125 -0.453125,-0.453125 -0.25,0 -0.4375,0.21875 -0.4375,0.4375 C 0.734375,-0.171875 0.953125,0 1.171875,0 1.421875,0 1.625,-0.203125 1.625,-0.4375 Z m 0,0"
             id="path4254" />
        </g>
      </g>
      <g
         fill="#0000ff"
         fill-opacity="1"
         id="g3190">
        <g
           id="use3186"
           transform="translate(180.47438,77.021568)">
          <path
             d="m 1.109375,-4.484375 c 0.109375,0.03125 0.421875,0.125 0.765625,0.125 1,0 1.59375,-0.703125 1.59375,-0.828125 0,-0.09375 -0.046875,-0.109375 -0.09375,-0.109375 -0.015625,0 -0.03125,0 -0.09375,0.03125 -0.3125,0.125 -0.6875,0.21875 -1.109375,0.21875 -0.46875,0 -0.859375,-0.109375 -1.109375,-0.21875 -0.078125,-0.03125 -0.09375,-0.03125 -0.109375,-0.03125 -0.09375,0 -0.09375,0.078125 -0.09375,0.234375 v 2.328125 c 0,0.140625 0,0.234375 0.125,0.234375 0.0625,0 0.078125,-0.03125 0.125,-0.09375 C 1.203125,-2.703125 1.5,-3.109375 2.1875,-3.109375 c 0.4375,0 0.65625,0.359375 0.734375,0.515625 0.125,0.28125 0.140625,0.65625 0.140625,0.953125 0,0.296875 0,0.734375 -0.21875,1.078125 -0.15625,0.25 -0.484375,0.484375 -0.90625,0.484375 -0.515625,0 -1.015625,-0.3125 -1.203125,-0.84375 C 0.75,-0.90625 0.8125,-0.90625 0.8125,-0.90625 c 0.21875,0 0.40625,-0.140625 0.40625,-0.390625 0,-0.296875 -0.234375,-0.40625 -0.390625,-0.40625 -0.15625,0 -0.40625,0.078125 -0.40625,0.421875 0,0.71875 0.625,1.453125 1.53125,1.453125 1,0 1.84375,-0.78125 1.84375,-1.765625 0,-0.921875 -0.671875,-1.75 -1.609375,-1.75 -0.390625,0 -0.765625,0.125 -1.078125,0.40625 z m 0,0"
             id="path4294" />
        </g>
        <g
           id="use3188"
           transform="translate(184.70651,77.021568)">
          <path
             d="m 3.890625,-2.546875 c 0,-0.84375 -0.078125,-1.359375 -0.34375,-1.875 -0.34375,-0.703125 -1,-0.875 -1.4375,-0.875 -1,0 -1.375,0.75 -1.484375,0.96875 -0.28125,0.578125 -0.296875,1.375 -0.296875,1.78125 0,0.53125 0.015625,1.328125 0.40625,1.96875 0.359375,0.59375 0.953125,0.75 1.375,0.75 0.390625,0 1.0625,-0.125 1.46875,-0.90625 0.296875,-0.578125 0.3125,-1.296875 0.3125,-1.8125 z M 2.109375,-0.0625 C 1.84375,-0.0625 1.296875,-0.1875 1.125,-1.015625 1.03125,-1.46875 1.03125,-2.21875 1.03125,-2.640625 1.03125,-3.1875 1.03125,-3.75 1.125,-4.1875 1.296875,-5 1.90625,-5.078125 2.109375,-5.078125 c 0.265625,0 0.828125,0.140625 0.984375,0.859375 0.09375,0.4375 0.09375,1.046875 0.09375,1.578125 0,0.46875 0,1.1875 -0.09375,1.640625 -0.171875,0.828125 -0.71875,0.9375 -0.984375,0.9375 z m 0,0"
             id="path4458" />
        </g>
      </g>
      <path
         fill="none"
         stroke-width="0.8"
         stroke-linecap="butt"
         stroke-linejoin="round"
         stroke="#0000ff"
         stroke-opacity="1"
         stroke-miterlimit="10"
         d="m 166.88672,85.474471 h 3.5"
         transform="matrix(1,0,0,-1,0,141.73228)"
         id="path3192" />
      <g
         fill="#0000ff"
         fill-opacity="1"
         id="g3196">
        <g
           id="use3194"
           transform="translate(173.88788,59.025387)">
          <path
             d="m 3.890625,-2.546875 c 0,-0.84375 -0.078125,-1.359375 -0.34375,-1.875 -0.34375,-0.703125 -1,-0.875 -1.4375,-0.875 -1,0 -1.375,0.75 -1.484375,0.96875 -0.28125,0.578125 -0.296875,1.375 -0.296875,1.78125 0,0.53125 0.015625,1.328125 0.40625,1.96875 0.359375,0.59375 0.953125,0.75 1.375,0.75 0.390625,0 1.0625,-0.125 1.46875,-0.90625 0.296875,-0.578125 0.3125,-1.296875 0.3125,-1.8125 z M 2.109375,-0.0625 C 1.84375,-0.0625 1.296875,-0.1875 1.125,-1.015625 1.03125,-1.46875 1.03125,-2.21875 1.03125,-2.640625 1.03125,-3.1875 1.03125,-3.75 1.125,-4.1875 1.296875,-5 1.90625,-5.078125 2.109375,-5.078125 c 0.265625,0 0.828125,0.140625 0.984375,0.859375 0.09375,0.4375 0.09375,1.046875 0.09375,1.578125 0,0.46875 0,1.1875 -0.09375,1.640625 -0.171875,0.828125 -0.71875,0.9375 -0.984375,0.9375 z m 0,0"
             id="path4462" />
        </g>
      </g>
      <g
         fill="#0000ff"
         fill-opacity="1"
         id="g3200">
        <g
           id="use3198"
           transform="translate(178.12206,59.025387)">
          <path
             d="m 1.625,-0.4375 c 0,-0.265625 -0.234375,-0.453125 -0.453125,-0.453125 -0.25,0 -0.4375,0.21875 -0.4375,0.4375 C 0.734375,-0.171875 0.953125,0 1.171875,0 1.421875,0 1.625,-0.203125 1.625,-0.4375 Z m 0,0"
             id="path4258" />
        </g>
      </g>
      <g
         fill="#0000ff"
         fill-opacity="1"
         id="g3206">
        <g
           id="use3202"
           transform="translate(180.47438,59.025387)">
          <path
             d="M 4.03125,-4.859375 C 4.109375,-4.9375 4.109375,-4.953125 4.109375,-5.125 H 2.078125 C 1.875,-5.125 1.640625,-5.140625 1.4375,-5.15625 1.015625,-5.1875 1.015625,-5.265625 0.984375,-5.390625 h -0.25 l -0.265625,1.6875 h 0.25 C 0.734375,-3.828125 0.828125,-4.375 0.9375,-4.4375 1.015625,-4.484375 1.625,-4.484375 1.734375,-4.484375 h 1.6875 L 2.609375,-3.375 C 1.703125,-2.171875 1.5,-0.90625 1.5,-0.28125 c 0,0.078125 0,0.453125 0.375,0.453125 0.375,0 0.375,-0.359375 0.375,-0.453125 V -0.671875 C 2.25,-1.8125 2.453125,-2.75 2.84375,-3.28125 Z m 0,0"
             id="path4322" />
        </g>
        <g
           id="use3204"
           transform="translate(184.70651,59.025387)">
          <path
             d="m 1.109375,-4.484375 c 0.109375,0.03125 0.421875,0.125 0.765625,0.125 1,0 1.59375,-0.703125 1.59375,-0.828125 0,-0.09375 -0.046875,-0.109375 -0.09375,-0.109375 -0.015625,0 -0.03125,0 -0.09375,0.03125 -0.3125,0.125 -0.6875,0.21875 -1.109375,0.21875 -0.46875,0 -0.859375,-0.109375 -1.109375,-0.21875 -0.078125,-0.03125 -0.09375,-0.03125 -0.109375,-0.03125 -0.09375,0 -0.09375,0.078125 -0.09375,0.234375 v 2.328125 c 0,0.140625 0,0.234375 0.125,0.234375 0.0625,0 0.078125,-0.03125 0.125,-0.09375 C 1.203125,-2.703125 1.5,-3.109375 2.1875,-3.109375 c 0.4375,0 0.65625,0.359375 0.734375,0.515625 0.125,0.28125 0.140625,0.65625 0.140625,0.953125 0,0.296875 0,0.734375 -0.21875,1.078125 -0.15625,0.25 -0.484375,0.484375 -0.90625,0.484375 -0.515625,0 -1.015625,-0.3125 -1.203125,-0.84375 C 0.75,-0.90625 0.8125,-0.90625 0.8125,-0.90625 c 0.21875,0 0.40625,-0.140625 0.40625,-0.390625 0,-0.296875 -0.234375,-0.40625 -0.390625,-0.40625 -0.15625,0 -0.40625,0.078125 -0.40625,0.421875 0,0.71875 0.625,1.453125 1.53125,1.453125 1,0 1.84375,-0.78125 1.84375,-1.765625 0,-0.921875 -0.671875,-1.75 -1.609375,-1.75 -0.390625,0 -0.765625,0.125 -1.078125,0.40625 z m 0,0"
             id="path4298" />
        </g>
      </g>
      <path
         fill="none"
         stroke-width="0.8"
         stroke-linecap="butt"
         stroke-linejoin="round"
         stroke="#0000ff"
         stroke-opacity="1"
         stroke-miterlimit="10"
         d="m 166.88672,103.47056 h 3.5"
         transform="matrix(1,0,0,-1,0,141.73228)"
         id="path3208" />
      <g
         fill="#0000ff"
         fill-opacity="1"
         id="g3212">
        <g
           id="use3210"
           transform="translate(173.88788,41.029205)">
          <path
             d="m 2.5,-5.078125 c 0,-0.21875 -0.015625,-0.21875 -0.234375,-0.21875 -0.328125,0.3125 -0.75,0.5 -1.5,0.5 v 0.265625 c 0.21875,0 0.640625,0 1.109375,-0.203125 v 4.078125 c 0,0.296875 -0.03125,0.390625 -0.78125,0.390625 H 0.8125 V 0 c 0.328125,-0.03125 1.015625,-0.03125 1.375,-0.03125 0.359375,0 1.046875,0 1.375,0.03125 V -0.265625 H 3.28125 c -0.75,0 -0.78125,-0.09375 -0.78125,-0.390625 z m 0,0"
             id="path4410" />
        </g>
      </g>
      <g
         fill="#0000ff"
         fill-opacity="1"
         id="g3216">
        <g
           id="use3214"
           transform="translate(178.12206,41.029205)">
          <path
             d="m 1.625,-0.4375 c 0,-0.265625 -0.234375,-0.453125 -0.453125,-0.453125 -0.25,0 -0.4375,0.21875 -0.4375,0.4375 C 0.734375,-0.171875 0.953125,0 1.171875,0 1.421875,0 1.625,-0.203125 1.625,-0.4375 Z m 0,0"
             id="path4262" />
        </g>
      </g>
      <g
         fill="#0000ff"
         fill-opacity="1"
         id="g3222">
        <g
           id="use3218"
           transform="translate(180.47438,41.029205)">
          <path
             d="m 3.890625,-2.546875 c 0,-0.84375 -0.078125,-1.359375 -0.34375,-1.875 -0.34375,-0.703125 -1,-0.875 -1.4375,-0.875 -1,0 -1.375,0.75 -1.484375,0.96875 -0.28125,0.578125 -0.296875,1.375 -0.296875,1.78125 0,0.53125 0.015625,1.328125 0.40625,1.96875 0.359375,0.59375 0.953125,0.75 1.375,0.75 0.390625,0 1.0625,-0.125 1.46875,-0.90625 0.296875,-0.578125 0.3125,-1.296875 0.3125,-1.8125 z M 2.109375,-0.0625 C 1.84375,-0.0625 1.296875,-0.1875 1.125,-1.015625 1.03125,-1.46875 1.03125,-2.21875 1.03125,-2.640625 1.03125,-3.1875 1.03125,-3.75 1.125,-4.1875 1.296875,-5 1.90625,-5.078125 2.109375,-5.078125 c 0.265625,0 0.828125,0.140625 0.984375,0.859375 0.09375,0.4375 0.09375,1.046875 0.09375,1.578125 0,0.46875 0,1.1875 -0.09375,1.640625 -0.171875,0.828125 -0.71875,0.9375 -0.984375,0.9375 z m 0,0"
             id="path4466" />
        </g>
        <g
           id="use3220"
           transform="translate(184.70651,41.029205)">
          <path
             d="m 3.890625,-2.546875 c 0,-0.84375 -0.078125,-1.359375 -0.34375,-1.875 -0.34375,-0.703125 -1,-0.875 -1.4375,-0.875 -1,0 -1.375,0.75 -1.484375,0.96875 -0.28125,0.578125 -0.296875,1.375 -0.296875,1.78125 0,0.53125 0.015625,1.328125 0.40625,1.96875 0.359375,0.59375 0.953125,0.75 1.375,0.75 0.390625,0 1.0625,-0.125 1.46875,-0.90625 0.296875,-0.578125 0.3125,-1.296875 0.3125,-1.8125 z M 2.109375,-0.0625 C 1.84375,-0.0625 1.296875,-0.1875 1.125,-1.015625 1.03125,-1.46875 1.03125,-2.21875 1.03125,-2.640625 1.03125,-3.1875 1.03125,-3.75 1.125,-4.1875 1.296875,-5 1.90625,-5.078125 2.109375,-5.078125 c 0.265625,0 0.828125,0.140625 0.984375,0.859375 0.09375,0.4375 0.09375,1.046875 0.09375,1.578125 0,0.46875 0,1.1875 -0.09375,1.640625 -0.171875,0.828125 -0.71875,0.9375 -0.984375,0.9375 z m 0,0"
             id="path4470" />
        </g>
      </g>
      <path
         fill="none"
         stroke-width="0.8"
         stroke-linecap="butt"
         stroke-linejoin="round"
         stroke="#0000ff"
         stroke-opacity="1"
         stroke-miterlimit="10"
         d="m 166.88672,121.46666 h 3.5"
         transform="matrix(1,0,0,-1,0,141.73228)"
         id="path3224" />
      <g
         fill="#0000ff"
         fill-opacity="1"
         id="g3228">
        <g
           id="use3226"
           transform="translate(173.88788,23.033022)">
          <path
             d="m 2.5,-5.078125 c 0,-0.21875 -0.015625,-0.21875 -0.234375,-0.21875 -0.328125,0.3125 -0.75,0.5 -1.5,0.5 v 0.265625 c 0.21875,0 0.640625,0 1.109375,-0.203125 v 4.078125 c 0,0.296875 -0.03125,0.390625 -0.78125,0.390625 H 0.8125 V 0 c 0.328125,-0.03125 1.015625,-0.03125 1.375,-0.03125 0.359375,0 1.046875,0 1.375,0.03125 V -0.265625 H 3.28125 c -0.75,0 -0.78125,-0.09375 -0.78125,-0.390625 z m 0,0"
             id="path4414" />
        </g>
      </g>
      <g
         fill="#0000ff"
         fill-opacity="1"
         id="g3232">
        <g
           id="use3230"
           transform="translate(178.12206,23.033022)">
          <path
             d="m 1.625,-0.4375 c 0,-0.265625 -0.234375,-0.453125 -0.453125,-0.453125 -0.25,0 -0.4375,0.21875 -0.4375,0.4375 C 0.734375,-0.171875 0.953125,0 1.171875,0 1.421875,0 1.625,-0.203125 1.625,-0.4375 Z m 0,0"
             id="path4266" />
        </g>
      </g>
      <g
         fill="#0000ff"
         fill-opacity="1"
         id="g3238">
        <g
           id="use3234"
           transform="translate(180.47438,23.033022)">
          <path
             d="m 2.25,-1.625 c 0.125,-0.125 0.453125,-0.390625 0.59375,-0.5 0.484375,-0.453125 0.953125,-0.890625 0.953125,-1.609375 0,-0.953125 -0.796875,-1.5625 -1.78125,-1.5625 -0.96875,0 -1.59375,0.71875 -1.59375,1.4375 0,0.390625 0.3125,0.4375 0.421875,0.4375 0.171875,0 0.421875,-0.109375 0.421875,-0.421875 0,-0.40625 -0.40625,-0.40625 -0.5,-0.40625 C 1,-4.84375 1.53125,-5.03125 1.921875,-5.03125 c 0.734375,0 1.125,0.625 1.125,1.296875 0,0.828125 -0.578125,1.4375 -1.53125,2.390625 l -1,1.046875 C 0.421875,-0.21875 0.421875,-0.203125 0.421875,0 H 3.5625 l 0.234375,-1.421875 h -0.25 C 3.53125,-1.265625 3.46875,-0.875 3.375,-0.71875 c -0.046875,0.0625 -0.65625,0.0625 -0.78125,0.0625 H 1.171875 Z m 0,0"
             id="path4514" />
        </g>
        <g
           id="use3236"
           transform="translate(184.70651,23.033022)">
          <path
             d="m 1.109375,-4.484375 c 0.109375,0.03125 0.421875,0.125 0.765625,0.125 1,0 1.59375,-0.703125 1.59375,-0.828125 0,-0.09375 -0.046875,-0.109375 -0.09375,-0.109375 -0.015625,0 -0.03125,0 -0.09375,0.03125 -0.3125,0.125 -0.6875,0.21875 -1.109375,0.21875 -0.46875,0 -0.859375,-0.109375 -1.109375,-0.21875 -0.078125,-0.03125 -0.09375,-0.03125 -0.109375,-0.03125 -0.09375,0 -0.09375,0.078125 -0.09375,0.234375 v 2.328125 c 0,0.140625 0,0.234375 0.125,0.234375 0.0625,0 0.078125,-0.03125 0.125,-0.09375 C 1.203125,-2.703125 1.5,-3.109375 2.1875,-3.109375 c 0.4375,0 0.65625,0.359375 0.734375,0.515625 0.125,0.28125 0.140625,0.65625 0.140625,0.953125 0,0.296875 0,0.734375 -0.21875,1.078125 -0.15625,0.25 -0.484375,0.484375 -0.90625,0.484375 -0.515625,0 -1.015625,-0.3125 -1.203125,-0.84375 C 0.75,-0.90625 0.8125,-0.90625 0.8125,-0.90625 c 0.21875,0 0.40625,-0.140625 0.40625,-0.390625 0,-0.296875 -0.234375,-0.40625 -0.390625,-0.40625 -0.15625,0 -0.40625,0.078125 -0.40625,0.421875 0,0.71875 0.625,1.453125 1.53125,1.453125 1,0 1.84375,-0.78125 1.84375,-1.765625 0,-0.921875 -0.671875,-1.75 -1.609375,-1.75 -0.390625,0 -0.765625,0.125 -1.078125,0.40625 z m 0,0"
             id="path4302" />
        </g>
      </g>
      <path
         fill="none"
         stroke-width="0.6"
         stroke-linecap="butt"
         stroke-linejoin="round"
         stroke="#000000"
         stroke-opacity="1"
         stroke-miterlimit="10"
         d="m 166.88672,40.482283 h 2"
         transform="matrix(1,0,0,-1,0,141.73228)"
         id="path3240" />
      <path
         fill="none"
         stroke-width="0.6"
         stroke-linecap="butt"
         stroke-linejoin="round"
         stroke="#000000"
         stroke-opacity="1"
         stroke-miterlimit="10"
         d="m 166.88672,58.478377 h 2"
         transform="matrix(1,0,0,-1,0,141.73228)"
         id="path3242" />
      <path
         fill="none"
         stroke-width="0.6"
         stroke-linecap="butt"
         stroke-linejoin="round"
         stroke="#000000"
         stroke-opacity="1"
         stroke-miterlimit="10"
         d="m 166.88672,76.474471 h 2"
         transform="matrix(1,0,0,-1,0,141.73228)"
         id="path3244" />
      <path
         fill="none"
         stroke-width="0.6"
         stroke-linecap="butt"
         stroke-linejoin="round"
         stroke="#000000"
         stroke-opacity="1"
         stroke-miterlimit="10"
         d="m 166.88672,94.470565 h 2"
         transform="matrix(1,0,0,-1,0,141.73228)"
         id="path3246" />
      <path
         fill="none"
         stroke-width="0.6"
         stroke-linecap="butt"
         stroke-linejoin="round"
         stroke="#000000"
         stroke-opacity="1"
         stroke-miterlimit="10"
         d="m 166.88672,112.46666 h 2"
         transform="matrix(1,0,0,-1,0,141.73228)"
         id="path3248" />
      <g
         fill="#0000ff"
         fill-opacity="1"
         id="g3264">
        <g
           id="use3250"
           transform="translate(199.86125,79.649361)">
          <path
             d="M -3.515625,-2.234375 H -6.09375 c -0.234375,0 -0.359375,0 -0.390625,-0.21875 C -6.5,-2.546875 -6.5,-2.84375 -6.5,-3.046875 c 0,-0.890625 0.046875,-2 1.484375,-2 0.6875,0 1.5,0.234375 1.5,1.703125 z m 0.125,-2.109375 c -0.234375,-0.953125 -0.84375,-1.734375 -1.625,-1.734375 -0.953125,0 -1.796875,1.140625 -1.796875,2.59375 V -0.34375 H -6.5 v -0.25 c 0,-0.765625 0.109375,-0.78125 0.46875,-0.78125 h 5.25 c 0.359375,0 0.46875,0.015625 0.46875,0.78125 v 0.25 H 0 c -0.03125,-0.359375 -0.03125,-1.078125 -0.03125,-1.453125 0,-0.390625 0,-1.109375 0.03125,-1.46875 h -0.3125 v 0.25 c 0,0.765625 -0.109375,0.78125 -0.46875,0.78125 H -3.296875 V -3.375 c 0,-0.15625 0,-0.578125 0.34375,-0.9375 0.34375,-0.375 0.65625,-0.375 1.328125,-0.375 0.640625,0 1.046875,0 1.421875,-0.40625 0.359375,-0.40625 0.421875,-0.953125 0.421875,-1.25 0,-0.78125 -0.8125,-0.953125 -1.09375,-0.953125 -0.0625,0 -0.171875,0 -0.171875,0.125 0,0.109375 0.09375,0.109375 0.15625,0.125 C -0.171875,-6.984375 0,-6.640625 0,-6.390625 c 0,0.484375 -0.515625,0.5625 -1.4375,0.703125 l -0.796875,0.140625 C -2.875,-5.375 -3.203125,-4.890625 -3.390625,-4.34375 Z m 0,0"
             id="path4238" />
        </g>
        <g
           id="use3252"
           transform="translate(199.86125,72.316856)">
          <path
             d="M -2.515625,-1.109375 C -4,-1.171875 -4.25,-2.015625 -4.25,-2.359375 c 0,-1.015625 1.34375,-1.125 1.734375,-1.125 z m 0.21875,0 v -2.78125 c 0,-0.21875 0,-0.25 -0.21875,-0.25 -0.984375,0 -1.953125,0.546875 -1.953125,1.78125 0,1.15625 1.03125,2.078125 2.28125,2.078125 1.328125,0 2.296875,-1.046875 2.296875,-2.1875 0,-1.21875 -1.109375,-1.671875 -1.296875,-1.671875 -0.09375,0 -0.125,0.078125 -0.125,0.140625 0,0.078125 0.0625,0.109375 0.140625,0.125 1.03125,0.34375 1.03125,1.25 1.03125,1.34375 0,0.5 -0.296875,0.890625 -0.671875,1.125 -0.46875,0.296875 -1.125,0.296875 -1.484375,0.296875 z m 0,0"
             id="path4330" />
        </g>
        <g
           id="use3254"
           transform="translate(199.86125,67.89344)">
          <path
             d="m -6.921875,-1.765625 0.109375,1.4375 H -6.5 c 0,-0.703125 0.0625,-0.78125 0.5625,-0.78125 H -0.75 c 0.4375,0 0.4375,0.109375 0.4375,0.78125 H 0 C -0.015625,-0.65625 -0.03125,-1.1875 -0.03125,-1.4375 c 0,-0.25 0.015625,-0.734375 0.03125,-1.109375 h -0.3125 c 0,0.671875 0,0.78125 -0.4375,0.78125 z m 0,0"
             id="path4350" />
        </g>
        <g
           id="use3256"
           transform="translate(199.86125,65.133789)">
          <path
             d="m -0.75,-3.3125 c 0.390625,-0.046875 0.8125,-0.3125 0.8125,-0.78125 0,-0.21875 -0.140625,-0.828125 -0.953125,-0.828125 h -0.5625 v 0.25 h 0.5625 c 0.578125,0 0.640625,0.25 0.640625,0.359375 0,0.328125 -0.453125,0.375 -0.5,0.375 h -1.984375 c -0.421875,0 -0.8125,0 -1.1875,0.359375 C -4.3125,-3.1875 -4.46875,-2.6875 -4.46875,-2.21875 c 0,0.828125 0.46875,1.515625 1.125,1.515625 0.296875,0 0.46875,-0.203125 0.46875,-0.46875 0,-0.28125 -0.203125,-0.453125 -0.453125,-0.453125 -0.125,0 -0.453125,0.046875 -0.453125,0.515625 C -4.140625,-1.390625 -4.25,-1.875 -4.25,-2.1875 c 0,-0.5 0.390625,-1.0625 1.28125,-1.0625 h 0.359375 c 0.03125,0.515625 0.0625,1.203125 0.359375,1.828125 0.34375,0.75 0.859375,1 1.296875,1 0.8125,0 1.0625,-0.96875 1.0625,-1.59375 0,-0.65625 -0.40625,-1.109375 -0.859375,-1.296875 z M -2.390625,-3.25 h 1 c 0.9375,0 1.28125,0.71875 1.28125,1.171875 0,0.484375 -0.34375,0.890625 -0.84375,0.890625 -0.546875,0 -1.375,-0.421875 -1.4375,-2.0625 z m 0,0"
             id="path4274" />
        </g>
        <g
           id="use3258"
           transform="translate(199.86125,60.152473)">
          <path
             d="m -3.984375,-1.71875 v -1.4375 h -0.3125 v 1.4375 H -6.125 v 0.25 c 0.8125,0 1.875,0.296875 1.921875,1.28125 h 0.21875 v -0.84375 h 2.75 c 1.21875,0 1.34375,-0.9375 1.34375,-1.296875 0,-0.703125 -0.703125,-0.984375 -1.34375,-0.984375 h -0.5625 v 0.25 H -1.25 c 0.734375,0 1.109375,0.296875 1.109375,0.671875 0,0.671875 -0.90625,0.671875 -1.078125,0.671875 z m 0,0"
             id="path4342" />
        </g>
        <g
           id="use3260"
           transform="translate(199.86125,56.286968)">
          <path
             d="M -4.40625,-1.765625 -4.296875,-0.375 h 0.3125 c 0,-0.640625 0.0625,-0.734375 0.546875,-0.734375 H -0.75 c 0.4375,0 0.4375,0.109375 0.4375,0.78125 H 0 C -0.015625,-0.640625 -0.03125,-1.1875 -0.03125,-1.421875 -0.03125,-1.78125 -0.015625,-2.125 0,-2.46875 h -0.3125 c 0,0.671875 -0.046875,0.703125 -0.4375,0.703125 z m -1.734375,-0.03125 c -0.3125,0 -0.53125,0.234375 -0.53125,0.515625 0,0.3125 0.265625,0.53125 0.53125,0.53125 0.265625,0 0.53125,-0.21875 0.53125,-0.53125 0,-0.28125 -0.21875,-0.515625 -0.53125,-0.515625 z m 0,0"
             id="path4234" />
        </g>
        <g
           id="use3262"
           transform="translate(199.86125,53.527317)">
          <path
             d="M -3.3125,-4.140625 C -3.546875,-4.234375 -3.984375,-4.40625 -3.984375,-5.0625 h -0.3125 c 0.015625,0.234375 0.03125,0.515625 0.03125,0.75 0,0.234375 -0.015625,0.6875 -0.03125,0.859375 h 0.3125 c 0,-0.359375 0.234375,-0.46875 0.421875,-0.46875 0.09375,0 0.140625,0.015625 0.25,0.046875 l 2.53125,1.03125 -2.78125,1.109375 c -0.125,0.0625 -0.140625,0.0625 -0.171875,0.0625 -0.25,0 -0.25,-0.390625 -0.25,-0.578125 h -0.3125 c 0.015625,0.3125 0.03125,0.859375 0.03125,1.09375 0,0.265625 -0.015625,0.671875 -0.03125,0.96875 h 0.3125 c 0,-0.625 0.0625,-0.671875 0.359375,-0.796875 l 3.546875,-1.4375 C 0.0625,-2.484375 0.109375,-2.5 0.109375,-2.625 c 0,-0.140625 -0.09375,-0.171875 -0.1875,-0.21875 z m 0,0"
             id="path4282" />
        </g>
      </g>
      <g
         fill="#0000ff"
         fill-opacity="1"
         id="g3268">
        <g
           id="use3266"
           transform="translate(199.86125,48.553753)">
          <path
             d="M -2.515625,-1.109375 C -4,-1.171875 -4.25,-2.015625 -4.25,-2.359375 c 0,-1.015625 1.34375,-1.125 1.734375,-1.125 z m 0.21875,0 v -2.78125 c 0,-0.21875 0,-0.25 -0.21875,-0.25 -0.984375,0 -1.953125,0.546875 -1.953125,1.78125 0,1.15625 1.03125,2.078125 2.28125,2.078125 1.328125,0 2.296875,-1.046875 2.296875,-2.1875 0,-1.21875 -1.109375,-1.671875 -1.296875,-1.671875 -0.09375,0 -0.125,0.078125 -0.125,0.140625 0,0.078125 0.0625,0.109375 0.140625,0.125 1.03125,0.34375 1.03125,1.25 1.03125,1.34375 0,0.5 -0.296875,0.890625 -0.671875,1.125 -0.46875,0.296875 -1.125,0.296875 -1.484375,0.296875 z m 0,0"
             id="path4334" />
        </g>
      </g>
      <g
         fill="#0000ff"
         fill-opacity="1"
         id="g3272">
        <g
           id="use3270"
           transform="translate(142.42395,16.745508)">
          <path
             d="m 5.21875,-3.671875 c 0.09375,-0.09375 0.109375,-0.125 0.109375,-0.1875 0,-0.09375 -0.078125,-0.1875 -0.1875,-0.1875 -0.0625,0 -0.09375,0.03125 -0.1875,0.125 L 3.296875,-2.25 1.625,-3.921875 c -0.109375,-0.109375 -0.140625,-0.125 -0.203125,-0.125 -0.09375,0 -0.171875,0.09375 -0.171875,0.1875 0,0.078125 0.03125,0.109375 0.109375,0.1875 l 1.671875,1.6875 -1.671875,1.65625 C 1.265625,-0.21875 1.25,-0.1875 1.25,-0.125 c 0,0.09375 0.078125,0.1875 0.171875,0.1875 0.078125,0 0.09375,-0.03125 0.1875,-0.125 l 1.671875,-1.671875 1.734375,1.75 C 5.0625,0.03125 5.109375,0.0625 5.140625,0.0625 c 0.109375,0 0.1875,-0.09375 0.1875,-0.1875 0,-0.0625 -0.03125,-0.09375 -0.03125,-0.109375 -0.03125,-0.046875 -1.3125,-1.3125 -1.75,-1.75 z m 0,0"
             id="path4226" />
        </g>
      </g>
      <g
         fill="#0000ff"
         fill-opacity="1"
         id="g3278">
        <g
           id="use3274"
           transform="translate(149.01045,16.745508)">
          <path
             d="m 2.5,-5.078125 c 0,-0.21875 -0.015625,-0.21875 -0.234375,-0.21875 -0.328125,0.3125 -0.75,0.5 -1.5,0.5 v 0.265625 c 0.21875,0 0.640625,0 1.109375,-0.203125 v 4.078125 c 0,0.296875 -0.03125,0.390625 -0.78125,0.390625 H 0.8125 V 0 c 0.328125,-0.03125 1.015625,-0.03125 1.375,-0.03125 0.359375,0 1.046875,0 1.375,0.03125 V -0.265625 H 3.28125 c -0.75,0 -0.78125,-0.09375 -0.78125,-0.390625 z m 0,0"
             id="path4418" />
        </g>
        <g
           id="use3276"
           transform="translate(153.24258,16.745508)">
          <path
             d="m 3.890625,-2.546875 c 0,-0.84375 -0.078125,-1.359375 -0.34375,-1.875 -0.34375,-0.703125 -1,-0.875 -1.4375,-0.875 -1,0 -1.375,0.75 -1.484375,0.96875 -0.28125,0.578125 -0.296875,1.375 -0.296875,1.78125 0,0.53125 0.015625,1.328125 0.40625,1.96875 0.359375,0.59375 0.953125,0.75 1.375,0.75 0.390625,0 1.0625,-0.125 1.46875,-0.90625 0.296875,-0.578125 0.3125,-1.296875 0.3125,-1.8125 z M 2.109375,-0.0625 C 1.84375,-0.0625 1.296875,-0.1875 1.125,-1.015625 1.03125,-1.46875 1.03125,-2.21875 1.03125,-2.640625 1.03125,-3.1875 1.03125,-3.75 1.125,-4.1875 1.296875,-5 1.90625,-5.078125 2.109375,-5.078125 c 0.265625,0 0.828125,0.140625 0.984375,0.859375 0.09375,0.4375 0.09375,1.046875 0.09375,1.578125 0,0.46875 0,1.1875 -0.09375,1.640625 -0.171875,0.828125 -0.71875,0.9375 -0.984375,0.9375 z m 0,0"
             id="path4474" />
        </g>
      </g>
      <g
         fill="#0000ff"
         fill-opacity="1"
         id="g3282">
        <g
           id="use3280"
           transform="translate(157.47882,13.932723)">
          <path
             d="m 4.765625,-1.34375 c 0.09375,0 0.25,0 0.25,-0.15625 0,-0.15625 -0.15625,-0.15625 -0.25,-0.15625 H 1 c -0.109375,0 -0.25,0 -0.25,0.15625 0,0.15625 0.140625,0.15625 0.25,0.15625 z m 0,0"
             id="path4246" />
        </g>
      </g>
      <g
         fill="#0000ff"
         fill-opacity="1"
         id="g3286">
        <g
           id="use3284"
           transform="translate(163.23497,13.932723)">
          <path
             d="m 1.765625,-1.984375 c 0.5,0 0.84375,0.34375 0.84375,0.953125 0,0.65625 -0.390625,0.9375 -0.828125,0.9375 C 1.609375,-0.09375 1,-0.125 0.734375,-0.46875 0.96875,-0.5 1.0625,-0.65625 1.0625,-0.8125 c 0,-0.203125 -0.140625,-0.34375 -0.34375,-0.34375 -0.15625,0 -0.34375,0.109375 -0.34375,0.359375 0,0.59375 0.65625,0.921875 1.421875,0.921875 0.890625,0 1.46875,-0.5625 1.46875,-1.15625 0,-0.4375 -0.328125,-0.90625 -1.046875,-1.078125 0.484375,-0.15625 0.859375,-0.546875 0.859375,-1.03125 0,-0.484375 -0.5625,-0.84375 -1.28125,-0.84375 -0.703125,0 -1.234375,0.328125 -1.234375,0.8125 0,0.265625 0.203125,0.328125 0.328125,0.328125 0.15625,0 0.3125,-0.09375 0.3125,-0.3125 0,-0.1875 -0.125,-0.296875 -0.296875,-0.3125 0.28125,-0.3125 0.828125,-0.3125 0.890625,-0.3125 0.296875,0 0.6875,0.140625 0.6875,0.640625 0,0.328125 -0.1875,0.90625 -0.796875,0.9375 -0.109375,0 -0.265625,0.015625 -0.3125,0.015625 -0.0625,0.015625 -0.125,0.015625 -0.125,0.109375 0,0.09375 0.0625,0.09375 0.15625,0.09375 z m 0,0"
             id="path4318" />
        </g>
      </g>
      <path
         fill="none"
         stroke-width="1.5"
         stroke-linecap="butt"
         stroke-linejoin="round"
         stroke="#0000ff"
         stroke-opacity="1"
         stroke-dasharray="5.55, 2.4"
         stroke-miterlimit="10"
         d="m 160.88672,118.15806 v -14.3789 h -9.23047 V 84.494002 h -9.23047 V 71.240096 h -9.23047 v -8.832031 h -9.23047 v -7.808594 h -9.23046 v -4.0625 h -9.23047 v -4.109375 h -9.230472 v -2.15625 H 87.042969 V 44.087752 H 77.8125 v -0.878906 h -9.230469 v -1.417969 h -9.230468 v 0.07031 h -9.230469 v -0.292969 h -9.230469"
         transform="matrix(1,0,0,-1,0,141.73228)"
         id="path3288" />
      <path
         fill="none"
         stroke-width="0.8"
         stroke-linecap="square"
         stroke-linejoin="miter"
         stroke="#000000"
         stroke-opacity="1"
         stroke-miterlimit="10"
         d="M 34.890625,37.740096 V 121.98619"
         transform="matrix(1,0,0,-1,0,141.73228)"
         id="path3290" />
      <path
         fill="none"
         stroke-width="0.8"
         stroke-linecap="square"
         stroke-linejoin="miter"
         stroke="#0000ff"
         stroke-opacity="1"
         stroke-miterlimit="10"
         d="M 166.88672,37.740096 V 121.98619"
         transform="matrix(1,0,0,-1,0,141.73228)"
         id="path3292" />
      <path
         fill="none"
         stroke-width="0.8"
         stroke-linecap="square"
         stroke-linejoin="miter"
         stroke="#000000"
         stroke-opacity="1"
         stroke-miterlimit="10"
         d="M 34.890625,37.740096 H 166.88672"
         transform="matrix(1,0,0,-1,0,141.73228)"
         id="path3294" />
    </g>
  </g>
</svg>
