<?xml version="1.0" encoding="utf-8" standalone="no"?>
<!DOCTYPE svg PUBLIC "-//W3C//DTD SVG 1.1//EN"
  "http://www.w3.org/Graphics/SVG/1.1/DTD/svg11.dtd">
<svg xmlns:xlink="http://www.w3.org/1999/xlink" width="395.130681pt" height="158.4pt" viewBox="0 0 395.130681 158.4" xmlns="http://www.w3.org/2000/svg" version="1.1">
 <metadata>
  <rdf:RDF xmlns:dc="http://purl.org/dc/elements/1.1/" xmlns:cc="http://creativecommons.org/ns#" xmlns:rdf="http://www.w3.org/1999/02/22-rdf-syntax-ns#">
   <cc:Work>
    <dc:type rdf:resource="http://purl.org/dc/dcmitype/StillImage"/>
    <dc:date>2025-10-13T10:53:52.418879</dc:date>
    <dc:format>image/svg+xml</dc:format>
    <dc:creator>
     <cc:Agent>
      <dc:title>Matplotlib v3.8.4, https://matplotlib.org/</dc:title>
     </cc:Agent>
    </dc:creator>
   </cc:Work>
  </rdf:RDF>
 </metadata>
 <defs>
  <style type="text/css">*{stroke-linejoin: round; stroke-linecap: butt}</style>
 </defs>
 <g id="figure_1">
  <g id="patch_1">
   <path d="M 0 158.4 
L 395.130681 158.4 
L 395.130681 -0 
L 0 -0 
z
" style="fill: #ffffff"/>
  </g>
  <g id="axes_1">
   <g id="line2d_1">
    <path d="M 15.066647 159.4 
L 17.980669 152.302461 
L 21.297799 144.701435 
L 24.614928 137.592162 
L 27.932057 130.961464 
L 31.249186 124.79616 
L 34.566315 119.083072 
L 37.883444 113.809019 
L 41.200573 108.960823 
L 44.517702 104.525305 
L 47.834831 100.489285 
L 51.15196 96.839583 
L 54.469089 93.563021 
L 57.786218 90.646419 
L 61.103347 88.076598 
L 64.420477 85.840378 
L 67.737606 83.924581 
L 71.054735 82.316026 
L 74.371864 81.001535 
L 77.688993 79.967928 
L 81.006122 79.202026 
L 84.323251 78.69065 
L 87.64038 78.42062 
L 90.957509 78.378757 
L 94.274638 78.551881 
L 97.591767 78.926814 
L 100.908896 79.490375 
L 105.055308 80.440009 
L 109.201719 81.638042 
L 113.34813 83.058734 
L 118.323824 85.021229 
L 123.299518 87.222806 
L 129.104493 90.034143 
L 136.568034 93.924249 
L 151.495115 102.067253 
L 159.787937 106.444592 
L 166.422195 109.693174 
L 171.397889 111.912667 
L 176.373583 113.896785 
L 180.519994 115.338326 
L 184.666405 116.559783 
L 188.812817 117.535415 
L 192.959228 118.239481 
L 196.276357 118.589909 
L 199.593486 118.736881 
L 202.910615 118.667217 
L 206.227744 118.36774 
L 209.544873 117.825268 
L 212.862003 117.026624 
L 216.179132 115.958627 
L 219.496261 114.608099 
L 222.81339 112.96186 
L 226.130519 111.00673 
L 229.447648 108.729531 
L 232.764777 106.117083 
L 236.081906 103.156207 
L 239.399035 99.833723 
L 242.716164 96.136452 
L 246.033293 92.051216 
L 249.350422 87.564833 
L 252.667551 82.664126 
L 255.98468 77.335915 
L 259.30181 71.56702 
L 262.618939 65.344263 
L 265.936068 58.654464 
L 269.253197 51.484443 
L 272.570326 43.821021 
L 275.887455 35.651019 
L 279.204584 26.961258 
L 282.521713 17.738559 
L 285.838842 7.969741 
L 288.728496 -1 
L 288.728496 -1 
" clip-path="url(#p8da9691813)" style="fill: none; stroke: #afafaf; stroke-width: 6; stroke-linecap: square"/>
   </g>
   <g id="line2d_2">
    <path d="M 14.976039 159.4 
L 48.664113 93.490565 
L 89.298945 76.211123 
L 90.128227 76.016683 
L 131.59234 90.097736 
L 172.227171 113.288416 
L 173.056454 113.585926 
L 213.691285 119.553091 
L 214.520567 119.151729 
L 255.155398 84.10462 
L 255.98468 82.346859 
L 288.815597 -1 
L 288.815597 -1 
" clip-path="url(#p8da9691813)" style="fill: none; stroke: #2255a0; stroke-width: 1.5; stroke-linecap: square"/>
   </g>
   <g id="line2d_3">
    <path d="M 14.976039 159.4 
L 48.664113 93.490565 
L 89.298945 76.211123 
L 90.128227 76.016683 
L 131.59234 90.097736 
L 172.227171 113.288416 
L 173.056454 113.585926 
L 213.691285 119.553091 
L 214.520567 119.151729 
L 255.155398 84.10462 
L 255.98468 82.346859 
L 288.815597 -1 
L 288.815597 -1 
" clip-path="url(#p8da9691813)" style="fill: none; stroke: #2760ae; stroke-width: 1.5; stroke-linecap: square"/>
   </g>
   <g id="line2d_4">
    <path d="M 14.976039 159.4 
L 48.664113 93.490565 
L 89.298945 76.211123 
L 90.128227 76.016683 
L 131.59234 90.097736 
L 172.227171 113.288416 
L 173.056454 113.585926 
L 213.691285 119.553091 
L 214.520567 119.151729 
L 338.083625 12.579929 
L 338.083625 12.579929 
" clip-path="url(#p8da9691813)" style="fill: none; stroke: #2c6cbb; stroke-width: 1.5; stroke-linecap: square"/>
   </g>
   <g id="line2d_5">
    <path d="M 14.976039 159.4 
L 48.664113 93.490565 
L 89.298945 76.211123 
L 90.128227 76.016683 
L 131.59234 90.097736 
L 172.227171 113.288416 
L 173.056454 113.585926 
L 338.083625 137.819954 
L 338.083625 137.819954 
" clip-path="url(#p8da9691813)" style="fill: none; stroke: #3177c9; stroke-width: 1.5; stroke-linecap: square"/>
   </g>
   <g id="line2d_6">
    <path d="M 14.976039 159.4 
L 48.664113 93.490565 
L 89.298945 76.211123 
L 90.128227 76.016683 
L 131.59234 90.097736 
L 253.024169 159.4 
L 253.024169 159.4 
" clip-path="url(#p8da9691813)" style="fill: none; stroke: #3683d6; stroke-width: 1.5; stroke-linecap: square"/>
   </g>
   <g id="line2d_7">
    <path d="M 14.976039 159.4 
L 48.664113 93.490565 
L 89.298945 76.211123 
L 90.128227 76.016683 
L 336.934112 159.4 
L 336.934112 159.4 
" clip-path="url(#p8da9691813)" style="fill: none; stroke: #3b8ee4; stroke-width: 1.5; stroke-linecap: square"/>
   </g>
   <g id="line2d_8">
    <path d="M 14.976039 159.4 
L 48.664113 93.490565 
L 270.870855 -1 
L 270.870855 -1 
" clip-path="url(#p8da9691813)" style="fill: none; stroke: #409af1; stroke-width: 1.5; stroke-linecap: square"/>
   </g>
   <g id="line2d_9">
    <path d="M 14.976039 159.4 
L 96.763202 -1 
L 96.763202 -1 
" clip-path="url(#p8da9691813)" style="fill: none; stroke: #45a5ff; stroke-width: 1.5; stroke-linecap: square"/>
   </g>
   <g id="legend_1">
    <g id="line2d_10">
     <path d="M 14.4 20.718125 
L 22.4 20.718125 
L 30.4 20.718125 
" style="fill: none; stroke: #afafaf; stroke-width: 6; stroke-linecap: square"/>
    </g>
    <g id="text_1">
     <!-- $f(x)$ -->
     <g transform="translate(36.8 23.518125) scale(0.08 -0.08)">
      <defs>
       <path id="DejaVuSans-Oblique-66" d="M 3059 4863 
L 2969 4384 
L 2419 4384 
Q 2106 4384 1964 4261 
Q 1822 4138 1753 3809 
L 1691 3500 
L 2638 3500 
L 2553 3053 
L 1606 3053 
L 1013 0 
L 434 0 
L 1031 3053 
L 481 3053 
L 563 3500 
L 1113 3500 
L 1159 3744 
Q 1278 4363 1576 4613 
Q 1875 4863 2516 4863 
L 3059 4863 
z
" transform="scale(0.015625)"/>
       <path id="DejaVuSans-28" d="M 1984 4856 
Q 1566 4138 1362 3434 
Q 1159 2731 1159 2009 
Q 1159 1288 1364 580 
Q 1569 -128 1984 -844 
L 1484 -844 
Q 1016 -109 783 600 
Q 550 1309 550 2009 
Q 550 2706 781 3412 
Q 1013 4119 1484 4856 
L 1984 4856 
z
" transform="scale(0.015625)"/>
       <path id="DejaVuSans-Oblique-78" d="M 3841 3500 
L 2234 1784 
L 3219 0 
L 2559 0 
L 1819 1388 
L 531 0 
L -166 0 
L 1556 1844 
L 641 3500 
L 1300 3500 
L 1972 2234 
L 3144 3500 
L 3841 3500 
z
" transform="scale(0.015625)"/>
       <path id="DejaVuSans-29" d="M 513 4856 
L 1013 4856 
Q 1481 4119 1714 3412 
Q 1947 2706 1947 2009 
Q 1947 1309 1714 600 
Q 1481 -109 1013 -844 
L 513 -844 
Q 928 -128 1133 580 
Q 1338 1288 1338 2009 
Q 1338 2731 1133 3434 
Q 928 4138 513 4856 
z
" transform="scale(0.015625)"/>
      </defs>
      <use xlink:href="#DejaVuSans-Oblique-66" transform="translate(0 0.015625)"/>
      <use xlink:href="#DejaVuSans-28" transform="translate(35.205078 0.015625)"/>
      <use xlink:href="#DejaVuSans-Oblique-78" transform="translate(74.21875 0.015625)"/>
      <use xlink:href="#DejaVuSans-29" transform="translate(133.398438 0.015625)"/>
     </g>
    </g>
   </g>
  </g>
  <g id="axes_2">
   <g id="patch_2">
    <path d="M 354.627806 146.496875 
L 361.440681 146.496875 
L 361.440681 10.239375 
L 354.627806 10.239375 
z
" style="fill: #ffffff"/>
   </g>
   <g id="QuadMesh_1">
    <path d="M 354.627806 146.496875 
L 361.440681 146.496875 
L 361.440681 129.464687 
L 354.627806 129.464687 
L 354.627806 146.496875 
" clip-path="url(#p503ee0fc7d)" style="fill: #45a5ff"/>
    <path d="M 354.627806 129.464687 
L 361.440681 129.464687 
L 361.440681 112.4325 
L 354.627806 112.4325 
L 354.627806 129.464687 
" clip-path="url(#p503ee0fc7d)" style="fill: #409af1; fill-opacity: 0.928852"/>
    <path d="M 354.627806 112.4325 
L 361.440681 112.4325 
L 361.440681 95.400312 
L 354.627806 95.400312 
L 354.627806 112.4325 
" clip-path="url(#p503ee0fc7d)" style="fill: #3b8ee4; fill-opacity: 0.857703"/>
    <path d="M 354.627806 95.400312 
L 361.440681 95.400312 
L 361.440681 78.368125 
L 354.627806 78.368125 
L 354.627806 95.400312 
" clip-path="url(#p503ee0fc7d)" style="fill: #3683d6; fill-opacity: 0.786555"/>
    <path d="M 354.627806 78.368125 
L 361.440681 78.368125 
L 361.440681 61.335937 
L 354.627806 61.335937 
L 354.627806 78.368125 
" clip-path="url(#p503ee0fc7d)" style="fill: #3177c9; fill-opacity: 0.715406"/>
    <path d="M 354.627806 61.335937 
L 361.440681 61.335937 
L 361.440681 44.30375 
L 354.627806 44.30375 
L 354.627806 61.335937 
" clip-path="url(#p503ee0fc7d)" style="fill: #2c6cbb; fill-opacity: 0.644258"/>
    <path d="M 354.627806 44.30375 
L 361.440681 44.30375 
L 361.440681 27.271562 
L 354.627806 27.271562 
L 354.627806 44.30375 
" clip-path="url(#p503ee0fc7d)" style="fill: #2760ae; fill-opacity: 0.573109"/>
    <path d="M 354.627806 27.271562 
L 361.440681 27.271562 
L 361.440681 10.239375 
L 354.627806 10.239375 
L 354.627806 27.271562 
" clip-path="url(#p503ee0fc7d)" style="fill: #2255a0; fill-opacity: 0.501961"/>
   </g>
   <g id="matplotlib.axis_1"/>
   <g id="matplotlib.axis_2">
    <g id="ytick_1">
     <g id="line2d_11">
      <defs>
       <path id="ma11f4d3dd5" d="M 0 0 
L 3.5 0 
" style="stroke: #000000; stroke-width: 0.8"/>
      </defs>
      <g>
       <use xlink:href="#ma11f4d3dd5" x="361.440681" y="146.496875" style="stroke: #000000; stroke-width: 0.8"/>
      </g>
     </g>
     <g id="text_2">
      <!-- 0 -->
      <g transform="translate(368.440681 149.53625) scale(0.08 -0.08)">
       <defs>
        <path id="DejaVuSans-30" d="M 2034 4250 
Q 1547 4250 1301 3770 
Q 1056 3291 1056 2328 
Q 1056 1369 1301 889 
Q 1547 409 2034 409 
Q 2525 409 2770 889 
Q 3016 1369 3016 2328 
Q 3016 3291 2770 3770 
Q 2525 4250 2034 4250 
z
M 2034 4750 
Q 2819 4750 3233 4129 
Q 3647 3509 3647 2328 
Q 3647 1150 3233 529 
Q 2819 -91 2034 -91 
Q 1250 -91 836 529 
Q 422 1150 422 2328 
Q 422 3509 836 4129 
Q 1250 4750 2034 4750 
z
" transform="scale(0.015625)"/>
       </defs>
       <use xlink:href="#DejaVuSans-30"/>
      </g>
     </g>
    </g>
    <g id="ytick_2">
     <g id="line2d_12">
      <g>
       <use xlink:href="#ma11f4d3dd5" x="361.440681" y="129.464687" style="stroke: #000000; stroke-width: 0.8"/>
      </g>
     </g>
     <g id="text_3">
      <!-- 1 -->
      <g transform="translate(368.440681 132.504062) scale(0.08 -0.08)">
       <defs>
        <path id="DejaVuSans-31" d="M 794 531 
L 1825 531 
L 1825 4091 
L 703 3866 
L 703 4441 
L 1819 4666 
L 2450 4666 
L 2450 531 
L 3481 531 
L 3481 0 
L 794 0 
L 794 531 
z
" transform="scale(0.015625)"/>
       </defs>
       <use xlink:href="#DejaVuSans-31"/>
      </g>
     </g>
    </g>
    <g id="ytick_3">
     <g id="line2d_13">
      <g>
       <use xlink:href="#ma11f4d3dd5" x="361.440681" y="112.4325" style="stroke: #000000; stroke-width: 0.8"/>
      </g>
     </g>
     <g id="text_4">
      <!-- 2 -->
      <g transform="translate(368.440681 115.471875) scale(0.08 -0.08)">
       <defs>
        <path id="DejaVuSans-32" d="M 1228 531 
L 3431 531 
L 3431 0 
L 469 0 
L 469 531 
Q 828 903 1448 1529 
Q 2069 2156 2228 2338 
Q 2531 2678 2651 2914 
Q 2772 3150 2772 3378 
Q 2772 3750 2511 3984 
Q 2250 4219 1831 4219 
Q 1534 4219 1204 4116 
Q 875 4013 500 3803 
L 500 4441 
Q 881 4594 1212 4672 
Q 1544 4750 1819 4750 
Q 2544 4750 2975 4387 
Q 3406 4025 3406 3419 
Q 3406 3131 3298 2873 
Q 3191 2616 2906 2266 
Q 2828 2175 2409 1742 
Q 1991 1309 1228 531 
z
" transform="scale(0.015625)"/>
       </defs>
       <use xlink:href="#DejaVuSans-32"/>
      </g>
     </g>
    </g>
    <g id="ytick_4">
     <g id="line2d_14">
      <g>
       <use xlink:href="#ma11f4d3dd5" x="361.440681" y="95.400312" style="stroke: #000000; stroke-width: 0.8"/>
      </g>
     </g>
     <g id="text_5">
      <!-- 3 -->
      <g transform="translate(368.440681 98.439687) scale(0.08 -0.08)">
       <defs>
        <path id="DejaVuSans-33" d="M 2597 2516 
Q 3050 2419 3304 2112 
Q 3559 1806 3559 1356 
Q 3559 666 3084 287 
Q 2609 -91 1734 -91 
Q 1441 -91 1130 -33 
Q 819 25 488 141 
L 488 750 
Q 750 597 1062 519 
Q 1375 441 1716 441 
Q 2309 441 2620 675 
Q 2931 909 2931 1356 
Q 2931 1769 2642 2001 
Q 2353 2234 1838 2234 
L 1294 2234 
L 1294 2753 
L 1863 2753 
Q 2328 2753 2575 2939 
Q 2822 3125 2822 3475 
Q 2822 3834 2567 4026 
Q 2313 4219 1838 4219 
Q 1578 4219 1281 4162 
Q 984 4106 628 3988 
L 628 4550 
Q 988 4650 1302 4700 
Q 1616 4750 1894 4750 
Q 2613 4750 3031 4423 
Q 3450 4097 3450 3541 
Q 3450 3153 3228 2886 
Q 3006 2619 2597 2516 
z
" transform="scale(0.015625)"/>
       </defs>
       <use xlink:href="#DejaVuSans-33"/>
      </g>
     </g>
    </g>
    <g id="ytick_5">
     <g id="line2d_15">
      <g>
       <use xlink:href="#ma11f4d3dd5" x="361.440681" y="78.368125" style="stroke: #000000; stroke-width: 0.8"/>
      </g>
     </g>
     <g id="text_6">
      <!-- 4 -->
      <g transform="translate(368.440681 81.4075) scale(0.08 -0.08)">
       <defs>
        <path id="DejaVuSans-34" d="M 2419 4116 
L 825 1625 
L 2419 1625 
L 2419 4116 
z
M 2253 4666 
L 3047 4666 
L 3047 1625 
L 3713 1625 
L 3713 1100 
L 3047 1100 
L 3047 0 
L 2419 0 
L 2419 1100 
L 313 1100 
L 313 1709 
L 2253 4666 
z
" transform="scale(0.015625)"/>
       </defs>
       <use xlink:href="#DejaVuSans-34"/>
      </g>
     </g>
    </g>
    <g id="ytick_6">
     <g id="line2d_16">
      <g>
       <use xlink:href="#ma11f4d3dd5" x="361.440681" y="61.335938" style="stroke: #000000; stroke-width: 0.8"/>
      </g>
     </g>
     <g id="text_7">
      <!-- 5 -->
      <g transform="translate(368.440681 64.375312) scale(0.08 -0.08)">
       <defs>
        <path id="DejaVuSans-35" d="M 691 4666 
L 3169 4666 
L 3169 4134 
L 1269 4134 
L 1269 2991 
Q 1406 3038 1543 3061 
Q 1681 3084 1819 3084 
Q 2600 3084 3056 2656 
Q 3513 2228 3513 1497 
Q 3513 744 3044 326 
Q 2575 -91 1722 -91 
Q 1428 -91 1123 -41 
Q 819 9 494 109 
L 494 744 
Q 775 591 1075 516 
Q 1375 441 1709 441 
Q 2250 441 2565 725 
Q 2881 1009 2881 1497 
Q 2881 1984 2565 2268 
Q 2250 2553 1709 2553 
Q 1456 2553 1204 2497 
Q 953 2441 691 2322 
L 691 4666 
z
" transform="scale(0.015625)"/>
       </defs>
       <use xlink:href="#DejaVuSans-35"/>
      </g>
     </g>
    </g>
    <g id="ytick_7">
     <g id="line2d_17">
      <g>
       <use xlink:href="#ma11f4d3dd5" x="361.440681" y="44.30375" style="stroke: #000000; stroke-width: 0.8"/>
      </g>
     </g>
     <g id="text_8">
      <!-- 6 -->
      <g transform="translate(368.440681 47.343125) scale(0.08 -0.08)">
       <defs>
        <path id="DejaVuSans-36" d="M 2113 2584 
Q 1688 2584 1439 2293 
Q 1191 2003 1191 1497 
Q 1191 994 1439 701 
Q 1688 409 2113 409 
Q 2538 409 2786 701 
Q 3034 994 3034 1497 
Q 3034 2003 2786 2293 
Q 2538 2584 2113 2584 
z
M 3366 4563 
L 3366 3988 
Q 3128 4100 2886 4159 
Q 2644 4219 2406 4219 
Q 1781 4219 1451 3797 
Q 1122 3375 1075 2522 
Q 1259 2794 1537 2939 
Q 1816 3084 2150 3084 
Q 2853 3084 3261 2657 
Q 3669 2231 3669 1497 
Q 3669 778 3244 343 
Q 2819 -91 2113 -91 
Q 1303 -91 875 529 
Q 447 1150 447 2328 
Q 447 3434 972 4092 
Q 1497 4750 2381 4750 
Q 2619 4750 2861 4703 
Q 3103 4656 3366 4563 
z
" transform="scale(0.015625)"/>
       </defs>
       <use xlink:href="#DejaVuSans-36"/>
      </g>
     </g>
    </g>
    <g id="ytick_8">
     <g id="line2d_18">
      <g>
       <use xlink:href="#ma11f4d3dd5" x="361.440681" y="27.271562" style="stroke: #000000; stroke-width: 0.8"/>
      </g>
     </g>
     <g id="text_9">
      <!-- 7 -->
      <g transform="translate(368.440681 30.310937) scale(0.08 -0.08)">
       <defs>
        <path id="DejaVuSans-37" d="M 525 4666 
L 3525 4666 
L 3525 4397 
L 1831 0 
L 1172 0 
L 2766 4134 
L 525 4134 
L 525 4666 
z
" transform="scale(0.015625)"/>
       </defs>
       <use xlink:href="#DejaVuSans-37"/>
      </g>
     </g>
    </g>
    <g id="ytick_9">
     <g id="line2d_19">
      <g>
       <use xlink:href="#ma11f4d3dd5" x="361.440681" y="10.239375" style="stroke: #000000; stroke-width: 0.8"/>
      </g>
     </g>
     <g id="text_10">
      <!-- 8 -->
      <g transform="translate(368.440681 13.27875) scale(0.08 -0.08)">
       <defs>
        <path id="DejaVuSans-38" d="M 2034 2216 
Q 1584 2216 1326 1975 
Q 1069 1734 1069 1313 
Q 1069 891 1326 650 
Q 1584 409 2034 409 
Q 2484 409 2743 651 
Q 3003 894 3003 1313 
Q 3003 1734 2745 1975 
Q 2488 2216 2034 2216 
z
M 1403 2484 
Q 997 2584 770 2862 
Q 544 3141 544 3541 
Q 544 4100 942 4425 
Q 1341 4750 2034 4750 
Q 2731 4750 3128 4425 
Q 3525 4100 3525 3541 
Q 3525 3141 3298 2862 
Q 3072 2584 2669 2484 
Q 3125 2378 3379 2068 
Q 3634 1759 3634 1313 
Q 3634 634 3220 271 
Q 2806 -91 2034 -91 
Q 1263 -91 848 271 
Q 434 634 434 1313 
Q 434 1759 690 2068 
Q 947 2378 1403 2484 
z
M 1172 3481 
Q 1172 3119 1398 2916 
Q 1625 2713 2034 2713 
Q 2441 2713 2670 2916 
Q 2900 3119 2900 3481 
Q 2900 3844 2670 4047 
Q 2441 4250 2034 4250 
Q 1625 4250 1398 4047 
Q 1172 3844 1172 3481 
z
" transform="scale(0.015625)"/>
       </defs>
       <use xlink:href="#DejaVuSans-38"/>
      </g>
     </g>
    </g>
    <g id="text_11">
     <!-- $\hat{f}_{n}(x)$ -->
     <g transform="translate(386.266931 87.208125) rotate(-90) scale(0.08 -0.08)">
      <defs>
       <path id="DejaVuSans-302" d="M -1831 5119 
L -1369 5119 
L -603 3944 
L -1038 3944 
L -1600 4709 
L -2163 3944 
L -2597 3944 
L -1831 5119 
z
M -1600 3584 
L -1600 3584 
z
" transform="scale(0.015625)"/>
       <path id="DejaVuSans-Oblique-6e" d="M 3566 2113 
L 3156 0 
L 2578 0 
L 2988 2091 
Q 3016 2238 3031 2350 
Q 3047 2463 3047 2528 
Q 3047 2791 2881 2937 
Q 2716 3084 2419 3084 
Q 1956 3084 1622 2776 
Q 1288 2469 1184 1941 
L 800 0 
L 225 0 
L 903 3500 
L 1478 3500 
L 1363 2950 
Q 1603 3253 1940 3418 
Q 2278 3584 2650 3584 
Q 3113 3584 3367 3334 
Q 3622 3084 3622 2631 
Q 3622 2519 3608 2391 
Q 3594 2263 3566 2113 
z
" transform="scale(0.015625)"/>
      </defs>
      <use xlink:href="#DejaVuSans-302" transform="translate(47.379395 33.015625)"/>
      <use xlink:href="#DejaVuSans-Oblique-66" transform="translate(0 0.53125)"/>
      <use xlink:href="#DejaVuSans-Oblique-6e" transform="translate(36.162109 -15.875) scale(0.7)"/>
      <use xlink:href="#DejaVuSans-28" transform="translate(83.261719 0.53125)"/>
      <use xlink:href="#DejaVuSans-Oblique-78" transform="translate(122.275391 0.53125)"/>
      <use xlink:href="#DejaVuSans-29" transform="translate(181.455078 0.53125)"/>
     </g>
    </g>
   </g>
   <g id="LineCollection_1"/>
   <g id="patch_3">
    <path d="M 354.627806 146.496875 
L 358.034244 146.496875 
L 361.440681 146.496875 
L 361.440681 10.239375 
L 358.034244 10.239375 
L 354.627806 10.239375 
L 354.627806 146.496875 
z
" style="fill: none; stroke: #000000; stroke-width: 0.8; stroke-linejoin: miter; stroke-linecap: square"/>
   </g>
  </g>
 </g>
 <defs>
  <clipPath id="p8da9691813">
   <rect x="7.2" y="10.239375" width="330.883625" height="136.2575"/>
  </clipPath>
  <clipPath id="p503ee0fc7d">
   <rect x="354.627806" y="10.239375" width="6.812875" height="136.2575"/>
  </clipPath>
 </defs>
</svg>
