<?xml version="1.0" encoding="UTF-8" standalone="no"?>
<!-- Generator: Adobe Illustrator 24.0.0, SVG Export Plug-In . SVG Version: 6.00 Build 0)  -->

<svg
   xmlns:dc="http://purl.org/dc/elements/1.1/"
   xmlns:cc="http://creativecommons.org/ns#"
   xmlns:rdf="http://www.w3.org/1999/02/22-rdf-syntax-ns#"
   xmlns:svg="http://www.w3.org/2000/svg"
   xmlns="http://www.w3.org/2000/svg"
   xmlns:sodipodi="http://sodipodi.sourceforge.net/DTD/sodipodi-0.dtd"
   xmlns:inkscape="http://www.inkscape.org/namespaces/inkscape"
   version="1.1"
   id="Capa_1"
   x="0px"
   y="0px"
   viewBox="0 0 130.02446 72.216612"
   xml:space="preserve"
   sodipodi:docname="Logo_EAFIT.svg"
   width="130.02446"
   height="72.216614"
   inkscape:version="0.92.4 (5da689c313, 2019-01-14)"><metadata
   id="metadata79"><rdf:RDF><cc:Work
       rdf:about=""><dc:format>image/svg+xml</dc:format><dc:type
         rdf:resource="http://purl.org/dc/dcmitype/StillImage" /></cc:Work></rdf:RDF></metadata><defs
   id="defs77" /><sodipodi:namedview
   pagecolor="#ffffff"
   bordercolor="#666666"
   borderopacity="1"
   objecttolerance="10"
   gridtolerance="10"
   guidetolerance="10"
   inkscape:pageopacity="0"
   inkscape:pageshadow="2"
   inkscape:window-width="1920"
   inkscape:window-height="1009"
   id="namedview75"
   showgrid="false"
   inkscape:zoom="3.4676434"
   inkscape:cx="113.43226"
   inkscape:cy="32.980808"
   inkscape:window-x="-8"
   inkscape:window-y="-8"
   inkscape:window-maximized="1"
   inkscape:current-layer="Capa_1" />
<style
   type="text/css"
   id="style2">
	.st0{fill:#24306E;}
	.st1{fill:none;stroke:#24306E;stroke-width:2;stroke-miterlimit:10;}
	.st2{fill:none;}
	.st3{font-family:'ArialMT';}
	.st4{font-size:10px;}
</style>
<rect
   style="fill:#ffffff;stroke:#ffffff;stroke-width:0.97175568;stroke-opacity:1"
   id="rect4592"
   width="129.0527"
   height="71.244858"
   x="0.48587784"
   y="0.48587784" /><g
   id="g6"
   transform="translate(-16.389303,-21.715817)">
	<path
   class="st0"
   d="m 20.4,73 c 0.3,-3 0.5,-5.6 0.7,-7.6 0.1,-2 0.3,-4.8 0.4,-8.2 0.1,-3.4 0.2,-5.7 0.2,-6.8 v -1.6 c 3,0 6.6,0 10.9,0 3.9,0 7.4,0 10.4,0 v 0.6 c 0,0.1 0,0.7 -0.1,1.5 l -0.1,1.9 c 0,0.4 0,0.8 0,1.2 -2.5,-0.1 -4.5,-0.1 -6.2,-0.1 -1.8,0 -3.1,0 -3.7,0 -0.6,0 -1.6,0 -3,0.1 l -0.2,4.1 c 1.5,0 3.3,0 5.3,0 0.7,0 2.6,0 5.7,-0.1 -0.1,1.5 -0.2,3.3 -0.4,5.4 -2.2,0 -3.9,0 -5.1,0 -1.8,0 -3.7,0 -5.9,0.1 L 29,67.9 h 2.2 c 0.6,0 2,0 4,-0.1 l 4,-0.1 c 0.6,0 1.6,-0.1 2.9,-0.1 -0.2,1.8 -0.3,3.6 -0.4,5.4 -3.1,0 -6.5,0 -10.2,0 h -8.4 z"
   id="path4"
   inkscape:connector-curvature="0"
   style="fill:#24306e" />
</g>
<g
   id="g10"
   transform="translate(-16.389303,-21.715817)">
	<path
   class="st0"
   d="m 22.2,34.3 c 0.8,0 1.4,0 1.7,0 0.4,0 1,0 1.7,0 l -0.2,3.1 c 0,0.6 -0.1,1.1 -0.1,1.7 0,0.5 0,0.9 0,1.1 0,0.4 0,0.7 0.1,0.9 0.1,0.2 0.2,0.5 0.3,0.6 0.1,0.2 0.4,0.3 0.6,0.4 0.3,0.1 0.6,0.1 0.9,0.1 0.2,0 0.5,0 0.7,-0.1 0.2,0 0.3,-0.1 0.5,-0.2 0.1,-0.1 0.2,-0.2 0.3,-0.3 0.1,-0.1 0.2,-0.3 0.3,-0.5 0.1,-0.2 0.1,-0.5 0.2,-0.8 0,-0.3 0.1,-1 0.2,-2.2 0.1,-1 0.1,-1.8 0.2,-2.7 0,-0.8 0.1,-1.2 0.1,-1.2 0.8,0 1.4,0 1.9,0 h 1.6 l -0.4,5.2 c 0,0.1 0,0.2 0,0.2 0,1 -0.1,1.7 -0.2,2.2 -0.1,0.4 -0.3,0.8 -0.6,1.1 -0.3,0.3 -0.6,0.6 -1.2,0.8 -0.6,0.2 -1.1,0.4 -1.7,0.5 -0.6,0.1 -1.3,0.2 -2,0.2 -0.6,0 -1.2,0 -1.7,-0.1 -0.5,-0.1 -1,-0.2 -1.4,-0.3 -0.4,-0.2 -0.8,-0.3 -1.1,-0.5 -0.3,-0.2 -0.5,-0.4 -0.6,-0.6 -0.1,-0.2 -0.3,-0.4 -0.4,-0.7 -0.1,-0.3 -0.1,-0.6 -0.1,-1 0,-0.1 0,-0.3 0,-0.5 0,-0.2 0,-0.6 0.1,-1 L 22,38.5 c 0,-0.3 0.1,-0.8 0.1,-1.3 z"
   id="path8"
   inkscape:connector-curvature="0"
   style="fill:#24306e" />
</g>
<g
   id="g14"
   transform="translate(-16.389303,-21.715817)">
	<path
   class="st0"
   d="m 34.1,44.3 0.2,-1.5 0.3,-5.2 0.1,-2.1 v -1.2 c 0.8,0 1.5,0 2.2,0 0.5,0 1.1,0 1.9,0 l 3.4,5.7 0.5,0.8 c 0.1,-0.8 0.1,-2 0.2,-3.5 0.1,-1.5 0.1,-2.5 0.1,-3.1 0.7,0 1.2,0 1.6,0 0.2,0 0.7,0 1.5,0 l -0.2,2.2 -0.4,6.1 v 1.8 c -0.7,0 -1.3,0 -1.9,0 -0.5,0 -1.2,0 -2.1,0 -0.3,-0.5 -0.5,-0.8 -0.6,-1 l -1.3,-2.1 c -0.4,-0.7 -0.8,-1.3 -1.2,-2 -0.2,-0.4 -0.5,-0.8 -0.8,-1.3 l -0.2,3.5 -0.1,2.9 c -0.7,0 -1.2,0 -1.5,0 -0.4,0 -0.9,0 -1.7,0 z"
   id="path12"
   inkscape:connector-curvature="0"
   style="fill:#24306e" />
</g>
<g
   id="g18"
   transform="translate(-16.389303,-21.715817)">
	<path
   class="st0"
   d="m 47.7,44.3 c 0.3,-3.9 0.5,-6.9 0.5,-9 v -1 c 0.9,0 1.5,0 1.8,0 0.1,0 0.7,0 1.7,0 -0.1,1.1 -0.2,2.1 -0.2,3.1 -0.1,1.4 -0.1,2.6 -0.2,3.8 0,1.2 0,2.2 0,3 h -1.6 c -0.4,0.1 -1,0.1 -2,0.1 z"
   id="path16"
   inkscape:connector-curvature="0"
   style="fill:#24306e" />
</g>
<g
   id="g22"
   transform="translate(-16.389303,-21.715817)">
	<path
   class="st0"
   d="m 56.9,44.3 -0.3,-0.9 -1.9,-5.2 -1.5,-4 c 0.7,0 1.4,0 1.9,0 0.3,0 0.9,0 1.6,0 0.1,0.4 0.2,0.8 0.3,1 0.1,0.3 0.3,0.8 0.5,1.6 l 1.2,3.5 c 0.1,0.4 0.3,0.8 0.4,1.4 l 0.4,-0.8 2.8,-5.6 c 0,-0.1 0.1,-0.2 0.2,-0.3 0.1,-0.1 0.2,-0.3 0.3,-0.7 0.8,0 1.4,0 1.8,0 0.3,0 0.9,0 1.7,0 -0.5,0.9 -1.2,2 -1.8,3.2 l -2.7,5 c -0.3,0.5 -0.6,1.1 -0.9,1.7 -0.9,0 -1.5,0 -1.9,0 -0.5,0.1 -1.1,0.1 -2.1,0.1 z"
   id="path20"
   inkscape:connector-curvature="0"
   style="fill:#24306e" />
</g>
<g
   id="g26"
   transform="translate(-16.389303,-21.715817)">
	<path
   class="st0"
   d="M 66.9,44.3 C 67,43 67.1,42 67.2,41.1 c 0.1,-0.9 0.1,-2 0.2,-3.4 0.1,-1.4 0.1,-2.3 0.1,-2.8 v -0.6 c 1.2,0 2.8,0 4.5,0 1.6,0 3.1,0 4.3,0 v 0.2 c 0,0.1 0,0.3 0,0.6 L 76.2,36 c 0,0.2 0,0.3 0,0.5 -1,0 -1.9,-0.1 -2.6,-0.1 -0.8,0 -1.3,0 -1.5,0 -0.3,0 -0.7,0 -1.2,0 l -0.1,1.7 c 0.6,0 1.3,0 2.2,0 0.3,0 1.1,0 2.4,0 -0.1,0.6 -0.1,1.4 -0.2,2.2 -0.9,0 -1.6,0 -2.1,0 -0.7,0 -1.5,0 -2.4,0 l -0.1,1.8 h 0.9 c 0.3,0 0.8,0 1.7,0 h 1.6 c 0.2,0 0.7,0 1.2,-0.1 -0.1,0.7 -0.1,1.5 -0.2,2.2 -1.3,0 -2.7,0 -4.2,0 h -3.5 -1.2 z"
   id="path24"
   inkscape:connector-curvature="0"
   style="fill:#24306e" />
</g>
<g
   id="g30"
   transform="translate(-16.389303,-21.715817)">
	<path
   class="st0"
   d="M 77.8,44.3 C 77.9,43.4 78,42.7 78,42 c 0,-0.7 0.1,-1.5 0.2,-2.4 0.1,-0.9 0.1,-1.9 0.1,-2.9 0,-1 0,-1.8 0,-2.4 0.7,0 1.2,0 1.6,0 0.4,0 0.9,0 1.5,0 0.6,0 1.2,0 1.8,0 0.7,0 1.3,0 1.8,0.1 0.4,0 0.8,0.1 1.1,0.2 0.3,0.1 0.6,0.2 0.8,0.4 0.2,0.2 0.4,0.3 0.6,0.5 0.2,0.2 0.3,0.4 0.3,0.7 0.1,0.3 0.1,0.5 0.1,0.8 0,0.3 0,0.6 -0.1,0.9 -0.1,0.3 -0.2,0.5 -0.4,0.8 -0.2,0.2 -0.4,0.5 -0.7,0.7 -0.3,0.2 -0.7,0.4 -1.2,0.6 l 0.4,0.9 c 0.1,0.3 0.2,0.5 0.4,0.8 l 1.1,2.2 c 0.1,0.1 0.1,0.3 0.2,0.5 -0.9,0 -1.5,0 -1.8,0 -0.4,0 -1,0 -1.9,0 C 83.8,44.2 83.7,43.7 83.4,43 83.3,42.7 83.2,42.5 83.2,42.3 83.1,42 82.9,41.5 82.6,40.8 l -0.8,-2.1 c 0.3,0 0.6,0.1 0.8,0.1 0.4,0 0.7,0 1.1,-0.2 0.3,-0.1 0.6,-0.3 0.7,-0.5 0.2,-0.2 0.2,-0.5 0.2,-0.7 0,-0.2 -0.1,-0.4 -0.2,-0.5 -0.1,-0.1 -0.3,-0.3 -0.6,-0.3 -0.3,-0.1 -0.7,-0.1 -1.2,-0.1 -0.2,0 -0.4,0 -0.6,0 -0.2,0 -0.4,0 -0.7,0 -0.1,1 -0.1,2.2 -0.2,3.7 C 81,41.7 81,43 81,44.4 c -0.9,0 -1.5,0 -1.7,0 -0.1,-0.1 -0.7,-0.1 -1.5,-0.1 z"
   id="path28"
   inkscape:connector-curvature="0"
   style="fill:#24306e" />
</g>
<g
   id="g34"
   transform="translate(-16.389303,-21.715817)">
	<path
   class="st0"
   d="m 89.3,44.2 c -0.1,-1 -0.2,-1.9 -0.2,-2.5 0.6,0.2 1.1,0.4 1.6,0.5 0.5,0.1 0.9,0.1 1.2,0.1 0.5,0 0.8,-0.1 1.1,-0.2 0.3,-0.1 0.4,-0.3 0.4,-0.5 0,-0.1 0,-0.2 0,-0.2 0,0 -0.1,-0.2 -0.2,-0.3 C 93.1,41 93,40.9 92.9,40.8 L 91.4,39.6 C 91.1,39.3 90.8,39.1 90.7,39 90.4,38.8 90.2,38.5 90,38.3 c -0.2,-0.2 -0.3,-0.4 -0.3,-0.7 -0.1,-0.2 -0.1,-0.5 -0.1,-0.7 0,-0.3 0.1,-0.6 0.2,-0.9 0.1,-0.3 0.3,-0.5 0.5,-0.8 0.2,-0.3 0.5,-0.5 0.9,-0.6 0.4,-0.1 0.8,-0.3 1.2,-0.4 0.4,-0.1 0.9,-0.1 1.3,-0.1 0.9,0 1.9,0.1 2.9,0.3 0,0.3 0,0.7 0.1,0.9 0,0.3 0.1,0.8 0.2,1.5 -0.5,-0.2 -0.9,-0.3 -1.3,-0.4 -0.4,-0.1 -0.8,-0.1 -1,-0.1 -0.4,0 -0.8,0.1 -1,0.2 -0.3,0.1 -0.4,0.3 -0.4,0.5 0,0.1 0,0.2 0.1,0.3 0.1,0.1 0.1,0.2 0.2,0.3 0.1,0.1 0.3,0.3 0.5,0.4 0.2,0.1 0.5,0.4 0.9,0.7 l 0.6,0.4 c 0.2,0.1 0.3,0.3 0.6,0.5 0.3,0.2 0.4,0.4 0.5,0.5 0.1,0.1 0.2,0.3 0.3,0.5 0.1,0.2 0.1,0.3 0.2,0.4 0,0.2 0.1,0.3 0.1,0.5 0,0.4 -0.1,0.9 -0.3,1.3 -0.2,0.4 -0.6,0.7 -1,1 -0.4,0.3 -0.9,0.4 -1.4,0.5 -0.5,0.1 -1,0.2 -1.6,0.2 -1.2,0 -2.3,-0.1 -3.6,-0.3 z"
   id="path32"
   inkscape:connector-curvature="0"
   style="fill:#24306e" />
</g>
<g
   id="g38"
   transform="translate(-16.389303,-21.715817)">
	<path
   class="st0"
   d="m 99.1,44.3 c 0.3,-3.9 0.5,-6.9 0.5,-9 v -1 c 0.9,0 1.5,0 1.8,0 0.1,0 0.7,0 1.7,0 -0.1,1.1 -0.2,2.1 -0.2,3.1 -0.1,1.4 -0.1,2.6 -0.2,3.8 0,1.2 -0.1,2.2 -0.1,3 H 101 c -0.3,0.1 -0.9,0.1 -1.9,0.1 z"
   id="path36"
   inkscape:connector-curvature="0"
   style="fill:#24306e" />
</g>
<g
   id="g42"
   transform="translate(-16.389303,-21.715817)">
	<path
   class="st0"
   d="m 104.8,44.3 c 0.1,-1.1 0.2,-2 0.2,-2.7 0.1,-1 0.1,-2.3 0.2,-3.9 0.1,-1.2 0.1,-2.1 0.1,-2.6 v -0.9 c 0.6,0 1.2,0 1.6,0 0.4,0 1,0 1.7,0 0.7,0 1.4,0 2,0 0.7,0 1.3,0 1.9,0.1 0.6,0.1 1,0.2 1.5,0.5 0.5,0.2 0.8,0.6 1.2,1 0.4,0.4 0.6,0.9 0.7,1.4 0.2,0.5 0.2,1.1 0.2,1.6 0,0.5 -0.1,1.1 -0.2,1.6 -0.1,0.5 -0.3,1 -0.5,1.4 -0.2,0.4 -0.5,0.8 -0.8,1.1 -0.3,0.3 -0.7,0.5 -1,0.8 -0.3,0.2 -0.6,0.3 -0.9,0.4 -0.3,0.1 -0.7,0.2 -1.2,0.2 -0.6,0.1 -1.2,0.1 -1.9,0.1 h -3.2 c -0.4,-0.1 -0.9,-0.1 -1.6,-0.1 z m 3.4,-2.2 c 0.3,0 0.6,0 0.9,0 0.5,0 1,0 1.4,-0.1 0.4,-0.1 0.8,-0.3 1.1,-0.6 0.3,-0.3 0.6,-0.7 0.7,-1.1 0.1,-0.4 0.2,-0.9 0.2,-1.4 0,-0.6 -0.1,-1.1 -0.3,-1.5 -0.2,-0.4 -0.5,-0.7 -0.9,-0.8 -0.4,-0.1 -0.9,-0.2 -1.5,-0.2 -0.4,0 -0.8,0 -1.3,0 z"
   id="path40"
   inkscape:connector-curvature="0"
   style="fill:#24306e" />
</g>
<g
   id="g46"
   transform="translate(-16.389303,-21.715817)">
	<path
   class="st0"
   d="m 129.7,44.3 c 0.1,-1.1 0.2,-2 0.2,-2.7 0.1,-1 0.1,-2.3 0.2,-3.9 0.1,-1.2 0.1,-2.1 0.1,-2.6 v -0.9 c 0.6,0 1.1,0 1.6,0 0.4,0 1,0 1.7,0 0.7,0 1.4,0 2,0 0.7,0 1.3,0 1.9,0.1 0.6,0.1 1,0.2 1.5,0.5 0.5,0.2 0.9,0.6 1.2,1 0.3,0.4 0.6,0.9 0.7,1.4 0.1,0.5 0.2,1.1 0.2,1.6 0,0.5 -0.1,1.1 -0.2,1.6 -0.1,0.5 -0.3,1 -0.5,1.4 -0.2,0.4 -0.5,0.8 -0.8,1.1 -0.3,0.3 -0.6,0.5 -1,0.8 -0.3,0.2 -0.6,0.3 -0.9,0.4 -0.3,0.1 -0.7,0.2 -1.2,0.2 -0.6,0.1 -1.2,0.1 -1.9,0.1 h -3.2 c -0.5,-0.1 -1,-0.1 -1.6,-0.1 z m 3.4,-2.2 c 0.3,0 0.6,0 0.9,0 0.5,0 1,0 1.4,-0.1 0.4,-0.1 0.8,-0.3 1.1,-0.6 0.3,-0.3 0.6,-0.7 0.7,-1.1 0.1,-0.5 0.2,-0.9 0.2,-1.4 0,-0.6 -0.1,-1.1 -0.3,-1.5 -0.2,-0.4 -0.5,-0.7 -0.9,-0.8 -0.4,-0.1 -0.9,-0.2 -1.5,-0.2 -0.4,0 -0.8,0 -1.4,0 z"
   id="path44"
   inkscape:connector-curvature="0"
   style="fill:#24306e" />
</g>
<g
   id="g50"
   transform="translate(-16.389303,-21.715817)">
	<path
   class="st0"
   d="m 115.1,44.3 0.7,-1 4.1,-7.1 0.4,-0.8 c 0.1,-0.2 0.3,-0.6 0.5,-1 0.9,0 1.6,0 2,0 0.7,0 1.4,0 2.1,0 l 1.2,3 2.4,5.9 0.5,1.1 c -0.9,0 -1.5,0 -1.7,0 -0.4,0 -1.1,0 -2,0 -0.2,-0.8 -0.6,-1.8 -1,-2.8 h -4 c -0.5,0.9 -0.9,1.8 -1.4,2.8 -1,0 -1.6,0 -1.8,0 -0.5,-0.1 -1.1,-0.1 -2,-0.1 z m 6.1,-5 h 2.5 c -0.6,-1.7 -0.9,-2.7 -1,-2.8 -0.3,0.7 -0.6,1.3 -0.9,1.8 z"
   id="path48"
   inkscape:connector-curvature="0"
   style="fill:#24306e" />
</g>
<g
   id="g54"
   transform="translate(-16.389303,-21.715817)">
	<path
   class="st0"
   d="m 43.5,73.1 1.6,-2.6 9.9,-17.2 1,-1.9 c 0.3,-0.6 0.7,-1.4 1.3,-2.4 2.2,0 3.9,0 4.9,0 1.8,0 3.5,0 5,0 l 2.8,7.4 5.7,14.2 1.1,2.6 c -2.2,0 -3.6,0 -4,0 -1.1,0 -2.7,0 -4.7,0 C 67.5,71.3 66.7,69 65.7,66.3 H 56 c -1.1,2.1 -2.2,4.4 -3.4,6.9 -2.4,0 -3.8,0 -4.4,0 C 47.3,73 45.7,73 43.5,73.1 Z m 14.9,-12 h 5.9 c -1.5,-4.2 -2.3,-6.4 -2.4,-6.9 -0.8,1.7 -1.5,3.2 -2.1,4.2 z"
   id="path52"
   inkscape:connector-curvature="0"
   style="fill:#24306e" />
</g>
<g
   id="g58"
   transform="translate(-16.389303,-21.715817)">
	<path
   class="st0"
   d="m 79.1,73.1 c 0.3,-2.4 0.4,-4.3 0.6,-5.8 0.2,-2.2 0.3,-5.1 0.4,-8.8 0.1,-3.8 0.2,-6.3 0.2,-7.6 V 49 c 3.8,0 7.4,0 10.7,0 3.3,0 6.5,0 9.6,0 -0.2,2.7 -0.3,4.5 -0.3,5.3 H 98.6 97.3 96 92.2 c -0.4,0 -1.7,0 -3.8,0 l -0.2,4.1 h 2.8 3 c 0.9,0 2.3,0 4.1,0 -0.1,2.2 -0.2,4 -0.2,5.2 -2.1,-0.1 -3.6,-0.1 -4.6,-0.1 -1.7,0 -3.5,0 -5.5,0.1 L 87.6,70 v 2.4 0.8 H 83.5 C 83.2,73 81.7,73 79.1,73.1 Z"
   id="path56"
   inkscape:connector-curvature="0"
   style="fill:#24306e" />
</g>
<g
   id="g62"
   transform="translate(-16.389303,-21.715817)">
	<path
   class="st0"
   d="m 102.4,73 c 0.7,-9.5 1.1,-16.8 1.1,-21.9 v -2.3 c 2.2,0 3.7,0 4.5,0 0.3,0 1.7,0 4.1,0 -0.2,2.7 -0.4,5.2 -0.6,7.5 -0.2,3.3 -0.3,6.4 -0.4,9.3 -0.1,2.9 -0.1,5.3 -0.1,7.3 h -3.9 c -0.7,0.1 -2.3,0.1 -4.7,0.1 z"
   id="path60"
   inkscape:connector-curvature="0"
   style="fill:#24306e" />
</g>
<g
   id="g66"
   transform="translate(-16.389303,-21.715817)">
	<path
   class="st0"
   d="m 122.1,73.1 c 0.6,-5.7 1,-12 1.1,-18.9 l -8.1,0.2 0.1,-2 c 0.1,-1 0.1,-2.2 0.1,-3.5 3.6,0 7.8,0 12.7,0 h 4.7 4.6 2.5 l -0.1,1.7 c -0.1,0.9 -0.1,1.7 -0.1,2.3 0,0.6 0,1.1 0,1.4 -2.7,-0.1 -5,-0.2 -6.8,-0.2 h -1.3 c -0.2,2.1 -0.3,4 -0.4,5.8 -0.1,2.5 -0.2,5 -0.3,7.4 -0.1,2.4 -0.1,4.3 -0.1,5.8 -2.1,0 -3.4,0 -4.1,0 -0.7,-0.1 -2.1,-0.1 -4.5,0 z"
   id="path64"
   inkscape:connector-curvature="0"
   style="fill:#24306e" />
</g>
<path
   class="st1"
   d="m 3.6106966,60.684183 c 39.4000004,-5.5 79.6000004,-5.3 119.0000034,0.1"
   id="path68"
   inkscape:connector-curvature="0"
   style="fill:none;stroke:#24306e;stroke-width:2;stroke-miterlimit:10" />
<rect
   x="116.2107"
   y="49.684185"
   class="st2"
   width="8.1000004"
   height="11.7"
   id="rect70"
   style="fill:none" />
<text
   transform="scale(1.0399519,0.96158291)"
   class="st0 st3 st4"
   id="text72"
   style="font-size:10.39951897px;font-family:ArialMT;fill:#24306e;stroke-width:1.03995192"
   x="111.76795"
   y="59.096081">®</text>

</svg>