<?xml version="1.0" encoding="UTF-8" standalone="no"?>
<!-- Created with Inkscape (http://www.inkscape.org/) -->

<svg
   width="139.7mm"
   height="76.57637mm"
   viewBox="0 0 139.7 76.57637"
   version="1.1"
   id="svg1"
   sodipodi:docname="context.svg"
   inkscape:version="1.4 (86a8ad7, 2024-10-11)"
   xmlns:inkscape="http://www.inkscape.org/namespaces/inkscape"
   xmlns:sodipodi="http://sodipodi.sourceforge.net/DTD/sodipodi-0.dtd"
   xmlns="http://www.w3.org/2000/svg"
   xmlns:svg="http://www.w3.org/2000/svg"
   xmlns:ns10="http://www.iki.fi/pav/software/textext/">
  <sodipodi:namedview
     id="namedview1"
     pagecolor="#ffffff"
     bordercolor="#666666"
     borderopacity="1.0"
     inkscape:showpageshadow="2"
     inkscape:pageopacity="0.0"
     inkscape:pagecheckerboard="0"
     inkscape:deskcolor="#d1d1d1"
     inkscape:document-units="mm"
     inkscape:zoom="1.9300999"
     inkscape:cx="352.05431"
     inkscape:cy="138.85291"
     inkscape:window-width="1920"
     inkscape:window-height="1010"
     inkscape:window-x="-6"
     inkscape:window-y="243"
     inkscape:window-maximized="1"
     inkscape:current-layer="layer1" />
  <defs
     id="defs1">
    <g
       id="id-a750143d-c1a7-4e47-9076-8a06baba725c"
       style="fill:#4d4d4d;fill-opacity:1;stroke:#4d4d4d;stroke-width:0;stroke-opacity:1">
      <g
         id="id-5551c316-77a6-4fcc-9d96-f7b9e06aacb7"
         style="fill:#4d4d4d;fill-opacity:1;stroke:#4d4d4d;stroke-width:0;stroke-opacity:1" />
      <g
         id="id-742f6d67-e6dd-4a36-a5c5-5562112b64b8"
         style="fill:#4d4d4d;fill-opacity:1;stroke:#4d4d4d;stroke-width:0;stroke-opacity:1">
        <path
           d="M 5.921875,0 7.40625,-5.8125 H 6.578125 L 5.5,-1.09375 4.1875,-5.8125 H 3.390625 L 2.09375,-1.09375 1,-5.8125 H 0.171875 l 1.5,5.8125 h 0.8125 L 3.78125,-4.765625 5.109375,0 Z m 0,0"
           id="id-946061ca-f3d1-47b9-a8ac-b356626bc364"
           style="fill:#4d4d4d;fill-opacity:1;stroke:#4d4d4d;stroke-width:0;stroke-opacity:1" />
      </g>
      <g
         id="id-21498778-f32a-4457-a75d-5550e40a8dcd"
         style="fill:#4d4d4d;fill-opacity:1;stroke:#4d4d4d;stroke-width:0;stroke-opacity:1">
        <path
           d="M 4.265625,-0.390625 C 4.1875,-0.375 4.15625,-0.375 4.125,-0.375 3.890625,-0.375 3.765625,-0.5 3.765625,-0.703125 V -3.15625 c 0,-0.734375 -0.546875,-1.140625 -1.578125,-1.140625 -0.609375,0 -1.109375,0.171875 -1.375,0.484375 -0.203125,0.21875 -0.28125,0.453125 -0.296875,0.875 H 1.1875 c 0.0625,-0.515625 0.359375,-0.75 0.984375,-0.75 0.59375,0 0.921875,0.234375 0.921875,0.625 v 0.171875 c 0,0.28125 -0.15625,0.40625 -0.6875,0.46875 -0.9375,0.125 -1.078125,0.15625 -1.34375,0.25 -0.484375,0.203125 -0.734375,0.578125 -0.734375,1.125 0,0.75 0.53125,1.234375 1.375,1.234375 0.53125,0 0.953125,-0.1875 1.421875,-0.625 0.046875,0.421875 0.25,0.625 0.6875,0.625 0.125,0 0.234375,-0.015625 0.453125,-0.078125 z M 3.09375,-1.3125 c 0,0.21875 -0.0625,0.359375 -0.25,0.546875 -0.28125,0.234375 -0.609375,0.375 -1,0.375 -0.515625,0 -0.8125,-0.25 -0.8125,-0.671875 0,-0.4375 0.296875,-0.671875 1,-0.765625 0.703125,-0.09375 0.84375,-0.125 1.0625,-0.234375 z m 0,0"
           id="id-313ea298-a05b-49aa-ab3f-9a9461155078"
           style="fill:#4d4d4d;fill-opacity:1;stroke:#4d4d4d;stroke-width:0;stroke-opacity:1" />
      </g>
      <g
         id="id-e42a7ed5-dbff-44f8-ba03-38ee5256a033"
         style="fill:#4d4d4d;fill-opacity:1;stroke:#4d4d4d;stroke-width:0;stroke-opacity:1">
        <path
           d="M 2.265625,0 3.875,-4.171875 H 3.125 L 1.9375,-0.78125 0.828125,-4.171875 h -0.75 L 1.546875,0 Z m 0,0"
           id="id-debcfad7-0010-4e4c-b3d0-87c3d0b43d64"
           style="fill:#4d4d4d;fill-opacity:1;stroke:#4d4d4d;stroke-width:0;stroke-opacity:1" />
      </g>
      <g
         id="id-6f7fdbb7-05dd-4a3d-95a9-2f42ed13cf3e"
         style="fill:#4d4d4d;fill-opacity:1;stroke:#4d4d4d;stroke-width:0;stroke-opacity:1">
        <path
           d="m 4.09375,-1.859375 c 0,-0.640625 -0.046875,-1.03125 -0.171875,-1.34375 -0.265625,-0.671875 -0.90625,-1.09375 -1.6875,-1.09375 -1.171875,0 -1.921875,0.890625 -1.921875,2.265625 0,1.375 0.734375,2.21875 1.90625,2.21875 0.953125,0 1.609375,-0.546875 1.78125,-1.453125 H 3.328125 c -0.1875,0.546875 -0.5625,0.828125 -1.09375,0.828125 -0.421875,0 -0.78125,-0.1875 -1,-0.53125 -0.15625,-0.25 -0.21875,-0.484375 -0.21875,-0.890625 z M 1.03125,-2.40625 c 0.046875,-0.765625 0.515625,-1.28125 1.1875,-1.28125 0.65625,0 1.15625,0.546875 1.15625,1.234375 0,0.015625 0,0.03125 0,0.046875 z m 0,0"
           id="id-6591317c-1b0b-4c96-9c10-21bb7a70ddb9"
           style="fill:#4d4d4d;fill-opacity:1;stroke:#4d4d4d;stroke-width:0;stroke-opacity:1" />
      </g>
    </g>
    <g
       id="id-33f8449e-8c90-4bc1-ac34-354ee4e0d4ef"
       style="fill:#4d4d4d;fill-opacity:1;stroke:#4d4d4d;stroke-width:0;stroke-opacity:1">
      <g
         id="id-83f5860c-e691-4454-bc52-c226066c09c8"
         style="fill:#4d4d4d;fill-opacity:1;stroke:#4d4d4d;stroke-width:0;stroke-opacity:1" />
      <g
         id="id-bf8c4ce4-20d2-43f9-b84f-0ef51a651f68"
         style="fill:#4d4d4d;fill-opacity:1;stroke:#4d4d4d;stroke-width:0;stroke-opacity:1">
        <path
           d="M 1.453125,-2.640625 H 4.625 v -0.65625 H 1.453125 V -5.15625 h 3.28125 V -5.8125 H 0.71875 V 0 h 4.171875 v -0.65625 h -3.4375 z m 0,0"
           id="id-603fd3f8-7df8-4b74-b42f-4f39d5857e73"
           style="fill:#4d4d4d;fill-opacity:1;stroke:#4d4d4d;stroke-width:0;stroke-opacity:1" />
      </g>
      <g
         id="id-06c05dea-b8db-4e28-914e-0af8a068c191"
         style="fill:#4d4d4d;fill-opacity:1;stroke:#4d4d4d;stroke-width:0;stroke-opacity:1">
        <path
           d="m 3.9375,1.734375 v -5.90625 H 3.359375 V -3.625 c -0.3125,-0.4375 -0.78125,-0.671875 -1.328125,-0.671875 -1.109375,0 -1.828125,0.90625 -1.828125,2.28125 0,1.359375 0.6875,2.203125 1.78125,2.203125 0.59375,0 0.984375,-0.21875 1.296875,-0.671875 v 2.21875 z M 2.125,-3.671875 c 0.703125,0 1.15625,0.640625 1.15625,1.640625 0,0.953125 -0.453125,1.59375 -1.15625,1.59375 -0.734375,0 -1.21875,-0.640625 -1.21875,-1.625 0,-0.953125 0.484375,-1.609375 1.21875,-1.609375 z m 0,0"
           id="id-5df0938b-9e68-44e4-bc6f-b12a43bd40b6"
           style="fill:#4d4d4d;fill-opacity:1;stroke:#4d4d4d;stroke-width:0;stroke-opacity:1" />
      </g>
      <g
         id="id-3ce46c39-599b-4f15-93af-8c73bd0b0e19"
         style="fill:#4d4d4d;fill-opacity:1;stroke:#4d4d4d;stroke-width:0;stroke-opacity:1">
        <path
           d="M 3.84375,0 V -4.171875 H 3.171875 V -1.8125 c 0,0.859375 -0.4375,1.421875 -1.125,1.421875 -0.53125,0 -0.875,-0.328125 -0.875,-0.828125 v -2.953125 h -0.65625 v 3.21875 c 0,0.6875 0.515625,1.140625 1.328125,1.140625 0.625,0 1.015625,-0.21875 1.40625,-0.765625 V 0 Z m 0,0"
           id="id-b2847055-d48f-490b-a2cc-1c6e06a9242f"
           style="fill:#4d4d4d;fill-opacity:1;stroke:#4d4d4d;stroke-width:0;stroke-opacity:1" />
      </g>
      <g
         id="id-5912f276-2085-423b-97f1-a3db6954dc0f"
         style="fill:#4d4d4d;fill-opacity:1;stroke:#4d4d4d;stroke-width:0;stroke-opacity:1">
        <path
           d="M 4.265625,-0.390625 C 4.1875,-0.375 4.15625,-0.375 4.125,-0.375 3.890625,-0.375 3.765625,-0.5 3.765625,-0.703125 V -3.15625 c 0,-0.734375 -0.546875,-1.140625 -1.578125,-1.140625 -0.609375,0 -1.109375,0.171875 -1.375,0.484375 -0.203125,0.21875 -0.28125,0.453125 -0.296875,0.875 H 1.1875 c 0.0625,-0.515625 0.359375,-0.75 0.984375,-0.75 0.59375,0 0.921875,0.234375 0.921875,0.625 v 0.171875 c 0,0.28125 -0.15625,0.40625 -0.6875,0.46875 -0.9375,0.125 -1.078125,0.15625 -1.34375,0.25 -0.484375,0.203125 -0.734375,0.578125 -0.734375,1.125 0,0.75 0.53125,1.234375 1.375,1.234375 0.53125,0 0.953125,-0.1875 1.421875,-0.625 0.046875,0.421875 0.25,0.625 0.6875,0.625 0.125,0 0.234375,-0.015625 0.453125,-0.078125 z M 3.09375,-1.3125 c 0,0.21875 -0.0625,0.359375 -0.25,0.546875 -0.28125,0.234375 -0.609375,0.375 -1,0.375 -0.515625,0 -0.8125,-0.25 -0.8125,-0.671875 0,-0.4375 0.296875,-0.671875 1,-0.765625 0.703125,-0.09375 0.84375,-0.125 1.0625,-0.234375 z m 0,0"
           id="id-baf19694-734b-4ac5-ac06-643e27008eaa"
           style="fill:#4d4d4d;fill-opacity:1;stroke:#4d4d4d;stroke-width:0;stroke-opacity:1" />
      </g>
      <g
         id="id-d03e378d-7a24-42c4-b726-6c224715c96a"
         style="fill:#4d4d4d;fill-opacity:1;stroke:#4d4d4d;stroke-width:0;stroke-opacity:1">
        <path
           d="m 2.03125,-4.171875 h -0.6875 v -1.15625 H 0.671875 v 1.15625 h -0.5625 v 0.53125 h 0.5625 v 3.15625 c 0,0.421875 0.296875,0.671875 0.8125,0.671875 0.15625,0 0.3125,-0.015625 0.546875,-0.0625 v -0.5625 c -0.09375,0.03125 -0.203125,0.046875 -0.328125,0.046875 -0.28125,0 -0.359375,-0.09375 -0.359375,-0.375 v -2.875 h 0.6875 z m 0,0"
           id="id-af663dd1-763b-469e-8973-a78fe9cc76db"
           style="fill:#4d4d4d;fill-opacity:1;stroke:#4d4d4d;stroke-width:0;stroke-opacity:1" />
      </g>
      <g
         id="id-7bba37fc-ce93-44d9-bc34-590fa7ebca3a"
         style="fill:#4d4d4d;fill-opacity:1;stroke:#4d4d4d;stroke-width:0;stroke-opacity:1">
        <path
           d="M 1.1875,-4.171875 H 0.53125 V 0 H 1.1875 Z m 0,-1.640625 H 0.53125 v 0.84375 H 1.1875 Z m 0,0"
           id="id-97351e00-ad7b-4f43-8c5a-804b8e1f5208"
           style="fill:#4d4d4d;fill-opacity:1;stroke:#4d4d4d;stroke-width:0;stroke-opacity:1" />
      </g>
      <g
         id="id-9ca404d4-f9ae-4a9d-a357-3dcd28ca992e"
         style="fill:#4d4d4d;fill-opacity:1;stroke:#4d4d4d;stroke-width:0;stroke-opacity:1">
        <path
           d="M 2.171875,-4.296875 C 1,-4.296875 0.28125,-3.453125 0.28125,-2.0625 c 0,1.40625 0.703125,2.25 1.890625,2.25 1.171875,0 1.890625,-0.84375 1.890625,-2.21875 0,-1.4375 -0.6875,-2.265625 -1.890625,-2.265625 z m 0,0.609375 c 0.75,0 1.203125,0.625 1.203125,1.65625 0,0.984375 -0.46875,1.59375 -1.203125,1.59375 -0.734375,0 -1.1875,-0.609375 -1.1875,-1.625 0,-1 0.453125,-1.625 1.1875,-1.625 z m 0,0"
           id="id-2ebe426c-2f74-4fee-8e92-c1b8968e8371"
           style="fill:#4d4d4d;fill-opacity:1;stroke:#4d4d4d;stroke-width:0;stroke-opacity:1" />
      </g>
      <g
         id="id-28b029e4-8836-4ff2-ad3a-9a6c41ea2369"
         style="fill:#4d4d4d;fill-opacity:1;stroke:#4d4d4d;stroke-width:0;stroke-opacity:1">
        <path
           d="M 0.5625,-4.171875 V 0 h 0.671875 v -2.296875 c 0,-0.859375 0.4375,-1.421875 1.125,-1.421875 0.53125,0 0.859375,0.328125 0.859375,0.828125 V 0 H 3.875 v -3.15625 c 0,-0.6875 -0.515625,-1.140625 -1.3125,-1.140625 -0.625,0 -1.03125,0.234375 -1.390625,0.828125 v -0.703125 z m 0,0"
           id="id-add4189b-c8e5-4fad-817a-462c95c9e481"
           style="fill:#4d4d4d;fill-opacity:1;stroke:#4d4d4d;stroke-width:0;stroke-opacity:1" />
      </g>
    </g>
    <g
       id="id-08f5a307-5d8f-4f90-8a9a-8db5996b5235"
       style="fill:#000080;fill-opacity:1;stroke:#000080;stroke-width:0;stroke-opacity:1">
      <g
         id="id-cfe1bf98-ca5d-4d38-9915-c1820aea84ec"
         style="fill:#000080;fill-opacity:1;stroke:#000080;stroke-width:0;stroke-opacity:1" />
      <g
         id="id-ad011d80-863b-427c-80a7-b75a499356de"
         style="fill:#000080;fill-opacity:1;stroke:#000080;stroke-width:0;stroke-opacity:1">
        <path
           d="M 1.375,-5.8125 H 0.640625 V 0 H 4.25 V -0.65625 H 1.375 Z m 0,0"
           id="id-db2ddd53-6d1a-4cd6-b808-ecf49f56c189"
           style="fill:#000080;fill-opacity:1;stroke:#000080;stroke-width:0;stroke-opacity:1" />
      </g>
      <g
         id="id-bcb59097-9632-4dd0-8551-08d153998849"
         style="fill:#000080;fill-opacity:1;stroke:#000080;stroke-width:0;stroke-opacity:1">
        <path
           d="m 4.09375,-1.859375 c 0,-0.640625 -0.046875,-1.03125 -0.171875,-1.34375 -0.265625,-0.671875 -0.90625,-1.09375 -1.6875,-1.09375 -1.171875,0 -1.921875,0.890625 -1.921875,2.265625 0,1.375 0.734375,2.21875 1.90625,2.21875 0.953125,0 1.609375,-0.546875 1.78125,-1.453125 H 3.328125 c -0.1875,0.546875 -0.5625,0.828125 -1.09375,0.828125 -0.421875,0 -0.78125,-0.1875 -1,-0.53125 -0.15625,-0.25 -0.21875,-0.484375 -0.21875,-0.890625 z M 1.03125,-2.40625 c 0.046875,-0.765625 0.515625,-1.28125 1.1875,-1.28125 0.65625,0 1.15625,0.546875 1.15625,1.234375 0,0.015625 0,0.03125 0,0.046875 z m 0,0"
           id="id-2d3d34bc-0d3b-479d-b076-a7dc1173731c"
           style="fill:#000080;fill-opacity:1;stroke:#000080;stroke-width:0;stroke-opacity:1" />
      </g>
      <g
         id="id-43a3d1b3-2919-41da-91e4-541ca1c23302"
         style="fill:#000080;fill-opacity:1;stroke:#000080;stroke-width:0;stroke-opacity:1">
        <path
           d="M 4.265625,-0.390625 C 4.1875,-0.375 4.15625,-0.375 4.125,-0.375 3.890625,-0.375 3.765625,-0.5 3.765625,-0.703125 V -3.15625 c 0,-0.734375 -0.546875,-1.140625 -1.578125,-1.140625 -0.609375,0 -1.109375,0.171875 -1.375,0.484375 -0.203125,0.21875 -0.28125,0.453125 -0.296875,0.875 H 1.1875 c 0.0625,-0.515625 0.359375,-0.75 0.984375,-0.75 0.59375,0 0.921875,0.234375 0.921875,0.625 v 0.171875 c 0,0.28125 -0.15625,0.40625 -0.6875,0.46875 -0.9375,0.125 -1.078125,0.15625 -1.34375,0.25 -0.484375,0.203125 -0.734375,0.578125 -0.734375,1.125 0,0.75 0.53125,1.234375 1.375,1.234375 0.53125,0 0.953125,-0.1875 1.421875,-0.625 0.046875,0.421875 0.25,0.625 0.6875,0.625 0.125,0 0.234375,-0.015625 0.453125,-0.078125 z M 3.09375,-1.3125 c 0,0.21875 -0.0625,0.359375 -0.25,0.546875 -0.28125,0.234375 -0.609375,0.375 -1,0.375 -0.515625,0 -0.8125,-0.25 -0.8125,-0.671875 0,-0.4375 0.296875,-0.671875 1,-0.765625 0.703125,-0.09375 0.84375,-0.125 1.0625,-0.234375 z m 0,0"
           id="id-91b642ff-29da-490c-b98c-0a33da5e5f90"
           style="fill:#000080;fill-opacity:1;stroke:#000080;stroke-width:0;stroke-opacity:1" />
      </g>
      <g
         id="id-01997fda-5914-44d8-a223-81da81490677"
         style="fill:#000080;fill-opacity:1;stroke:#000080;stroke-width:0;stroke-opacity:1">
        <path
           d="M 0.546875,-4.171875 V 0 H 1.21875 v -2.171875 c 0,-0.59375 0.15625,-0.984375 0.46875,-1.21875 0.203125,-0.140625 0.40625,-0.1875 0.875,-0.203125 v -0.671875 c -0.109375,-0.015625 -0.171875,-0.03125 -0.265625,-0.03125 -0.421875,0 -0.75,0.25 -1.140625,0.875 v -0.75 z m 0,0"
           id="id-3eea7b24-4bad-4c8a-bfbf-db7a28456813"
           style="fill:#000080;fill-opacity:1;stroke:#000080;stroke-width:0;stroke-opacity:1" />
      </g>
      <g
         id="id-9b323ec0-5c81-4330-a49f-6dbec5ca9b98"
         style="fill:#000080;fill-opacity:1;stroke:#000080;stroke-width:0;stroke-opacity:1">
        <path
           d="M 0.5625,-4.171875 V 0 h 0.671875 v -2.296875 c 0,-0.859375 0.4375,-1.421875 1.125,-1.421875 0.53125,0 0.859375,0.328125 0.859375,0.828125 V 0 H 3.875 v -3.15625 c 0,-0.6875 -0.515625,-1.140625 -1.3125,-1.140625 -0.625,0 -1.03125,0.234375 -1.390625,0.828125 v -0.703125 z m 0,0"
           id="id-a6e150f3-2444-4cec-bd29-3c53298de133"
           style="fill:#000080;fill-opacity:1;stroke:#000080;stroke-width:0;stroke-opacity:1" />
      </g>
      <g
         id="id-675fa459-e18b-45c5-92d5-bf6f0d82225f"
         style="fill:#000080;fill-opacity:1;stroke:#000080;stroke-width:0;stroke-opacity:1">
        <path
           d="M 1.1875,-4.171875 H 0.53125 V 0 H 1.1875 Z m 0,-1.640625 H 0.53125 v 0.84375 H 1.1875 Z m 0,0"
           id="id-ae99e601-690b-497d-89be-d8d01dc5f62f"
           style="fill:#000080;fill-opacity:1;stroke:#000080;stroke-width:0;stroke-opacity:1" />
      </g>
      <g
         id="id-fbda66c3-a9e0-4812-8794-6b720ea9b7ed"
         style="fill:#000080;fill-opacity:1;stroke:#000080;stroke-width:0;stroke-opacity:1">
        <path
           d="M 3.28125,-4.171875 V -3.5625 c -0.328125,-0.5 -0.734375,-0.734375 -1.265625,-0.734375 -1.0625,0 -1.78125,0.921875 -1.78125,2.28125 0,0.6875 0.1875,1.25 0.515625,1.640625 0.3125,0.34375 0.765625,0.5625 1.203125,0.5625 0.53125,0 0.890625,-0.234375 1.265625,-0.75 v 0.21875 c 0,0.5625 -0.078125,0.90625 -0.234375,1.125 C 2.8125,1.03125 2.46875,1.171875 2.0625,1.171875 1.75,1.171875 1.484375,1.09375 1.296875,0.953125 1.140625,0.84375 1.078125,0.71875 1.046875,0.484375 h -0.6875 c 0.078125,0.78125 0.6875,1.25 1.671875,1.25 0.625,0 1.15625,-0.203125 1.421875,-0.53125 0.328125,-0.375 0.4375,-0.90625 0.4375,-1.890625 V -4.171875 Z M 2.078125,-3.6875 c 0.71875,0 1.140625,0.609375 1.140625,1.65625 0,1 -0.4375,1.59375 -1.125,1.59375 -0.734375,0 -1.171875,-0.609375 -1.171875,-1.625 0,-1 0.453125,-1.625 1.15625,-1.625 z m 0,0"
           id="id-4d957b27-7216-4cf1-aa01-c859379cc1b6"
           style="fill:#000080;fill-opacity:1;stroke:#000080;stroke-width:0;stroke-opacity:1" />
      </g>
    </g>
    <g
       id="id-8966c4fd-cd54-420b-8691-3e36dadc268a"
       style="fill:#000080;fill-opacity:1;stroke:#000080;stroke-width:0;stroke-opacity:1">
      <g
         id="id-41dc38a9-be33-450e-89cd-29eeffd0653b"
         style="fill:#000080;fill-opacity:1;stroke:#000080;stroke-width:0;stroke-opacity:1" />
      <g
         id="id-c747d89f-1a41-42b8-a61d-ee9e3a0ce6f7"
         style="fill:#000080;fill-opacity:1;stroke:#000080;stroke-width:0;stroke-opacity:1">
        <path
           d="m 3.734375,0 1.625,-4.875 V 0 H 6.0625 V -5.8125 H 5.03125 L 3.34375,-0.75 1.625,-5.8125 H 0.59375 V 0 H 1.296875 V -4.875 L 2.953125,0 Z m 0,0"
           id="id-5821e72a-05c5-438b-845b-10b070e58caa"
           style="fill:#000080;fill-opacity:1;stroke:#000080;stroke-width:0;stroke-opacity:1" />
      </g>
      <g
         id="id-d72ed8bd-fe2d-4128-8e1b-3a7a56f7edc2"
         style="fill:#000080;fill-opacity:1;stroke:#000080;stroke-width:0;stroke-opacity:1">
        <path
           d="M 4.265625,-0.390625 C 4.1875,-0.375 4.15625,-0.375 4.125,-0.375 3.890625,-0.375 3.765625,-0.5 3.765625,-0.703125 V -3.15625 c 0,-0.734375 -0.546875,-1.140625 -1.578125,-1.140625 -0.609375,0 -1.109375,0.171875 -1.375,0.484375 -0.203125,0.21875 -0.28125,0.453125 -0.296875,0.875 H 1.1875 c 0.0625,-0.515625 0.359375,-0.75 0.984375,-0.75 0.59375,0 0.921875,0.234375 0.921875,0.625 v 0.171875 c 0,0.28125 -0.15625,0.40625 -0.6875,0.46875 -0.9375,0.125 -1.078125,0.15625 -1.34375,0.25 -0.484375,0.203125 -0.734375,0.578125 -0.734375,1.125 0,0.75 0.53125,1.234375 1.375,1.234375 0.53125,0 0.953125,-0.1875 1.421875,-0.625 0.046875,0.421875 0.25,0.625 0.6875,0.625 0.125,0 0.234375,-0.015625 0.453125,-0.078125 z M 3.09375,-1.3125 c 0,0.21875 -0.0625,0.359375 -0.25,0.546875 -0.28125,0.234375 -0.609375,0.375 -1,0.375 -0.515625,0 -0.8125,-0.25 -0.8125,-0.671875 0,-0.4375 0.296875,-0.671875 1,-0.765625 0.703125,-0.09375 0.84375,-0.125 1.0625,-0.234375 z m 0,0"
           id="id-bc38a6fc-debf-4119-8e26-f740759191bc"
           style="fill:#000080;fill-opacity:1;stroke:#000080;stroke-width:0;stroke-opacity:1" />
      </g>
      <g
         id="id-2c17eaa2-be5d-43f1-881f-7b552018b8bc"
         style="fill:#000080;fill-opacity:1;stroke:#000080;stroke-width:0;stroke-opacity:1">
        <path
           d="M 3.75,-2.765625 C 3.71875,-3.171875 3.640625,-3.4375 3.46875,-3.671875 3.1875,-4.0625 2.6875,-4.296875 2.109375,-4.296875 c -1.125,0 -1.859375,0.890625 -1.859375,2.28125 0,1.34375 0.71875,2.203125 1.84375,2.203125 1,0 1.625,-0.609375 1.703125,-1.625 H 3.125 c -0.109375,0.671875 -0.453125,1 -1.015625,1 C 1.375,-0.4375 0.9375,-1.03125 0.9375,-2.015625 0.9375,-3.0625 1.375,-3.6875 2.09375,-3.6875 c 0.5625,0 0.90625,0.328125 0.984375,0.921875 z m 0,0"
           id="id-4d06835b-3d8f-4ec1-8b28-0769c1e1071c"
           style="fill:#000080;fill-opacity:1;stroke:#000080;stroke-width:0;stroke-opacity:1" />
      </g>
      <g
         id="id-9f39f582-c624-42fe-8be2-81b1c4ceb5a4"
         style="fill:#000080;fill-opacity:1;stroke:#000080;stroke-width:0;stroke-opacity:1">
        <path
           d="M 0.5625,-5.8125 V 0 h 0.65625 v -2.296875 c 0,-0.859375 0.453125,-1.421875 1.125,-1.421875 0.21875,0 0.4375,0.078125 0.59375,0.203125 0.1875,0.125 0.28125,0.328125 0.28125,0.625 V 0 H 3.875 v -3.15625 c 0,-0.703125 -0.5,-1.140625 -1.3125,-1.140625 -0.59375,0 -0.953125,0.1875 -1.34375,0.6875 V -5.8125 Z m 0,0"
           id="id-3095edd4-6a9f-482e-ad85-3c4ee25f4163"
           style="fill:#000080;fill-opacity:1;stroke:#000080;stroke-width:0;stroke-opacity:1" />
      </g>
      <g
         id="id-29ccae99-27cb-4f5f-953c-d2b418d031ac"
         style="fill:#000080;fill-opacity:1;stroke:#000080;stroke-width:0;stroke-opacity:1">
        <path
           d="M 1.1875,-4.171875 H 0.53125 V 0 H 1.1875 Z m 0,-1.640625 H 0.53125 v 0.84375 H 1.1875 Z m 0,0"
           id="id-c16c71ad-eaa6-4ea2-a291-ce0f1a0b74e0"
           style="fill:#000080;fill-opacity:1;stroke:#000080;stroke-width:0;stroke-opacity:1" />
      </g>
      <g
         id="id-8b86fbc6-5669-4241-bb37-eb7537e5dc5d"
         style="fill:#000080;fill-opacity:1;stroke:#000080;stroke-width:0;stroke-opacity:1">
        <path
           d="M 0.5625,-4.171875 V 0 h 0.671875 v -2.296875 c 0,-0.859375 0.4375,-1.421875 1.125,-1.421875 0.53125,0 0.859375,0.328125 0.859375,0.828125 V 0 H 3.875 v -3.15625 c 0,-0.6875 -0.515625,-1.140625 -1.3125,-1.140625 -0.625,0 -1.03125,0.234375 -1.390625,0.828125 v -0.703125 z m 0,0"
           id="id-5cac9aea-b9ba-4291-aab4-46c7d1a80811"
           style="fill:#000080;fill-opacity:1;stroke:#000080;stroke-width:0;stroke-opacity:1" />
      </g>
      <g
         id="id-f0988d5f-42f6-4f02-bfa6-3820b4d39cf4"
         style="fill:#000080;fill-opacity:1;stroke:#000080;stroke-width:0;stroke-opacity:1">
        <path
           d="m 4.09375,-1.859375 c 0,-0.640625 -0.046875,-1.03125 -0.171875,-1.34375 -0.265625,-0.671875 -0.90625,-1.09375 -1.6875,-1.09375 -1.171875,0 -1.921875,0.890625 -1.921875,2.265625 0,1.375 0.734375,2.21875 1.90625,2.21875 0.953125,0 1.609375,-0.546875 1.78125,-1.453125 H 3.328125 c -0.1875,0.546875 -0.5625,0.828125 -1.09375,0.828125 -0.421875,0 -0.78125,-0.1875 -1,-0.53125 -0.15625,-0.25 -0.21875,-0.484375 -0.21875,-0.890625 z M 1.03125,-2.40625 c 0.046875,-0.765625 0.515625,-1.28125 1.1875,-1.28125 0.65625,0 1.15625,0.546875 1.15625,1.234375 0,0.015625 0,0.03125 0,0.046875 z m 0,0"
           id="id-2aa75dbf-8b62-49db-bed3-e02ef1b1803d"
           style="fill:#000080;fill-opacity:1;stroke:#000080;stroke-width:0;stroke-opacity:1" />
      </g>
    </g>
    <g
       id="id-14e6c6c1-1a49-4be6-8117-cdf0aa24d9f4"
       style="fill:#000080;fill-opacity:1;stroke:#000080;stroke-width:0;stroke-opacity:1">
      <g
         id="id-2efda88f-d88b-4e18-b5db-d0340ce58f0a"
         style="fill:#000080;fill-opacity:1;stroke:#000080;stroke-width:0;stroke-opacity:1" />
      <g
         id="id-9d4eabab-4d3f-43c7-b25e-98c7542d63f6"
         style="fill:#000080;fill-opacity:1;stroke:#000080;stroke-width:0;stroke-opacity:1">
        <path
           d="M 4.75,-4.109375 C 4.734375,-5.25 3.953125,-5.90625 2.625,-5.90625 c -1.28125,0 -2.0625,0.65625 -2.0625,1.703125 0,0.71875 0.375,1.15625 1.140625,1.359375 l 1.4375,0.375 c 0.734375,0.203125 1.0625,0.5 1.0625,0.953125 0,0.296875 -0.15625,0.625 -0.40625,0.796875 -0.234375,0.15625 -0.59375,0.25 -1.078125,0.25 -0.625,0 -1.046875,-0.15625 -1.328125,-0.484375 -0.21875,-0.265625 -0.3125,-0.53125 -0.3125,-0.890625 H 0.375 C 0.390625,-1.3125 0.5,-0.96875 0.71875,-0.640625 1.125,-0.109375 1.796875,0.1875 2.671875,0.1875 3.375,0.1875 3.9375,0.03125 4.3125,-0.265625 4.703125,-0.578125 4.953125,-1.09375 4.953125,-1.59375 4.953125,-2.3125 4.5,-2.84375 3.71875,-3.046875 L 2.25,-3.4375 C 1.546875,-3.640625 1.296875,-3.859375 1.296875,-4.296875 c 0,-0.59375 0.515625,-0.984375 1.296875,-0.984375 0.921875,0 1.453125,0.421875 1.453125,1.171875 z m 0,0"
           id="id-3bd8b84d-ce02-440f-9c84-66bd2e0754d2"
           style="fill:#000080;fill-opacity:1;stroke:#000080;stroke-width:0;stroke-opacity:1" />
      </g>
      <g
         id="id-4a10ebba-f989-4980-afba-10f52dee42d7"
         style="fill:#000080;fill-opacity:1;stroke:#000080;stroke-width:0;stroke-opacity:1">
        <path
           d="m 4.09375,-1.859375 c 0,-0.640625 -0.046875,-1.03125 -0.171875,-1.34375 -0.265625,-0.671875 -0.90625,-1.09375 -1.6875,-1.09375 -1.171875,0 -1.921875,0.890625 -1.921875,2.265625 0,1.375 0.734375,2.21875 1.90625,2.21875 0.953125,0 1.609375,-0.546875 1.78125,-1.453125 H 3.328125 c -0.1875,0.546875 -0.5625,0.828125 -1.09375,0.828125 -0.421875,0 -0.78125,-0.1875 -1,-0.53125 -0.15625,-0.25 -0.21875,-0.484375 -0.21875,-0.890625 z M 1.03125,-2.40625 c 0.046875,-0.765625 0.515625,-1.28125 1.1875,-1.28125 0.65625,0 1.15625,0.546875 1.15625,1.234375 0,0.015625 0,0.03125 0,0.046875 z m 0,0"
           id="id-d000925a-4748-4a1e-b876-5e3ae63709f7"
           style="fill:#000080;fill-opacity:1;stroke:#000080;stroke-width:0;stroke-opacity:1" />
      </g>
      <g
         id="id-65dfaa1d-7e17-4de9-b017-bc4bc4ba4714"
         style="fill:#000080;fill-opacity:1;stroke:#000080;stroke-width:0;stroke-opacity:1">
        <path
           d="M 1.1875,-4.171875 H 0.53125 V 0 H 1.1875 Z m 0,-1.640625 H 0.53125 v 0.84375 H 1.1875 Z m 0,0"
           id="id-b5de44a3-67f5-41e1-8f7d-afc102611ffc"
           style="fill:#000080;fill-opacity:1;stroke:#000080;stroke-width:0;stroke-opacity:1" />
      </g>
      <g
         id="id-bee66c29-5182-4b3e-a656-9af5c4178852"
         style="fill:#000080;fill-opacity:1;stroke:#000080;stroke-width:0;stroke-opacity:1">
        <path
           d="m 3.484375,-3.015625 c 0,-0.8125 -0.546875,-1.28125 -1.515625,-1.28125 -0.96875,0 -1.59375,0.5 -1.59375,1.28125 0,0.65625 0.328125,0.953125 1.328125,1.203125 L 2.3125,-1.671875 c 0.46875,0.125 0.65625,0.28125 0.65625,0.59375 0,0.390625 -0.390625,0.640625 -0.984375,0.640625 -0.34375,0 -0.65625,-0.09375 -0.828125,-0.265625 -0.09375,-0.125 -0.140625,-0.25 -0.1875,-0.546875 H 0.265625 c 0.03125,0.96875 0.578125,1.4375 1.671875,1.4375 1.046875,0 1.71875,-0.515625 1.71875,-1.328125 0,-0.625 -0.34375,-0.96875 -1.171875,-1.15625 L 1.84375,-2.453125 C 1.296875,-2.578125 1.0625,-2.75 1.0625,-3.046875 1.0625,-3.4375 1.40625,-3.6875 1.953125,-3.6875 c 0.53125,0 0.8125,0.234375 0.828125,0.671875 z m 0,0"
           id="id-15294fe1-03ee-461a-8296-3b951b58f340"
           style="fill:#000080;fill-opacity:1;stroke:#000080;stroke-width:0;stroke-opacity:1" />
      </g>
      <g
         id="id-0e63f3a8-9d4a-47cb-adf0-111c0347531f"
         style="fill:#000080;fill-opacity:1;stroke:#000080;stroke-width:0;stroke-opacity:1">
        <path
           d="M 0.5625,-4.171875 V 0 h 0.671875 v -2.625 c 0,-0.609375 0.4375,-1.09375 0.96875,-1.09375 0.5,0 0.78125,0.3125 0.78125,0.84375 V 0 H 3.65625 v -2.625 c 0,-0.609375 0.4375,-1.09375 0.96875,-1.09375 0.484375,0 0.78125,0.3125 0.78125,0.84375 V 0 h 0.671875 v -3.125 c 0,-0.75 -0.4375,-1.171875 -1.21875,-1.171875 -0.5625,0 -0.890625,0.171875 -1.28125,0.640625 -0.25,-0.453125 -0.578125,-0.640625 -1.125,-0.640625 -0.5625,0 -0.921875,0.203125 -1.28125,0.71875 v -0.59375 z m 0,0"
           id="id-d28d1d3e-ea54-40e1-98b7-e9044e7b9f6f"
           style="fill:#000080;fill-opacity:1;stroke:#000080;stroke-width:0;stroke-opacity:1" />
      </g>
      <g
         id="id-252b031a-ffb6-46fe-9388-5efa0dadb2a0"
         style="fill:#000080;fill-opacity:1;stroke:#000080;stroke-width:0;stroke-opacity:1">
        <path
           d="M 2.171875,-4.296875 C 1,-4.296875 0.28125,-3.453125 0.28125,-2.0625 c 0,1.40625 0.703125,2.25 1.890625,2.25 1.171875,0 1.890625,-0.84375 1.890625,-2.21875 0,-1.4375 -0.6875,-2.265625 -1.890625,-2.265625 z m 0,0.609375 c 0.75,0 1.203125,0.625 1.203125,1.65625 0,0.984375 -0.46875,1.59375 -1.203125,1.59375 -0.734375,0 -1.1875,-0.609375 -1.1875,-1.625 0,-1 0.453125,-1.625 1.1875,-1.625 z m 0,0"
           id="id-56ab237e-d841-4165-9dad-d89604f80e4a"
           style="fill:#000080;fill-opacity:1;stroke:#000080;stroke-width:0;stroke-opacity:1" />
      </g>
      <g
         id="id-54763fa3-80f6-4c68-802e-0ea9da5d9973"
         style="fill:#000080;fill-opacity:1;stroke:#000080;stroke-width:0;stroke-opacity:1">
        <path
           d="M 1.21875,-5.8125 H 0.546875 V 0 H 1.21875 Z m 0,0"
           id="id-6f8425d7-7aeb-4209-a9a8-cf94110d30f5"
           style="fill:#000080;fill-opacity:1;stroke:#000080;stroke-width:0;stroke-opacity:1" />
      </g>
      <g
         id="id-ddd7cdca-5143-41a8-a957-ef87977de896"
         style="fill:#000080;fill-opacity:1;stroke:#000080;stroke-width:0;stroke-opacity:1">
        <path
           d="M 3.28125,-4.171875 V -3.5625 c -0.328125,-0.5 -0.734375,-0.734375 -1.265625,-0.734375 -1.0625,0 -1.78125,0.921875 -1.78125,2.28125 0,0.6875 0.1875,1.25 0.515625,1.640625 0.3125,0.34375 0.765625,0.5625 1.203125,0.5625 0.53125,0 0.890625,-0.234375 1.265625,-0.75 v 0.21875 c 0,0.5625 -0.078125,0.90625 -0.234375,1.125 C 2.8125,1.03125 2.46875,1.171875 2.0625,1.171875 1.75,1.171875 1.484375,1.09375 1.296875,0.953125 1.140625,0.84375 1.078125,0.71875 1.046875,0.484375 h -0.6875 c 0.078125,0.78125 0.6875,1.25 1.671875,1.25 0.625,0 1.15625,-0.203125 1.421875,-0.53125 0.328125,-0.375 0.4375,-0.90625 0.4375,-1.890625 V -4.171875 Z M 2.078125,-3.6875 c 0.71875,0 1.140625,0.609375 1.140625,1.65625 0,1 -0.4375,1.59375 -1.125,1.59375 -0.734375,0 -1.171875,-0.609375 -1.171875,-1.625 0,-1 0.453125,-1.625 1.15625,-1.625 z m 0,0"
           id="id-c601d19e-d37b-4ac0-b132-62c25267841d"
           style="fill:#000080;fill-opacity:1;stroke:#000080;stroke-width:0;stroke-opacity:1" />
      </g>
      <g
         id="id-45825285-2ba3-4395-8932-a414660f3a63"
         style="fill:#000080;fill-opacity:1;stroke:#000080;stroke-width:0;stroke-opacity:1">
        <path
           d="m 3.09375,-4.171875 -1.15625,3.25 -1.0625,-3.25 H 0.15625 l 1.40625,4.1875 -0.25,0.65625 C 1.21875,0.96875 1.0625,1.078125 0.78125,1.078125 0.6875,1.078125 0.578125,1.0625 0.4375,1.03125 v 0.609375 c 0.125,0.0625 0.265625,0.09375 0.4375,0.09375 0.21875,0 0.453125,-0.0625 0.625,-0.203125 C 1.703125,1.390625 1.828125,1.21875 1.953125,0.875 L 3.8125,-4.171875 Z m 0,0"
           id="id-f5fb4ef1-392a-4d64-8894-125e297ba9e6"
           style="fill:#000080;fill-opacity:1;stroke:#000080;stroke-width:0;stroke-opacity:1" />
      </g>
    </g>
  </defs>
  <g
     inkscape:label="Layer 1"
     inkscape:groupmode="layer"
     id="layer1"
     transform="translate(-29.893513,-51.019112)">
    <rect
       style="fill:#ffffff;stroke-width:0.474814"
       id="rect136"
       width="139.7"
       height="76.57637"
       x="29.893513"
       y="51.019112" />
    <circle
       style="fill:#ececec;fill-opacity:0.49635;stroke:#7e7e7e;stroke-width:0.36314;stroke-opacity:1"
       id="path1555-2"
       cx="99.643394"
       cy="74.763329"
       r="22.458839" />
    <circle
       style="fill:#999999;fill-opacity:0.5;stroke:#7e7e7e;stroke-width:0.36314;stroke-opacity:0.94490355"
       id="path1555"
       cx="85.611244"
       cy="102.65377"
       r="22.458839" />
    <circle
       style="fill:#a4b6ff;fill-opacity:0.5;stroke:#000255;stroke-width:0.36314;stroke-opacity:1"
       id="path1555-0"
       cx="113.87578"
       cy="102.68808"
       r="22.458839" />
    <path
       style="fill:none;fill-opacity:0.5;stroke:#666666;stroke-width:0.4;stroke-dasharray:none;stroke-opacity:1"
       d="m 92.310802,96.0117 c 5.179197,1.581182 10.121568,1.662265 14.828308,-0.08627"
       id="path52652-0"
       sodipodi:nodetypes="cc" />
    <path
       style="fill:none;fill-opacity:0.5;stroke:#666666;stroke-width:0.4;stroke-dasharray:none;stroke-opacity:1"
       d="m 92.439603,96.110436 c 0.998982,-3.437315 2.990999,-7.312207 7.303407,-10.873529"
       id="path52750-5"
       sodipodi:nodetypes="cc" />
    <path
       style="fill:none;fill-opacity:0.5;stroke:#666666;stroke-width:0.4;stroke-dasharray:none;stroke-opacity:1"
       d="m 106.97369,95.930617 c -1.20965,-4.34992 -3.88861,-7.970651 -7.225682,-10.694039"
       id="path52752-7"
       sodipodi:nodetypes="cc" />
    <g
       id="g19679"
       transform="translate(12.797183,36.106657)"
       style="fill:#4d4d4d">
      <g
         transform="matrix(0.352778,0,0,0.352778,65.5091,69.3577)"
         ns10:version="1.8.2"
         ns10:texconverter="pdflatex"
         ns10:pdfconverter="inkscape"
         ns10:text="{\\footnotesize\nLearning\n}"
         ns10:preamble="C:\Users\orincon\Documents\default_packages_inks.tex"
         ns10:scale="1.0"
         ns10:alignment="middle center"
         ns10:stroke-to-path="0"
         ns10:inkscapeversion="1.2.2"
         ns10:jacobian_sqrt="0.352778"
         style="fill:#4d4d4d;fill-opacity:1;stroke:#000080;stroke-width:0;stroke-opacity:1"
         id="g4239-9-2-4-74-6-1">
        <defs
           id="id-255e312c-8451-48cd-9bc0-5fb1bc1b8cfc"
           style="fill:#000080;fill-opacity:1;stroke:#000080;stroke-width:0;stroke-opacity:1">
          <g
             id="g25"
             style="fill:#000080;fill-opacity:1;stroke:#000080;stroke-width:0;stroke-opacity:1">
            <g
               id="g17"
               style="fill:#000080;fill-opacity:1;stroke:#000080;stroke-width:0;stroke-opacity:1" />
            <g
               id="g18"
               style="fill:#000080;fill-opacity:1;stroke:#000080;stroke-width:0;stroke-opacity:1">
              <path
                 d="M 1.375,-5.8125 H 0.640625 V 0 H 4.25 V -0.65625 H 1.375 Z m 0,0"
                 id="path17"
                 style="fill:#000080;fill-opacity:1;stroke:#000080;stroke-width:0;stroke-opacity:1" />
            </g>
            <g
               id="g19"
               style="fill:#000080;fill-opacity:1;stroke:#000080;stroke-width:0;stroke-opacity:1">
              <path
                 d="m 4.09375,-1.859375 c 0,-0.640625 -0.046875,-1.03125 -0.171875,-1.34375 -0.265625,-0.671875 -0.90625,-1.09375 -1.6875,-1.09375 -1.171875,0 -1.921875,0.890625 -1.921875,2.265625 0,1.375 0.734375,2.21875 1.90625,2.21875 0.953125,0 1.609375,-0.546875 1.78125,-1.453125 H 3.328125 c -0.1875,0.546875 -0.5625,0.828125 -1.09375,0.828125 -0.421875,0 -0.78125,-0.1875 -1,-0.53125 -0.15625,-0.25 -0.21875,-0.484375 -0.21875,-0.890625 z M 1.03125,-2.40625 c 0.046875,-0.765625 0.515625,-1.28125 1.1875,-1.28125 0.65625,0 1.15625,0.546875 1.15625,1.234375 0,0.015625 0,0.03125 0,0.046875 z m 0,0"
                 id="path18"
                 style="fill:#000080;fill-opacity:1;stroke:#000080;stroke-width:0;stroke-opacity:1" />
            </g>
            <g
               id="g20"
               style="fill:#000080;fill-opacity:1;stroke:#000080;stroke-width:0;stroke-opacity:1">
              <path
                 d="M 4.265625,-0.390625 C 4.1875,-0.375 4.15625,-0.375 4.125,-0.375 3.890625,-0.375 3.765625,-0.5 3.765625,-0.703125 V -3.15625 c 0,-0.734375 -0.546875,-1.140625 -1.578125,-1.140625 -0.609375,0 -1.109375,0.171875 -1.375,0.484375 -0.203125,0.21875 -0.28125,0.453125 -0.296875,0.875 H 1.1875 c 0.0625,-0.515625 0.359375,-0.75 0.984375,-0.75 0.59375,0 0.921875,0.234375 0.921875,0.625 v 0.171875 c 0,0.28125 -0.15625,0.40625 -0.6875,0.46875 -0.9375,0.125 -1.078125,0.15625 -1.34375,0.25 -0.484375,0.203125 -0.734375,0.578125 -0.734375,1.125 0,0.75 0.53125,1.234375 1.375,1.234375 0.53125,0 0.953125,-0.1875 1.421875,-0.625 0.046875,0.421875 0.25,0.625 0.6875,0.625 0.125,0 0.234375,-0.015625 0.453125,-0.078125 z M 3.09375,-1.3125 c 0,0.21875 -0.0625,0.359375 -0.25,0.546875 -0.28125,0.234375 -0.609375,0.375 -1,0.375 -0.515625,0 -0.8125,-0.25 -0.8125,-0.671875 0,-0.4375 0.296875,-0.671875 1,-0.765625 0.703125,-0.09375 0.84375,-0.125 1.0625,-0.234375 z m 0,0"
                 id="path19"
                 style="fill:#000080;fill-opacity:1;stroke:#000080;stroke-width:0;stroke-opacity:1" />
            </g>
            <g
               id="g21"
               style="fill:#000080;fill-opacity:1;stroke:#000080;stroke-width:0;stroke-opacity:1">
              <path
                 d="M 0.546875,-4.171875 V 0 H 1.21875 v -2.171875 c 0,-0.59375 0.15625,-0.984375 0.46875,-1.21875 0.203125,-0.140625 0.40625,-0.1875 0.875,-0.203125 v -0.671875 c -0.109375,-0.015625 -0.171875,-0.03125 -0.265625,-0.03125 -0.421875,0 -0.75,0.25 -1.140625,0.875 v -0.75 z m 0,0"
                 id="path20"
                 style="fill:#000080;fill-opacity:1;stroke:#000080;stroke-width:0;stroke-opacity:1" />
            </g>
            <g
               id="g22"
               style="fill:#000080;fill-opacity:1;stroke:#000080;stroke-width:0;stroke-opacity:1">
              <path
                 d="M 0.5625,-4.171875 V 0 h 0.671875 v -2.296875 c 0,-0.859375 0.4375,-1.421875 1.125,-1.421875 0.53125,0 0.859375,0.328125 0.859375,0.828125 V 0 H 3.875 v -3.15625 c 0,-0.6875 -0.515625,-1.140625 -1.3125,-1.140625 -0.625,0 -1.03125,0.234375 -1.390625,0.828125 v -0.703125 z m 0,0"
                 id="path21"
                 style="fill:#000080;fill-opacity:1;stroke:#000080;stroke-width:0;stroke-opacity:1" />
            </g>
            <g
               id="g23"
               style="fill:#000080;fill-opacity:1;stroke:#000080;stroke-width:0;stroke-opacity:1">
              <path
                 d="M 1.1875,-4.171875 H 0.53125 V 0 H 1.1875 Z m 0,-1.640625 H 0.53125 v 0.84375 H 1.1875 Z m 0,0"
                 id="path22"
                 style="fill:#000080;fill-opacity:1;stroke:#000080;stroke-width:0;stroke-opacity:1" />
            </g>
            <g
               id="g24"
               style="fill:#000080;fill-opacity:1;stroke:#000080;stroke-width:0;stroke-opacity:1">
              <path
                 d="M 3.28125,-4.171875 V -3.5625 c -0.328125,-0.5 -0.734375,-0.734375 -1.265625,-0.734375 -1.0625,0 -1.78125,0.921875 -1.78125,2.28125 0,0.6875 0.1875,1.25 0.515625,1.640625 0.3125,0.34375 0.765625,0.5625 1.203125,0.5625 0.53125,0 0.890625,-0.234375 1.265625,-0.75 v 0.21875 c 0,0.5625 -0.078125,0.90625 -0.234375,1.125 C 2.8125,1.03125 2.46875,1.171875 2.0625,1.171875 1.75,1.171875 1.484375,1.09375 1.296875,0.953125 1.140625,0.84375 1.078125,0.71875 1.046875,0.484375 h -0.6875 c 0.078125,0.78125 0.6875,1.25 1.671875,1.25 0.625,0 1.15625,-0.203125 1.421875,-0.53125 0.328125,-0.375 0.4375,-0.90625 0.4375,-1.890625 V -4.171875 Z M 2.078125,-3.6875 c 0.71875,0 1.140625,0.609375 1.140625,1.65625 0,1 -0.4375,1.59375 -1.125,1.59375 -0.734375,0 -1.171875,-0.609375 -1.171875,-1.625 0,-1 0.453125,-1.625 1.15625,-1.625 z m 0,0"
                 id="path23"
                 style="fill:#000080;fill-opacity:1;stroke:#000080;stroke-width:0;stroke-opacity:1" />
            </g>
          </g>
        </defs>
        <g
           fill-opacity="1"
           id="id-0c938ab1-b218-4981-8289-c9e52d1c9c84"
           transform="translate(-149.353,-128.952)"
           style="fill:#4d4d4d;fill-opacity:1;stroke:#000080;stroke-width:0;stroke-opacity:1">
          <g
             transform="translate(148.712,134.765)"
             style="fill:#4d4d4d;fill-opacity:1;stroke:#000080;stroke-width:0;stroke-opacity:1"
             id="g78239">
            <path
               d="M 1.375,-5.8125 H 0.640625 V 0 H 4.25 V -0.65625 H 1.375 Z m 0,0"
               id="id-c681f30a-3b0b-40f8-8d98-b63cd3ee96c3"
               style="fill:#4d4d4d;fill-opacity:1;stroke:#000080;stroke-width:0;stroke-opacity:1" />
          </g>
          <g
             transform="translate(153.143,134.765)"
             style="fill:#4d4d4d;fill-opacity:1;stroke:#000080;stroke-width:0;stroke-opacity:1"
             id="g78242">
            <path
               d="m 4.09375,-1.859375 c 0,-0.640625 -0.046875,-1.03125 -0.171875,-1.34375 -0.265625,-0.671875 -0.90625,-1.09375 -1.6875,-1.09375 -1.171875,0 -1.921875,0.890625 -1.921875,2.265625 0,1.375 0.734375,2.21875 1.90625,2.21875 0.953125,0 1.609375,-0.546875 1.78125,-1.453125 H 3.328125 c -0.1875,0.546875 -0.5625,0.828125 -1.09375,0.828125 -0.421875,0 -0.78125,-0.1875 -1,-0.53125 -0.15625,-0.25 -0.21875,-0.484375 -0.21875,-0.890625 z M 1.03125,-2.40625 c 0.046875,-0.765625 0.515625,-1.28125 1.1875,-1.28125 0.65625,0 1.15625,0.546875 1.15625,1.234375 0,0.015625 0,0.03125 0,0.046875 z m 0,0"
               id="id-09d9a2e7-1991-44b1-b5b7-ca5b79163906"
               style="fill:#4d4d4d;fill-opacity:1;stroke:#000080;stroke-width:0;stroke-opacity:1" />
          </g>
          <g
             transform="translate(157.575,134.765)"
             style="fill:#4d4d4d;fill-opacity:1;stroke:#000080;stroke-width:0;stroke-opacity:1"
             id="g78245">
            <path
               d="M 4.265625,-0.390625 C 4.1875,-0.375 4.15625,-0.375 4.125,-0.375 3.890625,-0.375 3.765625,-0.5 3.765625,-0.703125 V -3.15625 c 0,-0.734375 -0.546875,-1.140625 -1.578125,-1.140625 -0.609375,0 -1.109375,0.171875 -1.375,0.484375 -0.203125,0.21875 -0.28125,0.453125 -0.296875,0.875 H 1.1875 c 0.0625,-0.515625 0.359375,-0.75 0.984375,-0.75 0.59375,0 0.921875,0.234375 0.921875,0.625 v 0.171875 c 0,0.28125 -0.15625,0.40625 -0.6875,0.46875 -0.9375,0.125 -1.078125,0.15625 -1.34375,0.25 -0.484375,0.203125 -0.734375,0.578125 -0.734375,1.125 0,0.75 0.53125,1.234375 1.375,1.234375 0.53125,0 0.953125,-0.1875 1.421875,-0.625 0.046875,0.421875 0.25,0.625 0.6875,0.625 0.125,0 0.234375,-0.015625 0.453125,-0.078125 z M 3.09375,-1.3125 c 0,0.21875 -0.0625,0.359375 -0.25,0.546875 -0.28125,0.234375 -0.609375,0.375 -1,0.375 -0.515625,0 -0.8125,-0.25 -0.8125,-0.671875 0,-0.4375 0.296875,-0.671875 1,-0.765625 0.703125,-0.09375 0.84375,-0.125 1.0625,-0.234375 z m 0,0"
               id="id-2aba4edb-3e33-4710-a5a0-0e2ab70b285b"
               style="fill:#4d4d4d;fill-opacity:1;stroke:#000080;stroke-width:0;stroke-opacity:1" />
          </g>
          <g
             transform="translate(162.006,134.765)"
             style="fill:#4d4d4d;fill-opacity:1;stroke:#000080;stroke-width:0;stroke-opacity:1"
             id="g78248">
            <path
               d="M 0.546875,-4.171875 V 0 H 1.21875 v -2.171875 c 0,-0.59375 0.15625,-0.984375 0.46875,-1.21875 0.203125,-0.140625 0.40625,-0.1875 0.875,-0.203125 v -0.671875 c -0.109375,-0.015625 -0.171875,-0.03125 -0.265625,-0.03125 -0.421875,0 -0.75,0.25 -1.140625,0.875 v -0.75 z m 0,0"
               id="id-da9ef6c1-0878-4071-9cb6-5b2cbec5ba60"
               style="fill:#4d4d4d;fill-opacity:1;stroke:#000080;stroke-width:0;stroke-opacity:1" />
          </g>
        </g>
        <g
           fill-opacity="1"
           id="id-bc570a6f-e24c-45f6-8e19-f63893415262"
           transform="translate(-149.353,-128.952)"
           style="fill:#4d4d4d;fill-opacity:1;stroke:#000080;stroke-width:0;stroke-opacity:1">
          <g
             transform="translate(164.859,134.765)"
             style="fill:#4d4d4d;fill-opacity:1;stroke:#000080;stroke-width:0;stroke-opacity:1"
             id="g78252">
            <path
               d="M 0.5625,-4.171875 V 0 h 0.671875 v -2.296875 c 0,-0.859375 0.4375,-1.421875 1.125,-1.421875 0.53125,0 0.859375,0.328125 0.859375,0.828125 V 0 H 3.875 v -3.15625 c 0,-0.6875 -0.515625,-1.140625 -1.3125,-1.140625 -0.625,0 -1.03125,0.234375 -1.390625,0.828125 v -0.703125 z m 0,0"
               id="id-d56bdcca-34cf-4fb7-8e66-717695635dcd"
               style="fill:#4d4d4d;fill-opacity:1;stroke:#000080;stroke-width:0;stroke-opacity:1" />
          </g>
          <g
             transform="translate(169.291,134.765)"
             style="fill:#4d4d4d;fill-opacity:1;stroke:#000080;stroke-width:0;stroke-opacity:1"
             id="g78255">
            <path
               d="M 1.1875,-4.171875 H 0.53125 V 0 H 1.1875 Z m 0,-1.640625 H 0.53125 v 0.84375 H 1.1875 Z m 0,0"
               id="id-4ab24a12-9466-4a02-a4fe-3f4cbbb0e5ff"
               style="fill:#4d4d4d;fill-opacity:1;stroke:#000080;stroke-width:0;stroke-opacity:1" />
          </g>
          <g
             transform="translate(171.06,134.765)"
             style="fill:#4d4d4d;fill-opacity:1;stroke:#000080;stroke-width:0;stroke-opacity:1"
             id="g78258">
            <path
               d="M 0.5625,-4.171875 V 0 h 0.671875 v -2.296875 c 0,-0.859375 0.4375,-1.421875 1.125,-1.421875 0.53125,0 0.859375,0.328125 0.859375,0.828125 V 0 H 3.875 v -3.15625 c 0,-0.6875 -0.515625,-1.140625 -1.3125,-1.140625 -0.625,0 -1.03125,0.234375 -1.390625,0.828125 v -0.703125 z m 0,0"
               id="id-473f6a63-a8f7-4a9b-a0b7-648d0cfe9094"
               style="fill:#4d4d4d;fill-opacity:1;stroke:#000080;stroke-width:0;stroke-opacity:1" />
          </g>
          <g
             transform="translate(175.492,134.765)"
             style="fill:#4d4d4d;fill-opacity:1;stroke:#000080;stroke-width:0;stroke-opacity:1"
             id="g78261">
            <path
               d="M 3.28125,-4.171875 V -3.5625 c -0.328125,-0.5 -0.734375,-0.734375 -1.265625,-0.734375 -1.0625,0 -1.78125,0.921875 -1.78125,2.28125 0,0.6875 0.1875,1.25 0.515625,1.640625 0.3125,0.34375 0.765625,0.5625 1.203125,0.5625 0.53125,0 0.890625,-0.234375 1.265625,-0.75 v 0.21875 c 0,0.5625 -0.078125,0.90625 -0.234375,1.125 C 2.8125,1.03125 2.46875,1.171875 2.0625,1.171875 1.75,1.171875 1.484375,1.09375 1.296875,0.953125 1.140625,0.84375 1.078125,0.71875 1.046875,0.484375 h -0.6875 c 0.078125,0.78125 0.6875,1.25 1.671875,1.25 0.625,0 1.15625,-0.203125 1.421875,-0.53125 0.328125,-0.375 0.4375,-0.90625 0.4375,-1.890625 V -4.171875 Z M 2.078125,-3.6875 c 0.71875,0 1.140625,0.609375 1.140625,1.65625 0,1 -0.4375,1.59375 -1.125,1.59375 -0.734375,0 -1.171875,-0.609375 -1.171875,-1.625 0,-1 0.453125,-1.625 1.15625,-1.625 z m 0,0"
               id="id-67955a6c-d878-422c-9b63-3192a0172a81"
               style="fill:#4d4d4d;fill-opacity:1;stroke:#000080;stroke-width:0;stroke-opacity:1" />
          </g>
        </g>
      </g>
      <g
         transform="matrix(0.352778,0,0,0.352778,65.7547,65.819033)"
         ns10:version="1.8.2"
         ns10:texconverter="pdflatex"
         ns10:pdfconverter="inkscape"
         ns10:text="{\\footnotesize\nMachine\n}"
         ns10:preamble="C:\Users\orincon\Documents\default_packages_inks.tex"
         ns10:scale="1.0"
         ns10:alignment="middle center"
         ns10:stroke-to-path="0"
         ns10:inkscapeversion="1.2.2"
         ns10:jacobian_sqrt="0.352778"
         style="fill:#4d4d4d;fill-opacity:1;stroke:#000080;stroke-width:0;stroke-opacity:1"
         id="g4239-9-2-4-74-6">
        <defs
           id="id-cbe8b00d-6bda-4a4a-bc4d-94fecc2171ba"
           style="fill:#000080;fill-opacity:1;stroke:#000080;stroke-width:0;stroke-opacity:1">
          <g
             id="g34"
             style="fill:#000080;fill-opacity:1;stroke:#000080;stroke-width:0;stroke-opacity:1">
            <g
               id="g26"
               style="fill:#000080;fill-opacity:1;stroke:#000080;stroke-width:0;stroke-opacity:1" />
            <g
               id="g27"
               style="fill:#000080;fill-opacity:1;stroke:#000080;stroke-width:0;stroke-opacity:1">
              <path
                 d="m 3.734375,0 1.625,-4.875 V 0 H 6.0625 V -5.8125 H 5.03125 L 3.34375,-0.75 1.625,-5.8125 H 0.59375 V 0 H 1.296875 V -4.875 L 2.953125,0 Z m 0,0"
                 id="path26"
                 style="fill:#000080;fill-opacity:1;stroke:#000080;stroke-width:0;stroke-opacity:1" />
            </g>
            <g
               id="g28"
               style="fill:#000080;fill-opacity:1;stroke:#000080;stroke-width:0;stroke-opacity:1">
              <path
                 d="M 4.265625,-0.390625 C 4.1875,-0.375 4.15625,-0.375 4.125,-0.375 3.890625,-0.375 3.765625,-0.5 3.765625,-0.703125 V -3.15625 c 0,-0.734375 -0.546875,-1.140625 -1.578125,-1.140625 -0.609375,0 -1.109375,0.171875 -1.375,0.484375 -0.203125,0.21875 -0.28125,0.453125 -0.296875,0.875 H 1.1875 c 0.0625,-0.515625 0.359375,-0.75 0.984375,-0.75 0.59375,0 0.921875,0.234375 0.921875,0.625 v 0.171875 c 0,0.28125 -0.15625,0.40625 -0.6875,0.46875 -0.9375,0.125 -1.078125,0.15625 -1.34375,0.25 -0.484375,0.203125 -0.734375,0.578125 -0.734375,1.125 0,0.75 0.53125,1.234375 1.375,1.234375 0.53125,0 0.953125,-0.1875 1.421875,-0.625 0.046875,0.421875 0.25,0.625 0.6875,0.625 0.125,0 0.234375,-0.015625 0.453125,-0.078125 z M 3.09375,-1.3125 c 0,0.21875 -0.0625,0.359375 -0.25,0.546875 -0.28125,0.234375 -0.609375,0.375 -1,0.375 -0.515625,0 -0.8125,-0.25 -0.8125,-0.671875 0,-0.4375 0.296875,-0.671875 1,-0.765625 0.703125,-0.09375 0.84375,-0.125 1.0625,-0.234375 z m 0,0"
                 id="path27"
                 style="fill:#000080;fill-opacity:1;stroke:#000080;stroke-width:0;stroke-opacity:1" />
            </g>
            <g
               id="g29"
               style="fill:#000080;fill-opacity:1;stroke:#000080;stroke-width:0;stroke-opacity:1">
              <path
                 d="M 3.75,-2.765625 C 3.71875,-3.171875 3.640625,-3.4375 3.46875,-3.671875 3.1875,-4.0625 2.6875,-4.296875 2.109375,-4.296875 c -1.125,0 -1.859375,0.890625 -1.859375,2.28125 0,1.34375 0.71875,2.203125 1.84375,2.203125 1,0 1.625,-0.609375 1.703125,-1.625 H 3.125 c -0.109375,0.671875 -0.453125,1 -1.015625,1 C 1.375,-0.4375 0.9375,-1.03125 0.9375,-2.015625 0.9375,-3.0625 1.375,-3.6875 2.09375,-3.6875 c 0.5625,0 0.90625,0.328125 0.984375,0.921875 z m 0,0"
                 id="path28"
                 style="fill:#000080;fill-opacity:1;stroke:#000080;stroke-width:0;stroke-opacity:1" />
            </g>
            <g
               id="g30"
               style="fill:#000080;fill-opacity:1;stroke:#000080;stroke-width:0;stroke-opacity:1">
              <path
                 d="M 0.5625,-5.8125 V 0 h 0.65625 v -2.296875 c 0,-0.859375 0.453125,-1.421875 1.125,-1.421875 0.21875,0 0.4375,0.078125 0.59375,0.203125 0.1875,0.125 0.28125,0.328125 0.28125,0.625 V 0 H 3.875 v -3.15625 c 0,-0.703125 -0.5,-1.140625 -1.3125,-1.140625 -0.59375,0 -0.953125,0.1875 -1.34375,0.6875 V -5.8125 Z m 0,0"
                 id="path29"
                 style="fill:#000080;fill-opacity:1;stroke:#000080;stroke-width:0;stroke-opacity:1" />
            </g>
            <g
               id="g31"
               style="fill:#000080;fill-opacity:1;stroke:#000080;stroke-width:0;stroke-opacity:1">
              <path
                 d="M 1.1875,-4.171875 H 0.53125 V 0 H 1.1875 Z m 0,-1.640625 H 0.53125 v 0.84375 H 1.1875 Z m 0,0"
                 id="path30"
                 style="fill:#000080;fill-opacity:1;stroke:#000080;stroke-width:0;stroke-opacity:1" />
            </g>
            <g
               id="g32"
               style="fill:#000080;fill-opacity:1;stroke:#000080;stroke-width:0;stroke-opacity:1">
              <path
                 d="M 0.5625,-4.171875 V 0 h 0.671875 v -2.296875 c 0,-0.859375 0.4375,-1.421875 1.125,-1.421875 0.53125,0 0.859375,0.328125 0.859375,0.828125 V 0 H 3.875 v -3.15625 c 0,-0.6875 -0.515625,-1.140625 -1.3125,-1.140625 -0.625,0 -1.03125,0.234375 -1.390625,0.828125 v -0.703125 z m 0,0"
                 id="path31"
                 style="fill:#000080;fill-opacity:1;stroke:#000080;stroke-width:0;stroke-opacity:1" />
            </g>
            <g
               id="g33"
               style="fill:#000080;fill-opacity:1;stroke:#000080;stroke-width:0;stroke-opacity:1">
              <path
                 d="m 4.09375,-1.859375 c 0,-0.640625 -0.046875,-1.03125 -0.171875,-1.34375 -0.265625,-0.671875 -0.90625,-1.09375 -1.6875,-1.09375 -1.171875,0 -1.921875,0.890625 -1.921875,2.265625 0,1.375 0.734375,2.21875 1.90625,2.21875 0.953125,0 1.609375,-0.546875 1.78125,-1.453125 H 3.328125 c -0.1875,0.546875 -0.5625,0.828125 -1.09375,0.828125 -0.421875,0 -0.78125,-0.1875 -1,-0.53125 -0.15625,-0.25 -0.21875,-0.484375 -0.21875,-0.890625 z M 1.03125,-2.40625 c 0.046875,-0.765625 0.515625,-1.28125 1.1875,-1.28125 0.65625,0 1.15625,0.546875 1.15625,1.234375 0,0.015625 0,0.03125 0,0.046875 z m 0,0"
                 id="path32"
                 style="fill:#000080;fill-opacity:1;stroke:#000080;stroke-width:0;stroke-opacity:1" />
            </g>
          </g>
        </defs>
        <g
           fill-opacity="1"
           id="id-d87ac948-8902-4222-9a66-59e39168aea1"
           transform="translate(-149.306,-128.952)"
           style="fill:#4d4d4d;fill-opacity:1;stroke:#000080;stroke-width:0;stroke-opacity:1">
          <g
             transform="translate(148.712,134.765)"
             style="fill:#4d4d4d;fill-opacity:1;stroke:#000080;stroke-width:0;stroke-opacity:1"
             id="g81878">
            <path
               d="m 3.734375,0 1.625,-4.875 V 0 H 6.0625 V -5.8125 H 5.03125 L 3.34375,-0.75 1.625,-5.8125 H 0.59375 V 0 H 1.296875 V -4.875 L 2.953125,0 Z m 0,0"
               id="id-00538b8d-07e0-47b5-bda5-21f16dec0ef8"
               style="fill:#4d4d4d;fill-opacity:1;stroke:#000080;stroke-width:0;stroke-opacity:1" />
          </g>
          <g
             transform="translate(155.351,134.765)"
             style="fill:#4d4d4d;fill-opacity:1;stroke:#000080;stroke-width:0;stroke-opacity:1"
             id="g81881">
            <path
               d="M 4.265625,-0.390625 C 4.1875,-0.375 4.15625,-0.375 4.125,-0.375 3.890625,-0.375 3.765625,-0.5 3.765625,-0.703125 V -3.15625 c 0,-0.734375 -0.546875,-1.140625 -1.578125,-1.140625 -0.609375,0 -1.109375,0.171875 -1.375,0.484375 -0.203125,0.21875 -0.28125,0.453125 -0.296875,0.875 H 1.1875 c 0.0625,-0.515625 0.359375,-0.75 0.984375,-0.75 0.59375,0 0.921875,0.234375 0.921875,0.625 v 0.171875 c 0,0.28125 -0.15625,0.40625 -0.6875,0.46875 -0.9375,0.125 -1.078125,0.15625 -1.34375,0.25 -0.484375,0.203125 -0.734375,0.578125 -0.734375,1.125 0,0.75 0.53125,1.234375 1.375,1.234375 0.53125,0 0.953125,-0.1875 1.421875,-0.625 0.046875,0.421875 0.25,0.625 0.6875,0.625 0.125,0 0.234375,-0.015625 0.453125,-0.078125 z M 3.09375,-1.3125 c 0,0.21875 -0.0625,0.359375 -0.25,0.546875 -0.28125,0.234375 -0.609375,0.375 -1,0.375 -0.515625,0 -0.8125,-0.25 -0.8125,-0.671875 0,-0.4375 0.296875,-0.671875 1,-0.765625 0.703125,-0.09375 0.84375,-0.125 1.0625,-0.234375 z m 0,0"
               id="id-a2e2e639-0f6e-4179-a755-4d79819789e8"
               style="fill:#4d4d4d;fill-opacity:1;stroke:#000080;stroke-width:0;stroke-opacity:1" />
          </g>
          <g
             transform="translate(159.782,134.765)"
             style="fill:#4d4d4d;fill-opacity:1;stroke:#000080;stroke-width:0;stroke-opacity:1"
             id="g81884">
            <path
               d="M 3.75,-2.765625 C 3.71875,-3.171875 3.640625,-3.4375 3.46875,-3.671875 3.1875,-4.0625 2.6875,-4.296875 2.109375,-4.296875 c -1.125,0 -1.859375,0.890625 -1.859375,2.28125 0,1.34375 0.71875,2.203125 1.84375,2.203125 1,0 1.625,-0.609375 1.703125,-1.625 H 3.125 c -0.109375,0.671875 -0.453125,1 -1.015625,1 C 1.375,-0.4375 0.9375,-1.03125 0.9375,-2.015625 0.9375,-3.0625 1.375,-3.6875 2.09375,-3.6875 c 0.5625,0 0.90625,0.328125 0.984375,0.921875 z m 0,0"
               id="id-ebbaa05b-6da9-4c0b-9a46-7bf9ad1473b3"
               style="fill:#4d4d4d;fill-opacity:1;stroke:#000080;stroke-width:0;stroke-opacity:1" />
          </g>
          <g
             transform="translate(163.768,134.765)"
             style="fill:#4d4d4d;fill-opacity:1;stroke:#000080;stroke-width:0;stroke-opacity:1"
             id="g81887">
            <path
               d="M 0.5625,-5.8125 V 0 h 0.65625 v -2.296875 c 0,-0.859375 0.453125,-1.421875 1.125,-1.421875 0.21875,0 0.4375,0.078125 0.59375,0.203125 0.1875,0.125 0.28125,0.328125 0.28125,0.625 V 0 H 3.875 v -3.15625 c 0,-0.703125 -0.5,-1.140625 -1.3125,-1.140625 -0.59375,0 -0.953125,0.1875 -1.34375,0.6875 V -5.8125 Z m 0,0"
               id="id-7f803b82-13a4-426b-bfd3-3da81c7a9277"
               style="fill:#4d4d4d;fill-opacity:1;stroke:#000080;stroke-width:0;stroke-opacity:1" />
          </g>
          <g
             transform="translate(168.199,134.765)"
             style="fill:#4d4d4d;fill-opacity:1;stroke:#000080;stroke-width:0;stroke-opacity:1"
             id="g81890">
            <path
               d="M 1.1875,-4.171875 H 0.53125 V 0 H 1.1875 Z m 0,-1.640625 H 0.53125 v 0.84375 H 1.1875 Z m 0,0"
               id="id-095ef201-2b87-4f87-9806-8d4e4f79a65b"
               style="fill:#4d4d4d;fill-opacity:1;stroke:#000080;stroke-width:0;stroke-opacity:1" />
          </g>
          <g
             transform="translate(169.968,134.765)"
             style="fill:#4d4d4d;fill-opacity:1;stroke:#000080;stroke-width:0;stroke-opacity:1"
             id="g81893">
            <path
               d="M 0.5625,-4.171875 V 0 h 0.671875 v -2.296875 c 0,-0.859375 0.4375,-1.421875 1.125,-1.421875 0.53125,0 0.859375,0.328125 0.859375,0.828125 V 0 H 3.875 v -3.15625 c 0,-0.6875 -0.515625,-1.140625 -1.3125,-1.140625 -0.625,0 -1.03125,0.234375 -1.390625,0.828125 v -0.703125 z m 0,0"
               id="id-c43b16bb-c376-402f-9aa5-b14ffdefe960"
               style="fill:#4d4d4d;fill-opacity:1;stroke:#000080;stroke-width:0;stroke-opacity:1" />
          </g>
          <g
             transform="translate(174.4,134.765)"
             style="fill:#4d4d4d;fill-opacity:1;stroke:#000080;stroke-width:0;stroke-opacity:1"
             id="g81896">
            <path
               d="m 4.09375,-1.859375 c 0,-0.640625 -0.046875,-1.03125 -0.171875,-1.34375 -0.265625,-0.671875 -0.90625,-1.09375 -1.6875,-1.09375 -1.171875,0 -1.921875,0.890625 -1.921875,2.265625 0,1.375 0.734375,2.21875 1.90625,2.21875 0.953125,0 1.609375,-0.546875 1.78125,-1.453125 H 3.328125 c -0.1875,0.546875 -0.5625,0.828125 -1.09375,0.828125 -0.421875,0 -0.78125,-0.1875 -1,-0.53125 -0.15625,-0.25 -0.21875,-0.484375 -0.21875,-0.890625 z M 1.03125,-2.40625 c 0.046875,-0.765625 0.515625,-1.28125 1.1875,-1.28125 0.65625,0 1.15625,0.546875 1.15625,1.234375 0,0.015625 0,0.03125 0,0.046875 z m 0,0"
               id="id-0ae201e6-3767-4edc-be95-f8a2d209092d"
               style="fill:#4d4d4d;fill-opacity:1;stroke:#000080;stroke-width:0;stroke-opacity:1" />
          </g>
        </g>
      </g>
    </g>
    <g
       transform="matrix(0.352778,0,0,0.352778,109.8587,102.85415)"
       ns10:version="1.8.2"
       ns10:texconverter="pdflatex"
       ns10:pdfconverter="inkscape"
       ns10:text="{\\footnotesize\nSeismology\n}"
       ns10:preamble="C:\Users\orincon\Documents\default_packages_inks.tex"
       ns10:scale="1.0"
       ns10:alignment="middle center"
       ns10:stroke-to-path="0"
       ns10:inkscapeversion="1.2.2"
       ns10:jacobian_sqrt="0.352778"
       style="fill:#000080;fill-opacity:1;stroke:#000049;stroke-width:0;stroke-opacity:1"
       id="g4239-9-2-4-74-6-2">
      <defs
         id="id-2ab9f323-8770-44a7-b97e-0721410609be"
         style="fill:#000080;fill-opacity:1;stroke:#000080;stroke-width:0;stroke-opacity:1">
        <g
           id="g45"
           style="fill:#000080;fill-opacity:1;stroke:#000080;stroke-width:0;stroke-opacity:1">
          <g
             id="g35"
             style="fill:#000080;fill-opacity:1;stroke:#000080;stroke-width:0;stroke-opacity:1" />
          <g
             id="g36"
             style="fill:#000080;fill-opacity:1;stroke:#000080;stroke-width:0;stroke-opacity:1">
            <path
               d="M 4.75,-4.109375 C 4.734375,-5.25 3.953125,-5.90625 2.625,-5.90625 c -1.28125,0 -2.0625,0.65625 -2.0625,1.703125 0,0.71875 0.375,1.15625 1.140625,1.359375 l 1.4375,0.375 c 0.734375,0.203125 1.0625,0.5 1.0625,0.953125 0,0.296875 -0.15625,0.625 -0.40625,0.796875 -0.234375,0.15625 -0.59375,0.25 -1.078125,0.25 -0.625,0 -1.046875,-0.15625 -1.328125,-0.484375 -0.21875,-0.265625 -0.3125,-0.53125 -0.3125,-0.890625 H 0.375 C 0.390625,-1.3125 0.5,-0.96875 0.71875,-0.640625 1.125,-0.109375 1.796875,0.1875 2.671875,0.1875 3.375,0.1875 3.9375,0.03125 4.3125,-0.265625 4.703125,-0.578125 4.953125,-1.09375 4.953125,-1.59375 4.953125,-2.3125 4.5,-2.84375 3.71875,-3.046875 L 2.25,-3.4375 C 1.546875,-3.640625 1.296875,-3.859375 1.296875,-4.296875 c 0,-0.59375 0.515625,-0.984375 1.296875,-0.984375 0.921875,0 1.453125,0.421875 1.453125,1.171875 z m 0,0"
               id="path35"
               style="fill:#000080;fill-opacity:1;stroke:#000080;stroke-width:0;stroke-opacity:1" />
          </g>
          <g
             id="g37"
             style="fill:#000080;fill-opacity:1;stroke:#000080;stroke-width:0;stroke-opacity:1">
            <path
               d="m 4.09375,-1.859375 c 0,-0.640625 -0.046875,-1.03125 -0.171875,-1.34375 -0.265625,-0.671875 -0.90625,-1.09375 -1.6875,-1.09375 -1.171875,0 -1.921875,0.890625 -1.921875,2.265625 0,1.375 0.734375,2.21875 1.90625,2.21875 0.953125,0 1.609375,-0.546875 1.78125,-1.453125 H 3.328125 c -0.1875,0.546875 -0.5625,0.828125 -1.09375,0.828125 -0.421875,0 -0.78125,-0.1875 -1,-0.53125 -0.15625,-0.25 -0.21875,-0.484375 -0.21875,-0.890625 z M 1.03125,-2.40625 c 0.046875,-0.765625 0.515625,-1.28125 1.1875,-1.28125 0.65625,0 1.15625,0.546875 1.15625,1.234375 0,0.015625 0,0.03125 0,0.046875 z m 0,0"
               id="path36"
               style="fill:#000080;fill-opacity:1;stroke:#000080;stroke-width:0;stroke-opacity:1" />
          </g>
          <g
             id="g38"
             style="fill:#000080;fill-opacity:1;stroke:#000080;stroke-width:0;stroke-opacity:1">
            <path
               d="M 1.1875,-4.171875 H 0.53125 V 0 H 1.1875 Z m 0,-1.640625 H 0.53125 v 0.84375 H 1.1875 Z m 0,0"
               id="path37"
               style="fill:#000080;fill-opacity:1;stroke:#000080;stroke-width:0;stroke-opacity:1" />
          </g>
          <g
             id="g39"
             style="fill:#000080;fill-opacity:1;stroke:#000080;stroke-width:0;stroke-opacity:1">
            <path
               d="m 3.484375,-3.015625 c 0,-0.8125 -0.546875,-1.28125 -1.515625,-1.28125 -0.96875,0 -1.59375,0.5 -1.59375,1.28125 0,0.65625 0.328125,0.953125 1.328125,1.203125 L 2.3125,-1.671875 c 0.46875,0.125 0.65625,0.28125 0.65625,0.59375 0,0.390625 -0.390625,0.640625 -0.984375,0.640625 -0.34375,0 -0.65625,-0.09375 -0.828125,-0.265625 -0.09375,-0.125 -0.140625,-0.25 -0.1875,-0.546875 H 0.265625 c 0.03125,0.96875 0.578125,1.4375 1.671875,1.4375 1.046875,0 1.71875,-0.515625 1.71875,-1.328125 0,-0.625 -0.34375,-0.96875 -1.171875,-1.15625 L 1.84375,-2.453125 C 1.296875,-2.578125 1.0625,-2.75 1.0625,-3.046875 1.0625,-3.4375 1.40625,-3.6875 1.953125,-3.6875 c 0.53125,0 0.8125,0.234375 0.828125,0.671875 z m 0,0"
               id="path38"
               style="fill:#000080;fill-opacity:1;stroke:#000080;stroke-width:0;stroke-opacity:1" />
          </g>
          <g
             id="g40"
             style="fill:#000080;fill-opacity:1;stroke:#000080;stroke-width:0;stroke-opacity:1">
            <path
               d="M 0.5625,-4.171875 V 0 h 0.671875 v -2.625 c 0,-0.609375 0.4375,-1.09375 0.96875,-1.09375 0.5,0 0.78125,0.3125 0.78125,0.84375 V 0 H 3.65625 v -2.625 c 0,-0.609375 0.4375,-1.09375 0.96875,-1.09375 0.484375,0 0.78125,0.3125 0.78125,0.84375 V 0 h 0.671875 v -3.125 c 0,-0.75 -0.4375,-1.171875 -1.21875,-1.171875 -0.5625,0 -0.890625,0.171875 -1.28125,0.640625 -0.25,-0.453125 -0.578125,-0.640625 -1.125,-0.640625 -0.5625,0 -0.921875,0.203125 -1.28125,0.71875 v -0.59375 z m 0,0"
               id="path39"
               style="fill:#000080;fill-opacity:1;stroke:#000080;stroke-width:0;stroke-opacity:1" />
          </g>
          <g
             id="g41"
             style="fill:#000080;fill-opacity:1;stroke:#000080;stroke-width:0;stroke-opacity:1">
            <path
               d="M 2.171875,-4.296875 C 1,-4.296875 0.28125,-3.453125 0.28125,-2.0625 c 0,1.40625 0.703125,2.25 1.890625,2.25 1.171875,0 1.890625,-0.84375 1.890625,-2.21875 0,-1.4375 -0.6875,-2.265625 -1.890625,-2.265625 z m 0,0.609375 c 0.75,0 1.203125,0.625 1.203125,1.65625 0,0.984375 -0.46875,1.59375 -1.203125,1.59375 -0.734375,0 -1.1875,-0.609375 -1.1875,-1.625 0,-1 0.453125,-1.625 1.1875,-1.625 z m 0,0"
               id="path40"
               style="fill:#000080;fill-opacity:1;stroke:#000080;stroke-width:0;stroke-opacity:1" />
          </g>
          <g
             id="g42"
             style="fill:#000080;fill-opacity:1;stroke:#000080;stroke-width:0;stroke-opacity:1">
            <path
               d="M 1.21875,-5.8125 H 0.546875 V 0 H 1.21875 Z m 0,0"
               id="path41"
               style="fill:#000080;fill-opacity:1;stroke:#000080;stroke-width:0;stroke-opacity:1" />
          </g>
          <g
             id="g43"
             style="fill:#000080;fill-opacity:1;stroke:#000080;stroke-width:0;stroke-opacity:1">
            <path
               d="M 3.28125,-4.171875 V -3.5625 c -0.328125,-0.5 -0.734375,-0.734375 -1.265625,-0.734375 -1.0625,0 -1.78125,0.921875 -1.78125,2.28125 0,0.6875 0.1875,1.25 0.515625,1.640625 0.3125,0.34375 0.765625,0.5625 1.203125,0.5625 0.53125,0 0.890625,-0.234375 1.265625,-0.75 v 0.21875 c 0,0.5625 -0.078125,0.90625 -0.234375,1.125 C 2.8125,1.03125 2.46875,1.171875 2.0625,1.171875 1.75,1.171875 1.484375,1.09375 1.296875,0.953125 1.140625,0.84375 1.078125,0.71875 1.046875,0.484375 h -0.6875 c 0.078125,0.78125 0.6875,1.25 1.671875,1.25 0.625,0 1.15625,-0.203125 1.421875,-0.53125 0.328125,-0.375 0.4375,-0.90625 0.4375,-1.890625 V -4.171875 Z M 2.078125,-3.6875 c 0.71875,0 1.140625,0.609375 1.140625,1.65625 0,1 -0.4375,1.59375 -1.125,1.59375 -0.734375,0 -1.171875,-0.609375 -1.171875,-1.625 0,-1 0.453125,-1.625 1.15625,-1.625 z m 0,0"
               id="path42"
               style="fill:#000080;fill-opacity:1;stroke:#000080;stroke-width:0;stroke-opacity:1" />
          </g>
          <g
             id="g44"
             style="fill:#000080;fill-opacity:1;stroke:#000080;stroke-width:0;stroke-opacity:1">
            <path
               d="m 3.09375,-4.171875 -1.15625,3.25 -1.0625,-3.25 H 0.15625 l 1.40625,4.1875 -0.25,0.65625 C 1.21875,0.96875 1.0625,1.078125 0.78125,1.078125 0.6875,1.078125 0.578125,1.0625 0.4375,1.03125 v 0.609375 c 0.125,0.0625 0.265625,0.09375 0.4375,0.09375 0.21875,0 0.453125,-0.0625 0.625,-0.203125 C 1.703125,1.390625 1.828125,1.21875 1.953125,0.875 L 3.8125,-4.171875 Z m 0,0"
               id="path43"
               style="fill:#000080;fill-opacity:1;stroke:#000080;stroke-width:0;stroke-opacity:1" />
          </g>
        </g>
      </defs>
      <g
         fill-opacity="1"
         id="id-08ccaf9a-5d97-40c5-b9ba-842d2381f1a8"
         transform="translate(-149.087,-128.859)"
         style="fill:#000080;fill-opacity:1;stroke:#000049;stroke-width:0;stroke-opacity:1">
        <g
           transform="translate(148.712,134.765)"
           style="fill:#000080;fill-opacity:1;stroke:#000049;stroke-width:0;stroke-opacity:1"
           id="g4402">
          <path
             d="M 4.75,-4.109375 C 4.734375,-5.25 3.953125,-5.90625 2.625,-5.90625 c -1.28125,0 -2.0625,0.65625 -2.0625,1.703125 0,0.71875 0.375,1.15625 1.140625,1.359375 l 1.4375,0.375 c 0.734375,0.203125 1.0625,0.5 1.0625,0.953125 0,0.296875 -0.15625,0.625 -0.40625,0.796875 -0.234375,0.15625 -0.59375,0.25 -1.078125,0.25 -0.625,0 -1.046875,-0.15625 -1.328125,-0.484375 -0.21875,-0.265625 -0.3125,-0.53125 -0.3125,-0.890625 H 0.375 C 0.390625,-1.3125 0.5,-0.96875 0.71875,-0.640625 1.125,-0.109375 1.796875,0.1875 2.671875,0.1875 3.375,0.1875 3.9375,0.03125 4.3125,-0.265625 4.703125,-0.578125 4.953125,-1.09375 4.953125,-1.59375 4.953125,-2.3125 4.5,-2.84375 3.71875,-3.046875 L 2.25,-3.4375 C 1.546875,-3.640625 1.296875,-3.859375 1.296875,-4.296875 c 0,-0.59375 0.515625,-0.984375 1.296875,-0.984375 0.921875,0 1.453125,0.421875 1.453125,1.171875 z m 0,0"
             id="id-35fbaacf-d080-4da6-9b86-adb385441f89"
             style="fill:#000080;fill-opacity:1;stroke:#000049;stroke-width:0;stroke-opacity:1" />
        </g>
        <g
           transform="translate(154.028,134.765)"
           style="fill:#000080;fill-opacity:1;stroke:#000049;stroke-width:0;stroke-opacity:1"
           id="g4405">
          <path
             d="m 4.09375,-1.859375 c 0,-0.640625 -0.046875,-1.03125 -0.171875,-1.34375 -0.265625,-0.671875 -0.90625,-1.09375 -1.6875,-1.09375 -1.171875,0 -1.921875,0.890625 -1.921875,2.265625 0,1.375 0.734375,2.21875 1.90625,2.21875 0.953125,0 1.609375,-0.546875 1.78125,-1.453125 H 3.328125 c -0.1875,0.546875 -0.5625,0.828125 -1.09375,0.828125 -0.421875,0 -0.78125,-0.1875 -1,-0.53125 -0.15625,-0.25 -0.21875,-0.484375 -0.21875,-0.890625 z M 1.03125,-2.40625 c 0.046875,-0.765625 0.515625,-1.28125 1.1875,-1.28125 0.65625,0 1.15625,0.546875 1.15625,1.234375 0,0.015625 0,0.03125 0,0.046875 z m 0,0"
             id="id-004e2690-f8b5-4150-8781-a886a90fd207"
             style="fill:#000080;fill-opacity:1;stroke:#000049;stroke-width:0;stroke-opacity:1" />
        </g>
        <g
           transform="translate(158.459,134.765)"
           style="fill:#000080;fill-opacity:1;stroke:#000049;stroke-width:0;stroke-opacity:1"
           id="g4408">
          <path
             d="M 1.1875,-4.171875 H 0.53125 V 0 H 1.1875 Z m 0,-1.640625 H 0.53125 v 0.84375 H 1.1875 Z m 0,0"
             id="id-7c5a4964-946a-421b-9171-249c532c36cd"
             style="fill:#000080;fill-opacity:1;stroke:#000049;stroke-width:0;stroke-opacity:1" />
        </g>
        <g
           transform="translate(160.229,134.765)"
           style="fill:#000080;fill-opacity:1;stroke:#000049;stroke-width:0;stroke-opacity:1"
           id="g4411">
          <path
             d="m 3.484375,-3.015625 c 0,-0.8125 -0.546875,-1.28125 -1.515625,-1.28125 -0.96875,0 -1.59375,0.5 -1.59375,1.28125 0,0.65625 0.328125,0.953125 1.328125,1.203125 L 2.3125,-1.671875 c 0.46875,0.125 0.65625,0.28125 0.65625,0.59375 0,0.390625 -0.390625,0.640625 -0.984375,0.640625 -0.34375,0 -0.65625,-0.09375 -0.828125,-0.265625 -0.09375,-0.125 -0.140625,-0.25 -0.1875,-0.546875 H 0.265625 c 0.03125,0.96875 0.578125,1.4375 1.671875,1.4375 1.046875,0 1.71875,-0.515625 1.71875,-1.328125 0,-0.625 -0.34375,-0.96875 -1.171875,-1.15625 L 1.84375,-2.453125 C 1.296875,-2.578125 1.0625,-2.75 1.0625,-3.046875 1.0625,-3.4375 1.40625,-3.6875 1.953125,-3.6875 c 0.53125,0 0.8125,0.234375 0.828125,0.671875 z m 0,0"
             id="id-751e6f96-1a6c-4e32-acd2-c77fdfeeb5d9"
             style="fill:#000080;fill-opacity:1;stroke:#000049;stroke-width:0;stroke-opacity:1" />
        </g>
        <g
           transform="translate(164.214,134.765)"
           style="fill:#000080;fill-opacity:1;stroke:#000049;stroke-width:0;stroke-opacity:1"
           id="g4414">
          <path
             d="M 0.5625,-4.171875 V 0 h 0.671875 v -2.625 c 0,-0.609375 0.4375,-1.09375 0.96875,-1.09375 0.5,0 0.78125,0.3125 0.78125,0.84375 V 0 H 3.65625 v -2.625 c 0,-0.609375 0.4375,-1.09375 0.96875,-1.09375 0.484375,0 0.78125,0.3125 0.78125,0.84375 V 0 h 0.671875 v -3.125 c 0,-0.75 -0.4375,-1.171875 -1.21875,-1.171875 -0.5625,0 -0.890625,0.171875 -1.28125,0.640625 -0.25,-0.453125 -0.578125,-0.640625 -1.125,-0.640625 -0.5625,0 -0.921875,0.203125 -1.28125,0.71875 v -0.59375 z m 0,0"
             id="id-92c39b6c-e6ec-4790-8e5b-86d108ec2398"
             style="fill:#000080;fill-opacity:1;stroke:#000049;stroke-width:0;stroke-opacity:1" />
        </g>
        <g
           transform="translate(170.853,134.765)"
           style="fill:#000080;fill-opacity:1;stroke:#000049;stroke-width:0;stroke-opacity:1"
           id="g4417">
          <path
             d="M 2.171875,-4.296875 C 1,-4.296875 0.28125,-3.453125 0.28125,-2.0625 c 0,1.40625 0.703125,2.25 1.890625,2.25 1.171875,0 1.890625,-0.84375 1.890625,-2.21875 0,-1.4375 -0.6875,-2.265625 -1.890625,-2.265625 z m 0,0.609375 c 0.75,0 1.203125,0.625 1.203125,1.65625 0,0.984375 -0.46875,1.59375 -1.203125,1.59375 -0.734375,0 -1.1875,-0.609375 -1.1875,-1.625 0,-1 0.453125,-1.625 1.1875,-1.625 z m 0,0"
             id="id-49fd30dd-1ed1-4d79-aa0e-e9c2048c650e"
             style="fill:#000080;fill-opacity:1;stroke:#000049;stroke-width:0;stroke-opacity:1" />
        </g>
        <g
           transform="translate(175.284,134.765)"
           style="fill:#000080;fill-opacity:1;stroke:#000049;stroke-width:0;stroke-opacity:1"
           id="g4420">
          <path
             d="M 1.21875,-5.8125 H 0.546875 V 0 H 1.21875 Z m 0,0"
             id="id-113dffbf-5ec1-4703-85f4-2f5184cd5500"
             style="fill:#000080;fill-opacity:1;stroke:#000049;stroke-width:0;stroke-opacity:1" />
        </g>
        <g
           transform="translate(177.054,134.765)"
           style="fill:#000080;fill-opacity:1;stroke:#000049;stroke-width:0;stroke-opacity:1"
           id="g4423">
          <path
             d="M 2.171875,-4.296875 C 1,-4.296875 0.28125,-3.453125 0.28125,-2.0625 c 0,1.40625 0.703125,2.25 1.890625,2.25 1.171875,0 1.890625,-0.84375 1.890625,-2.21875 0,-1.4375 -0.6875,-2.265625 -1.890625,-2.265625 z m 0,0.609375 c 0.75,0 1.203125,0.625 1.203125,1.65625 0,0.984375 -0.46875,1.59375 -1.203125,1.59375 -0.734375,0 -1.1875,-0.609375 -1.1875,-1.625 0,-1 0.453125,-1.625 1.1875,-1.625 z m 0,0"
             id="id-cdb5622e-1d97-44bd-8754-ea9d06f04ac6"
             style="fill:#000080;fill-opacity:1;stroke:#000049;stroke-width:0;stroke-opacity:1" />
        </g>
        <g
           transform="translate(181.485,134.765)"
           style="fill:#000080;fill-opacity:1;stroke:#000049;stroke-width:0;stroke-opacity:1"
           id="g4426">
          <path
             d="M 3.28125,-4.171875 V -3.5625 c -0.328125,-0.5 -0.734375,-0.734375 -1.265625,-0.734375 -1.0625,0 -1.78125,0.921875 -1.78125,2.28125 0,0.6875 0.1875,1.25 0.515625,1.640625 0.3125,0.34375 0.765625,0.5625 1.203125,0.5625 0.53125,0 0.890625,-0.234375 1.265625,-0.75 v 0.21875 c 0,0.5625 -0.078125,0.90625 -0.234375,1.125 C 2.8125,1.03125 2.46875,1.171875 2.0625,1.171875 1.75,1.171875 1.484375,1.09375 1.296875,0.953125 1.140625,0.84375 1.078125,0.71875 1.046875,0.484375 h -0.6875 c 0.078125,0.78125 0.6875,1.25 1.671875,1.25 0.625,0 1.15625,-0.203125 1.421875,-0.53125 0.328125,-0.375 0.4375,-0.90625 0.4375,-1.890625 V -4.171875 Z M 2.078125,-3.6875 c 0.71875,0 1.140625,0.609375 1.140625,1.65625 0,1 -0.4375,1.59375 -1.125,1.59375 -0.734375,0 -1.171875,-0.609375 -1.171875,-1.625 0,-1 0.453125,-1.625 1.15625,-1.625 z m 0,0"
             id="id-6cf6d069-2227-48e4-92b5-25f18263e16f"
             style="fill:#000080;fill-opacity:1;stroke:#000049;stroke-width:0;stroke-opacity:1" />
        </g>
        <g
           transform="translate(185.916,134.765)"
           style="fill:#000080;fill-opacity:1;stroke:#000049;stroke-width:0;stroke-opacity:1"
           id="g4429">
          <path
             d="m 3.09375,-4.171875 -1.15625,3.25 -1.0625,-3.25 H 0.15625 l 1.40625,4.1875 -0.25,0.65625 C 1.21875,0.96875 1.0625,1.078125 0.78125,1.078125 0.6875,1.078125 0.578125,1.0625 0.4375,1.03125 v 0.609375 c 0.125,0.0625 0.265625,0.09375 0.4375,0.09375 0.21875,0 0.453125,-0.0625 0.625,-0.203125 C 1.703125,1.390625 1.828125,1.21875 1.953125,0.875 L 3.8125,-4.171875 Z m 0,0"
             id="id-4b694671-00ac-4f47-b255-aacb0e6b8943"
             style="fill:#000080;fill-opacity:1;stroke:#000049;stroke-width:0;stroke-opacity:1" />
        </g>
      </g>
    </g>
    <g
       transform="matrix(0.30500667,0,0,0.30500667,92.198201,71.365053)"
       ns10:version="1.10.2"
       ns10:texconverter="xelatex"
       ns10:pdfconverter="inkscape"
       ns10:text="{\\begin{center}\nWave \\\\\n\\vspace{-0.3em} % ajusta el valor seg\xfan lo necesites\nPropagation\n\\end{center}\n}"
       ns10:preamble="C:\Users\oscar\AppData\Roaming\inkscape\extensions\textext\default_packages.tex"
       ns10:scale="1.0"
       ns10:alignment="middle center"
       ns10:stroke-to-path="0"
       ns10:jacobian_sqrt="0.352778"
       style="fill:#4d4d4d;stroke-width:0"
       id="g136">
      <defs
         id="id-7d758107-1a62-43fa-9c5b-9bc203ec7fbd"
         style="fill:#4d4d4d;stroke-width:0">
        <g
           id="id-435b1a9b-3265-486b-a06e-02b9f03eec4c"
           style="fill:#4d4d4d;stroke-width:0">
          <g
             id="id-f8dfab59-d10b-4643-8246-e6db300f09ae"
             style="fill:#4d4d4d;stroke-width:0">
            <path
               d="m 9.265625,-6.921875 h -0.71875 l -0.90625,3.140625 c -0.265625,0.875 -0.75,2.5625 -0.796875,3.0625 0,0 -0.0625,-0.53125 -0.71875,-2.796875 L 5.140625,-6.921875 H 4.34375 L 3.4375,-3.8125 C 3.21875,-3.046875 2.71875,-1.296875 2.671875,-0.734375 H 2.65625 C 2.625,-1.140625 2.359375,-2.109375 2.265625,-2.4375 L 1.796875,-4.109375 1,-6.921875 H 0.140625 L 2.15625,0 h 0.8125 l 1,-3.453125 C 4.171875,-4.1875 4.609375,-5.671875 4.671875,-6.1875 4.71875,-5.890625 4.953125,-4.9375 5.21875,-4 L 6.375,0 h 0.859375 z m 0,0"
               id="id-1f22b0b3-5eaa-40fd-8885-92f34e4849ae"
               style="fill:#4d4d4d;stroke-width:0" />
          </g>
          <g
             id="id-87dc1305-61cf-48e1-ae45-8edc86e764df"
             style="fill:#4d4d4d;stroke-width:0">
            <path
               d="m 4.078125,0 v -2.875 c 0,-1.015625 -0.734375,-1.71875 -1.640625,-1.71875 -0.65625,0 -1.109375,0.15625 -1.5625,0.421875 l 0.046875,0.65625 C 1.453125,-3.875 1.9375,-4 2.4375,-4 c 0.46875,0 0.859375,0.390625 0.859375,1.125 v 0.4375 C 1.796875,-2.421875 0.53125,-2 0.53125,-1.125 c 0,0.421875 0.28125,1.234375 1.140625,1.234375 0.140625,0 1.078125,-0.015625 1.65625,-0.46875 V 0 Z m -0.78125,-1.3125 c 0,0.1875 0,0.4375 -0.34375,0.625 C 2.671875,-0.515625 2.296875,-0.5 2.1875,-0.5 1.703125,-0.5 1.25,-0.734375 1.25,-1.140625 1.25,-1.84375 2.875,-1.90625 3.296875,-1.9375 Z m 0,0"
               id="id-6f9bed77-de1c-4fb1-b2c1-84ac2fdca454"
               style="fill:#4d4d4d;stroke-width:0" />
          </g>
          <g
             id="id-08857c37-b4c1-445f-abd1-1f552308e553"
             style="fill:#4d4d4d;stroke-width:0">
            <path
               d="m 4.453125,-4.421875 h -0.75 l -0.796875,2.0625 C 2.703125,-1.796875 2.390625,-1 2.3125,-0.53125 H 2.296875 C 2.25,-0.890625 1.984375,-1.578125 1.890625,-1.84375 L 0.921875,-4.421875 H 0.140625 L 1.859375,0 h 0.875 z m 0,0"
               id="id-74e29fdb-4b32-4b15-ac43-d4296f1b3bf3"
               style="fill:#4d4d4d;stroke-width:0" />
          </g>
          <g
             id="id-c5cdbe9d-536e-41e3-8796-d5def8c34826"
             style="fill:#4d4d4d;stroke-width:0">
            <path
               d="M 4.125,-2.1875 C 4.125,-2.515625 4.109375,-3.265625 3.734375,-3.875 3.3125,-4.484375 2.71875,-4.59375 2.359375,-4.59375 1.25,-4.59375 0.34375,-3.53125 0.34375,-2.25 c 0,1.3125 0.96875,2.359375 2.15625,2.359375 0.625,0 1.203125,-0.234375 1.59375,-0.515625 L 4.03125,-1.0625 C 3.40625,-0.53125 2.734375,-0.5 2.515625,-0.5 1.71875,-0.5 1.078125,-1.203125 1.046875,-2.1875 Z M 3.5625,-2.734375 H 1.09375 c 0.15625,-0.75 0.6875,-1.25 1.265625,-1.25 0.515625,0 1.0625,0.328125 1.203125,1.25 z m 0,0"
               id="id-0fae140b-88c6-4afd-81d5-183b2f20af62"
               style="fill:#4d4d4d;stroke-width:0" />
          </g>
          <g
             id="id-4b7127ac-3a6c-43f0-9d7e-6d91feff24ed"
             style="fill:#4d4d4d;stroke-width:0">
            <path
               d="m 5.796875,-4.90625 c 0,-1.0625 -0.984375,-2.015625 -2.359375,-2.015625 H 0.953125 V 0 H 1.84375 v -2.875 h 1.671875 c 1.234375,0 2.28125,-0.90625 2.28125,-2.03125 z M 5,-4.90625 c 0,0.796875 -0.640625,1.453125 -1.78125,1.453125 H 1.8125 v -2.90625 H 3.21875 C 4.3125,-6.359375 5,-5.75 5,-4.90625 Z m 0,0"
               id="id-a9cdf4c6-5c4d-4f75-a72a-8d3ab140e2cd"
               style="fill:#4d4d4d;stroke-width:0" />
          </g>
          <g
             id="id-0bf78458-2a2b-4c95-9666-f995af808c72"
             style="fill:#4d4d4d;stroke-width:0">
            <path
               d="m 3.265625,-3.875 v -0.65625 c -0.890625,0 -1.4375,0.5 -1.75,0.953125 v -0.90625 H 0.8125 V 0 h 0.75 V -2.140625 C 1.5625,-3.125 2.28125,-3.84375 3.265625,-3.875 Z m 0,0"
               id="id-3e0b32e4-c966-4934-a469-3a0972a450ca"
               style="fill:#4d4d4d;stroke-width:0" />
          </g>
          <g
             id="id-41e11dfb-aa53-41ae-89a7-165edd04cb98"
             style="fill:#4d4d4d;stroke-width:0">
            <path
               d="m 4.671875,-2.1875 c 0,-1.34375 -1,-2.40625 -2.171875,-2.40625 -1.234375,0 -2.203125,1.09375 -2.203125,2.40625 0,1.3125 1.015625,2.296875 2.1875,2.296875 1.1875,0 2.1875,-1 2.1875,-2.296875 z m -0.78125,-0.109375 c 0,1.1875 -0.671875,1.765625 -1.40625,1.765625 -0.6875,0 -1.40625,-0.5625 -1.40625,-1.765625 0,-1.203125 0.75,-1.6875 1.40625,-1.6875 0.703125,0 1.40625,0.515625 1.40625,1.6875 z m 0,0"
               id="id-c38724ac-fe13-4ad5-95b8-2b0a00c03739"
               style="fill:#4d4d4d;stroke-width:0" />
          </g>
          <g
             id="id-eec9deae-def4-4603-87b8-e0c9f748ce2a"
             style="fill:#4d4d4d;stroke-width:0">
            <path
               d="m 4.78125,-2.21875 c 0,-1.203125 -0.625,-2.3125 -1.578125,-2.3125 -0.59375,0 -1.171875,0.203125 -1.640625,0.59375 v -0.484375 h -0.75 V 1.9375 h 0.78125 v -2.390625 c 0.3125,0.28125 0.75,0.5625 1.34375,0.5625 0.96875,0 1.84375,-0.984375 1.84375,-2.328125 z M 4,-2.21875 C 4,-1.203125 3.296875,-0.5 2.546875,-0.5 2.15625,-0.5 1.890625,-0.703125 1.6875,-0.96875 1.59375,-1.109375 1.59375,-1.140625 1.59375,-1.3125 v -2 c 0.234375,-0.359375 0.625,-0.578125 1.0625,-0.578125 0.75,0 1.34375,0.75 1.34375,1.671875 z m 0,0"
               id="id-7ee5f498-4a08-4958-ac36-8402064fcc0b"
               style="fill:#4d4d4d;stroke-width:0" />
          </g>
          <g
             id="id-0ef0c84f-1af3-40fd-8f18-418618604ee4"
             style="fill:#4d4d4d;stroke-width:0">
            <path
               d="m 4.828125,-3.90625 -0.109375,-0.625 c -0.6875,0 -1.265625,0.1875 -1.5625,0.3125 -0.21875,-0.171875 -0.546875,-0.3125 -0.953125,-0.3125 -0.859375,0 -1.578125,0.71875 -1.578125,1.625 0,0.359375 0.125,0.71875 0.328125,0.984375 C 0.65625,-1.515625 0.65625,-1.125 0.65625,-1.078125 0.65625,-0.8125 0.75,-0.53125 0.921875,-0.3125 0.40625,-0.015625 0.28125,0.453125 0.28125,0.703125 c 0,0.75 0.984375,1.34375 2.203125,1.34375 1.21875,0 2.203125,-0.578125 2.203125,-1.34375 C 4.6875,-0.6875 3.03125,-0.6875 2.640625,-0.6875 h -0.875 c -0.125,0 -0.578125,0 -0.578125,-0.53125 0,-0.109375 0.03125,-0.265625 0.109375,-0.359375 0.203125,0.15625 0.53125,0.296875 0.90625,0.296875 0.890625,0 1.59375,-0.75 1.59375,-1.625 0,-0.484375 -0.21875,-0.859375 -0.328125,-1 l 0.046875,0.015625 C 3.734375,-3.890625 4,-3.9375 4.25,-3.9375 c 0.171875,0 0.578125,0.03125 0.578125,0.03125 z m -1.734375,1 c 0,0.765625 -0.46875,1.046875 -0.890625,1.046875 -0.375,0 -0.890625,-0.21875 -0.890625,-1.046875 0,-0.828125 0.515625,-1.0625 0.890625,-1.0625 0.421875,0 0.890625,0.28125 0.890625,1.0625 z M 4,0.71875 c 0,0.4375 -0.6875,0.765625 -1.5,0.765625 -0.8125,0 -1.515625,-0.3125 -1.515625,-0.78125 0,-0.03125 0,-0.671875 0.765625,-0.671875 H 2.65625 C 2.875,0.03125 4,0.03125 4,0.71875 Z m 0,0"
               id="id-9f6a908c-eeb5-4ea8-a8b9-200b21334e99"
               style="fill:#4d4d4d;stroke-width:0" />
          </g>
          <g
             id="id-472befb9-1661-48fe-b744-ee8b22b7f918"
             style="fill:#4d4d4d;stroke-width:0">
            <path
               d="M 3.3125,-0.265625 3.15625,-0.859375 C 2.890625,-0.640625 2.578125,-0.53125 2.25,-0.53125 c -0.359375,0 -0.5,-0.296875 -0.5,-0.828125 V -3.84375 H 3.15625 V -4.421875 H 1.75 V -5.6875 H 1.0625 v 1.265625 h -0.875 v 0.578125 h 0.84375 v 2.65625 c 0,0.59375 0.140625,1.296875 0.828125,1.296875 0.6875,0 1.203125,-0.25 1.453125,-0.375 z m 0,0"
               id="id-4926f478-b232-4792-9508-3b67587848e4"
               style="fill:#4d4d4d;stroke-width:0" />
          </g>
          <g
             id="id-a113e5f6-cf08-4db5-8cf4-f7e2469488d3"
             style="fill:#4d4d4d;stroke-width:0">
            <path
               d="m 1.5625,0 v -4.421875 h -0.75 V 0 Z M 1.640625,-5.640625 V -6.53125 H 0.75 v 0.890625 z m 0,0"
               id="id-68a20f40-5f11-4cf1-b02a-637be013d937"
               style="fill:#4d4d4d;stroke-width:0" />
          </g>
          <g
             id="id-e092a11c-6e68-472f-a4bf-968f74b130b5"
             style="fill:#4d4d4d;stroke-width:0">
            <path
               d="m 4.34375,0 v -2.96875 c 0,-0.65625 -0.15625,-1.5625 -1.375,-1.5625 -0.890625,0 -1.390625,0.671875 -1.4375,0.75 V -4.484375 H 0.8125 V 0 h 0.765625 v -2.4375 c 0,-0.65625 0.25,-1.484375 1.015625,-1.484375 0.953125,0 0.96875,0.703125 0.96875,1.015625 V 0 Z m 0,0"
               id="id-04d9d42f-1571-4df4-9d8f-81bf9b3d2871"
               style="fill:#4d4d4d;stroke-width:0" />
          </g>
        </g>
      </defs>
      <g
         fill-opacity="1"
         id="id-79b2f27a-31d4-4d51-b031-0721f2a759f4"
         transform="translate(-281.287,-127.843)"
         style="fill:#4d4d4d;stroke-width:0">
        <g
           transform="translate(294.157,134.765)"
           style="fill:#4d4d4d;stroke-width:0"
           id="g121">
          <path
             d="m 9.265625,-6.921875 h -0.71875 l -0.90625,3.140625 c -0.265625,0.875 -0.75,2.5625 -0.796875,3.0625 0,0 -0.0625,-0.53125 -0.71875,-2.796875 L 5.140625,-6.921875 H 4.34375 L 3.4375,-3.8125 C 3.21875,-3.046875 2.71875,-1.296875 2.671875,-0.734375 H 2.65625 C 2.625,-1.140625 2.359375,-2.109375 2.265625,-2.4375 L 1.796875,-4.109375 1,-6.921875 H 0.140625 L 2.15625,0 h 0.8125 l 1,-3.453125 C 4.171875,-4.1875 4.609375,-5.671875 4.671875,-6.1875 4.71875,-5.890625 4.953125,-4.9375 5.21875,-4 L 6.375,0 h 0.859375 z m 0,0"
             id="id-0cf62f94-91a3-43d2-89c9-42873f4d3e59"
             style="fill:#4d4d4d;stroke-width:0" />
        </g>
      </g>
      <g
         fill-opacity="1"
         id="id-29c4aa90-e2e3-40d0-956e-1542fd8c094d"
         transform="translate(-281.287,-127.843)"
         style="fill:#4d4d4d;stroke-width:0">
        <g
           transform="translate(303.283,134.765)"
           style="fill:#4d4d4d;stroke-width:0"
           id="g122">
          <path
             d="m 4.078125,0 v -2.875 c 0,-1.015625 -0.734375,-1.71875 -1.640625,-1.71875 -0.65625,0 -1.109375,0.15625 -1.5625,0.421875 l 0.046875,0.65625 C 1.453125,-3.875 1.9375,-4 2.4375,-4 c 0.46875,0 0.859375,0.390625 0.859375,1.125 v 0.4375 C 1.796875,-2.421875 0.53125,-2 0.53125,-1.125 c 0,0.421875 0.28125,1.234375 1.140625,1.234375 0.140625,0 1.078125,-0.015625 1.65625,-0.46875 V 0 Z m -0.78125,-1.3125 c 0,0.1875 0,0.4375 -0.34375,0.625 C 2.671875,-0.515625 2.296875,-0.5 2.1875,-0.5 1.703125,-0.5 1.25,-0.734375 1.25,-1.140625 1.25,-1.84375 2.875,-1.90625 3.296875,-1.9375 Z m 0,0"
             id="id-bd6a8fc8-8b4b-4d3b-b365-0a1e61e9f154"
             style="fill:#4d4d4d;stroke-width:0" />
        </g>
        <g
           transform="translate(308.075,134.765)"
           style="fill:#4d4d4d;stroke-width:0"
           id="g123">
          <path
             d="m 4.453125,-4.421875 h -0.75 l -0.796875,2.0625 C 2.703125,-1.796875 2.390625,-1 2.3125,-0.53125 H 2.296875 C 2.25,-0.890625 1.984375,-1.578125 1.890625,-1.84375 L 0.921875,-4.421875 H 0.140625 L 1.859375,0 h 0.875 z m 0,0"
             id="id-f2cee2fa-8295-459a-8fae-b191f4688e83"
             style="fill:#4d4d4d;stroke-width:0" />
        </g>
        <g
           transform="translate(312.668,134.765)"
           style="fill:#4d4d4d;stroke-width:0"
           id="g124">
          <path
             d="M 4.125,-2.1875 C 4.125,-2.515625 4.109375,-3.265625 3.734375,-3.875 3.3125,-4.484375 2.71875,-4.59375 2.359375,-4.59375 1.25,-4.59375 0.34375,-3.53125 0.34375,-2.25 c 0,1.3125 0.96875,2.359375 2.15625,2.359375 0.625,0 1.203125,-0.234375 1.59375,-0.515625 L 4.03125,-1.0625 C 3.40625,-0.53125 2.734375,-0.5 2.515625,-0.5 1.71875,-0.5 1.078125,-1.203125 1.046875,-2.1875 Z M 3.5625,-2.734375 H 1.09375 c 0.15625,-0.75 0.6875,-1.25 1.265625,-1.25 0.515625,0 1.0625,0.328125 1.203125,1.25 z m 0,0"
             id="id-edfdbaeb-5a79-4cd1-aff8-14d46ba59c6f"
             style="fill:#4d4d4d;stroke-width:0" />
        </g>
      </g>
      <g
         fill-opacity="1"
         id="id-39f646d6-95ce-440f-87ef-270a1e68c97a"
         transform="translate(-281.287,-127.843)"
         style="fill:#4d4d4d;stroke-width:0">
        <g
           transform="translate(280.334,143.731)"
           style="fill:#4d4d4d;stroke-width:0"
           id="g125">
          <path
             d="m 5.796875,-4.90625 c 0,-1.0625 -0.984375,-2.015625 -2.359375,-2.015625 H 0.953125 V 0 H 1.84375 v -2.875 h 1.671875 c 1.234375,0 2.28125,-0.90625 2.28125,-2.03125 z M 5,-4.90625 c 0,0.796875 -0.640625,1.453125 -1.78125,1.453125 H 1.8125 v -2.90625 H 3.21875 C 4.3125,-6.359375 5,-5.75 5,-4.90625 Z m 0,0"
             id="id-d5fe17e5-0645-413a-affb-a4ad8d0a73b3"
             style="fill:#4d4d4d;stroke-width:0" />
        </g>
        <g
           transform="translate(286.7,143.731)"
           style="fill:#4d4d4d;stroke-width:0"
           id="g126">
          <path
             d="m 3.265625,-3.875 v -0.65625 c -0.890625,0 -1.4375,0.5 -1.75,0.953125 v -0.90625 H 0.8125 V 0 h 0.75 V -2.140625 C 1.5625,-3.125 2.28125,-3.84375 3.265625,-3.875 Z m 0,0"
             id="id-665baf06-005d-4e8c-b46f-88f57b4ce2a1"
             style="fill:#4d4d4d;stroke-width:0" />
        </g>
        <g
           transform="translate(290.107,143.731)"
           style="fill:#4d4d4d;stroke-width:0"
           id="g127">
          <path
             d="m 4.671875,-2.1875 c 0,-1.34375 -1,-2.40625 -2.171875,-2.40625 -1.234375,0 -2.203125,1.09375 -2.203125,2.40625 0,1.3125 1.015625,2.296875 2.1875,2.296875 1.1875,0 2.1875,-1 2.1875,-2.296875 z m -0.78125,-0.109375 c 0,1.1875 -0.671875,1.765625 -1.40625,1.765625 -0.6875,0 -1.40625,-0.5625 -1.40625,-1.765625 0,-1.203125 0.75,-1.6875 1.40625,-1.6875 0.703125,0 1.40625,0.515625 1.40625,1.6875 z m 0,0"
             id="id-0bfae291-1536-4d49-9e14-c48713a9dfe8"
             style="fill:#4d4d4d;stroke-width:0" />
        </g>
        <g
           transform="translate(295.089,143.731)"
           style="fill:#4d4d4d;stroke-width:0"
           id="g128">
          <path
             d="m 4.78125,-2.21875 c 0,-1.203125 -0.625,-2.3125 -1.578125,-2.3125 -0.59375,0 -1.171875,0.203125 -1.640625,0.59375 v -0.484375 h -0.75 V 1.9375 h 0.78125 v -2.390625 c 0.3125,0.28125 0.75,0.5625 1.34375,0.5625 0.96875,0 1.84375,-0.984375 1.84375,-2.328125 z M 4,-2.21875 C 4,-1.203125 3.296875,-0.5 2.546875,-0.5 2.15625,-0.5 1.890625,-0.703125 1.6875,-0.96875 1.59375,-1.109375 1.59375,-1.140625 1.59375,-1.3125 v -2 c 0.234375,-0.359375 0.625,-0.578125 1.0625,-0.578125 0.75,0 1.34375,0.75 1.34375,1.671875 z m 0,0"
             id="id-e918db4b-215c-46c8-9bfc-049ca04e6774"
             style="fill:#4d4d4d;stroke-width:0" />
        </g>
        <g
           transform="translate(300.239,143.731)"
           style="fill:#4d4d4d;stroke-width:0"
           id="g129">
          <path
             d="m 4.078125,0 v -2.875 c 0,-1.015625 -0.734375,-1.71875 -1.640625,-1.71875 -0.65625,0 -1.109375,0.15625 -1.5625,0.421875 l 0.046875,0.65625 C 1.453125,-3.875 1.9375,-4 2.4375,-4 c 0.46875,0 0.859375,0.390625 0.859375,1.125 v 0.4375 C 1.796875,-2.421875 0.53125,-2 0.53125,-1.125 c 0,0.421875 0.28125,1.234375 1.140625,1.234375 0.140625,0 1.078125,-0.015625 1.65625,-0.46875 V 0 Z m -0.78125,-1.3125 c 0,0.1875 0,0.4375 -0.34375,0.625 C 2.671875,-0.515625 2.296875,-0.5 2.1875,-0.5 1.703125,-0.5 1.25,-0.734375 1.25,-1.140625 1.25,-1.84375 2.875,-1.90625 3.296875,-1.9375 Z m 0,0"
             id="id-81780965-95c0-4102-ac5a-1638720be78d"
             style="fill:#4d4d4d;stroke-width:0" />
        </g>
        <g
           transform="translate(305.031,143.731)"
           style="fill:#4d4d4d;stroke-width:0"
           id="g130">
          <path
             d="m 4.828125,-3.90625 -0.109375,-0.625 c -0.6875,0 -1.265625,0.1875 -1.5625,0.3125 -0.21875,-0.171875 -0.546875,-0.3125 -0.953125,-0.3125 -0.859375,0 -1.578125,0.71875 -1.578125,1.625 0,0.359375 0.125,0.71875 0.328125,0.984375 C 0.65625,-1.515625 0.65625,-1.125 0.65625,-1.078125 0.65625,-0.8125 0.75,-0.53125 0.921875,-0.3125 0.40625,-0.015625 0.28125,0.453125 0.28125,0.703125 c 0,0.75 0.984375,1.34375 2.203125,1.34375 1.21875,0 2.203125,-0.578125 2.203125,-1.34375 C 4.6875,-0.6875 3.03125,-0.6875 2.640625,-0.6875 h -0.875 c -0.125,0 -0.578125,0 -0.578125,-0.53125 0,-0.109375 0.03125,-0.265625 0.109375,-0.359375 0.203125,0.15625 0.53125,0.296875 0.90625,0.296875 0.890625,0 1.59375,-0.75 1.59375,-1.625 0,-0.484375 -0.21875,-0.859375 -0.328125,-1 l 0.046875,0.015625 C 3.734375,-3.890625 4,-3.9375 4.25,-3.9375 c 0.171875,0 0.578125,0.03125 0.578125,0.03125 z m -1.734375,1 c 0,0.765625 -0.46875,1.046875 -0.890625,1.046875 -0.375,0 -0.890625,-0.21875 -0.890625,-1.046875 0,-0.828125 0.515625,-1.0625 0.890625,-1.0625 0.421875,0 0.890625,0.28125 0.890625,1.0625 z M 4,0.71875 c 0,0.4375 -0.6875,0.765625 -1.5,0.765625 -0.8125,0 -1.515625,-0.3125 -1.515625,-0.78125 0,-0.03125 0,-0.671875 0.765625,-0.671875 H 2.65625 C 2.875,0.03125 4,0.03125 4,0.71875 Z m 0,0"
             id="id-859ba347-2e52-4c84-a331-0a220fbdc5e1"
             style="fill:#4d4d4d;stroke-width:0" />
        </g>
        <g
           transform="translate(310.013,143.731)"
           style="fill:#4d4d4d;stroke-width:0"
           id="g131">
          <path
             d="m 4.078125,0 v -2.875 c 0,-1.015625 -0.734375,-1.71875 -1.640625,-1.71875 -0.65625,0 -1.109375,0.15625 -1.5625,0.421875 l 0.046875,0.65625 C 1.453125,-3.875 1.9375,-4 2.4375,-4 c 0.46875,0 0.859375,0.390625 0.859375,1.125 v 0.4375 C 1.796875,-2.421875 0.53125,-2 0.53125,-1.125 c 0,0.421875 0.28125,1.234375 1.140625,1.234375 0.140625,0 1.078125,-0.015625 1.65625,-0.46875 V 0 Z m -0.78125,-1.3125 c 0,0.1875 0,0.4375 -0.34375,0.625 C 2.671875,-0.515625 2.296875,-0.5 2.1875,-0.5 1.703125,-0.5 1.25,-0.734375 1.25,-1.140625 1.25,-1.84375 2.875,-1.90625 3.296875,-1.9375 Z m 0,0"
             id="id-8fbf7ab6-35c6-479e-8264-6a221441997e"
             style="fill:#4d4d4d;stroke-width:0" />
        </g>
        <g
           transform="translate(314.805,143.731)"
           style="fill:#4d4d4d;stroke-width:0"
           id="g132">
          <path
             d="M 3.3125,-0.265625 3.15625,-0.859375 C 2.890625,-0.640625 2.578125,-0.53125 2.25,-0.53125 c -0.359375,0 -0.5,-0.296875 -0.5,-0.828125 V -3.84375 H 3.15625 V -4.421875 H 1.75 V -5.6875 H 1.0625 v 1.265625 h -0.875 v 0.578125 h 0.84375 v 2.65625 c 0,0.59375 0.140625,1.296875 0.828125,1.296875 0.6875,0 1.203125,-0.25 1.453125,-0.375 z m 0,0"
             id="id-6f3993be-9ef9-4bba-b186-816a4b98dbbf"
             style="fill:#4d4d4d;stroke-width:0" />
        </g>
        <g
           transform="translate(318.401,143.731)"
           style="fill:#4d4d4d;stroke-width:0"
           id="g133">
          <path
             d="m 1.5625,0 v -4.421875 h -0.75 V 0 Z M 1.640625,-5.640625 V -6.53125 H 0.75 v 0.890625 z m 0,0"
             id="id-4e04e152-6e72-42cc-b0a1-0c977697c92f"
             style="fill:#4d4d4d;stroke-width:0" />
        </g>
        <g
           transform="translate(320.782,143.731)"
           style="fill:#4d4d4d;stroke-width:0"
           id="g134">
          <path
             d="m 4.671875,-2.1875 c 0,-1.34375 -1,-2.40625 -2.171875,-2.40625 -1.234375,0 -2.203125,1.09375 -2.203125,2.40625 0,1.3125 1.015625,2.296875 2.1875,2.296875 1.1875,0 2.1875,-1 2.1875,-2.296875 z m -0.78125,-0.109375 c 0,1.1875 -0.671875,1.765625 -1.40625,1.765625 -0.6875,0 -1.40625,-0.5625 -1.40625,-1.765625 0,-1.203125 0.75,-1.6875 1.40625,-1.6875 0.703125,0 1.40625,0.515625 1.40625,1.6875 z m 0,0"
             id="id-a62119c7-d78c-48bb-9218-5f67f44d1928"
             style="fill:#4d4d4d;stroke-width:0" />
        </g>
        <g
           transform="translate(325.763,143.731)"
           style="fill:#4d4d4d;stroke-width:0"
           id="g135">
          <path
             d="m 4.34375,0 v -2.96875 c 0,-0.65625 -0.15625,-1.5625 -1.375,-1.5625 -0.890625,0 -1.390625,0.671875 -1.4375,0.75 V -4.484375 H 0.8125 V 0 h 0.765625 v -2.4375 c 0,-0.65625 0.25,-1.484375 1.015625,-1.484375 0.953125,0 0.96875,0.703125 0.96875,1.015625 V 0 Z m 0,0"
             id="id-8ebf1174-6d9f-4118-918b-b9bd0ed7fc66"
             style="fill:#4d4d4d;stroke-width:0" />
        </g>
      </g>
    </g>
  </g>
</svg>
