<?xml version="1.0" encoding="UTF-8" standalone="no"?>
<!-- Created with Inkscape (http://www.inkscape.org/) -->

<svg
   width="150.35124mm"
   height="32.065804mm"
   viewBox="0 0 150.35124 32.065804"
   version="1.1"
   id="svg1"
   inkscape:version="1.4 (86a8ad7, 2024-10-11)"
   sodipodi:docname="loss.svg"
   xmlns:inkscape="http://www.inkscape.org/namespaces/inkscape"
   xmlns:sodipodi="http://sodipodi.sourceforge.net/DTD/sodipodi-0.dtd"
   xmlns:xlink="http://www.w3.org/1999/xlink"
   xmlns="http://www.w3.org/2000/svg"
   xmlns:svg="http://www.w3.org/2000/svg">
  <sodipodi:namedview
     id="namedview1"
     pagecolor="#ffffff"
     bordercolor="#666666"
     borderopacity="1.0"
     inkscape:showpageshadow="2"
     inkscape:pageopacity="0.0"
     inkscape:pagecheckerboard="0"
     inkscape:deskcolor="#d1d1d1"
     inkscape:document-units="mm"
     inkscape:zoom="0.71891835"
     inkscape:cx="289.32354"
     inkscape:cy="481.97407"
     inkscape:window-width="1920"
     inkscape:window-height="1009"
     inkscape:window-x="-8"
     inkscape:window-y="296"
     inkscape:window-maximized="1"
     inkscape:current-layer="layer1" />
  <defs
     id="defs1">
    <clipPath
       id="p6047476d79">
      <rect
         x="42.392502"
         y="302.25601"
         width="390.60001"
         height="66.528"
         id="rect668" />
    </clipPath>
    <clipPath
       id="clipPath1">
      <rect
         x="42.392502"
         y="302.25601"
         width="390.60001"
         height="66.528"
         id="rect1" />
    </clipPath>
    <path
       id="DejaVuSans-36"
       d="m 2113,2584 q -425,0 -674,-291 -248,-290 -248,-796 0,-503 248,-796 249,-292 674,-292 425,0 673,292 248,293 248,796 0,506 -248,796 -248,291 -673,291 z m 1253,1979 v -575 q -238,112 -480,171 -242,60 -480,60 -625,0 -955,-422 -329,-422 -376,-1275 184,272 462,417 279,145 613,145 703,0 1111,-427 408,-426 408,-1160 0,-719 -425,-1154 -425,-434 -1131,-434 -810,0 -1238,620 -428,621 -428,1799 0,1106 525,1764 525,658 1409,658 238,0 480,-47 242,-47 505,-140 z"
       transform="scale(0.015625)" />
    <path
       id="DejaVuSans-49"
       d="m 628,4666 h 631 V 0 H 628 Z"
       transform="scale(0.015625)" />
  </defs>
  <g
     inkscape:label="Layer 1"
     inkscape:groupmode="layer"
     id="layer1"
     transform="translate(-28.233042,-21.118886)">
    <g
       id="axes_7"
       style="stroke-linecap:butt;stroke-linejoin:round"
       transform="matrix(0.35277777,0,0,0.35277777,25.693042,-85.369201)">
      <g
         id="patch_29"
         style="stroke-linecap:butt;stroke-linejoin:round">
        <path
           d="m 42.3925,368.784 h 390.6 v -66.528 h -390.6 z"
           style="fill:#ffffff;stroke-linecap:butt;stroke-linejoin:round"
           id="path583" />
      </g>
      <g
         id="matplotlib.axis_13"
         style="stroke-linecap:butt;stroke-linejoin:round">
        <g
           id="xtick_37"
           style="stroke-linecap:butt;stroke-linejoin:round">
          <g
             id="line2d_109"
             style="stroke-linecap:butt;stroke-linejoin:round">
            <g
               id="g583"
               style="stroke-linecap:butt;stroke-linejoin:round">
              <path
                 id="use583"
                 d="m 60.087852,368.784 v 3.5"
                 style="stroke:#000000;stroke-width:0.8;stroke-linecap:butt;stroke-linejoin:round" />
            </g>
          </g>
          <g
             id="text_43"
             style="stroke-linecap:butt;stroke-linejoin:round">
            <!-- 0 -->
            <g
               transform="matrix(0.07,0,0,-0.07,57.860979,381.10291)"
               id="g584"
               style="stroke-linecap:butt;stroke-linejoin:round">
              <path
                 id="use584"
                 d="m 31.78125,66.40625 q -7.609375,0 -11.453125,-7.5 Q 16.5,51.421875 16.5,36.375 q 0,-14.984375 3.828125,-22.484375 3.84375,-7.5 11.453125,-7.5 7.671875,0 11.5,7.5 3.84375,7.5 3.84375,22.484375 0,15.046875 -3.84375,22.53125 -3.828125,7.5 -11.5,7.5 z m 0,7.8125 q 12.265625,0 18.734375,-9.703125 6.46875,-9.6875 6.46875,-28.140625 0,-18.40625 -6.46875,-28.109375 -6.46875,-9.6875 -18.734375,-9.6875 -12.25,0 -18.71875,9.6875 Q 6.59375,17.96875 6.59375,36.375 q 0,18.453125 6.46875,28.140625 6.46875,9.703125 18.71875,9.703125 z"
                 style="stroke-width:0.015625;stroke-linecap:butt;stroke-linejoin:round" />
            </g>
          </g>
        </g>
        <g
           id="xtick_38"
           style="stroke-linecap:butt;stroke-linejoin:round">
          <g
             id="line2d_110"
             style="stroke-linecap:butt;stroke-linejoin:round">
            <g
               id="g585"
               style="stroke-linecap:butt;stroke-linejoin:round">
              <path
                 id="use585"
                 d="m 119.27953,368.784 v 3.5"
                 style="stroke:#000000;stroke-width:0.8;stroke-linecap:butt;stroke-linejoin:round" />
            </g>
          </g>
          <g
             id="text_44"
             style="stroke-linecap:butt;stroke-linejoin:round">
            <!-- 1000 -->
            <g
               transform="matrix(0.07,0,0,-0.07,110.37204,381.10291)"
               id="g589"
               style="stroke-linecap:butt;stroke-linejoin:round">
              <path
                 id="use586"
                 d="m 12.40625,8.296875 h 16.109375 v 55.625 L 10.984375,60.40625 v 8.984375 l 17.4375,3.515625 H 38.28125 V 8.296875 H 54.390625 V 0 H 12.40625 Z"
                 style="stroke-width:0.015625;stroke-linecap:butt;stroke-linejoin:round" />
              <path
                 id="use587"
                 d="m 95.404297,66.40625 q -7.609375,0 -11.453125,-7.5 -3.828125,-7.484375 -3.828125,-22.53125 0,-14.984375 3.828125,-22.484375 3.84375,-7.5 11.453125,-7.5 7.671873,0 11.500003,7.5 3.84375,7.5 3.84375,22.484375 0,15.046875 -3.84375,22.53125 -3.82813,7.5 -11.500003,7.5 z m 0,7.8125 q 12.265623,0 18.734373,-9.703125 6.46875,-9.6875 6.46875,-28.140625 0,-18.40625 -6.46875,-28.109375 -6.46875,-9.6875 -18.734373,-9.6875 -12.25,0 -18.71875,9.6875 -6.46875,9.703125 -6.46875,28.109375 0,18.453125 6.46875,28.140625 6.46875,9.703125 18.71875,9.703125 z"
                 style="stroke-width:0.015625;stroke-linecap:butt;stroke-linejoin:round" />
              <path
                 id="use588"
                 d="m 159.02734,66.40625 q -7.60937,0 -11.45312,-7.5 -3.82813,-7.484375 -3.82813,-22.53125 0,-14.984375 3.82813,-22.484375 3.84375,-7.5 11.45312,-7.5 7.67188,0 11.5,7.5 3.84375,7.5 3.84375,22.484375 0,15.046875 -3.84375,22.53125 -3.82812,7.5 -11.5,7.5 z m 0,7.8125 q 12.26563,0 18.73438,-9.703125 6.46875,-9.6875 6.46875,-28.140625 0,-18.40625 -6.46875,-28.109375 -6.46875,-9.6875 -18.73438,-9.6875 -12.25,0 -18.71875,9.6875 -6.46875,9.703125 -6.46875,28.109375 0,18.453125 6.46875,28.140625 6.46875,9.703125 18.71875,9.703125 z"
                 style="stroke-width:0.015625;stroke-linecap:butt;stroke-linejoin:round" />
              <path
                 id="use589"
                 d="m 222.65039,66.40625 q -7.60937,0 -11.45312,-7.5 -3.82813,-7.484375 -3.82813,-22.53125 0,-14.984375 3.82813,-22.484375 3.84375,-7.5 11.45312,-7.5 7.67188,0 11.5,7.5 3.84375,7.5 3.84375,22.484375 0,15.046875 -3.84375,22.53125 -3.82812,7.5 -11.5,7.5 z m 0,7.8125 q 12.26563,0 18.73438,-9.703125 6.46875,-9.6875 6.46875,-28.140625 0,-18.40625 -6.46875,-28.109375 -6.46875,-9.6875 -18.73438,-9.6875 -12.25,0 -18.71875,9.6875 -6.46875,9.703125 -6.46875,28.109375 0,18.453125 6.46875,28.140625 6.46875,9.703125 18.71875,9.703125 z"
                 style="stroke-width:0.015625;stroke-linecap:butt;stroke-linejoin:round" />
            </g>
          </g>
        </g>
        <g
           id="xtick_39"
           style="stroke-linecap:butt;stroke-linejoin:round">
          <g
             id="line2d_111"
             style="stroke-linecap:butt;stroke-linejoin:round">
            <g
               id="g590"
               style="stroke-linecap:butt;stroke-linejoin:round">
              <path
                 id="use590"
                 d="m 178.47122,368.784 v 3.5"
                 style="stroke:#000000;stroke-width:0.8;stroke-linecap:butt;stroke-linejoin:round" />
            </g>
          </g>
          <g
             id="text_45"
             style="stroke-linecap:butt;stroke-linejoin:round">
            <!-- 2000 -->
            <g
               transform="matrix(0.07,0,0,-0.07,169.56372,381.10291)"
               id="g594"
               style="stroke-linecap:butt;stroke-linejoin:round">
              <path
                 id="use591"
                 d="M 19.1875,8.296875 H 53.609375 V 0 H 7.328125 v 8.296875 q 5.609375,5.8125 15.296875,15.59375 9.703125,9.796875 12.1875,12.640625 4.734375,5.3125 6.609375,9 1.890625,3.6875 1.890625,7.25 0,5.8125 -4.078125,9.46875 -4.078125,3.671875 -10.625,3.671875 -4.640625,0 -9.796875,-1.609375 -5.140625,-1.609375 -11,-4.890625 v 9.96875 Q 13.765625,71.78125 18.9375,73 q 5.1875,1.21875 9.484375,1.21875 11.328125,0 18.0625,-5.671875 6.734375,-5.65625 6.734375,-15.125 0,-4.5 -1.6875,-8.53125 Q 49.859375,40.875 45.40625,35.40625 44.1875,33.984375 37.640625,27.21875 31.109375,20.453125 19.1875,8.296875 Z"
                 style="stroke-width:0.015625;stroke-linecap:butt;stroke-linejoin:round" />
              <path
                 id="use592"
                 d="m 95.404297,66.40625 q -7.609375,0 -11.453125,-7.5 -3.828125,-7.484375 -3.828125,-22.53125 0,-14.984375 3.828125,-22.484375 3.84375,-7.5 11.453125,-7.5 7.671873,0 11.500003,7.5 3.84375,7.5 3.84375,22.484375 0,15.046875 -3.84375,22.53125 -3.82813,7.5 -11.500003,7.5 z m 0,7.8125 q 12.265623,0 18.734373,-9.703125 6.46875,-9.6875 6.46875,-28.140625 0,-18.40625 -6.46875,-28.109375 -6.46875,-9.6875 -18.734373,-9.6875 -12.25,0 -18.71875,9.6875 -6.46875,9.703125 -6.46875,28.109375 0,18.453125 6.46875,28.140625 6.46875,9.703125 18.71875,9.703125 z"
                 style="stroke-width:0.015625;stroke-linecap:butt;stroke-linejoin:round" />
              <path
                 id="use593"
                 d="m 159.02734,66.40625 q -7.60937,0 -11.45312,-7.5 -3.82813,-7.484375 -3.82813,-22.53125 0,-14.984375 3.82813,-22.484375 3.84375,-7.5 11.45312,-7.5 7.67188,0 11.5,7.5 3.84375,7.5 3.84375,22.484375 0,15.046875 -3.84375,22.53125 -3.82812,7.5 -11.5,7.5 z m 0,7.8125 q 12.26563,0 18.73438,-9.703125 6.46875,-9.6875 6.46875,-28.140625 0,-18.40625 -6.46875,-28.109375 -6.46875,-9.6875 -18.73438,-9.6875 -12.25,0 -18.71875,9.6875 -6.46875,9.703125 -6.46875,28.109375 0,18.453125 6.46875,28.140625 6.46875,9.703125 18.71875,9.703125 z"
                 style="stroke-width:0.015625;stroke-linecap:butt;stroke-linejoin:round" />
              <path
                 id="use594"
                 d="m 222.65039,66.40625 q -7.60937,0 -11.45312,-7.5 -3.82813,-7.484375 -3.82813,-22.53125 0,-14.984375 3.82813,-22.484375 3.84375,-7.5 11.45312,-7.5 7.67188,0 11.5,7.5 3.84375,7.5 3.84375,22.484375 0,15.046875 -3.84375,22.53125 -3.82812,7.5 -11.5,7.5 z m 0,7.8125 q 12.26563,0 18.73438,-9.703125 6.46875,-9.6875 6.46875,-28.140625 0,-18.40625 -6.46875,-28.109375 -6.46875,-9.6875 -18.73438,-9.6875 -12.25,0 -18.71875,9.6875 -6.46875,9.703125 -6.46875,28.109375 0,18.453125 6.46875,28.140625 6.46875,9.703125 18.71875,9.703125 z"
                 style="stroke-width:0.015625;stroke-linecap:butt;stroke-linejoin:round" />
            </g>
          </g>
        </g>
        <g
           id="xtick_40"
           style="stroke-linecap:butt;stroke-linejoin:round">
          <g
             id="line2d_112"
             style="stroke-linecap:butt;stroke-linejoin:round">
            <g
               id="g595"
               style="stroke-linecap:butt;stroke-linejoin:round">
              <path
                 id="use595"
                 d="m 237.6629,368.784 v 3.5"
                 style="stroke:#000000;stroke-width:0.8;stroke-linecap:butt;stroke-linejoin:round" />
            </g>
          </g>
          <g
             id="text_46"
             style="stroke-linecap:butt;stroke-linejoin:round">
            <!-- 3000 -->
            <g
               transform="matrix(0.07,0,0,-0.07,228.7554,381.10291)"
               id="g599"
               style="stroke-linecap:butt;stroke-linejoin:round">
              <path
                 id="use596"
                 d="M 40.578125,39.3125 Q 47.65625,37.796875 51.625,33 q 3.984375,-4.78125 3.984375,-11.8125 0,-10.78125 -7.421875,-16.703125 -7.421875,-5.90625 -21.09375,-5.90625 -4.578125,0 -9.4375,0.90625 -4.859375,0.90625 -10.03125,2.71875 v 9.515625 q 4.09375,-2.390625 8.96875,-3.609375 4.890625,-1.21875 10.21875,-1.21875 9.265625,0 14.125,3.65625 4.859375,3.65625 4.859375,10.640625 0,6.453125 -4.515625,10.078125 -4.515625,3.640625 -12.5625,3.640625 h -8.5 v 8.109375 h 8.890625 q 7.265625,0 11.125,2.90625 3.859375,2.90625 3.859375,8.375 0,5.609375 -3.984375,8.609375 -3.96875,3.015625 -11.390625,3.015625 -4.0625,0 -8.703125,-0.890625 Q 15.375,64.15625 9.8125,62.3125 v 8.78125 q 5.625,1.5625 10.53125,2.34375 4.90625,0.78125 9.25,0.78125 11.234375,0 17.765625,-5.109375 6.546875,-5.09375 6.546875,-13.78125 0,-6.0625 -3.46875,-10.234375 -3.46875,-4.171875 -9.859375,-5.78125 z"
                 style="stroke-width:0.015625;stroke-linecap:butt;stroke-linejoin:round" />
              <path
                 id="use597"
                 d="m 95.404297,66.40625 q -7.609375,0 -11.453125,-7.5 -3.828125,-7.484375 -3.828125,-22.53125 0,-14.984375 3.828125,-22.484375 3.84375,-7.5 11.453125,-7.5 7.671873,0 11.500003,7.5 3.84375,7.5 3.84375,22.484375 0,15.046875 -3.84375,22.53125 -3.82813,7.5 -11.500003,7.5 z m 0,7.8125 q 12.265623,0 18.734373,-9.703125 6.46875,-9.6875 6.46875,-28.140625 0,-18.40625 -6.46875,-28.109375 -6.46875,-9.6875 -18.734373,-9.6875 -12.25,0 -18.71875,9.6875 -6.46875,9.703125 -6.46875,28.109375 0,18.453125 6.46875,28.140625 6.46875,9.703125 18.71875,9.703125 z"
                 style="stroke-width:0.015625;stroke-linecap:butt;stroke-linejoin:round" />
              <path
                 id="use598"
                 d="m 159.02734,66.40625 q -7.60937,0 -11.45312,-7.5 -3.82813,-7.484375 -3.82813,-22.53125 0,-14.984375 3.82813,-22.484375 3.84375,-7.5 11.45312,-7.5 7.67188,0 11.5,7.5 3.84375,7.5 3.84375,22.484375 0,15.046875 -3.84375,22.53125 -3.82812,7.5 -11.5,7.5 z m 0,7.8125 q 12.26563,0 18.73438,-9.703125 6.46875,-9.6875 6.46875,-28.140625 0,-18.40625 -6.46875,-28.109375 -6.46875,-9.6875 -18.73438,-9.6875 -12.25,0 -18.71875,9.6875 -6.46875,9.703125 -6.46875,28.109375 0,18.453125 6.46875,28.140625 6.46875,9.703125 18.71875,9.703125 z"
                 style="stroke-width:0.015625;stroke-linecap:butt;stroke-linejoin:round" />
              <path
                 id="use599"
                 d="m 222.65039,66.40625 q -7.60937,0 -11.45312,-7.5 -3.82813,-7.484375 -3.82813,-22.53125 0,-14.984375 3.82813,-22.484375 3.84375,-7.5 11.45312,-7.5 7.67188,0 11.5,7.5 3.84375,7.5 3.84375,22.484375 0,15.046875 -3.84375,22.53125 -3.82812,7.5 -11.5,7.5 z m 0,7.8125 q 12.26563,0 18.73438,-9.703125 6.46875,-9.6875 6.46875,-28.140625 0,-18.40625 -6.46875,-28.109375 -6.46875,-9.6875 -18.73438,-9.6875 -12.25,0 -18.71875,9.6875 -6.46875,9.703125 -6.46875,28.109375 0,18.453125 6.46875,28.140625 6.46875,9.703125 18.71875,9.703125 z"
                 style="stroke-width:0.015625;stroke-linecap:butt;stroke-linejoin:round" />
            </g>
          </g>
        </g>
        <g
           id="xtick_41"
           style="stroke-linecap:butt;stroke-linejoin:round">
          <g
             id="line2d_113"
             style="stroke-linecap:butt;stroke-linejoin:round">
            <g
               id="g600"
               style="stroke-linecap:butt;stroke-linejoin:round">
              <path
                 id="use600"
                 d="m 296.85458,368.784 v 3.5"
                 style="stroke:#000000;stroke-width:0.8;stroke-linecap:butt;stroke-linejoin:round" />
            </g>
          </g>
          <g
             id="text_47"
             style="stroke-linecap:butt;stroke-linejoin:round">
            <!-- 4000 -->
            <g
               transform="matrix(0.07,0,0,-0.07,287.94709,381.10291)"
               id="g604"
               style="stroke-linecap:butt;stroke-linejoin:round">
              <path
                 id="use601"
                 d="M 37.796875,64.3125 12.890625,25.390625 h 24.90625 z m -2.59375,8.59375 h 12.40625 V 25.390625 h 10.40625 V 17.1875 H 47.609375 V 0 h -9.8125 V 17.1875 H 4.890625 v 9.515625 z"
                 style="stroke-width:0.015625;stroke-linecap:butt;stroke-linejoin:round" />
              <path
                 id="use602"
                 d="m 95.404297,66.40625 q -7.609375,0 -11.453125,-7.5 -3.828125,-7.484375 -3.828125,-22.53125 0,-14.984375 3.828125,-22.484375 3.84375,-7.5 11.453125,-7.5 7.671873,0 11.500003,7.5 3.84375,7.5 3.84375,22.484375 0,15.046875 -3.84375,22.53125 -3.82813,7.5 -11.500003,7.5 z m 0,7.8125 q 12.265623,0 18.734373,-9.703125 6.46875,-9.6875 6.46875,-28.140625 0,-18.40625 -6.46875,-28.109375 -6.46875,-9.6875 -18.734373,-9.6875 -12.25,0 -18.71875,9.6875 -6.46875,9.703125 -6.46875,28.109375 0,18.453125 6.46875,28.140625 6.46875,9.703125 18.71875,9.703125 z"
                 style="stroke-width:0.015625;stroke-linecap:butt;stroke-linejoin:round" />
              <path
                 id="use603"
                 d="m 159.02734,66.40625 q -7.60937,0 -11.45312,-7.5 -3.82813,-7.484375 -3.82813,-22.53125 0,-14.984375 3.82813,-22.484375 3.84375,-7.5 11.45312,-7.5 7.67188,0 11.5,7.5 3.84375,7.5 3.84375,22.484375 0,15.046875 -3.84375,22.53125 -3.82812,7.5 -11.5,7.5 z m 0,7.8125 q 12.26563,0 18.73438,-9.703125 6.46875,-9.6875 6.46875,-28.140625 0,-18.40625 -6.46875,-28.109375 -6.46875,-9.6875 -18.73438,-9.6875 -12.25,0 -18.71875,9.6875 -6.46875,9.703125 -6.46875,28.109375 0,18.453125 6.46875,28.140625 6.46875,9.703125 18.71875,9.703125 z"
                 style="stroke-width:0.015625;stroke-linecap:butt;stroke-linejoin:round" />
              <path
                 id="use604"
                 d="m 222.65039,66.40625 q -7.60937,0 -11.45312,-7.5 -3.82813,-7.484375 -3.82813,-22.53125 0,-14.984375 3.82813,-22.484375 3.84375,-7.5 11.45312,-7.5 7.67188,0 11.5,7.5 3.84375,7.5 3.84375,22.484375 0,15.046875 -3.84375,22.53125 -3.82812,7.5 -11.5,7.5 z m 0,7.8125 q 12.26563,0 18.73438,-9.703125 6.46875,-9.6875 6.46875,-28.140625 0,-18.40625 -6.46875,-28.109375 -6.46875,-9.6875 -18.73438,-9.6875 -12.25,0 -18.71875,9.6875 -6.46875,9.703125 -6.46875,28.109375 0,18.453125 6.46875,28.140625 6.46875,9.703125 18.71875,9.703125 z"
                 style="stroke-width:0.015625;stroke-linecap:butt;stroke-linejoin:round" />
            </g>
          </g>
        </g>
        <g
           id="xtick_42"
           style="stroke-linecap:butt;stroke-linejoin:round">
          <g
             id="line2d_114"
             style="stroke-linecap:butt;stroke-linejoin:round">
            <g
               id="g605"
               style="stroke-linecap:butt;stroke-linejoin:round">
              <path
                 id="use605"
                 d="m 356.04626,368.784 v 3.5"
                 style="stroke:#000000;stroke-width:0.8;stroke-linecap:butt;stroke-linejoin:round" />
            </g>
          </g>
          <g
             id="text_48"
             style="stroke-linecap:butt;stroke-linejoin:round">
            <!-- 5000 -->
            <g
               transform="matrix(0.07,0,0,-0.07,347.13877,381.10291)"
               id="g609"
               style="stroke-linecap:butt;stroke-linejoin:round">
              <path
                 id="use606"
                 d="m 10.796875,72.90625 h 38.71875 v -8.3125 h -29.6875 V 46.734375 q 2.140625,0.734375 4.28125,1.09375 2.15625,0.359375 4.3125,0.359375 Q 40.625,48.1875 47.75,41.5 54.890625,34.8125 54.890625,23.390625 54.890625,11.625 47.5625,5.09375 40.234375,-1.421875 26.90625,-1.421875 q -4.59375,0 -9.359375,0.78125 -4.75,0.78125 -9.828125,2.34375 V 11.625 q 4.390625,-2.390625 9.078125,-3.5625 4.6875,-1.171875 9.90625,-1.171875 8.453125,0 13.375,4.4375 4.9375,4.4375 4.9375,12.0625 0,7.609375 -4.9375,12.046875 -4.921875,4.453125 -13.375,4.453125 -3.953125,0 -7.890625,-0.875 -3.921875,-0.875 -8.015625,-2.734375 z"
                 style="stroke-width:0.015625;stroke-linecap:butt;stroke-linejoin:round" />
              <path
                 id="use607"
                 d="m 95.404297,66.40625 q -7.609375,0 -11.453125,-7.5 -3.828125,-7.484375 -3.828125,-22.53125 0,-14.984375 3.828125,-22.484375 3.84375,-7.5 11.453125,-7.5 7.671873,0 11.500003,7.5 3.84375,7.5 3.84375,22.484375 0,15.046875 -3.84375,22.53125 -3.82813,7.5 -11.500003,7.5 z m 0,7.8125 q 12.265623,0 18.734373,-9.703125 6.46875,-9.6875 6.46875,-28.140625 0,-18.40625 -6.46875,-28.109375 -6.46875,-9.6875 -18.734373,-9.6875 -12.25,0 -18.71875,9.6875 -6.46875,9.703125 -6.46875,28.109375 0,18.453125 6.46875,28.140625 6.46875,9.703125 18.71875,9.703125 z"
                 style="stroke-width:0.015625;stroke-linecap:butt;stroke-linejoin:round" />
              <path
                 id="use608"
                 d="m 159.02734,66.40625 q -7.60937,0 -11.45312,-7.5 -3.82813,-7.484375 -3.82813,-22.53125 0,-14.984375 3.82813,-22.484375 3.84375,-7.5 11.45312,-7.5 7.67188,0 11.5,7.5 3.84375,7.5 3.84375,22.484375 0,15.046875 -3.84375,22.53125 -3.82812,7.5 -11.5,7.5 z m 0,7.8125 q 12.26563,0 18.73438,-9.703125 6.46875,-9.6875 6.46875,-28.140625 0,-18.40625 -6.46875,-28.109375 -6.46875,-9.6875 -18.73438,-9.6875 -12.25,0 -18.71875,9.6875 -6.46875,9.703125 -6.46875,28.109375 0,18.453125 6.46875,28.140625 6.46875,9.703125 18.71875,9.703125 z"
                 style="stroke-width:0.015625;stroke-linecap:butt;stroke-linejoin:round" />
              <path
                 id="use609"
                 d="m 222.65039,66.40625 q -7.60937,0 -11.45312,-7.5 -3.82813,-7.484375 -3.82813,-22.53125 0,-14.984375 3.82813,-22.484375 3.84375,-7.5 11.45312,-7.5 7.67188,0 11.5,7.5 3.84375,7.5 3.84375,22.484375 0,15.046875 -3.84375,22.53125 -3.82812,7.5 -11.5,7.5 z m 0,7.8125 q 12.26563,0 18.73438,-9.703125 6.46875,-9.6875 6.46875,-28.140625 0,-18.40625 -6.46875,-28.109375 -6.46875,-9.6875 -18.73438,-9.6875 -12.25,0 -18.71875,9.6875 -6.46875,9.703125 -6.46875,28.109375 0,18.453125 6.46875,28.140625 6.46875,9.703125 18.71875,9.703125 z"
                 style="stroke-width:0.015625;stroke-linecap:butt;stroke-linejoin:round" />
            </g>
          </g>
        </g>
        <g
           id="xtick_43"
           style="stroke-linecap:butt;stroke-linejoin:round">
          <g
             id="line2d_115"
             style="stroke-linecap:butt;stroke-linejoin:round">
            <g
               id="g610"
               style="stroke-linecap:butt;stroke-linejoin:round">
              <path
                 id="use610"
                 d="m 415.23795,368.784 v 3.5"
                 style="stroke:#000000;stroke-width:0.8;stroke-linecap:butt;stroke-linejoin:round" />
            </g>
          </g>
          <g
             id="text_49"
             style="stroke-linecap:butt;stroke-linejoin:round">
            <!-- 6000 -->
            <g
               transform="matrix(0.07,0,0,-0.07,406.33045,381.10291)"
               id="g614"
               style="stroke-linecap:butt;stroke-linejoin:round">
              <defs
                 id="defs610">
                <path
                   id="path1"
                   d="m 2113,2584 q -425,0 -674,-291 -248,-290 -248,-796 0,-503 248,-796 249,-292 674,-292 425,0 673,292 248,293 248,796 0,506 -248,796 -248,291 -673,291 z m 1253,1979 v -575 q -238,112 -480,171 -242,60 -480,60 -625,0 -955,-422 -329,-422 -376,-1275 184,272 462,417 279,145 613,145 703,0 1111,-427 408,-426 408,-1160 0,-719 -425,-1154 -425,-434 -1131,-434 -810,0 -1238,620 -428,621 -428,1799 0,1106 525,1764 525,658 1409,658 238,0 480,-47 242,-47 505,-140 z"
                   transform="scale(0.015625)" />
              </defs>
              <use
                 xlink:href="#DejaVuSans-36"
                 id="use611"
                 style="stroke-linecap:butt;stroke-linejoin:round" />
              <path
                 id="use612"
                 d="m 95.404297,66.40625 q -7.609375,0 -11.453125,-7.5 -3.828125,-7.484375 -3.828125,-22.53125 0,-14.984375 3.828125,-22.484375 3.84375,-7.5 11.453125,-7.5 7.671873,0 11.500003,7.5 3.84375,7.5 3.84375,22.484375 0,15.046875 -3.84375,22.53125 -3.82813,7.5 -11.500003,7.5 z m 0,7.8125 q 12.265623,0 18.734373,-9.703125 6.46875,-9.6875 6.46875,-28.140625 0,-18.40625 -6.46875,-28.109375 -6.46875,-9.6875 -18.734373,-9.6875 -12.25,0 -18.71875,9.6875 -6.46875,9.703125 -6.46875,28.109375 0,18.453125 6.46875,28.140625 6.46875,9.703125 18.71875,9.703125 z"
                 style="stroke-width:0.015625;stroke-linecap:butt;stroke-linejoin:round" />
              <path
                 id="use613"
                 d="m 159.02734,66.40625 q -7.60937,0 -11.45312,-7.5 -3.82813,-7.484375 -3.82813,-22.53125 0,-14.984375 3.82813,-22.484375 3.84375,-7.5 11.45312,-7.5 7.67188,0 11.5,7.5 3.84375,7.5 3.84375,22.484375 0,15.046875 -3.84375,22.53125 -3.82812,7.5 -11.5,7.5 z m 0,7.8125 q 12.26563,0 18.73438,-9.703125 6.46875,-9.6875 6.46875,-28.140625 0,-18.40625 -6.46875,-28.109375 -6.46875,-9.6875 -18.73438,-9.6875 -12.25,0 -18.71875,9.6875 -6.46875,9.703125 -6.46875,28.109375 0,18.453125 6.46875,28.140625 6.46875,9.703125 18.71875,9.703125 z"
                 style="stroke-width:0.015625;stroke-linecap:butt;stroke-linejoin:round" />
              <path
                 id="use614"
                 d="m 222.65039,66.40625 q -7.60937,0 -11.45312,-7.5 -3.82813,-7.484375 -3.82813,-22.53125 0,-14.984375 3.82813,-22.484375 3.84375,-7.5 11.45312,-7.5 7.67188,0 11.5,7.5 3.84375,7.5 3.84375,22.484375 0,15.046875 -3.84375,22.53125 -3.82812,7.5 -11.5,7.5 z m 0,7.8125 q 12.26563,0 18.73438,-9.703125 6.46875,-9.6875 6.46875,-28.140625 0,-18.40625 -6.46875,-28.109375 -6.46875,-9.6875 -18.73438,-9.6875 -12.25,0 -18.71875,9.6875 -6.46875,9.703125 -6.46875,28.109375 0,18.453125 6.46875,28.140625 6.46875,9.703125 18.71875,9.703125 z"
                 style="stroke-width:0.015625;stroke-linecap:butt;stroke-linejoin:round" />
            </g>
          </g>
        </g>
        <g
           id="text_50"
           style="stroke-linecap:butt;stroke-linejoin:round">
          <!-- Iteration -->
          <g
             transform="matrix(0.08,0,0,-0.08,220.72562,392.63744)"
             id="g623"
             style="stroke-linecap:butt;stroke-linejoin:round">
            <defs
               id="defs614">
              <path
                 id="path2"
                 d="m 628,4666 h 631 V 0 H 628 Z"
                 transform="scale(0.015625)" />
            </defs>
            <use
               xlink:href="#DejaVuSans-49"
               id="use615"
               style="stroke-linecap:butt;stroke-linejoin:round" />
            <path
               id="use616"
               d="M 47.804687,70.21875 V 54.6875 h 18.5 v -6.984375 h -18.5 v -29.6875 q 0,-6.6875 1.828125,-8.59375 1.828125,-1.90625 7.453125,-1.90625 h 9.21875 V 0 h -9.21875 Q 46.679687,0 42.726562,3.875 38.773437,7.765625 38.773437,18.015625 v 29.6875 h -6.59375 V 54.6875 h 6.59375 v 15.53125 z"
               style="stroke-width:0.015625;stroke-linecap:butt;stroke-linejoin:round" />
            <path
               id="use617"
               d="M 124.9043,29.59375 V 25.203125 H 83.591797 q 0.59375,-9.28125 5.59375,-14.140625 5,-4.859375 13.937503,-4.859375 5.17187,0 10.03125,1.265625 4.85937,1.265625 9.65625,3.8125 v -8.5 q -4.84375,-2.046875 -9.92188,-3.125 -5.07812,-1.078125 -10.29687,-1.078125 -13.093753,0 -20.734378,7.609375 -7.640625,7.625 -7.640625,20.625 0,13.421875 7.25,21.296875 Q 88.716797,56 101.0293,56 q 11.03125,0 17.45312,-7.109375 6.42188,-7.09375 6.42188,-19.296875 z m -8.98438,2.640625 q -0.0937,7.359375 -4.125,11.75 -4.03125,4.40625 -10.67187,4.40625 -7.515628,0 -12.031253,-4.25 -4.515625,-4.25 -5.203125,-11.96875 z"
               style="stroke-width:0.015625;stroke-linecap:butt;stroke-linejoin:round" />
            <path
               id="use618"
               d="m 171.33398,46.296875 q -1.51562,0.875 -3.29687,1.28125 Q 166.25586,48 164.11523,48 156.49023,48 152.41211,43.046875 148.33398,38.09375 148.33398,28.8125 V 0 h -9.03125 v 54.6875 h 9.03125 v -8.5 q 2.84375,4.984375 7.375,7.390625 Q 160.25586,56 166.75586,56 q 0.92187,0 2.04687,-0.125 1.125,-0.109375 2.48438,-0.359375 z"
               style="stroke-width:0.015625;stroke-linecap:butt;stroke-linejoin:round" />
            <path
               id="use619"
               d="m 205.61914,27.484375 q -10.89062,0 -15.09375,-2.484375 -4.20312,-2.484375 -4.20312,-8.5 0,-4.78125 3.15625,-7.59375 3.15625,-2.796875 8.5625,-2.796875 7.48437,0 12,5.296875 4.51562,5.296875 4.51562,14.078125 v 2 z m 17.92188,3.71875 V 0 h -8.98438 v 8.296875 q -3.07812,-4.96875 -7.67187,-7.34375 -4.59375,-2.375 -11.23438,-2.375 -8.39062,0 -13.35937,4.71875 -4.95313,4.71875 -4.95313,12.625 0,9.21875 6.17188,13.90625 6.1875,4.6875 18.4375,4.6875 h 12.60937 v 0.890625 q 0,6.203125 -4.07812,9.59375 -4.07813,3.390625 -11.45313,3.390625 -4.6875,0 -9.14062,-1.125 -4.4375,-1.125 -8.53125,-3.375 v 8.3125 q 4.92187,1.90625 9.5625,2.84375 Q 195.55664,56 199.94727,56 q 11.875,0 17.73437,-6.15625 5.85938,-6.140625 5.85938,-18.640625 z"
               style="stroke-width:0.015625;stroke-linecap:butt;stroke-linejoin:round" />
            <path
               id="use620"
               d="M 250.92969,70.21875 V 54.6875 h 18.5 v -6.984375 h -18.5 v -29.6875 q 0,-6.6875 1.82812,-8.59375 1.82813,-1.90625 7.45313,-1.90625 h 9.21875 V 0 h -9.21875 q -10.40625,0 -14.35938,3.875 -3.95312,3.890625 -3.95312,14.140625 v 29.6875 h -6.59375 V 54.6875 h 6.59375 v 15.53125 z"
               style="stroke-width:0.015625;stroke-linecap:butt;stroke-linejoin:round" />
            <path
               id="use621"
               d="m 281.24805,54.6875 h 8.98437 V 0 h -8.98437 z m 0,21.296875 h 8.98437 V 64.59375 h -8.98437 z"
               style="stroke-width:0.015625;stroke-linecap:butt;stroke-linejoin:round" />
            <path
               id="use622"
               d="m 330.21875,48.390625 q -7.21875,0 -11.42188,-5.640625 -4.20312,-5.640625 -4.20312,-15.453125 0,-9.8125 4.17187,-15.453125 4.1875,-5.640625 11.45313,-5.640625 7.1875,0 11.375,5.65625 4.20312,5.671875 4.20312,15.4375 0,9.71875 -4.20312,15.40625 -4.1875,5.6875 -11.375,5.6875 z m 0,7.609375 q 11.71875,0 18.40625,-7.625 6.70312,-7.609375 6.70312,-21.078125 0,-13.421875 -6.70312,-21.078125 -6.6875,-7.640625 -18.40625,-7.640625 -11.76563,0 -18.4375,7.640625 -6.65625,7.65625 -6.65625,21.078125 0,13.46875 6.65625,21.078125 6.67187,7.625 18.4375,7.625 z"
               style="stroke-width:0.015625;stroke-linecap:butt;stroke-linejoin:round" />
            <path
               id="use623"
               d="M 415.68164,33.015625 V 0 h -8.98437 v 32.71875 q 0,7.765625 -3.03125,11.609375 -3.03125,3.859375 -9.07813,3.859375 -7.28125,0 -11.48437,-4.640625 -4.20313,-4.625 -4.20313,-12.640625 V 0 h -9.03125 v 54.6875 h 9.03125 v -8.5 q 3.23438,4.9375 7.59375,7.375 4.375,2.4375 10.09375,2.4375 9.42188,0 14.25,-5.828125 4.84375,-5.828125 4.84375,-17.15625 z"
               style="stroke-width:0.015625;stroke-linecap:butt;stroke-linejoin:round" />
          </g>
        </g>
      </g>
      <g
         id="matplotlib.axis_14"
         style="stroke-linecap:butt;stroke-linejoin:round">
        <g
           id="ytick_72"
           style="stroke-linecap:butt;stroke-linejoin:round">
          <g
             id="line2d_116"
             style="stroke-linecap:butt;stroke-linejoin:round">
            <g
               id="g624"
               style="stroke-linecap:butt;stroke-linejoin:round">
              <path
                 id="use624"
                 d="m 42.392502,359.22345 h -3.5"
                 style="stroke:#000000;stroke-width:0.8;stroke-linecap:butt;stroke-linejoin:round" />
            </g>
          </g>
          <g
             id="text_51"
             style="stroke-linecap:butt;stroke-linejoin:round">
            <!-- $\mathdefault{10^{-1}}$ -->
            <g
               transform="matrix(0.07,0,0,-0.07,18.9425,361.88291)"
               id="g628"
               style="stroke-linecap:butt;stroke-linejoin:round">
              <path
                 id="use625"
                 d="m 12.40625,8.98125 h 16.109375 v 55.625 L 10.984375,61.090625 V 70.075 l 17.4375,3.515625 H 38.28125 V 8.98125 H 54.390625 V 0.684375 H 12.40625 Z"
                 style="stroke-width:0.015625;stroke-linecap:butt;stroke-linejoin:round" />
              <path
                 id="use626"
                 d="m 95.404297,67.090625 q -7.609375,0 -11.453125,-7.5 -3.828125,-7.484375 -3.828125,-22.53125 0,-14.984375 3.828125,-22.484375 3.84375,-7.5 11.453125,-7.5 7.671873,0 11.500003,7.5 3.84375,7.5 3.84375,22.484375 0,15.046875 -3.84375,22.53125 -3.82813,7.5 -11.500003,7.5 z m 0,7.8125 q 12.265623,0 18.734373,-9.703125 6.46875,-9.6875 6.46875,-28.140625 0,-18.40625 -6.46875,-28.109375 -6.46875,-9.6875 -18.734373,-9.6875 -12.25,0 -18.71875,9.6875 -6.46875,9.703125 -6.46875,28.109375 0,18.453125 6.46875,28.140625 6.46875,9.703125 18.71875,9.703125 z"
                 style="stroke-width:0.015625;stroke-linecap:butt;stroke-linejoin:round" />
              <path
                 id="use627"
                 d="m 135.61875,63.815625 h 43.81562 v -5.807813 h -43.81562 z"
                 style="stroke-width:0.0109375;stroke-linecap:butt;stroke-linejoin:round" />
              <path
                 id="use628"
                 d="m 195.53984,44.773437 h 11.27657 v 38.9375 L 194.54453,81.25 v 6.289062 L 206.75078,90 h 6.90156 V 44.773437 h 11.27657 v -5.807812 h -29.38907 z"
                 style="stroke-width:0.0109375;stroke-linecap:butt;stroke-linejoin:round" />
            </g>
          </g>
        </g>
        <g
           id="ytick_73"
           style="stroke-linecap:butt;stroke-linejoin:round">
          <g
             id="line2d_117"
             style="stroke-linecap:butt;stroke-linejoin:round">
            <g
               id="g629"
               style="stroke-linecap:butt;stroke-linejoin:round">
              <path
                 id="use629"
                 d="m 42.392502,314.29993 h -3.5"
                 style="stroke:#000000;stroke-width:0.8;stroke-linecap:butt;stroke-linejoin:round" />
            </g>
          </g>
          <g
             id="text_52"
             style="stroke-linecap:butt;stroke-linejoin:round">
            <!-- $\mathdefault{10^{0}}$ -->
            <g
               transform="matrix(0.07,0,0,-0.07,23.0725,316.95939)"
               id="g632"
               style="stroke-linecap:butt;stroke-linejoin:round">
              <path
                 id="use630"
                 d="m 12.40625,9.0625 h 16.109375 v 55.625 l -17.53125,-3.515625 v 8.984375 l 17.4375,3.515625 H 38.28125 V 9.0625 H 54.390625 V 0.765625 H 12.40625 Z"
                 style="stroke-width:0.015625;stroke-linecap:butt;stroke-linejoin:round" />
              <path
                 id="use631"
                 d="m 95.404297,67.171875 q -7.609375,0 -11.453125,-7.5 -3.828125,-7.484375 -3.828125,-22.53125 0,-14.984375 3.828125,-22.484375 3.84375,-7.5 11.453125,-7.5 7.671873,0 11.500003,7.5 3.84375,7.5 3.84375,22.484375 0,15.046875 -3.84375,22.53125 -3.82813,7.5 -11.500003,7.5 z m 0,7.8125 q 12.265623,0 18.734373,-9.703125 6.46875,-9.6875 6.46875,-28.140625 0,-18.40625 -6.46875,-28.109375 -6.46875,-9.6875 -18.734373,-9.6875 -12.25,0 -18.71875,9.6875 -6.46875,9.703125 -6.46875,28.109375 0,18.453125 6.46875,28.140625 6.46875,9.703125 18.71875,9.703125 z"
                 style="stroke-width:0.015625;stroke-linecap:butt;stroke-linejoin:round" />
              <path
                 id="use632"
                 d="m 150.44999,85.53125 q -5.32656,0 -8.01718,-5.25 -2.67969,-5.239063 -2.67969,-15.771875 0,-10.489062 2.67969,-15.739062 2.69062,-5.25 8.01718,-5.25 5.37032,0 8.05001,5.25 2.69062,5.25 2.69062,15.739062 0,10.532812 -2.69062,15.771875 -2.67969,5.25 -8.05001,5.25 z m 0,5.46875 q 8.58594,0 13.11407,-6.792188 4.52812,-6.78125 4.52812,-19.698437 0,-12.884375 -4.52812,-19.676562 -4.52813,-6.78125 -13.11407,-6.78125 -8.57499,0 -13.10312,6.78125 -4.52813,6.792187 -4.52813,19.676562 0,12.917187 4.52813,19.698437 Q 141.875,91 150.44999,91 Z"
                 style="stroke-width:0.0109375;stroke-linecap:butt;stroke-linejoin:round" />
            </g>
          </g>
        </g>
        <g
           id="ytick_74"
           style="stroke-linecap:butt;stroke-linejoin:round">
          <g
             id="line2d_118"
             style="stroke-linecap:butt;stroke-linejoin:round">
            <g
               id="g633"
               style="stroke-linecap:butt;stroke-linejoin:round">
              <path
                 id="use633"
                 d="m 42.392502,366.18219 h -2"
                 style="stroke:#000000;stroke-width:0.6;stroke-linecap:butt;stroke-linejoin:round" />
            </g>
          </g>
        </g>
        <g
           id="ytick_75"
           style="stroke-linecap:butt;stroke-linejoin:round">
          <g
             id="line2d_119"
             style="stroke-linecap:butt;stroke-linejoin:round">
            <g
               id="g634"
               style="stroke-linecap:butt;stroke-linejoin:round">
              <path
                 id="use634"
                 d="m 42.392502,363.577 h -2"
                 style="stroke:#000000;stroke-width:0.6;stroke-linecap:butt;stroke-linejoin:round" />
            </g>
          </g>
        </g>
        <g
           id="ytick_76"
           style="stroke-linecap:butt;stroke-linejoin:round">
          <g
             id="line2d_120"
             style="stroke-linecap:butt;stroke-linejoin:round">
            <g
               id="g635"
               style="stroke-linecap:butt;stroke-linejoin:round">
              <path
                 id="use635"
                 d="m 42.392502,361.27905 h -2"
                 style="stroke:#000000;stroke-width:0.6;stroke-linecap:butt;stroke-linejoin:round" />
            </g>
          </g>
        </g>
        <g
           id="ytick_77"
           style="stroke-linecap:butt;stroke-linejoin:round">
          <g
             id="line2d_121"
             style="stroke-linecap:butt;stroke-linejoin:round">
            <g
               id="g636"
               style="stroke-linecap:butt;stroke-linejoin:round">
              <path
                 id="use636"
                 d="m 42.392502,345.70013 h -2"
                 style="stroke:#000000;stroke-width:0.6;stroke-linecap:butt;stroke-linejoin:round" />
            </g>
          </g>
        </g>
        <g
           id="ytick_78"
           style="stroke-linecap:butt;stroke-linejoin:round">
          <g
             id="line2d_122"
             style="stroke-linecap:butt;stroke-linejoin:round">
            <g
               id="g637"
               style="stroke-linecap:butt;stroke-linejoin:round">
              <path
                 id="use637"
                 d="m 42.392502,337.78949 h -2"
                 style="stroke:#000000;stroke-width:0.6;stroke-linecap:butt;stroke-linejoin:round" />
            </g>
          </g>
        </g>
        <g
           id="ytick_79"
           style="stroke-linecap:butt;stroke-linejoin:round">
          <g
             id="line2d_123"
             style="stroke-linecap:butt;stroke-linejoin:round">
            <g
               id="g638"
               style="stroke-linecap:butt;stroke-linejoin:round">
              <path
                 id="use638"
                 d="m 42.392502,332.17682 h -2"
                 style="stroke:#000000;stroke-width:0.6;stroke-linecap:butt;stroke-linejoin:round" />
            </g>
          </g>
        </g>
        <g
           id="ytick_80"
           style="stroke-linecap:butt;stroke-linejoin:round">
          <g
             id="line2d_124"
             style="stroke-linecap:butt;stroke-linejoin:round">
            <g
               id="g639"
               style="stroke-linecap:butt;stroke-linejoin:round">
              <path
                 id="use639"
                 d="m 42.392502,327.82327 h -2"
                 style="stroke:#000000;stroke-width:0.6;stroke-linecap:butt;stroke-linejoin:round" />
            </g>
          </g>
        </g>
        <g
           id="ytick_81"
           style="stroke-linecap:butt;stroke-linejoin:round">
          <g
             id="line2d_125"
             style="stroke-linecap:butt;stroke-linejoin:round">
            <g
               id="g640"
               style="stroke-linecap:butt;stroke-linejoin:round">
              <path
                 id="use640"
                 d="m 42.392502,324.26617 h -2"
                 style="stroke:#000000;stroke-width:0.6;stroke-linecap:butt;stroke-linejoin:round" />
            </g>
          </g>
        </g>
        <g
           id="ytick_82"
           style="stroke-linecap:butt;stroke-linejoin:round">
          <g
             id="line2d_126"
             style="stroke-linecap:butt;stroke-linejoin:round">
            <g
               id="g641"
               style="stroke-linecap:butt;stroke-linejoin:round">
              <path
                 id="use641"
                 d="m 42.392502,321.25867 h -2"
                 style="stroke:#000000;stroke-width:0.6;stroke-linecap:butt;stroke-linejoin:round" />
            </g>
          </g>
        </g>
        <g
           id="ytick_83"
           style="stroke-linecap:butt;stroke-linejoin:round">
          <g
             id="line2d_127"
             style="stroke-linecap:butt;stroke-linejoin:round">
            <g
               id="g642"
               style="stroke-linecap:butt;stroke-linejoin:round">
              <path
                 id="use642"
                 d="m 42.392502,318.65347 h -2"
                 style="stroke:#000000;stroke-width:0.6;stroke-linecap:butt;stroke-linejoin:round" />
            </g>
          </g>
        </g>
        <g
           id="ytick_84"
           style="stroke-linecap:butt;stroke-linejoin:round">
          <g
             id="line2d_128"
             style="stroke-linecap:butt;stroke-linejoin:round">
            <g
               id="g643"
               style="stroke-linecap:butt;stroke-linejoin:round">
              <path
                 id="use643"
                 d="m 42.392502,316.35553 h -2"
                 style="stroke:#000000;stroke-width:0.6;stroke-linecap:butt;stroke-linejoin:round" />
            </g>
          </g>
        </g>
        <g
           id="text_53"
           style="stroke-linecap:butt;stroke-linejoin:round">
          <!-- Objective Value -->
          <g
             transform="matrix(0,-0.08,-0.08,0,13.27875,366.74437)"
             id="g658"
             style="stroke-linecap:butt;stroke-linejoin:round">
            <path
               id="use644"
               d="m 39.40625,66.21875 q -10.75,0 -17.078125,-8.015625 -6.3125,-8 -6.3125,-21.828125 0,-13.765625 6.3125,-21.78125 6.328125,-8 17.078125,-8 10.734375,0 17.015625,8 6.28125,8.015625 6.28125,21.78125 0,13.828125 -6.28125,21.828125 -6.28125,8.015625 -17.015625,8.015625 z m 0,8 q 15.328125,0 24.5,-10.28125 9.1875,-10.28125 9.1875,-27.5625 0,-17.234375 -9.1875,-27.515625 -9.171875,-10.28125 -24.5,-10.28125 -15.375,0 -24.59375,10.25 Q 5.609375,19.09375 5.609375,36.375 q 0,17.28125 9.203125,27.5625 9.21875,10.28125 24.59375,10.28125 z"
               style="stroke-width:0.015625;stroke-linecap:butt;stroke-linejoin:round" />
            <path
               id="use645"
               d="m 127.39844,27.296875 q 0,9.90625 -4.07813,15.546875 -4.07812,5.640625 -11.20312,5.640625 -7.14063,0 -11.21875,-5.640625 -4.078128,-5.640625 -4.078128,-15.546875 0,-9.90625 4.078128,-15.546875 4.07812,-5.640625 11.21875,-5.640625 7.125,0 11.20312,5.640625 4.07813,5.640625 4.07813,15.546875 z m -30.578128,19.09375 q 2.84375,4.875 7.156248,7.234375 4.32813,2.375 10.32813,2.375 9.96875,0 16.1875,-7.90625 6.23437,-7.90625 6.23437,-20.796875 0,-12.890625 -6.23437,-20.8125 -6.21875,-7.90625 -16.1875,-7.90625 -6,0 -10.32813,2.375 -4.312498,2.375 -7.156248,7.25 V 0 h -9.03125 v 75.984375 h 9.03125 z"
               style="stroke-width:0.015625;stroke-linecap:butt;stroke-linejoin:round" />
            <path
               id="use646"
               d="m 151.60937,54.6875 h 8.98438 V -0.984375 q 0,-10.4375 -3.98438,-15.125 -3.96875,-4.6875 -12.8125,-4.6875 H 140.375 v 7.609375 h 2.40625 q 5.125,0 6.96875,2.375 1.85937,2.359375 1.85937,9.828125 z m 0,21.296875 h 8.98438 V 64.59375 h -8.98438 z"
               style="stroke-width:0.015625;stroke-linecap:butt;stroke-linejoin:round" />
            <path
               id="use647"
               d="m 226.17383,29.59375 v -4.390625 h -41.3125 q 0.59375,-9.28125 5.59375,-14.140625 5,-4.859375 13.9375,-4.859375 5.17187,0 10.03125,1.265625 4.85937,1.265625 9.65625,3.8125 v -8.5 q -4.84375,-2.046875 -9.92188,-3.125 -5.07812,-1.078125 -10.29687,-1.078125 -13.09375,0 -20.73438,7.609375 -7.64062,7.625 -7.64062,20.625 0,13.421875 7.25,21.296875 Q 189.98633,56 202.29883,56 q 11.03125,0 17.45312,-7.109375 6.42188,-7.09375 6.42188,-19.296875 z m -8.98438,2.640625 q -0.0937,7.359375 -4.125,11.75 -4.03125,4.40625 -10.67187,4.40625 -7.51563,0 -12.03125,-4.25 -4.51563,-4.25 -5.20313,-11.96875 z"
               style="stroke-width:0.015625;stroke-linecap:butt;stroke-linejoin:round" />
            <path
               id="use648"
               d="M 280.27539,52.59375 V 44.1875 q -3.8125,2.109375 -7.64062,3.15625 -3.82813,1.046875 -7.73438,1.046875 -8.75,0 -13.59375,-5.546875 -4.82812,-5.53125 -4.82812,-15.546875 0,-10.015625 4.82812,-15.5625 4.84375,-5.53125 13.59375,-5.53125 3.90625,0 7.73438,1.046875 3.82812,1.046875 7.64062,3.15625 v -8.3125 q -3.76562,-1.75 -7.79687,-2.625 -4.01563,-0.890625 -8.5625,-0.890625 -12.35938,0 -19.64063,7.765625 -7.26562,7.765625 -7.26562,20.953125 0,13.375 7.34375,21.03125 Q 251.71289,56 264.50977,56 q 4.14062,0 8.09375,-0.859375 3.95312,-0.84375 7.67187,-2.546875 z"
               style="stroke-width:0.015625;stroke-linecap:butt;stroke-linejoin:round" />
            <path
               id="use649"
               d="M 304.78711,70.21875 V 54.6875 h 18.5 v -6.984375 h -18.5 v -29.6875 q 0,-6.6875 1.82812,-8.59375 1.82813,-1.90625 7.45313,-1.90625 h 9.21875 V 0 h -9.21875 q -10.40625,0 -14.35938,3.875 -3.95312,3.890625 -3.95312,14.140625 v 29.6875 h -6.59375 V 54.6875 h 6.59375 v 15.53125 z"
               style="stroke-width:0.015625;stroke-linecap:butt;stroke-linejoin:round" />
            <path
               id="use650"
               d="m 335.10547,54.6875 h 8.98437 V 0 h -8.98437 z m 0,21.296875 h 8.98437 V 64.59375 h -8.98437 z"
               style="stroke-width:0.015625;stroke-linecap:butt;stroke-linejoin:round" />
            <path
               id="use651"
               d="m 356.45117,54.6875 h 9.51563 L 383.06055,8.796875 400.1543,54.6875 h 9.51562 L 389.1543,0 h -12.20313 z"
               style="stroke-width:0.015625;stroke-linecap:butt;stroke-linejoin:round" />
            <path
               id="use652"
               d="m 468.84961,29.59375 v -4.390625 h -41.3125 q 0.59375,-9.28125 5.59375,-14.140625 5,-4.859375 13.9375,-4.859375 5.17187,0 10.03125,1.265625 4.85937,1.265625 9.65625,3.8125 v -8.5 q -4.84375,-2.046875 -9.92188,-3.125 -5.07812,-1.078125 -10.29687,-1.078125 -13.09375,0 -20.73438,7.609375 -7.64062,7.625 -7.64062,20.625 0,13.421875 7.25,21.296875 Q 432.66211,56 444.97461,56 q 11.03125,0 17.45312,-7.109375 6.42188,-7.09375 6.42188,-19.296875 z m -8.98438,2.640625 q -0.0937,7.359375 -4.125,11.75 -4.03125,4.40625 -10.67187,4.40625 -7.51563,0 -12.03125,-4.25 -4.51563,-4.25 -5.20313,-11.96875 z"
               style="stroke-width:0.015625;stroke-linecap:butt;stroke-linejoin:round" />
            <path
               id="use653"
               d=""
               style="stroke-width:0.015625;stroke-linecap:butt;stroke-linejoin:round" />
            <path
               id="use654"
               d="m 534.56641,0 -27.82813,72.90625 h 10.29688 l 23.10937,-61.375 23.14063,61.375 h 10.25 L 545.75391,0 Z"
               style="stroke-width:0.015625;stroke-linecap:butt;stroke-linejoin:round" />
            <path
               id="use655"
               d="m 600.89648,27.484375 q -10.89062,0 -15.09375,-2.484375 -4.20312,-2.484375 -4.20312,-8.5 0,-4.78125 3.15625,-7.59375 3.15625,-2.796875 8.5625,-2.796875 7.48437,0 12,5.296875 4.51562,5.296875 4.51562,14.078125 v 2 z m 17.92188,3.71875 V 0 h -8.98438 v 8.296875 q -3.07812,-4.96875 -7.67187,-7.34375 -4.59375,-2.375 -11.23438,-2.375 -8.39062,0 -13.35937,4.71875 -4.95313,4.71875 -4.95313,12.625 0,9.21875 6.17188,13.90625 6.1875,4.6875 18.4375,4.6875 h 12.60937 v 0.890625 q 0,6.203125 -4.07812,9.59375 -4.07813,3.390625 -11.45313,3.390625 -4.6875,0 -9.14062,-1.125 -4.4375,-1.125 -8.53125,-3.375 v 8.3125 q 4.92187,1.90625 9.5625,2.84375 Q 590.83398,56 595.22461,56 q 11.875,0 17.73437,-6.15625 5.85938,-6.140625 5.85938,-18.640625 z"
               style="stroke-width:0.015625;stroke-linecap:butt;stroke-linejoin:round" />
            <path
               id="use656"
               d="m 637.31641,75.984375 h 8.98437 V 0 h -8.98437 z"
               style="stroke-width:0.015625;stroke-linecap:butt;stroke-linejoin:round" />
            <path
               id="use657"
               d="M 664.17773,21.578125 V 54.6875 h 8.98438 V 21.921875 q 0,-7.765625 3.01562,-11.65625 3.03125,-3.875 9.09375,-3.875 7.26563,0 11.48438,4.640625 4.23437,4.640625 4.23437,12.65625 v 31 h 8.98438 V 0 h -8.98438 V 8.40625 Q 697.72461,3.421875 693.39648,1 q -4.3125,-2.421875 -10.03125,-2.421875 -9.42187,0 -14.3125,5.859375 -4.875,5.859375 -4.875,17.140625 z M 686.78711,56 Z"
               style="stroke-width:0.015625;stroke-linecap:butt;stroke-linejoin:round" />
            <path
               id="use658"
               d="m 775.25977,29.59375 v -4.390625 h -41.3125 q 0.59375,-9.28125 5.59375,-14.140625 5,-4.859375 13.9375,-4.859375 5.17187,0 10.03125,1.265625 4.85937,1.265625 9.65625,3.8125 v -8.5 q -4.84375,-2.046875 -9.92188,-3.125 -5.07812,-1.078125 -10.29687,-1.078125 -13.09375,0 -20.73438,7.609375 -7.64062,7.625 -7.64062,20.625 0,13.421875 7.25,21.296875 Q 739.07227,56 751.38477,56 q 11.03125,0 17.45312,-7.109375 6.42188,-7.09375 6.42188,-19.296875 z m -8.98438,2.640625 q -0.0937,7.359375 -4.125,11.75 -4.03125,4.40625 -10.67187,4.40625 -7.51563,0 -12.03125,-4.25 -4.51563,-4.25 -5.20313,-11.96875 z"
               style="stroke-width:0.015625;stroke-linecap:butt;stroke-linejoin:round" />
          </g>
        </g>
      </g>
      <g
         id="line2d_129"
         style="stroke-linecap:butt;stroke-linejoin:round">
        <path
           d="m 60.147045,305.28 5.859977,11.04837 5.919168,0.26669 5.919169,1.0664 5.919168,0.5992 5.919169,0.99271"
           clip-path="url(#p6047476d79)"
           style="fill:none;stroke:#808080;stroke-width:1.2;stroke-linecap:square;stroke-linejoin:round"
           id="path658" />
      </g>
      <g
         id="line2d_130"
         style="stroke-linecap:butt;stroke-linejoin:round">
        <path
           d="m 89.683696,319.25337 5.919168,0.89253 5.919166,0.36512 5.91917,0.20214 5.91917,-0.0532 5.91917,0.41022 5.91917,1.71639 5.91916,1.39868 5.91917,1.12683 5.91917,1.97598 5.91917,3.91683 5.91917,3.42427 5.91917,3.75161 5.91916,5.1981 5.91917,7.55933 5.91917,1.45992 5.91917,3.50478 5.91917,2.47225 5.91917,2.19439 5.91916,2.91728 5.91917,-1.20935 5.91917,0.85014 5.91917,0.4453 5.91917,1.98708 5.91917,-0.49943 5.91916,-0.006 5.91917,-0.0211 5.91917,0.13634 5.91917,-0.691 5.91917,-0.10606 5.91917,0.55507 5.91916,0.20425 5.91917,0.12124 5.91917,0.0119 5.91917,-0.14845 5.91917,-0.30141 5.91917,0.0105 5.91916,0.18959 5.91917,0.0973 5.91917,0.0696 5.91917,-0.28129 5.91917,-0.23648 5.91917,0.15263 5.91916,0.17362 5.91917,0.23024 5.91917,-0.0188 5.91917,-0.002 5.91917,-0.33065 5.91917,-0.0341 5.91916,-0.0263 5.91917,0.30169 5.91917,0.0481 5.91917,0.0934 5.91917,-0.0321 5.91917,-0.1959 5.91916,-0.13661"
           clip-path="url(#p6047476d79)"
           style="fill:none;stroke:#808080;stroke-width:1.2;stroke-linecap:square;stroke-linejoin:round"
           id="path659" />
      </g>
      <g
         id="patch_30"
         style="stroke-linecap:butt;stroke-linejoin:round">
        <path
           d="M 42.3925,368.784 V 302.256"
           style="fill:none;stroke:#000000;stroke-width:0.8;stroke-linecap:square;stroke-linejoin:miter"
           id="path660" />
      </g>
      <g
         id="patch_31"
         style="stroke-linecap:butt;stroke-linejoin:round">
        <path
           d="M 432.9925,368.784 V 302.256"
           style="fill:none;stroke:#000000;stroke-width:0.8;stroke-linecap:square;stroke-linejoin:miter"
           id="path661" />
      </g>
      <g
         id="patch_32"
         style="stroke-linecap:butt;stroke-linejoin:round">
        <path
           d="m 42.3925,368.784 h 390.6"
           style="fill:none;stroke:#000000;stroke-width:0.8;stroke-linecap:square;stroke-linejoin:miter"
           id="path662" />
      </g>
      <g
         id="patch_33"
         style="stroke-linecap:butt;stroke-linejoin:round">
        <path
           d="m 42.3925,302.256 h 390.6"
           style="fill:none;stroke:#000000;stroke-width:0.8;stroke-linecap:square;stroke-linejoin:miter"
           id="path663" />
      </g>
    </g>
  </g>
</svg>
