<?xml version="1.0" encoding="utf-8" standalone="no"?>
<!DOCTYPE svg PUBLIC "-//W3C//DTD SVG 1.1//EN"
  "http://www.w3.org/Graphics/SVG/1.1/DTD/svg11.dtd">
<svg xmlns:xlink="http://www.w3.org/1999/xlink" width="467.999659pt" height="295.2pt" viewBox="0 0 467.999659 295.2" xmlns="http://www.w3.org/2000/svg" version="1.1">
 <metadata>
  <rdf:RDF xmlns:dc="http://purl.org/dc/elements/1.1/" xmlns:cc="http://creativecommons.org/ns#" xmlns:rdf="http://www.w3.org/1999/02/22-rdf-syntax-ns#">
   <cc:Work>
    <dc:type rdf:resource="http://purl.org/dc/dcmitype/StillImage"/>
    <dc:date>2025-10-13T16:41:54.964219</dc:date>
    <dc:format>image/svg+xml</dc:format>
    <dc:creator>
     <cc:Agent>
      <dc:title>Matplotlib v3.9.2, https://matplotlib.org/</dc:title>
     </cc:Agent>
    </dc:creator>
   </cc:Work>
  </rdf:RDF>
 </metadata>
 <defs>
  <style type="text/css">*{stroke-linejoin: round; stroke-linecap: butt}</style>
 </defs>
 <g id="figure_1">
  <g id="patch_1">
   <path d="M 0 295.2 
L 467.999659 295.2 
L 467.999659 0 
L 0 0 
z
" style="fill: #ffffff"/>
  </g>
  <g id="axes_1">
   <g id="patch_2">
    <path d="M 41.680312 123.88625 
L 219.930811 123.88625 
L 219.930811 10.239375 
L 41.680312 10.239375 
z
" style="fill: #ffffff"/>
   </g>
   <g id="patch_3">
    <path d="M 209.532866 123.88625 
L 212.503707 123.88625 
L 212.503707 108.983037 
L 209.532866 108.983037 
z
" clip-path="url(#p098c874760)"/>
   </g>
   <g id="patch_4">
    <path d="M 197.649499 123.88625 
L 200.620341 123.88625 
L 200.620341 109.337327 
L 197.649499 109.337327 
z
" clip-path="url(#p098c874760)"/>
   </g>
   <g id="patch_5">
    <path d="M 185.766132 123.88625 
L 188.736974 123.88625 
L 188.736974 109.588307 
L 185.766132 109.588307 
z
" clip-path="url(#p098c874760)"/>
   </g>
   <g id="patch_6">
    <path d="M 173.882766 123.88625 
L 176.853607 123.88625 
L 176.853607 110.215252 
L 173.882766 110.215252 
z
" clip-path="url(#p098c874760)"/>
   </g>
   <g id="patch_7">
    <path d="M 161.999399 123.88625 
L 164.970241 123.88625 
L 164.970241 110.336785 
L 161.999399 110.336785 
z
" clip-path="url(#p098c874760)"/>
   </g>
   <g id="patch_8">
    <path d="M 150.116033 123.88625 
L 153.086874 123.88625 
L 153.086874 109.54584 
L 150.116033 109.54584 
z
" clip-path="url(#p098c874760)"/>
   </g>
   <g id="patch_9">
    <path d="M 138.232666 123.88625 
L 141.203508 123.88625 
L 141.203508 109.771091 
L 138.232666 109.771091 
z
" clip-path="url(#p098c874760)"/>
   </g>
   <g id="patch_10">
    <path d="M 126.349299 123.88625 
L 129.320141 123.88625 
L 129.320141 110.129616 
L 126.349299 110.129616 
z
" clip-path="url(#p098c874760)"/>
   </g>
   <g id="patch_11">
    <path d="M 114.465933 123.88625 
L 117.436775 123.88625 
L 117.436775 110.747636 
L 114.465933 110.747636 
z
" clip-path="url(#p098c874760)"/>
   </g>
   <g id="patch_12">
    <path d="M 102.582566 123.88625 
L 105.553408 123.88625 
L 105.553408 110.889609 
L 102.582566 110.889609 
z
" clip-path="url(#p098c874760)"/>
   </g>
   <g id="patch_13">
    <path d="M 90.6992 123.88625 
L 93.670041 123.88625 
L 93.670041 109.947394 
L 90.6992 109.947394 
z
" clip-path="url(#p098c874760)"/>
   </g>
   <g id="patch_14">
    <path d="M 78.815833 123.88625 
L 81.786675 123.88625 
L 81.786675 110.653305 
L 78.815833 110.653305 
z
" clip-path="url(#p098c874760)"/>
   </g>
   <g id="patch_15">
    <path d="M 66.932467 123.88625 
L 69.903308 123.88625 
L 69.903308 110.503124 
L 66.932467 110.503124 
z
" clip-path="url(#p098c874760)"/>
   </g>
   <g id="patch_16">
    <path d="M 55.0491 123.88625 
L 58.019942 123.88625 
L 58.019942 110.717562 
L 55.0491 110.717562 
z
" clip-path="url(#p098c874760)"/>
   </g>
   <g id="patch_17">
    <path d="M 43.165733 123.88625 
L 46.136575 123.88625 
L 46.136575 111.374342 
L 43.165733 111.374342 
z
" clip-path="url(#p098c874760)"/>
   </g>
   <g id="patch_18">
    <path d="M 212.503707 123.88625 
L 215.474549 123.88625 
L 215.474549 43.109335 
L 212.503707 43.109335 
z
" clip-path="url(#p098c874760)" style="fill: #2255a0; fill-opacity: 0.501961"/>
   </g>
   <g id="patch_19">
    <path d="M 200.620341 123.88625 
L 203.591182 123.88625 
L 203.591182 58.486218 
L 200.620341 58.486218 
z
" clip-path="url(#p098c874760)" style="fill: #2255a0; fill-opacity: 0.501961"/>
   </g>
   <g id="patch_20">
    <path d="M 188.736974 123.88625 
L 191.707816 123.88625 
L 191.707816 69.723843 
L 188.736974 69.723843 
z
" clip-path="url(#p098c874760)" style="fill: #2255a0; fill-opacity: 0.501961"/>
   </g>
   <g id="patch_21">
    <path d="M 176.853607 123.88625 
L 179.824449 123.88625 
L 179.824449 81.504924 
L 176.853607 81.504924 
z
" clip-path="url(#p098c874760)" style="fill: #2255a0; fill-opacity: 0.501961"/>
   </g>
   <g id="patch_22">
    <path d="M 164.970241 123.88625 
L 167.941083 123.88625 
L 167.941083 90.239021 
L 164.970241 90.239021 
z
" clip-path="url(#p098c874760)" style="fill: #2255a0; fill-opacity: 0.501961"/>
   </g>
   <g id="patch_23">
    <path d="M 153.086874 123.88625 
L 156.057716 123.88625 
L 156.057716 97.245878 
L 153.086874 97.245878 
z
" clip-path="url(#p098c874760)" style="fill: #2255a0; fill-opacity: 0.501961"/>
   </g>
   <g id="patch_24">
    <path d="M 141.203508 123.88625 
L 144.174349 123.88625 
L 144.174349 105.779288 
L 141.203508 105.779288 
z
" clip-path="url(#p098c874760)" style="fill: #2255a0; fill-opacity: 0.501961"/>
   </g>
   <g id="patch_25">
    <path d="M 129.320141 123.88625 
L 132.290983 123.88625 
L 132.290983 111.22606 
L 129.320141 111.22606 
z
" clip-path="url(#p098c874760)" style="fill: #2255a0; fill-opacity: 0.501961"/>
   </g>
   <g id="patch_26">
    <path d="M 117.436775 123.88625 
L 120.407616 123.88625 
L 120.407616 114.535088 
L 117.436775 114.535088 
z
" clip-path="url(#p098c874760)" style="fill: #2255a0; fill-opacity: 0.501961"/>
   </g>
   <g id="patch_27">
    <path d="M 105.553408 123.88625 
L 108.52425 123.88625 
L 108.52425 116.227028 
L 105.553408 116.227028 
z
" clip-path="url(#p098c874760)" style="fill: #2255a0; fill-opacity: 0.501961"/>
   </g>
   <g id="patch_28">
    <path d="M 93.670041 123.88625 
L 96.640883 123.88625 
L 96.640883 116.651435 
L 93.670041 116.651435 
z
" clip-path="url(#p098c874760)" style="fill: #2255a0; fill-opacity: 0.501961"/>
   </g>
   <g id="patch_29">
    <path d="M 81.786675 123.88625 
L 84.757516 123.88625 
L 84.757516 117.14099 
L 81.786675 117.14099 
z
" clip-path="url(#p098c874760)" style="fill: #2255a0; fill-opacity: 0.501961"/>
   </g>
   <g id="patch_30">
    <path d="M 69.903308 123.88625 
L 72.87415 123.88625 
L 72.87415 117.073727 
L 69.903308 117.073727 
z
" clip-path="url(#p098c874760)" style="fill: #2255a0; fill-opacity: 0.501961"/>
   </g>
   <g id="patch_31">
    <path d="M 58.019942 123.88625 
L 60.990783 123.88625 
L 60.990783 116.641458 
L 58.019942 116.641458 
z
" clip-path="url(#p098c874760)" style="fill: #2255a0; fill-opacity: 0.501961"/>
   </g>
   <g id="patch_32">
    <path d="M 46.136575 123.88625 
L 49.107417 123.88625 
L 49.107417 116.501214 
L 46.136575 116.501214 
z
" clip-path="url(#p098c874760)" style="fill: #2255a0; fill-opacity: 0.501961"/>
   </g>
   <g id="patch_33">
    <path d="M 215.474549 123.88625 
L 218.445391 123.88625 
L 218.445391 29.180521 
L 215.474549 29.180521 
z
" clip-path="url(#p098c874760)" style="fill: #8e8e8e"/>
   </g>
   <g id="patch_34">
    <path d="M 203.591182 123.88625 
L 206.562024 123.88625 
L 206.562024 44.712406 
L 203.591182 44.712406 
z
" clip-path="url(#p098c874760)" style="fill: #8e8e8e"/>
   </g>
   <g id="patch_35">
    <path d="M 191.707816 123.88625 
L 194.678657 123.88625 
L 194.678657 56.016119 
L 191.707816 56.016119 
z
" clip-path="url(#p098c874760)" style="fill: #8e8e8e"/>
   </g>
   <g id="patch_36">
    <path d="M 179.824449 123.88625 
L 182.795291 123.88625 
L 182.795291 68.272928 
L 179.824449 68.272928 
z
" clip-path="url(#p098c874760)" style="fill: #8e8e8e"/>
   </g>
   <g id="patch_37">
    <path d="M 167.941083 123.88625 
L 170.911924 123.88625 
L 170.911924 77.012928 
L 167.941083 77.012928 
z
" clip-path="url(#p098c874760)" style="fill: #8e8e8e"/>
   </g>
   <g id="patch_38">
    <path d="M 156.057716 123.88625 
L 159.028558 123.88625 
L 159.028558 83.138032 
L 156.057716 83.138032 
z
" clip-path="url(#p098c874760)" style="fill: #8e8e8e"/>
   </g>
   <g id="patch_39">
    <path d="M 144.174349 123.88625 
L 147.145191 123.88625 
L 147.145191 91.825987 
L 144.174349 91.825987 
z
" clip-path="url(#p098c874760)" style="fill: #8e8e8e"/>
   </g>
   <g id="patch_40">
    <path d="M 132.290983 123.88625 
L 135.261824 123.88625 
L 135.261824 97.588773 
L 132.290983 97.588773 
z
" clip-path="url(#p098c874760)" style="fill: #8e8e8e"/>
   </g>
   <g id="patch_41">
    <path d="M 120.407616 123.88625 
L 123.378458 123.88625 
L 123.378458 101.501929 
L 120.407616 101.501929 
z
" clip-path="url(#p098c874760)" style="fill: #8e8e8e"/>
   </g>
   <g id="patch_42">
    <path d="M 108.52425 123.88625 
L 111.495091 123.88625 
L 111.495091 103.314976 
L 108.52425 103.314976 
z
" clip-path="url(#p098c874760)" style="fill: #8e8e8e"/>
   </g>
   <g id="patch_43">
    <path d="M 96.640883 123.88625 
L 99.611725 123.88625 
L 99.611725 102.832237 
L 96.640883 102.832237 
z
" clip-path="url(#p098c874760)" style="fill: #8e8e8e"/>
   </g>
   <g id="patch_44">
    <path d="M 84.757516 123.88625 
L 87.728358 123.88625 
L 87.728358 104.033783 
L 84.757516 104.033783 
z
" clip-path="url(#p098c874760)" style="fill: #8e8e8e"/>
   </g>
   <g id="patch_45">
    <path d="M 72.87415 123.88625 
L 75.844991 123.88625 
L 75.844991 103.791443 
L 72.87415 103.791443 
z
" clip-path="url(#p098c874760)" style="fill: #8e8e8e"/>
   </g>
   <g id="patch_46">
    <path d="M 60.990783 123.88625 
L 63.961625 123.88625 
L 63.961625 103.592566 
L 60.990783 103.592566 
z
" clip-path="url(#p098c874760)" style="fill: #8e8e8e"/>
   </g>
   <g id="patch_47">
    <path d="M 49.107417 123.88625 
L 52.078258 123.88625 
L 52.078258 104.107511 
L 49.107417 104.107511 
z
" clip-path="url(#p098c874760)" style="fill: #8e8e8e"/>
   </g>
   <g id="matplotlib.axis_1">
    <g id="xtick_1">
     <g id="line2d_1">
      <defs>
       <path id="mb7aaa4bdb6" d="M 0 0 
L 0 3 
" style="stroke: #000000; stroke-width: 0.8"/>
      </defs>
      <g>
       <use xlink:href="#mb7aaa4bdb6" x="47.621996" y="123.88625" style="stroke: #000000; stroke-width: 0.8"/>
      </g>
     </g>
     <g id="text_1">
      <!-- 2010 -->
      <g transform="translate(37.441996 136.465) scale(0.08 -0.08)">
       <defs>
        <path id="DejaVuSans-32" d="M 1228 531 
L 3431 531 
L 3431 0 
L 469 0 
L 469 531 
Q 828 903 1448 1529 
Q 2069 2156 2228 2338 
Q 2531 2678 2651 2914 
Q 2772 3150 2772 3378 
Q 2772 3750 2511 3984 
Q 2250 4219 1831 4219 
Q 1534 4219 1204 4116 
Q 875 4013 500 3803 
L 500 4441 
Q 881 4594 1212 4672 
Q 1544 4750 1819 4750 
Q 2544 4750 2975 4387 
Q 3406 4025 3406 3419 
Q 3406 3131 3298 2873 
Q 3191 2616 2906 2266 
Q 2828 2175 2409 1742 
Q 1991 1309 1228 531 
z
" transform="scale(0.015625)"/>
        <path id="DejaVuSans-30" d="M 2034 4250 
Q 1547 4250 1301 3770 
Q 1056 3291 1056 2328 
Q 1056 1369 1301 889 
Q 1547 409 2034 409 
Q 2525 409 2770 889 
Q 3016 1369 3016 2328 
Q 3016 3291 2770 3770 
Q 2525 4250 2034 4250 
z
M 2034 4750 
Q 2819 4750 3233 4129 
Q 3647 3509 3647 2328 
Q 3647 1150 3233 529 
Q 2819 -91 2034 -91 
Q 1250 -91 836 529 
Q 422 1150 422 2328 
Q 422 3509 836 4129 
Q 1250 4750 2034 4750 
z
" transform="scale(0.015625)"/>
        <path id="DejaVuSans-31" d="M 794 531 
L 1825 531 
L 1825 4091 
L 703 3866 
L 703 4441 
L 1819 4666 
L 2450 4666 
L 2450 531 
L 3481 531 
L 3481 0 
L 794 0 
L 794 531 
z
" transform="scale(0.015625)"/>
       </defs>
       <use xlink:href="#DejaVuSans-32"/>
       <use xlink:href="#DejaVuSans-30" x="63.623047"/>
       <use xlink:href="#DejaVuSans-31" x="127.246094"/>
       <use xlink:href="#DejaVuSans-30" x="190.869141"/>
      </g>
     </g>
    </g>
    <g id="xtick_2">
     <g id="line2d_2">
      <g>
       <use xlink:href="#mb7aaa4bdb6" x="71.388729" y="123.88625" style="stroke: #000000; stroke-width: 0.8"/>
      </g>
     </g>
     <g id="text_2">
      <!-- 2012 -->
      <g transform="translate(61.208729 136.465) scale(0.08 -0.08)">
       <use xlink:href="#DejaVuSans-32"/>
       <use xlink:href="#DejaVuSans-30" x="63.623047"/>
       <use xlink:href="#DejaVuSans-31" x="127.246094"/>
       <use xlink:href="#DejaVuSans-32" x="190.869141"/>
      </g>
     </g>
    </g>
    <g id="xtick_3">
     <g id="line2d_3">
      <g>
       <use xlink:href="#mb7aaa4bdb6" x="95.155462" y="123.88625" style="stroke: #000000; stroke-width: 0.8"/>
      </g>
     </g>
     <g id="text_3">
      <!-- 2014 -->
      <g transform="translate(84.975462 136.465) scale(0.08 -0.08)">
       <defs>
        <path id="DejaVuSans-34" d="M 2419 4116 
L 825 1625 
L 2419 1625 
L 2419 4116 
z
M 2253 4666 
L 3047 4666 
L 3047 1625 
L 3713 1625 
L 3713 1100 
L 3047 1100 
L 3047 0 
L 2419 0 
L 2419 1100 
L 313 1100 
L 313 1709 
L 2253 4666 
z
" transform="scale(0.015625)"/>
       </defs>
       <use xlink:href="#DejaVuSans-32"/>
       <use xlink:href="#DejaVuSans-30" x="63.623047"/>
       <use xlink:href="#DejaVuSans-31" x="127.246094"/>
       <use xlink:href="#DejaVuSans-34" x="190.869141"/>
      </g>
     </g>
    </g>
    <g id="xtick_4">
     <g id="line2d_4">
      <g>
       <use xlink:href="#mb7aaa4bdb6" x="118.922195" y="123.88625" style="stroke: #000000; stroke-width: 0.8"/>
      </g>
     </g>
     <g id="text_4">
      <!-- 2016 -->
      <g transform="translate(108.742195 136.465) scale(0.08 -0.08)">
       <defs>
        <path id="DejaVuSans-36" d="M 2113 2584 
Q 1688 2584 1439 2293 
Q 1191 2003 1191 1497 
Q 1191 994 1439 701 
Q 1688 409 2113 409 
Q 2538 409 2786 701 
Q 3034 994 3034 1497 
Q 3034 2003 2786 2293 
Q 2538 2584 2113 2584 
z
M 3366 4563 
L 3366 3988 
Q 3128 4100 2886 4159 
Q 2644 4219 2406 4219 
Q 1781 4219 1451 3797 
Q 1122 3375 1075 2522 
Q 1259 2794 1537 2939 
Q 1816 3084 2150 3084 
Q 2853 3084 3261 2657 
Q 3669 2231 3669 1497 
Q 3669 778 3244 343 
Q 2819 -91 2113 -91 
Q 1303 -91 875 529 
Q 447 1150 447 2328 
Q 447 3434 972 4092 
Q 1497 4750 2381 4750 
Q 2619 4750 2861 4703 
Q 3103 4656 3366 4563 
z
" transform="scale(0.015625)"/>
       </defs>
       <use xlink:href="#DejaVuSans-32"/>
       <use xlink:href="#DejaVuSans-30" x="63.623047"/>
       <use xlink:href="#DejaVuSans-31" x="127.246094"/>
       <use xlink:href="#DejaVuSans-36" x="190.869141"/>
      </g>
     </g>
    </g>
    <g id="xtick_5">
     <g id="line2d_5">
      <g>
       <use xlink:href="#mb7aaa4bdb6" x="142.688929" y="123.88625" style="stroke: #000000; stroke-width: 0.8"/>
      </g>
     </g>
     <g id="text_5">
      <!-- 2018 -->
      <g transform="translate(132.508929 136.465) scale(0.08 -0.08)">
       <defs>
        <path id="DejaVuSans-38" d="M 2034 2216 
Q 1584 2216 1326 1975 
Q 1069 1734 1069 1313 
Q 1069 891 1326 650 
Q 1584 409 2034 409 
Q 2484 409 2743 651 
Q 3003 894 3003 1313 
Q 3003 1734 2745 1975 
Q 2488 2216 2034 2216 
z
M 1403 2484 
Q 997 2584 770 2862 
Q 544 3141 544 3541 
Q 544 4100 942 4425 
Q 1341 4750 2034 4750 
Q 2731 4750 3128 4425 
Q 3525 4100 3525 3541 
Q 3525 3141 3298 2862 
Q 3072 2584 2669 2484 
Q 3125 2378 3379 2068 
Q 3634 1759 3634 1313 
Q 3634 634 3220 271 
Q 2806 -91 2034 -91 
Q 1263 -91 848 271 
Q 434 634 434 1313 
Q 434 1759 690 2068 
Q 947 2378 1403 2484 
z
M 1172 3481 
Q 1172 3119 1398 2916 
Q 1625 2713 2034 2713 
Q 2441 2713 2670 2916 
Q 2900 3119 2900 3481 
Q 2900 3844 2670 4047 
Q 2441 4250 2034 4250 
Q 1625 4250 1398 4047 
Q 1172 3844 1172 3481 
z
" transform="scale(0.015625)"/>
       </defs>
       <use xlink:href="#DejaVuSans-32"/>
       <use xlink:href="#DejaVuSans-30" x="63.623047"/>
       <use xlink:href="#DejaVuSans-31" x="127.246094"/>
       <use xlink:href="#DejaVuSans-38" x="190.869141"/>
      </g>
     </g>
    </g>
    <g id="xtick_6">
     <g id="line2d_6">
      <g>
       <use xlink:href="#mb7aaa4bdb6" x="166.455662" y="123.88625" style="stroke: #000000; stroke-width: 0.8"/>
      </g>
     </g>
     <g id="text_6">
      <!-- 2020 -->
      <g transform="translate(156.275662 136.465) scale(0.08 -0.08)">
       <use xlink:href="#DejaVuSans-32"/>
       <use xlink:href="#DejaVuSans-30" x="63.623047"/>
       <use xlink:href="#DejaVuSans-32" x="127.246094"/>
       <use xlink:href="#DejaVuSans-30" x="190.869141"/>
      </g>
     </g>
    </g>
    <g id="xtick_7">
     <g id="line2d_7">
      <g>
       <use xlink:href="#mb7aaa4bdb6" x="190.222395" y="123.88625" style="stroke: #000000; stroke-width: 0.8"/>
      </g>
     </g>
     <g id="text_7">
      <!-- 2022 -->
      <g transform="translate(180.042395 136.465) scale(0.08 -0.08)">
       <use xlink:href="#DejaVuSans-32"/>
       <use xlink:href="#DejaVuSans-30" x="63.623047"/>
       <use xlink:href="#DejaVuSans-32" x="127.246094"/>
       <use xlink:href="#DejaVuSans-32" x="190.869141"/>
      </g>
     </g>
    </g>
    <g id="xtick_8">
     <g id="line2d_8">
      <g>
       <use xlink:href="#mb7aaa4bdb6" x="213.989128" y="123.88625" style="stroke: #000000; stroke-width: 0.8"/>
      </g>
     </g>
     <g id="text_8">
      <!-- 2024 -->
      <g transform="translate(203.809128 136.465) scale(0.08 -0.08)">
       <use xlink:href="#DejaVuSans-32"/>
       <use xlink:href="#DejaVuSans-30" x="63.623047"/>
       <use xlink:href="#DejaVuSans-32" x="127.246094"/>
       <use xlink:href="#DejaVuSans-34" x="190.869141"/>
      </g>
     </g>
    </g>
    <g id="text_9">
     <!-- Year -->
     <g transform="translate(122.335562 148.2075) scale(0.08 -0.08)">
      <defs>
       <path id="DejaVuSans-59" d="M -13 4666 
L 666 4666 
L 1959 2747 
L 3244 4666 
L 3922 4666 
L 2272 2222 
L 2272 0 
L 1638 0 
L 1638 2222 
L -13 4666 
z
" transform="scale(0.015625)"/>
       <path id="DejaVuSans-65" d="M 3597 1894 
L 3597 1613 
L 953 1613 
Q 991 1019 1311 708 
Q 1631 397 2203 397 
Q 2534 397 2845 478 
Q 3156 559 3463 722 
L 3463 178 
Q 3153 47 2828 -22 
Q 2503 -91 2169 -91 
Q 1331 -91 842 396 
Q 353 884 353 1716 
Q 353 2575 817 3079 
Q 1281 3584 2069 3584 
Q 2775 3584 3186 3129 
Q 3597 2675 3597 1894 
z
M 3022 2063 
Q 3016 2534 2758 2815 
Q 2500 3097 2075 3097 
Q 1594 3097 1305 2825 
Q 1016 2553 972 2059 
L 3022 2063 
z
" transform="scale(0.015625)"/>
       <path id="DejaVuSans-61" d="M 2194 1759 
Q 1497 1759 1228 1600 
Q 959 1441 959 1056 
Q 959 750 1161 570 
Q 1363 391 1709 391 
Q 2188 391 2477 730 
Q 2766 1069 2766 1631 
L 2766 1759 
L 2194 1759 
z
M 3341 1997 
L 3341 0 
L 2766 0 
L 2766 531 
Q 2569 213 2275 61 
Q 1981 -91 1556 -91 
Q 1019 -91 701 211 
Q 384 513 384 1019 
Q 384 1609 779 1909 
Q 1175 2209 1959 2209 
L 2766 2209 
L 2766 2266 
Q 2766 2663 2505 2880 
Q 2244 3097 1772 3097 
Q 1472 3097 1187 3025 
Q 903 2953 641 2809 
L 641 3341 
Q 956 3463 1253 3523 
Q 1550 3584 1831 3584 
Q 2591 3584 2966 3190 
Q 3341 2797 3341 1997 
z
" transform="scale(0.015625)"/>
       <path id="DejaVuSans-72" d="M 2631 2963 
Q 2534 3019 2420 3045 
Q 2306 3072 2169 3072 
Q 1681 3072 1420 2755 
Q 1159 2438 1159 1844 
L 1159 0 
L 581 0 
L 581 3500 
L 1159 3500 
L 1159 2956 
Q 1341 3275 1631 3429 
Q 1922 3584 2338 3584 
Q 2397 3584 2469 3576 
Q 2541 3569 2628 3553 
L 2631 2963 
z
" transform="scale(0.015625)"/>
      </defs>
      <use xlink:href="#DejaVuSans-59"/>
      <use xlink:href="#DejaVuSans-65" x="47.833984"/>
      <use xlink:href="#DejaVuSans-61" x="109.357422"/>
      <use xlink:href="#DejaVuSans-72" x="170.636719"/>
     </g>
    </g>
   </g>
   <g id="matplotlib.axis_2">
    <g id="ytick_1">
     <g id="line2d_9">
      <defs>
       <path id="mf4797a9143" d="M 0 0 
L -3 0 
" style="stroke: #000000; stroke-width: 0.8"/>
      </defs>
      <g>
       <use xlink:href="#mf4797a9143" x="41.680312" y="123.88625" style="stroke: #000000; stroke-width: 0.8"/>
      </g>
     </g>
     <g id="text_10">
      <!-- 0.0 -->
      <g transform="translate(22.457812 126.925625) scale(0.08 -0.08)">
       <defs>
        <path id="DejaVuSans-2e" d="M 684 794 
L 1344 794 
L 1344 0 
L 684 0 
L 684 794 
z
" transform="scale(0.015625)"/>
       </defs>
       <use xlink:href="#DejaVuSans-30"/>
       <use xlink:href="#DejaVuSans-2e" x="63.623047"/>
       <use xlink:href="#DejaVuSans-30" x="95.410156"/>
      </g>
     </g>
    </g>
    <g id="ytick_2">
     <g id="line2d_10">
      <g>
       <use xlink:href="#mf4797a9143" x="41.680312" y="95.790717" style="stroke: #000000; stroke-width: 0.8"/>
      </g>
     </g>
     <g id="text_11">
      <!-- 2.0 -->
      <g transform="translate(22.457812 98.830092) scale(0.08 -0.08)">
       <use xlink:href="#DejaVuSans-32"/>
       <use xlink:href="#DejaVuSans-2e" x="63.623047"/>
       <use xlink:href="#DejaVuSans-30" x="95.410156"/>
      </g>
     </g>
    </g>
    <g id="ytick_3">
     <g id="line2d_11">
      <g>
       <use xlink:href="#mf4797a9143" x="41.680312" y="67.695183" style="stroke: #000000; stroke-width: 0.8"/>
      </g>
     </g>
     <g id="text_12">
      <!-- 4.0 -->
      <g transform="translate(22.457812 70.734558) scale(0.08 -0.08)">
       <use xlink:href="#DejaVuSans-34"/>
       <use xlink:href="#DejaVuSans-2e" x="63.623047"/>
       <use xlink:href="#DejaVuSans-30" x="95.410156"/>
      </g>
     </g>
    </g>
    <g id="ytick_4">
     <g id="line2d_12">
      <g>
       <use xlink:href="#mf4797a9143" x="41.680312" y="39.59965" style="stroke: #000000; stroke-width: 0.8"/>
      </g>
     </g>
     <g id="text_13">
      <!-- 6.0 -->
      <g transform="translate(22.457812 42.639025) scale(0.08 -0.08)">
       <use xlink:href="#DejaVuSans-36"/>
       <use xlink:href="#DejaVuSans-2e" x="63.623047"/>
       <use xlink:href="#DejaVuSans-30" x="95.410156"/>
      </g>
     </g>
    </g>
    <g id="ytick_5">
     <g id="line2d_13">
      <g>
       <use xlink:href="#mf4797a9143" x="41.680312" y="11.504117" style="stroke: #000000; stroke-width: 0.8"/>
      </g>
     </g>
     <g id="text_14">
      <!-- 8.0 -->
      <g transform="translate(22.457812 14.543492) scale(0.08 -0.08)">
       <use xlink:href="#DejaVuSans-38"/>
       <use xlink:href="#DejaVuSans-2e" x="63.623047"/>
       <use xlink:href="#DejaVuSans-30" x="95.410156"/>
      </g>
     </g>
    </g>
    <g id="text_15">
     <!-- Publications fraction ($\times 10^{-2}$) -->
     <g transform="translate(16.794062 124.942812) rotate(-90) scale(0.08 -0.08)">
      <defs>
       <path id="DejaVuSans-50" d="M 1259 4147 
L 1259 2394 
L 2053 2394 
Q 2494 2394 2734 2622 
Q 2975 2850 2975 3272 
Q 2975 3691 2734 3919 
Q 2494 4147 2053 4147 
L 1259 4147 
z
M 628 4666 
L 2053 4666 
Q 2838 4666 3239 4311 
Q 3641 3956 3641 3272 
Q 3641 2581 3239 2228 
Q 2838 1875 2053 1875 
L 1259 1875 
L 1259 0 
L 628 0 
L 628 4666 
z
" transform="scale(0.015625)"/>
       <path id="DejaVuSans-75" d="M 544 1381 
L 544 3500 
L 1119 3500 
L 1119 1403 
Q 1119 906 1312 657 
Q 1506 409 1894 409 
Q 2359 409 2629 706 
Q 2900 1003 2900 1516 
L 2900 3500 
L 3475 3500 
L 3475 0 
L 2900 0 
L 2900 538 
Q 2691 219 2414 64 
Q 2138 -91 1772 -91 
Q 1169 -91 856 284 
Q 544 659 544 1381 
z
M 1991 3584 
L 1991 3584 
z
" transform="scale(0.015625)"/>
       <path id="DejaVuSans-62" d="M 3116 1747 
Q 3116 2381 2855 2742 
Q 2594 3103 2138 3103 
Q 1681 3103 1420 2742 
Q 1159 2381 1159 1747 
Q 1159 1113 1420 752 
Q 1681 391 2138 391 
Q 2594 391 2855 752 
Q 3116 1113 3116 1747 
z
M 1159 2969 
Q 1341 3281 1617 3432 
Q 1894 3584 2278 3584 
Q 2916 3584 3314 3078 
Q 3713 2572 3713 1747 
Q 3713 922 3314 415 
Q 2916 -91 2278 -91 
Q 1894 -91 1617 61 
Q 1341 213 1159 525 
L 1159 0 
L 581 0 
L 581 4863 
L 1159 4863 
L 1159 2969 
z
" transform="scale(0.015625)"/>
       <path id="DejaVuSans-6c" d="M 603 4863 
L 1178 4863 
L 1178 0 
L 603 0 
L 603 4863 
z
" transform="scale(0.015625)"/>
       <path id="DejaVuSans-69" d="M 603 3500 
L 1178 3500 
L 1178 0 
L 603 0 
L 603 3500 
z
M 603 4863 
L 1178 4863 
L 1178 4134 
L 603 4134 
L 603 4863 
z
" transform="scale(0.015625)"/>
       <path id="DejaVuSans-63" d="M 3122 3366 
L 3122 2828 
Q 2878 2963 2633 3030 
Q 2388 3097 2138 3097 
Q 1578 3097 1268 2742 
Q 959 2388 959 1747 
Q 959 1106 1268 751 
Q 1578 397 2138 397 
Q 2388 397 2633 464 
Q 2878 531 3122 666 
L 3122 134 
Q 2881 22 2623 -34 
Q 2366 -91 2075 -91 
Q 1284 -91 818 406 
Q 353 903 353 1747 
Q 353 2603 823 3093 
Q 1294 3584 2113 3584 
Q 2378 3584 2631 3529 
Q 2884 3475 3122 3366 
z
" transform="scale(0.015625)"/>
       <path id="DejaVuSans-74" d="M 1172 4494 
L 1172 3500 
L 2356 3500 
L 2356 3053 
L 1172 3053 
L 1172 1153 
Q 1172 725 1289 603 
Q 1406 481 1766 481 
L 2356 481 
L 2356 0 
L 1766 0 
Q 1100 0 847 248 
Q 594 497 594 1153 
L 594 3053 
L 172 3053 
L 172 3500 
L 594 3500 
L 594 4494 
L 1172 4494 
z
" transform="scale(0.015625)"/>
       <path id="DejaVuSans-6f" d="M 1959 3097 
Q 1497 3097 1228 2736 
Q 959 2375 959 1747 
Q 959 1119 1226 758 
Q 1494 397 1959 397 
Q 2419 397 2687 759 
Q 2956 1122 2956 1747 
Q 2956 2369 2687 2733 
Q 2419 3097 1959 3097 
z
M 1959 3584 
Q 2709 3584 3137 3096 
Q 3566 2609 3566 1747 
Q 3566 888 3137 398 
Q 2709 -91 1959 -91 
Q 1206 -91 779 398 
Q 353 888 353 1747 
Q 353 2609 779 3096 
Q 1206 3584 1959 3584 
z
" transform="scale(0.015625)"/>
       <path id="DejaVuSans-6e" d="M 3513 2113 
L 3513 0 
L 2938 0 
L 2938 2094 
Q 2938 2591 2744 2837 
Q 2550 3084 2163 3084 
Q 1697 3084 1428 2787 
Q 1159 2491 1159 1978 
L 1159 0 
L 581 0 
L 581 3500 
L 1159 3500 
L 1159 2956 
Q 1366 3272 1645 3428 
Q 1925 3584 2291 3584 
Q 2894 3584 3203 3211 
Q 3513 2838 3513 2113 
z
" transform="scale(0.015625)"/>
       <path id="DejaVuSans-73" d="M 2834 3397 
L 2834 2853 
Q 2591 2978 2328 3040 
Q 2066 3103 1784 3103 
Q 1356 3103 1142 2972 
Q 928 2841 928 2578 
Q 928 2378 1081 2264 
Q 1234 2150 1697 2047 
L 1894 2003 
Q 2506 1872 2764 1633 
Q 3022 1394 3022 966 
Q 3022 478 2636 193 
Q 2250 -91 1575 -91 
Q 1294 -91 989 -36 
Q 684 19 347 128 
L 347 722 
Q 666 556 975 473 
Q 1284 391 1588 391 
Q 1994 391 2212 530 
Q 2431 669 2431 922 
Q 2431 1156 2273 1281 
Q 2116 1406 1581 1522 
L 1381 1569 
Q 847 1681 609 1914 
Q 372 2147 372 2553 
Q 372 3047 722 3315 
Q 1072 3584 1716 3584 
Q 2034 3584 2315 3537 
Q 2597 3491 2834 3397 
z
" transform="scale(0.015625)"/>
       <path id="DejaVuSans-20" transform="scale(0.015625)"/>
       <path id="DejaVuSans-66" d="M 2375 4863 
L 2375 4384 
L 1825 4384 
Q 1516 4384 1395 4259 
Q 1275 4134 1275 3809 
L 1275 3500 
L 2222 3500 
L 2222 3053 
L 1275 3053 
L 1275 0 
L 697 0 
L 697 3053 
L 147 3053 
L 147 3500 
L 697 3500 
L 697 3744 
Q 697 4328 969 4595 
Q 1241 4863 1831 4863 
L 2375 4863 
z
" transform="scale(0.015625)"/>
       <path id="DejaVuSans-28" d="M 1984 4856 
Q 1566 4138 1362 3434 
Q 1159 2731 1159 2009 
Q 1159 1288 1364 580 
Q 1569 -128 1984 -844 
L 1484 -844 
Q 1016 -109 783 600 
Q 550 1309 550 2009 
Q 550 2706 781 3412 
Q 1013 4119 1484 4856 
L 1984 4856 
z
" transform="scale(0.015625)"/>
       <path id="DejaVuSans-d7" d="M 4488 3438 
L 3059 2003 
L 4488 575 
L 4116 197 
L 2681 1631 
L 1247 197 
L 878 575 
L 2303 2003 
L 878 3438 
L 1247 3816 
L 2681 2381 
L 4116 3816 
L 4488 3438 
z
" transform="scale(0.015625)"/>
       <path id="DejaVuSans-2212" d="M 678 2272 
L 4684 2272 
L 4684 1741 
L 678 1741 
L 678 2272 
z
" transform="scale(0.015625)"/>
       <path id="DejaVuSans-29" d="M 513 4856 
L 1013 4856 
Q 1481 4119 1714 3412 
Q 1947 2706 1947 2009 
Q 1947 1309 1714 600 
Q 1481 -109 1013 -844 
L 513 -844 
Q 928 -128 1133 580 
Q 1338 1288 1338 2009 
Q 1338 2731 1133 3434 
Q 928 4138 513 4856 
z
" transform="scale(0.015625)"/>
      </defs>
      <use xlink:href="#DejaVuSans-50" transform="translate(0 0.765625)"/>
      <use xlink:href="#DejaVuSans-75" transform="translate(60.302734 0.765625)"/>
      <use xlink:href="#DejaVuSans-62" transform="translate(123.681641 0.765625)"/>
      <use xlink:href="#DejaVuSans-6c" transform="translate(187.158203 0.765625)"/>
      <use xlink:href="#DejaVuSans-69" transform="translate(214.941406 0.765625)"/>
      <use xlink:href="#DejaVuSans-63" transform="translate(242.724609 0.765625)"/>
      <use xlink:href="#DejaVuSans-61" transform="translate(297.705078 0.765625)"/>
      <use xlink:href="#DejaVuSans-74" transform="translate(358.984375 0.765625)"/>
      <use xlink:href="#DejaVuSans-69" transform="translate(398.193359 0.765625)"/>
      <use xlink:href="#DejaVuSans-6f" transform="translate(425.976562 0.765625)"/>
      <use xlink:href="#DejaVuSans-6e" transform="translate(487.158203 0.765625)"/>
      <use xlink:href="#DejaVuSans-73" transform="translate(550.537109 0.765625)"/>
      <use xlink:href="#DejaVuSans-20" transform="translate(602.636719 0.765625)"/>
      <use xlink:href="#DejaVuSans-66" transform="translate(634.423828 0.765625)"/>
      <use xlink:href="#DejaVuSans-72" transform="translate(669.628906 0.765625)"/>
      <use xlink:href="#DejaVuSans-61" transform="translate(710.742188 0.765625)"/>
      <use xlink:href="#DejaVuSans-63" transform="translate(772.021484 0.765625)"/>
      <use xlink:href="#DejaVuSans-74" transform="translate(827.001953 0.765625)"/>
      <use xlink:href="#DejaVuSans-69" transform="translate(866.210938 0.765625)"/>
      <use xlink:href="#DejaVuSans-6f" transform="translate(893.994141 0.765625)"/>
      <use xlink:href="#DejaVuSans-6e" transform="translate(955.175781 0.765625)"/>
      <use xlink:href="#DejaVuSans-20" transform="translate(1018.554688 0.765625)"/>
      <use xlink:href="#DejaVuSans-28" transform="translate(1050.341797 0.765625)"/>
      <use xlink:href="#DejaVuSans-d7" transform="translate(1089.355469 0.765625)"/>
      <use xlink:href="#DejaVuSans-31" transform="translate(1173.144531 0.765625)"/>
      <use xlink:href="#DejaVuSans-30" transform="translate(1236.767578 0.765625)"/>
      <use xlink:href="#DejaVuSans-2212" transform="translate(1301.347656 39.046875) scale(0.7)"/>
      <use xlink:href="#DejaVuSans-32" transform="translate(1360 39.046875) scale(0.7)"/>
      <use xlink:href="#DejaVuSans-29" transform="translate(1407.270508 0.765625)"/>
     </g>
    </g>
   </g>
   <g id="patch_48">
    <path d="M 41.680312 123.88625 
L 41.680312 10.239375 
" style="fill: none; stroke: #000000; stroke-width: 0.8; stroke-linejoin: miter; stroke-linecap: square"/>
   </g>
   <g id="patch_49">
    <path d="M 41.680312 123.88625 
L 219.930811 123.88625 
" style="fill: none; stroke: #000000; stroke-width: 0.8; stroke-linejoin: miter; stroke-linecap: square"/>
   </g>
   <g id="legend_1">
    <g id="patch_50">
     <path d="M 48.880313 23.518125 
L 64.880313 23.518125 
L 64.880313 17.918125 
L 48.880313 17.918125 
z
"/>
    </g>
    <g id="text_16">
     <!-- Standard numerical -->
     <g transform="translate(71.280313 23.518125) scale(0.08 -0.08)">
      <defs>
       <path id="DejaVuSans-53" d="M 3425 4513 
L 3425 3897 
Q 3066 4069 2747 4153 
Q 2428 4238 2131 4238 
Q 1616 4238 1336 4038 
Q 1056 3838 1056 3469 
Q 1056 3159 1242 3001 
Q 1428 2844 1947 2747 
L 2328 2669 
Q 3034 2534 3370 2195 
Q 3706 1856 3706 1288 
Q 3706 609 3251 259 
Q 2797 -91 1919 -91 
Q 1588 -91 1214 -16 
Q 841 59 441 206 
L 441 856 
Q 825 641 1194 531 
Q 1563 422 1919 422 
Q 2459 422 2753 634 
Q 3047 847 3047 1241 
Q 3047 1584 2836 1778 
Q 2625 1972 2144 2069 
L 1759 2144 
Q 1053 2284 737 2584 
Q 422 2884 422 3419 
Q 422 4038 858 4394 
Q 1294 4750 2059 4750 
Q 2388 4750 2728 4690 
Q 3069 4631 3425 4513 
z
" transform="scale(0.015625)"/>
       <path id="DejaVuSans-64" d="M 2906 2969 
L 2906 4863 
L 3481 4863 
L 3481 0 
L 2906 0 
L 2906 525 
Q 2725 213 2448 61 
Q 2172 -91 1784 -91 
Q 1150 -91 751 415 
Q 353 922 353 1747 
Q 353 2572 751 3078 
Q 1150 3584 1784 3584 
Q 2172 3584 2448 3432 
Q 2725 3281 2906 2969 
z
M 947 1747 
Q 947 1113 1208 752 
Q 1469 391 1925 391 
Q 2381 391 2643 752 
Q 2906 1113 2906 1747 
Q 2906 2381 2643 2742 
Q 2381 3103 1925 3103 
Q 1469 3103 1208 2742 
Q 947 2381 947 1747 
z
" transform="scale(0.015625)"/>
       <path id="DejaVuSans-6d" d="M 3328 2828 
Q 3544 3216 3844 3400 
Q 4144 3584 4550 3584 
Q 5097 3584 5394 3201 
Q 5691 2819 5691 2113 
L 5691 0 
L 5113 0 
L 5113 2094 
Q 5113 2597 4934 2840 
Q 4756 3084 4391 3084 
Q 3944 3084 3684 2787 
Q 3425 2491 3425 1978 
L 3425 0 
L 2847 0 
L 2847 2094 
Q 2847 2600 2669 2842 
Q 2491 3084 2119 3084 
Q 1678 3084 1418 2786 
Q 1159 2488 1159 1978 
L 1159 0 
L 581 0 
L 581 3500 
L 1159 3500 
L 1159 2956 
Q 1356 3278 1631 3431 
Q 1906 3584 2284 3584 
Q 2666 3584 2933 3390 
Q 3200 3197 3328 2828 
z
" transform="scale(0.015625)"/>
      </defs>
      <use xlink:href="#DejaVuSans-53"/>
      <use xlink:href="#DejaVuSans-74" x="63.476562"/>
      <use xlink:href="#DejaVuSans-61" x="102.685547"/>
      <use xlink:href="#DejaVuSans-6e" x="163.964844"/>
      <use xlink:href="#DejaVuSans-64" x="227.34375"/>
      <use xlink:href="#DejaVuSans-61" x="290.820312"/>
      <use xlink:href="#DejaVuSans-72" x="352.099609"/>
      <use xlink:href="#DejaVuSans-64" x="391.462891"/>
      <use xlink:href="#DejaVuSans-20" x="454.939453"/>
      <use xlink:href="#DejaVuSans-6e" x="486.726562"/>
      <use xlink:href="#DejaVuSans-75" x="550.105469"/>
      <use xlink:href="#DejaVuSans-6d" x="613.484375"/>
      <use xlink:href="#DejaVuSans-65" x="710.896484"/>
      <use xlink:href="#DejaVuSans-72" x="772.419922"/>
      <use xlink:href="#DejaVuSans-69" x="813.533203"/>
      <use xlink:href="#DejaVuSans-63" x="841.316406"/>
      <use xlink:href="#DejaVuSans-61" x="896.296875"/>
      <use xlink:href="#DejaVuSans-6c" x="957.576172"/>
     </g>
    </g>
    <g id="patch_51">
     <path d="M 48.880313 35.260625 
L 64.880313 35.260625 
L 64.880313 29.660625 
L 48.880313 29.660625 
z
" style="fill: #2255a0; fill-opacity: 0.501961"/>
    </g>
    <g id="text_17">
     <!-- Machine learning -->
     <g transform="translate(71.280313 35.260625) scale(0.08 -0.08)">
      <defs>
       <path id="DejaVuSans-4d" d="M 628 4666 
L 1569 4666 
L 2759 1491 
L 3956 4666 
L 4897 4666 
L 4897 0 
L 4281 0 
L 4281 4097 
L 3078 897 
L 2444 897 
L 1241 4097 
L 1241 0 
L 628 0 
L 628 4666 
z
" transform="scale(0.015625)"/>
       <path id="DejaVuSans-68" d="M 3513 2113 
L 3513 0 
L 2938 0 
L 2938 2094 
Q 2938 2591 2744 2837 
Q 2550 3084 2163 3084 
Q 1697 3084 1428 2787 
Q 1159 2491 1159 1978 
L 1159 0 
L 581 0 
L 581 4863 
L 1159 4863 
L 1159 2956 
Q 1366 3272 1645 3428 
Q 1925 3584 2291 3584 
Q 2894 3584 3203 3211 
Q 3513 2838 3513 2113 
z
" transform="scale(0.015625)"/>
       <path id="DejaVuSans-67" d="M 2906 1791 
Q 2906 2416 2648 2759 
Q 2391 3103 1925 3103 
Q 1463 3103 1205 2759 
Q 947 2416 947 1791 
Q 947 1169 1205 825 
Q 1463 481 1925 481 
Q 2391 481 2648 825 
Q 2906 1169 2906 1791 
z
M 3481 434 
Q 3481 -459 3084 -895 
Q 2688 -1331 1869 -1331 
Q 1566 -1331 1297 -1286 
Q 1028 -1241 775 -1147 
L 775 -588 
Q 1028 -725 1275 -790 
Q 1522 -856 1778 -856 
Q 2344 -856 2625 -561 
Q 2906 -266 2906 331 
L 2906 616 
Q 2728 306 2450 153 
Q 2172 0 1784 0 
Q 1141 0 747 490 
Q 353 981 353 1791 
Q 353 2603 747 3093 
Q 1141 3584 1784 3584 
Q 2172 3584 2450 3431 
Q 2728 3278 2906 2969 
L 2906 3500 
L 3481 3500 
L 3481 434 
z
" transform="scale(0.015625)"/>
      </defs>
      <use xlink:href="#DejaVuSans-4d"/>
      <use xlink:href="#DejaVuSans-61" x="86.279297"/>
      <use xlink:href="#DejaVuSans-63" x="147.558594"/>
      <use xlink:href="#DejaVuSans-68" x="202.539062"/>
      <use xlink:href="#DejaVuSans-69" x="265.917969"/>
      <use xlink:href="#DejaVuSans-6e" x="293.701172"/>
      <use xlink:href="#DejaVuSans-65" x="357.080078"/>
      <use xlink:href="#DejaVuSans-20" x="418.603516"/>
      <use xlink:href="#DejaVuSans-6c" x="450.390625"/>
      <use xlink:href="#DejaVuSans-65" x="478.173828"/>
      <use xlink:href="#DejaVuSans-61" x="539.697266"/>
      <use xlink:href="#DejaVuSans-72" x="600.976562"/>
      <use xlink:href="#DejaVuSans-6e" x="640.339844"/>
      <use xlink:href="#DejaVuSans-69" x="703.71875"/>
      <use xlink:href="#DejaVuSans-6e" x="731.501953"/>
      <use xlink:href="#DejaVuSans-67" x="794.880859"/>
     </g>
    </g>
    <g id="patch_52">
     <path d="M 48.880313 47.003125 
L 64.880313 47.003125 
L 64.880313 41.403125 
L 48.880313 41.403125 
z
" style="fill: #8e8e8e"/>
    </g>
    <g id="text_18">
     <!-- Either / Both -->
     <g transform="translate(71.280313 47.003125) scale(0.08 -0.08)">
      <defs>
       <path id="DejaVuSans-45" d="M 628 4666 
L 3578 4666 
L 3578 4134 
L 1259 4134 
L 1259 2753 
L 3481 2753 
L 3481 2222 
L 1259 2222 
L 1259 531 
L 3634 531 
L 3634 0 
L 628 0 
L 628 4666 
z
" transform="scale(0.015625)"/>
       <path id="DejaVuSans-2f" d="M 1625 4666 
L 2156 4666 
L 531 -594 
L 0 -594 
L 1625 4666 
z
" transform="scale(0.015625)"/>
       <path id="DejaVuSans-42" d="M 1259 2228 
L 1259 519 
L 2272 519 
Q 2781 519 3026 730 
Q 3272 941 3272 1375 
Q 3272 1813 3026 2020 
Q 2781 2228 2272 2228 
L 1259 2228 
z
M 1259 4147 
L 1259 2741 
L 2194 2741 
Q 2656 2741 2882 2914 
Q 3109 3088 3109 3444 
Q 3109 3797 2882 3972 
Q 2656 4147 2194 4147 
L 1259 4147 
z
M 628 4666 
L 2241 4666 
Q 2963 4666 3353 4366 
Q 3744 4066 3744 3513 
Q 3744 3084 3544 2831 
Q 3344 2578 2956 2516 
Q 3422 2416 3680 2098 
Q 3938 1781 3938 1306 
Q 3938 681 3513 340 
Q 3088 0 2303 0 
L 628 0 
L 628 4666 
z
" transform="scale(0.015625)"/>
      </defs>
      <use xlink:href="#DejaVuSans-45"/>
      <use xlink:href="#DejaVuSans-69" x="63.183594"/>
      <use xlink:href="#DejaVuSans-74" x="90.966797"/>
      <use xlink:href="#DejaVuSans-68" x="130.175781"/>
      <use xlink:href="#DejaVuSans-65" x="193.554688"/>
      <use xlink:href="#DejaVuSans-72" x="255.078125"/>
      <use xlink:href="#DejaVuSans-20" x="296.191406"/>
      <use xlink:href="#DejaVuSans-2f" x="327.978516"/>
      <use xlink:href="#DejaVuSans-20" x="361.669922"/>
      <use xlink:href="#DejaVuSans-42" x="393.457031"/>
      <use xlink:href="#DejaVuSans-6f" x="462.060547"/>
      <use xlink:href="#DejaVuSans-74" x="523.242188"/>
      <use xlink:href="#DejaVuSans-68" x="562.451172"/>
     </g>
    </g>
   </g>
  </g>
  <g id="axes_2">
   <g id="patch_53">
    <path d="M 275.202344 123.88625 
L 453.452843 123.88625 
L 453.452843 10.239375 
L 275.202344 10.239375 
z
" style="fill: #ffffff"/>
   </g>
   <g id="patch_54">
    <path d="M 443.946149 123.88625 
L 451.076169 123.88625 
L 451.076169 20.570909 
L 443.946149 20.570909 
z
" clip-path="url(#p93c425b21f)" style="fill: #8e8e8e"/>
   </g>
   <g id="patch_55">
    <path d="M 432.062783 123.88625 
L 439.192803 123.88625 
L 439.192803 35.721503 
L 432.062783 35.721503 
z
" clip-path="url(#p93c425b21f)" style="fill: #8e8e8e"/>
   </g>
   <g id="patch_56">
    <path d="M 420.179416 123.88625 
L 427.309436 123.88625 
L 427.309436 53.503359 
L 420.179416 53.503359 
z
" clip-path="url(#p93c425b21f)" style="fill: #8e8e8e"/>
   </g>
   <g id="patch_57">
    <path d="M 408.29605 123.88625 
L 415.42607 123.88625 
L 415.42607 66.664849 
L 408.29605 66.664849 
z
" clip-path="url(#p93c425b21f)" style="fill: #8e8e8e"/>
   </g>
   <g id="patch_58">
    <path d="M 396.412683 123.88625 
L 403.542703 123.88625 
L 403.542703 83.806471 
L 396.412683 83.806471 
z
" clip-path="url(#p93c425b21f)" style="fill: #8e8e8e"/>
   </g>
   <g id="patch_59">
    <path d="M 384.529317 123.88625 
L 391.659336 123.88625 
L 391.659336 91.406162 
L 384.529317 91.406162 
z
" clip-path="url(#p93c425b21f)" style="fill: #8e8e8e"/>
   </g>
   <g id="patch_60">
    <path d="M 372.64595 123.88625 
L 379.77597 123.88625 
L 379.77597 101.871539 
L 372.64595 101.871539 
z
" clip-path="url(#p93c425b21f)" style="fill: #8e8e8e"/>
   </g>
   <g id="patch_61">
    <path d="M 360.762583 123.88625 
L 367.892603 123.88625 
L 367.892603 108.207251 
L 360.762583 108.207251 
z
" clip-path="url(#p93c425b21f)" style="fill: #8e8e8e"/>
   </g>
   <g id="patch_62">
    <path d="M 348.879217 123.88625 
L 356.009237 123.88625 
L 356.009237 114.192932 
L 348.879217 114.192932 
z
" clip-path="url(#p93c425b21f)" style="fill: #8e8e8e"/>
   </g>
   <g id="patch_63">
    <path d="M 336.99585 123.88625 
L 344.12587 123.88625 
L 344.12587 114.408829 
L 336.99585 114.408829 
z
" clip-path="url(#p93c425b21f)" style="fill: #8e8e8e"/>
   </g>
   <g id="patch_64">
    <path d="M 325.112484 123.88625 
L 332.242504 123.88625 
L 332.242504 113.44505 
L 325.112484 113.44505 
z
" clip-path="url(#p93c425b21f)" style="fill: #8e8e8e"/>
   </g>
   <g id="patch_65">
    <path d="M 313.229117 123.88625 
L 320.359137 123.88625 
L 320.359137 116.97214 
L 313.229117 116.97214 
z
" clip-path="url(#p93c425b21f)" style="fill: #8e8e8e"/>
   </g>
   <g id="patch_66">
    <path d="M 301.34575 123.88625 
L 308.47577 123.88625 
L 308.47577 119.748491 
L 301.34575 119.748491 
z
" clip-path="url(#p93c425b21f)" style="fill: #8e8e8e"/>
   </g>
   <g id="patch_67">
    <path d="M 289.462384 123.88625 
L 296.592404 123.88625 
L 296.592404 114.165863 
L 289.462384 114.165863 
z
" clip-path="url(#p93c425b21f)" style="fill: #8e8e8e"/>
   </g>
   <g id="patch_68">
    <path d="M 277.579017 123.88625 
L 284.709037 123.88625 
L 284.709037 114.240356 
L 277.579017 114.240356 
z
" clip-path="url(#p93c425b21f)" style="fill: #8e8e8e"/>
   </g>
   <g id="matplotlib.axis_3">
    <g id="xtick_9">
     <g id="line2d_14">
      <g>
       <use xlink:href="#mb7aaa4bdb6" x="281.144027" y="123.88625" style="stroke: #000000; stroke-width: 0.8"/>
      </g>
     </g>
     <g id="text_19">
      <!-- 2010 -->
      <g transform="translate(270.964027 136.465) scale(0.08 -0.08)">
       <use xlink:href="#DejaVuSans-32"/>
       <use xlink:href="#DejaVuSans-30" x="63.623047"/>
       <use xlink:href="#DejaVuSans-31" x="127.246094"/>
       <use xlink:href="#DejaVuSans-30" x="190.869141"/>
      </g>
     </g>
    </g>
    <g id="xtick_10">
     <g id="line2d_15">
      <g>
       <use xlink:href="#mb7aaa4bdb6" x="304.91076" y="123.88625" style="stroke: #000000; stroke-width: 0.8"/>
      </g>
     </g>
     <g id="text_20">
      <!-- 2012 -->
      <g transform="translate(294.73076 136.465) scale(0.08 -0.08)">
       <use xlink:href="#DejaVuSans-32"/>
       <use xlink:href="#DejaVuSans-30" x="63.623047"/>
       <use xlink:href="#DejaVuSans-31" x="127.246094"/>
       <use xlink:href="#DejaVuSans-32" x="190.869141"/>
      </g>
     </g>
    </g>
    <g id="xtick_11">
     <g id="line2d_16">
      <g>
       <use xlink:href="#mb7aaa4bdb6" x="328.677494" y="123.88625" style="stroke: #000000; stroke-width: 0.8"/>
      </g>
     </g>
     <g id="text_21">
      <!-- 2014 -->
      <g transform="translate(318.497494 136.465) scale(0.08 -0.08)">
       <use xlink:href="#DejaVuSans-32"/>
       <use xlink:href="#DejaVuSans-30" x="63.623047"/>
       <use xlink:href="#DejaVuSans-31" x="127.246094"/>
       <use xlink:href="#DejaVuSans-34" x="190.869141"/>
      </g>
     </g>
    </g>
    <g id="xtick_12">
     <g id="line2d_17">
      <g>
       <use xlink:href="#mb7aaa4bdb6" x="352.444227" y="123.88625" style="stroke: #000000; stroke-width: 0.8"/>
      </g>
     </g>
     <g id="text_22">
      <!-- 2016 -->
      <g transform="translate(342.264227 136.465) scale(0.08 -0.08)">
       <use xlink:href="#DejaVuSans-32"/>
       <use xlink:href="#DejaVuSans-30" x="63.623047"/>
       <use xlink:href="#DejaVuSans-31" x="127.246094"/>
       <use xlink:href="#DejaVuSans-36" x="190.869141"/>
      </g>
     </g>
    </g>
    <g id="xtick_13">
     <g id="line2d_18">
      <g>
       <use xlink:href="#mb7aaa4bdb6" x="376.21096" y="123.88625" style="stroke: #000000; stroke-width: 0.8"/>
      </g>
     </g>
     <g id="text_23">
      <!-- 2018 -->
      <g transform="translate(366.03096 136.465) scale(0.08 -0.08)">
       <use xlink:href="#DejaVuSans-32"/>
       <use xlink:href="#DejaVuSans-30" x="63.623047"/>
       <use xlink:href="#DejaVuSans-31" x="127.246094"/>
       <use xlink:href="#DejaVuSans-38" x="190.869141"/>
      </g>
     </g>
    </g>
    <g id="xtick_14">
     <g id="line2d_19">
      <g>
       <use xlink:href="#mb7aaa4bdb6" x="399.977693" y="123.88625" style="stroke: #000000; stroke-width: 0.8"/>
      </g>
     </g>
     <g id="text_24">
      <!-- 2020 -->
      <g transform="translate(389.797693 136.465) scale(0.08 -0.08)">
       <use xlink:href="#DejaVuSans-32"/>
       <use xlink:href="#DejaVuSans-30" x="63.623047"/>
       <use xlink:href="#DejaVuSans-32" x="127.246094"/>
       <use xlink:href="#DejaVuSans-30" x="190.869141"/>
      </g>
     </g>
    </g>
    <g id="xtick_15">
     <g id="line2d_20">
      <g>
       <use xlink:href="#mb7aaa4bdb6" x="423.744426" y="123.88625" style="stroke: #000000; stroke-width: 0.8"/>
      </g>
     </g>
     <g id="text_25">
      <!-- 2022 -->
      <g transform="translate(413.564426 136.465) scale(0.08 -0.08)">
       <use xlink:href="#DejaVuSans-32"/>
       <use xlink:href="#DejaVuSans-30" x="63.623047"/>
       <use xlink:href="#DejaVuSans-32" x="127.246094"/>
       <use xlink:href="#DejaVuSans-32" x="190.869141"/>
      </g>
     </g>
    </g>
    <g id="xtick_16">
     <g id="line2d_21">
      <g>
       <use xlink:href="#mb7aaa4bdb6" x="447.511159" y="123.88625" style="stroke: #000000; stroke-width: 0.8"/>
      </g>
     </g>
     <g id="text_26">
      <!-- 2024 -->
      <g transform="translate(437.331159 136.465) scale(0.08 -0.08)">
       <use xlink:href="#DejaVuSans-32"/>
       <use xlink:href="#DejaVuSans-30" x="63.623047"/>
       <use xlink:href="#DejaVuSans-32" x="127.246094"/>
       <use xlink:href="#DejaVuSans-34" x="190.869141"/>
      </g>
     </g>
    </g>
    <g id="text_27">
     <!-- Year -->
     <g transform="translate(355.857593 148.2075) scale(0.08 -0.08)">
      <use xlink:href="#DejaVuSans-59"/>
      <use xlink:href="#DejaVuSans-65" x="47.833984"/>
      <use xlink:href="#DejaVuSans-61" x="109.357422"/>
      <use xlink:href="#DejaVuSans-72" x="170.636719"/>
     </g>
    </g>
   </g>
   <g id="matplotlib.axis_4">
    <g id="ytick_6">
     <g id="line2d_22">
      <g>
       <use xlink:href="#mf4797a9143" x="275.202344" y="123.88625" style="stroke: #000000; stroke-width: 0.8"/>
      </g>
     </g>
     <g id="text_28">
      <!-- 0.00 -->
      <g transform="translate(250.889844 126.925625) scale(0.08 -0.08)">
       <use xlink:href="#DejaVuSans-30"/>
       <use xlink:href="#DejaVuSans-2e" x="63.623047"/>
       <use xlink:href="#DejaVuSans-30" x="95.410156"/>
       <use xlink:href="#DejaVuSans-30" x="159.033203"/>
      </g>
     </g>
    </g>
    <g id="ytick_7">
     <g id="line2d_23">
      <g>
       <use xlink:href="#mf4797a9143" x="275.202344" y="95.474531" style="stroke: #000000; stroke-width: 0.8"/>
      </g>
     </g>
     <g id="text_29">
      <!-- 0.32 -->
      <g transform="translate(250.889844 98.513906) scale(0.08 -0.08)">
       <defs>
        <path id="DejaVuSans-33" d="M 2597 2516 
Q 3050 2419 3304 2112 
Q 3559 1806 3559 1356 
Q 3559 666 3084 287 
Q 2609 -91 1734 -91 
Q 1441 -91 1130 -33 
Q 819 25 488 141 
L 488 750 
Q 750 597 1062 519 
Q 1375 441 1716 441 
Q 2309 441 2620 675 
Q 2931 909 2931 1356 
Q 2931 1769 2642 2001 
Q 2353 2234 1838 2234 
L 1294 2234 
L 1294 2753 
L 1863 2753 
Q 2328 2753 2575 2939 
Q 2822 3125 2822 3475 
Q 2822 3834 2567 4026 
Q 2313 4219 1838 4219 
Q 1578 4219 1281 4162 
Q 984 4106 628 3988 
L 628 4550 
Q 988 4650 1302 4700 
Q 1616 4750 1894 4750 
Q 2613 4750 3031 4423 
Q 3450 4097 3450 3541 
Q 3450 3153 3228 2886 
Q 3006 2619 2597 2516 
z
" transform="scale(0.015625)"/>
       </defs>
       <use xlink:href="#DejaVuSans-30"/>
       <use xlink:href="#DejaVuSans-2e" x="63.623047"/>
       <use xlink:href="#DejaVuSans-33" x="95.410156"/>
       <use xlink:href="#DejaVuSans-32" x="159.033203"/>
      </g>
     </g>
    </g>
    <g id="ytick_8">
     <g id="line2d_24">
      <g>
       <use xlink:href="#mf4797a9143" x="275.202344" y="67.062812" style="stroke: #000000; stroke-width: 0.8"/>
      </g>
     </g>
     <g id="text_30">
      <!-- 0.63 -->
      <g transform="translate(250.889844 70.102187) scale(0.08 -0.08)">
       <use xlink:href="#DejaVuSans-30"/>
       <use xlink:href="#DejaVuSans-2e" x="63.623047"/>
       <use xlink:href="#DejaVuSans-36" x="95.410156"/>
       <use xlink:href="#DejaVuSans-33" x="159.033203"/>
      </g>
     </g>
    </g>
    <g id="ytick_9">
     <g id="line2d_25">
      <g>
       <use xlink:href="#mf4797a9143" x="275.202344" y="38.651094" style="stroke: #000000; stroke-width: 0.8"/>
      </g>
     </g>
     <g id="text_31">
      <!-- 0.95 -->
      <g transform="translate(250.889844 41.690469) scale(0.08 -0.08)">
       <defs>
        <path id="DejaVuSans-39" d="M 703 97 
L 703 672 
Q 941 559 1184 500 
Q 1428 441 1663 441 
Q 2288 441 2617 861 
Q 2947 1281 2994 2138 
Q 2813 1869 2534 1725 
Q 2256 1581 1919 1581 
Q 1219 1581 811 2004 
Q 403 2428 403 3163 
Q 403 3881 828 4315 
Q 1253 4750 1959 4750 
Q 2769 4750 3195 4129 
Q 3622 3509 3622 2328 
Q 3622 1225 3098 567 
Q 2575 -91 1691 -91 
Q 1453 -91 1209 -44 
Q 966 3 703 97 
z
M 1959 2075 
Q 2384 2075 2632 2365 
Q 2881 2656 2881 3163 
Q 2881 3666 2632 3958 
Q 2384 4250 1959 4250 
Q 1534 4250 1286 3958 
Q 1038 3666 1038 3163 
Q 1038 2656 1286 2365 
Q 1534 2075 1959 2075 
z
" transform="scale(0.015625)"/>
        <path id="DejaVuSans-35" d="M 691 4666 
L 3169 4666 
L 3169 4134 
L 1269 4134 
L 1269 2991 
Q 1406 3038 1543 3061 
Q 1681 3084 1819 3084 
Q 2600 3084 3056 2656 
Q 3513 2228 3513 1497 
Q 3513 744 3044 326 
Q 2575 -91 1722 -91 
Q 1428 -91 1123 -41 
Q 819 9 494 109 
L 494 744 
Q 775 591 1075 516 
Q 1375 441 1709 441 
Q 2250 441 2565 725 
Q 2881 1009 2881 1497 
Q 2881 1984 2565 2268 
Q 2250 2553 1709 2553 
Q 1456 2553 1204 2497 
Q 953 2441 691 2322 
L 691 4666 
z
" transform="scale(0.015625)"/>
       </defs>
       <use xlink:href="#DejaVuSans-30"/>
       <use xlink:href="#DejaVuSans-2e" x="63.623047"/>
       <use xlink:href="#DejaVuSans-39" x="95.410156"/>
       <use xlink:href="#DejaVuSans-35" x="159.033203"/>
      </g>
     </g>
    </g>
    <g id="ytick_10">
     <g id="line2d_26">
      <g>
       <use xlink:href="#mf4797a9143" x="275.202344" y="10.239375" style="stroke: #000000; stroke-width: 0.8"/>
      </g>
     </g>
     <g id="text_32">
      <!-- 1.26 -->
      <g transform="translate(250.889844 13.27875) scale(0.08 -0.08)">
       <use xlink:href="#DejaVuSans-31"/>
       <use xlink:href="#DejaVuSans-2e" x="63.623047"/>
       <use xlink:href="#DejaVuSans-32" x="95.410156"/>
       <use xlink:href="#DejaVuSans-36" x="159.033203"/>
      </g>
     </g>
    </g>
    <g id="text_33">
     <!-- Publications fraction ($\times 10^{-4}$) -->
     <g transform="translate(245.226094 124.942812) rotate(-90) scale(0.08 -0.08)">
      <use xlink:href="#DejaVuSans-50" transform="translate(0 0.684375)"/>
      <use xlink:href="#DejaVuSans-75" transform="translate(60.302734 0.684375)"/>
      <use xlink:href="#DejaVuSans-62" transform="translate(123.681641 0.684375)"/>
      <use xlink:href="#DejaVuSans-6c" transform="translate(187.158203 0.684375)"/>
      <use xlink:href="#DejaVuSans-69" transform="translate(214.941406 0.684375)"/>
      <use xlink:href="#DejaVuSans-63" transform="translate(242.724609 0.684375)"/>
      <use xlink:href="#DejaVuSans-61" transform="translate(297.705078 0.684375)"/>
      <use xlink:href="#DejaVuSans-74" transform="translate(358.984375 0.684375)"/>
      <use xlink:href="#DejaVuSans-69" transform="translate(398.193359 0.684375)"/>
      <use xlink:href="#DejaVuSans-6f" transform="translate(425.976562 0.684375)"/>
      <use xlink:href="#DejaVuSans-6e" transform="translate(487.158203 0.684375)"/>
      <use xlink:href="#DejaVuSans-73" transform="translate(550.537109 0.684375)"/>
      <use xlink:href="#DejaVuSans-20" transform="translate(602.636719 0.684375)"/>
      <use xlink:href="#DejaVuSans-66" transform="translate(634.423828 0.684375)"/>
      <use xlink:href="#DejaVuSans-72" transform="translate(669.628906 0.684375)"/>
      <use xlink:href="#DejaVuSans-61" transform="translate(710.742188 0.684375)"/>
      <use xlink:href="#DejaVuSans-63" transform="translate(772.021484 0.684375)"/>
      <use xlink:href="#DejaVuSans-74" transform="translate(827.001953 0.684375)"/>
      <use xlink:href="#DejaVuSans-69" transform="translate(866.210938 0.684375)"/>
      <use xlink:href="#DejaVuSans-6f" transform="translate(893.994141 0.684375)"/>
      <use xlink:href="#DejaVuSans-6e" transform="translate(955.175781 0.684375)"/>
      <use xlink:href="#DejaVuSans-20" transform="translate(1018.554688 0.684375)"/>
      <use xlink:href="#DejaVuSans-28" transform="translate(1050.341797 0.684375)"/>
      <use xlink:href="#DejaVuSans-d7" transform="translate(1089.355469 0.684375)"/>
      <use xlink:href="#DejaVuSans-31" transform="translate(1173.144531 0.684375)"/>
      <use xlink:href="#DejaVuSans-30" transform="translate(1236.767578 0.684375)"/>
      <use xlink:href="#DejaVuSans-2212" transform="translate(1301.347656 38.965625) scale(0.7)"/>
      <use xlink:href="#DejaVuSans-34" transform="translate(1360 38.965625) scale(0.7)"/>
      <use xlink:href="#DejaVuSans-29" transform="translate(1407.270508 0.684375)"/>
     </g>
    </g>
   </g>
   <g id="patch_69">
    <path d="M 275.202344 123.88625 
L 275.202344 10.239375 
" style="fill: none; stroke: #000000; stroke-width: 0.8; stroke-linejoin: miter; stroke-linecap: square"/>
   </g>
   <g id="patch_70">
    <path d="M 275.202344 123.88625 
L 453.452843 123.88625 
" style="fill: none; stroke: #000000; stroke-width: 0.8; stroke-linejoin: miter; stroke-linecap: square"/>
   </g>
   <g id="legend_2">
    <g id="patch_71">
     <path d="M 282.402344 23.518125 
L 298.402344 23.518125 
L 298.402344 17.918125 
L 282.402344 17.918125 
z
" style="fill: #8e8e8e"/>
    </g>
    <g id="text_34">
     <!-- Wave propagation -->
     <g transform="translate(304.802344 23.518125) scale(0.08 -0.08)">
      <defs>
       <path id="DejaVuSans-57" d="M 213 4666 
L 850 4666 
L 1831 722 
L 2809 4666 
L 3519 4666 
L 4500 722 
L 5478 4666 
L 6119 4666 
L 4947 0 
L 4153 0 
L 3169 4050 
L 2175 0 
L 1381 0 
L 213 4666 
z
" transform="scale(0.015625)"/>
       <path id="DejaVuSans-76" d="M 191 3500 
L 800 3500 
L 1894 563 
L 2988 3500 
L 3597 3500 
L 2284 0 
L 1503 0 
L 191 3500 
z
" transform="scale(0.015625)"/>
       <path id="DejaVuSans-70" d="M 1159 525 
L 1159 -1331 
L 581 -1331 
L 581 3500 
L 1159 3500 
L 1159 2969 
Q 1341 3281 1617 3432 
Q 1894 3584 2278 3584 
Q 2916 3584 3314 3078 
Q 3713 2572 3713 1747 
Q 3713 922 3314 415 
Q 2916 -91 2278 -91 
Q 1894 -91 1617 61 
Q 1341 213 1159 525 
z
M 3116 1747 
Q 3116 2381 2855 2742 
Q 2594 3103 2138 3103 
Q 1681 3103 1420 2742 
Q 1159 2381 1159 1747 
Q 1159 1113 1420 752 
Q 1681 391 2138 391 
Q 2594 391 2855 752 
Q 3116 1113 3116 1747 
z
" transform="scale(0.015625)"/>
      </defs>
      <use xlink:href="#DejaVuSans-57"/>
      <use xlink:href="#DejaVuSans-61" x="92.501953"/>
      <use xlink:href="#DejaVuSans-76" x="153.78125"/>
      <use xlink:href="#DejaVuSans-65" x="212.960938"/>
      <use xlink:href="#DejaVuSans-20" x="274.484375"/>
      <use xlink:href="#DejaVuSans-70" x="306.271484"/>
      <use xlink:href="#DejaVuSans-72" x="369.748047"/>
      <use xlink:href="#DejaVuSans-6f" x="408.611328"/>
      <use xlink:href="#DejaVuSans-70" x="469.792969"/>
      <use xlink:href="#DejaVuSans-61" x="533.269531"/>
      <use xlink:href="#DejaVuSans-67" x="594.548828"/>
      <use xlink:href="#DejaVuSans-61" x="658.025391"/>
      <use xlink:href="#DejaVuSans-74" x="719.304688"/>
      <use xlink:href="#DejaVuSans-69" x="758.513672"/>
      <use xlink:href="#DejaVuSans-6f" x="786.296875"/>
      <use xlink:href="#DejaVuSans-6e" x="847.478516"/>
     </g>
    </g>
   </g>
  </g>
  <g id="axes_3">
   <g id="patch_72">
    <path d="M 41.680312 273.7575 
L 219.930811 273.7575 
L 219.930811 160.110625 
L 41.680312 160.110625 
z
" style="fill: #ffffff"/>
   </g>
   <g id="patch_73">
    <path d="M 49.782608 273.7575 
L 96.081439 273.7575 
L 96.081439 225.457578 
L 49.782608 225.457578 
z
" clip-path="url(#pdea0c831a0)"/>
   </g>
   <g id="patch_74">
    <path d="M 107.656146 273.7575 
L 153.954977 273.7575 
L 153.954977 235.697049 
L 107.656146 235.697049 
z
" clip-path="url(#pdea0c831a0)" style="fill: #2255a0; fill-opacity: 0.501961"/>
   </g>
   <g id="patch_75">
    <path d="M 165.529685 273.7575 
L 211.828516 273.7575 
L 211.828516 273.213645 
L 165.529685 273.213645 
z
" clip-path="url(#pdea0c831a0)" style="fill: #8e8e8e"/>
   </g>
   <g id="matplotlib.axis_5">
    <g id="xtick_17">
     <g id="line2d_27">
      <g>
       <use xlink:href="#mb7aaa4bdb6" x="72.932023" y="273.7575" style="stroke: #000000; stroke-width: 0.8"/>
      </g>
     </g>
     <g id="text_35">
      <!-- TensorFlow -->
      <g transform="translate(50.866398 286.33625) scale(0.08 -0.08)">
       <defs>
        <path id="DejaVuSans-54" d="M -19 4666 
L 3928 4666 
L 3928 4134 
L 2272 4134 
L 2272 0 
L 1638 0 
L 1638 4134 
L -19 4134 
L -19 4666 
z
" transform="scale(0.015625)"/>
        <path id="DejaVuSans-46" d="M 628 4666 
L 3309 4666 
L 3309 4134 
L 1259 4134 
L 1259 2759 
L 3109 2759 
L 3109 2228 
L 1259 2228 
L 1259 0 
L 628 0 
L 628 4666 
z
" transform="scale(0.015625)"/>
        <path id="DejaVuSans-77" d="M 269 3500 
L 844 3500 
L 1563 769 
L 2278 3500 
L 2956 3500 
L 3675 769 
L 4391 3500 
L 4966 3500 
L 4050 0 
L 3372 0 
L 2619 2869 
L 1863 0 
L 1184 0 
L 269 3500 
z
" transform="scale(0.015625)"/>
       </defs>
       <use xlink:href="#DejaVuSans-54"/>
       <use xlink:href="#DejaVuSans-65" x="44.083984"/>
       <use xlink:href="#DejaVuSans-6e" x="105.607422"/>
       <use xlink:href="#DejaVuSans-73" x="168.986328"/>
       <use xlink:href="#DejaVuSans-6f" x="221.085938"/>
       <use xlink:href="#DejaVuSans-72" x="282.267578"/>
       <use xlink:href="#DejaVuSans-46" x="323.380859"/>
       <use xlink:href="#DejaVuSans-6c" x="380.900391"/>
       <use xlink:href="#DejaVuSans-6f" x="408.683594"/>
       <use xlink:href="#DejaVuSans-77" x="469.865234"/>
      </g>
     </g>
    </g>
    <g id="xtick_18">
     <g id="line2d_28">
      <g>
       <use xlink:href="#mb7aaa4bdb6" x="130.805562" y="273.7575" style="stroke: #000000; stroke-width: 0.8"/>
      </g>
     </g>
     <g id="text_36">
      <!-- PyTorch -->
      <g transform="translate(115.526812 286.33625) scale(0.08 -0.08)">
       <defs>
        <path id="DejaVuSans-79" d="M 2059 -325 
Q 1816 -950 1584 -1140 
Q 1353 -1331 966 -1331 
L 506 -1331 
L 506 -850 
L 844 -850 
Q 1081 -850 1212 -737 
Q 1344 -625 1503 -206 
L 1606 56 
L 191 3500 
L 800 3500 
L 1894 763 
L 2988 3500 
L 3597 3500 
L 2059 -325 
z
" transform="scale(0.015625)"/>
       </defs>
       <use xlink:href="#DejaVuSans-50"/>
       <use xlink:href="#DejaVuSans-79" x="60.302734"/>
       <use xlink:href="#DejaVuSans-54" x="119.482422"/>
       <use xlink:href="#DejaVuSans-6f" x="163.566406"/>
       <use xlink:href="#DejaVuSans-72" x="224.748047"/>
       <use xlink:href="#DejaVuSans-63" x="263.611328"/>
       <use xlink:href="#DejaVuSans-68" x="318.591797"/>
      </g>
     </g>
    </g>
    <g id="xtick_19">
     <g id="line2d_29">
      <g>
       <use xlink:href="#mb7aaa4bdb6" x="188.6791" y="273.7575" style="stroke: #000000; stroke-width: 0.8"/>
      </g>
     </g>
     <g id="text_37">
      <!-- JAX -->
      <g transform="translate(182.09285 286.33625) scale(0.08 -0.08)">
       <defs>
        <path id="DejaVuSans-4a" d="M 628 4666 
L 1259 4666 
L 1259 325 
Q 1259 -519 939 -900 
Q 619 -1281 -91 -1281 
L -331 -1281 
L -331 -750 
L -134 -750 
Q 284 -750 456 -515 
Q 628 -281 628 325 
L 628 4666 
z
" transform="scale(0.015625)"/>
        <path id="DejaVuSans-41" d="M 2188 4044 
L 1331 1722 
L 3047 1722 
L 2188 4044 
z
M 1831 4666 
L 2547 4666 
L 4325 0 
L 3669 0 
L 3244 1197 
L 1141 1197 
L 716 0 
L 50 0 
L 1831 4666 
z
" transform="scale(0.015625)"/>
        <path id="DejaVuSans-58" d="M 403 4666 
L 1081 4666 
L 2241 2931 
L 3406 4666 
L 4084 4666 
L 2584 2425 
L 4184 0 
L 3506 0 
L 2194 1984 
L 872 0 
L 191 0 
L 1856 2491 
L 403 4666 
z
" transform="scale(0.015625)"/>
       </defs>
       <use xlink:href="#DejaVuSans-4a"/>
       <use xlink:href="#DejaVuSans-41" x="27.742188"/>
       <use xlink:href="#DejaVuSans-58" x="96.150391"/>
      </g>
     </g>
    </g>
   </g>
   <g id="matplotlib.axis_6">
    <g id="ytick_11">
     <g id="line2d_30">
      <g>
       <use xlink:href="#mf4797a9143" x="41.680312" y="273.7575" style="stroke: #000000; stroke-width: 0.8"/>
      </g>
     </g>
     <g id="text_38">
      <!-- 0 -->
      <g transform="translate(30.090312 276.796875) scale(0.08 -0.08)">
       <use xlink:href="#DejaVuSans-30"/>
      </g>
     </g>
    </g>
    <g id="ytick_12">
     <g id="line2d_31">
      <g>
       <use xlink:href="#mf4797a9143" x="41.680312" y="251.253168" style="stroke: #000000; stroke-width: 0.8"/>
      </g>
     </g>
     <g id="text_39">
      <!-- 20 -->
      <g transform="translate(25.000312 254.292543) scale(0.08 -0.08)">
       <use xlink:href="#DejaVuSans-32"/>
       <use xlink:href="#DejaVuSans-30" x="63.623047"/>
      </g>
     </g>
    </g>
    <g id="ytick_13">
     <g id="line2d_32">
      <g>
       <use xlink:href="#mf4797a9143" x="41.680312" y="228.748837" style="stroke: #000000; stroke-width: 0.8"/>
      </g>
     </g>
     <g id="text_40">
      <!-- 40 -->
      <g transform="translate(25.000312 231.788212) scale(0.08 -0.08)">
       <use xlink:href="#DejaVuSans-34"/>
       <use xlink:href="#DejaVuSans-30" x="63.623047"/>
      </g>
     </g>
    </g>
    <g id="ytick_14">
     <g id="line2d_33">
      <g>
       <use xlink:href="#mf4797a9143" x="41.680312" y="206.244505" style="stroke: #000000; stroke-width: 0.8"/>
      </g>
     </g>
     <g id="text_41">
      <!-- 60 -->
      <g transform="translate(25.000312 209.28388) scale(0.08 -0.08)">
       <use xlink:href="#DejaVuSans-36"/>
       <use xlink:href="#DejaVuSans-30" x="63.623047"/>
      </g>
     </g>
    </g>
    <g id="ytick_15">
     <g id="line2d_34">
      <g>
       <use xlink:href="#mf4797a9143" x="41.680312" y="183.740173" style="stroke: #000000; stroke-width: 0.8"/>
      </g>
     </g>
     <g id="text_42">
      <!-- 80 -->
      <g transform="translate(25.000312 186.779548) scale(0.08 -0.08)">
       <use xlink:href="#DejaVuSans-38"/>
       <use xlink:href="#DejaVuSans-30" x="63.623047"/>
      </g>
     </g>
    </g>
    <g id="ytick_16">
     <g id="line2d_35">
      <g>
       <use xlink:href="#mf4797a9143" x="41.680312" y="161.235842" style="stroke: #000000; stroke-width: 0.8"/>
      </g>
     </g>
     <g id="text_43">
      <!-- 100 -->
      <g transform="translate(19.910312 164.275217) scale(0.08 -0.08)">
       <use xlink:href="#DejaVuSans-31"/>
       <use xlink:href="#DejaVuSans-30" x="63.623047"/>
       <use xlink:href="#DejaVuSans-30" x="127.246094"/>
      </g>
     </g>
    </g>
    <g id="text_44">
     <!-- Average interest (%) -->
     <g transform="translate(14.038594 263.322031) rotate(-90) scale(0.09 -0.09)">
      <defs>
       <path id="DejaVuSans-25" d="M 4653 2053 
Q 4381 2053 4226 1822 
Q 4072 1591 4072 1178 
Q 4072 772 4226 539 
Q 4381 306 4653 306 
Q 4919 306 5073 539 
Q 5228 772 5228 1178 
Q 5228 1588 5073 1820 
Q 4919 2053 4653 2053 
z
M 4653 2450 
Q 5147 2450 5437 2106 
Q 5728 1763 5728 1178 
Q 5728 594 5436 251 
Q 5144 -91 4653 -91 
Q 4153 -91 3862 251 
Q 3572 594 3572 1178 
Q 3572 1766 3864 2108 
Q 4156 2450 4653 2450 
z
M 1428 4353 
Q 1159 4353 1004 4120 
Q 850 3888 850 3481 
Q 850 3069 1003 2837 
Q 1156 2606 1428 2606 
Q 1700 2606 1854 2837 
Q 2009 3069 2009 3481 
Q 2009 3884 1853 4118 
Q 1697 4353 1428 4353 
z
M 4250 4750 
L 4750 4750 
L 1831 -91 
L 1331 -91 
L 4250 4750 
z
M 1428 4750 
Q 1922 4750 2215 4408 
Q 2509 4066 2509 3481 
Q 2509 2891 2217 2550 
Q 1925 2209 1428 2209 
Q 931 2209 642 2551 
Q 353 2894 353 3481 
Q 353 4063 643 4406 
Q 934 4750 1428 4750 
z
" transform="scale(0.015625)"/>
      </defs>
      <use xlink:href="#DejaVuSans-41"/>
      <use xlink:href="#DejaVuSans-76" x="62.533203"/>
      <use xlink:href="#DejaVuSans-65" x="121.712891"/>
      <use xlink:href="#DejaVuSans-72" x="183.236328"/>
      <use xlink:href="#DejaVuSans-61" x="224.349609"/>
      <use xlink:href="#DejaVuSans-67" x="285.628906"/>
      <use xlink:href="#DejaVuSans-65" x="349.105469"/>
      <use xlink:href="#DejaVuSans-20" x="410.628906"/>
      <use xlink:href="#DejaVuSans-69" x="442.416016"/>
      <use xlink:href="#DejaVuSans-6e" x="470.199219"/>
      <use xlink:href="#DejaVuSans-74" x="533.578125"/>
      <use xlink:href="#DejaVuSans-65" x="572.787109"/>
      <use xlink:href="#DejaVuSans-72" x="634.310547"/>
      <use xlink:href="#DejaVuSans-65" x="673.173828"/>
      <use xlink:href="#DejaVuSans-73" x="734.697266"/>
      <use xlink:href="#DejaVuSans-74" x="786.796875"/>
      <use xlink:href="#DejaVuSans-20" x="826.005859"/>
      <use xlink:href="#DejaVuSans-28" x="857.792969"/>
      <use xlink:href="#DejaVuSans-25" x="896.806641"/>
      <use xlink:href="#DejaVuSans-29" x="991.826172"/>
     </g>
    </g>
   </g>
   <g id="patch_76">
    <path d="M 41.680312 273.7575 
L 41.680312 160.110625 
" style="fill: none; stroke: #000000; stroke-width: 0.8; stroke-linejoin: miter; stroke-linecap: square"/>
   </g>
   <g id="patch_77">
    <path d="M 41.680312 273.7575 
L 219.930811 273.7575 
" style="fill: none; stroke: #000000; stroke-width: 0.8; stroke-linejoin: miter; stroke-linecap: square"/>
   </g>
   <g id="text_45">
    <!-- 42.9% -->
    <g transform="translate(60.225148 223.771324) scale(0.08 -0.08)">
     <use xlink:href="#DejaVuSans-34"/>
     <use xlink:href="#DejaVuSans-32" x="63.623047"/>
     <use xlink:href="#DejaVuSans-2e" x="127.246094"/>
     <use xlink:href="#DejaVuSans-39" x="159.033203"/>
     <use xlink:href="#DejaVuSans-25" x="222.65625"/>
    </g>
   </g>
   <g id="text_46">
    <!-- 33.8% -->
    <g transform="translate(118.098687 234.010795) scale(0.08 -0.08)">
     <use xlink:href="#DejaVuSans-33"/>
     <use xlink:href="#DejaVuSans-33" x="63.623047"/>
     <use xlink:href="#DejaVuSans-2e" x="127.246094"/>
     <use xlink:href="#DejaVuSans-38" x="159.033203"/>
     <use xlink:href="#DejaVuSans-25" x="222.65625"/>
    </g>
   </g>
   <g id="text_47">
    <!-- 0.5% -->
    <g transform="translate(178.517225 271.527391) scale(0.08 -0.08)">
     <use xlink:href="#DejaVuSans-30"/>
     <use xlink:href="#DejaVuSans-2e" x="63.623047"/>
     <use xlink:href="#DejaVuSans-35" x="95.410156"/>
     <use xlink:href="#DejaVuSans-25" x="159.033203"/>
    </g>
   </g>
  </g>
  <g id="axes_4">
   <g id="patch_78">
    <path d="M 275.202344 273.7575 
L 453.452843 273.7575 
L 453.452843 160.110625 
L 275.202344 160.110625 
z
" style="fill: #ffffff"/>
   </g>
   <g id="matplotlib.axis_7">
    <g id="xtick_20">
     <g id="line2d_36">
      <g>
       <use xlink:href="#mb7aaa4bdb6" x="275.202344" y="273.7575" style="stroke: #000000; stroke-width: 0.8"/>
      </g>
     </g>
     <g id="text_48">
      <!-- 2015 -->
      <g transform="translate(265.022344 286.33625) scale(0.08 -0.08)">
       <use xlink:href="#DejaVuSans-32"/>
       <use xlink:href="#DejaVuSans-30" x="63.623047"/>
       <use xlink:href="#DejaVuSans-31" x="127.246094"/>
       <use xlink:href="#DejaVuSans-35" x="190.869141"/>
      </g>
     </g>
    </g>
    <g id="xtick_21">
     <g id="line2d_37">
      <g>
       <use xlink:href="#mb7aaa4bdb6" x="310.305015" y="273.7575" style="stroke: #000000; stroke-width: 0.8"/>
      </g>
     </g>
     <g id="text_49">
      <!-- 2017 -->
      <g transform="translate(300.125015 286.33625) scale(0.08 -0.08)">
       <defs>
        <path id="DejaVuSans-37" d="M 525 4666 
L 3525 4666 
L 3525 4397 
L 1831 0 
L 1172 0 
L 2766 4134 
L 525 4134 
L 525 4666 
z
" transform="scale(0.015625)"/>
       </defs>
       <use xlink:href="#DejaVuSans-32"/>
       <use xlink:href="#DejaVuSans-30" x="63.623047"/>
       <use xlink:href="#DejaVuSans-31" x="127.246094"/>
       <use xlink:href="#DejaVuSans-37" x="190.869141"/>
      </g>
     </g>
    </g>
    <g id="xtick_22">
     <g id="line2d_38">
      <g>
       <use xlink:href="#mb7aaa4bdb6" x="345.359666" y="273.7575" style="stroke: #000000; stroke-width: 0.8"/>
      </g>
     </g>
     <g id="text_50">
      <!-- 2019 -->
      <g transform="translate(335.179666 286.33625) scale(0.08 -0.08)">
       <use xlink:href="#DejaVuSans-32"/>
       <use xlink:href="#DejaVuSans-30" x="63.623047"/>
       <use xlink:href="#DejaVuSans-31" x="127.246094"/>
       <use xlink:href="#DejaVuSans-39" x="190.869141"/>
      </g>
     </g>
    </g>
    <g id="xtick_23">
     <g id="line2d_39">
      <g>
       <use xlink:href="#mb7aaa4bdb6" x="380.462337" y="273.7575" style="stroke: #000000; stroke-width: 0.8"/>
      </g>
     </g>
     <g id="text_51">
      <!-- 2021 -->
      <g transform="translate(370.282337 286.33625) scale(0.08 -0.08)">
       <use xlink:href="#DejaVuSans-32"/>
       <use xlink:href="#DejaVuSans-30" x="63.623047"/>
       <use xlink:href="#DejaVuSans-32" x="127.246094"/>
       <use xlink:href="#DejaVuSans-31" x="190.869141"/>
      </g>
     </g>
    </g>
    <g id="xtick_24">
     <g id="line2d_40">
      <g>
       <use xlink:href="#mb7aaa4bdb6" x="415.516988" y="273.7575" style="stroke: #000000; stroke-width: 0.8"/>
      </g>
     </g>
     <g id="text_52">
      <!-- 2023 -->
      <g transform="translate(405.336988 286.33625) scale(0.08 -0.08)">
       <use xlink:href="#DejaVuSans-32"/>
       <use xlink:href="#DejaVuSans-30" x="63.623047"/>
       <use xlink:href="#DejaVuSans-32" x="127.246094"/>
       <use xlink:href="#DejaVuSans-33" x="190.869141"/>
      </g>
     </g>
    </g>
    <g id="xtick_25">
     <g id="line2d_41">
      <g>
       <use xlink:href="#mb7aaa4bdb6" x="450.619659" y="273.7575" style="stroke: #000000; stroke-width: 0.8"/>
      </g>
     </g>
     <g id="text_53">
      <!-- 2025 -->
      <g transform="translate(440.439659 286.33625) scale(0.08 -0.08)">
       <use xlink:href="#DejaVuSans-32"/>
       <use xlink:href="#DejaVuSans-30" x="63.623047"/>
       <use xlink:href="#DejaVuSans-32" x="127.246094"/>
       <use xlink:href="#DejaVuSans-35" x="190.869141"/>
      </g>
     </g>
    </g>
   </g>
   <g id="matplotlib.axis_8">
    <g id="ytick_17">
     <g id="line2d_42">
      <g>
       <use xlink:href="#mf4797a9143" x="275.202344" y="268.345744" style="stroke: #000000; stroke-width: 0.8"/>
      </g>
     </g>
     <g id="text_54">
      <!-- 0 -->
      <g transform="translate(263.612344 271.385119) scale(0.08 -0.08)">
       <use xlink:href="#DejaVuSans-30"/>
      </g>
     </g>
    </g>
    <g id="ytick_18">
     <g id="line2d_43">
      <g>
       <use xlink:href="#mf4797a9143" x="275.202344" y="246.69872" style="stroke: #000000; stroke-width: 0.8"/>
      </g>
     </g>
     <g id="text_55">
      <!-- 20 -->
      <g transform="translate(258.522344 249.738095) scale(0.08 -0.08)">
       <use xlink:href="#DejaVuSans-32"/>
       <use xlink:href="#DejaVuSans-30" x="63.623047"/>
      </g>
     </g>
    </g>
    <g id="ytick_19">
     <g id="line2d_44">
      <g>
       <use xlink:href="#mf4797a9143" x="275.202344" y="225.051696" style="stroke: #000000; stroke-width: 0.8"/>
      </g>
     </g>
     <g id="text_56">
      <!-- 40 -->
      <g transform="translate(258.522344 228.091071) scale(0.08 -0.08)">
       <use xlink:href="#DejaVuSans-34"/>
       <use xlink:href="#DejaVuSans-30" x="63.623047"/>
      </g>
     </g>
    </g>
    <g id="ytick_20">
     <g id="line2d_45">
      <g>
       <use xlink:href="#mf4797a9143" x="275.202344" y="203.404673" style="stroke: #000000; stroke-width: 0.8"/>
      </g>
     </g>
     <g id="text_57">
      <!-- 60 -->
      <g transform="translate(258.522344 206.444048) scale(0.08 -0.08)">
       <use xlink:href="#DejaVuSans-36"/>
       <use xlink:href="#DejaVuSans-30" x="63.623047"/>
      </g>
     </g>
    </g>
    <g id="ytick_21">
     <g id="line2d_46">
      <g>
       <use xlink:href="#mf4797a9143" x="275.202344" y="181.757649" style="stroke: #000000; stroke-width: 0.8"/>
      </g>
     </g>
     <g id="text_58">
      <!-- 80 -->
      <g transform="translate(258.522344 184.797024) scale(0.08 -0.08)">
       <use xlink:href="#DejaVuSans-38"/>
       <use xlink:href="#DejaVuSans-30" x="63.623047"/>
      </g>
     </g>
    </g>
    <g id="ytick_22">
     <g id="line2d_47">
      <g>
       <use xlink:href="#mf4797a9143" x="275.202344" y="160.110625" style="stroke: #000000; stroke-width: 0.8"/>
      </g>
     </g>
     <g id="text_59">
      <!-- 100 -->
      <g transform="translate(253.432344 163.15) scale(0.08 -0.08)">
       <use xlink:href="#DejaVuSans-31"/>
       <use xlink:href="#DejaVuSans-30" x="63.623047"/>
       <use xlink:href="#DejaVuSans-30" x="127.246094"/>
      </g>
     </g>
    </g>
    <g id="text_60">
     <!-- Interest over time (%) -->
     <g transform="translate(247.560625 266.552188) rotate(-90) scale(0.09 -0.09)">
      <defs>
       <path id="DejaVuSans-49" d="M 628 4666 
L 1259 4666 
L 1259 0 
L 628 0 
L 628 4666 
z
" transform="scale(0.015625)"/>
      </defs>
      <use xlink:href="#DejaVuSans-49"/>
      <use xlink:href="#DejaVuSans-6e" x="29.492188"/>
      <use xlink:href="#DejaVuSans-74" x="92.871094"/>
      <use xlink:href="#DejaVuSans-65" x="132.080078"/>
      <use xlink:href="#DejaVuSans-72" x="193.603516"/>
      <use xlink:href="#DejaVuSans-65" x="232.466797"/>
      <use xlink:href="#DejaVuSans-73" x="293.990234"/>
      <use xlink:href="#DejaVuSans-74" x="346.089844"/>
      <use xlink:href="#DejaVuSans-20" x="385.298828"/>
      <use xlink:href="#DejaVuSans-6f" x="417.085938"/>
      <use xlink:href="#DejaVuSans-76" x="478.267578"/>
      <use xlink:href="#DejaVuSans-65" x="537.447266"/>
      <use xlink:href="#DejaVuSans-72" x="598.970703"/>
      <use xlink:href="#DejaVuSans-20" x="640.083984"/>
      <use xlink:href="#DejaVuSans-74" x="671.871094"/>
      <use xlink:href="#DejaVuSans-69" x="711.080078"/>
      <use xlink:href="#DejaVuSans-6d" x="738.863281"/>
      <use xlink:href="#DejaVuSans-65" x="836.275391"/>
      <use xlink:href="#DejaVuSans-20" x="897.798828"/>
      <use xlink:href="#DejaVuSans-28" x="929.585938"/>
      <use xlink:href="#DejaVuSans-25" x="968.599609"/>
      <use xlink:href="#DejaVuSans-29" x="1063.619141"/>
     </g>
    </g>
   </g>
   <g id="line2d_48">
    <path d="M 275.202344 268.345744 
L 276.690966 268.345744 
L 278.035528 268.345744 
L 279.52415 268.345744 
L 280.964752 268.345744 
L 282.453374 268.345744 
L 283.893977 268.345744 
L 285.382599 268.345744 
L 286.871221 268.345744 
L 288.311823 268.345744 
L 289.800445 251.028125 
L 291.241047 261.851637 
L 292.729669 261.851637 
L 294.218292 260.769286 
L 295.610874 258.604583 
L 297.099496 257.522232 
L 298.540098 252.110476 
L 300.02872 252.110476 
L 301.469322 253.192827 
L 302.957944 253.192827 
L 304.446566 248.863423 
L 305.887168 244.534018 
L 307.375791 239.122262 
L 308.816393 235.875208 
L 310.305015 233.710506 
L 311.793637 218.557589 
L 313.138199 213.145833 
L 314.626821 210.981131 
L 316.067423 208.816429 
L 317.556045 204.487024 
L 318.996648 207.734077 
L 320.48527 209.89878 
L 321.973892 207.734077 
L 323.414494 202.322321 
L 324.903116 199.075268 
L 326.343718 200.157619 
L 327.83234 200.157619 
L 329.320963 200.157619 
L 330.665524 189.334107 
L 332.154147 191.49881 
L 333.594749 190.416458 
L 335.083371 196.910565 
L 336.523973 197.992917 
L 338.012595 197.992917 
L 339.501217 199.075268 
L 340.941819 193.663512 
L 342.430442 194.745863 
L 343.871044 206.651726 
L 345.359666 204.487024 
L 346.848288 201.23997 
L 348.19285 194.745863 
L 349.681472 195.828214 
L 351.122074 202.322321 
L 352.610696 202.322321 
L 354.051298 199.075268 
L 355.539921 207.734077 
L 357.028543 204.487024 
L 358.469145 201.23997 
L 359.957767 203.404673 
L 361.398369 210.981131 
L 362.886991 213.145833 
L 364.375613 206.651726 
L 365.768195 209.89878 
L 367.256818 208.816429 
L 368.69742 207.734077 
L 370.186042 207.734077 
L 371.626644 204.487024 
L 373.115266 214.228185 
L 374.603888 215.310536 
L 376.04449 223.969345 
L 377.533113 225.051696 
L 378.973715 226.134048 
L 380.462337 229.381101 
L 381.950959 228.29875 
L 383.295521 227.216399 
L 384.784143 227.216399 
L 386.224745 227.216399 
L 387.713367 227.216399 
L 389.153969 229.381101 
L 390.642592 232.628155 
L 392.131214 230.463452 
L 393.571816 229.381101 
L 395.060438 227.216399 
L 396.50104 229.381101 
L 397.989662 219.63994 
L 399.478284 209.89878 
L 400.822846 195.828214 
L 402.311468 199.075268 
L 403.752071 200.157619 
L 405.240693 203.404673 
L 406.681295 214.228185 
L 408.169917 216.392887 
L 409.658539 213.145833 
L 411.099141 213.145833 
L 412.587763 210.981131 
L 414.028366 216.392887 
L 415.516988 216.392887 
L 417.00561 207.734077 
L 418.350172 208.816429 
L 419.838794 209.89878 
L 421.279396 210.981131 
L 422.768018 215.310536 
L 424.20862 218.557589 
L 425.697242 220.722292 
L 427.185865 222.886994 
L 428.626467 220.722292 
L 430.115089 217.475238 
L 431.555691 223.969345 
L 433.044313 223.969345 
L 434.532935 219.63994 
L 435.925517 213.145833 
L 437.414139 217.475238 
L 438.854742 216.392887 
L 440.343364 225.051696 
L 441.783966 227.216399 
L 443.272588 230.463452 
L 444.76121 231.545804 
L 446.201812 229.381101 
L 447.690434 228.29875 
L 449.131036 232.628155 
" clip-path="url(#p779a04acea)" style="fill: none; stroke: #000000; stroke-width: 2; stroke-linecap: square"/>
   </g>
   <g id="line2d_49">
    <path d="M 275.202344 268.345744 
L 276.690966 268.345744 
L 278.035528 268.345744 
L 279.52415 268.345744 
L 280.964752 268.345744 
L 282.453374 268.345744 
L 283.893977 268.345744 
L 285.382599 268.345744 
L 286.871221 268.345744 
L 288.311823 268.345744 
L 289.800445 268.345744 
L 291.241047 268.345744 
L 292.729669 268.345744 
L 294.218292 268.345744 
L 295.610874 268.345744 
L 297.099496 268.345744 
L 298.540098 268.345744 
L 300.02872 268.345744 
L 301.469322 268.345744 
L 302.957944 268.345744 
L 304.446566 268.345744 
L 305.887168 268.345744 
L 307.375791 268.345744 
L 308.816393 268.345744 
L 310.305015 268.345744 
L 311.793637 268.345744 
L 313.138199 268.345744 
L 314.626821 268.345744 
L 316.067423 268.345744 
L 317.556045 268.345744 
L 318.996648 268.345744 
L 320.48527 268.345744 
L 321.973892 268.345744 
L 323.414494 268.345744 
L 324.903116 266.181042 
L 326.343718 259.686935 
L 327.83234 256.439881 
L 329.320963 255.35753 
L 330.665524 252.110476 
L 332.154147 251.028125 
L 333.594749 248.863423 
L 335.083371 249.945774 
L 336.523973 248.863423 
L 338.012595 247.781071 
L 339.501217 247.781071 
L 340.941819 242.369315 
L 342.430442 240.204613 
L 343.871044 242.369315 
L 345.359666 243.451667 
L 346.848288 240.204613 
L 348.19285 236.95756 
L 349.681472 234.792857 
L 351.122074 238.039911 
L 352.610696 235.875208 
L 354.051298 232.628155 
L 355.539921 233.710506 
L 357.028543 234.792857 
L 358.469145 232.628155 
L 359.957767 227.216399 
L 361.398369 232.628155 
L 362.886991 235.875208 
L 364.375613 228.29875 
L 365.768195 228.29875 
L 367.256818 226.134048 
L 368.69742 225.051696 
L 370.186042 223.969345 
L 371.626644 220.722292 
L 373.115266 223.969345 
L 374.603888 227.216399 
L 376.04449 234.792857 
L 377.533113 230.463452 
L 378.973715 234.792857 
L 380.462337 236.95756 
L 381.950959 235.875208 
L 383.295521 230.463452 
L 384.784143 227.216399 
L 386.224745 229.381101 
L 387.713367 230.463452 
L 389.153969 231.545804 
L 390.642592 233.710506 
L 392.131214 231.545804 
L 393.571816 227.216399 
L 395.060438 222.886994 
L 396.50104 226.134048 
L 397.989662 217.475238 
L 399.478284 206.651726 
L 400.822846 197.992917 
L 402.311468 192.581161 
L 403.752071 202.322321 
L 405.240693 204.487024 
L 406.681295 208.816429 
L 408.169917 212.063482 
L 409.658539 210.981131 
L 411.099141 207.734077 
L 412.587763 206.651726 
L 414.028366 207.734077 
L 415.516988 209.89878 
L 417.00561 196.910565 
L 418.350172 191.49881 
L 419.838794 195.828214 
L 421.279396 200.157619 
L 422.768018 196.910565 
L 424.20862 182.84 
L 425.697242 173.098839 
L 427.185865 179.592946 
L 428.626467 170.934137 
L 430.115089 168.769435 
L 431.555691 182.84 
L 433.044313 180.675298 
L 434.532935 172.016488 
L 435.925517 166.604732 
L 437.414139 160.110625 
L 438.854742 170.934137 
L 440.343364 181.757649 
L 441.783966 176.345893 
L 443.272588 185.004702 
L 444.76121 186.087054 
L 446.201812 182.84 
L 447.690434 177.428244 
L 449.131036 185.004702 
" clip-path="url(#p779a04acea)" style="fill: none; stroke: #2255a0; stroke-opacity: 0.501961; stroke-width: 2; stroke-linecap: square"/>
   </g>
   <g id="line2d_50">
    <path d="M 275.202344 268.345744 
L 276.690966 268.345744 
L 278.035528 268.345744 
L 279.52415 268.345744 
L 280.964752 268.345744 
L 282.453374 268.345744 
L 283.893977 268.345744 
L 285.382599 268.345744 
L 286.871221 268.345744 
L 288.311823 268.345744 
L 289.800445 268.345744 
L 291.241047 268.345744 
L 292.729669 268.345744 
L 294.218292 268.345744 
L 295.610874 268.345744 
L 297.099496 268.345744 
L 298.540098 268.345744 
L 300.02872 268.345744 
L 301.469322 268.345744 
L 302.957944 268.345744 
L 304.446566 268.345744 
L 305.887168 268.345744 
L 307.375791 268.345744 
L 308.816393 268.345744 
L 310.305015 268.345744 
L 311.793637 268.345744 
L 313.138199 268.345744 
L 314.626821 268.345744 
L 316.067423 268.345744 
L 317.556045 268.345744 
L 318.996648 268.345744 
L 320.48527 268.345744 
L 321.973892 268.345744 
L 323.414494 268.345744 
L 324.903116 268.345744 
L 326.343718 268.345744 
L 327.83234 268.345744 
L 329.320963 268.345744 
L 330.665524 268.345744 
L 332.154147 268.345744 
L 333.594749 268.345744 
L 335.083371 268.345744 
L 336.523973 268.345744 
L 338.012595 268.345744 
L 339.501217 268.345744 
L 340.941819 268.345744 
L 342.430442 268.345744 
L 343.871044 268.345744 
L 345.359666 268.345744 
L 346.848288 268.345744 
L 348.19285 268.345744 
L 349.681472 268.345744 
L 351.122074 268.345744 
L 352.610696 268.345744 
L 354.051298 268.345744 
L 355.539921 268.345744 
L 357.028543 268.345744 
L 358.469145 268.345744 
L 359.957767 268.345744 
L 361.398369 268.345744 
L 362.886991 268.345744 
L 364.375613 268.345744 
L 365.768195 268.345744 
L 367.256818 268.345744 
L 368.69742 268.345744 
L 370.186042 268.345744 
L 371.626644 268.345744 
L 373.115266 268.345744 
L 374.603888 268.345744 
L 376.04449 268.345744 
L 377.533113 268.345744 
L 378.973715 268.345744 
L 380.462337 268.345744 
L 381.950959 268.345744 
L 383.295521 268.345744 
L 384.784143 268.345744 
L 386.224745 268.345744 
L 387.713367 268.345744 
L 389.153969 268.345744 
L 390.642592 268.345744 
L 392.131214 268.345744 
L 393.571816 268.345744 
L 395.060438 268.345744 
L 396.50104 268.345744 
L 397.989662 268.345744 
L 399.478284 268.345744 
L 400.822846 268.345744 
L 402.311468 268.345744 
L 403.752071 268.345744 
L 405.240693 268.345744 
L 406.681295 268.345744 
L 408.169917 268.345744 
L 409.658539 268.345744 
L 411.099141 267.263393 
L 412.587763 267.263393 
L 414.028366 267.263393 
L 415.516988 267.263393 
L 417.00561 267.263393 
L 418.350172 267.263393 
L 419.838794 268.345744 
L 421.279396 268.345744 
L 422.768018 268.345744 
L 424.20862 268.345744 
L 425.697242 268.345744 
L 427.185865 268.345744 
L 428.626467 268.345744 
L 430.115089 268.345744 
L 431.555691 267.263393 
L 433.044313 267.263393 
L 434.532935 266.181042 
L 435.925517 262.933988 
L 437.414139 262.933988 
L 438.854742 264.016339 
L 440.343364 262.933988 
L 441.783966 264.016339 
L 443.272588 262.933988 
L 444.76121 262.933988 
L 446.201812 261.851637 
L 447.690434 262.933988 
L 449.131036 264.016339 
" clip-path="url(#p779a04acea)" style="fill: none; stroke: #8e8e8e; stroke-width: 2; stroke-linecap: square"/>
   </g>
   <g id="patch_79">
    <path d="M 275.202344 273.7575 
L 275.202344 160.110625 
" style="fill: none; stroke: #000000; stroke-width: 0.8; stroke-linejoin: miter; stroke-linecap: square"/>
   </g>
   <g id="patch_80">
    <path d="M 275.202344 273.7575 
L 453.452843 273.7575 
" style="fill: none; stroke: #000000; stroke-width: 0.8; stroke-linejoin: miter; stroke-linecap: square"/>
   </g>
   <g id="legend_3">
    <g id="line2d_51">
     <path d="M 282.402344 170.589375 
L 290.402344 170.589375 
L 298.402344 170.589375 
" style="fill: none; stroke: #000000; stroke-width: 2; stroke-linecap: square"/>
    </g>
    <g id="text_61">
     <!-- TensorFlow -->
     <g transform="translate(304.802344 173.389375) scale(0.08 -0.08)">
      <use xlink:href="#DejaVuSans-54"/>
      <use xlink:href="#DejaVuSans-65" x="44.083984"/>
      <use xlink:href="#DejaVuSans-6e" x="105.607422"/>
      <use xlink:href="#DejaVuSans-73" x="168.986328"/>
      <use xlink:href="#DejaVuSans-6f" x="221.085938"/>
      <use xlink:href="#DejaVuSans-72" x="282.267578"/>
      <use xlink:href="#DejaVuSans-46" x="323.380859"/>
      <use xlink:href="#DejaVuSans-6c" x="380.900391"/>
      <use xlink:href="#DejaVuSans-6f" x="408.683594"/>
      <use xlink:href="#DejaVuSans-77" x="469.865234"/>
     </g>
    </g>
    <g id="line2d_52">
     <path d="M 282.402344 182.331875 
L 290.402344 182.331875 
L 298.402344 182.331875 
" style="fill: none; stroke: #2255a0; stroke-opacity: 0.501961; stroke-width: 2; stroke-linecap: square"/>
    </g>
    <g id="text_62">
     <!-- PyTorch -->
     <g transform="translate(304.802344 185.131875) scale(0.08 -0.08)">
      <use xlink:href="#DejaVuSans-50"/>
      <use xlink:href="#DejaVuSans-79" x="60.302734"/>
      <use xlink:href="#DejaVuSans-54" x="119.482422"/>
      <use xlink:href="#DejaVuSans-6f" x="163.566406"/>
      <use xlink:href="#DejaVuSans-72" x="224.748047"/>
      <use xlink:href="#DejaVuSans-63" x="263.611328"/>
      <use xlink:href="#DejaVuSans-68" x="318.591797"/>
     </g>
    </g>
    <g id="line2d_53">
     <path d="M 282.402344 194.074375 
L 290.402344 194.074375 
L 298.402344 194.074375 
" style="fill: none; stroke: #8e8e8e; stroke-width: 2; stroke-linecap: square"/>
    </g>
    <g id="text_63">
     <!-- JAX -->
     <g transform="translate(304.802344 196.874375) scale(0.08 -0.08)">
      <use xlink:href="#DejaVuSans-4a"/>
      <use xlink:href="#DejaVuSans-41" x="27.742188"/>
      <use xlink:href="#DejaVuSans-58" x="96.150391"/>
     </g>
    </g>
   </g>
  </g>
 </g>
 <defs>
  <clipPath id="p098c874760">
   <rect x="41.680312" y="10.239375" width="178.250499" height="113.646875"/>
  </clipPath>
  <clipPath id="p93c425b21f">
   <rect x="275.202344" y="10.239375" width="178.250499" height="113.646875"/>
  </clipPath>
  <clipPath id="pdea0c831a0">
   <rect x="41.680312" y="160.110625" width="178.250499" height="113.646875"/>
  </clipPath>
  <clipPath id="p779a04acea">
   <rect x="275.202344" y="160.110625" width="178.250499" height="113.646875"/>
  </clipPath>
 </defs>
</svg>
