<?xml version="1.0" encoding="utf-8" standalone="no"?>
<!DOCTYPE svg PUBLIC "-//W3C//DTD SVG 1.1//EN"
  "http://www.w3.org/Graphics/SVG/1.1/DTD/svg11.dtd">
<svg xmlns:xlink="http://www.w3.org/1999/xlink" width="396pt" height="187.189446pt" viewBox="0 0 396 187.189446" xmlns="http://www.w3.org/2000/svg" version="1.1">
 <metadata>
  <rdf:RDF xmlns:dc="http://purl.org/dc/elements/1.1/" xmlns:cc="http://creativecommons.org/ns#" xmlns:rdf="http://www.w3.org/1999/02/22-rdf-syntax-ns#">
   <cc:Work>
    <dc:type rdf:resource="http://purl.org/dc/dcmitype/StillImage"/>
    <dc:date>2025-10-13T03:07:17.360240</dc:date>
    <dc:format>image/svg+xml</dc:format>
    <dc:creator>
     <cc:Agent>
      <dc:title>Matplotlib v3.8.4, https://matplotlib.org/</dc:title>
     </cc:Agent>
    </dc:creator>
   </cc:Work>
  </rdf:RDF>
 </metadata>
 <defs>
  <style type="text/css">*{stroke-linejoin: round; stroke-linecap: butt}</style>
 </defs>
 <g id="figure_1">
  <g id="patch_1">
   <path d="M 0 187.189446 
L 396 187.189446 
L 396 0 
L 0 0 
z
" style="fill: #ffffff"/>
  </g>
  <g id="axes_1">
   <g id="patch_2">
    <path d="M 34.240625 24.58822 
L 388.8 24.58822 
L 388.8 7.942553 
L 34.240625 7.942553 
z
" style="fill: #ffffff"/>
   </g>
   <g id="matplotlib.axis_1">
    <g id="xtick_1">
     <g id="line2d_1">
      <defs>
       <path id="m0a5602c966" d="M 0 0 
L 0 3.5 
" style="stroke: #000000; stroke-width: 0.8"/>
      </defs>
      <g>
       <use xlink:href="#m0a5602c966" x="50.35696" y="24.58822" style="stroke: #000000; stroke-width: 0.8"/>
      </g>
     </g>
    </g>
    <g id="xtick_2">
     <g id="line2d_2">
      <g>
       <use xlink:href="#m0a5602c966" x="211.520312" y="24.58822" style="stroke: #000000; stroke-width: 0.8"/>
      </g>
     </g>
    </g>
    <g id="xtick_3">
     <g id="line2d_3">
      <g>
       <use xlink:href="#m0a5602c966" x="372.683665" y="24.58822" style="stroke: #000000; stroke-width: 0.8"/>
      </g>
     </g>
    </g>
   </g>
   <g id="matplotlib.axis_2">
    <g id="ytick_1">
     <g id="line2d_4">
      <defs>
       <path id="m73522b48b3" d="M 0 0 
L -3.5 0 
" style="stroke: #000000; stroke-width: 0.8"/>
      </defs>
      <g>
       <use xlink:href="#m73522b48b3" x="34.240625" y="22.255973" style="stroke: #000000; stroke-width: 0.8"/>
      </g>
     </g>
     <g id="text_1">
      <!-- 0 -->
      <g transform="translate(20.878125 26.055192) scale(0.1 -0.1)">
       <defs>
        <path id="DejaVuSans-30" d="M 2034 4250 
Q 1547 4250 1301 3770 
Q 1056 3291 1056 2328 
Q 1056 1369 1301 889 
Q 1547 409 2034 409 
Q 2525 409 2770 889 
Q 3016 1369 3016 2328 
Q 3016 3291 2770 3770 
Q 2525 4250 2034 4250 
z
M 2034 4750 
Q 2819 4750 3233 4129 
Q 3647 3509 3647 2328 
Q 3647 1150 3233 529 
Q 2819 -91 2034 -91 
Q 1250 -91 836 529 
Q 422 1150 422 2328 
Q 422 3509 836 4129 
Q 1250 4750 2034 4750 
z
" transform="scale(0.015625)"/>
       </defs>
       <use xlink:href="#DejaVuSans-30"/>
      </g>
     </g>
    </g>
    <g id="ytick_2">
     <g id="line2d_5">
      <g>
       <use xlink:href="#m73522b48b3" x="34.240625" y="16.627596" style="stroke: #000000; stroke-width: 0.8"/>
      </g>
     </g>
     <g id="text_2">
      <!-- 1 -->
      <g transform="translate(20.878125 20.426815) scale(0.1 -0.1)">
       <defs>
        <path id="DejaVuSans-31" d="M 794 531 
L 1825 531 
L 1825 4091 
L 703 3866 
L 703 4441 
L 1819 4666 
L 2450 4666 
L 2450 531 
L 3481 531 
L 3481 0 
L 794 0 
L 794 531 
z
" transform="scale(0.015625)"/>
       </defs>
       <use xlink:href="#DejaVuSans-31"/>
      </g>
     </g>
    </g>
    <g id="ytick_3">
     <g id="line2d_6">
      <g>
       <use xlink:href="#m73522b48b3" x="34.240625" y="10.999219" style="stroke: #000000; stroke-width: 0.8"/>
      </g>
     </g>
     <g id="text_3">
      <!-- 2 -->
      <g transform="translate(20.878125 14.798437) scale(0.1 -0.1)">
       <defs>
        <path id="DejaVuSans-32" d="M 1228 531 
L 3431 531 
L 3431 0 
L 469 0 
L 469 531 
Q 828 903 1448 1529 
Q 2069 2156 2228 2338 
Q 2531 2678 2651 2914 
Q 2772 3150 2772 3378 
Q 2772 3750 2511 3984 
Q 2250 4219 1831 4219 
Q 1534 4219 1204 4116 
Q 875 4013 500 3803 
L 500 4441 
Q 881 4594 1212 4672 
Q 1544 4750 1819 4750 
Q 2544 4750 2975 4387 
Q 3406 4025 3406 3419 
Q 3406 3131 3298 2873 
Q 3191 2616 2906 2266 
Q 2828 2175 2409 1742 
Q 1991 1309 1228 531 
z
" transform="scale(0.015625)"/>
       </defs>
       <use xlink:href="#DejaVuSans-32"/>
      </g>
     </g>
    </g>
    <g id="text_4">
     <!-- $f(x)$ -->
     <g transform="translate(14.798438 24.915386) rotate(-90) scale(0.1 -0.1)">
      <defs>
       <path id="DejaVuSans-Oblique-66" d="M 3059 4863 
L 2969 4384 
L 2419 4384 
Q 2106 4384 1964 4261 
Q 1822 4138 1753 3809 
L 1691 3500 
L 2638 3500 
L 2553 3053 
L 1606 3053 
L 1013 0 
L 434 0 
L 1031 3053 
L 481 3053 
L 563 3500 
L 1113 3500 
L 1159 3744 
Q 1278 4363 1576 4613 
Q 1875 4863 2516 4863 
L 3059 4863 
z
" transform="scale(0.015625)"/>
       <path id="DejaVuSans-28" d="M 1984 4856 
Q 1566 4138 1362 3434 
Q 1159 2731 1159 2009 
Q 1159 1288 1364 580 
Q 1569 -128 1984 -844 
L 1484 -844 
Q 1016 -109 783 600 
Q 550 1309 550 2009 
Q 550 2706 781 3412 
Q 1013 4119 1484 4856 
L 1984 4856 
z
" transform="scale(0.015625)"/>
       <path id="DejaVuSans-Oblique-78" d="M 3841 3500 
L 2234 1784 
L 3219 0 
L 2559 0 
L 1819 1388 
L 531 0 
L -166 0 
L 1556 1844 
L 641 3500 
L 1300 3500 
L 1972 2234 
L 3144 3500 
L 3841 3500 
z
" transform="scale(0.015625)"/>
       <path id="DejaVuSans-29" d="M 513 4856 
L 1013 4856 
Q 1481 4119 1714 3412 
Q 1947 2706 1947 2009 
Q 1947 1309 1714 600 
Q 1481 -109 1013 -844 
L 513 -844 
Q 928 -128 1133 580 
Q 1338 1288 1338 2009 
Q 1338 2731 1133 3434 
Q 928 4138 513 4856 
z
" transform="scale(0.015625)"/>
      </defs>
      <use xlink:href="#DejaVuSans-Oblique-66" transform="translate(0 0.015625)"/>
      <use xlink:href="#DejaVuSans-28" transform="translate(35.205078 0.015625)"/>
      <use xlink:href="#DejaVuSans-Oblique-78" transform="translate(74.21875 0.015625)"/>
      <use xlink:href="#DejaVuSans-29" transform="translate(133.398438 0.015625)"/>
     </g>
    </g>
   </g>
   <g id="line2d_7">
    <path d="M 34.240625 16.411402 
L 37.822033 15.951516 
L 41.403441 15.544812 
L 44.984848 15.195753 
L 48.566256 14.908079 
L 52.147664 14.684762 
L 55.729072 14.527964 
L 59.31048 14.439017 
L 62.891888 14.4184 
L 66.473295 14.465738 
L 70.054703 14.579799 
L 73.636111 14.75852 
L 77.217519 14.99902 
L 80.798927 15.297645 
L 84.380335 15.650007 
L 87.961742 16.051038 
L 91.54315 16.495056 
L 95.124558 16.975831 
L 98.705966 17.486663 
L 102.287374 18.020465 
L 105.868782 18.569847 
L 109.450189 19.12721 
L 113.031597 19.684838 
L 116.613005 20.234992 
L 120.194413 20.770007 
L 123.775821 21.282385 
L 127.357229 21.764885 
L 130.938636 22.210617 
L 134.520044 22.61312 
L 138.101452 22.966446 
L 141.68286 23.265231 
L 145.264268 23.504763 
L 148.845676 23.681035 
L 152.427083 23.790798 
L 156.008491 23.831598 
L 159.589899 23.801809 
L 163.171307 23.700647 
L 166.752715 23.528185 
L 170.334122 23.285348 
L 173.91553 22.973903 
L 177.496938 22.596434 
L 181.078346 22.156311 
L 184.659754 21.657649 
L 188.241162 21.105256 
L 191.822569 20.504569 
L 195.403977 19.861595 
L 198.985385 19.182826 
L 202.566793 18.475166 
L 206.148201 17.745842 
L 209.729609 17.002314 
L 213.311016 16.252183 
L 216.892424 15.503095 
L 220.473832 14.76265 
L 224.05524 14.038301 
L 227.636648 13.337267 
L 231.218056 12.66644 
L 234.799463 12.0323 
L 238.380871 11.440837 
L 241.962279 10.897468 
L 245.543687 10.40698 
L 249.125095 9.973462 
L 252.706503 9.600257 
L 256.28791 9.289919 
L 259.869318 9.044181 
L 263.450726 8.863931 
L 267.032134 8.749204 
L 270.613542 8.699174 
L 274.194949 8.71217 
L 277.776357 8.78569 
L 281.357765 8.916434 
L 284.939173 9.100343 
L 288.520581 9.332647 
L 292.101989 9.607921 
L 295.683396 9.920155 
L 299.264804 10.262824 
L 302.846212 10.628967 
L 306.42762 11.011271 
L 310.009028 11.402163 
L 313.590436 11.793899 
L 317.171843 12.178658 
L 320.753251 12.548639 
L 324.334659 12.896154 
L 327.916067 13.213722 
L 331.497475 13.49416 
L 335.078883 13.730668 
L 338.66029 13.916916 
L 342.241698 14.047113 
L 345.823106 14.116083 
L 349.404514 14.119325 
L 352.985922 14.053066 
L 356.56733 13.914307 
L 360.148737 13.700857 
L 363.730145 13.411357 
L 367.311553 13.045298 
L 370.892961 12.603024 
L 374.474369 12.085724 
L 378.055777 11.495416 
L 381.637184 10.834922 
L 385.218592 10.107828 
L 388.8 9.318441 
" clip-path="url(#p15bf8a78b2)" style="fill: none; stroke-dasharray: 16.65,7.2; stroke-dashoffset: 0; stroke: #cecece; stroke-width: 4.5"/>
   </g>
   <g id="line2d_8">
    <path d="M 34.240625 19.15659 
L 37.822033 19.155911 
L 41.403441 19.155204 
L 44.984848 19.154468 
L 48.566256 19.1537 
L 52.147664 19.1529 
L 55.729072 19.152064 
L 59.31048 19.151191 
L 62.891888 19.150277 
L 66.473295 19.14932 
L 70.054703 19.148316 
L 73.636111 19.147263 
L 77.217519 19.146156 
L 80.798927 19.144992 
L 84.380335 19.143765 
L 87.961742 19.14247 
L 91.54315 19.141102 
L 95.124558 19.139655 
L 98.705966 19.13812 
L 102.287374 19.13649 
L 105.868782 19.134756 
L 109.450189 19.132908 
L 113.031597 19.130934 
L 116.613005 19.12882 
L 120.194413 19.126551 
L 123.775821 19.12411 
L 127.357229 19.121476 
L 130.938636 19.118626 
L 134.520044 19.11553 
L 138.101452 19.112158 
L 141.68286 19.108468 
L 145.264268 19.104416 
L 148.845676 19.099944 
L 152.427083 19.094983 
L 156.008491 19.08945 
L 159.589899 19.083239 
L 163.171307 19.076216 
L 166.752715 19.068214 
L 170.334122 19.05901 
L 173.91553 19.048313 
L 177.496938 19.035728 
L 181.078346 19.020707 
L 184.659754 19.002469 
L 188.241162 18.97986 
L 191.822569 18.951099 
L 195.403977 18.913292 
L 198.985385 18.861405 
L 202.566793 18.785855 
L 206.148201 18.665983 
L 209.729609 18.448224 
L 213.311016 17.946536 
L 216.892424 16.242864 
L 220.473832 13.271867 
L 224.05524 12.294646 
L 227.636648 11.954428 
L 231.218056 11.788354 
L 234.799463 11.690797 
L 238.380871 11.626786 
L 241.962279 11.58161 
L 245.543687 11.548044 
L 249.125095 11.522129 
L 252.706503 11.501521 
L 256.28791 11.484743 
L 259.869318 11.470821 
L 263.450726 11.459082 
L 267.032134 11.449051 
L 270.613542 11.440379 
L 274.194949 11.432811 
L 277.776357 11.426146 
L 281.357765 11.420234 
L 284.939173 11.41495 
L 288.520581 11.410204 
L 292.101989 11.405915 
L 295.683396 11.402021 
L 299.264804 11.398469 
L 302.846212 11.395216 
L 306.42762 11.392228 
L 310.009028 11.38947 
L 313.590436 11.386921 
L 317.171843 11.384553 
L 320.753251 11.382351 
L 324.334659 11.380298 
L 327.916067 11.378378 
L 331.497475 11.376578 
L 335.078883 11.37489 
L 338.66029 11.373301 
L 342.241698 11.371804 
L 345.823106 11.370389 
L 349.404514 11.369053 
L 352.985922 11.367787 
L 356.56733 11.366588 
L 360.148737 11.365447 
L 363.730145 11.364363 
L 367.311553 11.363332 
L 370.892961 11.362348 
L 374.474369 11.361409 
L 378.055777 11.360513 
L 381.637184 11.359656 
L 385.218592 11.358834 
L 388.8 11.358048 
" clip-path="url(#p15bf8a78b2)" style="fill: none; stroke: #2255a0; stroke-opacity: 0.9; stroke-width: 1.5; stroke-linecap: square"/>
   </g>
   <g id="patch_3">
    <path d="M 34.240625 24.58822 
L 34.240625 7.942553 
" style="fill: none; stroke: #000000; stroke-width: 0.8; stroke-linejoin: miter; stroke-linecap: square"/>
   </g>
   <g id="patch_4">
    <path d="M 388.8 24.58822 
L 388.8 7.942553 
" style="fill: none; stroke: #000000; stroke-width: 0.8; stroke-linejoin: miter; stroke-linecap: square"/>
   </g>
   <g id="patch_5">
    <path d="M 34.240625 24.58822 
L 388.8 24.58822 
" style="fill: none; stroke: #000000; stroke-width: 0.8; stroke-linejoin: miter; stroke-linecap: square"/>
   </g>
   <g id="patch_6">
    <path d="M 34.240625 7.942553 
L 388.8 7.942553 
" style="fill: none; stroke: #000000; stroke-width: 0.8; stroke-linejoin: miter; stroke-linecap: square"/>
   </g>
   <g id="text_5">
    <!-- 1 neurons -->
    <g style="fill: #2255a0" transform="translate(41.331812 15.946343) scale(0.09 -0.09)">
     <defs>
      <path id="DejaVuSans-20" transform="scale(0.015625)"/>
      <path id="DejaVuSans-6e" d="M 3513 2113 
L 3513 0 
L 2938 0 
L 2938 2094 
Q 2938 2591 2744 2837 
Q 2550 3084 2163 3084 
Q 1697 3084 1428 2787 
Q 1159 2491 1159 1978 
L 1159 0 
L 581 0 
L 581 3500 
L 1159 3500 
L 1159 2956 
Q 1366 3272 1645 3428 
Q 1925 3584 2291 3584 
Q 2894 3584 3203 3211 
Q 3513 2838 3513 2113 
z
" transform="scale(0.015625)"/>
      <path id="DejaVuSans-65" d="M 3597 1894 
L 3597 1613 
L 953 1613 
Q 991 1019 1311 708 
Q 1631 397 2203 397 
Q 2534 397 2845 478 
Q 3156 559 3463 722 
L 3463 178 
Q 3153 47 2828 -22 
Q 2503 -91 2169 -91 
Q 1331 -91 842 396 
Q 353 884 353 1716 
Q 353 2575 817 3079 
Q 1281 3584 2069 3584 
Q 2775 3584 3186 3129 
Q 3597 2675 3597 1894 
z
M 3022 2063 
Q 3016 2534 2758 2815 
Q 2500 3097 2075 3097 
Q 1594 3097 1305 2825 
Q 1016 2553 972 2059 
L 3022 2063 
z
" transform="scale(0.015625)"/>
      <path id="DejaVuSans-75" d="M 544 1381 
L 544 3500 
L 1119 3500 
L 1119 1403 
Q 1119 906 1312 657 
Q 1506 409 1894 409 
Q 2359 409 2629 706 
Q 2900 1003 2900 1516 
L 2900 3500 
L 3475 3500 
L 3475 0 
L 2900 0 
L 2900 538 
Q 2691 219 2414 64 
Q 2138 -91 1772 -91 
Q 1169 -91 856 284 
Q 544 659 544 1381 
z
M 1991 3584 
L 1991 3584 
z
" transform="scale(0.015625)"/>
      <path id="DejaVuSans-72" d="M 2631 2963 
Q 2534 3019 2420 3045 
Q 2306 3072 2169 3072 
Q 1681 3072 1420 2755 
Q 1159 2438 1159 1844 
L 1159 0 
L 581 0 
L 581 3500 
L 1159 3500 
L 1159 2956 
Q 1341 3275 1631 3429 
Q 1922 3584 2338 3584 
Q 2397 3584 2469 3576 
Q 2541 3569 2628 3553 
L 2631 2963 
z
" transform="scale(0.015625)"/>
      <path id="DejaVuSans-6f" d="M 1959 3097 
Q 1497 3097 1228 2736 
Q 959 2375 959 1747 
Q 959 1119 1226 758 
Q 1494 397 1959 397 
Q 2419 397 2687 759 
Q 2956 1122 2956 1747 
Q 2956 2369 2687 2733 
Q 2419 3097 1959 3097 
z
M 1959 3584 
Q 2709 3584 3137 3096 
Q 3566 2609 3566 1747 
Q 3566 888 3137 398 
Q 2709 -91 1959 -91 
Q 1206 -91 779 398 
Q 353 888 353 1747 
Q 353 2609 779 3096 
Q 1206 3584 1959 3584 
z
" transform="scale(0.015625)"/>
      <path id="DejaVuSans-73" d="M 2834 3397 
L 2834 2853 
Q 2591 2978 2328 3040 
Q 2066 3103 1784 3103 
Q 1356 3103 1142 2972 
Q 928 2841 928 2578 
Q 928 2378 1081 2264 
Q 1234 2150 1697 2047 
L 1894 2003 
Q 2506 1872 2764 1633 
Q 3022 1394 3022 966 
Q 3022 478 2636 193 
Q 2250 -91 1575 -91 
Q 1294 -91 989 -36 
Q 684 19 347 128 
L 347 722 
Q 666 556 975 473 
Q 1284 391 1588 391 
Q 1994 391 2212 530 
Q 2431 669 2431 922 
Q 2431 1156 2273 1281 
Q 2116 1406 1581 1522 
L 1381 1569 
Q 847 1681 609 1914 
Q 372 2147 372 2553 
Q 372 3047 722 3315 
Q 1072 3584 1716 3584 
Q 2034 3584 2315 3537 
Q 2597 3491 2834 3397 
z
" transform="scale(0.015625)"/>
     </defs>
     <use xlink:href="#DejaVuSans-31"/>
     <use xlink:href="#DejaVuSans-20" x="63.623047"/>
     <use xlink:href="#DejaVuSans-6e" x="95.410156"/>
     <use xlink:href="#DejaVuSans-65" x="158.789062"/>
     <use xlink:href="#DejaVuSans-75" x="220.3125"/>
     <use xlink:href="#DejaVuSans-72" x="283.691406"/>
     <use xlink:href="#DejaVuSans-6f" x="322.554688"/>
     <use xlink:href="#DejaVuSans-6e" x="383.736328"/>
     <use xlink:href="#DejaVuSans-73" x="447.115234"/>
    </g>
   </g>
  </g>
  <g id="axes_2">
   <g id="patch_7">
    <path d="M 34.240625 52.741707 
L 388.8 52.741707 
L 388.8 36.09604 
L 34.240625 36.09604 
z
" style="fill: #ffffff"/>
   </g>
   <g id="matplotlib.axis_3">
    <g id="xtick_4">
     <g id="line2d_9">
      <g>
       <use xlink:href="#m0a5602c966" x="50.35696" y="52.741707" style="stroke: #000000; stroke-width: 0.8"/>
      </g>
     </g>
    </g>
    <g id="xtick_5">
     <g id="line2d_10">
      <g>
       <use xlink:href="#m0a5602c966" x="211.520312" y="52.741707" style="stroke: #000000; stroke-width: 0.8"/>
      </g>
     </g>
    </g>
    <g id="xtick_6">
     <g id="line2d_11">
      <g>
       <use xlink:href="#m0a5602c966" x="372.683665" y="52.741707" style="stroke: #000000; stroke-width: 0.8"/>
      </g>
     </g>
    </g>
   </g>
   <g id="matplotlib.axis_4">
    <g id="ytick_4">
     <g id="line2d_12">
      <g>
       <use xlink:href="#m73522b48b3" x="34.240625" y="50.40946" style="stroke: #000000; stroke-width: 0.8"/>
      </g>
     </g>
     <g id="text_6">
      <!-- 0 -->
      <g transform="translate(20.878125 54.208679) scale(0.1 -0.1)">
       <use xlink:href="#DejaVuSans-30"/>
      </g>
     </g>
    </g>
    <g id="ytick_5">
     <g id="line2d_13">
      <g>
       <use xlink:href="#m73522b48b3" x="34.240625" y="44.781083" style="stroke: #000000; stroke-width: 0.8"/>
      </g>
     </g>
     <g id="text_7">
      <!-- 1 -->
      <g transform="translate(20.878125 48.580302) scale(0.1 -0.1)">
       <use xlink:href="#DejaVuSans-31"/>
      </g>
     </g>
    </g>
    <g id="ytick_6">
     <g id="line2d_14">
      <g>
       <use xlink:href="#m73522b48b3" x="34.240625" y="39.152706" style="stroke: #000000; stroke-width: 0.8"/>
      </g>
     </g>
     <g id="text_8">
      <!-- 2 -->
      <g transform="translate(20.878125 42.951925) scale(0.1 -0.1)">
       <use xlink:href="#DejaVuSans-32"/>
      </g>
     </g>
    </g>
    <g id="text_9">
     <!-- $f(x)$ -->
     <g transform="translate(14.798438 53.068873) rotate(-90) scale(0.1 -0.1)">
      <use xlink:href="#DejaVuSans-Oblique-66" transform="translate(0 0.015625)"/>
      <use xlink:href="#DejaVuSans-28" transform="translate(35.205078 0.015625)"/>
      <use xlink:href="#DejaVuSans-Oblique-78" transform="translate(74.21875 0.015625)"/>
      <use xlink:href="#DejaVuSans-29" transform="translate(133.398438 0.015625)"/>
     </g>
    </g>
   </g>
   <g id="line2d_15">
    <path d="M 34.240625 44.564889 
L 37.822033 44.105003 
L 41.403441 43.698299 
L 44.984848 43.34924 
L 48.566256 43.061566 
L 52.147664 42.838249 
L 55.729072 42.681451 
L 59.31048 42.592504 
L 62.891888 42.571888 
L 66.473295 42.619225 
L 70.054703 42.733287 
L 73.636111 42.912007 
L 77.217519 43.152507 
L 80.798927 43.451132 
L 84.380335 43.803494 
L 87.961742 44.204525 
L 91.54315 44.648543 
L 95.124558 45.129318 
L 98.705966 45.640151 
L 102.287374 46.173952 
L 105.868782 46.723334 
L 109.450189 47.280697 
L 113.031597 47.838325 
L 116.613005 48.388479 
L 120.194413 48.923494 
L 123.775821 49.435872 
L 127.357229 49.918373 
L 130.938636 50.364104 
L 134.520044 50.766607 
L 138.101452 51.119933 
L 141.68286 51.418718 
L 145.264268 51.65825 
L 148.845676 51.834522 
L 152.427083 51.944285 
L 156.008491 51.985085 
L 159.589899 51.955296 
L 163.171307 51.854134 
L 166.752715 51.681672 
L 170.334122 51.438836 
L 173.91553 51.12739 
L 177.496938 50.749921 
L 181.078346 50.309798 
L 184.659754 49.811136 
L 188.241162 49.258743 
L 191.822569 48.658056 
L 195.403977 48.015082 
L 198.985385 47.336313 
L 202.566793 46.628653 
L 206.148201 45.899329 
L 209.729609 45.155801 
L 213.311016 44.40567 
L 216.892424 43.656583 
L 220.473832 42.916137 
L 224.05524 42.191788 
L 227.636648 41.490754 
L 231.218056 40.819927 
L 234.799463 40.185788 
L 238.380871 39.594324 
L 241.962279 39.050955 
L 245.543687 38.560467 
L 249.125095 38.126949 
L 252.706503 37.753744 
L 256.28791 37.443406 
L 259.869318 37.197668 
L 263.450726 37.017418 
L 267.032134 36.902691 
L 270.613542 36.852661 
L 274.194949 36.865657 
L 277.776357 36.939177 
L 281.357765 37.069921 
L 284.939173 37.25383 
L 288.520581 37.486134 
L 292.101989 37.761408 
L 295.683396 38.073642 
L 299.264804 38.416311 
L 302.846212 38.782454 
L 306.42762 39.164758 
L 310.009028 39.55565 
L 313.590436 39.947386 
L 317.171843 40.332145 
L 320.753251 40.702126 
L 324.334659 41.049641 
L 327.916067 41.367209 
L 331.497475 41.647647 
L 335.078883 41.884156 
L 338.66029 42.070403 
L 342.241698 42.2006 
L 345.823106 42.26957 
L 349.404514 42.272812 
L 352.985922 42.206553 
L 356.56733 42.067794 
L 360.148737 41.854344 
L 363.730145 41.564844 
L 367.311553 41.198785 
L 370.892961 40.756511 
L 374.474369 40.239211 
L 378.055777 39.648903 
L 381.637184 38.988409 
L 385.218592 38.261316 
L 388.8 37.471928 
" clip-path="url(#p5f9d75d10c)" style="fill: none; stroke-dasharray: 16.65,7.2; stroke-dashoffset: 0; stroke: #cecece; stroke-width: 4.5"/>
   </g>
   <g id="line2d_16">
    <path d="M 34.240625 47.310077 
L 37.822033 47.309398 
L 41.403441 47.308691 
L 44.984848 47.307955 
L 48.566256 47.307187 
L 52.147664 47.306387 
L 55.729072 47.305551 
L 59.31048 47.304678 
L 62.891888 47.303764 
L 66.473295 47.302807 
L 70.054703 47.301803 
L 73.636111 47.30075 
L 77.217519 47.299644 
L 80.798927 47.298479 
L 84.380335 47.297252 
L 87.961742 47.295957 
L 91.54315 47.294589 
L 95.124558 47.293142 
L 98.705966 47.291607 
L 102.287374 47.289977 
L 105.868782 47.288243 
L 109.450189 47.286395 
L 113.031597 47.284421 
L 116.613005 47.282307 
L 120.194413 47.280038 
L 123.775821 47.277597 
L 127.357229 47.274964 
L 130.938636 47.272113 
L 134.520044 47.269017 
L 138.101452 47.265645 
L 141.68286 47.261955 
L 145.264268 47.257903 
L 148.845676 47.253431 
L 152.427083 47.248471 
L 156.008491 47.242937 
L 159.589899 47.236726 
L 163.171307 47.229703 
L 166.752715 47.221701 
L 170.334122 47.212497 
L 173.91553 47.2018 
L 177.496938 47.189215 
L 181.078346 47.174194 
L 184.659754 47.155956 
L 188.241162 47.133347 
L 191.822569 47.104586 
L 195.403977 47.066779 
L 198.985385 47.014892 
L 202.566793 46.939342 
L 206.148201 46.81947 
L 209.729609 46.601711 
L 213.311016 46.100023 
L 216.892424 44.396351 
L 220.473832 41.425354 
L 224.05524 40.448133 
L 227.636648 40.107915 
L 231.218056 39.941841 
L 234.799463 39.844284 
L 238.380871 39.780273 
L 241.962279 39.735097 
L 245.543687 39.701531 
L 249.125095 39.675616 
L 252.706503 39.655008 
L 256.28791 39.63823 
L 259.869318 39.624308 
L 263.450726 39.612569 
L 267.032134 39.602538 
L 270.613542 39.593866 
L 274.194949 39.586299 
L 277.776357 39.579633 
L 281.357765 39.573721 
L 284.939173 39.568437 
L 288.520581 39.563691 
L 292.101989 39.559402 
L 295.683396 39.555508 
L 299.264804 39.551956 
L 302.846212 39.548703 
L 306.42762 39.545715 
L 310.009028 39.542957 
L 313.590436 39.540408 
L 317.171843 39.53804 
L 320.753251 39.535838 
L 324.334659 39.533785 
L 327.916067 39.531865 
L 331.497475 39.530065 
L 335.078883 39.528377 
L 338.66029 39.526788 
L 342.241698 39.525291 
L 345.823106 39.523876 
L 349.404514 39.52254 
L 352.985922 39.521274 
L 356.56733 39.520075 
L 360.148737 39.518934 
L 363.730145 39.51785 
L 367.311553 39.516819 
L 370.892961 39.515835 
L 374.474369 39.514896 
L 378.055777 39.514 
L 381.637184 39.513143 
L 385.218592 39.512321 
L 388.8 39.511535 
" clip-path="url(#p5f9d75d10c)" style="fill: none; stroke: #2255a0; stroke-opacity: 0.4; stroke-linecap: square"/>
   </g>
   <g id="line2d_17">
    <path d="M 34.240625 41.846866 
L 37.822033 42.025844 
L 41.403441 42.211049 
L 44.984848 42.40276 
L 48.566256 42.601255 
L 52.147664 42.806814 
L 55.729072 43.019738 
L 59.31048 43.240348 
L 62.891888 43.46888 
L 66.473295 43.705658 
L 70.054703 43.95098 
L 73.636111 44.205149 
L 77.217519 44.468442 
L 80.798927 44.741033 
L 84.380335 45.023177 
L 87.961742 45.315112 
L 91.54315 45.616902 
L 95.124558 45.928612 
L 98.705966 46.250155 
L 102.287374 46.581381 
L 105.868782 46.922033 
L 109.450189 47.271509 
L 113.031597 47.629123 
L 116.613005 47.993854 
L 120.194413 48.364264 
L 123.775821 48.738614 
L 127.357229 49.114595 
L 130.938636 49.48931 
L 134.520044 49.859237 
L 138.101452 50.219942 
L 141.68286 50.566198 
L 145.264268 50.891745 
L 148.845676 51.189316 
L 152.427083 51.450516 
L 156.008491 51.665941 
L 159.589899 51.825285 
L 163.171307 51.91763 
L 166.752715 51.931774 
L 170.334122 51.856879 
L 173.91553 51.683225 
L 177.496938 51.403077 
L 181.078346 51.011658 
L 184.659754 50.508096 
L 188.241162 49.896158 
L 191.822569 49.184698 
L 195.403977 48.387543 
L 198.985385 47.522952 
L 202.566793 46.612473 
L 206.148201 45.679454 
L 209.729609 44.747383 
L 213.311016 43.838254 
L 216.892424 42.9713 
L 220.473832 42.162 
L 224.05524 41.421733 
L 227.636648 40.757729 
L 231.218056 40.17344 
L 234.799463 39.669118 
L 238.380871 39.242413 
L 241.962279 38.8892 
L 245.543687 38.604061 
L 249.125095 38.380853 
L 252.706503 38.213168 
L 256.28791 38.094672 
L 259.869318 38.019149 
L 263.450726 37.98091 
L 267.032134 37.974662 
L 270.613542 37.99566 
L 274.194949 38.0396 
L 277.776357 38.102788 
L 281.357765 38.181906 
L 284.939173 38.274101 
L 288.520581 38.376902 
L 292.101989 38.488227 
L 295.683396 38.606186 
L 299.264804 38.729255 
L 302.846212 38.856168 
L 306.42762 38.985721 
L 310.009028 39.117035 
L 313.590436 39.249315 
L 317.171843 39.381874 
L 320.753251 39.514197 
L 324.334659 39.645833 
L 327.916067 39.776332 
L 331.497475 39.905477 
L 335.078883 40.032991 
L 338.66029 40.158679 
L 342.241698 40.282349 
L 345.823106 40.403937 
L 349.404514 40.523271 
L 352.985922 40.640371 
L 356.56733 40.755195 
L 360.148737 40.867637 
L 363.730145 40.977717 
L 367.311553 41.085477 
L 370.892961 41.190919 
L 374.474369 41.293977 
L 378.055777 41.394782 
L 381.637184 41.49331 
L 385.218592 41.589627 
L 388.8 41.683732 
" clip-path="url(#p5f9d75d10c)" style="fill: none; stroke: #2255a0; stroke-opacity: 0.9; stroke-width: 1.5; stroke-linecap: square"/>
   </g>
   <g id="patch_8">
    <path d="M 34.240625 52.741707 
L 34.240625 36.09604 
" style="fill: none; stroke: #000000; stroke-width: 0.8; stroke-linejoin: miter; stroke-linecap: square"/>
   </g>
   <g id="patch_9">
    <path d="M 388.8 52.741707 
L 388.8 36.09604 
" style="fill: none; stroke: #000000; stroke-width: 0.8; stroke-linejoin: miter; stroke-linecap: square"/>
   </g>
   <g id="patch_10">
    <path d="M 34.240625 52.741707 
L 388.8 52.741707 
" style="fill: none; stroke: #000000; stroke-width: 0.8; stroke-linejoin: miter; stroke-linecap: square"/>
   </g>
   <g id="patch_11">
    <path d="M 34.240625 36.09604 
L 388.8 36.09604 
" style="fill: none; stroke: #000000; stroke-width: 0.8; stroke-linejoin: miter; stroke-linecap: square"/>
   </g>
   <g id="text_10">
    <!-- 2 neurons -->
    <g style="fill: #2255a0" transform="translate(41.331812 44.09983) scale(0.09 -0.09)">
     <use xlink:href="#DejaVuSans-32"/>
     <use xlink:href="#DejaVuSans-20" x="63.623047"/>
     <use xlink:href="#DejaVuSans-6e" x="95.410156"/>
     <use xlink:href="#DejaVuSans-65" x="158.789062"/>
     <use xlink:href="#DejaVuSans-75" x="220.3125"/>
     <use xlink:href="#DejaVuSans-72" x="283.691406"/>
     <use xlink:href="#DejaVuSans-6f" x="322.554688"/>
     <use xlink:href="#DejaVuSans-6e" x="383.736328"/>
     <use xlink:href="#DejaVuSans-73" x="447.115234"/>
    </g>
   </g>
  </g>
  <g id="axes_3">
   <g id="patch_12">
    <path d="M 34.240625 80.852414 
L 388.8 80.852414 
L 388.8 64.206747 
L 34.240625 64.206747 
z
" style="fill: #ffffff"/>
   </g>
   <g id="matplotlib.axis_5">
    <g id="xtick_7">
     <g id="line2d_18">
      <g>
       <use xlink:href="#m0a5602c966" x="50.35696" y="80.852414" style="stroke: #000000; stroke-width: 0.8"/>
      </g>
     </g>
    </g>
    <g id="xtick_8">
     <g id="line2d_19">
      <g>
       <use xlink:href="#m0a5602c966" x="211.520312" y="80.852414" style="stroke: #000000; stroke-width: 0.8"/>
      </g>
     </g>
    </g>
    <g id="xtick_9">
     <g id="line2d_20">
      <g>
       <use xlink:href="#m0a5602c966" x="372.683665" y="80.852414" style="stroke: #000000; stroke-width: 0.8"/>
      </g>
     </g>
    </g>
   </g>
   <g id="matplotlib.axis_6">
    <g id="ytick_7">
     <g id="line2d_21">
      <g>
       <use xlink:href="#m73522b48b3" x="34.240625" y="78.506563" style="stroke: #000000; stroke-width: 0.8"/>
      </g>
     </g>
     <g id="text_11">
      <!-- 0 -->
      <g transform="translate(20.878125 82.305782) scale(0.1 -0.1)">
       <use xlink:href="#DejaVuSans-30"/>
      </g>
     </g>
    </g>
    <g id="ytick_8">
     <g id="line2d_22">
      <g>
       <use xlink:href="#m73522b48b3" x="34.240625" y="72.906452" style="stroke: #000000; stroke-width: 0.8"/>
      </g>
     </g>
     <g id="text_12">
      <!-- 1 -->
      <g transform="translate(20.878125 76.705671) scale(0.1 -0.1)">
       <use xlink:href="#DejaVuSans-31"/>
      </g>
     </g>
    </g>
    <g id="ytick_9">
     <g id="line2d_23">
      <g>
       <use xlink:href="#m73522b48b3" x="34.240625" y="67.306341" style="stroke: #000000; stroke-width: 0.8"/>
      </g>
     </g>
     <g id="text_13">
      <!-- 2 -->
      <g transform="translate(20.878125 71.10556) scale(0.1 -0.1)">
       <use xlink:href="#DejaVuSans-32"/>
      </g>
     </g>
    </g>
    <g id="text_14">
     <!-- $f(x)$ -->
     <g transform="translate(14.798438 81.17958) rotate(-90) scale(0.1 -0.1)">
      <use xlink:href="#DejaVuSans-Oblique-66" transform="translate(0 0.015625)"/>
      <use xlink:href="#DejaVuSans-28" transform="translate(35.205078 0.015625)"/>
      <use xlink:href="#DejaVuSans-Oblique-78" transform="translate(74.21875 0.015625)"/>
      <use xlink:href="#DejaVuSans-29" transform="translate(133.398438 0.015625)"/>
     </g>
    </g>
   </g>
   <g id="line2d_24">
    <path d="M 34.240625 72.691344 
L 37.822033 72.233768 
L 41.403441 71.829106 
L 44.984848 71.4818 
L 48.566256 71.195571 
L 52.147664 70.973375 
L 55.729072 70.817365 
L 59.31048 70.728864 
L 62.891888 70.708351 
L 66.473295 70.755451 
L 70.054703 70.86894 
L 73.636111 71.046763 
L 77.217519 71.286055 
L 80.798927 71.583181 
L 84.380335 71.933772 
L 87.961742 72.332789 
L 91.54315 72.774578 
L 95.124558 73.252938 
L 98.705966 73.761205 
L 102.287374 74.292326 
L 105.868782 74.838949 
L 109.450189 75.393513 
L 113.031597 75.94834 
L 116.613005 76.495731 
L 120.194413 77.02806 
L 123.775821 77.537864 
L 127.357229 78.017942 
L 130.938636 78.461434 
L 134.520044 78.861916 
L 138.101452 79.213467 
L 141.68286 79.510753 
L 145.264268 79.749081 
L 148.845676 79.924468 
L 152.427083 80.03368 
L 156.008491 80.074275 
L 159.589899 80.044635 
L 163.171307 79.943981 
L 166.752715 79.772386 
L 170.334122 79.530769 
L 173.91553 79.220887 
L 177.496938 78.845314 
L 181.078346 78.407401 
L 184.659754 77.911244 
L 188.241162 77.361624 
L 191.822569 76.763955 
L 195.403977 76.124209 
L 198.985385 75.448849 
L 202.566793 74.744743 
L 206.148201 74.019082 
L 209.729609 73.279288 
L 213.311016 72.532924 
L 216.892424 71.787599 
L 220.473832 71.050872 
L 224.05524 70.330161 
L 227.636648 69.632647 
L 231.218056 68.965189 
L 234.799463 68.334235 
L 238.380871 67.745741 
L 241.962279 67.205102 
L 245.543687 66.717077 
L 249.125095 66.285736 
L 252.706503 65.914405 
L 256.28791 65.605625 
L 259.869318 65.361121 
L 263.450726 65.181777 
L 267.032134 65.067626 
L 270.613542 65.017847 
L 274.194949 65.030778 
L 277.776357 65.103929 
L 281.357765 65.234017 
L 284.939173 65.417002 
L 288.520581 65.648139 
L 292.101989 65.922031 
L 295.683396 66.232697 
L 299.264804 66.573645 
L 302.846212 66.937948 
L 306.42762 67.318333 
L 310.009028 67.707262 
L 313.590436 68.09703 
L 317.171843 68.479857 
L 320.753251 68.84798 
L 324.334659 69.193749 
L 327.916067 69.509723 
L 331.497475 69.788752 
L 335.078883 70.024073 
L 338.66029 70.209385 
L 342.241698 70.338928 
L 345.823106 70.407552 
L 349.404514 70.410778 
L 352.985922 70.344852 
L 356.56733 70.20679 
L 360.148737 69.994411 
L 363.730145 69.706365 
L 367.311553 69.342145 
L 370.892961 68.902092 
L 374.474369 68.38739 
L 378.055777 67.800046 
L 381.637184 67.14287 
L 385.218592 66.419427 
L 388.8 65.634004 
" clip-path="url(#p69b65dac62)" style="fill: none; stroke-dasharray: 16.65,7.2; stroke-dashoffset: 0; stroke: #cecece; stroke-width: 4.5"/>
   </g>
   <g id="line2d_25">
    <path d="M 34.240625 75.422745 
L 37.822033 75.422069 
L 41.403441 75.421366 
L 44.984848 75.420634 
L 48.566256 75.41987 
L 52.147664 75.419074 
L 55.729072 75.418242 
L 59.31048 75.417373 
L 62.891888 75.416464 
L 66.473295 75.415511 
L 70.054703 75.414513 
L 73.636111 75.413465 
L 77.217519 75.412364 
L 80.798927 75.411205 
L 84.380335 75.409984 
L 87.961742 75.408696 
L 91.54315 75.407335 
L 95.124558 75.405895 
L 98.705966 75.404368 
L 102.287374 75.402746 
L 105.868782 75.401021 
L 109.450189 75.399182 
L 113.031597 75.397218 
L 116.613005 75.395115 
L 120.194413 75.392857 
L 123.775821 75.390428 
L 127.357229 75.387808 
L 130.938636 75.384972 
L 134.520044 75.381891 
L 138.101452 75.378536 
L 141.68286 75.374865 
L 145.264268 75.370833 
L 148.845676 75.366384 
L 152.427083 75.361448 
L 156.008491 75.355942 
L 159.589899 75.349762 
L 163.171307 75.342775 
L 166.752715 75.334813 
L 170.334122 75.325655 
L 173.91553 75.315012 
L 177.496938 75.30249 
L 181.078346 75.287544 
L 184.659754 75.269398 
L 188.241162 75.246903 
L 191.822569 75.218286 
L 195.403977 75.180669 
L 198.985385 75.129043 
L 202.566793 75.053872 
L 206.148201 74.934602 
L 209.729609 74.717937 
L 213.311016 74.218768 
L 216.892424 72.523653 
L 220.473832 69.567576 
L 224.05524 68.595263 
L 227.636648 68.256753 
L 231.218056 68.091514 
L 234.799463 67.994446 
L 238.380871 67.930756 
L 241.962279 67.885808 
L 245.543687 67.85241 
L 249.125095 67.826625 
L 252.706503 67.806121 
L 256.28791 67.789427 
L 259.869318 67.775575 
L 263.450726 67.763895 
L 267.032134 67.753914 
L 270.613542 67.745286 
L 274.194949 67.737756 
L 277.776357 67.731124 
L 281.357765 67.725242 
L 284.939173 67.719985 
L 288.520581 67.715262 
L 292.101989 67.710995 
L 295.683396 67.70712 
L 299.264804 67.703586 
L 302.846212 67.70035 
L 306.42762 67.697377 
L 310.009028 67.694633 
L 313.590436 67.692096 
L 317.171843 67.68974 
L 320.753251 67.68755 
L 324.334659 67.685507 
L 327.916067 67.683596 
L 331.497475 67.681806 
L 335.078883 67.680126 
L 338.66029 67.678545 
L 342.241698 67.677055 
L 345.823106 67.675648 
L 349.404514 67.674318 
L 352.985922 67.673059 
L 356.56733 67.671865 
L 360.148737 67.67073 
L 363.730145 67.669652 
L 367.311553 67.668626 
L 370.892961 67.667647 
L 374.474369 67.666713 
L 378.055777 67.665821 
L 381.637184 67.664968 
L 385.218592 67.664151 
L 388.8 67.663368 
" clip-path="url(#p69b65dac62)" style="fill: none; stroke: #2255a0; stroke-opacity: 0.4; stroke-linecap: square"/>
   </g>
   <g id="line2d_26">
    <path d="M 34.240625 69.986971 
L 37.822033 70.16505 
L 41.403441 70.349325 
L 44.984848 70.540073 
L 48.566256 70.737572 
L 52.147664 70.942098 
L 55.729072 71.153953 
L 59.31048 71.373455 
L 62.891888 71.600839 
L 66.473295 71.836428 
L 70.054703 72.080518 
L 73.636111 72.33341 
L 77.217519 72.595382 
L 80.798927 72.866603 
L 84.380335 73.14733 
L 87.961742 73.437799 
L 91.54315 73.738074 
L 95.124558 74.048218 
L 98.705966 74.368146 
L 102.287374 74.697709 
L 105.868782 75.03665 
L 109.450189 75.384371 
L 113.031597 75.740189 
L 116.613005 76.103088 
L 120.194413 76.471638 
L 123.775821 76.844107 
L 127.357229 77.218201 
L 130.938636 77.591034 
L 134.520044 77.959103 
L 138.101452 78.317997 
L 141.68286 78.662514 
L 145.264268 78.986426 
L 148.845676 79.282503 
L 152.427083 79.542391 
L 156.008491 79.756734 
L 159.589899 79.915277 
L 163.171307 80.007158 
L 166.752715 80.021231 
L 170.334122 79.946713 
L 173.91553 79.773931 
L 177.496938 79.49519 
L 181.078346 79.105737 
L 184.659754 78.604703 
L 188.241162 77.995839 
L 191.822569 77.287951 
L 195.403977 76.4948 
L 198.985385 75.634551 
L 202.566793 74.728644 
L 206.148201 73.800311 
L 209.729609 72.872921 
L 213.311016 71.968358 
L 216.892424 71.105758 
L 220.473832 70.300522 
L 224.05524 69.563973 
L 227.636648 68.903304 
L 231.218056 68.321949 
L 234.799463 67.82016 
L 238.380871 67.395597 
L 241.962279 67.044159 
L 245.543687 66.760451 
L 249.125095 66.538364 
L 252.706503 66.371521 
L 256.28791 66.253621 
L 259.869318 66.178477 
L 263.450726 66.14043 
L 267.032134 66.134214 
L 270.613542 66.155106 
L 274.194949 66.198825 
L 277.776357 66.261696 
L 281.357765 66.340417 
L 284.939173 66.432149 
L 288.520581 66.534433 
L 292.101989 66.645199 
L 295.683396 66.762566 
L 299.264804 66.885017 
L 302.846212 67.011293 
L 306.42762 67.140195 
L 310.009028 67.27085 
L 313.590436 67.402465 
L 317.171843 67.534359 
L 320.753251 67.666017 
L 324.334659 67.796992 
L 327.916067 67.926835 
L 331.497475 68.055332 
L 335.078883 68.182205 
L 338.66029 68.307262 
L 342.241698 68.430311 
L 345.823106 68.551289 
L 349.404514 68.670023 
L 352.985922 68.786535 
L 356.56733 68.900783 
L 360.148737 69.01266 
L 363.730145 69.122187 
L 367.311553 69.229406 
L 370.892961 69.334318 
L 374.474369 69.436859 
L 378.055777 69.537157 
L 381.637184 69.635191 
L 385.218592 69.731024 
L 388.8 69.824657 
" clip-path="url(#p69b65dac62)" style="fill: none; stroke: #2255a0; stroke-opacity: 0.4; stroke-linecap: square"/>
   </g>
   <g id="line2d_27">
    <path d="M 34.240625 72.645904 
L 37.822033 72.208257 
L 41.403441 71.823685 
L 44.984848 71.494453 
L 48.566256 71.222698 
L 52.147664 71.010352 
L 55.729072 70.859008 
L 59.31048 70.769926 
L 62.891888 70.74397 
L 66.473295 70.781472 
L 70.054703 70.882294 
L 73.636111 71.045494 
L 77.217519 71.269589 
L 80.798927 71.552229 
L 84.380335 71.890273 
L 87.961742 72.279768 
L 91.54315 72.715921 
L 95.124558 73.193036 
L 98.705966 73.704652 
L 102.287374 74.243633 
L 105.868782 74.802087 
L 109.450189 75.371767 
L 113.031597 75.943946 
L 116.613005 76.50977 
L 120.194413 77.060373 
L 123.775821 77.587028 
L 127.357229 78.081373 
L 130.938636 78.535523 
L 134.520044 78.942333 
L 138.101452 79.295406 
L 141.68286 79.589197 
L 145.264268 79.819166 
L 148.845676 79.981779 
L 152.427083 80.074504 
L 156.008491 80.095792 
L 159.589899 80.04512 
L 163.171307 79.92285 
L 166.752715 79.730276 
L 170.334122 79.469437 
L 173.91553 79.143143 
L 177.496938 78.754854 
L 181.078346 78.308576 
L 184.659754 77.80888 
L 188.241162 77.260734 
L 191.822569 76.66952 
L 195.403977 76.040922 
L 198.985385 75.380835 
L 202.566793 74.695412 
L 206.148201 73.990982 
L 209.729609 73.273899 
L 213.311016 72.550707 
L 216.892424 71.82784 
L 220.473832 71.111825 
L 224.05524 70.409039 
L 227.636648 69.725822 
L 231.218056 69.068336 
L 234.799463 68.442504 
L 238.380871 67.854041 
L 241.962279 67.30832 
L 245.543687 66.810322 
L 249.125095 66.364616 
L 252.706503 65.975216 
L 256.28791 65.645552 
L 259.869318 65.378427 
L 263.450726 65.17586 
L 267.032134 65.039067 
L 270.613542 64.968428 
L 274.194949 64.963368 
L 277.776357 65.022305 
L 281.357765 65.142729 
L 284.939173 65.32106 
L 288.520581 65.552768 
L 292.101989 65.832358 
L 295.683396 66.153445 
L 299.264804 66.508871 
L 302.846212 66.89079 
L 306.42762 67.290846 
L 310.009028 67.700283 
L 313.590436 68.110167 
L 317.171843 68.511501 
L 320.753251 68.895485 
L 324.334659 69.253541 
L 327.916067 69.577642 
L 331.497475 69.860258 
L 335.078883 70.094623 
L 338.66029 70.274682 
L 342.241698 70.395242 
L 345.823106 70.451965 
L 349.404514 70.44133 
L 352.985922 70.360707 
L 356.56733 70.208214 
L 360.148737 69.982811 
L 363.730145 69.684053 
L 367.311553 69.312213 
L 370.892961 68.868082 
L 374.474369 68.352909 
L 378.055777 67.768446 
L 381.637184 67.116734 
L 385.218592 66.400094 
L 388.8 65.621102 
" clip-path="url(#p69b65dac62)" style="fill: none; stroke: #2255a0; stroke-opacity: 0.9; stroke-width: 1.5; stroke-linecap: square"/>
   </g>
   <g id="patch_13">
    <path d="M 34.240625 80.852414 
L 34.240625 64.206747 
" style="fill: none; stroke: #000000; stroke-width: 0.8; stroke-linejoin: miter; stroke-linecap: square"/>
   </g>
   <g id="patch_14">
    <path d="M 388.8 80.852414 
L 388.8 64.206747 
" style="fill: none; stroke: #000000; stroke-width: 0.8; stroke-linejoin: miter; stroke-linecap: square"/>
   </g>
   <g id="patch_15">
    <path d="M 34.240625 80.852414 
L 388.8 80.852414 
" style="fill: none; stroke: #000000; stroke-width: 0.8; stroke-linejoin: miter; stroke-linecap: square"/>
   </g>
   <g id="patch_16">
    <path d="M 34.240625 64.206747 
L 388.8 64.206747 
" style="fill: none; stroke: #000000; stroke-width: 0.8; stroke-linejoin: miter; stroke-linecap: square"/>
   </g>
   <g id="text_15">
    <!-- 3 neurons -->
    <g style="fill: #2255a0" transform="translate(41.331812 72.210537) scale(0.09 -0.09)">
     <defs>
      <path id="DejaVuSans-33" d="M 2597 2516 
Q 3050 2419 3304 2112 
Q 3559 1806 3559 1356 
Q 3559 666 3084 287 
Q 2609 -91 1734 -91 
Q 1441 -91 1130 -33 
Q 819 25 488 141 
L 488 750 
Q 750 597 1062 519 
Q 1375 441 1716 441 
Q 2309 441 2620 675 
Q 2931 909 2931 1356 
Q 2931 1769 2642 2001 
Q 2353 2234 1838 2234 
L 1294 2234 
L 1294 2753 
L 1863 2753 
Q 2328 2753 2575 2939 
Q 2822 3125 2822 3475 
Q 2822 3834 2567 4026 
Q 2313 4219 1838 4219 
Q 1578 4219 1281 4162 
Q 984 4106 628 3988 
L 628 4550 
Q 988 4650 1302 4700 
Q 1616 4750 1894 4750 
Q 2613 4750 3031 4423 
Q 3450 4097 3450 3541 
Q 3450 3153 3228 2886 
Q 3006 2619 2597 2516 
z
" transform="scale(0.015625)"/>
     </defs>
     <use xlink:href="#DejaVuSans-33"/>
     <use xlink:href="#DejaVuSans-20" x="63.623047"/>
     <use xlink:href="#DejaVuSans-6e" x="95.410156"/>
     <use xlink:href="#DejaVuSans-65" x="158.789062"/>
     <use xlink:href="#DejaVuSans-75" x="220.3125"/>
     <use xlink:href="#DejaVuSans-72" x="283.691406"/>
     <use xlink:href="#DejaVuSans-6f" x="322.554688"/>
     <use xlink:href="#DejaVuSans-6e" x="383.736328"/>
     <use xlink:href="#DejaVuSans-73" x="447.115234"/>
    </g>
   </g>
  </g>
  <g id="axes_4">
   <g id="patch_17">
    <path d="M 34.240625 108.949563 
L 388.8 108.949563 
L 388.8 92.303896 
L 34.240625 92.303896 
z
" style="fill: #ffffff"/>
   </g>
   <g id="matplotlib.axis_7">
    <g id="xtick_10">
     <g id="line2d_28">
      <g>
       <use xlink:href="#m0a5602c966" x="50.35696" y="108.949563" style="stroke: #000000; stroke-width: 0.8"/>
      </g>
     </g>
    </g>
    <g id="xtick_11">
     <g id="line2d_29">
      <g>
       <use xlink:href="#m0a5602c966" x="211.520312" y="108.949563" style="stroke: #000000; stroke-width: 0.8"/>
      </g>
     </g>
    </g>
    <g id="xtick_12">
     <g id="line2d_30">
      <g>
       <use xlink:href="#m0a5602c966" x="372.683665" y="108.949563" style="stroke: #000000; stroke-width: 0.8"/>
      </g>
     </g>
    </g>
   </g>
   <g id="matplotlib.axis_8">
    <g id="ytick_10">
     <g id="line2d_31">
      <g>
       <use xlink:href="#m73522b48b3" x="34.240625" y="106.603713" style="stroke: #000000; stroke-width: 0.8"/>
      </g>
     </g>
     <g id="text_16">
      <!-- 0 -->
      <g transform="translate(20.878125 110.402931) scale(0.1 -0.1)">
       <use xlink:href="#DejaVuSans-30"/>
      </g>
     </g>
    </g>
    <g id="ytick_11">
     <g id="line2d_32">
      <g>
       <use xlink:href="#m73522b48b3" x="34.240625" y="101.003602" style="stroke: #000000; stroke-width: 0.8"/>
      </g>
     </g>
     <g id="text_17">
      <!-- 1 -->
      <g transform="translate(20.878125 104.80282) scale(0.1 -0.1)">
       <use xlink:href="#DejaVuSans-31"/>
      </g>
     </g>
    </g>
    <g id="ytick_12">
     <g id="line2d_33">
      <g>
       <use xlink:href="#m73522b48b3" x="34.240625" y="95.403491" style="stroke: #000000; stroke-width: 0.8"/>
      </g>
     </g>
     <g id="text_18">
      <!-- 2 -->
      <g transform="translate(20.878125 99.20271) scale(0.1 -0.1)">
       <use xlink:href="#DejaVuSans-32"/>
      </g>
     </g>
    </g>
    <g id="text_19">
     <!-- $f(x)$ -->
     <g transform="translate(14.798438 109.27673) rotate(-90) scale(0.1 -0.1)">
      <use xlink:href="#DejaVuSans-Oblique-66" transform="translate(0 0.015625)"/>
      <use xlink:href="#DejaVuSans-28" transform="translate(35.205078 0.015625)"/>
      <use xlink:href="#DejaVuSans-Oblique-78" transform="translate(74.21875 0.015625)"/>
      <use xlink:href="#DejaVuSans-29" transform="translate(133.398438 0.015625)"/>
     </g>
    </g>
   </g>
   <g id="line2d_34">
    <path d="M 34.240625 100.788494 
L 37.822033 100.330917 
L 41.403441 99.926256 
L 44.984848 99.578949 
L 48.566256 99.292721 
L 52.147664 99.070524 
L 55.729072 98.914514 
L 59.31048 98.826014 
L 62.891888 98.805501 
L 66.473295 98.8526 
L 70.054703 98.966089 
L 73.636111 99.143912 
L 77.217519 99.383205 
L 80.798927 99.68033 
L 84.380335 100.030922 
L 87.961742 100.429939 
L 91.54315 100.871727 
L 95.124558 101.350088 
L 98.705966 101.858355 
L 102.287374 102.389476 
L 105.868782 102.936099 
L 109.450189 103.490662 
L 113.031597 104.04549 
L 116.613005 104.592881 
L 120.194413 105.125209 
L 123.775821 105.635014 
L 127.357229 106.115091 
L 130.938636 106.558584 
L 134.520044 106.959065 
L 138.101452 107.310617 
L 141.68286 107.607902 
L 145.264268 107.846231 
L 148.845676 108.021618 
L 152.427083 108.130829 
L 156.008491 108.171425 
L 159.589899 108.141785 
L 163.171307 108.041131 
L 166.752715 107.869535 
L 170.334122 107.627918 
L 173.91553 107.318037 
L 177.496938 106.942463 
L 181.078346 106.504551 
L 184.659754 106.008394 
L 188.241162 105.458774 
L 191.822569 104.861104 
L 195.403977 104.221359 
L 198.985385 103.545999 
L 202.566793 102.841893 
L 206.148201 102.116232 
L 209.729609 101.376438 
L 213.311016 100.630074 
L 216.892424 99.884749 
L 220.473832 99.148022 
L 224.05524 98.42731 
L 227.636648 97.729797 
L 231.218056 97.062339 
L 234.799463 96.431384 
L 238.380871 95.842891 
L 241.962279 95.302251 
L 245.543687 94.814226 
L 249.125095 94.382886 
L 252.706503 94.011555 
L 256.28791 93.702775 
L 259.869318 93.458271 
L 263.450726 93.278927 
L 267.032134 93.164775 
L 270.613542 93.114997 
L 274.194949 93.127927 
L 277.776357 93.201078 
L 281.357765 93.331166 
L 284.939173 93.514152 
L 288.520581 93.745288 
L 292.101989 94.01918 
L 295.683396 94.329846 
L 299.264804 94.670794 
L 302.846212 95.035098 
L 306.42762 95.415482 
L 310.009028 95.804411 
L 313.590436 96.19418 
L 317.171843 96.577006 
L 320.753251 96.945129 
L 324.334659 97.290899 
L 327.916067 97.606872 
L 331.497475 97.885902 
L 335.078883 98.121223 
L 338.66029 98.306535 
L 342.241698 98.436078 
L 345.823106 98.504702 
L 349.404514 98.507928 
L 352.985922 98.442002 
L 356.56733 98.303939 
L 360.148737 98.091561 
L 363.730145 97.803515 
L 367.311553 97.439295 
L 370.892961 96.999242 
L 374.474369 96.484539 
L 378.055777 95.897196 
L 381.637184 95.240019 
L 385.218592 94.516577 
L 388.8 93.731154 
" clip-path="url(#p4a4c2daf1b)" style="fill: none; stroke-dasharray: 16.65,7.2; stroke-dashoffset: 0; stroke: #cecece; stroke-width: 4.5"/>
   </g>
   <g id="line2d_35">
    <path d="M 34.240625 103.519895 
L 37.822033 103.519219 
L 41.403441 103.518516 
L 44.984848 103.517783 
L 48.566256 103.51702 
L 52.147664 103.516223 
L 55.729072 103.515392 
L 59.31048 103.514523 
L 62.891888 103.513613 
L 66.473295 103.512661 
L 70.054703 103.511663 
L 73.636111 103.510615 
L 77.217519 103.509514 
L 80.798927 103.508355 
L 84.380335 103.507134 
L 87.961742 103.505846 
L 91.54315 103.504485 
L 95.124558 103.503045 
L 98.705966 103.501517 
L 102.287374 103.499896 
L 105.868782 103.498171 
L 109.450189 103.496331 
L 113.031597 103.494367 
L 116.613005 103.492264 
L 120.194413 103.490007 
L 123.775821 103.487578 
L 127.357229 103.484958 
L 130.938636 103.482121 
L 134.520044 103.479041 
L 138.101452 103.475686 
L 141.68286 103.472015 
L 145.264268 103.467983 
L 148.845676 103.463533 
L 152.427083 103.458598 
L 156.008491 103.453092 
L 159.589899 103.446912 
L 163.171307 103.439925 
L 166.752715 103.431962 
L 170.334122 103.422805 
L 173.91553 103.412161 
L 177.496938 103.39964 
L 181.078346 103.384694 
L 184.659754 103.366548 
L 188.241162 103.344053 
L 191.822569 103.315436 
L 195.403977 103.277819 
L 198.985385 103.226192 
L 202.566793 103.151021 
L 206.148201 103.031752 
L 209.729609 102.815087 
L 213.311016 102.315918 
L 216.892424 100.620802 
L 220.473832 97.664726 
L 224.05524 96.692412 
L 227.636648 96.353902 
L 231.218056 96.188663 
L 234.799463 96.091596 
L 238.380871 96.027906 
L 241.962279 95.982957 
L 245.543687 95.949559 
L 249.125095 95.923775 
L 252.706503 95.90327 
L 256.28791 95.886577 
L 259.869318 95.872725 
L 263.450726 95.861044 
L 267.032134 95.851064 
L 270.613542 95.842436 
L 274.194949 95.834906 
L 277.776357 95.828274 
L 281.357765 95.822391 
L 284.939173 95.817135 
L 288.520581 95.812412 
L 292.101989 95.808145 
L 295.683396 95.80427 
L 299.264804 95.800736 
L 302.846212 95.797499 
L 306.42762 95.794526 
L 310.009028 95.791782 
L 313.590436 95.789245 
L 317.171843 95.78689 
L 320.753251 95.784699 
L 324.334659 95.782656 
L 327.916067 95.780746 
L 331.497475 95.778955 
L 335.078883 95.777275 
L 338.66029 95.775694 
L 342.241698 95.774205 
L 345.823106 95.772797 
L 349.404514 95.771468 
L 352.985922 95.770208 
L 356.56733 95.769015 
L 360.148737 95.76788 
L 363.730145 95.766801 
L 367.311553 95.765775 
L 370.892961 95.764796 
L 374.474369 95.763862 
L 378.055777 95.762971 
L 381.637184 95.762117 
L 385.218592 95.7613 
L 388.8 95.760518 
" clip-path="url(#p4a4c2daf1b)" style="fill: none; stroke: #2255a0; stroke-opacity: 0.4; stroke-linecap: square"/>
   </g>
   <g id="line2d_36">
    <path d="M 34.240625 98.084121 
L 37.822033 98.2622 
L 41.403441 98.446475 
L 44.984848 98.637223 
L 48.566256 98.834721 
L 52.147664 99.039248 
L 55.729072 99.251102 
L 59.31048 99.470604 
L 62.891888 99.697989 
L 66.473295 99.933577 
L 70.054703 100.177668 
L 73.636111 100.43056 
L 77.217519 100.692531 
L 80.798927 100.963752 
L 84.380335 101.24448 
L 87.961742 101.534949 
L 91.54315 101.835223 
L 95.124558 102.145367 
L 98.705966 102.465296 
L 102.287374 102.794858 
L 105.868782 103.133799 
L 109.450189 103.481521 
L 113.031597 103.837338 
L 116.613005 104.200238 
L 120.194413 104.568787 
L 123.775821 104.941257 
L 127.357229 105.315351 
L 130.938636 105.688184 
L 134.520044 106.056253 
L 138.101452 106.415147 
L 141.68286 106.759663 
L 145.264268 107.083576 
L 148.845676 107.379652 
L 152.427083 107.639541 
L 156.008491 107.853884 
L 159.589899 108.012427 
L 163.171307 108.104308 
L 166.752715 108.118381 
L 170.334122 108.043862 
L 173.91553 107.87108 
L 177.496938 107.59234 
L 181.078346 107.202886 
L 184.659754 106.701853 
L 188.241162 106.092989 
L 191.822569 105.385101 
L 195.403977 104.59195 
L 198.985385 103.731701 
L 202.566793 102.825794 
L 206.148201 101.897461 
L 209.729609 100.97007 
L 213.311016 100.065508 
L 216.892424 99.202908 
L 220.473832 98.397672 
L 224.05524 97.661122 
L 227.636648 97.000454 
L 231.218056 96.419099 
L 234.799463 95.91731 
L 238.380871 95.492747 
L 241.962279 95.141309 
L 245.543687 94.857601 
L 249.125095 94.635514 
L 252.706503 94.468671 
L 256.28791 94.350771 
L 259.869318 94.275627 
L 263.450726 94.23758 
L 267.032134 94.231363 
L 270.613542 94.252256 
L 274.194949 94.295975 
L 277.776357 94.358846 
L 281.357765 94.437567 
L 284.939173 94.529298 
L 288.520581 94.631583 
L 292.101989 94.742349 
L 295.683396 94.859716 
L 299.264804 94.982166 
L 302.846212 95.108442 
L 306.42762 95.237345 
L 310.009028 95.368 
L 313.590436 95.499615 
L 317.171843 95.631508 
L 320.753251 95.763167 
L 324.334659 95.894142 
L 327.916067 96.023985 
L 331.497475 96.152482 
L 335.078883 96.279355 
L 338.66029 96.404412 
L 342.241698 96.527461 
L 345.823106 96.648439 
L 349.404514 96.767173 
L 352.985922 96.883685 
L 356.56733 96.997933 
L 360.148737 97.109809 
L 363.730145 97.219336 
L 367.311553 97.326555 
L 370.892961 97.431468 
L 374.474369 97.534009 
L 378.055777 97.634307 
L 381.637184 97.732341 
L 385.218592 97.828174 
L 388.8 97.921806 
" clip-path="url(#p4a4c2daf1b)" style="fill: none; stroke: #2255a0; stroke-opacity: 0.4; stroke-linecap: square"/>
   </g>
   <g id="line2d_37">
    <path d="M 34.240625 100.743054 
L 37.822033 100.305406 
L 41.403441 99.920834 
L 44.984848 99.591603 
L 48.566256 99.319848 
L 52.147664 99.107502 
L 55.729072 98.956158 
L 59.31048 98.867075 
L 62.891888 98.841119 
L 66.473295 98.878622 
L 70.054703 98.979443 
L 73.636111 99.142644 
L 77.217519 99.366739 
L 80.798927 99.649378 
L 84.380335 99.987422 
L 87.961742 100.376918 
L 91.54315 100.81307 
L 95.124558 101.290185 
L 98.705966 101.801801 
L 102.287374 102.340783 
L 105.868782 102.899237 
L 109.450189 103.468917 
L 113.031597 104.041096 
L 116.613005 104.60692 
L 120.194413 105.157523 
L 123.775821 105.684178 
L 127.357229 106.178522 
L 130.938636 106.632673 
L 134.520044 107.039483 
L 138.101452 107.392555 
L 141.68286 107.686346 
L 145.264268 107.916316 
L 148.845676 108.078929 
L 152.427083 108.171654 
L 156.008491 108.192942 
L 159.589899 108.14227 
L 163.171307 108.02 
L 166.752715 107.827426 
L 170.334122 107.566587 
L 173.91553 107.240293 
L 177.496938 106.852004 
L 181.078346 106.405726 
L 184.659754 105.90603 
L 188.241162 105.357884 
L 191.822569 104.76667 
L 195.403977 104.138072 
L 198.985385 103.477985 
L 202.566793 102.792562 
L 206.148201 102.088131 
L 209.729609 101.371049 
L 213.311016 100.647856 
L 216.892424 99.92499 
L 220.473832 99.208975 
L 224.05524 98.506189 
L 227.636648 97.822972 
L 231.218056 97.165486 
L 234.799463 96.539654 
L 238.380871 95.951191 
L 241.962279 95.405469 
L 245.543687 94.907472 
L 249.125095 94.461765 
L 252.706503 94.072366 
L 256.28791 93.742702 
L 259.869318 93.475576 
L 263.450726 93.27301 
L 267.032134 93.136216 
L 270.613542 93.065578 
L 274.194949 93.060517 
L 277.776357 93.119455 
L 281.357765 93.239879 
L 284.939173 93.41821 
L 288.520581 93.649918 
L 292.101989 93.929508 
L 295.683396 94.250595 
L 299.264804 94.60602 
L 302.846212 94.98794 
L 306.42762 95.387995 
L 310.009028 95.797433 
L 313.590436 96.207317 
L 317.171843 96.60865 
L 320.753251 96.992635 
L 324.334659 97.35069 
L 327.916067 97.674792 
L 331.497475 97.957407 
L 335.078883 98.191773 
L 338.66029 98.371831 
L 342.241698 98.492392 
L 345.823106 98.549115 
L 349.404514 98.538479 
L 352.985922 98.457856 
L 356.56733 98.305364 
L 360.148737 98.07996 
L 363.730145 97.781203 
L 367.311553 97.409363 
L 370.892961 96.965232 
L 374.474369 96.450059 
L 378.055777 95.865596 
L 381.637184 95.213883 
L 385.218592 94.497244 
L 388.8 93.718252 
" clip-path="url(#p4a4c2daf1b)" style="fill: none; stroke: #2255a0; stroke-opacity: 0.4; stroke-linecap: square"/>
   </g>
   <g id="line2d_38">
    <path d="M 34.240625 100.76016 
L 37.822033 100.310763 
L 41.403441 99.917417 
L 44.984848 99.582225 
L 48.566256 99.307035 
L 52.147664 99.093504 
L 55.729072 98.942934 
L 59.31048 98.856239 
L 62.891888 98.833862 
L 66.473295 98.875805 
L 70.054703 98.981494 
L 73.636111 99.149635 
L 77.217519 99.378339 
L 80.798927 99.664946 
L 84.380335 100.006051 
L 87.961742 100.39743 
L 91.54315 100.83413 
L 95.124558 101.310376 
L 98.705966 101.819767 
L 102.287374 102.355173 
L 105.868782 102.908958 
L 109.450189 103.473057 
L 113.031597 104.039121 
L 116.613005 104.598595 
L 120.194413 105.142972 
L 123.775821 105.663926 
L 127.357229 106.153394 
L 130.938636 106.603868 
L 134.520044 107.008352 
L 138.101452 107.360664 
L 141.68286 107.655322 
L 145.264268 107.88781 
L 148.845676 108.054485 
L 152.427083 108.152665 
L 156.008491 108.180626 
L 159.589899 108.137506 
L 163.171307 108.023423 
L 166.752715 107.839287 
L 170.334122 107.586785 
L 173.91553 107.268374 
L 177.496938 106.887167 
L 181.078346 106.446902 
L 184.659754 105.951826 
L 188.241162 105.406671 
L 191.822569 104.816627 
L 195.403977 104.187233 
L 198.985385 103.524342 
L 202.566793 102.834075 
L 206.148201 102.122798 
L 209.729609 101.397058 
L 213.311016 100.66352 
L 216.892424 99.928974 
L 220.473832 99.200265 
L 224.05524 98.484218 
L 227.636648 97.787675 
L 231.218056 97.117355 
L 234.799463 96.479817 
L 238.380871 95.881436 
L 241.962279 95.328216 
L 245.543687 94.825856 
L 249.125095 94.379444 
L 252.706503 93.99358 
L 256.28791 93.672007 
L 259.869318 93.417662 
L 263.450726 93.232448 
L 267.032134 93.117121 
L 270.613542 93.071127 
L 274.194949 93.092607 
L 277.776357 93.17825 
L 281.357765 93.323421 
L 284.939173 93.52219 
L 288.520581 93.767616 
L 292.101989 94.0522 
L 295.683396 94.368143 
L 299.264804 94.708046 
L 302.846212 95.065124 
L 306.42762 95.433492 
L 310.009028 95.807938 
L 313.590436 96.183495 
L 317.171843 96.555035 
L 320.753251 96.916621 
L 324.334659 97.261362 
L 327.916067 97.58145 
L 331.497475 97.868566 
L 335.078883 98.114183 
L 338.66029 98.310208 
L 342.241698 98.449215 
L 345.823106 98.524892 
L 349.404514 98.532038 
L 352.985922 98.466807 
L 356.56733 98.326465 
L 360.148737 98.109494 
L 363.730145 97.815415 
L 367.311553 97.444601 
L 370.892961 96.998312 
L 374.474369 96.47829 
L 378.055777 95.886916 
L 381.637184 95.226936 
L 385.218592 94.501394 
L 388.8 93.713493 
" clip-path="url(#p4a4c2daf1b)" style="fill: none; stroke: #2255a0; stroke-opacity: 0.9; stroke-width: 1.5; stroke-linecap: square"/>
   </g>
   <g id="patch_18">
    <path d="M 34.240625 108.949563 
L 34.240625 92.303896 
" style="fill: none; stroke: #000000; stroke-width: 0.8; stroke-linejoin: miter; stroke-linecap: square"/>
   </g>
   <g id="patch_19">
    <path d="M 388.8 108.949563 
L 388.8 92.303896 
" style="fill: none; stroke: #000000; stroke-width: 0.8; stroke-linejoin: miter; stroke-linecap: square"/>
   </g>
   <g id="patch_20">
    <path d="M 34.240625 108.949563 
L 388.8 108.949563 
" style="fill: none; stroke: #000000; stroke-width: 0.8; stroke-linejoin: miter; stroke-linecap: square"/>
   </g>
   <g id="patch_21">
    <path d="M 34.240625 92.303896 
L 388.8 92.303896 
" style="fill: none; stroke: #000000; stroke-width: 0.8; stroke-linejoin: miter; stroke-linecap: square"/>
   </g>
   <g id="text_20">
    <!-- 4 neurons -->
    <g style="fill: #2255a0" transform="translate(41.331812 100.307687) scale(0.09 -0.09)">
     <defs>
      <path id="DejaVuSans-34" d="M 2419 4116 
L 825 1625 
L 2419 1625 
L 2419 4116 
z
M 2253 4666 
L 3047 4666 
L 3047 1625 
L 3713 1625 
L 3713 1100 
L 3047 1100 
L 3047 0 
L 2419 0 
L 2419 1100 
L 313 1100 
L 313 1709 
L 2253 4666 
z
" transform="scale(0.015625)"/>
     </defs>
     <use xlink:href="#DejaVuSans-34"/>
     <use xlink:href="#DejaVuSans-20" x="63.623047"/>
     <use xlink:href="#DejaVuSans-6e" x="95.410156"/>
     <use xlink:href="#DejaVuSans-65" x="158.789062"/>
     <use xlink:href="#DejaVuSans-75" x="220.3125"/>
     <use xlink:href="#DejaVuSans-72" x="283.691406"/>
     <use xlink:href="#DejaVuSans-6f" x="322.554688"/>
     <use xlink:href="#DejaVuSans-6e" x="383.736328"/>
     <use xlink:href="#DejaVuSans-73" x="447.115234"/>
    </g>
   </g>
  </g>
  <g id="axes_5">
   <g id="patch_22">
    <path d="M 34.240625 149.633196 
L 388.8 149.633196 
L 388.8 132.987528 
L 34.240625 132.987528 
z
" style="fill: #ffffff"/>
   </g>
   <g id="matplotlib.axis_9">
    <g id="xtick_13">
     <g id="line2d_39">
      <g>
       <use xlink:href="#m0a5602c966" x="50.35696" y="149.633196" style="stroke: #000000; stroke-width: 0.8"/>
      </g>
     </g>
     <g id="text_21">
      <!-- 1 -->
      <g transform="translate(42.985866 164.231633) scale(0.1 -0.1)">
       <defs>
        <path id="DejaVuSans-2212" d="M 678 2272 
L 4684 2272 
L 4684 1741 
L 678 1741 
L 678 2272 
z
" transform="scale(0.015625)"/>
       </defs>
       <use xlink:href="#DejaVuSans-2212"/>
       <use xlink:href="#DejaVuSans-31" x="83.789062"/>
      </g>
     </g>
    </g>
    <g id="xtick_14">
     <g id="line2d_40">
      <g>
       <use xlink:href="#m0a5602c966" x="211.520312" y="149.633196" style="stroke: #000000; stroke-width: 0.8"/>
      </g>
     </g>
     <g id="text_22">
      <!-- 0 -->
      <g transform="translate(208.339062 164.231633) scale(0.1 -0.1)">
       <use xlink:href="#DejaVuSans-30"/>
      </g>
     </g>
    </g>
    <g id="xtick_15">
     <g id="line2d_41">
      <g>
       <use xlink:href="#m0a5602c966" x="372.683665" y="149.633196" style="stroke: #000000; stroke-width: 0.8"/>
      </g>
     </g>
     <g id="text_23">
      <!-- 1 -->
      <g transform="translate(369.502415 164.231633) scale(0.1 -0.1)">
       <use xlink:href="#DejaVuSans-31"/>
      </g>
     </g>
    </g>
    <g id="text_24">
     <!-- $x$ -->
     <g transform="translate(208.520312 177.909758) scale(0.1 -0.1)">
      <use xlink:href="#DejaVuSans-Oblique-78" transform="translate(0 0.3125)"/>
     </g>
    </g>
   </g>
   <g id="matplotlib.axis_10">
    <g id="ytick_13">
     <g id="line2d_42">
      <g>
       <use xlink:href="#m73522b48b3" x="34.240625" y="147.287345" style="stroke: #000000; stroke-width: 0.8"/>
      </g>
     </g>
     <g id="text_25">
      <!-- 0 -->
      <g transform="translate(20.878125 151.086564) scale(0.1 -0.1)">
       <use xlink:href="#DejaVuSans-30"/>
      </g>
     </g>
    </g>
    <g id="ytick_14">
     <g id="line2d_43">
      <g>
       <use xlink:href="#m73522b48b3" x="34.240625" y="141.687234" style="stroke: #000000; stroke-width: 0.8"/>
      </g>
     </g>
     <g id="text_26">
      <!-- 1 -->
      <g transform="translate(20.878125 145.486453) scale(0.1 -0.1)">
       <use xlink:href="#DejaVuSans-31"/>
      </g>
     </g>
    </g>
    <g id="ytick_15">
     <g id="line2d_44">
      <g>
       <use xlink:href="#m73522b48b3" x="34.240625" y="136.087123" style="stroke: #000000; stroke-width: 0.8"/>
      </g>
     </g>
     <g id="text_27">
      <!-- 2 -->
      <g transform="translate(20.878125 139.886342) scale(0.1 -0.1)">
       <use xlink:href="#DejaVuSans-32"/>
      </g>
     </g>
    </g>
    <g id="text_28">
     <!-- $f(x)$ -->
     <g transform="translate(14.798438 149.960362) rotate(-90) scale(0.1 -0.1)">
      <use xlink:href="#DejaVuSans-Oblique-66" transform="translate(0 0.015625)"/>
      <use xlink:href="#DejaVuSans-28" transform="translate(35.205078 0.015625)"/>
      <use xlink:href="#DejaVuSans-Oblique-78" transform="translate(74.21875 0.015625)"/>
      <use xlink:href="#DejaVuSans-29" transform="translate(133.398438 0.015625)"/>
     </g>
    </g>
   </g>
   <g id="line2d_45">
    <path d="M 34.240625 141.472126 
L 37.822033 141.01455 
L 41.403441 140.609888 
L 44.984848 140.262582 
L 48.566256 139.976353 
L 52.147664 139.754157 
L 55.729072 139.598147 
L 59.31048 139.509646 
L 62.891888 139.489133 
L 66.473295 139.536233 
L 70.054703 139.649722 
L 73.636111 139.827545 
L 77.217519 140.066837 
L 80.798927 140.363962 
L 84.380335 140.714554 
L 87.961742 141.113571 
L 91.54315 141.555359 
L 95.124558 142.03372 
L 98.705966 142.541987 
L 102.287374 143.073108 
L 105.868782 143.619731 
L 109.450189 144.174295 
L 113.031597 144.729122 
L 116.613005 145.276513 
L 120.194413 145.808842 
L 123.775821 146.318646 
L 127.357229 146.798723 
L 130.938636 147.242216 
L 134.520044 147.642698 
L 138.101452 147.994249 
L 141.68286 148.291534 
L 145.264268 148.529863 
L 148.845676 148.70525 
L 152.427083 148.814462 
L 156.008491 148.855057 
L 159.589899 148.825417 
L 163.171307 148.724763 
L 166.752715 148.553168 
L 170.334122 148.311551 
L 173.91553 148.001669 
L 177.496938 147.626096 
L 181.078346 147.188183 
L 184.659754 146.692026 
L 188.241162 146.142406 
L 191.822569 145.544737 
L 195.403977 144.904991 
L 198.985385 144.229631 
L 202.566793 143.525525 
L 206.148201 142.799864 
L 209.729609 142.06007 
L 213.311016 141.313706 
L 216.892424 140.568381 
L 220.473832 139.831654 
L 224.05524 139.110942 
L 227.636648 138.413429 
L 231.218056 137.745971 
L 234.799463 137.115017 
L 238.380871 136.526523 
L 241.962279 135.985883 
L 245.543687 135.497859 
L 249.125095 135.066518 
L 252.706503 134.695187 
L 256.28791 134.386407 
L 259.869318 134.141903 
L 263.450726 133.962559 
L 267.032134 133.848408 
L 270.613542 133.798629 
L 274.194949 133.81156 
L 277.776357 133.884711 
L 281.357765 134.014798 
L 284.939173 134.197784 
L 288.520581 134.428921 
L 292.101989 134.702812 
L 295.683396 135.013479 
L 299.264804 135.354427 
L 302.846212 135.71873 
L 306.42762 136.099115 
L 310.009028 136.488044 
L 313.590436 136.877812 
L 317.171843 137.260639 
L 320.753251 137.628762 
L 324.334659 137.974531 
L 327.916067 138.290505 
L 331.497475 138.569534 
L 335.078883 138.804855 
L 338.66029 138.990167 
L 342.241698 139.11971 
L 345.823106 139.188334 
L 349.404514 139.19156 
L 352.985922 139.125634 
L 356.56733 138.987572 
L 360.148737 138.775193 
L 363.730145 138.487147 
L 367.311553 138.122927 
L 370.892961 137.682874 
L 374.474369 137.168172 
L 378.055777 136.580828 
L 381.637184 135.923651 
L 385.218592 135.200209 
L 388.8 134.414786 
" clip-path="url(#p81b5fdd0ab)" style="fill: none; stroke-dasharray: 16.65,7.2; stroke-dashoffset: 0; stroke: #cecece; stroke-width: 4.5"/>
   </g>
   <g id="line2d_46">
    <path d="M 34.240625 144.203527 
L 37.822033 144.202851 
L 41.403441 144.202148 
L 44.984848 144.201416 
L 48.566256 144.200652 
L 52.147664 144.199856 
L 55.729072 144.199024 
L 59.31048 144.198155 
L 62.891888 144.197246 
L 66.473295 144.196293 
L 70.054703 144.195295 
L 73.636111 144.194247 
L 77.217519 144.193146 
L 80.798927 144.191987 
L 84.380335 144.190766 
L 87.961742 144.189478 
L 91.54315 144.188117 
L 95.124558 144.186677 
L 98.705966 144.185149 
L 102.287374 144.183528 
L 105.868782 144.181803 
L 109.450189 144.179964 
L 113.031597 144.177999 
L 116.613005 144.175897 
L 120.194413 144.173639 
L 123.775821 144.17121 
L 127.357229 144.16859 
L 130.938636 144.165753 
L 134.520044 144.162673 
L 138.101452 144.159318 
L 141.68286 144.155647 
L 145.264268 144.151615 
L 148.845676 144.147166 
L 152.427083 144.14223 
L 156.008491 144.136724 
L 159.589899 144.130544 
L 163.171307 144.123557 
L 166.752715 144.115595 
L 170.334122 144.106437 
L 173.91553 144.095794 
L 177.496938 144.083272 
L 181.078346 144.068326 
L 184.659754 144.05018 
L 188.241162 144.027685 
L 191.822569 143.999068 
L 195.403977 143.961451 
L 198.985385 143.909824 
L 202.566793 143.834654 
L 206.148201 143.715384 
L 209.729609 143.498719 
L 213.311016 142.99955 
L 216.892424 141.304434 
L 220.473832 138.348358 
L 224.05524 137.376045 
L 227.636648 137.037535 
L 231.218056 136.872296 
L 234.799463 136.775228 
L 238.380871 136.711538 
L 241.962279 136.666589 
L 245.543687 136.633192 
L 249.125095 136.607407 
L 252.706503 136.586903 
L 256.28791 136.570209 
L 259.869318 136.556357 
L 263.450726 136.544677 
L 267.032134 136.534696 
L 270.613542 136.526068 
L 274.194949 136.518538 
L 277.776357 136.511906 
L 281.357765 136.506024 
L 284.939173 136.500767 
L 288.520581 136.496044 
L 292.101989 136.491777 
L 295.683396 136.487902 
L 299.264804 136.484368 
L 302.846212 136.481132 
L 306.42762 136.478159 
L 310.009028 136.475415 
L 313.590436 136.472878 
L 317.171843 136.470522 
L 320.753251 136.468332 
L 324.334659 136.466289 
L 327.916067 136.464378 
L 331.497475 136.462587 
L 335.078883 136.460907 
L 338.66029 136.459327 
L 342.241698 136.457837 
L 345.823106 136.45643 
L 349.404514 136.4551 
L 352.985922 136.453841 
L 356.56733 136.452647 
L 360.148737 136.451512 
L 363.730145 136.450434 
L 367.311553 136.449408 
L 370.892961 136.448429 
L 374.474369 136.447495 
L 378.055777 136.446603 
L 381.637184 136.44575 
L 385.218592 136.444933 
L 388.8 136.44415 
" clip-path="url(#p81b5fdd0ab)" style="fill: none; stroke: #2255a0; stroke-opacity: 0.4; stroke-linecap: square"/>
   </g>
   <g id="line2d_47">
    <path d="M 34.240625 138.767753 
L 37.822033 138.945832 
L 41.403441 139.130107 
L 44.984848 139.320855 
L 48.566256 139.518354 
L 52.147664 139.72288 
L 55.729072 139.934735 
L 59.31048 140.154237 
L 62.891888 140.381621 
L 66.473295 140.61721 
L 70.054703 140.8613 
L 73.636111 141.114192 
L 77.217519 141.376163 
L 80.798927 141.647385 
L 84.380335 141.928112 
L 87.961742 142.218581 
L 91.54315 142.518855 
L 95.124558 142.829 
L 98.705966 143.148928 
L 102.287374 143.478491 
L 105.868782 143.817432 
L 109.450189 144.165153 
L 113.031597 144.52097 
L 116.613005 144.88387 
L 120.194413 145.25242 
L 123.775821 145.624889 
L 127.357229 145.998983 
L 130.938636 146.371816 
L 134.520044 146.739885 
L 138.101452 147.098779 
L 141.68286 147.443295 
L 145.264268 147.767208 
L 148.845676 148.063285 
L 152.427083 148.323173 
L 156.008491 148.537516 
L 159.589899 148.696059 
L 163.171307 148.78794 
L 166.752715 148.802013 
L 170.334122 148.727495 
L 173.91553 148.554713 
L 177.496938 148.275972 
L 181.078346 147.886519 
L 184.659754 147.385485 
L 188.241162 146.776621 
L 191.822569 146.068733 
L 195.403977 145.275582 
L 198.985385 144.415333 
L 202.566793 143.509426 
L 206.148201 142.581093 
L 209.729609 141.653703 
L 213.311016 140.74914 
L 216.892424 139.88654 
L 220.473832 139.081304 
L 224.05524 138.344755 
L 227.636648 137.684086 
L 231.218056 137.102731 
L 234.799463 136.600942 
L 238.380871 136.176379 
L 241.962279 135.824941 
L 245.543687 135.541233 
L 249.125095 135.319146 
L 252.706503 135.152303 
L 256.28791 135.034403 
L 259.869318 134.959259 
L 263.450726 134.921212 
L 267.032134 134.914996 
L 270.613542 134.935888 
L 274.194949 134.979607 
L 277.776357 135.042478 
L 281.357765 135.121199 
L 284.939173 135.212931 
L 288.520581 135.315215 
L 292.101989 135.425981 
L 295.683396 135.543348 
L 299.264804 135.665799 
L 302.846212 135.792074 
L 306.42762 135.920977 
L 310.009028 136.051632 
L 313.590436 136.183247 
L 317.171843 136.31514 
L 320.753251 136.446799 
L 324.334659 136.577774 
L 327.916067 136.707617 
L 331.497475 136.836114 
L 335.078883 136.962987 
L 338.66029 137.088044 
L 342.241698 137.211093 
L 345.823106 137.332071 
L 349.404514 137.450805 
L 352.985922 137.567317 
L 356.56733 137.681565 
L 360.148737 137.793442 
L 363.730145 137.902969 
L 367.311553 138.010188 
L 370.892961 138.1151 
L 374.474369 138.217641 
L 378.055777 138.317939 
L 381.637184 138.415973 
L 385.218592 138.511806 
L 388.8 138.605439 
" clip-path="url(#p81b5fdd0ab)" style="fill: none; stroke: #2255a0; stroke-opacity: 0.4; stroke-linecap: square"/>
   </g>
   <g id="line2d_48">
    <path d="M 34.240625 141.426686 
L 37.822033 140.989038 
L 41.403441 140.604467 
L 44.984848 140.275235 
L 48.566256 140.00348 
L 52.147664 139.791134 
L 55.729072 139.63979 
L 59.31048 139.550708 
L 62.891888 139.524752 
L 66.473295 139.562254 
L 70.054703 139.663076 
L 73.636111 139.826276 
L 77.217519 140.050371 
L 80.798927 140.333011 
L 84.380335 140.671055 
L 87.961742 141.06055 
L 91.54315 141.496702 
L 95.124558 141.973818 
L 98.705966 142.485433 
L 102.287374 143.024415 
L 105.868782 143.582869 
L 109.450189 144.152549 
L 113.031597 144.724728 
L 116.613005 145.290552 
L 120.194413 145.841155 
L 123.775821 146.36781 
L 127.357229 146.862155 
L 130.938636 147.316305 
L 134.520044 147.723115 
L 138.101452 148.076188 
L 141.68286 148.369979 
L 145.264268 148.599948 
L 148.845676 148.762561 
L 152.427083 148.855286 
L 156.008491 148.876574 
L 159.589899 148.825902 
L 163.171307 148.703632 
L 166.752715 148.511058 
L 170.334122 148.250219 
L 173.91553 147.923925 
L 177.496938 147.535636 
L 181.078346 147.089358 
L 184.659754 146.589662 
L 188.241162 146.041516 
L 191.822569 145.450302 
L 195.403977 144.821704 
L 198.985385 144.161617 
L 202.566793 143.476194 
L 206.148201 142.771764 
L 209.729609 142.054681 
L 213.311016 141.331489 
L 216.892424 140.608622 
L 220.473832 139.892607 
L 224.05524 139.189821 
L 227.636648 138.506604 
L 231.218056 137.849118 
L 234.799463 137.223286 
L 238.380871 136.634823 
L 241.962279 136.089102 
L 245.543687 135.591104 
L 249.125095 135.145398 
L 252.706503 134.755998 
L 256.28791 134.426334 
L 259.869318 134.159209 
L 263.450726 133.956642 
L 267.032134 133.819849 
L 270.613542 133.74921 
L 274.194949 133.74415 
L 277.776357 133.803087 
L 281.357765 133.923511 
L 284.939173 134.101842 
L 288.520581 134.33355 
L 292.101989 134.61314 
L 295.683396 134.934227 
L 299.264804 135.289653 
L 302.846212 135.671572 
L 306.42762 136.071628 
L 310.009028 136.481065 
L 313.590436 136.890949 
L 317.171843 137.292283 
L 320.753251 137.676267 
L 324.334659 138.034322 
L 327.916067 138.358424 
L 331.497475 138.64104 
L 335.078883 138.875405 
L 338.66029 139.055463 
L 342.241698 139.176024 
L 345.823106 139.232747 
L 349.404514 139.222112 
L 352.985922 139.141488 
L 356.56733 138.988996 
L 360.148737 138.763592 
L 363.730145 138.464835 
L 367.311553 138.092995 
L 370.892961 137.648864 
L 374.474369 137.133691 
L 378.055777 136.549228 
L 381.637184 135.897516 
L 385.218592 135.180876 
L 388.8 134.401884 
" clip-path="url(#p81b5fdd0ab)" style="fill: none; stroke: #2255a0; stroke-opacity: 0.4; stroke-linecap: square"/>
   </g>
   <g id="line2d_49">
    <path d="M 34.240625 141.443792 
L 37.822033 140.994396 
L 41.403441 140.601049 
L 44.984848 140.265857 
L 48.566256 139.990667 
L 52.147664 139.777136 
L 55.729072 139.626567 
L 59.31048 139.539871 
L 62.891888 139.517494 
L 66.473295 139.559437 
L 70.054703 139.665126 
L 73.636111 139.833267 
L 77.217519 140.061971 
L 80.798927 140.348578 
L 84.380335 140.689683 
L 87.961742 141.081062 
L 91.54315 141.517762 
L 95.124558 141.994008 
L 98.705966 142.5034 
L 102.287374 143.038806 
L 105.868782 143.59259 
L 109.450189 144.156689 
L 113.031597 144.722753 
L 116.613005 145.282227 
L 120.194413 145.826604 
L 123.775821 146.347558 
L 127.357229 146.837027 
L 130.938636 147.2875 
L 134.520044 147.691984 
L 138.101452 148.044296 
L 141.68286 148.338955 
L 145.264268 148.571442 
L 148.845676 148.738117 
L 152.427083 148.836297 
L 156.008491 148.864259 
L 159.589899 148.821138 
L 163.171307 148.707056 
L 166.752715 148.52292 
L 170.334122 148.270418 
L 173.91553 147.952006 
L 177.496938 147.570799 
L 181.078346 147.130534 
L 184.659754 146.635459 
L 188.241162 146.090303 
L 191.822569 145.500259 
L 195.403977 144.870865 
L 198.985385 144.207974 
L 202.566793 143.517707 
L 206.148201 142.80643 
L 209.729609 142.08069 
L 213.311016 141.347153 
L 216.892424 140.612606 
L 220.473832 139.883897 
L 224.05524 139.16785 
L 227.636648 138.471308 
L 231.218056 137.800988 
L 234.799463 137.163449 
L 238.380871 136.565068 
L 241.962279 136.011849 
L 245.543687 135.509488 
L 249.125095 135.063077 
L 252.706503 134.677212 
L 256.28791 134.355639 
L 259.869318 134.101295 
L 263.450726 133.91608 
L 267.032134 133.800753 
L 270.613542 133.754759 
L 274.194949 133.776239 
L 277.776357 133.861883 
L 281.357765 134.007053 
L 284.939173 134.205822 
L 288.520581 134.451248 
L 292.101989 134.735832 
L 295.683396 135.051776 
L 299.264804 135.391678 
L 302.846212 135.748756 
L 306.42762 136.117124 
L 310.009028 136.49157 
L 313.590436 136.867127 
L 317.171843 137.238668 
L 320.753251 137.600253 
L 324.334659 137.944994 
L 327.916067 138.265082 
L 331.497475 138.552198 
L 335.078883 138.797815 
L 338.66029 138.99384 
L 342.241698 139.132847 
L 345.823106 139.208525 
L 349.404514 139.21567 
L 352.985922 139.15044 
L 356.56733 139.010097 
L 360.148737 138.793126 
L 363.730145 138.499047 
L 367.311553 138.128233 
L 370.892961 137.681944 
L 374.474369 137.161922 
L 378.055777 136.570548 
L 381.637184 135.910568 
L 385.218592 135.185026 
L 388.8 134.397125 
" clip-path="url(#p81b5fdd0ab)" style="fill: none; stroke: #2255a0; stroke-opacity: 0.4; stroke-linecap: square"/>
   </g>
   <g id="line2d_50">
    <path d="M 34.240625 141.525737 
L 37.822033 141.014321 
L 41.403441 140.582151 
L 44.984848 140.226304 
L 48.566256 139.944126 
L 52.147664 139.733196 
L 55.729072 139.591382 
L 59.31048 139.516701 
L 62.891888 139.507341 
L 66.473295 139.561552 
L 70.054703 139.677578 
L 73.636111 139.853503 
L 77.217519 140.087181 
L 80.798927 140.376097 
L 84.380335 140.717216 
L 87.961742 141.106894 
L 91.54315 141.540751 
L 95.124558 142.013602 
L 98.705966 142.519426 
L 102.287374 143.05137 
L 105.868782 143.60185 
L 109.450189 144.162666 
L 113.031597 144.725205 
L 116.613005 145.280661 
L 120.194413 145.820297 
L 123.775821 146.335679 
L 127.357229 146.818884 
L 130.938636 147.262691 
L 134.520044 147.660675 
L 138.101452 148.007301 
L 141.68286 148.297901 
L 145.264268 148.528682 
L 148.845676 148.696617 
L 152.427083 148.799439 
L 156.008491 148.835505 
L 159.589899 148.803786 
L 163.171307 148.703771 
L 166.752715 148.53551 
L 170.334122 148.299535 
L 173.91553 147.996953 
L 177.496938 147.629461 
L 181.078346 147.199424 
L 184.659754 146.709948 
L 188.241162 146.164926 
L 191.822569 145.569111 
L 195.403977 144.928145 
L 198.985385 144.248531 
L 202.566793 143.537569 
L 206.148201 142.803199 
L 209.729609 142.053898 
L 213.311016 141.298387 
L 216.892424 140.545424 
L 220.473832 139.803577 
L 224.05524 139.080961 
L 227.636648 138.385088 
L 231.218056 137.722715 
L 234.799463 137.099783 
L 238.380871 136.521371 
L 241.962279 135.991741 
L 245.543687 135.514402 
L 249.125095 135.092157 
L 252.706503 134.727233 
L 256.28791 134.421345 
L 259.869318 134.175738 
L 263.450726 133.991281 
L 267.032134 133.868435 
L 270.613542 133.807258 
L 274.194949 133.807309 
L 277.776357 133.867602 
L 281.357765 133.986432 
L 284.939173 134.16126 
L 288.520581 134.38854 
L 292.101989 134.663612 
L 295.683396 134.980622 
L 299.264804 135.332501 
L 302.846212 135.711102 
L 306.42762 136.107362 
L 310.009028 136.511675 
L 313.590436 136.914197 
L 317.171843 137.305287 
L 320.753251 137.675877 
L 324.334659 138.017756 
L 327.916067 138.323745 
L 331.497475 138.587783 
L 335.078883 138.804889 
L 338.66029 138.971035 
L 342.241698 139.083 
L 345.823106 139.138121 
L 349.404514 139.134105 
L 352.985922 139.068793 
L 356.56733 138.939974 
L 360.148737 138.745199 
L 363.730145 138.481575 
L 367.311553 138.145646 
L 370.892961 137.733196 
L 374.474369 137.239106 
L 378.055777 136.65718 
L 381.637184 135.979965 
L 385.218592 135.198626 
L 388.8 134.302718 
" clip-path="url(#p81b5fdd0ab)" style="fill: none; stroke: #2255a0; stroke-opacity: 0.9; stroke-width: 1.5; stroke-linecap: square"/>
   </g>
   <g id="patch_23">
    <path d="M 34.240625 149.633196 
L 34.240625 132.987528 
" style="fill: none; stroke: #000000; stroke-width: 0.8; stroke-linejoin: miter; stroke-linecap: square"/>
   </g>
   <g id="patch_24">
    <path d="M 388.8 149.633196 
L 388.8 132.987528 
" style="fill: none; stroke: #000000; stroke-width: 0.8; stroke-linejoin: miter; stroke-linecap: square"/>
   </g>
   <g id="patch_25">
    <path d="M 34.240625 149.633196 
L 388.8 149.633196 
" style="fill: none; stroke: #000000; stroke-width: 0.8; stroke-linejoin: miter; stroke-linecap: square"/>
   </g>
   <g id="patch_26">
    <path d="M 34.240625 132.987528 
L 388.8 132.987528 
" style="fill: none; stroke: #000000; stroke-width: 0.8; stroke-linejoin: miter; stroke-linecap: square"/>
   </g>
   <g id="text_29">
    <!-- 5 neurons -->
    <g style="fill: #2255a0" transform="translate(41.331812 140.991319) scale(0.09 -0.09)">
     <defs>
      <path id="DejaVuSans-35" d="M 691 4666 
L 3169 4666 
L 3169 4134 
L 1269 4134 
L 1269 2991 
Q 1406 3038 1543 3061 
Q 1681 3084 1819 3084 
Q 2600 3084 3056 2656 
Q 3513 2228 3513 1497 
Q 3513 744 3044 326 
Q 2575 -91 1722 -91 
Q 1428 -91 1123 -41 
Q 819 9 494 109 
L 494 744 
Q 775 591 1075 516 
Q 1375 441 1709 441 
Q 2250 441 2565 725 
Q 2881 1009 2881 1497 
Q 2881 1984 2565 2268 
Q 2250 2553 1709 2553 
Q 1456 2553 1204 2497 
Q 953 2441 691 2322 
L 691 4666 
z
" transform="scale(0.015625)"/>
     </defs>
     <use xlink:href="#DejaVuSans-35"/>
     <use xlink:href="#DejaVuSans-20" x="63.623047"/>
     <use xlink:href="#DejaVuSans-6e" x="95.410156"/>
     <use xlink:href="#DejaVuSans-65" x="158.789062"/>
     <use xlink:href="#DejaVuSans-75" x="220.3125"/>
     <use xlink:href="#DejaVuSans-72" x="283.691406"/>
     <use xlink:href="#DejaVuSans-6f" x="322.554688"/>
     <use xlink:href="#DejaVuSans-6e" x="383.736328"/>
     <use xlink:href="#DejaVuSans-73" x="447.115234"/>
    </g>
   </g>
   <g id="legend_1">
    <g id="line2d_51">
     <path d="M 300.84 126.226946 
L 308.84 126.226946 
L 316.84 126.226946 
" style="fill: none; stroke-dasharray: 16.65,7.2; stroke-dashoffset: 0; stroke: #cecece; stroke-width: 4.5"/>
    </g>
    <g id="text_30">
     <!-- Target -->
     <g transform="translate(323.24 129.026946) scale(0.08 -0.08)">
      <defs>
       <path id="DejaVuSans-54" d="M -19 4666 
L 3928 4666 
L 3928 4134 
L 2272 4134 
L 2272 0 
L 1638 0 
L 1638 4134 
L -19 4134 
L -19 4666 
z
" transform="scale(0.015625)"/>
       <path id="DejaVuSans-61" d="M 2194 1759 
Q 1497 1759 1228 1600 
Q 959 1441 959 1056 
Q 959 750 1161 570 
Q 1363 391 1709 391 
Q 2188 391 2477 730 
Q 2766 1069 2766 1631 
L 2766 1759 
L 2194 1759 
z
M 3341 1997 
L 3341 0 
L 2766 0 
L 2766 531 
Q 2569 213 2275 61 
Q 1981 -91 1556 -91 
Q 1019 -91 701 211 
Q 384 513 384 1019 
Q 384 1609 779 1909 
Q 1175 2209 1959 2209 
L 2766 2209 
L 2766 2266 
Q 2766 2663 2505 2880 
Q 2244 3097 1772 3097 
Q 1472 3097 1187 3025 
Q 903 2953 641 2809 
L 641 3341 
Q 956 3463 1253 3523 
Q 1550 3584 1831 3584 
Q 2591 3584 2966 3190 
Q 3341 2797 3341 1997 
z
" transform="scale(0.015625)"/>
       <path id="DejaVuSans-67" d="M 2906 1791 
Q 2906 2416 2648 2759 
Q 2391 3103 1925 3103 
Q 1463 3103 1205 2759 
Q 947 2416 947 1791 
Q 947 1169 1205 825 
Q 1463 481 1925 481 
Q 2391 481 2648 825 
Q 2906 1169 2906 1791 
z
M 3481 434 
Q 3481 -459 3084 -895 
Q 2688 -1331 1869 -1331 
Q 1566 -1331 1297 -1286 
Q 1028 -1241 775 -1147 
L 775 -588 
Q 1028 -725 1275 -790 
Q 1522 -856 1778 -856 
Q 2344 -856 2625 -561 
Q 2906 -266 2906 331 
L 2906 616 
Q 2728 306 2450 153 
Q 2172 0 1784 0 
Q 1141 0 747 490 
Q 353 981 353 1791 
Q 353 2603 747 3093 
Q 1141 3584 1784 3584 
Q 2172 3584 2450 3431 
Q 2728 3278 2906 2969 
L 2906 3500 
L 3481 3500 
L 3481 434 
z
" transform="scale(0.015625)"/>
       <path id="DejaVuSans-74" d="M 1172 4494 
L 1172 3500 
L 2356 3500 
L 2356 3053 
L 1172 3053 
L 1172 1153 
Q 1172 725 1289 603 
Q 1406 481 1766 481 
L 2356 481 
L 2356 0 
L 1766 0 
Q 1100 0 847 248 
Q 594 497 594 1153 
L 594 3053 
L 172 3053 
L 172 3500 
L 594 3500 
L 594 4494 
L 1172 4494 
z
" transform="scale(0.015625)"/>
      </defs>
      <use xlink:href="#DejaVuSans-54"/>
      <use xlink:href="#DejaVuSans-61" x="44.583984"/>
      <use xlink:href="#DejaVuSans-72" x="105.863281"/>
      <use xlink:href="#DejaVuSans-67" x="145.226562"/>
      <use xlink:href="#DejaVuSans-65" x="208.703125"/>
      <use xlink:href="#DejaVuSans-74" x="270.226562"/>
     </g>
    </g>
    <g id="line2d_52">
     <path d="M 300.84 137.969446 
L 308.84 137.969446 
L 316.84 137.969446 
" style="fill: none; stroke: #2255a0; stroke-opacity: 0.9; stroke-width: 1.5; stroke-linecap: square"/>
    </g>
    <g id="text_31">
     <!-- Approximation -->
     <g transform="translate(323.24 140.769446) scale(0.08 -0.08)">
      <defs>
       <path id="DejaVuSans-41" d="M 2188 4044 
L 1331 1722 
L 3047 1722 
L 2188 4044 
z
M 1831 4666 
L 2547 4666 
L 4325 0 
L 3669 0 
L 3244 1197 
L 1141 1197 
L 716 0 
L 50 0 
L 1831 4666 
z
" transform="scale(0.015625)"/>
       <path id="DejaVuSans-70" d="M 1159 525 
L 1159 -1331 
L 581 -1331 
L 581 3500 
L 1159 3500 
L 1159 2969 
Q 1341 3281 1617 3432 
Q 1894 3584 2278 3584 
Q 2916 3584 3314 3078 
Q 3713 2572 3713 1747 
Q 3713 922 3314 415 
Q 2916 -91 2278 -91 
Q 1894 -91 1617 61 
Q 1341 213 1159 525 
z
M 3116 1747 
Q 3116 2381 2855 2742 
Q 2594 3103 2138 3103 
Q 1681 3103 1420 2742 
Q 1159 2381 1159 1747 
Q 1159 1113 1420 752 
Q 1681 391 2138 391 
Q 2594 391 2855 752 
Q 3116 1113 3116 1747 
z
" transform="scale(0.015625)"/>
       <path id="DejaVuSans-78" d="M 3513 3500 
L 2247 1797 
L 3578 0 
L 2900 0 
L 1881 1375 
L 863 0 
L 184 0 
L 1544 1831 
L 300 3500 
L 978 3500 
L 1906 2253 
L 2834 3500 
L 3513 3500 
z
" transform="scale(0.015625)"/>
       <path id="DejaVuSans-69" d="M 603 3500 
L 1178 3500 
L 1178 0 
L 603 0 
L 603 3500 
z
M 603 4863 
L 1178 4863 
L 1178 4134 
L 603 4134 
L 603 4863 
z
" transform="scale(0.015625)"/>
       <path id="DejaVuSans-6d" d="M 3328 2828 
Q 3544 3216 3844 3400 
Q 4144 3584 4550 3584 
Q 5097 3584 5394 3201 
Q 5691 2819 5691 2113 
L 5691 0 
L 5113 0 
L 5113 2094 
Q 5113 2597 4934 2840 
Q 4756 3084 4391 3084 
Q 3944 3084 3684 2787 
Q 3425 2491 3425 1978 
L 3425 0 
L 2847 0 
L 2847 2094 
Q 2847 2600 2669 2842 
Q 2491 3084 2119 3084 
Q 1678 3084 1418 2786 
Q 1159 2488 1159 1978 
L 1159 0 
L 581 0 
L 581 3500 
L 1159 3500 
L 1159 2956 
Q 1356 3278 1631 3431 
Q 1906 3584 2284 3584 
Q 2666 3584 2933 3390 
Q 3200 3197 3328 2828 
z
" transform="scale(0.015625)"/>
      </defs>
      <use xlink:href="#DejaVuSans-41"/>
      <use xlink:href="#DejaVuSans-70" x="68.408203"/>
      <use xlink:href="#DejaVuSans-70" x="131.884766"/>
      <use xlink:href="#DejaVuSans-72" x="195.361328"/>
      <use xlink:href="#DejaVuSans-6f" x="234.224609"/>
      <use xlink:href="#DejaVuSans-78" x="292.28125"/>
      <use xlink:href="#DejaVuSans-69" x="351.460938"/>
      <use xlink:href="#DejaVuSans-6d" x="379.244141"/>
      <use xlink:href="#DejaVuSans-61" x="476.65625"/>
      <use xlink:href="#DejaVuSans-74" x="537.935547"/>
      <use xlink:href="#DejaVuSans-69" x="577.144531"/>
      <use xlink:href="#DejaVuSans-6f" x="604.927734"/>
      <use xlink:href="#DejaVuSans-6e" x="666.109375"/>
     </g>
    </g>
   </g>
  </g>
 </g>
 <defs>
  <clipPath id="p15bf8a78b2">
   <rect x="34.240625" y="7.942553" width="354.559375" height="16.645667"/>
  </clipPath>
  <clipPath id="p5f9d75d10c">
   <rect x="34.240625" y="36.09604" width="354.559375" height="16.645667"/>
  </clipPath>
  <clipPath id="p69b65dac62">
   <rect x="34.240625" y="64.206747" width="354.559375" height="16.645667"/>
  </clipPath>
  <clipPath id="p4a4c2daf1b">
   <rect x="34.240625" y="92.303896" width="354.559375" height="16.645667"/>
  </clipPath>
  <clipPath id="p81b5fdd0ab">
   <rect x="34.240625" y="132.987528" width="354.559375" height="16.645667"/>
  </clipPath>
 </defs>
</svg>
