<?xml version="1.0" encoding="utf-8" standalone="no"?>
<!DOCTYPE svg PUBLIC "-//W3C//DTD SVG 1.1//EN"
  "http://www.w3.org/Graphics/SVG/1.1/DTD/svg11.dtd">
<svg xmlns:xlink="http://www.w3.org/1999/xlink" width="404.39952pt" height="159.59952pt" viewBox="0 0 404.39952 159.59952" xmlns="http://www.w3.org/2000/svg" version="1.1">
 <metadata>
  <rdf:RDF xmlns:dc="http://purl.org/dc/elements/1.1/" xmlns:cc="http://creativecommons.org/ns#" xmlns:rdf="http://www.w3.org/1999/02/22-rdf-syntax-ns#">
   <cc:Work>
    <dc:type rdf:resource="http://purl.org/dc/dcmitype/StillImage"/>
    <dc:date>2025-10-11T18:18:50.131238</dc:date>
    <dc:format>image/svg+xml</dc:format>
    <dc:creator>
     <cc:Agent>
      <dc:title>Matplotlib v3.8.4, https://matplotlib.org/</dc:title>
     </cc:Agent>
    </dc:creator>
   </cc:Work>
  </rdf:RDF>
 </metadata>
 <defs>
  <style type="text/css">*{stroke-linejoin: round; stroke-linecap: butt}</style>
 </defs>
 <g id="figure_1">
  <g id="patch_1">
   <path d="M 0 159.59952 
L 404.39952 159.59952 
L 404.39952 -0 
L 0 -0 
z
" style="fill: #ffffff"/>
  </g>
  <g id="axes_1">
   <g id="patch_2">
    <path d="M 30.404295 127.230425 
L 397.19952 127.230425 
L 397.19952 7.2 
L 30.404295 7.2 
z
" style="fill: #ffffff"/>
   </g>
   <g id="matplotlib.axis_1">
    <g id="xtick_1">
     <g id="line2d_1">
      <defs>
       <path id="me206cad306" d="M 0 0 
L 0 3.5 
" style="stroke: #000000; stroke-width: 0.8"/>
      </defs>
      <g>
       <use xlink:href="#me206cad306" x="47.076805" y="127.230425" style="stroke: #000000; stroke-width: 0.8"/>
      </g>
     </g>
     <g id="text_1">
      <!-- -1 -->
      <g transform="translate(43.548319 139.765227) scale(0.08 -0.08)">
       <defs>
        <path id="CMSS17-2d" d="M 1664 1216 
L 1664 1587 
L 64 1587 
L 64 1216 
L 1664 1216 
z
" transform="scale(0.015625)"/>
        <path id="CMSS17-31" d="M 1818 4288 
L 1696 4288 
C 1350 3949 947 3902 538 3891 
L 538 3520 
C 723 3526 1024 3539 1325 3673 
L 1325 371 
L 570 371 
L 570 0 
L 2573 0 
L 2573 371 
L 1818 371 
L 1818 4288 
z
" transform="scale(0.015625)"/>
       </defs>
       <use xlink:href="#CMSS17-2d" transform="scale(0.996264)"/>
       <use xlink:href="#CMSS17-31" transform="translate(31.229113 0) scale(0.996264)"/>
      </g>
     </g>
    </g>
    <g id="xtick_2">
     <g id="line2d_2">
      <g>
       <use xlink:href="#me206cad306" x="213.801907" y="127.230425" style="stroke: #000000; stroke-width: 0.8"/>
      </g>
     </g>
     <g id="text_2">
      <!-- 0 -->
      <g transform="translate(211.684816 139.765227) scale(0.08 -0.08)">
       <defs>
        <path id="CMSS17-30" d="M 2758 2073 
C 2758 2439 2752 3120 2490 3647 
C 2227 4153 1805 4288 1504 4288 
C 1069 4288 698 4031 506 3621 
C 301 3191 243 2748 243 2073 
C 243 1611 262 1046 493 551 
C 755 6 1197 -128 1498 -128 
C 1894 -128 2278 83 2496 525 
C 2720 988 2758 1495 2758 2073 
z
M 1498 262 
C 1011 262 864 821 819 1007 
C 742 1328 730 1636 730 2144 
C 730 2542 730 2992 851 3345 
C 998 3756 1254 3897 1498 3897 
C 1971 3897 2125 3422 2176 3255 
C 2272 2915 2272 2516 2272 2144 
C 2272 1546 2272 262 1498 262 
z
" transform="scale(0.015625)"/>
       </defs>
       <use xlink:href="#CMSS17-30" transform="scale(0.996264)"/>
      </g>
     </g>
    </g>
    <g id="xtick_3">
     <g id="line2d_3">
      <g>
       <use xlink:href="#me206cad306" x="380.52701" y="127.230425" style="stroke: #000000; stroke-width: 0.8"/>
      </g>
     </g>
     <g id="text_3">
      <!-- 1 -->
      <g transform="translate(378.409918 139.765227) scale(0.08 -0.08)">
       <use xlink:href="#CMSS17-31" transform="scale(0.996264)"/>
      </g>
     </g>
    </g>
    <g id="text_4">
     <!-- $x$ -->
     <g transform="translate(211.418458 150.849774) scale(0.08 -0.08)">
      <defs>
       <path id="CMMI12-78" d="M 3034 2624 
C 2829 2585 2752 2431 2752 2310 
C 2752 2156 2874 2105 2963 2105 
C 3155 2105 3290 2271 3290 2444 
C 3290 2694 2982 2816 2714 2816 
C 2323 2816 2106 2451 2048 2329 
C 1901 2790 1504 2816 1389 2816 
C 736 2816 390 1993 390 1849 
C 390 1823 416 1790 461 1790 
C 512 1790 525 1829 538 1855 
C 755 2572 1184 2687 1370 2687 
C 1658 2687 1715 2438 1715 2284 
C 1715 2143 1677 1993 1600 1678 
L 1382 778 
C 1286 390 1101 64 762 64 
C 730 64 570 64 435 126 
C 666 166 717 358 717 435 
C 717 563 621 640 499 640 
C 346 640 179 505 179 300 
C 179 57 480 -64 755 -64 
C 1062 -64 1280 153 1414 415 
C 1517 64 1837 -64 2074 -64 
C 2726 -64 3072 751 3072 896 
C 3072 929 3046 955 3008 955 
C 2950 955 2944 922 2925 870 
C 2752 300 2381 64 2093 64 
C 1869 64 1747 204 1747 467 
C 1747 607 1773 712 1875 1146 
L 2099 2039 
C 2195 2425 2413 2687 2707 2687 
C 2720 2687 2899 2687 3034 2624 
z
" transform="scale(0.015625)"/>
      </defs>
      <use xlink:href="#CMMI12-78" transform="scale(0.996264)"/>
     </g>
    </g>
   </g>
   <g id="matplotlib.axis_2">
    <g id="ytick_1">
     <g id="line2d_4">
      <defs>
       <path id="mdf0c6fce50" d="M 0 0 
L -3.5 0 
" style="stroke: #000000; stroke-width: 0.8"/>
      </defs>
      <g>
       <use xlink:href="#mdf0c6fce50" x="30.404295" y="110.314705" style="stroke: #000000; stroke-width: 0.8"/>
      </g>
     </g>
     <g id="text_5">
      <!-- 0 -->
      <g transform="translate(19.170112 113.082106) scale(0.08 -0.08)">
       <use xlink:href="#CMSS17-30" transform="scale(0.996264)"/>
      </g>
     </g>
    </g>
    <g id="ytick_2">
     <g id="line2d_5">
      <g>
       <use xlink:href="#mdf0c6fce50" x="30.404295" y="69.932803" style="stroke: #000000; stroke-width: 0.8"/>
      </g>
     </g>
     <g id="text_6">
      <!-- 1 -->
      <g transform="translate(19.170112 72.700204) scale(0.08 -0.08)">
       <use xlink:href="#CMSS17-31" transform="scale(0.996264)"/>
      </g>
     </g>
    </g>
    <g id="ytick_3">
     <g id="line2d_6">
      <g>
       <use xlink:href="#mdf0c6fce50" x="30.404295" y="29.550901" style="stroke: #000000; stroke-width: 0.8"/>
      </g>
     </g>
     <g id="text_7">
      <!-- 2 -->
      <g transform="translate(19.170112 32.318301) scale(0.08 -0.08)">
       <defs>
        <path id="CMSS17-32" d="M 1651 1353 
C 1830 1538 2099 1761 2285 1984 
C 2464 2201 2701 2507 2701 2953 
C 2701 3655 2227 4288 1421 4288 
C 787 4288 422 3891 250 3272 
L 499 2928 
C 640 3508 838 3878 1338 3878 
C 1888 3878 2195 3431 2195 2940 
C 2195 2354 1747 1901 1408 1563 
C 1030 1187 659 805 301 409 
L 301 0 
L 2701 0 
L 2701 435 
L 1613 435 
C 1536 435 1459 428 1382 428 
L 742 428 
L 742 435 
L 1651 1353 
z
" transform="scale(0.015625)"/>
       </defs>
       <use xlink:href="#CMSS17-32" transform="scale(0.996264)"/>
      </g>
     </g>
    </g>
    <g id="text_8">
     <!-- $f(x)$ -->
     <g transform="translate(13.177584 75.365299) rotate(-90) scale(0.08 -0.08)">
      <defs>
       <path id="CMMI12-66" d="M 2854 2566 
C 2982 2566 3034 2566 3034 2687 
C 3034 2752 2982 2752 2867 2752 
L 2349 2752 
C 2470 3398 2560 3846 2611 4051 
C 2650 4204 2784 4351 2950 4351 
C 3085 4351 3219 4294 3283 4236 
C 3034 4211 2957 4025 2957 3916 
C 2957 3788 3053 3712 3174 3712 
C 3302 3712 3494 3820 3494 4064 
C 3494 4332 3226 4480 2944 4480 
C 2669 4480 2400 4275 2272 4025 
C 2157 3801 2093 3573 1946 2752 
L 1517 2752 
C 1395 2752 1331 2752 1331 2636 
C 1331 2566 1370 2566 1498 2566 
L 1907 2566 
C 1792 1977 1530 545 1382 -132 
C 1274 -685 1178 -1152 858 -1152 
C 838 -1152 653 -1152 538 -1031 
C 864 -1005 864 -724 864 -717 
C 864 -589 768 -512 646 -512 
C 518 -512 326 -621 326 -865 
C 326 -1140 608 -1280 858 -1280 
C 1510 -1280 1779 -113 1850 203 
C 1965 691 2278 2376 2310 2566 
L 2854 2566 
z
" transform="scale(0.015625)"/>
       <path id="CMR17-28" d="M 1958 -1562 
C 1958 -1556 1958 -1543 1939 -1524 
C 1645 -1223 858 -403 858 1596 
C 858 3595 1632 4408 1946 4729 
C 1946 4735 1958 4748 1958 4767 
C 1958 4787 1939 4800 1914 4800 
C 1843 4800 1299 4325 986 3620 
C 666 2909 576 2218 576 1603 
C 576 1141 621 360 1005 -467 
C 1312 -1133 1837 -1600 1914 -1600 
C 1946 -1600 1958 -1588 1958 -1562 
z
" transform="scale(0.015625)"/>
       <path id="CMR17-29" d="M 1683 1596 
C 1683 2057 1638 2839 1254 3665 
C 947 4332 422 4800 346 4800 
C 326 4800 301 4793 301 4761 
C 301 4748 307 4742 314 4729 
C 621 4408 1402 3595 1402 1603 
C 1402 -396 627 -1210 314 -1530 
C 307 -1543 301 -1549 301 -1562 
C 301 -1594 326 -1600 346 -1600 
C 416 -1600 960 -1127 1274 -422 
C 1594 289 1683 981 1683 1596 
z
" transform="scale(0.015625)"/>
      </defs>
      <use xlink:href="#CMMI12-66" transform="scale(0.996264)"/>
      <use xlink:href="#CMR17-28" transform="translate(58.720305 0) scale(0.996264)"/>
      <use xlink:href="#CMMI12-78" transform="translate(94.001073 0) scale(0.996264)"/>
      <use xlink:href="#CMR17-29" transform="translate(149.435132 0) scale(0.996264)"/>
     </g>
    </g>
   </g>
   <g id="line2d_7">
    <path d="M 30.404295 68.381677 
L 34.109297 65.082136 
L 37.814299 62.164156 
L 41.519302 59.659762 
L 45.224304 57.595791 
L 48.929306 55.993555 
L 52.634309 54.86858 
L 56.339311 54.230412 
L 60.044313 54.082494 
L 63.749315 54.422123 
L 67.454318 55.240483 
L 71.15932 56.522748 
L 74.864322 58.248266 
L 78.569324 60.39081 
L 82.274327 62.918895 
L 85.979329 65.796172 
L 89.684331 68.981867 
L 93.389334 72.431284 
L 97.094336 76.096352 
L 100.799338 79.926217 
L 104.50434 83.867865 
L 108.209343 87.866775 
L 111.914345 91.867586 
L 115.619347 95.814777 
L 119.324349 99.65335 
L 123.029352 103.329505 
L 126.734354 106.791299 
L 130.439356 109.989287 
L 134.144359 112.877122 
L 137.849361 115.412129 
L 141.554363 117.555826 
L 145.259365 119.274395 
L 148.964368 120.539094 
L 152.66937 121.326609 
L 156.374372 121.619339 
L 160.079374 121.405607 
L 163.784377 120.679801 
L 167.489379 119.44244 
L 171.194381 117.700161 
L 174.899384 115.465635 
L 178.604386 112.757407 
L 182.309388 109.599659 
L 186.01439 106.021912 
L 189.719393 102.058654 
L 193.424395 97.748912 
L 197.129397 93.135764 
L 200.8344 88.265803 
L 204.539402 83.188559 
L 208.244404 77.95588 
L 211.949406 72.621292 
L 215.654409 67.239328 
L 219.359411 61.864852 
L 223.064413 56.552379 
L 226.769415 51.355394 
L 230.474418 46.325686 
L 234.17942 41.512706 
L 237.884422 36.962949 
L 241.589425 32.719375 
L 245.294427 28.820871 
L 248.999429 25.301768 
L 252.704431 22.191407 
L 256.409434 19.513773 
L 260.114436 17.287191 
L 263.819438 15.524094 
L 267.52444 14.230858 
L 271.229443 13.407723 
L 274.934445 13.048775 
L 278.639447 13.142016 
L 282.34445 13.669501 
L 286.049452 14.607553 
L 289.754454 15.927045 
L 293.459456 17.593751 
L 297.164459 19.56876 
L 300.869461 21.808947 
L 304.574463 24.267492 
L 308.279465 26.894454 
L 311.984468 29.637371 
L 315.68947 32.441904 
L 319.394472 35.252488 
L 323.099475 38.013018 
L 326.804477 40.667519 
L 330.509479 43.160834 
L 334.214481 45.43929 
L 337.919484 47.451347 
L 341.624486 49.148225 
L 345.329488 50.484494 
L 349.03449 51.418617 
L 352.739493 51.913458 
L 356.444495 51.936719 
L 360.149497 51.461333 
L 363.8545 50.465778 
L 367.559502 48.934334 
L 371.264504 46.85726 
L 374.969506 44.230901 
L 378.674509 41.057718 
L 382.379511 37.346245 
L 386.084513 33.110966 
L 389.789515 28.372122 
L 393.494518 23.155445 
L 397.19952 17.491827 
" clip-path="url(#p328a0c85dc)" style="fill: none; stroke-dasharray: 22.2,9.6; stroke-dashoffset: 0; stroke: #cecece; stroke-width: 6"/>
   </g>
   <g id="line2d_8">
    <path d="M 30.404295 88.07757 
L 34.109297 88.072696 
L 37.814299 88.067624 
L 41.519302 88.062342 
L 45.224304 88.056837 
L 48.929306 88.051094 
L 52.634309 88.045099 
L 56.339311 88.038831 
L 60.044313 88.032274 
L 63.749315 88.025407 
L 67.454318 88.018208 
L 71.15932 88.01065 
L 74.864322 88.002712 
L 78.569324 87.994356 
L 82.274327 87.98555 
L 85.979329 87.976262 
L 89.684331 87.966448 
L 93.389334 87.956063 
L 97.094336 87.945049 
L 100.799338 87.933359 
L 104.50434 87.920917 
L 108.209343 87.907656 
L 111.914345 87.893492 
L 115.619347 87.878328 
L 119.324349 87.86205 
L 123.029352 87.844535 
L 126.734354 87.82564 
L 130.439356 87.805186 
L 134.144359 87.782976 
L 137.849361 87.75878 
L 141.554363 87.732309 
L 145.259365 87.703234 
L 148.964368 87.671151 
L 152.66937 87.635561 
L 156.374372 87.59586 
L 160.079374 87.551296 
L 163.784377 87.500913 
L 167.489379 87.443496 
L 171.194381 87.377463 
L 174.899384 87.300713 
L 178.604386 87.210419 
L 182.309388 87.102648 
L 186.01439 86.971799 
L 189.719393 86.809587 
L 193.424395 86.603235 
L 197.129397 86.331982 
L 200.8344 85.959705 
L 204.539402 85.417655 
L 208.244404 84.557615 
L 211.949406 82.995259 
L 215.654409 79.3958 
L 219.359411 67.17247 
L 223.064413 45.856467 
L 226.769415 38.845199 
L 230.474418 36.404234 
L 234.17942 35.21271 
L 237.884422 34.512766 
L 241.589425 34.053503 
L 245.294427 33.729382 
L 248.999429 33.488552 
L 252.704431 33.302622 
L 256.409434 33.154767 
L 260.114436 33.034393 
L 263.819438 32.934504 
L 267.52444 32.85028 
L 271.229443 32.778311 
L 274.934445 32.716095 
L 278.639447 32.661797 
L 282.34445 32.613973 
L 286.049452 32.571556 
L 289.754454 32.533649 
L 293.459456 32.499595 
L 297.164459 32.468824 
L 300.869461 32.440884 
L 304.574463 32.415399 
L 308.279465 32.392062 
L 311.984468 32.370623 
L 315.68947 32.350836 
L 319.394472 32.332543 
L 323.099475 32.315559 
L 326.804477 32.299761 
L 330.509479 32.28503 
L 334.214481 32.271252 
L 337.919484 32.258342 
L 341.624486 32.246227 
L 345.329488 32.234827 
L 349.03449 32.224086 
L 352.739493 32.213938 
L 356.444495 32.204351 
L 360.149497 32.195269 
L 363.8545 32.186664 
L 367.559502 32.178478 
L 371.264504 32.170701 
L 374.969506 32.163303 
L 378.674509 32.156244 
L 382.379511 32.149508 
L 386.084513 32.143079 
L 389.789515 32.136925 
L 393.494518 32.131034 
L 397.19952 32.125392 
" clip-path="url(#p328a0c85dc)" style="fill: none; stroke: #2255a0; stroke-opacity: 0.4; stroke-linecap: square"/>
   </g>
   <g id="line2d_9">
    <path d="M 30.404295 48.880683 
L 34.109297 50.1648 
L 37.814299 51.49359 
L 41.519302 52.869054 
L 45.224304 54.293199 
L 48.929306 55.768023 
L 52.634309 57.295686 
L 56.339311 58.878495 
L 60.044313 60.518146 
L 63.749315 62.216952 
L 67.454318 63.977066 
L 71.15932 65.800648 
L 74.864322 67.689701 
L 78.569324 69.645453 
L 82.274327 71.669754 
L 85.979329 73.764299 
L 89.684331 75.929552 
L 93.389334 78.165974 
L 97.094336 80.472948 
L 100.799338 82.849396 
L 104.50434 85.293469 
L 108.209343 87.800856 
L 111.914345 90.366625 
L 115.619347 92.98346 
L 119.324349 95.641039 
L 123.029352 98.326886 
L 126.734354 101.02444 
L 130.439356 103.712906 
L 134.144359 106.36702 
L 137.849361 108.954971 
L 141.554363 111.439251 
L 145.259365 113.774954 
L 148.964368 115.909937 
L 152.66937 117.783968 
L 156.374372 119.329576 
L 160.079374 120.472819 
L 163.784377 121.135365 
L 167.489379 121.236842 
L 171.194381 120.699496 
L 174.899384 119.453582 
L 178.604386 117.443606 
L 182.309388 114.635294 
L 186.01439 111.022386 
L 189.719393 106.631919 
L 193.424395 101.527406 
L 197.129397 95.808062 
L 200.8344 89.604883 
L 204.539402 83.072468 
L 208.244404 76.378342 
L 211.949406 69.691012 
L 215.654409 63.168293 
L 219.359411 56.94816 
L 223.064413 51.141674 
L 226.769415 45.830481 
L 230.474418 41.066458 
L 234.17942 36.87436 
L 237.884422 33.256005 
L 241.589425 30.194519 
L 245.294427 27.660329 
L 248.999429 25.614537 
L 252.704431 24.013088 
L 256.409434 22.809998 
L 260.114436 21.95983 
L 263.819438 21.417973 
L 267.52444 21.143619 
L 271.229443 21.098795 
L 274.934445 21.249448 
L 278.639447 21.564701 
L 282.34445 22.018056 
L 286.049452 22.585709 
L 289.754454 23.247177 
L 293.459456 23.98474 
L 297.164459 24.783466 
L 300.869461 25.62979 
L 304.574463 26.512768 
L 308.279465 27.423332 
L 311.984468 28.352838 
L 315.68947 29.294976 
L 319.394472 30.244044 
L 323.099475 31.195114 
L 326.804477 32.144493 
L 330.509479 33.088941 
L 334.214481 34.025227 
L 337.919484 34.951806 
L 341.624486 35.866679 
L 345.329488 36.768455 
L 349.03449 37.65575 
L 352.739493 38.528108 
L 356.444495 39.384289 
L 360.149497 40.224447 
L 363.8545 41.048278 
L 367.559502 41.855012 
L 371.264504 42.644801 
L 374.969506 43.417949 
L 378.674509 44.174463 
L 382.379511 44.913876 
L 386.084513 45.637116 
L 389.789515 46.34403 
L 393.494518 47.035073 
L 397.19952 47.71025 
" clip-path="url(#p328a0c85dc)" style="fill: none; stroke: #2255a0; stroke-opacity: 0.4; stroke-linecap: square"/>
   </g>
   <g id="line2d_10">
    <path d="M 30.404295 68.054015 
L 34.109297 64.898177 
L 37.814299 62.125063 
L 41.519302 59.751003 
L 45.224304 57.791402 
L 48.929306 56.260197 
L 52.634309 55.168868 
L 56.339311 54.526501 
L 60.044313 54.339335 
L 63.749315 54.609761 
L 67.454318 55.336776 
L 71.15932 56.513602 
L 74.864322 58.129528 
L 78.569324 60.167619 
L 82.274327 62.605224 
L 85.979329 65.413842 
L 89.684331 68.558897 
L 93.389334 71.999332 
L 97.094336 75.688548 
L 100.799338 79.575098 
L 104.50434 83.602058 
L 108.209343 87.70997 
L 111.914345 91.835903 
L 115.619347 95.916009 
L 119.324349 99.886358 
L 123.029352 103.684023 
L 126.734354 107.248695 
L 130.439356 110.523532 
L 134.144359 113.457006 
L 137.849361 116.00298 
L 141.554363 118.12148 
L 145.259365 119.779772 
L 148.964368 120.95236 
L 152.66937 121.620991 
L 156.374372 121.774497 
L 160.079374 121.409103 
L 163.784377 120.527428 
L 167.489379 119.138791 
L 171.194381 117.257905 
L 174.899384 114.905026 
L 178.604386 112.105109 
L 182.309388 108.887038 
L 186.01439 105.283777 
L 189.719393 101.331143 
L 193.424395 97.067955 
L 197.129397 92.535189 
L 200.8344 87.77536 
L 204.539402 82.832836 
L 208.244404 77.75325 
L 211.949406 72.582429 
L 215.654409 67.367554 
L 219.359411 62.155026 
L 223.064413 56.991909 
L 226.769415 51.924183 
L 230.474418 46.997562 
L 234.17942 42.256493 
L 237.884422 37.743674 
L 241.589425 33.500319 
L 245.294427 29.565167 
L 248.999429 25.974154 
L 252.704431 22.760203 
L 256.409434 19.952276 
L 260.114436 17.575098 
L 263.819438 15.648882 
L 267.52444 14.188191 
L 271.229443 13.201787 
L 274.934445 12.692418 
L 278.639447 12.655928 
L 282.34445 13.08092 
L 286.049452 13.949288 
L 289.754454 15.235217 
L 293.459456 16.906043 
L 297.164459 18.922142 
L 300.869461 21.23747 
L 304.574463 23.800413 
L 308.279465 26.554402 
L 311.984468 29.439164 
L 315.68947 32.391582 
L 319.394472 35.347218 
L 323.099475 38.241199 
L 326.804477 41.010077 
L 330.509479 43.591983 
L 334.214481 45.929053 
L 337.919484 47.966966 
L 341.624486 49.656953 
L 345.329488 50.95534 
L 349.03449 51.82469 
L 352.739493 52.233718 
L 356.444495 52.157025 
L 360.149497 51.575658 
L 363.8545 50.476047 
L 367.559502 48.850684 
L 371.264504 46.69637 
L 374.969506 44.015064 
L 378.674509 40.812476 
L 382.379511 37.097608 
L 386.084513 32.883098 
L 389.789515 28.183658 
L 393.494518 23.016035 
L 397.19952 17.398795 
" clip-path="url(#p328a0c85dc)" style="fill: none; stroke: #2255a0; stroke-opacity: 0.4; stroke-linecap: square"/>
   </g>
   <g id="line2d_11">
    <path d="M 30.404295 68.177365 
L 34.109297 64.936806 
L 37.814299 62.100418 
L 41.519302 59.683379 
L 45.224304 57.699013 
L 48.929306 56.159259 
L 52.634309 55.073515 
L 56.339311 54.448362 
L 60.044313 54.287 
L 63.749315 54.589449 
L 67.454318 55.351564 
L 71.15932 56.564011 
L 74.864322 58.213175 
L 78.569324 60.279876 
L 82.274327 62.73955 
L 85.979329 65.561753 
L 89.684331 68.710758 
L 93.389334 72.144923 
L 97.094336 75.818102 
L 100.799338 79.678866 
L 104.50434 83.672159 
L 108.209343 87.739824 
L 111.914345 91.821663 
L 115.619347 95.85598 
L 119.324349 99.781434 
L 123.029352 103.537988 
L 126.734354 107.0675 
L 130.439356 110.315822 
L 134.144359 113.232524 
L 137.849361 115.77301 
L 141.554363 117.897769 
L 145.259365 119.574218 
L 148.964368 120.776095 
L 152.66937 121.484064 
L 156.374372 121.68569 
L 160.079374 121.374751 
L 163.784377 120.552113 
L 167.489379 119.224325 
L 171.194381 117.403555 
L 174.899384 115.107518 
L 178.604386 112.358667 
L 182.309388 109.183959 
L 186.01439 105.614011 
L 189.719393 101.682943 
L 193.424395 97.428189 
L 197.129397 92.889685 
L 200.8344 88.109638 
L 204.539402 83.132183 
L 208.244404 78.003226 
L 211.949406 72.769979 
L 215.654409 67.480507 
L 219.359411 62.183758 
L 223.064413 56.929099 
L 226.769415 51.765748 
L 230.474418 46.743043 
L 234.17942 41.909426 
L 237.884422 37.312193 
L 241.589425 32.997322 
L 245.294427 29.008103 
L 248.999429 25.385628 
L 252.704431 22.166593 
L 256.409434 19.384159 
L 260.114436 17.065325 
L 263.819438 15.231268 
L 267.52444 13.895701 
L 271.229443 13.064088 
L 274.934445 12.732432 
L 278.639447 12.887325 
L 282.34445 13.504889 
L 286.049452 14.551701 
L 289.754454 15.985004 
L 293.459456 17.754753 
L 297.164459 19.806861 
L 300.869461 22.085103 
L 304.574463 24.53611 
L 308.279465 27.110965 
L 311.984468 29.767239 
L 315.68947 32.467334 
L 319.394472 35.175441 
L 323.099475 37.854587 
L 326.804477 40.461945 
L 330.509479 42.947843 
L 334.214481 45.255971 
L 337.919484 47.326335 
L 341.624486 49.097461 
L 345.329488 50.510977 
L 349.03449 51.513345 
L 352.739493 52.05905 
L 356.444495 52.110577 
L 360.149497 51.640205 
L 363.8545 50.628206 
L 367.559502 49.06365 
L 371.264504 46.943071 
L 374.969506 44.269163 
L 378.674509 41.051012 
L 382.379511 37.301181 
L 386.084513 33.036836 
L 389.789515 28.27778 
L 393.494518 23.045958 
L 397.19952 17.364478 
" clip-path="url(#p328a0c85dc)" style="fill: none; stroke: #2255a0; stroke-opacity: 0.4; stroke-linecap: square"/>
   </g>
   <g id="line2d_12">
    <path d="M 30.404295 68.768261 
L 34.109297 65.080489 
L 37.814299 61.964145 
L 41.519302 59.398166 
L 45.224304 57.363407 
L 48.929306 55.842406 
L 52.634309 54.819803 
L 56.339311 54.281282 
L 60.044313 54.213788 
L 63.749315 54.604697 
L 67.454318 55.441353 
L 71.15932 56.709931 
L 74.864322 58.394966 
L 78.569324 60.478309 
L 82.274327 62.938092 
L 85.979329 65.748022 
L 89.684331 68.876529 
L 93.389334 72.286212 
L 97.094336 75.933662 
L 100.799338 79.769464 
L 104.50434 83.738927 
L 108.209343 87.78292 
L 111.914345 91.839341 
L 115.619347 95.844686 
L 119.324349 99.735952 
L 123.029352 103.45233 
L 126.734354 106.936677 
L 130.439356 110.136928 
L 134.144359 113.006752 
L 137.849361 115.506243 
L 141.554363 117.601733 
L 145.259365 119.265878 
L 148.964368 120.476843 
L 152.66937 121.21828 
L 156.374372 121.478346 
L 160.079374 121.249628 
L 163.784377 120.528429 
L 167.489379 119.315115 
L 171.194381 117.613518 
L 174.899384 115.431628 
L 178.604386 112.781673 
L 182.309388 109.680715 
L 186.01439 106.151145 
L 189.719393 102.221041 
L 193.424395 97.924675 
L 197.129397 93.302727 
L 200.8344 88.402092 
L 204.539402 83.275407 
L 208.244404 77.979926 
L 211.949406 72.576788 
L 215.654409 67.128861 
L 219.359411 61.699312 
L 223.064413 56.349918 
L 226.769415 51.139203 
L 230.474418 46.121319 
L 234.17942 41.345009 
L 237.884422 36.853103 
L 241.589425 32.682226 
L 245.294427 28.863112 
L 248.999429 25.42106 
L 252.704431 22.376288 
L 256.409434 19.744854 
L 260.114436 17.539126 
L 263.819438 15.768073 
L 267.52444 14.437974 
L 271.229443 13.55214 
L 274.934445 13.110996 
L 278.639447 13.111364 
L 282.34445 13.546135 
L 286.049452 14.403007 
L 289.754454 15.663673 
L 293.459456 17.302573 
L 297.164459 19.286092 
L 300.869461 21.572018 
L 304.574463 24.109387 
L 308.279465 26.839446 
L 311.984468 29.696841 
L 315.68947 32.612309 
L 319.394472 35.514859 
L 323.099475 38.334974 
L 326.804477 41.007266 
L 330.509479 43.472521 
L 334.214481 45.67898 
L 337.919484 47.582934 
L 341.624486 49.148472 
L 345.329488 50.346534 
L 349.03449 51.153902 
L 352.739493 51.551377 
L 356.444495 51.522415 
L 360.149497 51.051461 
L 363.8545 50.122552 
L 367.559502 48.718049 
L 371.264504 46.817083 
L 374.969506 44.394726 
L 378.674509 41.420587 
L 382.379511 37.857745 
L 386.084513 33.661528 
L 389.789515 28.778193 
L 393.494518 23.144029 
L 397.19952 16.683716 
" clip-path="url(#p328a0c85dc)" style="fill: none; stroke: #2255a0; stroke-opacity: 0.9; stroke-width: 1.8; stroke-linecap: square"/>
   </g>
   <g id="patch_3">
    <path d="M 30.404295 127.230425 
L 30.404295 7.2 
" style="fill: none; stroke: #000000; stroke-width: 0.8; stroke-linejoin: miter; stroke-linecap: square"/>
   </g>
   <g id="patch_4">
    <path d="M 397.19952 127.230425 
L 397.19952 7.2 
" style="fill: none; stroke: #000000; stroke-width: 0.8; stroke-linejoin: miter; stroke-linecap: square"/>
   </g>
   <g id="patch_5">
    <path d="M 30.404295 127.230425 
L 397.19952 127.230425 
" style="fill: none; stroke: #000000; stroke-width: 0.8; stroke-linejoin: miter; stroke-linecap: square"/>
   </g>
   <g id="patch_6">
    <path d="M 30.404295 7.2 
L 397.19952 7.2 
" style="fill: none; stroke: #000000; stroke-width: 0.8; stroke-linejoin: miter; stroke-linecap: square"/>
   </g>
   <g id="legend_1">
    <g id="line2d_13">
     <path d="M 316.152858 104.530934 
L 324.152858 104.530934 
L 332.152858 104.530934 
" style="fill: none; stroke-dasharray: 22.2,9.6; stroke-dashoffset: 0; stroke: #cecece; stroke-width: 6"/>
    </g>
    <g id="text_9">
     <!-- Target -->
     <g transform="translate(338.552858 107.330934) scale(0.08 -0.08)">
      <defs>
       <path id="CMSS17-54" d="M 2317 3987 
L 2848 3987 
C 2925 3987 3002 3980 3078 3980 
L 3878 3980 
L 3878 4396 
L 218 4396 
L 218 3980 
L 1018 3980 
C 1094 3980 1171 3987 1248 3987 
L 1779 3987 
L 1779 0 
L 2317 0 
L 2317 3987 
z
" transform="scale(0.015625)"/>
       <path id="CMSS17-61" d="M 2406 1789 
C 2406 2399 1978 2816 1402 2816 
C 1120 2816 813 2764 461 2559 
L 499 2133 
C 659 2250 934 2438 1395 2438 
C 1722 2438 1920 2185 1920 1782 
L 1920 1536 
C 896 1504 256 1209 256 711 
C 256 452 416 -64 947 -64 
C 1043 -64 1562 -52 1933 224 
L 1933 -13 
L 2406 -13 
L 2406 1789 
z
M 1920 824 
C 1920 711 1920 559 1728 446 
C 1562 339 1350 326 1261 326 
C 941 326 723 503 723 723 
C 723 1165 1722 1209 1920 1216 
L 1920 824 
z
" transform="scale(0.015625)"/>
       <path id="CMSS17-72" d="M 954 1369 
C 954 1974 1395 2379 1958 2392 
L 1958 2816 
C 1549 2809 1165 2604 934 2270 
L 934 2783 
L 480 2783 
L 480 0 
L 954 0 
L 954 1369 
z
" transform="scale(0.015625)"/>
       <path id="CMSS17-67" d="M 2848 2816 
C 2483 2809 2170 2739 1914 2617 
C 1702 2783 1485 2816 1338 2816 
C 781 2816 358 2356 358 1824 
C 358 1481 550 1222 563 1209 
C 448 1049 384 876 384 684 
C 384 460 474 300 544 211 
C 211 6 166 -308 166 -429 
C 166 -896 749 -1280 1498 -1280 
C 2253 -1280 2835 -896 2835 -423 
C 2835 460 1856 467 1587 467 
L 1069 467 
C 973 467 717 467 717 793 
C 717 921 774 1004 781 1011 
C 877 940 1075 832 1338 832 
C 1869 832 2310 1279 2310 1824 
C 2310 2128 2170 2349 2112 2425 
L 2131 2425 
C 2150 2425 2419 2444 2515 2444 
C 2720 2444 2739 2438 2918 2419 
L 2848 2816 
z
M 1338 1184 
C 1120 1184 813 1317 813 1824 
C 813 2375 1165 2463 1331 2463 
C 1549 2463 1856 2330 1856 1824 
C 1856 1272 1504 1184 1338 1184 
z
M 1581 0 
C 1734 0 2381 0 2381 -436 
C 2381 -711 1984 -928 1504 -928 
C 1018 -928 621 -717 621 -429 
C 621 -397 621 0 1062 0 
L 1581 0 
z
" transform="scale(0.015625)"/>
       <path id="CMSS17-65" d="M 2502 1375 
C 2502 1587 2490 2001 2285 2347 
C 2061 2713 1696 2816 1421 2816 
C 755 2816 192 2184 192 1363 
C 192 579 774 -64 1510 -64 
C 1798 -64 2150 19 2470 249 
C 2470 275 2458 414 2451 421 
C 2451 433 2432 629 2432 655 
C 2125 408 1773 326 1517 326 
C 1107 326 666 667 646 1375 
L 2502 1375 
z
M 698 1728 
C 781 2086 1062 2425 1421 2425 
C 1517 2425 1965 2412 2080 1728 
L 698 1728 
z
" transform="scale(0.015625)"/>
       <path id="CMSS17-74" d="M 1069 2380 
L 1901 2380 
L 1901 2752 
L 1069 2752 
L 1069 3520 
L 614 3520 
L 614 2752 
L 109 2752 
L 109 2380 
L 602 2380 
L 602 751 
C 602 384 685 -64 1107 -64 
C 1427 -64 1722 25 2003 172 
L 1901 551 
C 1747 416 1562 339 1363 339 
C 1082 339 1069 699 1069 860 
L 1069 2380 
z
" transform="scale(0.015625)"/>
      </defs>
      <use xlink:href="#CMSS17-54" transform="scale(0.996264)"/>
      <use xlink:href="#CMSS17-61" transform="translate(56.012199 0) scale(0.996264)"/>
      <use xlink:href="#CMSS17-72" transform="translate(98.331665 0) scale(0.996264)"/>
      <use xlink:href="#CMSS17-67" transform="translate(130.241438 0) scale(0.996264)"/>
      <use xlink:href="#CMSS17-65" transform="translate(177.085061 0) scale(0.996264)"/>
      <use xlink:href="#CMSS17-74" transform="translate(218.723883 0) scale(0.996264)"/>
     </g>
    </g>
    <g id="line2d_14">
     <path d="M 316.152858 115.680679 
L 324.152858 115.680679 
L 332.152858 115.680679 
" style="fill: none; stroke: #2255a0; stroke-opacity: 0.9; stroke-width: 1.8; stroke-linecap: square"/>
    </g>
    <g id="text_10">
     <!-- Approximation -->
     <g transform="translate(338.552858 118.480679) scale(0.08 -0.08)">
      <defs>
       <path id="CMSS17-41" d="M 2272 4416 
L 1722 4416 
L 166 0 
L 653 0 
L 1101 1280 
L 2816 1280 
L 3270 0 
L 3827 0 
L 2272 4416 
z
M 2694 1638 
L 1222 1638 
C 1530 2530 1914 3638 1958 3924 
L 1965 3924 
C 2010 3663 2138 3281 2246 2956 
L 2694 1638 
z
" transform="scale(0.015625)"/>
       <path id="CMSS17-70" d="M 966 275 
C 1178 70 1466 -64 1773 -64 
C 2368 -64 2880 553 2880 1382 
C 2880 2147 2496 2816 1946 2816 
C 1626 2816 1242 2700 954 2470 
L 954 2764 
L 480 2764 
L 480 -1280 
L 966 -1280 
L 966 275 
z
M 966 2088 
C 1018 2166 1235 2412 1587 2412 
C 2035 2412 2394 1946 2394 1382 
C 2394 741 1958 326 1530 326 
C 1402 326 1267 358 1139 468 
C 966 624 966 721 966 812 
L 966 2088 
z
" transform="scale(0.015625)"/>
       <path id="CMSS17-6f" d="M 2829 1356 
C 2829 2175 2221 2816 1504 2816 
C 768 2816 173 2156 173 1356 
C 173 544 787 -64 1498 -64 
C 2227 -64 2829 563 2829 1356 
z
M 1504 339 
C 1050 339 659 710 659 1407 
C 659 2150 1114 2425 1498 2425 
C 1914 2425 2342 2124 2342 1407 
C 2342 684 1926 339 1504 339 
z
" transform="scale(0.015625)"/>
       <path id="CMSS17-78" d="M 1587 1420 
L 2656 2752 
L 2099 2752 
L 1363 1785 
L 602 2752 
L 32 2752 
L 1139 1420 
L 0 0 
L 563 0 
L 1363 1126 
L 2195 0 
L 2758 0 
L 1587 1420 
z
" transform="scale(0.015625)"/>
       <path id="CMSS17-69" d="M 979 4224 
L 442 4224 
L 442 3686 
L 979 3686 
L 979 4224 
z
M 947 2752 
L 474 2752 
L 474 0 
L 947 0 
L 947 2752 
z
" transform="scale(0.015625)"/>
       <path id="CMSS17-6d" d="M 4288 1878 
C 4288 2309 4179 2816 3462 2816 
C 2982 2816 2694 2515 2566 2328 
C 2451 2668 2182 2816 1798 2816 
C 1363 2816 1088 2566 941 2386 
L 941 2783 
L 474 2783 
L 474 0 
L 960 0 
L 960 1556 
C 960 1936 1101 2425 1555 2425 
C 2138 2425 2138 2013 2138 1826 
L 2138 0 
L 2624 0 
L 2624 1556 
C 2624 1936 2765 2425 3219 2425 
C 3802 2425 3802 2013 3802 1826 
L 3802 0 
L 4288 0 
L 4288 1878 
z
" transform="scale(0.015625)"/>
       <path id="CMSS17-6e" d="M 2618 1878 
C 2618 2283 2522 2816 1798 2816 
C 1389 2816 1120 2604 941 2386 
L 941 2783 
L 474 2783 
L 474 0 
L 960 0 
L 960 1556 
C 960 1962 1114 2425 1549 2425 
C 2112 2425 2131 2045 2131 1826 
L 2131 0 
L 2618 0 
L 2618 1878 
z
" transform="scale(0.015625)"/>
      </defs>
      <use xlink:href="#CMSS17-41" transform="scale(0.996264)"/>
      <use xlink:href="#CMSS17-70" transform="translate(62.217855 0) scale(0.996264)"/>
      <use xlink:href="#CMSS17-70" transform="translate(110.422798 0) scale(0.996264)"/>
      <use xlink:href="#CMSS17-72" transform="translate(156.025287 0) scale(0.996264)"/>
      <use xlink:href="#CMSS17-6f" transform="translate(187.93506 0) scale(0.996264)"/>
      <use xlink:href="#CMSS17-78" transform="translate(232.176229 0) scale(0.996264)"/>
      <use xlink:href="#CMSS17-69" transform="translate(275.176371 0) scale(0.996264)"/>
      <use xlink:href="#CMSS17-6d" transform="translate(297.357094 0) scale(0.996264)"/>
      <use xlink:href="#CMSS17-61" transform="translate(371.586349 0) scale(0.996264)"/>
      <use xlink:href="#CMSS17-74" transform="translate(416.508269 0) scale(0.996264)"/>
      <use xlink:href="#CMSS17-69" transform="translate(450.339836 0) scale(0.996264)"/>
      <use xlink:href="#CMSS17-6f" transform="translate(472.520559 0) scale(0.996264)"/>
      <use xlink:href="#CMSS17-6e" transform="translate(519.364182 0) scale(0.996264)"/>
     </g>
    </g>
   </g>
  </g>
 </g>
 <defs>
  <clipPath id="p328a0c85dc">
   <rect x="30.404295" y="7.2" width="366.795225" height="120.030425"/>
  </clipPath>
 </defs>
</svg>
