<?xml version="1.0" encoding="utf-8" standalone="no"?>
<!DOCTYPE svg PUBLIC "-//W3C//DTD SVG 1.1//EN"
  "http://www.w3.org/Graphics/SVG/1.1/DTD/svg11.dtd">
<svg xmlns:xlink="http://www.w3.org/1999/xlink" width="395.130225pt" height="158.4pt" viewBox="0 0 395.130225 158.4" xmlns="http://www.w3.org/2000/svg" version="1.1">
 <metadata>
  <rdf:RDF xmlns:dc="http://purl.org/dc/elements/1.1/" xmlns:cc="http://creativecommons.org/ns#" xmlns:rdf="http://www.w3.org/1999/02/22-rdf-syntax-ns#">
   <cc:Work>
    <dc:type rdf:resource="http://purl.org/dc/dcmitype/StillImage"/>
    <dc:date>2025-10-13T03:38:21.172476</dc:date>
    <dc:format>image/svg+xml</dc:format>
    <dc:creator>
     <cc:Agent>
      <dc:title>Matplotlib v3.8.4, https://matplotlib.org/</dc:title>
     </cc:Agent>
    </dc:creator>
   </cc:Work>
  </rdf:RDF>
 </metadata>
 <defs>
  <style type="text/css">*{stroke-linejoin: round; stroke-linecap: butt}</style>
 </defs>
 <g id="figure_1">
  <g id="patch_1">
   <path d="M 0 158.4 
L 395.130225 158.4 
L 395.130225 -0 
L 0 -0 
z
" style="fill: #ffffff"/>
  </g>
  <g id="axes_1">
   <g id="line2d_1">
    <path d="M 17.1508 159.4 
L 20.453714 151.261507 
L 23.767143 143.619649 
L 27.080571 136.487041 
L 30.394 129.849755 
L 33.707429 123.693862 
L 37.020857 118.005434 
L 40.334286 112.770543 
L 43.647714 107.975262 
L 46.961143 103.605661 
L 50.274571 99.647812 
L 53.588 96.087787 
L 56.901429 92.911659 
L 60.214857 90.105498 
L 63.528286 87.655377 
L 66.841714 85.547368 
L 70.155143 83.767541 
L 73.468571 82.30197 
L 76.782 81.136725 
L 80.095429 80.25788 
L 83.408857 79.651504 
L 86.722286 79.303671 
L 90.035714 79.200452 
L 93.349143 79.327918 
L 96.662571 79.672143 
L 99.976 80.219196 
L 103.289429 80.955151 
L 107.431214 82.119518 
L 111.573 83.530077 
L 115.714786 85.159625 
L 120.684929 87.365843 
L 126.483429 90.2261 
L 133.110286 93.781147 
L 142.222214 98.970669 
L 157.961 107.970569 
L 164.587857 111.475996 
L 170.386357 114.275698 
L 175.3565 116.417281 
L 179.498286 117.983989 
L 183.640071 119.323546 
L 187.781857 120.408751 
L 191.095286 121.075501 
L 194.408714 121.548125 
L 197.722143 121.812698 
L 201.035571 121.855289 
L 204.349 121.661972 
L 207.662429 121.218818 
L 210.975857 120.511898 
L 214.289286 119.527285 
L 217.602714 118.25105 
L 220.916143 116.669265 
L 224.229571 114.768002 
L 227.543 112.533333 
L 230.856429 109.95133 
L 234.169857 107.008063 
L 237.483286 103.689606 
L 240.796714 99.98203 
L 244.110143 95.871406 
L 247.423571 91.343807 
L 250.737 86.385304 
L 254.050429 80.981969 
L 257.363857 75.119874 
L 260.677286 68.785091 
L 263.990714 61.963691 
L 267.304143 54.641747 
L 270.617571 46.80533 
L 273.931 38.440511 
L 277.244429 29.533364 
L 280.557857 20.069958 
L 283.871286 10.036367 
L 287.310947 -1 
L 287.310947 -1 
" clip-path="url(#p22892d66ab)" style="fill: none; stroke: #cecece; stroke-width: 6; stroke-linecap: square"/>
   </g>
   <g id="line2d_2">
    <path d="M 17.587347 159.4 
L 94.890689 -1 
L 94.890689 -1 
" clip-path="url(#p22892d66ab)" style="fill: none; stroke: #f7fbff; stroke-width: 2.5; stroke-linecap: square"/>
   </g>
   <g id="line2d_3">
    <path d="M 17.587347 159.4 
L 48.617857 95.181735 
L 262.401483 -1 
L 262.401483 -1 
" clip-path="url(#p22892d66ab)" style="fill: none; stroke: #deebf7; stroke-width: 2.5; stroke-linecap: square"/>
   </g>
   <g id="line2d_4">
    <path d="M 17.587347 159.4 
L 48.617857 95.181735 
L 89.207357 76.920431 
L 90.035714 76.714943 
L 321.357526 159.4 
L 321.357526 159.4 
" clip-path="url(#p22892d66ab)" style="fill: none; stroke: #c6dbef; stroke-width: 2.5; stroke-linecap: square"/>
   </g>
   <g id="line2d_5">
    <path d="M 17.587347 159.4 
L 48.617857 95.181735 
L 89.207357 76.920431 
L 90.035714 76.714943 
L 131.453571 91.596117 
L 243.74661 159.4 
L 243.74661 159.4 
" clip-path="url(#p22892d66ab)" style="fill: none; stroke: #9dcae1; stroke-width: 2.5; stroke-linecap: square"/>
   </g>
   <g id="line2d_6">
    <path d="M 17.587347 159.4 
L 48.617857 95.181735 
L 89.207357 76.920431 
L 90.035714 76.714943 
L 131.453571 91.596117 
L 172.043071 116.104551 
L 172.871429 116.418966 
L 337.7145 142.030034 
L 337.7145 142.030034 
" clip-path="url(#p22892d66ab)" style="fill: none; stroke: #6aaed6; stroke-width: 2.5; stroke-linecap: square"/>
   </g>
   <g id="line2d_7">
    <path d="M 17.587347 159.4 
L 48.617857 95.181735 
L 89.207357 76.920431 
L 90.035714 76.714943 
L 131.453571 91.596117 
L 172.043071 116.104551 
L 172.871429 116.418966 
L 213.460929 122.725201 
L 214.289286 122.301033 
L 337.7145 9.67355 
L 337.7145 9.67355 
" clip-path="url(#p22892d66ab)" style="fill: none; stroke: #4191c6; stroke-width: 2.5; stroke-linecap: square"/>
   </g>
   <g id="line2d_8">
    <path d="M 17.587347 159.4 
L 48.617857 95.181735 
L 89.207357 76.920431 
L 90.035714 76.714943 
L 131.453571 91.596117 
L 172.043071 116.104551 
L 172.871429 116.418966 
L 213.460929 122.725201 
L 214.289286 122.301033 
L 254.878786 85.262458 
L 255.707143 83.404816 
L 287.132082 -1 
L 287.132082 -1 
" clip-path="url(#p22892d66ab)" style="fill: none; stroke: #2070b4; stroke-width: 2.5; stroke-linecap: square"/>
   </g>
   <g id="line2d_9">
    <path d="M 17.587347 159.4 
L 48.617857 95.181735 
L 89.207357 76.920431 
L 90.035714 76.714943 
L 131.453571 91.596117 
L 172.043071 116.104551 
L 172.871429 116.418966 
L 213.460929 122.725201 
L 214.289286 122.301033 
L 254.878786 85.262458 
L 255.707143 83.404816 
L 287.132082 -1 
L 287.132082 -1 
" clip-path="url(#p22892d66ab)" style="fill: none; stroke: #08509b; stroke-width: 2.5; stroke-linecap: square"/>
   </g>
   <g id="legend_1">
    <g id="line2d_10">
     <path d="M 14.4 17.67875 
L 22.4 17.67875 
L 30.4 17.67875 
" style="fill: none; stroke: #cecece; stroke-width: 6; stroke-linecap: square"/>
    </g>
    <g id="text_1">
     <!-- $f(x)$ -->
     <g transform="translate(36.8 20.47875) scale(0.08 -0.08)">
      <defs>
       <path id="DejaVuSans-Oblique-66" d="M 3059 4863 
L 2969 4384 
L 2419 4384 
Q 2106 4384 1964 4261 
Q 1822 4138 1753 3809 
L 1691 3500 
L 2638 3500 
L 2553 3053 
L 1606 3053 
L 1013 0 
L 434 0 
L 1031 3053 
L 481 3053 
L 563 3500 
L 1113 3500 
L 1159 3744 
Q 1278 4363 1576 4613 
Q 1875 4863 2516 4863 
L 3059 4863 
z
" transform="scale(0.015625)"/>
       <path id="DejaVuSans-28" d="M 1984 4856 
Q 1566 4138 1362 3434 
Q 1159 2731 1159 2009 
Q 1159 1288 1364 580 
Q 1569 -128 1984 -844 
L 1484 -844 
Q 1016 -109 783 600 
Q 550 1309 550 2009 
Q 550 2706 781 3412 
Q 1013 4119 1484 4856 
L 1984 4856 
z
" transform="scale(0.015625)"/>
       <path id="DejaVuSans-Oblique-78" d="M 3841 3500 
L 2234 1784 
L 3219 0 
L 2559 0 
L 1819 1388 
L 531 0 
L -166 0 
L 1556 1844 
L 641 3500 
L 1300 3500 
L 1972 2234 
L 3144 3500 
L 3841 3500 
z
" transform="scale(0.015625)"/>
       <path id="DejaVuSans-29" d="M 513 4856 
L 1013 4856 
Q 1481 4119 1714 3412 
Q 1947 2706 1947 2009 
Q 1947 1309 1714 600 
Q 1481 -109 1013 -844 
L 513 -844 
Q 928 -128 1133 580 
Q 1338 1288 1338 2009 
Q 1338 2731 1133 3434 
Q 928 4138 513 4856 
z
" transform="scale(0.015625)"/>
      </defs>
      <use xlink:href="#DejaVuSans-Oblique-66" transform="translate(0 0.015625)"/>
      <use xlink:href="#DejaVuSans-28" transform="translate(35.205078 0.015625)"/>
      <use xlink:href="#DejaVuSans-Oblique-78" transform="translate(74.21875 0.015625)"/>
      <use xlink:href="#DejaVuSans-29" transform="translate(133.398438 0.015625)"/>
     </g>
    </g>
   </g>
  </g>
  <g id="axes_2">
   <g id="patch_2">
    <path d="M 354.240225 151.2 
L 361.440225 151.2 
L 361.440225 7.2 
L 354.240225 7.2 
z
" style="fill: #ffffff"/>
   </g>
   <g id="QuadMesh_1">
    <path d="M 354.240225 151.2 
L 361.440225 151.2 
L 361.440225 133.2 
L 354.240225 133.2 
L 354.240225 151.2 
" clip-path="url(#p72db98a1e7)" style="fill: #e3eef9"/>
    <path d="M 354.240225 133.2 
L 361.440225 133.2 
L 361.440225 115.2 
L 354.240225 115.2 
L 354.240225 133.2 
" clip-path="url(#p72db98a1e7)" style="fill: #c7dcef"/>
    <path d="M 354.240225 115.2 
L 361.440225 115.2 
L 361.440225 97.2 
L 354.240225 97.2 
L 354.240225 115.2 
" clip-path="url(#p72db98a1e7)" style="fill: #9ac8e0"/>
    <path d="M 354.240225 97.2 
L 361.440225 97.2 
L 361.440225 79.2 
L 354.240225 79.2 
L 354.240225 97.2 
" clip-path="url(#p72db98a1e7)" style="fill: #61a7d2"/>
    <path d="M 354.240225 79.2 
L 361.440225 79.2 
L 361.440225 61.2 
L 354.240225 61.2 
L 354.240225 79.2 
" clip-path="url(#p72db98a1e7)" style="fill: #3686c0"/>
    <path d="M 354.240225 61.2 
L 361.440225 61.2 
L 361.440225 43.2 
L 354.240225 43.2 
L 354.240225 61.2 
" clip-path="url(#p72db98a1e7)" style="fill: #1460a8"/>
    <path d="M 354.240225 43.2 
L 361.440225 43.2 
L 361.440225 25.2 
L 354.240225 25.2 
L 354.240225 43.2 
" clip-path="url(#p72db98a1e7)" style="fill: #083a7a"/>
    <path d="M 354.240225 25.2 
L 361.440225 25.2 
L 361.440225 7.2 
L 354.240225 7.2 
L 354.240225 25.2 
" clip-path="url(#p72db98a1e7)" style="fill: #08306b"/>
   </g>
   <g id="matplotlib.axis_1"/>
   <g id="matplotlib.axis_2">
    <g id="ytick_1">
     <g id="line2d_11">
      <defs>
       <path id="m5b835efbbf" d="M 0 0 
L 3.5 0 
" style="stroke: #000000; stroke-width: 0.8"/>
      </defs>
      <g>
       <use xlink:href="#m5b835efbbf" x="361.440225" y="142.2" style="stroke: #000000; stroke-width: 0.8"/>
      </g>
     </g>
     <g id="text_2">
      <!-- 1 -->
      <g transform="translate(368.440225 145.239375) scale(0.08 -0.08)">
       <defs>
        <path id="DejaVuSans-31" d="M 794 531 
L 1825 531 
L 1825 4091 
L 703 3866 
L 703 4441 
L 1819 4666 
L 2450 4666 
L 2450 531 
L 3481 531 
L 3481 0 
L 794 0 
L 794 531 
z
" transform="scale(0.015625)"/>
       </defs>
       <use xlink:href="#DejaVuSans-31"/>
      </g>
     </g>
    </g>
    <g id="ytick_2">
     <g id="line2d_12">
      <g>
       <use xlink:href="#m5b835efbbf" x="361.440225" y="124.2" style="stroke: #000000; stroke-width: 0.8"/>
      </g>
     </g>
     <g id="text_3">
      <!-- 2 -->
      <g transform="translate(368.440225 127.239375) scale(0.08 -0.08)">
       <defs>
        <path id="DejaVuSans-32" d="M 1228 531 
L 3431 531 
L 3431 0 
L 469 0 
L 469 531 
Q 828 903 1448 1529 
Q 2069 2156 2228 2338 
Q 2531 2678 2651 2914 
Q 2772 3150 2772 3378 
Q 2772 3750 2511 3984 
Q 2250 4219 1831 4219 
Q 1534 4219 1204 4116 
Q 875 4013 500 3803 
L 500 4441 
Q 881 4594 1212 4672 
Q 1544 4750 1819 4750 
Q 2544 4750 2975 4387 
Q 3406 4025 3406 3419 
Q 3406 3131 3298 2873 
Q 3191 2616 2906 2266 
Q 2828 2175 2409 1742 
Q 1991 1309 1228 531 
z
" transform="scale(0.015625)"/>
       </defs>
       <use xlink:href="#DejaVuSans-32"/>
      </g>
     </g>
    </g>
    <g id="ytick_3">
     <g id="line2d_13">
      <g>
       <use xlink:href="#m5b835efbbf" x="361.440225" y="106.2" style="stroke: #000000; stroke-width: 0.8"/>
      </g>
     </g>
     <g id="text_4">
      <!-- 3 -->
      <g transform="translate(368.440225 109.239375) scale(0.08 -0.08)">
       <defs>
        <path id="DejaVuSans-33" d="M 2597 2516 
Q 3050 2419 3304 2112 
Q 3559 1806 3559 1356 
Q 3559 666 3084 287 
Q 2609 -91 1734 -91 
Q 1441 -91 1130 -33 
Q 819 25 488 141 
L 488 750 
Q 750 597 1062 519 
Q 1375 441 1716 441 
Q 2309 441 2620 675 
Q 2931 909 2931 1356 
Q 2931 1769 2642 2001 
Q 2353 2234 1838 2234 
L 1294 2234 
L 1294 2753 
L 1863 2753 
Q 2328 2753 2575 2939 
Q 2822 3125 2822 3475 
Q 2822 3834 2567 4026 
Q 2313 4219 1838 4219 
Q 1578 4219 1281 4162 
Q 984 4106 628 3988 
L 628 4550 
Q 988 4650 1302 4700 
Q 1616 4750 1894 4750 
Q 2613 4750 3031 4423 
Q 3450 4097 3450 3541 
Q 3450 3153 3228 2886 
Q 3006 2619 2597 2516 
z
" transform="scale(0.015625)"/>
       </defs>
       <use xlink:href="#DejaVuSans-33"/>
      </g>
     </g>
    </g>
    <g id="ytick_4">
     <g id="line2d_14">
      <g>
       <use xlink:href="#m5b835efbbf" x="361.440225" y="88.2" style="stroke: #000000; stroke-width: 0.8"/>
      </g>
     </g>
     <g id="text_5">
      <!-- 4 -->
      <g transform="translate(368.440225 91.239375) scale(0.08 -0.08)">
       <defs>
        <path id="DejaVuSans-34" d="M 2419 4116 
L 825 1625 
L 2419 1625 
L 2419 4116 
z
M 2253 4666 
L 3047 4666 
L 3047 1625 
L 3713 1625 
L 3713 1100 
L 3047 1100 
L 3047 0 
L 2419 0 
L 2419 1100 
L 313 1100 
L 313 1709 
L 2253 4666 
z
" transform="scale(0.015625)"/>
       </defs>
       <use xlink:href="#DejaVuSans-34"/>
      </g>
     </g>
    </g>
    <g id="ytick_5">
     <g id="line2d_15">
      <g>
       <use xlink:href="#m5b835efbbf" x="361.440225" y="70.2" style="stroke: #000000; stroke-width: 0.8"/>
      </g>
     </g>
     <g id="text_6">
      <!-- 5 -->
      <g transform="translate(368.440225 73.239375) scale(0.08 -0.08)">
       <defs>
        <path id="DejaVuSans-35" d="M 691 4666 
L 3169 4666 
L 3169 4134 
L 1269 4134 
L 1269 2991 
Q 1406 3038 1543 3061 
Q 1681 3084 1819 3084 
Q 2600 3084 3056 2656 
Q 3513 2228 3513 1497 
Q 3513 744 3044 326 
Q 2575 -91 1722 -91 
Q 1428 -91 1123 -41 
Q 819 9 494 109 
L 494 744 
Q 775 591 1075 516 
Q 1375 441 1709 441 
Q 2250 441 2565 725 
Q 2881 1009 2881 1497 
Q 2881 1984 2565 2268 
Q 2250 2553 1709 2553 
Q 1456 2553 1204 2497 
Q 953 2441 691 2322 
L 691 4666 
z
" transform="scale(0.015625)"/>
       </defs>
       <use xlink:href="#DejaVuSans-35"/>
      </g>
     </g>
    </g>
    <g id="ytick_6">
     <g id="line2d_16">
      <g>
       <use xlink:href="#m5b835efbbf" x="361.440225" y="52.2" style="stroke: #000000; stroke-width: 0.8"/>
      </g>
     </g>
     <g id="text_7">
      <!-- 6 -->
      <g transform="translate(368.440225 55.239375) scale(0.08 -0.08)">
       <defs>
        <path id="DejaVuSans-36" d="M 2113 2584 
Q 1688 2584 1439 2293 
Q 1191 2003 1191 1497 
Q 1191 994 1439 701 
Q 1688 409 2113 409 
Q 2538 409 2786 701 
Q 3034 994 3034 1497 
Q 3034 2003 2786 2293 
Q 2538 2584 2113 2584 
z
M 3366 4563 
L 3366 3988 
Q 3128 4100 2886 4159 
Q 2644 4219 2406 4219 
Q 1781 4219 1451 3797 
Q 1122 3375 1075 2522 
Q 1259 2794 1537 2939 
Q 1816 3084 2150 3084 
Q 2853 3084 3261 2657 
Q 3669 2231 3669 1497 
Q 3669 778 3244 343 
Q 2819 -91 2113 -91 
Q 1303 -91 875 529 
Q 447 1150 447 2328 
Q 447 3434 972 4092 
Q 1497 4750 2381 4750 
Q 2619 4750 2861 4703 
Q 3103 4656 3366 4563 
z
" transform="scale(0.015625)"/>
       </defs>
       <use xlink:href="#DejaVuSans-36"/>
      </g>
     </g>
    </g>
    <g id="ytick_7">
     <g id="line2d_17">
      <g>
       <use xlink:href="#m5b835efbbf" x="361.440225" y="34.2" style="stroke: #000000; stroke-width: 0.8"/>
      </g>
     </g>
     <g id="text_8">
      <!-- 7 -->
      <g transform="translate(368.440225 37.239375) scale(0.08 -0.08)">
       <defs>
        <path id="DejaVuSans-37" d="M 525 4666 
L 3525 4666 
L 3525 4397 
L 1831 0 
L 1172 0 
L 2766 4134 
L 525 4134 
L 525 4666 
z
" transform="scale(0.015625)"/>
       </defs>
       <use xlink:href="#DejaVuSans-37"/>
      </g>
     </g>
    </g>
    <g id="ytick_8">
     <g id="line2d_18">
      <g>
       <use xlink:href="#m5b835efbbf" x="361.440225" y="16.2" style="stroke: #000000; stroke-width: 0.8"/>
      </g>
     </g>
     <g id="text_9">
      <!-- 8 -->
      <g transform="translate(368.440225 19.239375) scale(0.08 -0.08)">
       <defs>
        <path id="DejaVuSans-38" d="M 2034 2216 
Q 1584 2216 1326 1975 
Q 1069 1734 1069 1313 
Q 1069 891 1326 650 
Q 1584 409 2034 409 
Q 2484 409 2743 651 
Q 3003 894 3003 1313 
Q 3003 1734 2745 1975 
Q 2488 2216 2034 2216 
z
M 1403 2484 
Q 997 2584 770 2862 
Q 544 3141 544 3541 
Q 544 4100 942 4425 
Q 1341 4750 2034 4750 
Q 2731 4750 3128 4425 
Q 3525 4100 3525 3541 
Q 3525 3141 3298 2862 
Q 3072 2584 2669 2484 
Q 3125 2378 3379 2068 
Q 3634 1759 3634 1313 
Q 3634 634 3220 271 
Q 2806 -91 2034 -91 
Q 1263 -91 848 271 
Q 434 634 434 1313 
Q 434 1759 690 2068 
Q 947 2378 1403 2484 
z
M 1172 3481 
Q 1172 3119 1398 2916 
Q 1625 2713 2034 2713 
Q 2441 2713 2670 2916 
Q 2900 3119 2900 3481 
Q 2900 3844 2670 4047 
Q 2441 4250 2034 4250 
Q 1625 4250 1398 4047 
Q 1172 3844 1172 3481 
z
" transform="scale(0.015625)"/>
       </defs>
       <use xlink:href="#DejaVuSans-38"/>
      </g>
     </g>
    </g>
    <g id="ytick_9">
     <g id="line2d_19">
      <defs>
       <path id="m4783e9a6b8" d="M 0 0 
L 2 0 
" style="stroke: #000000; stroke-width: 0.6"/>
      </defs>
      <g>
       <use xlink:href="#m4783e9a6b8" x="361.440225" y="151.2" style="stroke: #000000; stroke-width: 0.6"/>
      </g>
     </g>
    </g>
    <g id="ytick_10">
     <g id="line2d_20">
      <g>
       <use xlink:href="#m4783e9a6b8" x="361.440225" y="133.2" style="stroke: #000000; stroke-width: 0.6"/>
      </g>
     </g>
    </g>
    <g id="ytick_11">
     <g id="line2d_21">
      <g>
       <use xlink:href="#m4783e9a6b8" x="361.440225" y="115.2" style="stroke: #000000; stroke-width: 0.6"/>
      </g>
     </g>
    </g>
    <g id="ytick_12">
     <g id="line2d_22">
      <g>
       <use xlink:href="#m4783e9a6b8" x="361.440225" y="97.2" style="stroke: #000000; stroke-width: 0.6"/>
      </g>
     </g>
    </g>
    <g id="ytick_13">
     <g id="line2d_23">
      <g>
       <use xlink:href="#m4783e9a6b8" x="361.440225" y="79.2" style="stroke: #000000; stroke-width: 0.6"/>
      </g>
     </g>
    </g>
    <g id="ytick_14">
     <g id="line2d_24">
      <g>
       <use xlink:href="#m4783e9a6b8" x="361.440225" y="61.2" style="stroke: #000000; stroke-width: 0.6"/>
      </g>
     </g>
    </g>
    <g id="ytick_15">
     <g id="line2d_25">
      <g>
       <use xlink:href="#m4783e9a6b8" x="361.440225" y="43.2" style="stroke: #000000; stroke-width: 0.6"/>
      </g>
     </g>
    </g>
    <g id="ytick_16">
     <g id="line2d_26">
      <g>
       <use xlink:href="#m4783e9a6b8" x="361.440225" y="25.2" style="stroke: #000000; stroke-width: 0.6"/>
      </g>
     </g>
    </g>
    <g id="ytick_17">
     <g id="line2d_27">
      <g>
       <use xlink:href="#m4783e9a6b8" x="361.440225" y="7.2" style="stroke: #000000; stroke-width: 0.6"/>
      </g>
     </g>
    </g>
    <g id="text_10">
     <!-- $\hat{f}_{n}(x)$ -->
     <g transform="translate(386.266475 88.04) rotate(-90) scale(0.08 -0.08)">
      <defs>
       <path id="DejaVuSans-302" d="M -1831 5119 
L -1369 5119 
L -603 3944 
L -1038 3944 
L -1600 4709 
L -2163 3944 
L -2597 3944 
L -1831 5119 
z
M -1600 3584 
L -1600 3584 
z
" transform="scale(0.015625)"/>
       <path id="DejaVuSans-Oblique-6e" d="M 3566 2113 
L 3156 0 
L 2578 0 
L 2988 2091 
Q 3016 2238 3031 2350 
Q 3047 2463 3047 2528 
Q 3047 2791 2881 2937 
Q 2716 3084 2419 3084 
Q 1956 3084 1622 2776 
Q 1288 2469 1184 1941 
L 800 0 
L 225 0 
L 903 3500 
L 1478 3500 
L 1363 2950 
Q 1603 3253 1940 3418 
Q 2278 3584 2650 3584 
Q 3113 3584 3367 3334 
Q 3622 3084 3622 2631 
Q 3622 2519 3608 2391 
Q 3594 2263 3566 2113 
z
" transform="scale(0.015625)"/>
      </defs>
      <use xlink:href="#DejaVuSans-302" transform="translate(47.379395 33.015625)"/>
      <use xlink:href="#DejaVuSans-Oblique-66" transform="translate(0 0.53125)"/>
      <use xlink:href="#DejaVuSans-Oblique-6e" transform="translate(36.162109 -15.875) scale(0.7)"/>
      <use xlink:href="#DejaVuSans-28" transform="translate(83.261719 0.53125)"/>
      <use xlink:href="#DejaVuSans-Oblique-78" transform="translate(122.275391 0.53125)"/>
      <use xlink:href="#DejaVuSans-29" transform="translate(181.455078 0.53125)"/>
     </g>
    </g>
   </g>
   <g id="LineCollection_1"/>
   <g id="patch_3">
    <path d="M 354.240225 151.2 
L 357.840225 151.2 
L 361.440225 151.2 
L 361.440225 7.2 
L 357.840225 7.2 
L 354.240225 7.2 
L 354.240225 151.2 
z
" style="fill: none; stroke: #000000; stroke-width: 0.8; stroke-linejoin: miter; stroke-linecap: square"/>
   </g>
  </g>
 </g>
 <defs>
  <clipPath id="p22892d66ab">
   <rect x="7.2" y="7.2" width="330.5145" height="144"/>
  </clipPath>
  <clipPath id="p72db98a1e7">
   <rect x="354.240225" y="7.2" width="7.2" height="144"/>
  </clipPath>
 </defs>
</svg>
