<?xml version="1.0" encoding="utf-8" standalone="no"?>
<!DOCTYPE svg PUBLIC "-//W3C//DTD SVG 1.1//EN"
  "http://www.w3.org/Graphics/SVG/1.1/DTD/svg11.dtd">
<svg xmlns:xlink="http://www.w3.org/1999/xlink" width="404.39952pt" height="159.59952pt" viewBox="0 0 404.39952 159.59952" xmlns="http://www.w3.org/2000/svg" version="1.1">
 <metadata>
  <rdf:RDF xmlns:dc="http://purl.org/dc/elements/1.1/" xmlns:cc="http://creativecommons.org/ns#" xmlns:rdf="http://www.w3.org/1999/02/22-rdf-syntax-ns#">
   <cc:Work>
    <dc:type rdf:resource="http://purl.org/dc/dcmitype/StillImage"/>
    <dc:date>2025-10-12T17:52:07.979646</dc:date>
    <dc:format>image/svg+xml</dc:format>
    <dc:creator>
     <cc:Agent>
      <dc:title>Matplotlib v3.8.4, https://matplotlib.org/</dc:title>
     </cc:Agent>
    </dc:creator>
   </cc:Work>
  </rdf:RDF>
 </metadata>
 <defs>
  <style type="text/css">*{stroke-linejoin: round; stroke-linecap: butt}</style>
 </defs>
 <g id="figure_1">
  <g id="patch_1">
   <path d="M 0 159.59952 
L 404.39952 159.59952 
L 404.39952 -0 
L 0 -0 
z
" style="fill: #ffffff"/>
  </g>
  <g id="axes_1">
   <g id="patch_2">
    <path d="M 31.0325 125.91452 
L 397.19952 125.91452 
L 397.19952 7.2 
L 31.0325 7.2 
z
" style="fill: #ffffff"/>
   </g>
   <g id="matplotlib.axis_1">
    <g id="xtick_1">
     <g id="line2d_1">
      <defs>
       <path id="md46f4d1d33" d="M 0 0 
L 0 3.5 
" style="stroke: #000000; stroke-width: 0.8"/>
      </defs>
      <g>
       <use xlink:href="#md46f4d1d33" x="47.676455" y="125.91452" style="stroke: #000000; stroke-width: 0.8"/>
      </g>
     </g>
     <g id="text_1">
      <!-- -1 -->
      <g transform="translate(43.68833 138.99327) scale(0.08 -0.08)">
       <defs>
        <path id="DejaVuSans-2d" d="M 313 2009 
L 1997 2009 
L 1997 1497 
L 313 1497 
L 313 2009 
z
" transform="scale(0.015625)"/>
        <path id="DejaVuSans-31" d="M 794 531 
L 1825 531 
L 1825 4091 
L 703 3866 
L 703 4441 
L 1819 4666 
L 2450 4666 
L 2450 531 
L 3481 531 
L 3481 0 
L 794 0 
L 794 531 
z
" transform="scale(0.015625)"/>
       </defs>
       <use xlink:href="#DejaVuSans-2d"/>
       <use xlink:href="#DejaVuSans-31" x="36.083984"/>
      </g>
     </g>
    </g>
    <g id="xtick_2">
     <g id="line2d_2">
      <g>
       <use xlink:href="#md46f4d1d33" x="214.11601" y="125.91452" style="stroke: #000000; stroke-width: 0.8"/>
      </g>
     </g>
     <g id="text_2">
      <!-- 0 -->
      <g transform="translate(211.57101 138.99327) scale(0.08 -0.08)">
       <defs>
        <path id="DejaVuSans-30" d="M 2034 4250 
Q 1547 4250 1301 3770 
Q 1056 3291 1056 2328 
Q 1056 1369 1301 889 
Q 1547 409 2034 409 
Q 2525 409 2770 889 
Q 3016 1369 3016 2328 
Q 3016 3291 2770 3770 
Q 2525 4250 2034 4250 
z
M 2034 4750 
Q 2819 4750 3233 4129 
Q 3647 3509 3647 2328 
Q 3647 1150 3233 529 
Q 2819 -91 2034 -91 
Q 1250 -91 836 529 
Q 422 1150 422 2328 
Q 422 3509 836 4129 
Q 1250 4750 2034 4750 
z
" transform="scale(0.015625)"/>
       </defs>
       <use xlink:href="#DejaVuSans-30"/>
      </g>
     </g>
    </g>
    <g id="xtick_3">
     <g id="line2d_3">
      <g>
       <use xlink:href="#md46f4d1d33" x="380.555565" y="125.91452" style="stroke: #000000; stroke-width: 0.8"/>
      </g>
     </g>
     <g id="text_3">
      <!-- 1 -->
      <g transform="translate(378.010565 138.99327) scale(0.08 -0.08)">
       <use xlink:href="#DejaVuSans-31"/>
      </g>
     </g>
    </g>
    <g id="text_4">
     <!-- $x$ -->
     <g transform="translate(211.71601 150.73577) scale(0.08 -0.08)">
      <defs>
       <path id="DejaVuSans-Oblique-78" d="M 3841 3500 
L 2234 1784 
L 3219 0 
L 2559 0 
L 1819 1388 
L 531 0 
L -166 0 
L 1556 1844 
L 641 3500 
L 1300 3500 
L 1972 2234 
L 3144 3500 
L 3841 3500 
z
" transform="scale(0.015625)"/>
      </defs>
      <use xlink:href="#DejaVuSans-Oblique-78" transform="translate(0 0.3125)"/>
     </g>
    </g>
   </g>
   <g id="matplotlib.axis_2">
    <g id="ytick_1">
     <g id="line2d_4">
      <defs>
       <path id="m8deeb3e75b" d="M 0 0 
L -3.5 0 
" style="stroke: #000000; stroke-width: 0.8"/>
      </defs>
      <g>
       <use xlink:href="#m8deeb3e75b" x="31.0325" y="109.184248" style="stroke: #000000; stroke-width: 0.8"/>
      </g>
     </g>
     <g id="text_5">
      <!-- 0 -->
      <g transform="translate(18.9425 112.223623) scale(0.08 -0.08)">
       <use xlink:href="#DejaVuSans-30"/>
      </g>
     </g>
    </g>
    <g id="ytick_2">
     <g id="line2d_5">
      <g>
       <use xlink:href="#m8deeb3e75b" x="31.0325" y="69.245057" style="stroke: #000000; stroke-width: 0.8"/>
      </g>
     </g>
     <g id="text_6">
      <!-- 1 -->
      <g transform="translate(18.9425 72.284432) scale(0.08 -0.08)">
       <use xlink:href="#DejaVuSans-31"/>
      </g>
     </g>
    </g>
    <g id="ytick_3">
     <g id="line2d_6">
      <g>
       <use xlink:href="#m8deeb3e75b" x="31.0325" y="29.305865" style="stroke: #000000; stroke-width: 0.8"/>
      </g>
     </g>
     <g id="text_7">
      <!-- 2 -->
      <g transform="translate(18.9425 32.34524) scale(0.08 -0.08)">
       <defs>
        <path id="DejaVuSans-32" d="M 1228 531 
L 3431 531 
L 3431 0 
L 469 0 
L 469 531 
Q 828 903 1448 1529 
Q 2069 2156 2228 2338 
Q 2531 2678 2651 2914 
Q 2772 3150 2772 3378 
Q 2772 3750 2511 3984 
Q 2250 4219 1831 4219 
Q 1534 4219 1204 4116 
Q 875 4013 500 3803 
L 500 4441 
Q 881 4594 1212 4672 
Q 1544 4750 1819 4750 
Q 2544 4750 2975 4387 
Q 3406 4025 3406 3419 
Q 3406 3131 3298 2873 
Q 3191 2616 2906 2266 
Q 2828 2175 2409 1742 
Q 1991 1309 1228 531 
z
" transform="scale(0.015625)"/>
       </defs>
       <use xlink:href="#DejaVuSans-32"/>
      </g>
     </g>
    </g>
    <g id="text_8">
     <!-- $f(x)$ -->
     <g transform="translate(13.27875 73.47726) rotate(-90) scale(0.08 -0.08)">
      <defs>
       <path id="DejaVuSans-Oblique-66" d="M 3059 4863 
L 2969 4384 
L 2419 4384 
Q 2106 4384 1964 4261 
Q 1822 4138 1753 3809 
L 1691 3500 
L 2638 3500 
L 2553 3053 
L 1606 3053 
L 1013 0 
L 434 0 
L 1031 3053 
L 481 3053 
L 563 3500 
L 1113 3500 
L 1159 3744 
Q 1278 4363 1576 4613 
Q 1875 4863 2516 4863 
L 3059 4863 
z
" transform="scale(0.015625)"/>
       <path id="DejaVuSans-28" d="M 1984 4856 
Q 1566 4138 1362 3434 
Q 1159 2731 1159 2009 
Q 1159 1288 1364 580 
Q 1569 -128 1984 -844 
L 1484 -844 
Q 1016 -109 783 600 
Q 550 1309 550 2009 
Q 550 2706 781 3412 
Q 1013 4119 1484 4856 
L 1984 4856 
z
" transform="scale(0.015625)"/>
       <path id="DejaVuSans-29" d="M 513 4856 
L 1013 4856 
Q 1481 4119 1714 3412 
Q 1947 2706 1947 2009 
Q 1947 1309 1714 600 
Q 1481 -109 1013 -844 
L 513 -844 
Q 928 -128 1133 580 
Q 1338 1288 1338 2009 
Q 1338 2731 1133 3434 
Q 928 4138 513 4856 
z
" transform="scale(0.015625)"/>
      </defs>
      <use xlink:href="#DejaVuSans-Oblique-66" transform="translate(0 0.015625)"/>
      <use xlink:href="#DejaVuSans-28" transform="translate(35.205078 0.015625)"/>
      <use xlink:href="#DejaVuSans-Oblique-78" transform="translate(74.21875 0.015625)"/>
      <use xlink:href="#DejaVuSans-29" transform="translate(133.398438 0.015625)"/>
     </g>
    </g>
   </g>
   <g id="line2d_7">
    <path d="M 31.0325 67.710936 
L 34.731157 64.447569 
L 38.429814 61.561579 
L 42.12847 59.084641 
L 45.827127 57.043297 
L 49.525784 55.458626 
L 53.224441 54.345985 
L 56.923097 53.714813 
L 60.621754 53.568517 
L 64.320411 53.904422 
L 68.019068 54.71381 
L 71.717724 55.982018 
L 75.416381 57.688619 
L 79.115038 59.807674 
L 82.813695 62.308044 
L 86.512352 65.153777 
L 90.211008 68.304547 
L 93.909665 71.716147 
L 97.608322 75.341034 
L 101.306979 79.128912 
L 105.005635 83.027348 
L 108.704292 86.982418 
L 112.402949 90.939367 
L 116.101606 94.843284 
L 119.800262 98.639775 
L 123.498919 102.275628 
L 127.197576 105.69947 
L 130.896233 108.862398 
L 134.594889 111.718573 
L 138.293546 114.225789 
L 141.992203 116.345985 
L 145.69086 118.045713 
L 149.389517 119.296546 
L 153.088173 120.075428 
L 156.78683 120.364948 
L 160.485487 120.15356 
L 164.184144 119.435711 
L 167.8828 118.211915 
L 171.581457 116.488737 
L 175.280114 114.278708 
L 178.978771 111.600171 
L 182.677427 108.477041 
L 186.376084 104.938518 
L 190.074741 101.01871 
L 193.773398 96.756216 
L 197.472055 92.193642 
L 201.170711 87.377071 
L 204.869368 82.355489 
L 208.568025 77.180177 
L 212.266682 71.904072 
L 215.965338 66.581111 
L 219.663995 61.265556 
L 223.362652 56.011324 
L 227.061309 50.871314 
L 230.759965 45.896747 
L 234.458622 41.136532 
L 238.157279 36.636655 
L 241.855936 32.439604 
L 245.554593 28.58384 
L 249.253249 25.103317 
L 252.951906 22.027055 
L 256.650563 19.378776 
L 260.34922 17.176604 
L 264.047876 15.432836 
L 267.746533 14.153778 
L 271.44519 13.339667 
L 275.143847 12.984654 
L 278.842503 13.076873 
L 282.54116 13.598575 
L 286.239817 14.526343 
L 289.938474 15.831369 
L 293.637131 17.479803 
L 297.335787 19.43316 
L 301.034444 21.648787 
L 304.733101 24.080379 
L 308.431758 26.678541 
L 312.130414 29.391388 
L 315.829071 32.165174 
L 319.527728 34.944946 
L 323.226385 37.675212 
L 326.925041 40.300611 
L 330.623698 42.766592 
L 334.322355 45.020069 
L 338.021012 47.010067 
L 341.719668 48.688343 
L 345.418325 50.009962 
L 349.116982 50.933844 
L 352.815639 51.42326 
L 356.514296 51.446266 
L 360.212952 50.976092 
L 363.911609 49.991451 
L 367.610266 48.476797 
L 371.308923 46.422494 
L 375.007579 43.824928 
L 378.706236 40.686533 
L 382.404893 37.015749 
L 386.10355 32.826902 
L 389.802206 28.14001 
L 393.500863 22.980524 
L 397.19952 17.378997 
" clip-path="url(#pe85bed9d44)" style="fill: none; stroke-dasharray: 22.2,9.6; stroke-dashoffset: 0; stroke: #cecece; stroke-width: 6"/>
   </g>
   <g id="line2d_8">
    <path d="M 31.0325 87.190902 
L 34.731157 87.186081 
L 38.429814 87.181065 
L 42.12847 87.175841 
L 45.827127 87.170396 
L 49.525784 87.164716 
L 53.224441 87.158787 
L 56.923097 87.152587 
L 60.621754 87.146102 
L 64.320411 87.13931 
L 68.019068 87.13219 
L 71.717724 87.124715 
L 75.416381 87.116864 
L 79.115038 87.108599 
L 82.813695 87.09989 
L 86.512352 87.090704 
L 90.211008 87.080997 
L 93.909665 87.070726 
L 97.608322 87.059833 
L 101.306979 87.048271 
L 105.005635 87.035966 
L 108.704292 87.02285 
L 112.402949 87.008841 
L 116.101606 86.993844 
L 119.800262 86.977744 
L 123.498919 86.960421 
L 127.197576 86.941733 
L 130.896233 86.921504 
L 134.594889 86.899538 
L 138.293546 86.875606 
L 141.992203 86.849426 
L 145.69086 86.82067 
L 149.389517 86.788938 
L 153.088173 86.753738 
L 156.78683 86.714473 
L 160.485487 86.670397 
L 164.184144 86.620566 
L 167.8828 86.563779 
L 171.581457 86.49847 
L 175.280114 86.422561 
L 178.978771 86.333257 
L 182.677427 86.226667 
L 186.376084 86.097253 
L 190.074741 85.936819 
L 193.773398 85.73273 
L 197.472055 85.46445 
L 201.170711 85.096255 
L 204.869368 84.560147 
L 208.568025 83.709536 
L 212.266682 82.164309 
L 215.965338 78.60431 
L 219.663995 66.514986 
L 223.362652 45.432672 
L 227.061309 38.49827 
L 230.759965 36.084065 
L 234.458622 34.905604 
L 238.157279 34.213334 
L 241.855936 33.759105 
L 245.554593 33.438537 
L 249.253249 33.200348 
L 252.951906 33.016456 
L 256.650563 32.870223 
L 260.34922 32.751168 
L 264.047876 32.652374 
L 267.746533 32.569073 
L 271.44519 32.497894 
L 275.143847 32.436359 
L 278.842503 32.382657 
L 282.54116 32.335357 
L 286.239817 32.293405 
L 289.938474 32.255914 
L 293.637131 32.222233 
L 297.335787 32.1918 
L 301.034444 32.164166 
L 304.733101 32.13896 
L 308.431758 32.115879 
L 312.130414 32.094675 
L 315.829071 32.075105 
L 319.527728 32.057013 
L 323.226385 32.040214 
L 326.925041 32.02459 
L 330.623698 32.01002 
L 334.322355 31.996393 
L 338.021012 31.983625 
L 341.719668 31.971643 
L 345.418325 31.960368 
L 349.116982 31.949744 
L 352.815639 31.939707 
L 356.514296 31.930226 
L 360.212952 31.921243 
L 363.911609 31.912732 
L 367.610266 31.904637 
L 371.308923 31.896944 
L 375.007579 31.889628 
L 378.706236 31.882646 
L 382.404893 31.875984 
L 386.10355 31.869626 
L 389.802206 31.863539 
L 393.500863 31.857712 
L 397.19952 31.852133 
" clip-path="url(#pe85bed9d44)" style="fill: none; stroke: #2255a0; stroke-opacity: 0.4; stroke-linecap: square"/>
   </g>
   <g id="line2d_9">
    <path d="M 31.0325 48.423734 
L 34.731157 49.693772 
L 38.429814 51.007995 
L 42.12847 52.36838 
L 45.827127 53.776912 
L 49.525784 55.235567 
L 53.224441 56.746482 
L 56.923097 58.311939 
L 60.621754 59.933614 
L 64.320411 61.613796 
L 68.019068 63.354613 
L 71.717724 65.158203 
L 75.416381 67.026547 
L 79.115038 68.960858 
L 82.813695 70.962965 
L 86.512352 73.034549 
L 90.211008 75.176063 
L 93.909665 77.387967 
L 97.608322 79.669649 
L 101.306979 82.020044 
L 105.005635 84.437322 
L 108.704292 86.917221 
L 112.402949 89.454861 
L 116.101606 92.043007 
L 119.800262 94.671451 
L 123.498919 97.327853 
L 127.197576 99.995834 
L 130.896233 102.654826 
L 134.594889 105.279842 
L 138.293546 107.839422 
L 141.992203 110.296466 
L 145.69086 112.606562 
L 149.389517 114.718139 
L 153.088173 116.571625 
L 156.78683 118.100289 
L 160.485487 119.230998 
L 164.184144 119.886281 
L 167.8828 119.986645 
L 171.581457 119.45519 
L 175.280114 118.222935 
L 178.978771 116.234995 
L 182.677427 113.45747 
L 186.376084 109.884172 
L 190.074741 105.541837 
L 193.773398 100.493285 
L 197.472055 94.836643 
L 201.170711 88.70147 
L 204.869368 82.240671 
L 208.568025 75.619933 
L 212.266682 69.005917 
L 215.965338 62.554707 
L 219.663995 56.402766 
L 223.362652 50.659937 
L 227.061309 45.406971 
L 230.759965 40.695177 
L 234.458622 36.549038 
L 238.157279 32.97035 
L 241.855936 29.942428 
L 245.554593 27.43602 
L 249.253249 25.412657 
L 252.951906 23.828765 
L 256.650563 22.638864 
L 260.34922 21.798016 
L 264.047876 21.2621 
L 267.746533 20.990753 
L 271.44519 20.946421 
L 275.143847 21.095422 
L 278.842503 21.407219 
L 282.54116 21.855605 
L 286.239817 22.417034 
L 289.938474 23.07125 
L 293.637131 23.800727 
L 297.335787 24.590696 
L 301.034444 25.427742 
L 304.733101 26.30104 
L 308.431758 27.201621 
L 312.130414 28.120938 
L 315.829071 29.052747 
L 319.527728 29.99141 
L 323.226385 30.932054 
L 326.925041 31.871024 
L 330.623698 32.805118 
L 334.322355 33.73114 
L 338.021012 34.647561 
L 341.719668 35.552403 
L 345.418325 36.444293 
L 349.116982 37.321861 
L 352.815639 38.184655 
L 356.514296 39.03145 
L 360.212952 39.862397 
L 363.911609 40.677196 
L 367.610266 41.475086 
L 371.308923 42.256216 
L 375.007579 43.020888 
L 378.706236 43.769109 
L 382.404893 44.500415 
L 386.10355 45.215726 
L 389.802206 45.91489 
L 393.500863 46.598357 
L 397.19952 47.266132 
" clip-path="url(#pe85bed9d44)" style="fill: none; stroke: #2255a0; stroke-opacity: 0.4; stroke-linecap: square"/>
   </g>
   <g id="line2d_10">
    <path d="M 31.0325 67.386866 
L 34.731157 64.265626 
L 38.429814 61.522914 
L 42.12847 59.174881 
L 45.827127 57.236764 
L 49.525784 55.722346 
L 53.224441 54.642981 
L 56.923097 54.007656 
L 60.621754 53.822542 
L 64.320411 54.090003 
L 68.019068 54.809048 
L 71.717724 55.972972 
L 75.416381 57.571183 
L 79.115038 59.58693 
L 82.813695 61.997811 
L 86.512352 64.775638 
L 90.211008 67.886214 
L 93.909665 71.288931 
L 97.608322 74.937702 
L 101.306979 78.781643 
L 105.005635 82.764455 
L 108.704292 86.827331 
L 112.402949 90.908032 
L 116.101606 94.943407 
L 119.800262 98.870229 
L 123.498919 102.626259 
L 127.197576 106.151851 
L 130.896233 109.390786 
L 134.594889 112.2921 
L 138.293546 114.810162 
L 141.992203 116.905437 
L 145.69086 118.545549 
L 149.389517 119.705282 
L 153.088173 120.366583 
L 156.78683 120.518405 
L 160.485487 120.157017 
L 164.184144 119.285008 
L 167.8828 117.911596 
L 171.581457 116.05133 
L 175.280114 113.724245 
L 178.978771 110.955024 
L 182.677427 107.772233 
L 186.376084 104.208475 
L 190.074741 100.299175 
L 193.773398 96.082724 
L 197.472055 91.599651 
L 201.170711 86.892005 
L 204.869368 82.003666 
L 208.568025 76.979767 
L 212.266682 71.865635 
L 215.965338 66.707932 
L 219.663995 61.552549 
L 223.362652 56.446036 
L 227.061309 51.433867 
L 230.759965 46.561258 
L 234.458622 41.872165 
L 238.157279 37.408821 
L 241.855936 33.211986 
L 245.554593 29.319976 
L 249.253249 25.768331 
L 252.951906 22.589615 
L 256.650563 19.812471 
L 260.34922 17.461355 
L 264.047876 15.556256 
L 267.746533 14.111579 
L 271.44519 13.135989 
L 275.143847 12.632204 
L 278.842503 12.596115 
L 282.54116 13.016447 
L 286.239817 13.875295 
L 289.938474 15.147127 
L 293.637131 16.799635 
L 297.335787 18.793631 
L 301.034444 21.083576 
L 304.733101 23.618421 
L 308.431758 26.342218 
L 312.130414 29.195354 
L 315.829071 32.115404 
L 319.527728 35.038637 
L 323.226385 37.900891 
L 326.925041 40.639414 
L 330.623698 43.193014 
L 334.322355 45.504463 
L 338.021012 47.520034 
L 341.719668 49.191493 
L 345.418325 50.475646 
L 349.116982 51.335465 
L 352.815639 51.740009 
L 356.514296 51.664156 
L 360.212952 51.089164 
L 363.911609 50.001608 
L 367.610266 48.394063 
L 371.308923 46.263367 
L 375.007579 43.611457 
L 378.706236 40.443979 
L 382.404893 36.769837 
L 386.10355 32.601532 
L 389.802206 27.953612 
L 393.500863 22.842642 
L 397.19952 17.286985 
" clip-path="url(#pe85bed9d44)" style="fill: none; stroke: #2255a0; stroke-opacity: 0.4; stroke-linecap: square"/>
   </g>
   <g id="line2d_11">
    <path d="M 31.0325 67.508864 
L 34.731157 64.303832 
L 38.429814 61.498539 
L 42.12847 59.107999 
L 45.827127 57.145387 
L 49.525784 55.622514 
L 53.224441 54.548673 
L 56.923097 53.930374 
L 60.621754 53.770781 
L 64.320411 54.069914 
L 68.019068 54.823674 
L 71.717724 56.022828 
L 75.416381 57.653913 
L 79.115038 59.697957 
L 82.813695 62.130665 
L 86.512352 64.921927 
L 90.211008 68.036409 
L 93.909665 71.432926 
L 97.608322 75.065835 
L 101.306979 78.884273 
L 105.005635 82.833788 
L 108.704292 86.856858 
L 112.402949 90.893948 
L 116.101606 94.884036 
L 119.800262 98.766455 
L 123.498919 102.481825 
L 127.197576 105.972643 
L 130.896233 109.185353 
L 134.594889 112.070079 
L 138.293546 114.582714 
L 141.992203 116.684178 
L 145.69086 118.342249 
L 149.389517 119.530949 
L 153.088173 120.231157 
L 156.78683 120.430572 
L 160.485487 120.123042 
L 164.184144 119.309423 
L 167.8828 117.996191 
L 171.581457 116.195383 
L 175.280114 113.924517 
L 178.978771 111.205802 
L 182.677427 108.065899 
L 186.376084 104.535088 
L 190.074741 100.647118 
L 193.773398 96.439009 
L 197.472055 91.95026 
L 201.170711 87.222618 
L 204.869368 82.299732 
L 208.568025 77.227003 
L 212.266682 72.051129 
L 215.965338 66.819646 
L 219.663995 61.580966 
L 223.362652 56.383914 
L 227.061309 51.27717 
L 230.759965 46.309529 
L 234.458622 41.528904 
L 238.157279 36.98207 
L 241.855936 32.714504 
L 245.554593 28.769019 
L 249.253249 25.186258 
L 252.951906 22.002513 
L 256.650563 19.250583 
L 260.34922 16.957171 
L 264.047876 15.143221 
L 267.746533 13.822296 
L 271.44519 12.9998 
L 275.143847 12.671779 
L 278.842503 12.824974 
L 282.54116 13.435768 
L 286.239817 14.471104 
L 289.938474 15.888694 
L 293.637131 17.639041 
L 297.335787 19.66865 
L 301.034444 21.921916 
L 304.733101 24.346053 
L 308.431758 26.89268 
L 312.130414 29.519832 
L 315.829071 32.190326 
L 319.527728 34.868744 
L 323.226385 37.518517 
L 326.925041 40.097291 
L 330.623698 42.555936 
L 334.322355 44.83876 
L 338.021012 46.886427 
L 341.719668 48.638136 
L 345.418325 50.036155 
L 349.116982 51.027534 
L 352.815639 51.567256 
L 356.514296 51.618218 
L 360.212952 51.153003 
L 363.911609 50.152099 
L 367.610266 48.604694 
L 371.308923 46.507364 
L 375.007579 43.86277 
L 378.706236 40.6799 
L 382.404893 36.971179 
L 386.10355 32.753584 
L 389.802206 28.046703 
L 393.500863 22.872237 
L 397.19952 17.253044 
" clip-path="url(#pe85bed9d44)" style="fill: none; stroke: #2255a0; stroke-opacity: 0.4; stroke-linecap: square"/>
   </g>
   <g id="line2d_12">
    <path d="M 31.0325 68.093283 
L 34.731157 64.44594 
L 38.429814 61.36376 
L 42.12847 58.825912 
L 45.827127 56.81346 
L 49.525784 55.309135 
L 53.224441 54.297743 
L 56.923097 53.765126 
L 60.621754 53.698371 
L 64.320411 54.084995 
L 68.019068 54.912479 
L 71.717724 56.167148 
L 75.416381 57.833711 
L 79.115038 59.894214 
L 82.813695 62.32703 
L 86.512352 65.106155 
L 90.211008 68.200364 
L 93.909665 71.572665 
L 97.608322 75.180129 
L 101.306979 78.973878 
L 105.005635 82.899823 
L 108.704292 86.899482 
L 112.402949 90.911431 
L 116.101606 94.872866 
L 119.800262 98.721472 
L 123.498919 102.397106 
L 127.197576 105.843254 
L 130.896233 109.00842 
L 134.594889 111.846782 
L 138.293546 114.318872 
L 141.992203 116.391388 
L 145.69086 118.037289 
L 149.389517 119.234978 
L 153.088173 119.968287 
L 156.78683 120.225502 
L 160.485487 119.999291 
L 164.184144 119.285999 
L 167.8828 118.085986 
L 171.581457 116.403044 
L 175.280114 114.245074 
L 178.978771 111.624171 
L 182.677427 108.557209 
L 186.376084 105.066334 
L 190.074741 101.179316 
L 193.773398 96.930052 
L 197.472055 92.358774 
L 201.170711 87.511865 
L 204.869368 82.441385 
L 208.568025 77.203959 
L 212.266682 71.860056 
L 215.965338 66.471855 
L 219.663995 61.101831 
L 223.362652 55.811083 
L 227.061309 50.657493 
L 230.759965 45.694621 
L 234.458622 40.970673 
L 238.157279 36.528014 
L 241.855936 32.402862 
L 245.554593 28.625617 
L 249.253249 25.2213 
L 252.951906 22.209909 
L 256.650563 19.607324 
L 260.34922 17.425777 
L 264.047876 15.67414 
L 267.746533 14.358623 
L 271.44519 13.482501 
L 275.143847 13.046193 
L 278.842503 13.046557 
L 282.54116 13.476562 
L 286.239817 14.32404 
L 289.938474 15.570885 
L 293.637131 17.191817 
L 297.335787 19.153591 
L 301.034444 21.414456 
L 304.733101 23.924008 
L 308.431758 26.624136 
L 312.130414 29.450206 
L 315.829071 32.333712 
L 319.527728 35.204441 
L 323.226385 37.993638 
L 326.925041 40.636634 
L 330.623698 43.074862 
L 334.322355 45.257131 
L 338.021012 47.140212 
L 341.719668 48.688587 
L 345.418325 49.873515 
L 349.116982 50.672031 
L 352.815639 51.065148 
L 356.514296 51.036504 
L 360.212952 50.570713 
L 363.911609 49.651988 
L 367.610266 48.262883 
L 371.308923 46.382757 
L 375.007579 43.986957 
L 378.706236 41.045424 
L 382.404893 37.521641 
L 386.10355 33.371428 
L 389.802206 28.541629 
L 393.500863 22.969233 
L 397.19952 16.579745 
" clip-path="url(#pe85bed9d44)" style="fill: none; stroke: #2255a0; stroke-opacity: 0.9; stroke-width: 1.8; stroke-linecap: square"/>
   </g>
   <g id="patch_3">
    <path d="M 31.0325 125.91452 
L 31.0325 7.2 
" style="fill: none; stroke: #000000; stroke-width: 0.8; stroke-linejoin: miter; stroke-linecap: square"/>
   </g>
   <g id="patch_4">
    <path d="M 397.19952 125.91452 
L 397.19952 7.2 
" style="fill: none; stroke: #000000; stroke-width: 0.8; stroke-linejoin: miter; stroke-linecap: square"/>
   </g>
   <g id="patch_5">
    <path d="M 31.0325 125.91452 
L 397.19952 125.91452 
" style="fill: none; stroke: #000000; stroke-width: 0.8; stroke-linejoin: miter; stroke-linecap: square"/>
   </g>
   <g id="patch_6">
    <path d="M 31.0325 7.2 
L 397.19952 7.2 
" style="fill: none; stroke: #000000; stroke-width: 0.8; stroke-linejoin: miter; stroke-linecap: square"/>
   </g>
   <g id="legend_1">
    <g id="line2d_13">
     <path d="M 309.23952 102.50827 
L 317.23952 102.50827 
L 325.23952 102.50827 
" style="fill: none; stroke-dasharray: 22.2,9.6; stroke-dashoffset: 0; stroke: #cecece; stroke-width: 6"/>
    </g>
    <g id="text_9">
     <!-- Target -->
     <g transform="translate(331.63952 105.30827) scale(0.08 -0.08)">
      <defs>
       <path id="DejaVuSans-54" d="M -19 4666 
L 3928 4666 
L 3928 4134 
L 2272 4134 
L 2272 0 
L 1638 0 
L 1638 4134 
L -19 4134 
L -19 4666 
z
" transform="scale(0.015625)"/>
       <path id="DejaVuSans-61" d="M 2194 1759 
Q 1497 1759 1228 1600 
Q 959 1441 959 1056 
Q 959 750 1161 570 
Q 1363 391 1709 391 
Q 2188 391 2477 730 
Q 2766 1069 2766 1631 
L 2766 1759 
L 2194 1759 
z
M 3341 1997 
L 3341 0 
L 2766 0 
L 2766 531 
Q 2569 213 2275 61 
Q 1981 -91 1556 -91 
Q 1019 -91 701 211 
Q 384 513 384 1019 
Q 384 1609 779 1909 
Q 1175 2209 1959 2209 
L 2766 2209 
L 2766 2266 
Q 2766 2663 2505 2880 
Q 2244 3097 1772 3097 
Q 1472 3097 1187 3025 
Q 903 2953 641 2809 
L 641 3341 
Q 956 3463 1253 3523 
Q 1550 3584 1831 3584 
Q 2591 3584 2966 3190 
Q 3341 2797 3341 1997 
z
" transform="scale(0.015625)"/>
       <path id="DejaVuSans-72" d="M 2631 2963 
Q 2534 3019 2420 3045 
Q 2306 3072 2169 3072 
Q 1681 3072 1420 2755 
Q 1159 2438 1159 1844 
L 1159 0 
L 581 0 
L 581 3500 
L 1159 3500 
L 1159 2956 
Q 1341 3275 1631 3429 
Q 1922 3584 2338 3584 
Q 2397 3584 2469 3576 
Q 2541 3569 2628 3553 
L 2631 2963 
z
" transform="scale(0.015625)"/>
       <path id="DejaVuSans-67" d="M 2906 1791 
Q 2906 2416 2648 2759 
Q 2391 3103 1925 3103 
Q 1463 3103 1205 2759 
Q 947 2416 947 1791 
Q 947 1169 1205 825 
Q 1463 481 1925 481 
Q 2391 481 2648 825 
Q 2906 1169 2906 1791 
z
M 3481 434 
Q 3481 -459 3084 -895 
Q 2688 -1331 1869 -1331 
Q 1566 -1331 1297 -1286 
Q 1028 -1241 775 -1147 
L 775 -588 
Q 1028 -725 1275 -790 
Q 1522 -856 1778 -856 
Q 2344 -856 2625 -561 
Q 2906 -266 2906 331 
L 2906 616 
Q 2728 306 2450 153 
Q 2172 0 1784 0 
Q 1141 0 747 490 
Q 353 981 353 1791 
Q 353 2603 747 3093 
Q 1141 3584 1784 3584 
Q 2172 3584 2450 3431 
Q 2728 3278 2906 2969 
L 2906 3500 
L 3481 3500 
L 3481 434 
z
" transform="scale(0.015625)"/>
       <path id="DejaVuSans-65" d="M 3597 1894 
L 3597 1613 
L 953 1613 
Q 991 1019 1311 708 
Q 1631 397 2203 397 
Q 2534 397 2845 478 
Q 3156 559 3463 722 
L 3463 178 
Q 3153 47 2828 -22 
Q 2503 -91 2169 -91 
Q 1331 -91 842 396 
Q 353 884 353 1716 
Q 353 2575 817 3079 
Q 1281 3584 2069 3584 
Q 2775 3584 3186 3129 
Q 3597 2675 3597 1894 
z
M 3022 2063 
Q 3016 2534 2758 2815 
Q 2500 3097 2075 3097 
Q 1594 3097 1305 2825 
Q 1016 2553 972 2059 
L 3022 2063 
z
" transform="scale(0.015625)"/>
       <path id="DejaVuSans-74" d="M 1172 4494 
L 1172 3500 
L 2356 3500 
L 2356 3053 
L 1172 3053 
L 1172 1153 
Q 1172 725 1289 603 
Q 1406 481 1766 481 
L 2356 481 
L 2356 0 
L 1766 0 
Q 1100 0 847 248 
Q 594 497 594 1153 
L 594 3053 
L 172 3053 
L 172 3500 
L 594 3500 
L 594 4494 
L 1172 4494 
z
" transform="scale(0.015625)"/>
      </defs>
      <use xlink:href="#DejaVuSans-54"/>
      <use xlink:href="#DejaVuSans-61" x="44.583984"/>
      <use xlink:href="#DejaVuSans-72" x="105.863281"/>
      <use xlink:href="#DejaVuSans-67" x="145.226562"/>
      <use xlink:href="#DejaVuSans-65" x="208.703125"/>
      <use xlink:href="#DejaVuSans-74" x="270.226562"/>
     </g>
    </g>
    <g id="line2d_14">
     <path d="M 309.23952 114.25077 
L 317.23952 114.25077 
L 325.23952 114.25077 
" style="fill: none; stroke: #2255a0; stroke-opacity: 0.9; stroke-width: 1.8; stroke-linecap: square"/>
    </g>
    <g id="text_10">
     <!-- Approximation -->
     <g transform="translate(331.63952 117.05077) scale(0.08 -0.08)">
      <defs>
       <path id="DejaVuSans-41" d="M 2188 4044 
L 1331 1722 
L 3047 1722 
L 2188 4044 
z
M 1831 4666 
L 2547 4666 
L 4325 0 
L 3669 0 
L 3244 1197 
L 1141 1197 
L 716 0 
L 50 0 
L 1831 4666 
z
" transform="scale(0.015625)"/>
       <path id="DejaVuSans-70" d="M 1159 525 
L 1159 -1331 
L 581 -1331 
L 581 3500 
L 1159 3500 
L 1159 2969 
Q 1341 3281 1617 3432 
Q 1894 3584 2278 3584 
Q 2916 3584 3314 3078 
Q 3713 2572 3713 1747 
Q 3713 922 3314 415 
Q 2916 -91 2278 -91 
Q 1894 -91 1617 61 
Q 1341 213 1159 525 
z
M 3116 1747 
Q 3116 2381 2855 2742 
Q 2594 3103 2138 3103 
Q 1681 3103 1420 2742 
Q 1159 2381 1159 1747 
Q 1159 1113 1420 752 
Q 1681 391 2138 391 
Q 2594 391 2855 752 
Q 3116 1113 3116 1747 
z
" transform="scale(0.015625)"/>
       <path id="DejaVuSans-6f" d="M 1959 3097 
Q 1497 3097 1228 2736 
Q 959 2375 959 1747 
Q 959 1119 1226 758 
Q 1494 397 1959 397 
Q 2419 397 2687 759 
Q 2956 1122 2956 1747 
Q 2956 2369 2687 2733 
Q 2419 3097 1959 3097 
z
M 1959 3584 
Q 2709 3584 3137 3096 
Q 3566 2609 3566 1747 
Q 3566 888 3137 398 
Q 2709 -91 1959 -91 
Q 1206 -91 779 398 
Q 353 888 353 1747 
Q 353 2609 779 3096 
Q 1206 3584 1959 3584 
z
" transform="scale(0.015625)"/>
       <path id="DejaVuSans-78" d="M 3513 3500 
L 2247 1797 
L 3578 0 
L 2900 0 
L 1881 1375 
L 863 0 
L 184 0 
L 1544 1831 
L 300 3500 
L 978 3500 
L 1906 2253 
L 2834 3500 
L 3513 3500 
z
" transform="scale(0.015625)"/>
       <path id="DejaVuSans-69" d="M 603 3500 
L 1178 3500 
L 1178 0 
L 603 0 
L 603 3500 
z
M 603 4863 
L 1178 4863 
L 1178 4134 
L 603 4134 
L 603 4863 
z
" transform="scale(0.015625)"/>
       <path id="DejaVuSans-6d" d="M 3328 2828 
Q 3544 3216 3844 3400 
Q 4144 3584 4550 3584 
Q 5097 3584 5394 3201 
Q 5691 2819 5691 2113 
L 5691 0 
L 5113 0 
L 5113 2094 
Q 5113 2597 4934 2840 
Q 4756 3084 4391 3084 
Q 3944 3084 3684 2787 
Q 3425 2491 3425 1978 
L 3425 0 
L 2847 0 
L 2847 2094 
Q 2847 2600 2669 2842 
Q 2491 3084 2119 3084 
Q 1678 3084 1418 2786 
Q 1159 2488 1159 1978 
L 1159 0 
L 581 0 
L 581 3500 
L 1159 3500 
L 1159 2956 
Q 1356 3278 1631 3431 
Q 1906 3584 2284 3584 
Q 2666 3584 2933 3390 
Q 3200 3197 3328 2828 
z
" transform="scale(0.015625)"/>
       <path id="DejaVuSans-6e" d="M 3513 2113 
L 3513 0 
L 2938 0 
L 2938 2094 
Q 2938 2591 2744 2837 
Q 2550 3084 2163 3084 
Q 1697 3084 1428 2787 
Q 1159 2491 1159 1978 
L 1159 0 
L 581 0 
L 581 3500 
L 1159 3500 
L 1159 2956 
Q 1366 3272 1645 3428 
Q 1925 3584 2291 3584 
Q 2894 3584 3203 3211 
Q 3513 2838 3513 2113 
z
" transform="scale(0.015625)"/>
      </defs>
      <use xlink:href="#DejaVuSans-41"/>
      <use xlink:href="#DejaVuSans-70" x="68.408203"/>
      <use xlink:href="#DejaVuSans-70" x="131.884766"/>
      <use xlink:href="#DejaVuSans-72" x="195.361328"/>
      <use xlink:href="#DejaVuSans-6f" x="234.224609"/>
      <use xlink:href="#DejaVuSans-78" x="292.28125"/>
      <use xlink:href="#DejaVuSans-69" x="351.460938"/>
      <use xlink:href="#DejaVuSans-6d" x="379.244141"/>
      <use xlink:href="#DejaVuSans-61" x="476.65625"/>
      <use xlink:href="#DejaVuSans-74" x="537.935547"/>
      <use xlink:href="#DejaVuSans-69" x="577.144531"/>
      <use xlink:href="#DejaVuSans-6f" x="604.927734"/>
      <use xlink:href="#DejaVuSans-6e" x="666.109375"/>
     </g>
    </g>
   </g>
  </g>
 </g>
 <defs>
  <clipPath id="pe85bed9d44">
   <rect x="31.0325" y="7.2" width="366.16702" height="118.71452"/>
  </clipPath>
 </defs>
</svg>
