<?xml version="1.0" encoding="utf-8" standalone="no"?>
<!DOCTYPE svg PUBLIC "-//W3C//DTD SVG 1.1//EN"
  "http://www.w3.org/Graphics/SVG/1.1/DTD/svg11.dtd">
<svg xmlns:xlink="http://www.w3.org/1999/xlink" width="396pt" height="439.2pt" viewBox="0 0 396 439.2" xmlns="http://www.w3.org/2000/svg" version="1.1">
 <metadata>
  <rdf:RDF xmlns:dc="http://purl.org/dc/elements/1.1/" xmlns:cc="http://creativecommons.org/ns#" xmlns:rdf="http://www.w3.org/1999/02/22-rdf-syntax-ns#">
   <cc:Work>
    <dc:type rdf:resource="http://purl.org/dc/dcmitype/StillImage"/>
    <dc:date>2025-10-11T18:17:55.992689</dc:date>
    <dc:format>image/svg+xml</dc:format>
    <dc:creator>
     <cc:Agent>
      <dc:title>Matplotlib v3.8.4, https://matplotlib.org/</dc:title>
     </cc:Agent>
    </dc:creator>
   </cc:Work>
  </rdf:RDF>
 </metadata>
 <defs>
  <style type="text/css">*{stroke-linejoin: round; stroke-linecap: butt}</style>
 </defs>
 <g id="figure_1">
  <g id="patch_1">
   <path d="M 0 439.2 
L 396 439.2 
L 396 0 
L 0 0 
z
" style="fill: #ffffff"/>
  </g>
  <g id="axes_1">
   <g id="patch_2">
    <path d="M 30.404295 78.566181 
L 388.8 78.566181 
L 388.8 7.2 
L 30.404295 7.2 
z
" style="fill: #ffffff"/>
   </g>
   <g id="matplotlib.axis_1">
    <g id="xtick_1">
     <g id="line2d_1">
      <defs>
       <path id="m6848c82c40" d="M 0 0 
L 0 3.5 
" style="stroke: #000000; stroke-width: 0.8"/>
      </defs>
      <g>
       <use xlink:href="#m6848c82c40" x="46.695009" y="78.566181" style="stroke: #000000; stroke-width: 0.8"/>
      </g>
     </g>
    </g>
    <g id="xtick_2">
     <g id="line2d_2">
      <g>
       <use xlink:href="#m6848c82c40" x="209.602147" y="78.566181" style="stroke: #000000; stroke-width: 0.8"/>
      </g>
     </g>
    </g>
    <g id="xtick_3">
     <g id="line2d_3">
      <g>
       <use xlink:href="#m6848c82c40" x="372.509286" y="78.566181" style="stroke: #000000; stroke-width: 0.8"/>
      </g>
     </g>
    </g>
   </g>
   <g id="matplotlib.axis_2">
    <g id="ytick_1">
     <g id="line2d_4">
      <defs>
       <path id="md06b1b959e" d="M 0 0 
L -3.5 0 
" style="stroke: #000000; stroke-width: 0.8"/>
      </defs>
      <g>
       <use xlink:href="#md06b1b959e" x="30.404295" y="68.566971" style="stroke: #000000; stroke-width: 0.8"/>
      </g>
     </g>
     <g id="text_1">
      <!-- $\mathdefault{0}$ -->
      <g transform="translate(19.170112 71.334372) scale(0.08 -0.08)">
       <defs>
        <path id="CMR17-30" d="M 2688 2038 
C 2688 2430 2682 3099 2413 3613 
C 2176 4063 1798 4224 1466 4224 
C 1158 4224 768 4082 525 3620 
C 269 3137 243 2539 243 2038 
C 243 1671 250 1112 448 623 
C 723 -39 1216 -128 1466 -128 
C 1760 -128 2208 -7 2470 604 
C 2662 1048 2688 1568 2688 2038 
z
M 1466 -26 
C 1056 -26 813 328 723 816 
C 653 1196 653 1749 653 2109 
C 653 2604 653 3015 736 3407 
C 858 3954 1216 4121 1466 4121 
C 1728 4121 2067 3947 2189 3420 
C 2272 3054 2278 2623 2278 2109 
C 2278 1691 2278 1176 2202 797 
C 2067 96 1690 -26 1466 -26 
z
" transform="scale(0.015625)"/>
       </defs>
       <use xlink:href="#CMR17-30" transform="scale(0.996264)"/>
      </g>
     </g>
    </g>
    <g id="ytick_2">
     <g id="line2d_5">
      <g>
       <use xlink:href="#md06b1b959e" x="30.404295" y="44.436019" style="stroke: #000000; stroke-width: 0.8"/>
      </g>
     </g>
     <g id="text_2">
      <!-- $\mathdefault{1}$ -->
      <g transform="translate(19.170112 47.20342) scale(0.08 -0.08)">
       <defs>
        <path id="CMR17-31" d="M 1702 4083 
C 1702 4217 1696 4224 1606 4224 
C 1357 3927 979 3833 621 3820 
C 602 3820 570 3820 563 3808 
C 557 3795 557 3782 557 3648 
C 755 3648 1088 3686 1344 3839 
L 1344 467 
C 1344 243 1331 166 781 166 
L 589 166 
L 589 0 
C 896 6 1216 12 1523 12 
C 1830 12 2150 6 2458 0 
L 2458 166 
L 2266 166 
C 1715 166 1702 236 1702 467 
L 1702 4083 
z
" transform="scale(0.015625)"/>
       </defs>
       <use xlink:href="#CMR17-31" transform="scale(0.996264)"/>
      </g>
     </g>
    </g>
    <g id="ytick_3">
     <g id="line2d_6">
      <g>
       <use xlink:href="#md06b1b959e" x="30.404295" y="20.305067" style="stroke: #000000; stroke-width: 0.8"/>
      </g>
     </g>
     <g id="text_3">
      <!-- $\mathdefault{2}$ -->
      <g transform="translate(19.170112 23.072468) scale(0.08 -0.08)">
       <defs>
        <path id="CMR17-32" d="M 2669 990 
L 2554 990 
C 2490 537 2438 460 2413 422 
C 2381 371 1920 371 1830 371 
L 602 371 
C 832 620 1280 1073 1824 1596 
C 2214 1966 2669 2400 2669 3033 
C 2669 3788 2067 4224 1395 4224 
C 691 4224 262 3603 262 3027 
C 262 2777 448 2745 525 2745 
C 589 2745 781 2783 781 3007 
C 781 3206 614 3264 525 3264 
C 486 3264 448 3257 422 3244 
C 544 3788 915 4057 1306 4057 
C 1862 4057 2227 3616 2227 3033 
C 2227 2477 1901 1998 1536 1583 
L 262 147 
L 262 0 
L 2515 0 
L 2669 990 
z
" transform="scale(0.015625)"/>
       </defs>
       <use xlink:href="#CMR17-32" transform="scale(0.996264)"/>
      </g>
     </g>
    </g>
    <g id="text_4">
     <!-- $f(x)$ -->
     <g transform="translate(13.177584 51.033176) rotate(-90) scale(0.08 -0.08)">
      <defs>
       <path id="CMMI12-66" d="M 2854 2566 
C 2982 2566 3034 2566 3034 2687 
C 3034 2752 2982 2752 2867 2752 
L 2349 2752 
C 2470 3398 2560 3846 2611 4051 
C 2650 4204 2784 4351 2950 4351 
C 3085 4351 3219 4294 3283 4236 
C 3034 4211 2957 4025 2957 3916 
C 2957 3788 3053 3712 3174 3712 
C 3302 3712 3494 3820 3494 4064 
C 3494 4332 3226 4480 2944 4480 
C 2669 4480 2400 4275 2272 4025 
C 2157 3801 2093 3573 1946 2752 
L 1517 2752 
C 1395 2752 1331 2752 1331 2636 
C 1331 2566 1370 2566 1498 2566 
L 1907 2566 
C 1792 1977 1530 545 1382 -132 
C 1274 -685 1178 -1152 858 -1152 
C 838 -1152 653 -1152 538 -1031 
C 864 -1005 864 -724 864 -717 
C 864 -589 768 -512 646 -512 
C 518 -512 326 -621 326 -865 
C 326 -1140 608 -1280 858 -1280 
C 1510 -1280 1779 -113 1850 203 
C 1965 691 2278 2376 2310 2566 
L 2854 2566 
z
" transform="scale(0.015625)"/>
       <path id="CMR17-28" d="M 1958 -1562 
C 1958 -1556 1958 -1543 1939 -1524 
C 1645 -1223 858 -403 858 1596 
C 858 3595 1632 4408 1946 4729 
C 1946 4735 1958 4748 1958 4767 
C 1958 4787 1939 4800 1914 4800 
C 1843 4800 1299 4325 986 3620 
C 666 2909 576 2218 576 1603 
C 576 1141 621 360 1005 -467 
C 1312 -1133 1837 -1600 1914 -1600 
C 1946 -1600 1958 -1588 1958 -1562 
z
" transform="scale(0.015625)"/>
       <path id="CMMI12-78" d="M 3034 2624 
C 2829 2585 2752 2431 2752 2310 
C 2752 2156 2874 2105 2963 2105 
C 3155 2105 3290 2271 3290 2444 
C 3290 2694 2982 2816 2714 2816 
C 2323 2816 2106 2451 2048 2329 
C 1901 2790 1504 2816 1389 2816 
C 736 2816 390 1993 390 1849 
C 390 1823 416 1790 461 1790 
C 512 1790 525 1829 538 1855 
C 755 2572 1184 2687 1370 2687 
C 1658 2687 1715 2438 1715 2284 
C 1715 2143 1677 1993 1600 1678 
L 1382 778 
C 1286 390 1101 64 762 64 
C 730 64 570 64 435 126 
C 666 166 717 358 717 435 
C 717 563 621 640 499 640 
C 346 640 179 505 179 300 
C 179 57 480 -64 755 -64 
C 1062 -64 1280 153 1414 415 
C 1517 64 1837 -64 2074 -64 
C 2726 -64 3072 751 3072 896 
C 3072 929 3046 955 3008 955 
C 2950 955 2944 922 2925 870 
C 2752 300 2381 64 2093 64 
C 1869 64 1747 204 1747 467 
C 1747 607 1773 712 1875 1146 
L 2099 2039 
C 2195 2425 2413 2687 2707 2687 
C 2720 2687 2899 2687 3034 2624 
z
" transform="scale(0.015625)"/>
       <path id="CMR17-29" d="M 1683 1596 
C 1683 2057 1638 2839 1254 3665 
C 947 4332 422 4800 346 4800 
C 326 4800 301 4793 301 4761 
C 301 4748 307 4742 314 4729 
C 621 4408 1402 3595 1402 1603 
C 1402 -396 627 -1210 314 -1530 
C 307 -1543 301 -1549 301 -1562 
C 301 -1594 326 -1600 346 -1600 
C 416 -1600 960 -1127 1274 -422 
C 1594 289 1683 981 1683 1596 
z
" transform="scale(0.015625)"/>
      </defs>
      <use xlink:href="#CMMI12-66" transform="scale(0.996264)"/>
      <use xlink:href="#CMR17-28" transform="translate(58.720305 0) scale(0.996264)"/>
      <use xlink:href="#CMMI12-78" transform="translate(94.001073 0) scale(0.996264)"/>
      <use xlink:href="#CMR17-29" transform="translate(149.435132 0) scale(0.996264)"/>
     </g>
    </g>
   </g>
   <g id="line2d_7">
    <path d="M 30.404295 43.509115 
L 34.024454 41.537414 
L 37.644612 39.793721 
L 41.264771 38.297174 
L 44.884929 37.06381 
L 48.505088 36.106364 
L 52.125247 35.434115 
L 55.745405 35.052766 
L 59.365564 34.964374 
L 62.985723 35.167326 
L 66.605881 35.656352 
L 70.22604 36.422593 
L 73.846199 37.453709 
L 77.466357 38.734025 
L 81.086516 40.244729 
L 84.706674 41.964099 
L 88.326833 43.86777 
L 91.946992 45.929033 
L 95.56715 48.119162 
L 99.187309 50.407768 
L 102.807468 52.763173 
L 106.427626 55.152796 
L 110.047785 57.543554 
L 113.667944 59.902271 
L 117.288102 62.196081 
L 120.908261 64.392835 
L 124.528419 66.461495 
L 128.148578 68.372511 
L 131.768737 70.098191 
L 135.388895 71.613031 
L 139.009054 72.894037 
L 142.629213 73.920999 
L 146.249371 74.676743 
L 149.86953 75.147338 
L 153.489689 75.322264 
L 157.109847 75.194544 
L 160.730006 74.760826 
L 164.350165 74.021418 
L 167.970323 72.980287 
L 171.590482 71.645004 
L 175.21064 70.026653 
L 178.830799 68.139682 
L 182.450958 66.001733 
L 186.071116 63.633415 
L 189.691275 61.058049 
L 193.311434 58.301377 
L 196.931592 55.391242 
L 200.551751 52.357241 
L 204.17191 49.230357 
L 207.792068 46.042576 
L 211.412227 42.826483 
L 215.032385 39.614866 
L 218.652544 36.4403 
L 222.272703 33.334745 
L 225.892861 30.32915 
L 229.51302 27.453065 
L 233.133179 24.734274 
L 236.753337 22.198448 
L 240.373496 19.868825 
L 243.993655 17.76592 
L 247.613813 15.907266 
L 251.233972 14.307196 
L 254.85413 12.976661 
L 258.474289 11.92309 
L 262.094448 11.150293 
L 265.714606 10.658413 
L 269.334765 10.443917 
L 272.954924 10.499635 
L 276.575082 10.814844 
L 280.195241 11.375394 
L 283.8154 12.163881 
L 287.435558 13.159852 
L 291.055717 14.340055 
L 294.675875 15.67872 
L 298.296034 17.147869 
L 301.916193 18.717658 
L 305.536351 20.35674 
L 309.15651 22.03264 
L 312.776669 23.712157 
L 316.396827 25.361762 
L 320.016986 26.948008 
L 323.637145 28.437935 
L 327.257303 29.799468 
L 330.877462 31.00181 
L 334.49762 32.015811 
L 338.117779 32.814323 
L 341.737938 33.372526 
L 345.358096 33.668227 
L 348.978255 33.682127 
L 352.598414 33.398051 
L 356.218572 32.803139 
L 359.838731 31.887996 
L 363.45889 30.646802 
L 367.079048 29.077373 
L 370.699207 27.181179 
L 374.319365 24.96332 
L 377.939524 22.43245 
L 381.559683 19.600666 
L 385.179841 16.483345 
L 388.8 13.098945 
" clip-path="url(#pf179ad2527)" style="fill: none; stroke-dasharray: 16.65,7.2; stroke-dashoffset: 0; stroke: #cecece; stroke-width: 4.5"/>
   </g>
   <g id="line2d_8">
    <path d="M 30.404295 55.27876 
L 34.024454 55.275848 
L 37.644612 55.272817 
L 41.264771 55.269661 
L 44.884929 55.266371 
L 48.505088 55.262939 
L 52.125247 55.259357 
L 55.745405 55.255611 
L 59.365564 55.251693 
L 62.985723 55.247589 
L 66.605881 55.243287 
L 70.22604 55.238771 
L 73.846199 55.234027 
L 77.466357 55.229034 
L 81.086516 55.223772 
L 84.706674 55.218222 
L 88.326833 55.212357 
L 91.946992 55.206151 
L 95.56715 55.19957 
L 99.187309 55.192584 
L 102.807468 55.185149 
L 106.427626 55.177225 
L 110.047785 55.168761 
L 113.667944 55.159699 
L 117.288102 55.149972 
L 120.908261 55.139506 
L 124.528419 55.128215 
L 128.148578 55.115992 
L 131.768737 55.10272 
L 135.388895 55.088261 
L 139.009054 55.072443 
L 142.629213 55.055069 
L 146.249371 55.035897 
L 149.86953 55.014629 
L 153.489689 54.990906 
L 157.109847 54.964275 
L 160.730006 54.934168 
L 164.350165 54.899857 
L 167.970323 54.860399 
L 171.590482 54.814535 
L 175.21064 54.760578 
L 178.830799 54.696177 
L 182.450958 54.617986 
L 186.071116 54.521053 
L 189.691275 54.397744 
L 193.311434 54.235652 
L 196.931592 54.013191 
L 200.551751 53.689279 
L 204.17191 53.175346 
L 207.792068 52.241732 
L 211.412227 50.090808 
L 215.032385 42.786531 
L 218.652544 30.04876 
L 222.272703 25.859047 
L 225.892861 24.400404 
L 229.51302 23.688386 
L 233.133179 23.270122 
L 236.753337 22.995681 
L 240.373496 22.801996 
L 243.993655 22.658084 
L 247.613813 22.546978 
L 251.233972 22.458625 
L 254.85413 22.386693 
L 258.474289 22.327002 
L 262.094448 22.276672 
L 265.714606 22.233666 
L 269.334765 22.196488 
L 272.954924 22.164041 
L 276.575082 22.135463 
L 280.195241 22.110116 
L 283.8154 22.087464 
L 287.435558 22.067114 
L 291.055717 22.048727 
L 294.675875 22.03203 
L 298.296034 22.016801 
L 301.916193 22.002856 
L 305.536351 21.990045 
L 309.15651 21.978221 
L 312.776669 21.967289 
L 316.396827 21.95714 
L 320.016986 21.9477 
L 323.637145 21.938897 
L 327.257303 21.930663 
L 330.877462 21.922949 
L 334.49762 21.91571 
L 338.117779 21.908897 
L 341.737938 21.902479 
L 345.358096 21.896414 
L 348.978255 21.890686 
L 352.598414 21.885259 
L 356.218572 21.880116 
L 359.838731 21.875225 
L 363.45889 21.870577 
L 367.079048 21.866157 
L 370.699207 21.861939 
L 374.319365 21.857913 
L 377.939524 21.854072 
L 381.559683 21.850394 
L 385.179841 21.846874 
L 388.8 21.843502 
" clip-path="url(#pf179ad2527)" style="fill: none; stroke: #2255a0; stroke-opacity: 0.9; stroke-width: 1.5; stroke-linecap: square"/>
   </g>
   <g id="patch_3">
    <path d="M 30.404295 78.566181 
L 30.404295 7.2 
" style="fill: none; stroke: #000000; stroke-width: 0.8; stroke-linejoin: miter; stroke-linecap: square"/>
   </g>
   <g id="patch_4">
    <path d="M 388.8 78.566181 
L 388.8 7.2 
" style="fill: none; stroke: #000000; stroke-width: 0.8; stroke-linejoin: miter; stroke-linecap: square"/>
   </g>
   <g id="patch_5">
    <path d="M 30.404295 78.566181 
L 388.8 78.566181 
" style="fill: none; stroke: #000000; stroke-width: 0.8; stroke-linejoin: miter; stroke-linecap: square"/>
   </g>
   <g id="patch_6">
    <path d="M 30.404295 7.2 
L 388.8 7.2 
" style="fill: none; stroke: #000000; stroke-width: 0.8; stroke-linejoin: miter; stroke-linecap: square"/>
   </g>
   <g id="text_5">
    <!-- 1 neurons -->
    <g style="fill: #2255a0" transform="translate(37.572209 18.422283) scale(0.09 -0.09)">
     <defs>
      <path id="CMSS17-31" d="M 1818 4288 
L 1696 4288 
C 1350 3949 947 3902 538 3891 
L 538 3520 
C 723 3526 1024 3539 1325 3673 
L 1325 371 
L 570 371 
L 570 0 
L 2573 0 
L 2573 371 
L 1818 371 
L 1818 4288 
z
" transform="scale(0.015625)"/>
      <path id="CMSS17-6e" d="M 2618 1878 
C 2618 2283 2522 2816 1798 2816 
C 1389 2816 1120 2604 941 2386 
L 941 2783 
L 474 2783 
L 474 0 
L 960 0 
L 960 1556 
C 960 1962 1114 2425 1549 2425 
C 2112 2425 2131 2045 2131 1826 
L 2131 0 
L 2618 0 
L 2618 1878 
z
" transform="scale(0.015625)"/>
      <path id="CMSS17-65" d="M 2502 1375 
C 2502 1587 2490 2001 2285 2347 
C 2061 2713 1696 2816 1421 2816 
C 755 2816 192 2184 192 1363 
C 192 579 774 -64 1510 -64 
C 1798 -64 2150 19 2470 249 
C 2470 275 2458 414 2451 421 
C 2451 433 2432 629 2432 655 
C 2125 408 1773 326 1517 326 
C 1107 326 666 667 646 1375 
L 2502 1375 
z
M 698 1728 
C 781 2086 1062 2425 1421 2425 
C 1517 2425 1965 2412 2080 1728 
L 698 1728 
z
" transform="scale(0.015625)"/>
      <path id="CMSS17-75" d="M 2618 2752 
L 2131 2752 
L 2131 976 
C 2131 500 1786 307 1421 307 
C 998 307 960 448 960 712 
L 960 2752 
L 474 2752 
L 474 680 
C 474 179 646 -64 1088 -64 
C 1306 -64 1798 -13 2144 307 
L 2144 -13 
L 2618 -13 
L 2618 2752 
z
" transform="scale(0.015625)"/>
      <path id="CMSS17-72" d="M 954 1369 
C 954 1974 1395 2379 1958 2392 
L 1958 2816 
C 1549 2809 1165 2604 934 2270 
L 934 2783 
L 480 2783 
L 480 0 
L 954 0 
L 954 1369 
z
" transform="scale(0.015625)"/>
      <path id="CMSS17-6f" d="M 2829 1356 
C 2829 2175 2221 2816 1504 2816 
C 768 2816 173 2156 173 1356 
C 173 544 787 -64 1498 -64 
C 2227 -64 2829 563 2829 1356 
z
M 1504 339 
C 1050 339 659 710 659 1407 
C 659 2150 1114 2425 1498 2425 
C 1914 2425 2342 2124 2342 1407 
C 2342 684 1926 339 1504 339 
z
" transform="scale(0.015625)"/>
      <path id="CMSS17-73" d="M 2061 2623 
C 1683 2803 1389 2816 1197 2816 
C 742 2816 198 2655 198 2009 
C 198 1363 902 1222 1094 1183 
C 1389 1126 1715 1062 1715 742 
C 1715 339 1254 339 1171 339 
C 915 339 563 409 243 639 
L 166 211 
C 531 0 883 -64 1178 -64 
C 1965 -64 2163 416 2163 780 
C 2163 1094 1984 1305 1862 1401 
C 1651 1567 1574 1587 1050 1695 
C 960 1708 646 1779 646 2067 
C 646 2431 1050 2431 1139 2431 
C 1555 2431 1811 2303 1984 2207 
L 2061 2623 
z
" transform="scale(0.015625)"/>
     </defs>
     <use xlink:href="#CMSS17-31" transform="scale(0.996264)"/>
     <use xlink:href="#CMSS17-6e" transform="translate(78.072736 0) scale(0.996264)"/>
     <use xlink:href="#CMSS17-65" transform="translate(126.277679 0) scale(0.996264)"/>
     <use xlink:href="#CMSS17-75" transform="translate(167.916501 0) scale(0.996264)"/>
     <use xlink:href="#CMSS17-72" transform="translate(216.121445 0) scale(0.996264)"/>
     <use xlink:href="#CMSS17-6f" transform="translate(248.031217 0) scale(0.996264)"/>
     <use xlink:href="#CMSS17-6e" transform="translate(294.874841 0) scale(0.996264)"/>
     <use xlink:href="#CMSS17-73" transform="translate(343.079784 0) scale(0.996264)"/>
    </g>
   </g>
  </g>
  <g id="axes_2">
   <g id="patch_7">
    <path d="M 30.404295 160.632362 
L 388.8 160.632362 
L 388.8 89.266181 
L 30.404295 89.266181 
z
" style="fill: #ffffff"/>
   </g>
   <g id="matplotlib.axis_3">
    <g id="xtick_4">
     <g id="line2d_9">
      <g>
       <use xlink:href="#m6848c82c40" x="46.695009" y="160.632362" style="stroke: #000000; stroke-width: 0.8"/>
      </g>
     </g>
    </g>
    <g id="xtick_5">
     <g id="line2d_10">
      <g>
       <use xlink:href="#m6848c82c40" x="209.602147" y="160.632362" style="stroke: #000000; stroke-width: 0.8"/>
      </g>
     </g>
    </g>
    <g id="xtick_6">
     <g id="line2d_11">
      <g>
       <use xlink:href="#m6848c82c40" x="372.509286" y="160.632362" style="stroke: #000000; stroke-width: 0.8"/>
      </g>
     </g>
    </g>
   </g>
   <g id="matplotlib.axis_4">
    <g id="ytick_4">
     <g id="line2d_12">
      <g>
       <use xlink:href="#md06b1b959e" x="30.404295" y="150.633152" style="stroke: #000000; stroke-width: 0.8"/>
      </g>
     </g>
     <g id="text_6">
      <!-- $\mathdefault{0}$ -->
      <g transform="translate(19.170112 153.400553) scale(0.08 -0.08)">
       <use xlink:href="#CMR17-30" transform="scale(0.996264)"/>
      </g>
     </g>
    </g>
    <g id="ytick_5">
     <g id="line2d_13">
      <g>
       <use xlink:href="#md06b1b959e" x="30.404295" y="126.5022" style="stroke: #000000; stroke-width: 0.8"/>
      </g>
     </g>
     <g id="text_7">
      <!-- $\mathdefault{1}$ -->
      <g transform="translate(19.170112 129.269601) scale(0.08 -0.08)">
       <use xlink:href="#CMR17-31" transform="scale(0.996264)"/>
      </g>
     </g>
    </g>
    <g id="ytick_6">
     <g id="line2d_14">
      <g>
       <use xlink:href="#md06b1b959e" x="30.404295" y="102.371248" style="stroke: #000000; stroke-width: 0.8"/>
      </g>
     </g>
     <g id="text_8">
      <!-- $\mathdefault{2}$ -->
      <g transform="translate(19.170112 105.138649) scale(0.08 -0.08)">
       <use xlink:href="#CMR17-32" transform="scale(0.996264)"/>
      </g>
     </g>
    </g>
    <g id="text_9">
     <!-- $f(x)$ -->
     <g transform="translate(13.177584 133.099358) rotate(-90) scale(0.08 -0.08)">
      <use xlink:href="#CMMI12-66" transform="scale(0.996264)"/>
      <use xlink:href="#CMR17-28" transform="translate(58.720305 0) scale(0.996264)"/>
      <use xlink:href="#CMMI12-78" transform="translate(94.001073 0) scale(0.996264)"/>
      <use xlink:href="#CMR17-29" transform="translate(149.435132 0) scale(0.996264)"/>
     </g>
    </g>
   </g>
   <g id="line2d_15">
    <path d="M 30.404295 125.575296 
L 34.024454 123.603595 
L 37.644612 121.859902 
L 41.264771 120.363355 
L 44.884929 119.129991 
L 48.505088 118.172545 
L 52.125247 117.500296 
L 55.745405 117.118947 
L 59.365564 117.030555 
L 62.985723 117.233507 
L 66.605881 117.722533 
L 70.22604 118.488774 
L 73.846199 119.51989 
L 77.466357 120.800206 
L 81.086516 122.31091 
L 84.706674 124.03028 
L 88.326833 125.933951 
L 91.946992 127.995214 
L 95.56715 130.185343 
L 99.187309 132.473949 
L 102.807468 134.829354 
L 106.427626 137.218977 
L 110.047785 139.609735 
L 113.667944 141.968452 
L 117.288102 144.262262 
L 120.908261 146.459016 
L 124.528419 148.527676 
L 128.148578 150.438692 
L 131.768737 152.164372 
L 135.388895 153.679212 
L 139.009054 154.960218 
L 142.629213 155.98718 
L 146.249371 156.742924 
L 149.86953 157.213519 
L 153.489689 157.388445 
L 157.109847 157.260725 
L 160.730006 156.827007 
L 164.350165 156.087599 
L 167.970323 155.046468 
L 171.590482 153.711185 
L 175.21064 152.092834 
L 178.830799 150.205863 
L 182.450958 148.067914 
L 186.071116 145.699596 
L 189.691275 143.12423 
L 193.311434 140.367558 
L 196.931592 137.457423 
L 200.551751 134.423422 
L 204.17191 131.296538 
L 207.792068 128.108757 
L 211.412227 124.892665 
L 215.032385 121.681047 
L 218.652544 118.506481 
L 222.272703 115.400926 
L 225.892861 112.395331 
L 229.51302 109.519246 
L 233.133179 106.800455 
L 236.753337 104.264629 
L 240.373496 101.935006 
L 243.993655 99.832101 
L 247.613813 97.973447 
L 251.233972 96.373377 
L 254.85413 95.042842 
L 258.474289 93.989271 
L 262.094448 93.216474 
L 265.714606 92.724594 
L 269.334765 92.510098 
L 272.954924 92.565816 
L 276.575082 92.881025 
L 280.195241 93.441575 
L 283.8154 94.230062 
L 287.435558 95.226033 
L 291.055717 96.406236 
L 294.675875 97.744901 
L 298.296034 99.21405 
L 301.916193 100.783839 
L 305.536351 102.422921 
L 309.15651 104.098821 
L 312.776669 105.778338 
L 316.396827 107.427943 
L 320.016986 109.014189 
L 323.637145 110.504116 
L 327.257303 111.865649 
L 330.877462 113.067991 
L 334.49762 114.081992 
L 338.117779 114.880504 
L 341.737938 115.438707 
L 345.358096 115.734408 
L 348.978255 115.748308 
L 352.598414 115.464232 
L 356.218572 114.86932 
L 359.838731 113.954177 
L 363.45889 112.712983 
L 367.079048 111.143554 
L 370.699207 109.24736 
L 374.319365 107.029501 
L 377.939524 104.498631 
L 381.559683 101.666847 
L 385.179841 98.549526 
L 388.8 95.165126 
" clip-path="url(#p3f976a6001)" style="fill: none; stroke-dasharray: 16.65,7.2; stroke-dashoffset: 0; stroke: #cecece; stroke-width: 4.5"/>
   </g>
   <g id="line2d_16">
    <path d="M 30.404295 137.344941 
L 34.024454 137.342029 
L 37.644612 137.338998 
L 41.264771 137.335842 
L 44.884929 137.332552 
L 48.505088 137.32912 
L 52.125247 137.325538 
L 55.745405 137.321792 
L 59.365564 137.317874 
L 62.985723 137.31377 
L 66.605881 137.309468 
L 70.22604 137.304952 
L 73.846199 137.300208 
L 77.466357 137.295215 
L 81.086516 137.289953 
L 84.706674 137.284403 
L 88.326833 137.278538 
L 91.946992 137.272332 
L 95.56715 137.265751 
L 99.187309 137.258765 
L 102.807468 137.25133 
L 106.427626 137.243406 
L 110.047785 137.234942 
L 113.667944 137.22588 
L 117.288102 137.216153 
L 120.908261 137.205687 
L 124.528419 137.194396 
L 128.148578 137.182173 
L 131.768737 137.168901 
L 135.388895 137.154442 
L 139.009054 137.138624 
L 142.629213 137.12125 
L 146.249371 137.102078 
L 149.86953 137.08081 
L 153.489689 137.057087 
L 157.109847 137.030456 
L 160.730006 137.000349 
L 164.350165 136.966038 
L 167.970323 136.92658 
L 171.590482 136.880716 
L 175.21064 136.826759 
L 178.830799 136.762358 
L 182.450958 136.684167 
L 186.071116 136.587234 
L 189.691275 136.463925 
L 193.311434 136.301833 
L 196.931592 136.079372 
L 200.551751 135.75546 
L 204.17191 135.241527 
L 207.792068 134.307913 
L 211.412227 132.156989 
L 215.032385 124.852712 
L 218.652544 112.114941 
L 222.272703 107.925228 
L 225.892861 106.466585 
L 229.51302 105.754567 
L 233.133179 105.336303 
L 236.753337 105.061862 
L 240.373496 104.868177 
L 243.993655 104.724265 
L 247.613813 104.613159 
L 251.233972 104.524806 
L 254.85413 104.452874 
L 258.474289 104.393183 
L 262.094448 104.342853 
L 265.714606 104.299847 
L 269.334765 104.262669 
L 272.954924 104.230222 
L 276.575082 104.201644 
L 280.195241 104.176297 
L 283.8154 104.153645 
L 287.435558 104.133295 
L 291.055717 104.114908 
L 294.675875 104.098211 
L 298.296034 104.082982 
L 301.916193 104.069037 
L 305.536351 104.056226 
L 309.15651 104.044402 
L 312.776669 104.03347 
L 316.396827 104.023321 
L 320.016986 104.013881 
L 323.637145 104.005078 
L 327.257303 103.996845 
L 330.877462 103.98913 
L 334.49762 103.981891 
L 338.117779 103.975078 
L 341.737938 103.96866 
L 345.358096 103.962595 
L 348.978255 103.956867 
L 352.598414 103.95144 
L 356.218572 103.946297 
L 359.838731 103.941406 
L 363.45889 103.936758 
L 367.079048 103.932338 
L 370.699207 103.92812 
L 374.319365 103.924095 
L 377.939524 103.920253 
L 381.559683 103.916575 
L 385.179841 103.913055 
L 388.8 103.909684 
" clip-path="url(#p3f976a6001)" style="fill: none; stroke: #2255a0; stroke-opacity: 0.4; stroke-linecap: square"/>
   </g>
   <g id="line2d_17">
    <path d="M 30.404295 113.922117 
L 34.024454 114.689465 
L 37.644612 115.483508 
L 41.264771 116.305442 
L 44.884929 117.156466 
L 48.505088 118.037774 
L 52.125247 118.950658 
L 55.745405 119.896495 
L 59.365564 120.876298 
L 62.985723 121.891451 
L 66.605881 122.94324 
L 70.22604 124.032955 
L 73.846199 125.161793 
L 77.466357 126.330489 
L 81.086516 127.540147 
L 84.706674 128.791782 
L 88.326833 130.085668 
L 91.946992 131.422084 
L 95.56715 132.800659 
L 99.187309 134.220749 
L 102.807468 135.68125 
L 106.427626 137.179585 
L 110.047785 138.712808 
L 113.667944 140.276546 
L 117.288102 141.864632 
L 120.908261 143.469609 
L 124.528419 145.081583 
L 128.148578 146.688125 
L 131.768737 148.27414 
L 135.388895 149.820618 
L 139.009054 151.305145 
L 142.629213 152.700888 
L 146.249371 153.976686 
L 149.86953 155.096548 
L 153.489689 156.020155 
L 157.109847 156.703321 
L 160.730006 157.099237 
L 164.350165 157.159877 
L 167.970323 156.838776 
L 171.590482 156.094257 
L 175.21064 154.893159 
L 178.830799 153.215 
L 182.450958 151.05604 
L 186.071116 148.432435 
L 189.691275 145.382139 
L 193.311434 141.96444 
L 196.931592 138.257615 
L 200.551751 134.35405 
L 204.17191 130.353851 
L 207.792068 126.357714 
L 211.412227 122.459942 
L 215.032385 118.742987 
L 218.652544 115.273214 
L 222.272703 112.099412 
L 225.892861 109.252583 
L 229.51302 106.747517 
L 233.133179 104.585302 
L 236.753337 102.755855 
L 240.373496 101.241502 
L 243.993655 100.019002 
L 247.613813 99.062026 
L 251.233972 98.343098 
L 254.85413 97.835064 
L 258.474289 97.511268 
L 262.094448 97.347322 
L 265.714606 97.320536 
L 269.334765 97.410562 
L 272.954924 97.598947 
L 276.575082 97.869858 
L 280.195241 98.20907 
L 283.8154 98.604342 
L 287.435558 99.045086 
L 291.055717 99.52238 
L 294.675875 100.028116 
L 298.296034 100.555756 
L 301.916193 101.09988 
L 305.536351 101.655324 
L 309.15651 102.218316 
L 312.776669 102.785449 
L 316.396827 103.353779 
L 320.016986 103.921097 
L 323.637145 104.48547 
L 327.257303 105.044965 
L 330.877462 105.598659 
L 334.49762 106.145358 
L 338.117779 106.684231 
L 341.737938 107.214451 
L 345.358096 107.735745 
L 348.978255 108.247372 
L 352.598414 108.749423 
L 356.218572 109.241719 
L 359.838731 109.723797 
L 363.45889 110.195751 
L 367.079048 110.657759 
L 370.699207 111.109829 
L 374.319365 111.551678 
L 377.939524 111.983864 
L 381.559683 112.406293 
L 385.179841 112.819239 
L 388.8 113.222703 
" clip-path="url(#p3f976a6001)" style="fill: none; stroke: #2255a0; stroke-opacity: 0.9; stroke-width: 1.5; stroke-linecap: square"/>
   </g>
   <g id="patch_8">
    <path d="M 30.404295 160.632362 
L 30.404295 89.266181 
" style="fill: none; stroke: #000000; stroke-width: 0.8; stroke-linejoin: miter; stroke-linecap: square"/>
   </g>
   <g id="patch_9">
    <path d="M 388.8 160.632362 
L 388.8 89.266181 
" style="fill: none; stroke: #000000; stroke-width: 0.8; stroke-linejoin: miter; stroke-linecap: square"/>
   </g>
   <g id="patch_10">
    <path d="M 30.404295 160.632362 
L 388.8 160.632362 
" style="fill: none; stroke: #000000; stroke-width: 0.8; stroke-linejoin: miter; stroke-linecap: square"/>
   </g>
   <g id="patch_11">
    <path d="M 30.404295 89.266181 
L 388.8 89.266181 
" style="fill: none; stroke: #000000; stroke-width: 0.8; stroke-linejoin: miter; stroke-linecap: square"/>
   </g>
   <g id="text_10">
    <!-- 2 neurons -->
    <g style="fill: #2255a0" transform="translate(37.572209 100.488464) scale(0.09 -0.09)">
     <defs>
      <path id="CMSS17-32" d="M 1651 1353 
C 1830 1538 2099 1761 2285 1984 
C 2464 2201 2701 2507 2701 2953 
C 2701 3655 2227 4288 1421 4288 
C 787 4288 422 3891 250 3272 
L 499 2928 
C 640 3508 838 3878 1338 3878 
C 1888 3878 2195 3431 2195 2940 
C 2195 2354 1747 1901 1408 1563 
C 1030 1187 659 805 301 409 
L 301 0 
L 2701 0 
L 2701 435 
L 1613 435 
C 1536 435 1459 428 1382 428 
L 742 428 
L 742 435 
L 1651 1353 
z
" transform="scale(0.015625)"/>
     </defs>
     <use xlink:href="#CMSS17-32" transform="scale(0.996264)"/>
     <use xlink:href="#CMSS17-6e" transform="translate(78.072736 0) scale(0.996264)"/>
     <use xlink:href="#CMSS17-65" transform="translate(126.277679 0) scale(0.996264)"/>
     <use xlink:href="#CMSS17-75" transform="translate(167.916501 0) scale(0.996264)"/>
     <use xlink:href="#CMSS17-72" transform="translate(216.121445 0) scale(0.996264)"/>
     <use xlink:href="#CMSS17-6f" transform="translate(248.031217 0) scale(0.996264)"/>
     <use xlink:href="#CMSS17-6e" transform="translate(294.874841 0) scale(0.996264)"/>
     <use xlink:href="#CMSS17-73" transform="translate(343.079784 0) scale(0.996264)"/>
    </g>
   </g>
  </g>
  <g id="axes_3">
   <g id="patch_12">
    <path d="M 30.404295 242.698543 
L 388.8 242.698543 
L 388.8 171.332362 
L 30.404295 171.332362 
z
" style="fill: #ffffff"/>
   </g>
   <g id="matplotlib.axis_5">
    <g id="xtick_7">
     <g id="line2d_18">
      <g>
       <use xlink:href="#m6848c82c40" x="46.695009" y="242.698543" style="stroke: #000000; stroke-width: 0.8"/>
      </g>
     </g>
    </g>
    <g id="xtick_8">
     <g id="line2d_19">
      <g>
       <use xlink:href="#m6848c82c40" x="209.602147" y="242.698543" style="stroke: #000000; stroke-width: 0.8"/>
      </g>
     </g>
    </g>
    <g id="xtick_9">
     <g id="line2d_20">
      <g>
       <use xlink:href="#m6848c82c40" x="372.509286" y="242.698543" style="stroke: #000000; stroke-width: 0.8"/>
      </g>
     </g>
    </g>
   </g>
   <g id="matplotlib.axis_6">
    <g id="ytick_7">
     <g id="line2d_21">
      <g>
       <use xlink:href="#md06b1b959e" x="30.404295" y="232.641007" style="stroke: #000000; stroke-width: 0.8"/>
      </g>
     </g>
     <g id="text_11">
      <!-- $\mathdefault{0}$ -->
      <g transform="translate(19.170112 235.408408) scale(0.08 -0.08)">
       <use xlink:href="#CMR17-30" transform="scale(0.996264)"/>
      </g>
     </g>
    </g>
    <g id="ytick_8">
     <g id="line2d_22">
      <g>
       <use xlink:href="#md06b1b959e" x="30.404295" y="208.631243" style="stroke: #000000; stroke-width: 0.8"/>
      </g>
     </g>
     <g id="text_12">
      <!-- $\mathdefault{1}$ -->
      <g transform="translate(19.170112 211.398644) scale(0.08 -0.08)">
       <use xlink:href="#CMR17-31" transform="scale(0.996264)"/>
      </g>
     </g>
    </g>
    <g id="ytick_9">
     <g id="line2d_23">
      <g>
       <use xlink:href="#md06b1b959e" x="30.404295" y="184.621479" style="stroke: #000000; stroke-width: 0.8"/>
      </g>
     </g>
     <g id="text_13">
      <!-- $\mathdefault{2}$ -->
      <g transform="translate(19.170112 187.38888) scale(0.08 -0.08)">
       <use xlink:href="#CMR17-32" transform="scale(0.996264)"/>
      </g>
     </g>
    </g>
    <g id="text_14">
     <!-- $f(x)$ -->
     <g transform="translate(13.177584 215.165539) rotate(-90) scale(0.08 -0.08)">
      <use xlink:href="#CMMI12-66" transform="scale(0.996264)"/>
      <use xlink:href="#CMR17-28" transform="translate(58.720305 0) scale(0.996264)"/>
      <use xlink:href="#CMMI12-78" transform="translate(94.001073 0) scale(0.996264)"/>
      <use xlink:href="#CMR17-29" transform="translate(149.435132 0) scale(0.996264)"/>
     </g>
    </g>
   </g>
   <g id="line2d_24">
    <path d="M 30.404295 207.708994 
L 34.024454 205.747195 
L 37.644612 204.012259 
L 41.264771 202.523228 
L 44.884929 201.296058 
L 48.505088 200.34342 
L 52.125247 199.674547 
L 55.745405 199.295113 
L 59.365564 199.207166 
L 62.985723 199.409098 
L 66.605881 199.895668 
L 70.22604 200.658061 
L 73.846199 201.683998 
L 77.466357 202.957885 
L 81.086516 204.461002 
L 84.706674 206.171737 
L 88.326833 208.065848 
L 91.946992 210.116759 
L 95.56715 212.295889 
L 99.187309 214.573002 
L 102.807468 216.916577 
L 106.427626 219.294199 
L 110.047785 221.672951 
L 113.667944 224.019822 
L 117.288102 226.302112 
L 120.908261 228.487834 
L 124.528419 230.546105 
L 128.148578 232.447524 
L 131.768737 234.164536 
L 135.388895 235.671769 
L 139.009054 236.946342 
L 142.629213 237.968147 
L 146.249371 238.720095 
L 149.86953 239.188326 
L 153.489689 239.362374 
L 157.109847 239.235296 
L 160.730006 238.803755 
L 164.350165 238.068061 
L 167.970323 237.032158 
L 171.590482 235.703582 
L 175.21064 234.093358 
L 178.830799 232.215864 
L 182.450958 230.088652 
L 186.071116 227.732228 
L 189.691275 225.169796 
L 193.311434 222.426968 
L 196.931592 219.531448 
L 200.551751 216.512684 
L 204.17191 213.401504 
L 207.792068 210.229731 
L 211.412227 207.029791 
L 215.032385 203.834303 
L 218.652544 200.675679 
L 222.272703 197.585721 
L 225.892861 194.59522 
L 229.51302 191.733579 
L 233.133179 189.028442 
L 236.753337 186.505351 
L 240.373496 184.187428 
L 243.993655 182.095084 
L 247.613813 180.245764 
L 251.233972 178.65373 
L 254.85413 177.329877 
L 258.474289 176.281597 
L 262.094448 175.512681 
L 265.714606 175.023272 
L 269.334765 174.809853 
L 272.954924 174.865291 
L 276.575082 175.178916 
L 280.195241 175.736652 
L 283.8154 176.521179 
L 287.435558 177.512148 
L 291.055717 178.686424 
L 294.675875 180.018366 
L 298.296034 181.480137 
L 301.916193 183.042043 
L 305.536351 184.672892 
L 309.15651 186.340376 
L 312.776669 188.011458 
L 316.396827 189.652779 
L 320.016986 191.231059 
L 323.637145 192.713503 
L 327.257303 194.068198 
L 330.877462 195.264502 
L 334.49762 196.27341 
L 338.117779 197.067912 
L 341.737938 197.623311 
L 345.358096 197.917528 
L 348.978255 197.931358 
L 352.598414 197.648709 
L 356.218572 197.056784 
L 359.838731 196.146238 
L 363.45889 194.911277 
L 367.079048 193.349729 
L 370.699207 191.463058 
L 374.319365 189.256337 
L 377.939524 186.738178 
L 381.559683 183.920616 
L 385.179841 180.81895 
L 388.8 177.451547 
" clip-path="url(#pa06f08d3d0)" style="fill: none; stroke-dasharray: 16.65,7.2; stroke-dashoffset: 0; stroke: #cecece; stroke-width: 4.5"/>
   </g>
   <g id="line2d_25">
    <path d="M 30.404295 219.419531 
L 34.024454 219.416633 
L 37.644612 219.413617 
L 41.264771 219.410477 
L 44.884929 219.407203 
L 48.505088 219.403789 
L 52.125247 219.400225 
L 55.745405 219.396498 
L 59.365564 219.392599 
L 62.985723 219.388516 
L 66.605881 219.384236 
L 70.22604 219.379742 
L 73.846199 219.375022 
L 77.466357 219.370054 
L 81.086516 219.364819 
L 84.706674 219.359296 
L 88.326833 219.353461 
L 91.946992 219.347287 
L 95.56715 219.340738 
L 99.187309 219.333787 
L 102.807468 219.32639 
L 106.427626 219.318505 
L 110.047785 219.310084 
L 113.667944 219.301068 
L 117.288102 219.291389 
L 120.908261 219.280975 
L 124.528419 219.269741 
L 128.148578 219.25758 
L 131.768737 219.244375 
L 135.388895 219.229988 
L 139.009054 219.21425 
L 142.629213 219.196963 
L 146.249371 219.177887 
L 149.86953 219.156726 
L 153.489689 219.133122 
L 157.109847 219.106625 
L 160.730006 219.076669 
L 164.350165 219.042531 
L 167.970323 219.00327 
L 171.590482 218.957637 
L 175.21064 218.903951 
L 178.830799 218.839874 
L 182.450958 218.762075 
L 186.071116 218.665629 
L 189.691275 218.542939 
L 193.311434 218.381661 
L 196.931592 218.160317 
L 200.551751 217.838032 
L 204.17191 217.32668 
L 207.792068 216.397754 
L 211.412227 214.257633 
L 215.032385 206.990039 
L 218.652544 194.316238 
L 222.272703 190.147567 
L 225.892861 188.696248 
L 229.51302 187.987807 
L 233.133179 187.571643 
L 236.753337 187.29858 
L 240.373496 187.105868 
L 243.993655 186.962679 
L 247.613813 186.852131 
L 251.233972 186.764221 
L 254.85413 186.692651 
L 258.474289 186.63326 
L 262.094448 186.583183 
L 265.714606 186.540393 
L 269.334765 186.503401 
L 272.954924 186.471117 
L 276.575082 186.442682 
L 280.195241 186.417463 
L 283.8154 186.394925 
L 287.435558 186.374677 
L 291.055717 186.356382 
L 294.675875 186.339769 
L 298.296034 186.324617 
L 301.916193 186.310742 
L 305.536351 186.297995 
L 309.15651 186.28623 
L 312.776669 186.275354 
L 316.396827 186.265255 
L 320.016986 186.255863 
L 323.637145 186.247104 
L 327.257303 186.238912 
L 330.877462 186.231236 
L 334.49762 186.224033 
L 338.117779 186.217255 
L 341.737938 186.210868 
L 345.358096 186.204835 
L 348.978255 186.199135 
L 352.598414 186.193735 
L 356.218572 186.188618 
L 359.838731 186.183752 
L 363.45889 186.179127 
L 367.079048 186.174729 
L 370.699207 186.170532 
L 374.319365 186.166527 
L 377.939524 186.162705 
L 381.559683 186.159046 
L 385.179841 186.155543 
L 388.8 186.152188 
" clip-path="url(#pa06f08d3d0)" style="fill: none; stroke: #2255a0; stroke-opacity: 0.4; stroke-linecap: square"/>
   </g>
   <g id="line2d_26">
    <path d="M 30.404295 196.114339 
L 34.024454 196.877832 
L 37.644612 197.667888 
L 41.264771 198.485694 
L 44.884929 199.332444 
L 48.505088 200.209326 
L 52.125247 201.117625 
L 55.745405 202.058712 
L 59.365564 203.033595 
L 62.985723 204.04365 
L 66.605881 205.090156 
L 70.22604 206.174398 
L 73.846199 207.297568 
L 77.466357 208.460394 
L 81.086516 209.663978 
L 84.706674 210.909326 
L 88.326833 212.196715 
L 91.946992 213.526419 
L 95.56715 214.89807 
L 99.187309 216.311029 
L 102.807468 217.764195 
L 106.427626 219.255005 
L 110.047785 220.780528 
L 113.667944 222.336413 
L 117.288102 223.916523 
L 120.908261 225.51344 
L 124.528419 227.117318 
L 128.148578 228.715792 
L 131.768737 230.293842 
L 135.388895 231.832553 
L 139.009054 233.309625 
L 142.629213 234.698358 
L 146.249371 235.967749 
L 149.86953 237.081987 
L 153.489689 238.000956 
L 157.109847 238.68069 
L 160.730006 239.074619 
L 164.350165 239.134954 
L 167.970323 238.815465 
L 171.590482 238.074685 
L 175.21064 236.879619 
L 178.830799 235.209888 
L 182.450958 233.061771 
L 186.071116 230.451342 
L 189.691275 227.416365 
L 193.311434 224.01583 
L 196.931592 220.327621 
L 200.551751 216.44366 
L 204.17191 212.463551 
L 207.792068 208.487482 
L 211.412227 204.609286 
L 215.032385 200.910997 
L 218.652544 197.45865 
L 222.272703 194.300788 
L 225.892861 191.468255 
L 229.51302 188.97577 
L 233.133179 186.824414 
L 236.753337 185.004154 
L 240.373496 183.497407 
L 243.993655 182.281046 
L 247.613813 181.328877 
L 251.233972 180.613558 
L 254.85413 180.108076 
L 258.474289 179.785906 
L 262.094448 179.622784 
L 265.714606 179.596133 
L 269.334765 179.685706 
L 272.954924 179.873145 
L 276.575082 180.142696 
L 280.195241 180.480203 
L 283.8154 180.873491 
L 287.435558 181.312022 
L 291.055717 181.786918 
L 294.675875 182.290115 
L 298.296034 182.815105 
L 301.916193 183.356496 
L 305.536351 183.909151 
L 309.15651 184.469315 
L 312.776669 185.0336 
L 316.396827 185.599075 
L 320.016986 186.163545 
L 323.637145 186.725083 
L 327.257303 187.281768 
L 330.877462 187.832682 
L 334.49762 188.376635 
L 338.117779 188.912802 
L 341.737938 189.440359 
L 345.358096 189.959035 
L 348.978255 190.468092 
L 352.598414 190.967623 
L 356.218572 191.457446 
L 359.838731 191.937103 
L 363.45889 192.406686 
L 367.079048 192.866375 
L 370.699207 193.316174 
L 374.319365 193.755804 
L 377.939524 194.185819 
L 381.559683 194.606127 
L 385.179841 195.016999 
L 388.8 195.418437 
" clip-path="url(#pa06f08d3d0)" style="fill: none; stroke: #2255a0; stroke-opacity: 0.4; stroke-linecap: square"/>
   </g>
   <g id="line2d_27">
    <path d="M 30.404295 207.514177 
L 34.024454 205.637819 
L 37.644612 203.989015 
L 41.264771 202.577477 
L 44.884929 201.412362 
L 48.505088 200.501957 
L 52.125247 199.853089 
L 55.745405 199.471158 
L 59.365564 199.359875 
L 62.985723 199.520661 
L 66.605881 199.952921 
L 70.22604 200.652623 
L 73.846199 201.613401 
L 77.466357 202.825183 
L 81.086516 204.274503 
L 84.706674 205.944416 
L 88.326833 207.814364 
L 91.946992 209.859934 
L 95.56715 212.053422 
L 99.187309 214.364238 
L 102.807468 216.758537 
L 106.427626 219.200968 
L 110.047785 221.654113 
L 113.667944 224.080011 
L 117.288102 226.440651 
L 120.908261 228.698619 
L 124.528419 230.818057 
L 128.148578 232.765168 
L 131.768737 234.509316 
L 135.388895 236.02307 
L 139.009054 237.282661 
L 142.629213 238.268627 
L 146.249371 238.96581 
L 149.86953 239.363356 
L 153.489689 239.454626 
L 157.109847 239.237374 
L 160.730006 238.713159 
L 164.350165 237.887521 
L 167.970323 236.769208 
L 171.590482 235.370262 
L 175.21064 233.705523 
L 178.830799 231.792162 
L 182.450958 229.649781 
L 186.071116 227.299674 
L 189.691275 224.764921 
L 193.311434 222.069886 
L 196.931592 219.239847 
L 200.551751 216.301183 
L 204.17191 213.281026 
L 207.792068 210.206625 
L 211.412227 207.10603 
L 215.032385 204.006831 
L 218.652544 200.937009 
L 222.272703 197.923904 
L 225.892861 194.994696 
L 229.51302 192.175811 
L 233.133179 189.492636 
L 236.753337 186.969675 
L 240.373496 184.629962 
L 243.993655 182.494863 
L 247.613813 180.583952 
L 251.233972 178.91445 
L 254.85413 177.501058 
L 258.474289 176.355792 
L 262.094448 175.487313 
L 265.714606 174.900829 
L 269.334765 174.597975 
L 272.954924 174.576279 
L 276.575082 174.828965 
L 280.195241 175.345269 
L 283.8154 176.109841 
L 287.435558 177.103259 
L 291.055717 178.301966 
L 294.675875 179.678585 
L 298.296034 181.202427 
L 301.916193 182.839859 
L 305.536351 184.555044 
L 309.15651 186.310456 
L 312.776669 188.067781 
L 316.396827 189.788448 
L 320.016986 191.434733 
L 323.637145 192.96985 
L 327.257303 194.359395 
L 330.877462 195.571072 
L 334.49762 196.575883 
L 338.117779 197.347862 
L 341.737938 197.864749 
L 345.358096 198.107944 
L 348.978255 198.062344 
L 352.598414 197.716683 
L 356.218572 197.06289 
L 359.838731 196.096502 
L 363.45889 194.815617 
L 367.079048 193.2214 
L 370.699207 191.317246 
L 374.319365 189.108506 
L 377.939524 186.602696 
L 381.559683 183.808562 
L 385.179841 180.736061 
L 388.8 177.396233 
" clip-path="url(#pa06f08d3d0)" style="fill: none; stroke: #2255a0; stroke-opacity: 0.9; stroke-width: 1.5; stroke-linecap: square"/>
   </g>
   <g id="patch_13">
    <path d="M 30.404295 242.698543 
L 30.404295 171.332362 
" style="fill: none; stroke: #000000; stroke-width: 0.8; stroke-linejoin: miter; stroke-linecap: square"/>
   </g>
   <g id="patch_14">
    <path d="M 388.8 242.698543 
L 388.8 171.332362 
" style="fill: none; stroke: #000000; stroke-width: 0.8; stroke-linejoin: miter; stroke-linecap: square"/>
   </g>
   <g id="patch_15">
    <path d="M 30.404295 242.698543 
L 388.8 242.698543 
" style="fill: none; stroke: #000000; stroke-width: 0.8; stroke-linejoin: miter; stroke-linecap: square"/>
   </g>
   <g id="patch_16">
    <path d="M 30.404295 171.332362 
L 388.8 171.332362 
" style="fill: none; stroke: #000000; stroke-width: 0.8; stroke-linejoin: miter; stroke-linecap: square"/>
   </g>
   <g id="text_15">
    <!-- 3 neurons -->
    <g style="fill: #2255a0" transform="translate(37.572209 182.554645) scale(0.09 -0.09)">
     <defs>
      <path id="CMSS17-33" d="M 1005 2060 
L 1440 2060 
C 2042 2060 2214 1532 2214 1164 
C 2214 662 1933 268 1472 268 
C 1114 268 608 449 320 926 
C 275 700 275 687 250 533 
C 550 89 1037 -128 1485 -128 
C 2214 -128 2752 481 2752 1158 
C 2752 1667 2400 2092 1920 2252 
C 2304 2463 2586 2860 2586 3321 
C 2586 3859 2093 4288 1491 4288 
C 941 4288 512 3948 333 3583 
C 378 3519 493 3334 550 3238 
C 691 3615 1056 3897 1485 3897 
C 1843 3897 2080 3660 2080 3321 
C 2080 2969 1856 2585 1478 2496 
C 1453 2496 1056 2457 1005 2451 
L 1005 2060 
z
" transform="scale(0.015625)"/>
     </defs>
     <use xlink:href="#CMSS17-33" transform="scale(0.996264)"/>
     <use xlink:href="#CMSS17-6e" transform="translate(78.072736 0) scale(0.996264)"/>
     <use xlink:href="#CMSS17-65" transform="translate(126.277679 0) scale(0.996264)"/>
     <use xlink:href="#CMSS17-75" transform="translate(167.916501 0) scale(0.996264)"/>
     <use xlink:href="#CMSS17-72" transform="translate(216.121445 0) scale(0.996264)"/>
     <use xlink:href="#CMSS17-6f" transform="translate(248.031217 0) scale(0.996264)"/>
     <use xlink:href="#CMSS17-6e" transform="translate(294.874841 0) scale(0.996264)"/>
     <use xlink:href="#CMSS17-73" transform="translate(343.079784 0) scale(0.996264)"/>
    </g>
   </g>
  </g>
  <g id="axes_4">
   <g id="patch_17">
    <path d="M 30.404295 324.764724 
L 388.8 324.764724 
L 388.8 253.398543 
L 30.404295 253.398543 
z
" style="fill: #ffffff"/>
   </g>
   <g id="matplotlib.axis_7">
    <g id="xtick_10">
     <g id="line2d_28">
      <g>
       <use xlink:href="#m6848c82c40" x="46.695009" y="324.764724" style="stroke: #000000; stroke-width: 0.8"/>
      </g>
     </g>
    </g>
    <g id="xtick_11">
     <g id="line2d_29">
      <g>
       <use xlink:href="#m6848c82c40" x="209.602147" y="324.764724" style="stroke: #000000; stroke-width: 0.8"/>
      </g>
     </g>
    </g>
    <g id="xtick_12">
     <g id="line2d_30">
      <g>
       <use xlink:href="#m6848c82c40" x="372.509286" y="324.764724" style="stroke: #000000; stroke-width: 0.8"/>
      </g>
     </g>
    </g>
   </g>
   <g id="matplotlib.axis_8">
    <g id="ytick_10">
     <g id="line2d_31">
      <g>
       <use xlink:href="#md06b1b959e" x="30.404295" y="314.707188" style="stroke: #000000; stroke-width: 0.8"/>
      </g>
     </g>
     <g id="text_16">
      <!-- $\mathdefault{0}$ -->
      <g transform="translate(19.170112 317.474589) scale(0.08 -0.08)">
       <use xlink:href="#CMR17-30" transform="scale(0.996264)"/>
      </g>
     </g>
    </g>
    <g id="ytick_11">
     <g id="line2d_32">
      <g>
       <use xlink:href="#md06b1b959e" x="30.404295" y="290.697424" style="stroke: #000000; stroke-width: 0.8"/>
      </g>
     </g>
     <g id="text_17">
      <!-- $\mathdefault{1}$ -->
      <g transform="translate(19.170112 293.464825) scale(0.08 -0.08)">
       <use xlink:href="#CMR17-31" transform="scale(0.996264)"/>
      </g>
     </g>
    </g>
    <g id="ytick_12">
     <g id="line2d_33">
      <g>
       <use xlink:href="#md06b1b959e" x="30.404295" y="266.68766" style="stroke: #000000; stroke-width: 0.8"/>
      </g>
     </g>
     <g id="text_18">
      <!-- $\mathdefault{2}$ -->
      <g transform="translate(19.170112 269.455061) scale(0.08 -0.08)">
       <use xlink:href="#CMR17-32" transform="scale(0.996264)"/>
      </g>
     </g>
    </g>
    <g id="text_19">
     <!-- $f(x)$ -->
     <g transform="translate(13.177584 297.23172) rotate(-90) scale(0.08 -0.08)">
      <use xlink:href="#CMMI12-66" transform="scale(0.996264)"/>
      <use xlink:href="#CMR17-28" transform="translate(58.720305 0) scale(0.996264)"/>
      <use xlink:href="#CMMI12-78" transform="translate(94.001073 0) scale(0.996264)"/>
      <use xlink:href="#CMR17-29" transform="translate(149.435132 0) scale(0.996264)"/>
     </g>
    </g>
   </g>
   <g id="line2d_34">
    <path d="M 30.404295 289.775175 
L 34.024454 287.813376 
L 37.644612 286.07844 
L 41.264771 284.589409 
L 44.884929 283.362239 
L 48.505088 282.409601 
L 52.125247 281.740728 
L 55.745405 281.361294 
L 59.365564 281.273347 
L 62.985723 281.475279 
L 66.605881 281.961849 
L 70.22604 282.724243 
L 73.846199 283.750179 
L 77.466357 285.024066 
L 81.086516 286.527183 
L 84.706674 288.237918 
L 88.326833 290.132029 
L 91.946992 292.18294 
L 95.56715 294.36207 
L 99.187309 296.639183 
L 102.807468 298.982759 
L 106.427626 301.36038 
L 110.047785 303.739132 
L 113.667944 306.086003 
L 117.288102 308.368293 
L 120.908261 310.554015 
L 124.528419 312.612286 
L 128.148578 314.513705 
L 131.768737 316.230717 
L 135.388895 317.73795 
L 139.009054 319.012523 
L 142.629213 320.034328 
L 146.249371 320.786276 
L 149.86953 321.254507 
L 153.489689 321.428555 
L 157.109847 321.301477 
L 160.730006 320.869936 
L 164.350165 320.134242 
L 167.970323 319.098339 
L 171.590482 317.769763 
L 175.21064 316.159539 
L 178.830799 314.282045 
L 182.450958 312.154833 
L 186.071116 309.798409 
L 189.691275 307.235977 
L 193.311434 304.493149 
L 196.931592 301.597629 
L 200.551751 298.578865 
L 204.17191 295.467685 
L 207.792068 292.295912 
L 211.412227 289.095972 
L 215.032385 285.900484 
L 218.652544 282.74186 
L 222.272703 279.651902 
L 225.892861 276.661401 
L 229.51302 273.79976 
L 233.133179 271.094623 
L 236.753337 268.571532 
L 240.373496 266.253609 
L 243.993655 264.161265 
L 247.613813 262.311945 
L 251.233972 260.719911 
L 254.85413 259.396058 
L 258.474289 258.347778 
L 262.094448 257.578862 
L 265.714606 257.089453 
L 269.334765 256.876034 
L 272.954924 256.931472 
L 276.575082 257.245098 
L 280.195241 257.802833 
L 283.8154 258.58736 
L 287.435558 259.578329 
L 291.055717 260.752605 
L 294.675875 262.084547 
L 298.296034 263.546318 
L 301.916193 265.108224 
L 305.536351 266.739073 
L 309.15651 268.406557 
L 312.776669 270.077639 
L 316.396827 271.71896 
L 320.016986 273.29724 
L 323.637145 274.779684 
L 327.257303 276.134379 
L 330.877462 277.330683 
L 334.49762 278.339591 
L 338.117779 279.134093 
L 341.737938 279.689492 
L 345.358096 279.983709 
L 348.978255 279.997539 
L 352.598414 279.71489 
L 356.218572 279.122966 
L 359.838731 278.212419 
L 363.45889 276.977458 
L 367.079048 275.41591 
L 370.699207 273.529239 
L 374.319365 271.322518 
L 377.939524 268.804359 
L 381.559683 265.986797 
L 385.179841 262.885131 
L 388.8 259.517728 
" clip-path="url(#p979ec0b8ee)" style="fill: none; stroke-dasharray: 16.65,7.2; stroke-dashoffset: 0; stroke: #cecece; stroke-width: 4.5"/>
   </g>
   <g id="line2d_35">
    <path d="M 30.404295 301.485712 
L 34.024454 301.482814 
L 37.644612 301.479798 
L 41.264771 301.476658 
L 44.884929 301.473384 
L 48.505088 301.46997 
L 52.125247 301.466406 
L 55.745405 301.462679 
L 59.365564 301.45878 
L 62.985723 301.454697 
L 66.605881 301.450417 
L 70.22604 301.445923 
L 73.846199 301.441203 
L 77.466357 301.436235 
L 81.086516 301.431 
L 84.706674 301.425477 
L 88.326833 301.419642 
L 91.946992 301.413468 
L 95.56715 301.406919 
L 99.187309 301.399968 
L 102.807468 301.392571 
L 106.427626 301.384686 
L 110.047785 301.376265 
L 113.667944 301.367249 
L 117.288102 301.357571 
L 120.908261 301.347157 
L 124.528419 301.335922 
L 128.148578 301.323761 
L 131.768737 301.310556 
L 135.388895 301.296169 
L 139.009054 301.280431 
L 142.629213 301.263144 
L 146.249371 301.244068 
L 149.86953 301.222907 
L 153.489689 301.199303 
L 157.109847 301.172806 
L 160.730006 301.14285 
L 164.350165 301.108712 
L 167.970323 301.069451 
L 171.590482 301.023818 
L 175.21064 300.970132 
L 178.830799 300.906055 
L 182.450958 300.828256 
L 186.071116 300.73181 
L 189.691275 300.60912 
L 193.311434 300.447842 
L 196.931592 300.226498 
L 200.551751 299.904213 
L 204.17191 299.392861 
L 207.792068 298.463935 
L 211.412227 296.323814 
L 215.032385 289.05622 
L 218.652544 276.382419 
L 222.272703 272.213748 
L 225.892861 270.76243 
L 229.51302 270.053988 
L 233.133179 269.637824 
L 236.753337 269.364761 
L 240.373496 269.172049 
L 243.993655 269.02886 
L 247.613813 268.918312 
L 251.233972 268.830402 
L 254.85413 268.758832 
L 258.474289 268.699441 
L 262.094448 268.649364 
L 265.714606 268.606574 
L 269.334765 268.569582 
L 272.954924 268.537298 
L 276.575082 268.508863 
L 280.195241 268.483644 
L 283.8154 268.461106 
L 287.435558 268.440858 
L 291.055717 268.422563 
L 294.675875 268.40595 
L 298.296034 268.390798 
L 301.916193 268.376923 
L 305.536351 268.364176 
L 309.15651 268.352411 
L 312.776669 268.341535 
L 316.396827 268.331436 
L 320.016986 268.322044 
L 323.637145 268.313285 
L 327.257303 268.305093 
L 330.877462 268.297417 
L 334.49762 268.290214 
L 338.117779 268.283436 
L 341.737938 268.277049 
L 345.358096 268.271016 
L 348.978255 268.265316 
L 352.598414 268.259916 
L 356.218572 268.254799 
L 359.838731 268.249933 
L 363.45889 268.245308 
L 367.079048 268.24091 
L 370.699207 268.236713 
L 374.319365 268.232708 
L 377.939524 268.228886 
L 381.559683 268.225227 
L 385.179841 268.221724 
L 388.8 268.218369 
" clip-path="url(#p979ec0b8ee)" style="fill: none; stroke: #2255a0; stroke-opacity: 0.4; stroke-linecap: square"/>
   </g>
   <g id="line2d_36">
    <path d="M 30.404295 278.18052 
L 34.024454 278.944013 
L 37.644612 279.734069 
L 41.264771 280.551875 
L 44.884929 281.398625 
L 48.505088 282.275507 
L 52.125247 283.183806 
L 55.745405 284.124893 
L 59.365564 285.099776 
L 62.985723 286.109831 
L 66.605881 287.156337 
L 70.22604 288.240579 
L 73.846199 289.363749 
L 77.466357 290.526575 
L 81.086516 291.730159 
L 84.706674 292.975507 
L 88.326833 294.262896 
L 91.946992 295.5926 
L 95.56715 296.964251 
L 99.187309 298.37721 
L 102.807468 299.830376 
L 106.427626 301.321186 
L 110.047785 302.846709 
L 113.667944 304.402594 
L 117.288102 305.982704 
L 120.908261 307.579621 
L 124.528419 309.183499 
L 128.148578 310.781973 
L 131.768737 312.360023 
L 135.388895 313.898735 
L 139.009054 315.375806 
L 142.629213 316.764539 
L 146.249371 318.03393 
L 149.86953 319.148168 
L 153.489689 320.067137 
L 157.109847 320.746871 
L 160.730006 321.1408 
L 164.350165 321.201135 
L 167.970323 320.881646 
L 171.590482 320.140866 
L 175.21064 318.9458 
L 178.830799 317.276069 
L 182.450958 315.127952 
L 186.071116 312.517523 
L 189.691275 309.482546 
L 193.311434 306.082011 
L 196.931592 302.393802 
L 200.551751 298.509841 
L 204.17191 294.529732 
L 207.792068 290.553663 
L 211.412227 286.675467 
L 215.032385 282.977178 
L 218.652544 279.524831 
L 222.272703 276.366969 
L 225.892861 273.534436 
L 229.51302 271.041951 
L 233.133179 268.890595 
L 236.753337 267.070335 
L 240.373496 265.563588 
L 243.993655 264.347227 
L 247.613813 263.395058 
L 251.233972 262.679739 
L 254.85413 262.174257 
L 258.474289 261.852087 
L 262.094448 261.688965 
L 265.714606 261.662314 
L 269.334765 261.751887 
L 272.954924 261.939326 
L 276.575082 262.208877 
L 280.195241 262.546384 
L 283.8154 262.939672 
L 287.435558 263.378203 
L 291.055717 263.853099 
L 294.675875 264.356296 
L 298.296034 264.881286 
L 301.916193 265.422677 
L 305.536351 265.975332 
L 309.15651 266.535496 
L 312.776669 267.099781 
L 316.396827 267.665256 
L 320.016986 268.229726 
L 323.637145 268.791264 
L 327.257303 269.34795 
L 330.877462 269.898863 
L 334.49762 270.442816 
L 338.117779 270.978983 
L 341.737938 271.50654 
L 345.358096 272.025216 
L 348.978255 272.534273 
L 352.598414 273.033804 
L 356.218572 273.523627 
L 359.838731 274.003284 
L 363.45889 274.472867 
L 367.079048 274.932556 
L 370.699207 275.382355 
L 374.319365 275.821985 
L 377.939524 276.252 
L 381.559683 276.672308 
L 385.179841 277.08318 
L 388.8 277.484618 
" clip-path="url(#p979ec0b8ee)" style="fill: none; stroke: #2255a0; stroke-opacity: 0.4; stroke-linecap: square"/>
   </g>
   <g id="line2d_37">
    <path d="M 30.404295 289.580358 
L 34.024454 287.704 
L 37.644612 286.055196 
L 41.264771 284.643658 
L 44.884929 283.478543 
L 48.505088 282.568138 
L 52.125247 281.91927 
L 55.745405 281.537339 
L 59.365564 281.426056 
L 62.985723 281.586843 
L 66.605881 282.019102 
L 70.22604 282.718804 
L 73.846199 283.679582 
L 77.466357 284.891364 
L 81.086516 286.340684 
L 84.706674 288.010597 
L 88.326833 289.880545 
L 91.946992 291.926115 
L 95.56715 294.119603 
L 99.187309 296.430419 
L 102.807468 298.824718 
L 106.427626 301.267149 
L 110.047785 303.720294 
L 113.667944 306.146192 
L 117.288102 308.506833 
L 120.908261 310.7648 
L 124.528419 312.884238 
L 128.148578 314.831349 
L 131.768737 316.575497 
L 135.388895 318.089251 
L 139.009054 319.348842 
L 142.629213 320.334808 
L 146.249371 321.031991 
L 149.86953 321.429537 
L 153.489689 321.520807 
L 157.109847 321.303555 
L 160.730006 320.77934 
L 164.350165 319.953702 
L 167.970323 318.835389 
L 171.590482 317.436443 
L 175.21064 315.771704 
L 178.830799 313.858343 
L 182.450958 311.715962 
L 186.071116 309.365855 
L 189.691275 306.831102 
L 193.311434 304.136067 
L 196.931592 301.306028 
L 200.551751 298.367364 
L 204.17191 295.347207 
L 207.792068 292.272806 
L 211.412227 289.172211 
L 215.032385 286.073012 
L 218.652544 283.00319 
L 222.272703 279.990085 
L 225.892861 277.060877 
L 229.51302 274.241992 
L 233.133179 271.558817 
L 236.753337 269.035856 
L 240.373496 266.696143 
L 243.993655 264.561044 
L 247.613813 262.650133 
L 251.233972 260.980631 
L 254.85413 259.567239 
L 258.474289 258.421973 
L 262.094448 257.553494 
L 265.714606 256.96701 
L 269.334765 256.664156 
L 272.954924 256.64246 
L 276.575082 256.895146 
L 280.195241 257.41145 
L 283.8154 258.176022 
L 287.435558 259.16944 
L 291.055717 260.368147 
L 294.675875 261.744766 
L 298.296034 263.268608 
L 301.916193 264.90604 
L 305.536351 266.621225 
L 309.15651 268.376637 
L 312.776669 270.133962 
L 316.396827 271.854629 
L 320.016986 273.500914 
L 323.637145 275.036031 
L 327.257303 276.425576 
L 330.877462 277.637253 
L 334.49762 278.642064 
L 338.117779 279.414043 
L 341.737938 279.93093 
L 345.358096 280.174125 
L 348.978255 280.128525 
L 352.598414 279.782864 
L 356.218572 279.129071 
L 359.838731 278.162683 
L 363.45889 276.881798 
L 367.079048 275.287581 
L 370.699207 273.383427 
L 374.319365 271.174687 
L 377.939524 268.668877 
L 381.559683 265.874743 
L 385.179841 262.802242 
L 388.8 259.462414 
" clip-path="url(#p979ec0b8ee)" style="fill: none; stroke: #2255a0; stroke-opacity: 0.4; stroke-linecap: square"/>
   </g>
   <g id="line2d_38">
    <path d="M 30.404295 289.653698 
L 34.024454 287.726967 
L 37.644612 286.040543 
L 41.264771 284.603451 
L 44.884929 283.423611 
L 48.505088 282.508124 
L 52.125247 281.862575 
L 55.745405 281.49088 
L 59.365564 281.39494 
L 62.985723 281.574766 
L 66.605881 282.027895 
L 70.22604 282.748776 
L 73.846199 283.729315 
L 77.466357 284.958109 
L 81.086516 286.420551 
L 84.706674 288.09854 
L 88.326833 289.970836 
L 91.946992 292.012679 
L 95.56715 294.196631 
L 99.187309 296.492116 
L 102.807468 298.866398 
L 106.427626 301.284899 
L 110.047785 303.711828 
L 113.667944 306.110501 
L 117.288102 308.444448 
L 120.908261 310.677973 
L 124.528419 312.776505 
L 128.148578 314.707852 
L 131.768737 316.442028 
L 135.388895 317.952518 
L 139.009054 319.215831 
L 142.629213 320.212593 
L 146.249371 320.927189 
L 149.86953 321.348125 
L 153.489689 321.468005 
L 157.109847 321.283131 
L 160.730006 320.794018 
L 164.350165 320.004558 
L 167.970323 318.921987 
L 171.590482 317.556838 
L 175.21064 315.922461 
L 178.830799 314.034883 
L 182.450958 311.912308 
L 186.071116 309.575024 
L 189.691275 307.045285 
L 193.311434 304.346838 
L 196.931592 301.504778 
L 200.551751 298.545346 
L 204.17191 295.495835 
L 207.792068 292.384317 
L 211.412227 289.239369 
L 215.032385 286.090095 
L 218.652544 282.965846 
L 222.272703 279.895885 
L 225.892861 276.909548 
L 229.51302 274.035637 
L 233.133179 271.302272 
L 236.753337 268.736791 
L 240.373496 266.364931 
L 243.993655 264.211125 
L 247.613813 262.297192 
L 251.233972 260.642847 
L 254.85413 259.264144 
L 258.474289 258.173673 
L 262.094448 257.379589 
L 265.714606 256.885139 
L 269.334765 256.687947 
L 272.954924 256.780041 
L 276.575082 257.147225 
L 280.195241 257.769625 
L 283.8154 258.62182 
L 287.435558 259.674056 
L 291.055717 260.894172 
L 294.675875 262.24874 
L 298.296034 263.70603 
L 301.916193 265.236955 
L 305.536351 266.816288 
L 309.15651 268.421677 
L 312.776669 270.031829 
L 316.396827 271.624762 
L 320.016986 273.175012 
L 323.637145 274.653046 
L 327.257303 276.025384 
L 330.877462 277.256355 
L 334.49762 278.309409 
L 338.117779 279.149839 
L 341.737938 279.745815 
L 345.358096 280.070273 
L 348.978255 280.100909 
L 352.598414 279.821241 
L 356.218572 279.21954 
L 359.838731 278.289306 
L 363.45889 277.028478 
L 367.079048 275.43866 
L 370.699207 273.525252 
L 374.319365 271.295725 
L 377.939524 268.760284 
L 381.559683 265.930705 
L 385.179841 262.820033 
L 388.8 259.442011 
" clip-path="url(#p979ec0b8ee)" style="fill: none; stroke: #2255a0; stroke-opacity: 0.9; stroke-width: 1.5; stroke-linecap: square"/>
   </g>
   <g id="patch_18">
    <path d="M 30.404295 324.764724 
L 30.404295 253.398543 
" style="fill: none; stroke: #000000; stroke-width: 0.8; stroke-linejoin: miter; stroke-linecap: square"/>
   </g>
   <g id="patch_19">
    <path d="M 388.8 324.764724 
L 388.8 253.398543 
" style="fill: none; stroke: #000000; stroke-width: 0.8; stroke-linejoin: miter; stroke-linecap: square"/>
   </g>
   <g id="patch_20">
    <path d="M 30.404295 324.764724 
L 388.8 324.764724 
" style="fill: none; stroke: #000000; stroke-width: 0.8; stroke-linejoin: miter; stroke-linecap: square"/>
   </g>
   <g id="patch_21">
    <path d="M 30.404295 253.398543 
L 388.8 253.398543 
" style="fill: none; stroke: #000000; stroke-width: 0.8; stroke-linejoin: miter; stroke-linecap: square"/>
   </g>
   <g id="text_20">
    <!-- 4 neurons -->
    <g style="fill: #2255a0" transform="translate(37.572209 264.620826) scale(0.09 -0.09)">
     <defs>
      <path id="CMSS17-34" d="M 2253 1088 
L 2835 1088 
L 2835 1478 
L 2253 1478 
L 2253 4224 
L 1690 4224 
L 166 1478 
L 166 1088 
L 1747 1088 
L 1747 0 
L 2253 0 
L 2253 1088 
z
M 659 1478 
C 1030 2139 1766 3474 1766 3927 
L 1766 1478 
L 659 1478 
z
" transform="scale(0.015625)"/>
     </defs>
     <use xlink:href="#CMSS17-34" transform="scale(0.996264)"/>
     <use xlink:href="#CMSS17-6e" transform="translate(78.072736 0) scale(0.996264)"/>
     <use xlink:href="#CMSS17-65" transform="translate(126.277679 0) scale(0.996264)"/>
     <use xlink:href="#CMSS17-75" transform="translate(167.916501 0) scale(0.996264)"/>
     <use xlink:href="#CMSS17-72" transform="translate(216.121445 0) scale(0.996264)"/>
     <use xlink:href="#CMSS17-6f" transform="translate(248.031217 0) scale(0.996264)"/>
     <use xlink:href="#CMSS17-6e" transform="translate(294.874841 0) scale(0.996264)"/>
     <use xlink:href="#CMSS17-73" transform="translate(343.079784 0) scale(0.996264)"/>
    </g>
   </g>
  </g>
  <g id="axes_5">
   <g id="patch_22">
    <path d="M 30.404295 406.830905 
L 388.8 406.830905 
L 388.8 335.464724 
L 30.404295 335.464724 
z
" style="fill: #ffffff"/>
   </g>
   <g id="matplotlib.axis_9">
    <g id="xtick_13">
     <g id="line2d_39">
      <g>
       <use xlink:href="#m6848c82c40" x="46.695009" y="406.830905" style="stroke: #000000; stroke-width: 0.8"/>
      </g>
     </g>
     <g id="text_21">
      <!-- $\mathdefault{1}$ -->
      <g transform="translate(41.284664 419.365707) scale(0.08 -0.08)">
       <defs>
        <path id="CMSY10-0" d="M 4218 1472 
C 4326 1472 4442 1472 4442 1600 
C 4442 1728 4326 1728 4218 1728 
L 755 1728 
C 646 1728 531 1728 531 1600 
C 531 1472 646 1472 755 1472 
L 4218 1472 
z
" transform="scale(0.015625)"/>
       </defs>
       <use xlink:href="#CMSY10-0" transform="scale(0.996264)"/>
       <use xlink:href="#CMR17-31" transform="translate(77.487468 0) scale(0.996264)"/>
      </g>
     </g>
    </g>
    <g id="xtick_14">
     <g id="line2d_40">
      <g>
       <use xlink:href="#m6848c82c40" x="209.602147" y="406.830905" style="stroke: #000000; stroke-width: 0.8"/>
      </g>
     </g>
     <g id="text_22">
      <!-- $\mathdefault{0}$ -->
      <g transform="translate(207.485056 419.365707) scale(0.08 -0.08)">
       <use xlink:href="#CMR17-30" transform="scale(0.996264)"/>
      </g>
     </g>
    </g>
    <g id="xtick_15">
     <g id="line2d_41">
      <g>
       <use xlink:href="#m6848c82c40" x="372.509286" y="406.830905" style="stroke: #000000; stroke-width: 0.8"/>
      </g>
     </g>
     <g id="text_23">
      <!-- $\mathdefault{1}$ -->
      <g transform="translate(370.392195 419.365707) scale(0.08 -0.08)">
       <use xlink:href="#CMR17-31" transform="scale(0.996264)"/>
      </g>
     </g>
    </g>
    <g id="text_24">
     <!-- $x$ -->
     <g transform="translate(207.218698 430.450254) scale(0.08 -0.08)">
      <use xlink:href="#CMMI12-78" transform="scale(0.996264)"/>
     </g>
    </g>
   </g>
   <g id="matplotlib.axis_10">
    <g id="ytick_13">
     <g id="line2d_42">
      <g>
       <use xlink:href="#md06b1b959e" x="30.404295" y="396.773369" style="stroke: #000000; stroke-width: 0.8"/>
      </g>
     </g>
     <g id="text_25">
      <!-- $\mathdefault{0}$ -->
      <g transform="translate(19.170112 399.54077) scale(0.08 -0.08)">
       <use xlink:href="#CMR17-30" transform="scale(0.996264)"/>
      </g>
     </g>
    </g>
    <g id="ytick_14">
     <g id="line2d_43">
      <g>
       <use xlink:href="#md06b1b959e" x="30.404295" y="372.763605" style="stroke: #000000; stroke-width: 0.8"/>
      </g>
     </g>
     <g id="text_26">
      <!-- $\mathdefault{1}$ -->
      <g transform="translate(19.170112 375.531006) scale(0.08 -0.08)">
       <use xlink:href="#CMR17-31" transform="scale(0.996264)"/>
      </g>
     </g>
    </g>
    <g id="ytick_15">
     <g id="line2d_44">
      <g>
       <use xlink:href="#md06b1b959e" x="30.404295" y="348.753842" style="stroke: #000000; stroke-width: 0.8"/>
      </g>
     </g>
     <g id="text_27">
      <!-- $\mathdefault{2}$ -->
      <g transform="translate(19.170112 351.521242) scale(0.08 -0.08)">
       <use xlink:href="#CMR17-32" transform="scale(0.996264)"/>
      </g>
     </g>
    </g>
    <g id="text_28">
     <!-- $f(x)$ -->
     <g transform="translate(13.177584 379.297901) rotate(-90) scale(0.08 -0.08)">
      <use xlink:href="#CMMI12-66" transform="scale(0.996264)"/>
      <use xlink:href="#CMR17-28" transform="translate(58.720305 0) scale(0.996264)"/>
      <use xlink:href="#CMMI12-78" transform="translate(94.001073 0) scale(0.996264)"/>
      <use xlink:href="#CMR17-29" transform="translate(149.435132 0) scale(0.996264)"/>
     </g>
    </g>
   </g>
   <g id="line2d_45">
    <path d="M 30.404295 371.841356 
L 34.024454 369.879557 
L 37.644612 368.144621 
L 41.264771 366.65559 
L 44.884929 365.42842 
L 48.505088 364.475782 
L 52.125247 363.806909 
L 55.745405 363.427475 
L 59.365564 363.339528 
L 62.985723 363.54146 
L 66.605881 364.02803 
L 70.22604 364.790424 
L 73.846199 365.81636 
L 77.466357 367.090247 
L 81.086516 368.593364 
L 84.706674 370.304099 
L 88.326833 372.19821 
L 91.946992 374.249121 
L 95.56715 376.428251 
L 99.187309 378.705364 
L 102.807468 381.04894 
L 106.427626 383.426561 
L 110.047785 385.805313 
L 113.667944 388.152184 
L 117.288102 390.434474 
L 120.908261 392.620196 
L 124.528419 394.678467 
L 128.148578 396.579886 
L 131.768737 398.296898 
L 135.388895 399.804131 
L 139.009054 401.078704 
L 142.629213 402.100509 
L 146.249371 402.852457 
L 149.86953 403.320688 
L 153.489689 403.494736 
L 157.109847 403.367658 
L 160.730006 402.936117 
L 164.350165 402.200423 
L 167.970323 401.16452 
L 171.590482 399.835944 
L 175.21064 398.22572 
L 178.830799 396.348226 
L 182.450958 394.221014 
L 186.071116 391.86459 
L 189.691275 389.302158 
L 193.311434 386.55933 
L 196.931592 383.66381 
L 200.551751 380.645046 
L 204.17191 377.533866 
L 207.792068 374.362093 
L 211.412227 371.162153 
L 215.032385 367.966665 
L 218.652544 364.808041 
L 222.272703 361.718083 
L 225.892861 358.727582 
L 229.51302 355.865941 
L 233.133179 353.160804 
L 236.753337 350.637713 
L 240.373496 348.31979 
L 243.993655 346.227446 
L 247.613813 344.378126 
L 251.233972 342.786092 
L 254.85413 341.462239 
L 258.474289 340.413959 
L 262.094448 339.645043 
L 265.714606 339.155634 
L 269.334765 338.942215 
L 272.954924 338.997653 
L 276.575082 339.311279 
L 280.195241 339.869014 
L 283.8154 340.653541 
L 287.435558 341.64451 
L 291.055717 342.818786 
L 294.675875 344.150728 
L 298.296034 345.612499 
L 301.916193 347.174405 
L 305.536351 348.805254 
L 309.15651 350.472738 
L 312.776669 352.14382 
L 316.396827 353.785141 
L 320.016986 355.363421 
L 323.637145 356.845865 
L 327.257303 358.20056 
L 330.877462 359.396864 
L 334.49762 360.405772 
L 338.117779 361.200274 
L 341.737938 361.755674 
L 345.358096 362.04989 
L 348.978255 362.06372 
L 352.598414 361.781071 
L 356.218572 361.189147 
L 359.838731 360.2786 
L 363.45889 359.043639 
L 367.079048 357.482092 
L 370.699207 355.59542 
L 374.319365 353.3887 
L 377.939524 350.87054 
L 381.559683 348.052978 
L 385.179841 344.951312 
L 388.8 341.583909 
" clip-path="url(#p9420a8dad3)" style="fill: none; stroke-dasharray: 16.65,7.2; stroke-dashoffset: 0; stroke: #cecece; stroke-width: 4.5"/>
   </g>
   <g id="line2d_46">
    <path d="M 30.404295 383.551893 
L 34.024454 383.548995 
L 37.644612 383.545979 
L 41.264771 383.542839 
L 44.884929 383.539566 
L 48.505088 383.536151 
L 52.125247 383.532587 
L 55.745405 383.52886 
L 59.365564 383.524961 
L 62.985723 383.520878 
L 66.605881 383.516598 
L 70.22604 383.512104 
L 73.846199 383.507384 
L 77.466357 383.502416 
L 81.086516 383.497181 
L 84.706674 383.491658 
L 88.326833 383.485823 
L 91.946992 383.479649 
L 95.56715 383.4731 
L 99.187309 383.466149 
L 102.807468 383.458752 
L 106.427626 383.450867 
L 110.047785 383.442446 
L 113.667944 383.43343 
L 117.288102 383.423752 
L 120.908261 383.413338 
L 124.528419 383.402103 
L 128.148578 383.389942 
L 131.768737 383.376737 
L 135.388895 383.36235 
L 139.009054 383.346612 
L 142.629213 383.329325 
L 146.249371 383.310249 
L 149.86953 383.289088 
L 153.489689 383.265484 
L 157.109847 383.238987 
L 160.730006 383.209031 
L 164.350165 383.174893 
L 167.970323 383.135632 
L 171.590482 383.089999 
L 175.21064 383.036313 
L 178.830799 382.972236 
L 182.450958 382.894437 
L 186.071116 382.797991 
L 189.691275 382.675301 
L 193.311434 382.514023 
L 196.931592 382.292679 
L 200.551751 381.970394 
L 204.17191 381.459042 
L 207.792068 380.530116 
L 211.412227 378.389995 
L 215.032385 371.122401 
L 218.652544 358.4486 
L 222.272703 354.279929 
L 225.892861 352.828611 
L 229.51302 352.120169 
L 233.133179 351.704005 
L 236.753337 351.430942 
L 240.373496 351.23823 
L 243.993655 351.095041 
L 247.613813 350.984493 
L 251.233972 350.896583 
L 254.85413 350.825013 
L 258.474289 350.765622 
L 262.094448 350.715545 
L 265.714606 350.672755 
L 269.334765 350.635763 
L 272.954924 350.603479 
L 276.575082 350.575045 
L 280.195241 350.549825 
L 283.8154 350.527287 
L 287.435558 350.507039 
L 291.055717 350.488744 
L 294.675875 350.472131 
L 298.296034 350.456979 
L 301.916193 350.443104 
L 305.536351 350.430357 
L 309.15651 350.418592 
L 312.776669 350.407716 
L 316.396827 350.397617 
L 320.016986 350.388225 
L 323.637145 350.379466 
L 327.257303 350.371274 
L 330.877462 350.363598 
L 334.49762 350.356395 
L 338.117779 350.349617 
L 341.737938 350.34323 
L 345.358096 350.337197 
L 348.978255 350.331497 
L 352.598414 350.326097 
L 356.218572 350.32098 
L 359.838731 350.316114 
L 363.45889 350.311489 
L 367.079048 350.307091 
L 370.699207 350.302894 
L 374.319365 350.298889 
L 377.939524 350.295067 
L 381.559683 350.291408 
L 385.179841 350.287905 
L 388.8 350.28455 
" clip-path="url(#p9420a8dad3)" style="fill: none; stroke: #2255a0; stroke-opacity: 0.4; stroke-linecap: square"/>
   </g>
   <g id="line2d_47">
    <path d="M 30.404295 360.246701 
L 34.024454 361.010194 
L 37.644612 361.80025 
L 41.264771 362.618056 
L 44.884929 363.464806 
L 48.505088 364.341688 
L 52.125247 365.249987 
L 55.745405 366.191074 
L 59.365564 367.165957 
L 62.985723 368.176012 
L 66.605881 369.222518 
L 70.22604 370.30676 
L 73.846199 371.42993 
L 77.466357 372.592757 
L 81.086516 373.79634 
L 84.706674 375.041688 
L 88.326833 376.329077 
L 91.946992 377.658781 
L 95.56715 379.030432 
L 99.187309 380.443391 
L 102.807468 381.896557 
L 106.427626 383.387367 
L 110.047785 384.91289 
L 113.667944 386.468775 
L 117.288102 388.048885 
L 120.908261 389.645802 
L 124.528419 391.24968 
L 128.148578 392.848154 
L 131.768737 394.426204 
L 135.388895 395.964916 
L 139.009054 397.441987 
L 142.629213 398.83072 
L 146.249371 400.100112 
L 149.86953 401.214349 
L 153.489689 402.133318 
L 157.109847 402.813052 
L 160.730006 403.206981 
L 164.350165 403.267316 
L 167.970323 402.947827 
L 171.590482 402.207047 
L 175.21064 401.011981 
L 178.830799 399.34225 
L 182.450958 397.194133 
L 186.071116 394.583704 
L 189.691275 391.548727 
L 193.311434 388.148192 
L 196.931592 384.459983 
L 200.551751 380.576022 
L 204.17191 376.595913 
L 207.792068 372.619844 
L 211.412227 368.741648 
L 215.032385 365.043359 
L 218.652544 361.591012 
L 222.272703 358.43315 
L 225.892861 355.600617 
L 229.51302 353.108132 
L 233.133179 350.956776 
L 236.753337 349.136516 
L 240.373496 347.629769 
L 243.993655 346.413408 
L 247.613813 345.461239 
L 251.233972 344.74592 
L 254.85413 344.240438 
L 258.474289 343.918268 
L 262.094448 343.755146 
L 265.714606 343.728495 
L 269.334765 343.818068 
L 272.954924 344.005507 
L 276.575082 344.275058 
L 280.195241 344.612565 
L 283.8154 345.005853 
L 287.435558 345.444384 
L 291.055717 345.91928 
L 294.675875 346.422477 
L 298.296034 346.947467 
L 301.916193 347.488858 
L 305.536351 348.041513 
L 309.15651 348.601677 
L 312.776669 349.165962 
L 316.396827 349.731437 
L 320.016986 350.295907 
L 323.637145 350.857445 
L 327.257303 351.414131 
L 330.877462 351.965044 
L 334.49762 352.508997 
L 338.117779 353.045164 
L 341.737938 353.572721 
L 345.358096 354.091397 
L 348.978255 354.600454 
L 352.598414 355.099985 
L 356.218572 355.589808 
L 359.838731 356.069465 
L 363.45889 356.539048 
L 367.079048 356.998737 
L 370.699207 357.448536 
L 374.319365 357.888166 
L 377.939524 358.318181 
L 381.559683 358.738489 
L 385.179841 359.149361 
L 388.8 359.550799 
" clip-path="url(#p9420a8dad3)" style="fill: none; stroke: #2255a0; stroke-opacity: 0.4; stroke-linecap: square"/>
   </g>
   <g id="line2d_48">
    <path d="M 30.404295 371.646539 
L 34.024454 369.770181 
L 37.644612 368.121377 
L 41.264771 366.709839 
L 44.884929 365.544724 
L 48.505088 364.634319 
L 52.125247 363.985451 
L 55.745405 363.60352 
L 59.365564 363.492237 
L 62.985723 363.653024 
L 66.605881 364.085283 
L 70.22604 364.784985 
L 73.846199 365.745763 
L 77.466357 366.957545 
L 81.086516 368.406865 
L 84.706674 370.076778 
L 88.326833 371.946726 
L 91.946992 373.992296 
L 95.56715 376.185784 
L 99.187309 378.4966 
L 102.807468 380.890899 
L 106.427626 383.33333 
L 110.047785 385.786475 
L 113.667944 388.212373 
L 117.288102 390.573014 
L 120.908261 392.830981 
L 124.528419 394.950419 
L 128.148578 396.897531 
L 131.768737 398.641679 
L 135.388895 400.155432 
L 139.009054 401.415023 
L 142.629213 402.400989 
L 146.249371 403.098172 
L 149.86953 403.495719 
L 153.489689 403.586988 
L 157.109847 403.369736 
L 160.730006 402.845521 
L 164.350165 402.019883 
L 167.970323 400.90157 
L 171.590482 399.502624 
L 175.21064 397.837885 
L 178.830799 395.924524 
L 182.450958 393.782143 
L 186.071116 391.432036 
L 189.691275 388.897283 
L 193.311434 386.202248 
L 196.931592 383.372209 
L 200.551751 380.433545 
L 204.17191 377.413388 
L 207.792068 374.338987 
L 211.412227 371.238392 
L 215.032385 368.139193 
L 218.652544 365.069371 
L 222.272703 362.056266 
L 225.892861 359.127058 
L 229.51302 356.308173 
L 233.133179 353.624998 
L 236.753337 351.102037 
L 240.373496 348.762324 
L 243.993655 346.627225 
L 247.613813 344.716314 
L 251.233972 343.046812 
L 254.85413 341.63342 
L 258.474289 340.488154 
L 262.094448 339.619675 
L 265.714606 339.033191 
L 269.334765 338.730337 
L 272.954924 338.708641 
L 276.575082 338.961327 
L 280.195241 339.477631 
L 283.8154 340.242203 
L 287.435558 341.235621 
L 291.055717 342.434328 
L 294.675875 343.810947 
L 298.296034 345.334789 
L 301.916193 346.972221 
L 305.536351 348.687407 
L 309.15651 350.442818 
L 312.776669 352.200143 
L 316.396827 353.92081 
L 320.016986 355.567095 
L 323.637145 357.102212 
L 327.257303 358.491757 
L 330.877462 359.703434 
L 334.49762 360.708245 
L 338.117779 361.480224 
L 341.737938 361.997111 
L 345.358096 362.240306 
L 348.978255 362.194706 
L 352.598414 361.849045 
L 356.218572 361.195252 
L 359.838731 360.228864 
L 363.45889 358.947979 
L 367.079048 357.353762 
L 370.699207 355.449608 
L 374.319365 353.240868 
L 377.939524 350.735058 
L 381.559683 347.940924 
L 385.179841 344.868423 
L 388.8 341.528595 
" clip-path="url(#p9420a8dad3)" style="fill: none; stroke: #2255a0; stroke-opacity: 0.4; stroke-linecap: square"/>
   </g>
   <g id="line2d_49">
    <path d="M 30.404295 371.719879 
L 34.024454 369.793148 
L 37.644612 368.106724 
L 41.264771 366.669632 
L 44.884929 365.489792 
L 48.505088 364.574305 
L 52.125247 363.928756 
L 55.745405 363.557061 
L 59.365564 363.461121 
L 62.985723 363.640947 
L 66.605881 364.094076 
L 70.22604 364.814957 
L 73.846199 365.795496 
L 77.466357 367.02429 
L 81.086516 368.486732 
L 84.706674 370.164721 
L 88.326833 372.037017 
L 91.946992 374.07886 
L 95.56715 376.262812 
L 99.187309 378.558297 
L 102.807468 380.932579 
L 106.427626 383.35108 
L 110.047785 385.778009 
L 113.667944 388.176682 
L 117.288102 390.510629 
L 120.908261 392.744154 
L 124.528419 394.842686 
L 128.148578 396.774033 
L 131.768737 398.508209 
L 135.388895 400.018699 
L 139.009054 401.282012 
L 142.629213 402.278774 
L 146.249371 402.99337 
L 149.86953 403.414306 
L 153.489689 403.534186 
L 157.109847 403.349312 
L 160.730006 402.860199 
L 164.350165 402.070739 
L 167.970323 400.988168 
L 171.590482 399.623019 
L 175.21064 397.988642 
L 178.830799 396.101064 
L 182.450958 393.978489 
L 186.071116 391.641205 
L 189.691275 389.111466 
L 193.311434 386.413019 
L 196.931592 383.570959 
L 200.551751 380.611527 
L 204.17191 377.562016 
L 207.792068 374.450498 
L 211.412227 371.30555 
L 215.032385 368.156276 
L 218.652544 365.032027 
L 222.272703 361.962066 
L 225.892861 358.975729 
L 229.51302 356.101818 
L 233.133179 353.368453 
L 236.753337 350.802972 
L 240.373496 348.431112 
L 243.993655 346.277306 
L 247.613813 344.363373 
L 251.233972 342.709028 
L 254.85413 341.330325 
L 258.474289 340.239854 
L 262.094448 339.44577 
L 265.714606 338.95132 
L 269.334765 338.754128 
L 272.954924 338.846222 
L 276.575082 339.213406 
L 280.195241 339.835806 
L 283.8154 340.688002 
L 287.435558 341.740237 
L 291.055717 342.960353 
L 294.675875 344.314921 
L 298.296034 345.772211 
L 301.916193 347.303136 
L 305.536351 348.882469 
L 309.15651 350.487858 
L 312.776669 352.09801 
L 316.396827 353.690943 
L 320.016986 355.241193 
L 323.637145 356.719227 
L 327.257303 358.091565 
L 330.877462 359.322536 
L 334.49762 360.37559 
L 338.117779 361.216021 
L 341.737938 361.811996 
L 345.358096 362.136454 
L 348.978255 362.16709 
L 352.598414 361.887422 
L 356.218572 361.285721 
L 359.838731 360.355487 
L 363.45889 359.094659 
L 367.079048 357.504841 
L 370.699207 355.591433 
L 374.319365 353.361906 
L 377.939524 350.826465 
L 381.559683 347.996886 
L 385.179841 344.886214 
L 388.8 341.508192 
" clip-path="url(#p9420a8dad3)" style="fill: none; stroke: #2255a0; stroke-opacity: 0.4; stroke-linecap: square"/>
   </g>
   <g id="line2d_50">
    <path d="M 30.404295 372.071207 
L 34.024454 369.878578 
L 37.644612 368.025701 
L 41.264771 366.500053 
L 44.884929 365.290252 
L 48.505088 364.385914 
L 52.125247 363.777908 
L 55.745405 363.457721 
L 59.365564 363.417591 
L 62.985723 363.650013 
L 66.605881 364.147461 
L 70.22604 364.901716 
L 73.846199 365.903584 
L 77.466357 367.142271 
L 81.086516 368.604778 
L 84.706674 370.275471 
L 88.326833 372.135579 
L 91.946992 374.162865 
L 95.56715 376.331521 
L 99.187309 378.612163 
L 102.807468 380.972277 
L 106.427626 383.376703 
L 110.047785 385.788519 
L 113.667944 388.169967 
L 117.288102 390.483587 
L 120.908261 392.693224 
L 124.528419 394.764904 
L 128.148578 396.667668 
L 131.768737 398.373972 
L 135.388895 399.860089 
L 139.009054 401.105998 
L 142.629213 402.095445 
L 146.249371 402.815445 
L 149.86953 403.256279 
L 153.489689 403.410906 
L 157.109847 403.274918 
L 160.730006 402.846117 
L 164.350165 402.124719 
L 167.970323 401.113005 
L 171.590482 399.815725 
L 175.21064 398.240148 
L 178.830799 396.396419 
L 182.450958 394.297852 
L 186.071116 391.96114 
L 189.691275 389.406661 
L 193.311434 386.658601 
L 196.931592 383.744843 
L 200.551751 380.696683 
L 204.17191 377.548163 
L 207.792068 374.335632 
L 211.412227 371.096473 
L 215.032385 367.86824 
L 218.652544 364.687664 
L 222.272703 361.589543 
L 225.892861 358.606073 
L 229.51302 355.766234 
L 233.133179 353.095493 
L 236.753337 350.615626 
L 240.373496 348.344905 
L 243.993655 346.298373 
L 247.613813 344.488051 
L 251.233972 342.923486 
L 254.85413 341.612032 
L 258.474289 340.559021 
L 262.094448 339.768187 
L 265.714606 339.2415 
L 269.334765 338.97921 
L 272.954924 338.979428 
L 276.575082 339.237929 
L 280.195241 339.747397 
L 283.8154 340.496949 
L 287.435558 341.471385 
L 291.055717 342.65072 
L 294.675875 344.009858 
L 298.296034 345.518495 
L 301.916193 347.141699 
L 305.536351 348.840613 
L 309.15651 350.574055 
L 312.776669 352.299817 
L 316.396827 353.976565 
L 320.016986 355.565423 
L 323.637145 357.031184 
L 327.257303 358.343072 
L 330.877462 359.475101 
L 334.49762 360.405919 
L 338.117779 361.118248 
L 341.737938 361.598282 
L 345.358096 361.834608 
L 348.978255 361.817388 
L 352.598414 361.537374 
L 356.218572 360.985075 
L 359.838731 360.150004 
L 363.45889 359.019751 
L 367.079048 357.579497 
L 370.699207 355.811171 
L 374.319365 353.69282 
L 377.939524 351.197887 
L 381.559683 348.294415 
L 385.179841 344.944524 
L 388.8 341.103433 
" clip-path="url(#p9420a8dad3)" style="fill: none; stroke: #2255a0; stroke-opacity: 0.9; stroke-width: 1.5; stroke-linecap: square"/>
   </g>
   <g id="patch_23">
    <path d="M 30.404295 406.830905 
L 30.404295 335.464724 
" style="fill: none; stroke: #000000; stroke-width: 0.8; stroke-linejoin: miter; stroke-linecap: square"/>
   </g>
   <g id="patch_24">
    <path d="M 388.8 406.830905 
L 388.8 335.464724 
" style="fill: none; stroke: #000000; stroke-width: 0.8; stroke-linejoin: miter; stroke-linecap: square"/>
   </g>
   <g id="patch_25">
    <path d="M 30.404295 406.830905 
L 388.8 406.830905 
" style="fill: none; stroke: #000000; stroke-width: 0.8; stroke-linejoin: miter; stroke-linecap: square"/>
   </g>
   <g id="patch_26">
    <path d="M 30.404295 335.464724 
L 388.8 335.464724 
" style="fill: none; stroke: #000000; stroke-width: 0.8; stroke-linejoin: miter; stroke-linecap: square"/>
   </g>
   <g id="text_29">
    <!-- 5 neurons -->
    <g style="fill: #2255a0" transform="translate(37.572209 346.687007) scale(0.09 -0.09)">
     <defs>
      <path id="CMSS17-35" d="M 934 3814 
L 2502 3814 
L 2502 4224 
L 467 4224 
L 467 1830 
L 896 1830 
C 1011 2103 1248 2304 1555 2304 
C 1843 2304 2163 2044 2163 1299 
C 2163 502 1709 268 1376 268 
C 966 268 589 521 422 871 
L 218 508 
C 512 51 992 -128 1376 -128 
C 2118 -128 2701 508 2701 1286 
C 2701 2083 2182 2694 1562 2694 
C 1338 2694 1120 2617 934 2464 
L 934 3814 
z
" transform="scale(0.015625)"/>
     </defs>
     <use xlink:href="#CMSS17-35" transform="scale(0.996264)"/>
     <use xlink:href="#CMSS17-6e" transform="translate(78.072736 0) scale(0.996264)"/>
     <use xlink:href="#CMSS17-65" transform="translate(126.277679 0) scale(0.996264)"/>
     <use xlink:href="#CMSS17-75" transform="translate(167.916501 0) scale(0.996264)"/>
     <use xlink:href="#CMSS17-72" transform="translate(216.121445 0) scale(0.996264)"/>
     <use xlink:href="#CMSS17-6f" transform="translate(248.031217 0) scale(0.996264)"/>
     <use xlink:href="#CMSS17-6e" transform="translate(294.874841 0) scale(0.996264)"/>
     <use xlink:href="#CMSS17-73" transform="translate(343.079784 0) scale(0.996264)"/>
    </g>
   </g>
   <g id="legend_1">
    <g id="line2d_51">
     <path d="M 307.753338 384.131414 
L 315.753338 384.131414 
L 323.753338 384.131414 
" style="fill: none; stroke-dasharray: 16.65,7.2; stroke-dashoffset: 0; stroke: #cecece; stroke-width: 4.5"/>
    </g>
    <g id="text_30">
     <!-- Target -->
     <g transform="translate(330.153338 386.931414) scale(0.08 -0.08)">
      <defs>
       <path id="CMSS17-54" d="M 2317 3987 
L 2848 3987 
C 2925 3987 3002 3980 3078 3980 
L 3878 3980 
L 3878 4396 
L 218 4396 
L 218 3980 
L 1018 3980 
C 1094 3980 1171 3987 1248 3987 
L 1779 3987 
L 1779 0 
L 2317 0 
L 2317 3987 
z
" transform="scale(0.015625)"/>
       <path id="CMSS17-61" d="M 2406 1789 
C 2406 2399 1978 2816 1402 2816 
C 1120 2816 813 2764 461 2559 
L 499 2133 
C 659 2250 934 2438 1395 2438 
C 1722 2438 1920 2185 1920 1782 
L 1920 1536 
C 896 1504 256 1209 256 711 
C 256 452 416 -64 947 -64 
C 1043 -64 1562 -52 1933 224 
L 1933 -13 
L 2406 -13 
L 2406 1789 
z
M 1920 824 
C 1920 711 1920 559 1728 446 
C 1562 339 1350 326 1261 326 
C 941 326 723 503 723 723 
C 723 1165 1722 1209 1920 1216 
L 1920 824 
z
" transform="scale(0.015625)"/>
       <path id="CMSS17-67" d="M 2848 2816 
C 2483 2809 2170 2739 1914 2617 
C 1702 2783 1485 2816 1338 2816 
C 781 2816 358 2356 358 1824 
C 358 1481 550 1222 563 1209 
C 448 1049 384 876 384 684 
C 384 460 474 300 544 211 
C 211 6 166 -308 166 -429 
C 166 -896 749 -1280 1498 -1280 
C 2253 -1280 2835 -896 2835 -423 
C 2835 460 1856 467 1587 467 
L 1069 467 
C 973 467 717 467 717 793 
C 717 921 774 1004 781 1011 
C 877 940 1075 832 1338 832 
C 1869 832 2310 1279 2310 1824 
C 2310 2128 2170 2349 2112 2425 
L 2131 2425 
C 2150 2425 2419 2444 2515 2444 
C 2720 2444 2739 2438 2918 2419 
L 2848 2816 
z
M 1338 1184 
C 1120 1184 813 1317 813 1824 
C 813 2375 1165 2463 1331 2463 
C 1549 2463 1856 2330 1856 1824 
C 1856 1272 1504 1184 1338 1184 
z
M 1581 0 
C 1734 0 2381 0 2381 -436 
C 2381 -711 1984 -928 1504 -928 
C 1018 -928 621 -717 621 -429 
C 621 -397 621 0 1062 0 
L 1581 0 
z
" transform="scale(0.015625)"/>
       <path id="CMSS17-74" d="M 1069 2380 
L 1901 2380 
L 1901 2752 
L 1069 2752 
L 1069 3520 
L 614 3520 
L 614 2752 
L 109 2752 
L 109 2380 
L 602 2380 
L 602 751 
C 602 384 685 -64 1107 -64 
C 1427 -64 1722 25 2003 172 
L 1901 551 
C 1747 416 1562 339 1363 339 
C 1082 339 1069 699 1069 860 
L 1069 2380 
z
" transform="scale(0.015625)"/>
      </defs>
      <use xlink:href="#CMSS17-54" transform="scale(0.996264)"/>
      <use xlink:href="#CMSS17-61" transform="translate(56.012199 0) scale(0.996264)"/>
      <use xlink:href="#CMSS17-72" transform="translate(98.331665 0) scale(0.996264)"/>
      <use xlink:href="#CMSS17-67" transform="translate(130.241438 0) scale(0.996264)"/>
      <use xlink:href="#CMSS17-65" transform="translate(177.085061 0) scale(0.996264)"/>
      <use xlink:href="#CMSS17-74" transform="translate(218.723883 0) scale(0.996264)"/>
     </g>
    </g>
    <g id="line2d_52">
     <path d="M 307.753338 395.281159 
L 315.753338 395.281159 
L 323.753338 395.281159 
" style="fill: none; stroke: #2255a0; stroke-opacity: 0.9; stroke-width: 1.5; stroke-linecap: square"/>
    </g>
    <g id="text_31">
     <!-- Approximation -->
     <g transform="translate(330.153338 398.081159) scale(0.08 -0.08)">
      <defs>
       <path id="CMSS17-41" d="M 2272 4416 
L 1722 4416 
L 166 0 
L 653 0 
L 1101 1280 
L 2816 1280 
L 3270 0 
L 3827 0 
L 2272 4416 
z
M 2694 1638 
L 1222 1638 
C 1530 2530 1914 3638 1958 3924 
L 1965 3924 
C 2010 3663 2138 3281 2246 2956 
L 2694 1638 
z
" transform="scale(0.015625)"/>
       <path id="CMSS17-70" d="M 966 275 
C 1178 70 1466 -64 1773 -64 
C 2368 -64 2880 553 2880 1382 
C 2880 2147 2496 2816 1946 2816 
C 1626 2816 1242 2700 954 2470 
L 954 2764 
L 480 2764 
L 480 -1280 
L 966 -1280 
L 966 275 
z
M 966 2088 
C 1018 2166 1235 2412 1587 2412 
C 2035 2412 2394 1946 2394 1382 
C 2394 741 1958 326 1530 326 
C 1402 326 1267 358 1139 468 
C 966 624 966 721 966 812 
L 966 2088 
z
" transform="scale(0.015625)"/>
       <path id="CMSS17-78" d="M 1587 1420 
L 2656 2752 
L 2099 2752 
L 1363 1785 
L 602 2752 
L 32 2752 
L 1139 1420 
L 0 0 
L 563 0 
L 1363 1126 
L 2195 0 
L 2758 0 
L 1587 1420 
z
" transform="scale(0.015625)"/>
       <path id="CMSS17-69" d="M 979 4224 
L 442 4224 
L 442 3686 
L 979 3686 
L 979 4224 
z
M 947 2752 
L 474 2752 
L 474 0 
L 947 0 
L 947 2752 
z
" transform="scale(0.015625)"/>
       <path id="CMSS17-6d" d="M 4288 1878 
C 4288 2309 4179 2816 3462 2816 
C 2982 2816 2694 2515 2566 2328 
C 2451 2668 2182 2816 1798 2816 
C 1363 2816 1088 2566 941 2386 
L 941 2783 
L 474 2783 
L 474 0 
L 960 0 
L 960 1556 
C 960 1936 1101 2425 1555 2425 
C 2138 2425 2138 2013 2138 1826 
L 2138 0 
L 2624 0 
L 2624 1556 
C 2624 1936 2765 2425 3219 2425 
C 3802 2425 3802 2013 3802 1826 
L 3802 0 
L 4288 0 
L 4288 1878 
z
" transform="scale(0.015625)"/>
      </defs>
      <use xlink:href="#CMSS17-41" transform="scale(0.996264)"/>
      <use xlink:href="#CMSS17-70" transform="translate(62.217855 0) scale(0.996264)"/>
      <use xlink:href="#CMSS17-70" transform="translate(110.422798 0) scale(0.996264)"/>
      <use xlink:href="#CMSS17-72" transform="translate(156.025287 0) scale(0.996264)"/>
      <use xlink:href="#CMSS17-6f" transform="translate(187.93506 0) scale(0.996264)"/>
      <use xlink:href="#CMSS17-78" transform="translate(232.176229 0) scale(0.996264)"/>
      <use xlink:href="#CMSS17-69" transform="translate(275.176371 0) scale(0.996264)"/>
      <use xlink:href="#CMSS17-6d" transform="translate(297.357094 0) scale(0.996264)"/>
      <use xlink:href="#CMSS17-61" transform="translate(371.586349 0) scale(0.996264)"/>
      <use xlink:href="#CMSS17-74" transform="translate(416.508269 0) scale(0.996264)"/>
      <use xlink:href="#CMSS17-69" transform="translate(450.339836 0) scale(0.996264)"/>
      <use xlink:href="#CMSS17-6f" transform="translate(472.520559 0) scale(0.996264)"/>
      <use xlink:href="#CMSS17-6e" transform="translate(519.364182 0) scale(0.996264)"/>
     </g>
    </g>
   </g>
  </g>
 </g>
 <defs>
  <clipPath id="pf179ad2527">
   <rect x="30.404295" y="7.2" width="358.395705" height="71.366181"/>
  </clipPath>
  <clipPath id="p3f976a6001">
   <rect x="30.404295" y="89.266181" width="358.395705" height="71.366181"/>
  </clipPath>
  <clipPath id="pa06f08d3d0">
   <rect x="30.404295" y="171.332362" width="358.395705" height="71.366181"/>
  </clipPath>
  <clipPath id="p979ec0b8ee">
   <rect x="30.404295" y="253.398543" width="358.395705" height="71.366181"/>
  </clipPath>
  <clipPath id="p9420a8dad3">
   <rect x="30.404295" y="335.464724" width="358.395705" height="71.366181"/>
  </clipPath>
 </defs>
</svg>
