<?xml version="1.0" encoding="utf-8" standalone="no"?>
<!DOCTYPE svg PUBLIC "-//W3C//DTD SVG 1.1//EN"
  "http://www.w3.org/Graphics/SVG/1.1/DTD/svg11.dtd">
<svg xmlns:xlink="http://www.w3.org/1999/xlink" width="468pt" height="295.2pt" viewBox="0 0 468 295.2" xmlns="http://www.w3.org/2000/svg" version="1.1">
 <metadata>
  <rdf:RDF xmlns:dc="http://purl.org/dc/elements/1.1/" xmlns:cc="http://creativecommons.org/ns#" xmlns:rdf="http://www.w3.org/1999/02/22-rdf-syntax-ns#">
   <cc:Work>
    <dc:type rdf:resource="http://purl.org/dc/dcmitype/StillImage"/>
    <dc:date>2025-10-10T20:23:09.889742</dc:date>
    <dc:format>image/svg+xml</dc:format>
    <dc:creator>
     <cc:Agent>
      <dc:title>Matplotlib v3.8.4, https://matplotlib.org/</dc:title>
     </cc:Agent>
    </dc:creator>
   </cc:Work>
  </rdf:RDF>
 </metadata>
 <defs>
  <style type="text/css">*{stroke-linejoin: round; stroke-linecap: butt}</style>
 </defs>
 <g id="figure_1">
  <g id="patch_1">
   <path d="M 0 295.2 
L 468 295.2 
L 468 0 
L 0 0 
z
" style="fill: #ffffff"/>
  </g>
  <g id="axes_1">
   <g id="patch_2">
    <path d="M 38.372661 124.873179 
L 221.314678 124.873179 
L 221.314678 9.967401 
L 38.372661 9.967401 
z
" style="fill: #ffffff"/>
   </g>
   <g id="matplotlib.axis_1">
    <g id="xtick_1">
     <g id="line2d_1">
      <defs>
       <path id="mfbad94f343" d="M 0 0 
L 0 3 
" style="stroke: #000000; stroke-width: 0.8"/>
      </defs>
      <g>
       <use xlink:href="#mfbad94f343" x="44.470728" y="124.873179" style="stroke: #000000; stroke-width: 0.8"/>
      </g>
     </g>
     <g id="text_1">
      <!-- 2010 -->
      <g style="fill: #262626" transform="translate(36.002362 136.907981) scale(0.08 -0.08)">
       <defs>
        <path id="CMSS17-32" d="M 1651 1353 
C 1830 1538 2099 1761 2285 1984 
C 2464 2201 2701 2507 2701 2953 
C 2701 3655 2227 4288 1421 4288 
C 787 4288 422 3891 250 3272 
L 499 2928 
C 640 3508 838 3878 1338 3878 
C 1888 3878 2195 3431 2195 2940 
C 2195 2354 1747 1901 1408 1563 
C 1030 1187 659 805 301 409 
L 301 0 
L 2701 0 
L 2701 435 
L 1613 435 
C 1536 435 1459 428 1382 428 
L 742 428 
L 742 435 
L 1651 1353 
z
" transform="scale(0.015625)"/>
        <path id="CMSS17-30" d="M 2758 2073 
C 2758 2439 2752 3120 2490 3647 
C 2227 4153 1805 4288 1504 4288 
C 1069 4288 698 4031 506 3621 
C 301 3191 243 2748 243 2073 
C 243 1611 262 1046 493 551 
C 755 6 1197 -128 1498 -128 
C 1894 -128 2278 83 2496 525 
C 2720 988 2758 1495 2758 2073 
z
M 1498 262 
C 1011 262 864 821 819 1007 
C 742 1328 730 1636 730 2144 
C 730 2542 730 2992 851 3345 
C 998 3756 1254 3897 1498 3897 
C 1971 3897 2125 3422 2176 3255 
C 2272 2915 2272 2516 2272 2144 
C 2272 1546 2272 262 1498 262 
z
" transform="scale(0.015625)"/>
        <path id="CMSS17-31" d="M 1818 4288 
L 1696 4288 
C 1350 3949 947 3902 538 3891 
L 538 3520 
C 723 3526 1024 3539 1325 3673 
L 1325 371 
L 570 371 
L 570 0 
L 2573 0 
L 2573 371 
L 1818 371 
L 1818 4288 
z
" transform="scale(0.015625)"/>
       </defs>
       <use xlink:href="#CMSS17-32" transform="scale(0.996264)"/>
       <use xlink:href="#CMSS17-30" transform="translate(46.843624 0) scale(0.996264)"/>
       <use xlink:href="#CMSS17-31" transform="translate(93.687247 0) scale(0.996264)"/>
       <use xlink:href="#CMSS17-30" transform="translate(140.530871 0) scale(0.996264)"/>
      </g>
     </g>
    </g>
    <g id="xtick_2">
     <g id="line2d_2">
      <g>
       <use xlink:href="#mfbad94f343" x="68.862997" y="124.873179" style="stroke: #000000; stroke-width: 0.8"/>
      </g>
     </g>
     <g id="text_2">
      <!-- 2012 -->
      <g style="fill: #262626" transform="translate(60.394631 136.907981) scale(0.08 -0.08)">
       <use xlink:href="#CMSS17-32" transform="scale(0.996264)"/>
       <use xlink:href="#CMSS17-30" transform="translate(46.843624 0) scale(0.996264)"/>
       <use xlink:href="#CMSS17-31" transform="translate(93.687247 0) scale(0.996264)"/>
       <use xlink:href="#CMSS17-32" transform="translate(140.530871 0) scale(0.996264)"/>
      </g>
     </g>
    </g>
    <g id="xtick_3">
     <g id="line2d_3">
      <g>
       <use xlink:href="#mfbad94f343" x="93.255266" y="124.873179" style="stroke: #000000; stroke-width: 0.8"/>
      </g>
     </g>
     <g id="text_3">
      <!-- 2014 -->
      <g style="fill: #262626" transform="translate(84.7869 136.907981) scale(0.08 -0.08)">
       <defs>
        <path id="CMSS17-34" d="M 2253 1088 
L 2835 1088 
L 2835 1478 
L 2253 1478 
L 2253 4224 
L 1690 4224 
L 166 1478 
L 166 1088 
L 1747 1088 
L 1747 0 
L 2253 0 
L 2253 1088 
z
M 659 1478 
C 1030 2139 1766 3474 1766 3927 
L 1766 1478 
L 659 1478 
z
" transform="scale(0.015625)"/>
       </defs>
       <use xlink:href="#CMSS17-32" transform="scale(0.996264)"/>
       <use xlink:href="#CMSS17-30" transform="translate(46.843624 0) scale(0.996264)"/>
       <use xlink:href="#CMSS17-31" transform="translate(93.687247 0) scale(0.996264)"/>
       <use xlink:href="#CMSS17-34" transform="translate(140.530871 0) scale(0.996264)"/>
      </g>
     </g>
    </g>
    <g id="xtick_4">
     <g id="line2d_4">
      <g>
       <use xlink:href="#mfbad94f343" x="117.647535" y="124.873179" style="stroke: #000000; stroke-width: 0.8"/>
      </g>
     </g>
     <g id="text_4">
      <!-- 2016 -->
      <g style="fill: #262626" transform="translate(109.179169 136.907981) scale(0.08 -0.08)">
       <defs>
        <path id="CMSS17-36" d="M 2496 4159 
C 2227 4268 2035 4288 1856 4288 
C 1024 4288 250 3408 250 2023 
C 250 268 986 -128 1510 -128 
C 1798 -128 2086 -39 2362 281 
C 2643 619 2752 900 2752 1392 
C 2752 2183 2362 2886 1779 2886 
C 1357 2886 992 2662 768 2381 
C 832 3290 1254 3897 1862 3897 
C 2029 3897 2246 3871 2496 3760 
L 2496 4159 
z
M 774 1372 
C 774 1423 774 1455 781 1551 
C 781 2049 1069 2496 1536 2496 
C 1837 2496 1990 2336 2106 2138 
C 2240 1889 2246 1653 2246 1392 
C 2246 1143 2246 894 2099 638 
C 1978 441 1818 268 1510 268 
C 902 268 800 1117 774 1372 
z
" transform="scale(0.015625)"/>
       </defs>
       <use xlink:href="#CMSS17-32" transform="scale(0.996264)"/>
       <use xlink:href="#CMSS17-30" transform="translate(46.843624 0) scale(0.996264)"/>
       <use xlink:href="#CMSS17-31" transform="translate(93.687247 0) scale(0.996264)"/>
       <use xlink:href="#CMSS17-36" transform="translate(140.530871 0) scale(0.996264)"/>
      </g>
     </g>
    </g>
    <g id="xtick_5">
     <g id="line2d_5">
      <g>
       <use xlink:href="#mfbad94f343" x="142.039804" y="124.873179" style="stroke: #000000; stroke-width: 0.8"/>
      </g>
     </g>
     <g id="text_5">
      <!-- 2018 -->
      <g style="fill: #262626" transform="translate(133.571438 136.907981) scale(0.08 -0.08)">
       <defs>
        <path id="CMSS17-38" d="M 1933 2246 
C 2419 2406 2669 2793 2669 3174 
C 2669 3774 2157 4288 1504 4288 
C 826 4288 333 3755 333 3174 
C 333 2799 576 2412 1069 2246 
C 442 2003 250 1516 250 1152 
C 250 448 819 -128 1498 -128 
C 2202 -128 2752 460 2752 1152 
C 2752 1574 2502 2022 1933 2246 
z
M 1504 2438 
C 1075 2438 787 2728 787 3167 
C 787 3613 1075 3897 1504 3897 
C 1901 3897 2214 3639 2214 3167 
C 2214 2703 1907 2438 1504 2438 
z
M 1504 268 
C 1139 268 749 518 749 1158 
C 749 1817 1184 2048 1498 2048 
C 1843 2048 2253 1804 2253 1158 
C 2253 492 1830 268 1504 268 
z
" transform="scale(0.015625)"/>
       </defs>
       <use xlink:href="#CMSS17-32" transform="scale(0.996264)"/>
       <use xlink:href="#CMSS17-30" transform="translate(46.843624 0) scale(0.996264)"/>
       <use xlink:href="#CMSS17-31" transform="translate(93.687247 0) scale(0.996264)"/>
       <use xlink:href="#CMSS17-38" transform="translate(140.530871 0) scale(0.996264)"/>
      </g>
     </g>
    </g>
    <g id="xtick_6">
     <g id="line2d_6">
      <g>
       <use xlink:href="#mfbad94f343" x="166.432073" y="124.873179" style="stroke: #000000; stroke-width: 0.8"/>
      </g>
     </g>
     <g id="text_6">
      <!-- 2020 -->
      <g style="fill: #262626" transform="translate(157.963707 136.907981) scale(0.08 -0.08)">
       <use xlink:href="#CMSS17-32" transform="scale(0.996264)"/>
       <use xlink:href="#CMSS17-30" transform="translate(46.843624 0) scale(0.996264)"/>
       <use xlink:href="#CMSS17-32" transform="translate(93.687247 0) scale(0.996264)"/>
       <use xlink:href="#CMSS17-30" transform="translate(140.530871 0) scale(0.996264)"/>
      </g>
     </g>
    </g>
    <g id="xtick_7">
     <g id="line2d_7">
      <g>
       <use xlink:href="#mfbad94f343" x="190.824342" y="124.873179" style="stroke: #000000; stroke-width: 0.8"/>
      </g>
     </g>
     <g id="text_7">
      <!-- 2022 -->
      <g style="fill: #262626" transform="translate(182.355976 136.907981) scale(0.08 -0.08)">
       <use xlink:href="#CMSS17-32" transform="scale(0.996264)"/>
       <use xlink:href="#CMSS17-30" transform="translate(46.843624 0) scale(0.996264)"/>
       <use xlink:href="#CMSS17-32" transform="translate(93.687247 0) scale(0.996264)"/>
       <use xlink:href="#CMSS17-32" transform="translate(140.530871 0) scale(0.996264)"/>
      </g>
     </g>
    </g>
    <g id="xtick_8">
     <g id="line2d_8">
      <g>
       <use xlink:href="#mfbad94f343" x="215.216611" y="124.873179" style="stroke: #000000; stroke-width: 0.8"/>
      </g>
     </g>
     <g id="text_8">
      <!-- 2024 -->
      <g style="fill: #262626" transform="translate(206.748245 136.907981) scale(0.08 -0.08)">
       <use xlink:href="#CMSS17-32" transform="scale(0.996264)"/>
       <use xlink:href="#CMSS17-30" transform="translate(46.843624 0) scale(0.996264)"/>
       <use xlink:href="#CMSS17-32" transform="translate(93.687247 0) scale(0.996264)"/>
       <use xlink:href="#CMSS17-34" transform="translate(140.530871 0) scale(0.996264)"/>
      </g>
     </g>
    </g>
    <g id="text_9">
     <!-- Year -->
     <g style="fill: #262626" transform="translate(122.129434 147.992528) scale(0.08 -0.08)">
      <defs>
       <path id="CMSS17-59" d="M 3974 4416 
L 3424 4416 
L 2432 2875 
C 2355 2754 2138 2424 2035 2239 
L 1722 2742 
L 646 4416 
L 19 4416 
L 1734 1769 
L 1734 0 
L 2259 0 
L 2259 1762 
L 3974 4416 
z
" transform="scale(0.015625)"/>
       <path id="CMSS17-65" d="M 2502 1375 
C 2502 1587 2490 2001 2285 2347 
C 2061 2713 1696 2816 1421 2816 
C 755 2816 192 2184 192 1363 
C 192 579 774 -64 1510 -64 
C 1798 -64 2150 19 2470 249 
C 2470 275 2458 414 2451 421 
C 2451 433 2432 629 2432 655 
C 2125 408 1773 326 1517 326 
C 1107 326 666 667 646 1375 
L 2502 1375 
z
M 698 1728 
C 781 2086 1062 2425 1421 2425 
C 1517 2425 1965 2412 2080 1728 
L 698 1728 
z
" transform="scale(0.015625)"/>
       <path id="CMSS17-61" d="M 2406 1789 
C 2406 2399 1978 2816 1402 2816 
C 1120 2816 813 2764 461 2559 
L 499 2133 
C 659 2250 934 2438 1395 2438 
C 1722 2438 1920 2185 1920 1782 
L 1920 1536 
C 896 1504 256 1209 256 711 
C 256 452 416 -64 947 -64 
C 1043 -64 1562 -52 1933 224 
L 1933 -13 
L 2406 -13 
L 2406 1789 
z
M 1920 824 
C 1920 711 1920 559 1728 446 
C 1562 339 1350 326 1261 326 
C 941 326 723 503 723 723 
C 723 1165 1722 1209 1920 1216 
L 1920 824 
z
" transform="scale(0.015625)"/>
       <path id="CMSS17-72" d="M 954 1369 
C 954 1974 1395 2379 1958 2392 
L 1958 2816 
C 1549 2809 1165 2604 934 2270 
L 934 2783 
L 480 2783 
L 480 0 
L 954 0 
L 954 1369 
z
" transform="scale(0.015625)"/>
      </defs>
      <use xlink:href="#CMSS17-59" transform="scale(0.996264)"/>
      <use xlink:href="#CMSS17-65" transform="translate(54.4106 0) scale(0.996264)"/>
      <use xlink:href="#CMSS17-61" transform="translate(96.049422 0) scale(0.996264)"/>
      <use xlink:href="#CMSS17-72" transform="translate(138.368888 0) scale(0.996264)"/>
     </g>
    </g>
   </g>
   <g id="matplotlib.axis_2">
    <g id="ytick_1">
     <g id="line2d_9">
      <defs>
       <path id="mf7a08893ab" d="M 0 0 
L -3 0 
" style="stroke: #000000; stroke-width: 0.8"/>
      </defs>
      <g>
       <use xlink:href="#mf7a08893ab" x="38.372661" y="124.873179" style="stroke: #000000; stroke-width: 0.8"/>
      </g>
     </g>
     <g id="text_10">
      <!-- 0.0 -->
      <g style="fill: #262626" transform="translate(21.051971 127.64058) scale(0.08 -0.08)">
       <defs>
        <path id="CMSS17-2e" d="M 1088 512 
L 576 512 
L 576 0 
L 1088 0 
L 1088 512 
z
" transform="scale(0.015625)"/>
       </defs>
       <use xlink:href="#CMSS17-30" transform="scale(0.996264)"/>
       <use xlink:href="#CMSS17-2e" transform="translate(46.843624 0) scale(0.996264)"/>
       <use xlink:href="#CMSS17-30" transform="translate(72.867828 0) scale(0.996264)"/>
      </g>
     </g>
    </g>
    <g id="ytick_2">
     <g id="line2d_10">
      <g>
       <use xlink:href="#mf7a08893ab" x="38.372661" y="96.466422" style="stroke: #000000; stroke-width: 0.8"/>
      </g>
     </g>
     <g id="text_11">
      <!-- 2.0 -->
      <g style="fill: #262626" transform="translate(21.051971 99.233823) scale(0.08 -0.08)">
       <use xlink:href="#CMSS17-32" transform="scale(0.996264)"/>
       <use xlink:href="#CMSS17-2e" transform="translate(46.843624 0) scale(0.996264)"/>
       <use xlink:href="#CMSS17-30" transform="translate(72.867828 0) scale(0.996264)"/>
      </g>
     </g>
    </g>
    <g id="ytick_3">
     <g id="line2d_11">
      <g>
       <use xlink:href="#mf7a08893ab" x="38.372661" y="68.059666" style="stroke: #000000; stroke-width: 0.8"/>
      </g>
     </g>
     <g id="text_12">
      <!-- 4.0 -->
      <g style="fill: #262626" transform="translate(21.051971 70.827067) scale(0.08 -0.08)">
       <use xlink:href="#CMSS17-34" transform="scale(0.996264)"/>
       <use xlink:href="#CMSS17-2e" transform="translate(46.843624 0) scale(0.996264)"/>
       <use xlink:href="#CMSS17-30" transform="translate(72.867828 0) scale(0.996264)"/>
      </g>
     </g>
    </g>
    <g id="ytick_4">
     <g id="line2d_12">
      <g>
       <use xlink:href="#mf7a08893ab" x="38.372661" y="39.652909" style="stroke: #000000; stroke-width: 0.8"/>
      </g>
     </g>
     <g id="text_13">
      <!-- 6.0 -->
      <g style="fill: #262626" transform="translate(21.051971 42.42031) scale(0.08 -0.08)">
       <use xlink:href="#CMSS17-36" transform="scale(0.996264)"/>
       <use xlink:href="#CMSS17-2e" transform="translate(46.843624 0) scale(0.996264)"/>
       <use xlink:href="#CMSS17-30" transform="translate(72.867828 0) scale(0.996264)"/>
      </g>
     </g>
    </g>
    <g id="ytick_5">
     <g id="line2d_13">
      <g>
       <use xlink:href="#mf7a08893ab" x="38.372661" y="11.246153" style="stroke: #000000; stroke-width: 0.8"/>
      </g>
     </g>
     <g id="text_14">
      <!-- 8.0 -->
      <g style="fill: #262626" transform="translate(21.051971 14.013554) scale(0.08 -0.08)">
       <use xlink:href="#CMSS17-38" transform="scale(0.996264)"/>
       <use xlink:href="#CMSS17-2e" transform="translate(46.843624 0) scale(0.996264)"/>
       <use xlink:href="#CMSS17-30" transform="translate(72.867828 0) scale(0.996264)"/>
      </g>
     </g>
    </g>
    <g id="text_15">
     <!-- Publications fraction ($\times 10^{-2}$) -->
     <g style="fill: #262626" transform="translate(15.059443 120.995004) rotate(-90) scale(0.08 -0.08)">
      <defs>
       <path id="CMSS17-50" d="M 2106 1856 
C 2874 1856 3501 2447 3501 3139 
C 3501 3818 2899 4416 2067 4416 
L 570 4416 
L 570 0 
L 1107 0 
L 1107 1856 
L 2106 1856 
z
M 1926 4057 
C 2669 4057 2995 3598 2995 3139 
C 2995 2711 2694 2227 1926 2227 
L 1094 2227 
L 1094 4057 
L 1926 4057 
z
" transform="scale(0.015625)"/>
       <path id="CMSS17-75" d="M 2618 2752 
L 2131 2752 
L 2131 976 
C 2131 500 1786 307 1421 307 
C 998 307 960 448 960 712 
L 960 2752 
L 474 2752 
L 474 680 
C 474 179 646 -64 1088 -64 
C 1306 -64 1798 -13 2144 307 
L 2144 -13 
L 2618 -13 
L 2618 2752 
z
" transform="scale(0.015625)"/>
       <path id="CMSS17-62" d="M 954 4416 
L 480 4416 
L 480 -13 
L 966 -13 
L 966 275 
C 1210 38 1504 -64 1766 -64 
C 2381 -64 2880 559 2880 1382 
C 2880 2133 2496 2816 1926 2816 
C 1523 2816 1165 2649 954 2476 
L 954 4416 
z
M 966 2095 
C 1107 2276 1306 2425 1587 2425 
C 1965 2425 2394 2146 2394 1382 
C 2394 566 1882 326 1530 326 
C 1402 326 1267 358 1139 468 
C 966 624 966 721 966 812 
L 966 2095 
z
" transform="scale(0.015625)"/>
       <path id="CMSS17-6c" d="M 947 4416 
L 474 4416 
L 474 0 
L 947 0 
L 947 4416 
z
" transform="scale(0.015625)"/>
       <path id="CMSS17-69" d="M 979 4224 
L 442 4224 
L 442 3686 
L 979 3686 
L 979 4224 
z
M 947 2752 
L 474 2752 
L 474 0 
L 947 0 
L 947 2752 
z
" transform="scale(0.015625)"/>
       <path id="CMSS17-63" d="M 2464 2540 
C 2464 2585 2170 2713 2093 2739 
C 1882 2816 1613 2816 1542 2816 
C 710 2816 211 2092 211 1363 
C 211 595 768 -64 1517 -64 
C 1946 -64 2253 76 2502 243 
L 2464 665 
C 2189 454 1869 339 1523 339 
C 1024 339 698 774 698 1369 
C 698 1830 909 2412 1549 2412 
C 1901 2412 2099 2342 2394 2143 
L 2464 2540 
z
" transform="scale(0.015625)"/>
       <path id="CMSS17-74" d="M 1069 2380 
L 1901 2380 
L 1901 2752 
L 1069 2752 
L 1069 3520 
L 614 3520 
L 614 2752 
L 109 2752 
L 109 2380 
L 602 2380 
L 602 751 
C 602 384 685 -64 1107 -64 
C 1427 -64 1722 25 2003 172 
L 1901 551 
C 1747 416 1562 339 1363 339 
C 1082 339 1069 699 1069 860 
L 1069 2380 
z
" transform="scale(0.015625)"/>
       <path id="CMSS17-6f" d="M 2829 1356 
C 2829 2175 2221 2816 1504 2816 
C 768 2816 173 2156 173 1356 
C 173 544 787 -64 1498 -64 
C 2227 -64 2829 563 2829 1356 
z
M 1504 339 
C 1050 339 659 710 659 1407 
C 659 2150 1114 2425 1498 2425 
C 1914 2425 2342 2124 2342 1407 
C 2342 684 1926 339 1504 339 
z
" transform="scale(0.015625)"/>
       <path id="CMSS17-6e" d="M 2618 1878 
C 2618 2283 2522 2816 1798 2816 
C 1389 2816 1120 2604 941 2386 
L 941 2783 
L 474 2783 
L 474 0 
L 960 0 
L 960 1556 
C 960 1962 1114 2425 1549 2425 
C 2112 2425 2131 2045 2131 1826 
L 2131 0 
L 2618 0 
L 2618 1878 
z
" transform="scale(0.015625)"/>
       <path id="CMSS17-73" d="M 2061 2623 
C 1683 2803 1389 2816 1197 2816 
C 742 2816 198 2655 198 2009 
C 198 1363 902 1222 1094 1183 
C 1389 1126 1715 1062 1715 742 
C 1715 339 1254 339 1171 339 
C 915 339 563 409 243 639 
L 166 211 
C 531 0 883 -64 1178 -64 
C 1965 -64 2163 416 2163 780 
C 2163 1094 1984 1305 1862 1401 
C 1651 1567 1574 1587 1050 1695 
C 960 1708 646 1779 646 2067 
C 646 2431 1050 2431 1139 2431 
C 1555 2431 1811 2303 1984 2207 
L 2061 2623 
z
" transform="scale(0.015625)"/>
       <path id="CMSS17-66" d="M 1075 2380 
L 1722 2380 
L 1722 2752 
L 1062 2752 
L 1062 3563 
C 1062 4013 1408 4089 1606 4089 
C 1670 4089 1850 4089 2080 4007 
L 2080 4428 
C 1933 4460 1754 4480 1613 4480 
C 1018 4480 602 3994 602 3366 
L 602 2752 
L 160 2752 
L 160 2380 
L 602 2380 
L 602 0 
L 1075 0 
L 1075 2380 
z
" transform="scale(0.015625)"/>
       <path id="CMSS17-28" d="M 1613 4800 
C 1267 4447 474 3627 474 1603 
C 474 -428 1267 -1242 1613 -1600 
L 2003 -1600 
C 1216 -781 960 366 960 1596 
C 960 2820 1203 3973 2003 4800 
L 1613 4800 
z
" transform="scale(0.015625)"/>
       <path id="CMSY10-2" d="M 2490 1775 
L 1210 3046 
C 1133 3123 1120 3136 1069 3136 
C 1005 3136 941 3078 941 3008 
C 941 2963 954 2950 1024 2880 
L 2304 1596 
L 1024 313 
C 954 243 941 230 941 185 
C 941 115 1005 57 1069 57 
C 1120 57 1133 70 1210 147 
L 2483 1418 
L 3808 95 
C 3821 89 3866 57 3904 57 
C 3981 57 4032 115 4032 185 
C 4032 198 4032 223 4013 255 
C 4006 268 2989 1271 2669 1596 
L 3840 2765 
C 3872 2803 3968 2886 4000 2925 
C 4006 2937 4032 2963 4032 3008 
C 4032 3078 3981 3136 3904 3136 
C 3853 3136 3827 3110 3757 3040 
L 2490 1775 
z
" transform="scale(0.015625)"/>
       <path id="CMR17-31" d="M 1702 4083 
C 1702 4217 1696 4224 1606 4224 
C 1357 3927 979 3833 621 3820 
C 602 3820 570 3820 563 3808 
C 557 3795 557 3782 557 3648 
C 755 3648 1088 3686 1344 3839 
L 1344 467 
C 1344 243 1331 166 781 166 
L 589 166 
L 589 0 
C 896 6 1216 12 1523 12 
C 1830 12 2150 6 2458 0 
L 2458 166 
L 2266 166 
C 1715 166 1702 236 1702 467 
L 1702 4083 
z
" transform="scale(0.015625)"/>
       <path id="CMR17-30" d="M 2688 2038 
C 2688 2430 2682 3099 2413 3613 
C 2176 4063 1798 4224 1466 4224 
C 1158 4224 768 4082 525 3620 
C 269 3137 243 2539 243 2038 
C 243 1671 250 1112 448 623 
C 723 -39 1216 -128 1466 -128 
C 1760 -128 2208 -7 2470 604 
C 2662 1048 2688 1568 2688 2038 
z
M 1466 -26 
C 1056 -26 813 328 723 816 
C 653 1196 653 1749 653 2109 
C 653 2604 653 3015 736 3407 
C 858 3954 1216 4121 1466 4121 
C 1728 4121 2067 3947 2189 3420 
C 2272 3054 2278 2623 2278 2109 
C 2278 1691 2278 1176 2202 797 
C 2067 96 1690 -26 1466 -26 
z
" transform="scale(0.015625)"/>
       <path id="CMSY10-0" d="M 4218 1472 
C 4326 1472 4442 1472 4442 1600 
C 4442 1728 4326 1728 4218 1728 
L 755 1728 
C 646 1728 531 1728 531 1600 
C 531 1472 646 1472 755 1472 
L 4218 1472 
z
" transform="scale(0.015625)"/>
       <path id="CMR17-32" d="M 2669 990 
L 2554 990 
C 2490 537 2438 460 2413 422 
C 2381 371 1920 371 1830 371 
L 602 371 
C 832 620 1280 1073 1824 1596 
C 2214 1966 2669 2400 2669 3033 
C 2669 3788 2067 4224 1395 4224 
C 691 4224 262 3603 262 3027 
C 262 2777 448 2745 525 2745 
C 589 2745 781 2783 781 3007 
C 781 3206 614 3264 525 3264 
C 486 3264 448 3257 422 3244 
C 544 3788 915 4057 1306 4057 
C 1862 4057 2227 3616 2227 3033 
C 2227 2477 1901 1998 1536 1583 
L 262 147 
L 262 0 
L 2515 0 
L 2669 990 
z
" transform="scale(0.015625)"/>
       <path id="CMSS17-29" d="M 723 -1600 
C 1069 -1248 1862 -428 1862 1596 
C 1862 3627 1069 4440 723 4800 
L 333 4800 
C 1120 3979 1376 2833 1376 1603 
C 1376 379 1133 -774 333 -1600 
L 723 -1600 
z
" transform="scale(0.015625)"/>
      </defs>
      <use xlink:href="#CMSS17-50" transform="scale(0.996264)"/>
      <use xlink:href="#CMSS17-75" transform="translate(59.735586 0) scale(0.996264)"/>
      <use xlink:href="#CMSS17-62" transform="translate(107.940529 0) scale(0.996264)"/>
      <use xlink:href="#CMSS17-6c" transform="translate(156.145473 0) scale(0.996264)"/>
      <use xlink:href="#CMSS17-69" transform="translate(178.326196 0) scale(0.996264)"/>
      <use xlink:href="#CMSS17-63" transform="translate(200.506919 0) scale(0.996264)"/>
      <use xlink:href="#CMSS17-61" transform="translate(242.145741 0) scale(0.996264)"/>
      <use xlink:href="#CMSS17-74" transform="translate(287.067661 0) scale(0.996264)"/>
      <use xlink:href="#CMSS17-69" transform="translate(320.899228 0) scale(0.996264)"/>
      <use xlink:href="#CMSS17-6f" transform="translate(343.079951 0) scale(0.996264)"/>
      <use xlink:href="#CMSS17-6e" transform="translate(389.923575 0) scale(0.996264)"/>
      <use xlink:href="#CMSS17-73" transform="translate(438.128518 0) scale(0.996264)"/>
      <use xlink:href="#CMSS17-66" transform="translate(505.271172 0) scale(0.996264)"/>
      <use xlink:href="#CMSS17-72" transform="translate(533.897831 0) scale(0.996264)"/>
      <use xlink:href="#CMSS17-61" transform="translate(565.807604 0) scale(0.996264)"/>
      <use xlink:href="#CMSS17-63" transform="translate(610.729524 0) scale(0.996264)"/>
      <use xlink:href="#CMSS17-74" transform="translate(652.368346 0) scale(0.996264)"/>
      <use xlink:href="#CMSS17-69" transform="translate(686.199913 0) scale(0.996264)"/>
      <use xlink:href="#CMSS17-6f" transform="translate(708.380636 0) scale(0.996264)"/>
      <use xlink:href="#CMSS17-6e" transform="translate(755.22426 0) scale(0.996264)"/>
      <use xlink:href="#CMSS17-28" transform="translate(834.658316 0) scale(0.996264)"/>
      <use xlink:href="#CMSY10-2" transform="translate(871.09223 0) scale(0.996264)"/>
      <use xlink:href="#CMR17-31" transform="translate(948.579697 0) scale(0.996264)"/>
      <use xlink:href="#CMR17-30" transform="translate(994.270175 0) scale(0.996264)"/>
      <use xlink:href="#CMSY10-0" transform="translate(1039.960652 36.153639) scale(0.697382)"/>
      <use xlink:href="#CMR17-32" transform="translate(1094.201645 36.153639) scale(0.697382)"/>
      <use xlink:href="#CMSS17-29" transform="translate(1126.682959 0) scale(0.996264)"/>
     </g>
    </g>
   </g>
   <g id="patch_3">
    <path d="M 210.64306 124.873179 
L 213.692094 124.873179 
L 213.692094 109.804878 
L 210.64306 109.804878 
z
" clip-path="url(#p49d7658611)"/>
   </g>
   <g id="patch_4">
    <path d="M 198.446926 124.873179 
L 201.495959 124.873179 
L 201.495959 110.163093 
L 198.446926 110.163093 
z
" clip-path="url(#p49d7658611)"/>
   </g>
   <g id="patch_5">
    <path d="M 186.250791 124.873179 
L 189.299825 124.873179 
L 189.299825 110.416853 
L 186.250791 110.416853 
z
" clip-path="url(#p49d7658611)"/>
   </g>
   <g id="patch_6">
    <path d="M 174.054657 124.873179 
L 177.10369 124.873179 
L 177.10369 111.050743 
L 174.054657 111.050743 
z
" clip-path="url(#p49d7658611)"/>
   </g>
   <g id="patch_7">
    <path d="M 161.858522 124.873179 
L 164.907556 124.873179 
L 164.907556 111.173622 
L 161.858522 111.173622 
z
" clip-path="url(#p49d7658611)"/>
   </g>
   <g id="patch_8">
    <path d="M 149.662388 124.873179 
L 152.711421 124.873179 
L 152.711421 110.373915 
L 149.662388 110.373915 
z
" clip-path="url(#p49d7658611)"/>
   </g>
   <g id="patch_9">
    <path d="M 137.466253 124.873179 
L 140.515287 124.873179 
L 140.515287 110.601662 
L 137.466253 110.601662 
z
" clip-path="url(#p49d7658611)"/>
   </g>
   <g id="patch_10">
    <path d="M 125.270119 124.873179 
L 128.319152 124.873179 
L 128.319152 110.964158 
L 125.270119 110.964158 
z
" clip-path="url(#p49d7658611)"/>
   </g>
   <g id="patch_11">
    <path d="M 113.073984 124.873179 
L 116.123018 124.873179 
L 116.123018 111.589025 
L 113.073984 111.589025 
z
" clip-path="url(#p49d7658611)"/>
   </g>
   <g id="patch_12">
    <path d="M 100.87785 124.873179 
L 103.926883 124.873179 
L 103.926883 111.73257 
L 100.87785 111.73257 
z
" clip-path="url(#p49d7658611)"/>
   </g>
   <g id="patch_13">
    <path d="M 88.681715 124.873179 
L 91.730749 124.873179 
L 91.730749 110.779918 
L 88.681715 110.779918 
z
" clip-path="url(#p49d7658611)"/>
   </g>
   <g id="patch_14">
    <path d="M 76.485581 124.873179 
L 79.534614 124.873179 
L 79.534614 111.493649 
L 76.485581 111.493649 
z
" clip-path="url(#p49d7658611)"/>
   </g>
   <g id="patch_15">
    <path d="M 64.289446 124.873179 
L 67.33848 124.873179 
L 67.33848 111.341804 
L 64.289446 111.341804 
z
" clip-path="url(#p49d7658611)"/>
   </g>
   <g id="patch_16">
    <path d="M 52.093312 124.873179 
L 55.142346 124.873179 
L 55.142346 111.558617 
L 52.093312 111.558617 
z
" clip-path="url(#p49d7658611)"/>
   </g>
   <g id="patch_17">
    <path d="M 39.897177 124.873179 
L 42.946211 124.873179 
L 42.946211 112.222673 
L 39.897177 112.222673 
z
" clip-path="url(#p49d7658611)"/>
   </g>
   <g id="patch_18">
    <path d="M 213.692094 124.873179 
L 216.741127 124.873179 
L 216.741127 43.201471 
L 213.692094 43.201471 
z
" clip-path="url(#p49d7658611)" style="fill: #3f4d90"/>
   </g>
   <g id="patch_19">
    <path d="M 201.495959 124.873179 
L 204.544993 124.873179 
L 204.544993 58.74869 
L 201.495959 58.74869 
z
" clip-path="url(#p49d7658611)" style="fill: #3f4d90"/>
   </g>
   <g id="patch_20">
    <path d="M 189.299825 124.873179 
L 192.348858 124.873179 
L 192.348858 70.110798 
L 189.299825 70.110798 
z
" clip-path="url(#p49d7658611)" style="fill: #3f4d90"/>
   </g>
   <g id="patch_21">
    <path d="M 177.10369 124.873179 
L 180.152724 124.873179 
L 180.152724 82.022381 
L 177.10369 82.022381 
z
" clip-path="url(#p49d7658611)" style="fill: #3f4d90"/>
   </g>
   <g id="patch_22">
    <path d="M 164.907556 124.873179 
L 167.956589 124.873179 
L 167.956589 90.853228 
L 164.907556 90.853228 
z
" clip-path="url(#p49d7658611)" style="fill: #3f4d90"/>
   </g>
   <g id="patch_23">
    <path d="M 152.711421 124.873179 
L 155.760455 124.873179 
L 155.760455 97.937703 
L 152.711421 97.937703 
z
" clip-path="url(#p49d7658611)" style="fill: #3f4d90"/>
   </g>
   <g id="patch_24">
    <path d="M 140.515287 124.873179 
L 143.564321 124.873179 
L 143.564321 106.565641 
L 140.515287 106.565641 
z
" clip-path="url(#p49d7658611)" style="fill: #3f4d90"/>
   </g>
   <g id="patch_25">
    <path d="M 128.319152 124.873179 
L 131.368186 124.873179 
L 131.368186 112.072748 
L 128.319152 112.072748 
z
" clip-path="url(#p49d7658611)" style="fill: #3f4d90"/>
   </g>
   <g id="patch_26">
    <path d="M 116.123018 124.873179 
L 119.172052 124.873179 
L 119.172052 115.418431 
L 116.123018 115.418431 
z
" clip-path="url(#p49d7658611)" style="fill: #3f4d90"/>
   </g>
   <g id="patch_27">
    <path d="M 103.926883 124.873179 
L 106.975917 124.873179 
L 106.975917 117.129113 
L 103.926883 117.129113 
z
" clip-path="url(#p49d7658611)" style="fill: #3f4d90"/>
   </g>
   <g id="patch_28">
    <path d="M 91.730749 124.873179 
L 94.779783 124.873179 
L 94.779783 117.558222 
L 91.730749 117.558222 
z
" clip-path="url(#p49d7658611)" style="fill: #3f4d90"/>
   </g>
   <g id="patch_29">
    <path d="M 79.534614 124.873179 
L 82.583648 124.873179 
L 82.583648 118.0532 
L 79.534614 118.0532 
z
" clip-path="url(#p49d7658611)" style="fill: #3f4d90"/>
   </g>
   <g id="patch_30">
    <path d="M 67.33848 124.873179 
L 70.387514 124.873179 
L 70.387514 117.985191 
L 67.33848 117.985191 
z
" clip-path="url(#p49d7658611)" style="fill: #3f4d90"/>
   </g>
   <g id="patch_31">
    <path d="M 55.142346 124.873179 
L 58.191379 124.873179 
L 58.191379 117.548134 
L 55.142346 117.548134 
z
" clip-path="url(#p49d7658611)" style="fill: #3f4d90"/>
   </g>
   <g id="patch_32">
    <path d="M 42.946211 124.873179 
L 45.995245 124.873179 
L 45.995245 117.406336 
L 42.946211 117.406336 
z
" clip-path="url(#p49d7658611)" style="fill: #3f4d90"/>
   </g>
   <g id="patch_33">
    <path d="M 216.741127 124.873179 
L 219.790161 124.873179 
L 219.790161 29.118364 
L 216.741127 29.118364 
z
" clip-path="url(#p49d7658611)" style="fill: #8e8e8e"/>
   </g>
   <g id="patch_34">
    <path d="M 204.544993 124.873179 
L 207.594027 124.873179 
L 207.594027 44.822301 
L 204.544993 44.822301 
z
" clip-path="url(#p49d7658611)" style="fill: #8e8e8e"/>
   </g>
   <g id="patch_35">
    <path d="M 192.348858 124.873179 
L 195.397892 124.873179 
L 195.397892 56.251229 
L 192.348858 56.251229 
z
" clip-path="url(#p49d7658611)" style="fill: #8e8e8e"/>
   </g>
   <g id="patch_36">
    <path d="M 180.152724 124.873179 
L 183.201758 124.873179 
L 183.201758 68.64381 
L 180.152724 68.64381 
z
" clip-path="url(#p49d7658611)" style="fill: #8e8e8e"/>
   </g>
   <g id="patch_37">
    <path d="M 167.956589 124.873179 
L 171.005623 124.873179 
L 171.005623 77.480626 
L 167.956589 77.480626 
z
" clip-path="url(#p49d7658611)" style="fill: #8e8e8e"/>
   </g>
   <g id="patch_38">
    <path d="M 155.760455 124.873179 
L 158.809489 124.873179 
L 158.809489 83.67358 
L 155.760455 83.67358 
z
" clip-path="url(#p49d7658611)" style="fill: #8e8e8e"/>
   </g>
   <g id="patch_39">
    <path d="M 143.564321 124.873179 
L 146.613354 124.873179 
L 146.613354 92.457774 
L 143.564321 92.457774 
z
" clip-path="url(#p49d7658611)" style="fill: #8e8e8e"/>
   </g>
   <g id="patch_40">
    <path d="M 131.368186 124.873179 
L 134.41722 124.873179 
L 134.41722 98.284396 
L 131.368186 98.284396 
z
" clip-path="url(#p49d7658611)" style="fill: #8e8e8e"/>
   </g>
   <g id="patch_41">
    <path d="M 119.172052 124.873179 
L 122.221085 124.873179 
L 122.221085 102.240899 
L 119.172052 102.240899 
z
" clip-path="url(#p49d7658611)" style="fill: #8e8e8e"/>
   </g>
   <g id="patch_42">
    <path d="M 106.975917 124.873179 
L 110.024951 124.873179 
L 110.024951 104.07403 
L 106.975917 104.07403 
z
" clip-path="url(#p49d7658611)" style="fill: #8e8e8e"/>
   </g>
   <g id="patch_43">
    <path d="M 94.779783 124.873179 
L 97.828816 124.873179 
L 97.828816 103.585943 
L 94.779783 103.585943 
z
" clip-path="url(#p49d7658611)" style="fill: #8e8e8e"/>
   </g>
   <g id="patch_44">
    <path d="M 82.583648 124.873179 
L 85.632682 124.873179 
L 85.632682 104.8008 
L 82.583648 104.8008 
z
" clip-path="url(#p49d7658611)" style="fill: #8e8e8e"/>
   </g>
   <g id="patch_45">
    <path d="M 70.387514 124.873179 
L 73.436547 124.873179 
L 73.436547 104.555775 
L 70.387514 104.555775 
z
" clip-path="url(#p49d7658611)" style="fill: #8e8e8e"/>
   </g>
   <g id="patch_46">
    <path d="M 58.191379 124.873179 
L 61.240413 124.873179 
L 61.240413 104.354696 
L 58.191379 104.354696 
z
" clip-path="url(#p49d7658611)" style="fill: #8e8e8e"/>
   </g>
   <g id="patch_47">
    <path d="M 45.995245 124.873179 
L 49.044278 124.873179 
L 49.044278 104.875344 
L 45.995245 104.875344 
z
" clip-path="url(#p49d7658611)" style="fill: #8e8e8e"/>
   </g>
   <g id="patch_48">
    <path d="M 38.372661 124.873179 
L 38.372661 9.967401 
" style="fill: none; stroke: #000000; stroke-linejoin: miter; stroke-linecap: square"/>
   </g>
   <g id="patch_49">
    <path d="M 38.372661 124.873179 
L 221.314678 124.873179 
" style="fill: none; stroke: #000000; stroke-linejoin: miter; stroke-linecap: square"/>
   </g>
   <g id="legend_1">
    <g id="patch_50">
     <path d="M 45.572661 22.767401 
L 61.572661 22.767401 
L 61.572661 17.167401 
L 45.572661 17.167401 
z
"/>
    </g>
    <g id="text_16">
     <!-- Standard numerical -->
     <g style="fill: #262626" transform="translate(67.972661 22.767401) scale(0.08 -0.08)">
      <defs>
       <path id="CMSS17-53" d="M 2797 4230 
C 2515 4396 2208 4544 1690 4544 
C 864 4544 333 3934 333 3309 
C 333 3064 403 2787 653 2504 
C 902 2220 1184 2143 1542 2053 
C 1690 2014 1939 1943 1984 1924 
C 2342 1782 2515 1454 2515 1144 
C 2515 738 2202 307 1645 307 
C 1453 307 890 339 358 829 
L 269 320 
C 794 -64 1363 -128 1651 -128 
C 2438 -128 3002 494 3002 1202 
C 3002 1460 2925 1789 2656 2092 
C 2394 2381 2163 2446 1638 2588 
C 1338 2665 1146 2717 986 2916 
C 877 3058 819 3193 819 3367 
C 819 3728 1126 4121 1690 4121 
C 1971 4121 2336 4063 2707 3715 
L 2797 4230 
z
" transform="scale(0.015625)"/>
       <path id="CMSS17-64" d="M 2611 4416 
L 2138 4416 
L 2138 2495 
C 1939 2662 1613 2816 1254 2816 
C 672 2816 211 2179 211 1375 
C 211 572 666 -64 1235 -64 
C 1677 -64 1971 172 2125 307 
L 2125 -13 
L 2611 -13 
L 2611 4416 
z
M 2125 851 
C 2125 760 2125 663 1926 488 
C 1798 378 1645 326 1498 326 
C 1152 326 698 585 698 1369 
C 698 2185 1210 2425 1562 2425 
C 1798 2425 1990 2308 2125 2114 
L 2125 851 
z
" transform="scale(0.015625)"/>
       <path id="CMSS17-6d" d="M 4288 1878 
C 4288 2309 4179 2816 3462 2816 
C 2982 2816 2694 2515 2566 2328 
C 2451 2668 2182 2816 1798 2816 
C 1363 2816 1088 2566 941 2386 
L 941 2783 
L 474 2783 
L 474 0 
L 960 0 
L 960 1556 
C 960 1936 1101 2425 1555 2425 
C 2138 2425 2138 2013 2138 1826 
L 2138 0 
L 2624 0 
L 2624 1556 
C 2624 1936 2765 2425 3219 2425 
C 3802 2425 3802 2013 3802 1826 
L 3802 0 
L 4288 0 
L 4288 1878 
z
" transform="scale(0.015625)"/>
      </defs>
      <use xlink:href="#CMSS17-53" transform="scale(0.996264)"/>
      <use xlink:href="#CMSS17-74" transform="translate(52.048516 0) scale(0.996264)"/>
      <use xlink:href="#CMSS17-61" transform="translate(85.880083 0) scale(0.996264)"/>
      <use xlink:href="#CMSS17-6e" transform="translate(130.802003 0) scale(0.996264)"/>
      <use xlink:href="#CMSS17-64" transform="translate(179.006947 0) scale(0.996264)"/>
      <use xlink:href="#CMSS17-61" transform="translate(227.21189 0) scale(0.996264)"/>
      <use xlink:href="#CMSS17-72" transform="translate(269.531356 0) scale(0.996264)"/>
      <use xlink:href="#CMSS17-64" transform="translate(301.441129 0) scale(0.996264)"/>
      <use xlink:href="#CMSS17-6e" transform="translate(380.875185 0) scale(0.996264)"/>
      <use xlink:href="#CMSS17-75" transform="translate(429.080128 0) scale(0.996264)"/>
      <use xlink:href="#CMSS17-6d" transform="translate(477.285071 0) scale(0.996264)"/>
      <use xlink:href="#CMSS17-65" transform="translate(551.514326 0) scale(0.996264)"/>
      <use xlink:href="#CMSS17-72" transform="translate(593.153148 0) scale(0.996264)"/>
      <use xlink:href="#CMSS17-69" transform="translate(625.06292 0) scale(0.996264)"/>
      <use xlink:href="#CMSS17-63" transform="translate(647.243643 0) scale(0.996264)"/>
      <use xlink:href="#CMSS17-61" transform="translate(688.882465 0) scale(0.996264)"/>
      <use xlink:href="#CMSS17-6c" transform="translate(733.804386 0) scale(0.996264)"/>
     </g>
    </g>
    <g id="patch_51">
     <path d="M 45.572661 33.917147 
L 61.572661 33.917147 
L 61.572661 28.317147 
L 45.572661 28.317147 
z
" style="fill: #3f4d90"/>
    </g>
    <g id="text_17">
     <!-- Machine learning -->
     <g style="fill: #262626" transform="translate(67.972661 33.917147) scale(0.08 -0.08)">
      <defs>
       <path id="CMSS17-4d" d="M 3194 2373 
L 2886 1476 
C 2835 1311 2662 795 2624 592 
L 2618 592 
C 2598 719 2560 853 2458 1177 
C 2400 1368 2336 1565 2272 1743 
L 1325 4416 
L 576 4416 
L 576 0 
L 1075 0 
L 1075 3899 
L 1082 3899 
C 1082 3893 1139 3613 1530 2500 
L 2374 102 
L 2848 102 
L 3610 2233 
C 3661 2379 3821 2843 3891 3066 
C 3955 3257 4115 3728 4154 3912 
L 4160 3912 
L 4160 0 
L 4666 0 
L 4666 4416 
L 3923 4416 
L 3194 2373 
z
" transform="scale(0.015625)"/>
       <path id="CMSS17-68" d="M 2618 1878 
C 2618 2283 2522 2816 1798 2816 
C 1395 2816 1133 2617 947 2399 
L 947 4416 
L 474 4416 
L 474 0 
L 960 0 
L 960 1556 
C 960 1962 1114 2425 1549 2425 
C 2112 2425 2131 2045 2131 1826 
L 2131 0 
L 2618 0 
L 2618 1878 
z
" transform="scale(0.015625)"/>
       <path id="CMSS17-67" d="M 2848 2816 
C 2483 2809 2170 2739 1914 2617 
C 1702 2783 1485 2816 1338 2816 
C 781 2816 358 2356 358 1824 
C 358 1481 550 1222 563 1209 
C 448 1049 384 876 384 684 
C 384 460 474 300 544 211 
C 211 6 166 -308 166 -429 
C 166 -896 749 -1280 1498 -1280 
C 2253 -1280 2835 -896 2835 -423 
C 2835 460 1856 467 1587 467 
L 1069 467 
C 973 467 717 467 717 793 
C 717 921 774 1004 781 1011 
C 877 940 1075 832 1338 832 
C 1869 832 2310 1279 2310 1824 
C 2310 2128 2170 2349 2112 2425 
L 2131 2425 
C 2150 2425 2419 2444 2515 2444 
C 2720 2444 2739 2438 2918 2419 
L 2848 2816 
z
M 1338 1184 
C 1120 1184 813 1317 813 1824 
C 813 2375 1165 2463 1331 2463 
C 1549 2463 1856 2330 1856 1824 
C 1856 1272 1504 1184 1338 1184 
z
M 1581 0 
C 1734 0 2381 0 2381 -436 
C 2381 -711 1984 -928 1504 -928 
C 1018 -928 621 -717 621 -429 
C 621 -397 621 0 1062 0 
L 1581 0 
z
" transform="scale(0.015625)"/>
      </defs>
      <use xlink:href="#CMSS17-4d" transform="scale(0.996264)"/>
      <use xlink:href="#CMSS17-61" transform="translate(81.67603 0) scale(0.996264)"/>
      <use xlink:href="#CMSS17-63" transform="translate(126.597951 0) scale(0.996264)"/>
      <use xlink:href="#CMSS17-68" transform="translate(168.236773 0) scale(0.996264)"/>
      <use xlink:href="#CMSS17-69" transform="translate(216.441716 0) scale(0.996264)"/>
      <use xlink:href="#CMSS17-6e" transform="translate(238.622439 0) scale(0.996264)"/>
      <use xlink:href="#CMSS17-65" transform="translate(286.827382 0) scale(0.996264)"/>
      <use xlink:href="#CMSS17-6c" transform="translate(359.695317 0) scale(0.996264)"/>
      <use xlink:href="#CMSS17-65" transform="translate(381.87604 0) scale(0.996264)"/>
      <use xlink:href="#CMSS17-61" transform="translate(423.514862 0) scale(0.996264)"/>
      <use xlink:href="#CMSS17-72" transform="translate(465.834329 0) scale(0.996264)"/>
      <use xlink:href="#CMSS17-6e" transform="translate(497.744101 0) scale(0.996264)"/>
      <use xlink:href="#CMSS17-69" transform="translate(545.949044 0) scale(0.996264)"/>
      <use xlink:href="#CMSS17-6e" transform="translate(568.129767 0) scale(0.996264)"/>
      <use xlink:href="#CMSS17-67" transform="translate(616.33471 0) scale(0.996264)"/>
     </g>
    </g>
    <g id="patch_52">
     <path d="M 45.572661 45.444476 
L 61.572661 45.444476 
L 61.572661 39.844476 
L 45.572661 39.844476 
z
" style="fill: #8e8e8e"/>
    </g>
    <g id="text_18">
     <!-- Either / Both -->
     <g style="fill: #262626" transform="translate(67.972661 45.444476) scale(0.08 -0.08)">
      <defs>
       <path id="CMSS17-45" d="M 1958 435 
C 1446 435 1216 435 1101 428 
L 1101 2105 
L 3085 2105 
L 3085 2496 
L 1101 2496 
L 1101 3993 
L 1926 3993 
C 2003 3993 2080 3987 2157 3987 
L 3251 3987 
L 3251 4403 
L 563 4403 
L 563 0 
L 3334 0 
L 3334 441 
L 1958 435 
z
" transform="scale(0.015625)"/>
       <path id="CMSS17-2f" d="M 2637 4575 
C 2669 4658 2669 4671 2669 4684 
C 2669 4761 2611 4800 2560 4800 
C 2483 4800 2458 4748 2432 4671 
L 365 -1376 
C 333 -1460 333 -1472 333 -1485 
C 333 -1562 390 -1600 442 -1600 
C 518 -1600 544 -1549 570 -1472 
L 2637 4575 
z
" transform="scale(0.015625)"/>
       <path id="CMSS17-42" d="M 570 4416 
L 570 0 
L 2163 0 
C 3034 0 3667 575 3667 1200 
C 3667 1684 3251 2175 2502 2316 
C 3334 2559 3501 3039 3501 3311 
C 3501 3880 2874 4416 1997 4416 
L 570 4416 
z
M 1088 2496 
L 1088 4057 
L 1824 4057 
C 2483 4057 3002 3722 3002 3305 
C 3002 2925 2592 2496 1766 2496 
L 1088 2496 
z
M 1088 358 
L 1088 2105 
L 1939 2105 
C 2630 2105 3162 1678 3162 1206 
C 3162 772 2694 358 1984 358 
L 1088 358 
z
" transform="scale(0.015625)"/>
      </defs>
      <use xlink:href="#CMSS17-45" transform="scale(0.996264)"/>
      <use xlink:href="#CMSS17-69" transform="translate(55.892013 0) scale(0.996264)"/>
      <use xlink:href="#CMSS17-74" transform="translate(78.072736 0) scale(0.996264)"/>
      <use xlink:href="#CMSS17-68" transform="translate(111.904303 0) scale(0.996264)"/>
      <use xlink:href="#CMSS17-65" transform="translate(160.109246 0) scale(0.996264)"/>
      <use xlink:href="#CMSS17-72" transform="translate(201.748068 0) scale(0.996264)"/>
      <use xlink:href="#CMSS17-2f" transform="translate(264.886953 0) scale(0.996264)"/>
      <use xlink:href="#CMSS17-42" transform="translate(342.95969 0) scale(0.996264)"/>
      <use xlink:href="#CMSS17-6f" transform="translate(405.29773 0) scale(0.996264)"/>
      <use xlink:href="#CMSS17-74" transform="translate(452.141353 0) scale(0.996264)"/>
      <use xlink:href="#CMSS17-68" transform="translate(485.97292 0) scale(0.996264)"/>
     </g>
    </g>
   </g>
  </g>
  <g id="axes_2">
   <g id="patch_53">
    <path d="M 272.29737 124.873179 
L 455.239387 124.873179 
L 455.239387 9.967401 
L 272.29737 9.967401 
z
" style="fill: #ffffff"/>
   </g>
   <g id="matplotlib.axis_3">
    <g id="xtick_9">
     <g id="line2d_14">
      <g>
       <use xlink:href="#mfbad94f343" x="278.395437" y="124.873179" style="stroke: #000000; stroke-width: 0.8"/>
      </g>
     </g>
     <g id="text_19">
      <!-- 2010 -->
      <g style="fill: #262626" transform="translate(269.927072 136.907981) scale(0.08 -0.08)">
       <use xlink:href="#CMSS17-32" transform="scale(0.996264)"/>
       <use xlink:href="#CMSS17-30" transform="translate(46.843624 0) scale(0.996264)"/>
       <use xlink:href="#CMSS17-31" transform="translate(93.687247 0) scale(0.996264)"/>
       <use xlink:href="#CMSS17-30" transform="translate(140.530871 0) scale(0.996264)"/>
      </g>
     </g>
    </g>
    <g id="xtick_10">
     <g id="line2d_15">
      <g>
       <use xlink:href="#mfbad94f343" x="302.787706" y="124.873179" style="stroke: #000000; stroke-width: 0.8"/>
      </g>
     </g>
     <g id="text_20">
      <!-- 2012 -->
      <g style="fill: #262626" transform="translate(294.319341 136.907981) scale(0.08 -0.08)">
       <use xlink:href="#CMSS17-32" transform="scale(0.996264)"/>
       <use xlink:href="#CMSS17-30" transform="translate(46.843624 0) scale(0.996264)"/>
       <use xlink:href="#CMSS17-31" transform="translate(93.687247 0) scale(0.996264)"/>
       <use xlink:href="#CMSS17-32" transform="translate(140.530871 0) scale(0.996264)"/>
      </g>
     </g>
    </g>
    <g id="xtick_11">
     <g id="line2d_16">
      <g>
       <use xlink:href="#mfbad94f343" x="327.179975" y="124.873179" style="stroke: #000000; stroke-width: 0.8"/>
      </g>
     </g>
     <g id="text_21">
      <!-- 2014 -->
      <g style="fill: #262626" transform="translate(318.71161 136.907981) scale(0.08 -0.08)">
       <use xlink:href="#CMSS17-32" transform="scale(0.996264)"/>
       <use xlink:href="#CMSS17-30" transform="translate(46.843624 0) scale(0.996264)"/>
       <use xlink:href="#CMSS17-31" transform="translate(93.687247 0) scale(0.996264)"/>
       <use xlink:href="#CMSS17-34" transform="translate(140.530871 0) scale(0.996264)"/>
      </g>
     </g>
    </g>
    <g id="xtick_12">
     <g id="line2d_17">
      <g>
       <use xlink:href="#mfbad94f343" x="351.572244" y="124.873179" style="stroke: #000000; stroke-width: 0.8"/>
      </g>
     </g>
     <g id="text_22">
      <!-- 2016 -->
      <g style="fill: #262626" transform="translate(343.103879 136.907981) scale(0.08 -0.08)">
       <use xlink:href="#CMSS17-32" transform="scale(0.996264)"/>
       <use xlink:href="#CMSS17-30" transform="translate(46.843624 0) scale(0.996264)"/>
       <use xlink:href="#CMSS17-31" transform="translate(93.687247 0) scale(0.996264)"/>
       <use xlink:href="#CMSS17-36" transform="translate(140.530871 0) scale(0.996264)"/>
      </g>
     </g>
    </g>
    <g id="xtick_13">
     <g id="line2d_18">
      <g>
       <use xlink:href="#mfbad94f343" x="375.964513" y="124.873179" style="stroke: #000000; stroke-width: 0.8"/>
      </g>
     </g>
     <g id="text_23">
      <!-- 2018 -->
      <g style="fill: #262626" transform="translate(367.496147 136.907981) scale(0.08 -0.08)">
       <use xlink:href="#CMSS17-32" transform="scale(0.996264)"/>
       <use xlink:href="#CMSS17-30" transform="translate(46.843624 0) scale(0.996264)"/>
       <use xlink:href="#CMSS17-31" transform="translate(93.687247 0) scale(0.996264)"/>
       <use xlink:href="#CMSS17-38" transform="translate(140.530871 0) scale(0.996264)"/>
      </g>
     </g>
    </g>
    <g id="xtick_14">
     <g id="line2d_19">
      <g>
       <use xlink:href="#mfbad94f343" x="400.356782" y="124.873179" style="stroke: #000000; stroke-width: 0.8"/>
      </g>
     </g>
     <g id="text_24">
      <!-- 2020 -->
      <g style="fill: #262626" transform="translate(391.888416 136.907981) scale(0.08 -0.08)">
       <use xlink:href="#CMSS17-32" transform="scale(0.996264)"/>
       <use xlink:href="#CMSS17-30" transform="translate(46.843624 0) scale(0.996264)"/>
       <use xlink:href="#CMSS17-32" transform="translate(93.687247 0) scale(0.996264)"/>
       <use xlink:href="#CMSS17-30" transform="translate(140.530871 0) scale(0.996264)"/>
      </g>
     </g>
    </g>
    <g id="xtick_15">
     <g id="line2d_20">
      <g>
       <use xlink:href="#mfbad94f343" x="424.749051" y="124.873179" style="stroke: #000000; stroke-width: 0.8"/>
      </g>
     </g>
     <g id="text_25">
      <!-- 2022 -->
      <g style="fill: #262626" transform="translate(416.280685 136.907981) scale(0.08 -0.08)">
       <use xlink:href="#CMSS17-32" transform="scale(0.996264)"/>
       <use xlink:href="#CMSS17-30" transform="translate(46.843624 0) scale(0.996264)"/>
       <use xlink:href="#CMSS17-32" transform="translate(93.687247 0) scale(0.996264)"/>
       <use xlink:href="#CMSS17-32" transform="translate(140.530871 0) scale(0.996264)"/>
      </g>
     </g>
    </g>
    <g id="xtick_16">
     <g id="line2d_21">
      <g>
       <use xlink:href="#mfbad94f343" x="449.14132" y="124.873179" style="stroke: #000000; stroke-width: 0.8"/>
      </g>
     </g>
     <g id="text_26">
      <!-- 2024 -->
      <g style="fill: #262626" transform="translate(440.672954 136.907981) scale(0.08 -0.08)">
       <use xlink:href="#CMSS17-32" transform="scale(0.996264)"/>
       <use xlink:href="#CMSS17-30" transform="translate(46.843624 0) scale(0.996264)"/>
       <use xlink:href="#CMSS17-32" transform="translate(93.687247 0) scale(0.996264)"/>
       <use xlink:href="#CMSS17-34" transform="translate(140.530871 0) scale(0.996264)"/>
      </g>
     </g>
    </g>
    <g id="text_27">
     <!-- Year -->
     <g style="fill: #262626" transform="translate(356.054143 147.992528) scale(0.08 -0.08)">
      <use xlink:href="#CMSS17-59" transform="scale(0.996264)"/>
      <use xlink:href="#CMSS17-65" transform="translate(54.4106 0) scale(0.996264)"/>
      <use xlink:href="#CMSS17-61" transform="translate(96.049422 0) scale(0.996264)"/>
      <use xlink:href="#CMSS17-72" transform="translate(138.368888 0) scale(0.996264)"/>
     </g>
    </g>
   </g>
   <g id="matplotlib.axis_4">
    <g id="ytick_6">
     <g id="line2d_22">
      <g>
       <use xlink:href="#mf7a08893ab" x="272.29737" y="124.873179" style="stroke: #000000; stroke-width: 0.8"/>
      </g>
     </g>
     <g id="text_28">
      <!-- 0.00 -->
      <g style="fill: #262626" transform="translate(250.742498 127.64058) scale(0.08 -0.08)">
       <use xlink:href="#CMSS17-30" transform="scale(0.996264)"/>
       <use xlink:href="#CMSS17-2e" transform="translate(46.843624 0) scale(0.996264)"/>
       <use xlink:href="#CMSS17-30" transform="translate(72.867828 0) scale(0.996264)"/>
       <use xlink:href="#CMSS17-30" transform="translate(119.711452 0) scale(0.996264)"/>
      </g>
     </g>
    </g>
    <g id="ytick_7">
     <g id="line2d_23">
      <g>
       <use xlink:href="#mf7a08893ab" x="272.29737" y="96.146734" style="stroke: #000000; stroke-width: 0.8"/>
      </g>
     </g>
     <g id="text_29">
      <!-- 0.32 -->
      <g style="fill: #262626" transform="translate(250.742498 98.914135) scale(0.08 -0.08)">
       <defs>
        <path id="CMSS17-33" d="M 1005 2060 
L 1440 2060 
C 2042 2060 2214 1532 2214 1164 
C 2214 662 1933 268 1472 268 
C 1114 268 608 449 320 926 
C 275 700 275 687 250 533 
C 550 89 1037 -128 1485 -128 
C 2214 -128 2752 481 2752 1158 
C 2752 1667 2400 2092 1920 2252 
C 2304 2463 2586 2860 2586 3321 
C 2586 3859 2093 4288 1491 4288 
C 941 4288 512 3948 333 3583 
C 378 3519 493 3334 550 3238 
C 691 3615 1056 3897 1485 3897 
C 1843 3897 2080 3660 2080 3321 
C 2080 2969 1856 2585 1478 2496 
C 1453 2496 1056 2457 1005 2451 
L 1005 2060 
z
" transform="scale(0.015625)"/>
       </defs>
       <use xlink:href="#CMSS17-30" transform="scale(0.996264)"/>
       <use xlink:href="#CMSS17-2e" transform="translate(46.843624 0) scale(0.996264)"/>
       <use xlink:href="#CMSS17-33" transform="translate(72.867828 0) scale(0.996264)"/>
       <use xlink:href="#CMSS17-32" transform="translate(119.711452 0) scale(0.996264)"/>
      </g>
     </g>
    </g>
    <g id="ytick_8">
     <g id="line2d_24">
      <g>
       <use xlink:href="#mf7a08893ab" x="272.29737" y="67.42029" style="stroke: #000000; stroke-width: 0.8"/>
      </g>
     </g>
     <g id="text_30">
      <!-- 0.63 -->
      <g style="fill: #262626" transform="translate(250.742498 70.187691) scale(0.08 -0.08)">
       <use xlink:href="#CMSS17-30" transform="scale(0.996264)"/>
       <use xlink:href="#CMSS17-2e" transform="translate(46.843624 0) scale(0.996264)"/>
       <use xlink:href="#CMSS17-36" transform="translate(72.867828 0) scale(0.996264)"/>
       <use xlink:href="#CMSS17-33" transform="translate(119.711452 0) scale(0.996264)"/>
      </g>
     </g>
    </g>
    <g id="ytick_9">
     <g id="line2d_25">
      <g>
       <use xlink:href="#mf7a08893ab" x="272.29737" y="38.693845" style="stroke: #000000; stroke-width: 0.8"/>
      </g>
     </g>
     <g id="text_31">
      <!-- 0.95 -->
      <g style="fill: #262626" transform="translate(250.742498 41.461246) scale(0.08 -0.08)">
       <defs>
        <path id="CMSS17-39" d="M 435 172 
C 614 19 845 -128 1235 -128 
C 2010 -128 2752 738 2752 2136 
C 2752 3987 1952 4288 1523 4288 
C 1094 4288 819 4095 582 3789 
C 301 3438 250 3125 250 2761 
C 250 2327 326 2059 506 1753 
C 749 1356 973 1273 1222 1273 
C 1600 1273 1978 1459 2234 1778 
C 2189 908 1798 268 1235 268 
C 1005 268 819 340 634 516 
L 435 172 
z
M 2214 2774 
C 2221 2729 2221 2646 2221 2621 
C 2221 2085 1914 1664 1466 1664 
C 1171 1664 1018 1817 902 2015 
C 762 2263 755 2506 755 2761 
C 755 3010 755 3284 934 3559 
C 1069 3757 1235 3897 1523 3897 
C 2112 3897 2208 3036 2214 2774 
z
" transform="scale(0.015625)"/>
        <path id="CMSS17-35" d="M 934 3814 
L 2502 3814 
L 2502 4224 
L 467 4224 
L 467 1830 
L 896 1830 
C 1011 2103 1248 2304 1555 2304 
C 1843 2304 2163 2044 2163 1299 
C 2163 502 1709 268 1376 268 
C 966 268 589 521 422 871 
L 218 508 
C 512 51 992 -128 1376 -128 
C 2118 -128 2701 508 2701 1286 
C 2701 2083 2182 2694 1562 2694 
C 1338 2694 1120 2617 934 2464 
L 934 3814 
z
" transform="scale(0.015625)"/>
       </defs>
       <use xlink:href="#CMSS17-30" transform="scale(0.996264)"/>
       <use xlink:href="#CMSS17-2e" transform="translate(46.843624 0) scale(0.996264)"/>
       <use xlink:href="#CMSS17-39" transform="translate(72.867828 0) scale(0.996264)"/>
       <use xlink:href="#CMSS17-35" transform="translate(119.711452 0) scale(0.996264)"/>
      </g>
     </g>
    </g>
    <g id="ytick_10">
     <g id="line2d_26">
      <g>
       <use xlink:href="#mf7a08893ab" x="272.29737" y="9.967401" style="stroke: #000000; stroke-width: 0.8"/>
      </g>
     </g>
     <g id="text_32">
      <!-- 1.26 -->
      <g style="fill: #262626" transform="translate(250.742498 12.734802) scale(0.08 -0.08)">
       <use xlink:href="#CMSS17-31" transform="scale(0.996264)"/>
       <use xlink:href="#CMSS17-2e" transform="translate(46.843624 0) scale(0.996264)"/>
       <use xlink:href="#CMSS17-32" transform="translate(72.867828 0) scale(0.996264)"/>
       <use xlink:href="#CMSS17-36" transform="translate(119.711452 0) scale(0.996264)"/>
      </g>
     </g>
    </g>
    <g id="text_33">
     <!-- Publications fraction ($\times 10^{-4}$) -->
     <g style="fill: #262626" transform="translate(244.74997 120.995004) rotate(-90) scale(0.08 -0.08)">
      <defs>
       <path id="CMR17-34" d="M 2150 4147 
C 2150 4281 2144 4288 2029 4288 
L 128 1254 
L 128 1088 
L 1779 1088 
L 1779 460 
C 1779 230 1766 166 1318 166 
L 1197 166 
L 1197 0 
C 1402 12 1747 12 1965 12 
C 2182 12 2528 12 2733 0 
L 2733 166 
L 2611 166 
C 2163 166 2150 230 2150 460 
L 2150 1088 
L 2803 1088 
L 2803 1254 
L 2150 1254 
L 2150 4147 
z
M 1798 3723 
L 1798 1254 
L 256 1254 
L 1798 3723 
z
" transform="scale(0.015625)"/>
      </defs>
      <use xlink:href="#CMSS17-50" transform="scale(0.996264)"/>
      <use xlink:href="#CMSS17-75" transform="translate(59.735586 0) scale(0.996264)"/>
      <use xlink:href="#CMSS17-62" transform="translate(107.940529 0) scale(0.996264)"/>
      <use xlink:href="#CMSS17-6c" transform="translate(156.145473 0) scale(0.996264)"/>
      <use xlink:href="#CMSS17-69" transform="translate(178.326196 0) scale(0.996264)"/>
      <use xlink:href="#CMSS17-63" transform="translate(200.506919 0) scale(0.996264)"/>
      <use xlink:href="#CMSS17-61" transform="translate(242.145741 0) scale(0.996264)"/>
      <use xlink:href="#CMSS17-74" transform="translate(287.067661 0) scale(0.996264)"/>
      <use xlink:href="#CMSS17-69" transform="translate(320.899228 0) scale(0.996264)"/>
      <use xlink:href="#CMSS17-6f" transform="translate(343.079951 0) scale(0.996264)"/>
      <use xlink:href="#CMSS17-6e" transform="translate(389.923575 0) scale(0.996264)"/>
      <use xlink:href="#CMSS17-73" transform="translate(438.128518 0) scale(0.996264)"/>
      <use xlink:href="#CMSS17-66" transform="translate(505.271172 0) scale(0.996264)"/>
      <use xlink:href="#CMSS17-72" transform="translate(533.897831 0) scale(0.996264)"/>
      <use xlink:href="#CMSS17-61" transform="translate(565.807604 0) scale(0.996264)"/>
      <use xlink:href="#CMSS17-63" transform="translate(610.729524 0) scale(0.996264)"/>
      <use xlink:href="#CMSS17-74" transform="translate(652.368346 0) scale(0.996264)"/>
      <use xlink:href="#CMSS17-69" transform="translate(686.199913 0) scale(0.996264)"/>
      <use xlink:href="#CMSS17-6f" transform="translate(708.380636 0) scale(0.996264)"/>
      <use xlink:href="#CMSS17-6e" transform="translate(755.22426 0) scale(0.996264)"/>
      <use xlink:href="#CMSS17-28" transform="translate(834.658316 0) scale(0.996264)"/>
      <use xlink:href="#CMSY10-2" transform="translate(871.09223 0) scale(0.996264)"/>
      <use xlink:href="#CMR17-31" transform="translate(948.579697 0) scale(0.996264)"/>
      <use xlink:href="#CMR17-30" transform="translate(994.270175 0) scale(0.996264)"/>
      <use xlink:href="#CMSY10-0" transform="translate(1039.960652 36.153639) scale(0.697382)"/>
      <use xlink:href="#CMR17-34" transform="translate(1094.201645 36.153639) scale(0.697382)"/>
      <use xlink:href="#CMSS17-29" transform="translate(1126.682959 0) scale(0.996264)"/>
     </g>
    </g>
   </g>
   <g id="patch_54">
    <path d="M 445.48248 124.873179 
L 452.80016 124.873179 
L 452.80016 20.413381 
L 445.48248 20.413381 
z
" clip-path="url(#pd74a065d2f)" style="fill: #8e8e8e"/>
   </g>
   <g id="patch_55">
    <path d="M 433.286345 124.873179 
L 440.604026 124.873179 
L 440.604026 35.731803 
L 433.286345 35.731803 
z
" clip-path="url(#pd74a065d2f)" style="fill: #8e8e8e"/>
   </g>
   <g id="patch_56">
    <path d="M 421.090211 124.873179 
L 428.407891 124.873179 
L 428.407891 53.710634 
L 421.090211 53.710634 
z
" clip-path="url(#pd74a065d2f)" style="fill: #8e8e8e"/>
   </g>
   <g id="patch_57">
    <path d="M 408.894076 124.873179 
L 416.211757 124.873179 
L 416.211757 67.017918 
L 408.894076 67.017918 
z
" clip-path="url(#pd74a065d2f)" style="fill: #8e8e8e"/>
   </g>
   <g id="patch_58">
    <path d="M 396.697942 124.873179 
L 404.015622 124.873179 
L 404.015622 84.349424 
L 396.697942 84.349424 
z
" clip-path="url(#pd74a065d2f)" style="fill: #8e8e8e"/>
   </g>
   <g id="patch_59">
    <path d="M 384.501807 124.873179 
L 391.819488 124.873179 
L 391.819488 92.033298 
L 384.501807 92.033298 
z
" clip-path="url(#pd74a065d2f)" style="fill: #8e8e8e"/>
   </g>
   <g id="patch_60">
    <path d="M 372.305673 124.873179 
L 379.623354 124.873179 
L 379.623354 102.614604 
L 372.305673 102.614604 
z
" clip-path="url(#pd74a065d2f)" style="fill: #8e8e8e"/>
   </g>
   <g id="patch_61">
    <path d="M 360.109538 124.873179 
L 367.427219 124.873179 
L 367.427219 109.020498 
L 360.109538 109.020498 
z
" clip-path="url(#pd74a065d2f)" style="fill: #8e8e8e"/>
   </g>
   <g id="patch_62">
    <path d="M 347.913404 124.873179 
L 355.231085 124.873179 
L 355.231085 115.072485 
L 347.913404 115.072485 
z
" clip-path="url(#pd74a065d2f)" style="fill: #8e8e8e"/>
   </g>
   <g id="patch_63">
    <path d="M 335.717269 124.873179 
L 343.03495 124.873179 
L 343.03495 115.290774 
L 335.717269 115.290774 
z
" clip-path="url(#pd74a065d2f)" style="fill: #8e8e8e"/>
   </g>
   <g id="patch_64">
    <path d="M 323.521135 124.873179 
L 330.838816 124.873179 
L 330.838816 114.316319 
L 323.521135 114.316319 
z
" clip-path="url(#pd74a065d2f)" style="fill: #8e8e8e"/>
   </g>
   <g id="patch_65">
    <path d="M 311.325 124.873179 
L 318.642681 124.873179 
L 318.642681 117.882479 
L 311.325 117.882479 
z
" clip-path="url(#pd74a065d2f)" style="fill: #8e8e8e"/>
   </g>
   <g id="patch_66">
    <path d="M 299.128866 124.873179 
L 306.446547 124.873179 
L 306.446547 120.689584 
L 299.128866 120.689584 
z
" clip-path="url(#pd74a065d2f)" style="fill: #8e8e8e"/>
   </g>
   <g id="patch_67">
    <path d="M 286.932731 124.873179 
L 294.250412 124.873179 
L 294.250412 115.045116 
L 286.932731 115.045116 
z
" clip-path="url(#pd74a065d2f)" style="fill: #8e8e8e"/>
   </g>
   <g id="patch_68">
    <path d="M 274.736597 124.873179 
L 282.054278 124.873179 
L 282.054278 115.120435 
L 274.736597 115.120435 
z
" clip-path="url(#pd74a065d2f)" style="fill: #8e8e8e"/>
   </g>
   <g id="patch_69">
    <path d="M 272.29737 124.873179 
L 272.29737 9.967401 
" style="fill: none; stroke: #000000; stroke-linejoin: miter; stroke-linecap: square"/>
   </g>
   <g id="patch_70">
    <path d="M 272.29737 124.873179 
L 455.239387 124.873179 
" style="fill: none; stroke: #000000; stroke-linejoin: miter; stroke-linecap: square"/>
   </g>
   <g id="legend_2">
    <g id="patch_71">
     <path d="M 279.49737 22.767401 
L 295.49737 22.767401 
L 295.49737 17.167401 
L 279.49737 17.167401 
z
" style="fill: #8e8e8e"/>
    </g>
    <g id="text_34">
     <!-- Wave propagation -->
     <g style="fill: #262626" transform="translate(301.89737 22.767401) scale(0.08 -0.08)">
      <defs>
       <path id="CMSS17-57" d="M 5581 4416 
L 5094 4416 
L 4557 2436 
C 4474 2118 4397 1800 4320 1482 
C 4205 1012 4122 681 4109 516 
L 4102 516 
C 4090 687 4006 1050 3904 1457 
C 3827 1794 3744 2131 3654 2462 
L 3123 4416 
L 2586 4416 
L 2080 2564 
L 1824 1552 
C 1632 751 1626 636 1613 509 
L 1606 509 
C 1606 547 1581 757 1402 1501 
C 1312 1870 1222 2246 1126 2602 
L 634 4416 
L 83 4416 
L 1299 0 
L 1830 0 
L 2336 1838 
L 2592 2850 
C 2765 3562 2803 3740 2816 3899 
L 2822 3899 
C 2822 3874 2880 3473 3130 2544 
L 3808 0 
L 4365 0 
L 5581 4416 
z
" transform="scale(0.015625)"/>
       <path id="CMSS17-76" d="M 2675 2752 
L 2176 2752 
L 1747 1555 
C 1613 1164 1421 627 1389 352 
L 1382 352 
C 1370 467 1318 633 1286 748 
C 1248 889 1197 1056 1158 1171 
L 595 2752 
L 83 2752 
L 1094 0 
L 1664 0 
L 2675 2752 
z
" transform="scale(0.015625)"/>
       <path id="CMSS17-70" d="M 966 275 
C 1178 70 1466 -64 1773 -64 
C 2368 -64 2880 553 2880 1382 
C 2880 2147 2496 2816 1946 2816 
C 1626 2816 1242 2700 954 2470 
L 954 2764 
L 480 2764 
L 480 -1280 
L 966 -1280 
L 966 275 
z
M 966 2088 
C 1018 2166 1235 2412 1587 2412 
C 2035 2412 2394 1946 2394 1382 
C 2394 741 1958 326 1530 326 
C 1402 326 1267 358 1139 468 
C 966 624 966 721 966 812 
L 966 2088 
z
" transform="scale(0.015625)"/>
      </defs>
      <use xlink:href="#CMSS17-57" transform="scale(0.996264)"/>
      <use xlink:href="#CMSS17-61" transform="translate(85.639712 0) scale(0.996264)"/>
      <use xlink:href="#CMSS17-76" transform="translate(130.561633 0) scale(0.996264)"/>
      <use xlink:href="#CMSS17-65" transform="translate(173.561775 0) scale(0.996264)"/>
      <use xlink:href="#CMSS17-70" transform="translate(246.429709 0) scale(0.996264)"/>
      <use xlink:href="#CMSS17-72" transform="translate(292.032199 0) scale(0.996264)"/>
      <use xlink:href="#CMSS17-6f" transform="translate(323.941971 0) scale(0.996264)"/>
      <use xlink:href="#CMSS17-70" transform="translate(370.785595 0) scale(0.996264)"/>
      <use xlink:href="#CMSS17-61" transform="translate(418.990538 0) scale(0.996264)"/>
      <use xlink:href="#CMSS17-67" transform="translate(463.912458 0) scale(0.996264)"/>
      <use xlink:href="#CMSS17-61" transform="translate(510.756082 0) scale(0.996264)"/>
      <use xlink:href="#CMSS17-74" transform="translate(555.678003 0) scale(0.996264)"/>
      <use xlink:href="#CMSS17-69" transform="translate(589.509569 0) scale(0.996264)"/>
      <use xlink:href="#CMSS17-6f" transform="translate(611.690292 0) scale(0.996264)"/>
      <use xlink:href="#CMSS17-6e" transform="translate(658.533916 0) scale(0.996264)"/>
     </g>
    </g>
   </g>
  </g>
  <g id="axes_3">
   <g id="patch_72">
    <path d="M 38.372661 274.415453 
L 221.314678 274.415453 
L 221.314678 159.509675 
L 38.372661 159.509675 
z
" style="fill: #ffffff"/>
   </g>
   <g id="matplotlib.axis_5">
    <g id="xtick_17">
     <g id="line2d_27">
      <g>
       <use xlink:href="#mfbad94f343" x="70.44691" y="274.415453" style="stroke: #000000; stroke-width: 0.8"/>
      </g>
     </g>
     <g id="text_35">
      <!-- TensorFlow -->
      <g style="fill: #262626" transform="translate(50.448008 286.450254) scale(0.08 -0.08)">
       <defs>
        <path id="CMSS17-54" d="M 2317 3987 
L 2848 3987 
C 2925 3987 3002 3980 3078 3980 
L 3878 3980 
L 3878 4396 
L 218 4396 
L 218 3980 
L 1018 3980 
C 1094 3980 1171 3987 1248 3987 
L 1779 3987 
L 1779 0 
L 2317 0 
L 2317 3987 
z
" transform="scale(0.015625)"/>
        <path id="CMSS17-46" d="M 2918 1984 
L 2918 2374 
L 1101 2374 
L 1101 3993 
L 1882 3993 
C 1958 3993 2035 3987 2112 3987 
L 3168 3987 
L 3168 4403 
L 563 4403 
L 563 0 
L 1101 0 
L 1101 1984 
L 2918 1984 
z
" transform="scale(0.015625)"/>
        <path id="CMSS17-77" d="M 4013 2752 
L 3526 2752 
L 3187 1600 
C 3117 1356 2918 684 2893 371 
L 2886 371 
C 2874 563 2765 1024 2586 1632 
L 2259 2752 
L 1818 2752 
L 1498 1657 
C 1338 1100 1216 627 1203 371 
L 1197 371 
C 1171 748 909 1632 870 1772 
L 582 2752 
L 83 2752 
L 915 0 
L 1402 0 
C 1734 1100 1990 1952 2010 2380 
C 2022 2169 2131 1715 2195 1491 
L 2618 0 
L 3181 0 
L 4013 2752 
z
" transform="scale(0.015625)"/>
       </defs>
       <use xlink:href="#CMSS17-54" transform="scale(0.996264)"/>
       <use xlink:href="#CMSS17-65" transform="translate(56.012199 0) scale(0.996264)"/>
       <use xlink:href="#CMSS17-6e" transform="translate(97.651021 0) scale(0.996264)"/>
       <use xlink:href="#CMSS17-73" transform="translate(145.855964 0) scale(0.996264)"/>
       <use xlink:href="#CMSS17-6f" transform="translate(181.769506 0) scale(0.996264)"/>
       <use xlink:href="#CMSS17-72" transform="translate(226.010675 0) scale(0.996264)"/>
       <use xlink:href="#CMSS17-46" transform="translate(257.920448 0) scale(0.996264)"/>
       <use xlink:href="#CMSS17-6c" transform="translate(311.210007 0) scale(0.996264)"/>
       <use xlink:href="#CMSS17-6f" transform="translate(333.39073 0) scale(0.996264)"/>
       <use xlink:href="#CMSS17-77" transform="translate(377.6319 0) scale(0.996264)"/>
      </g>
     </g>
    </g>
    <g id="xtick_18">
     <g id="line2d_28">
      <g>
       <use xlink:href="#mfbad94f343" x="129.843669" y="274.415453" style="stroke: #000000; stroke-width: 0.8"/>
      </g>
     </g>
     <g id="text_36">
      <!-- PyTorch -->
      <g style="fill: #262626" transform="translate(115.134729 286.450254) scale(0.08 -0.08)">
       <defs>
        <path id="CMSS17-79" d="M 2675 2752 
L 2176 2752 
C 1632 1293 1446 701 1434 383 
L 1427 383 
C 1408 695 1126 1459 902 2006 
L 602 2752 
L 83 2752 
L 1216 14 
C 1146 -177 1043 -464 1011 -527 
C 870 -884 774 -884 672 -884 
C 646 -884 442 -877 211 -807 
L 250 -1229 
C 410 -1261 570 -1280 685 -1280 
C 845 -1280 1165 -1280 1459 -495 
L 2675 2752 
z
" transform="scale(0.015625)"/>
       </defs>
       <use xlink:href="#CMSS17-50" transform="scale(0.996264)"/>
       <use xlink:href="#CMSS17-79" transform="translate(59.735586 0) scale(0.996264)"/>
       <use xlink:href="#CMSS17-54" transform="translate(102.735728 0) scale(0.996264)"/>
       <use xlink:href="#CMSS17-6f" transform="translate(158.747926 0) scale(0.996264)"/>
       <use xlink:href="#CMSS17-72" transform="translate(202.989096 0) scale(0.996264)"/>
       <use xlink:href="#CMSS17-63" transform="translate(234.898869 0) scale(0.996264)"/>
       <use xlink:href="#CMSS17-68" transform="translate(276.537691 0) scale(0.996264)"/>
      </g>
     </g>
    </g>
    <g id="xtick_19">
     <g id="line2d_29">
      <g>
       <use xlink:href="#mfbad94f343" x="189.240428" y="274.415453" style="stroke: #000000; stroke-width: 0.8"/>
      </g>
     </g>
     <g id="text_37">
      <!-- JAX -->
      <g style="fill: #262626" transform="translate(181.595376 286.450254) scale(0.08 -0.08)">
       <defs>
        <path id="CMSS17-4a" d="M 2336 4416 
L 1811 4416 
L 1811 947 
C 1811 640 1683 262 1107 262 
C 781 262 506 416 333 608 
L 250 140 
C 646 -71 1011 -128 1280 -128 
C 1901 -128 2336 230 2336 928 
L 2336 4416 
z
" transform="scale(0.015625)"/>
        <path id="CMSS17-41" d="M 2272 4416 
L 1722 4416 
L 166 0 
L 653 0 
L 1101 1280 
L 2816 1280 
L 3270 0 
L 3827 0 
L 2272 4416 
z
M 2694 1638 
L 1222 1638 
C 1530 2530 1914 3638 1958 3924 
L 1965 3924 
C 2010 3663 2138 3281 2246 2956 
L 2694 1638 
z
" transform="scale(0.015625)"/>
        <path id="CMSS17-58" d="M 2214 2328 
L 3661 4416 
L 3072 4416 
L 1952 2761 
L 800 4416 
L 166 4416 
L 1690 2328 
L 83 0 
L 672 0 
L 1952 1940 
L 3277 0 
L 3910 0 
L 2214 2328 
z
" transform="scale(0.015625)"/>
       </defs>
       <use xlink:href="#CMSS17-4a" transform="scale(0.996264)"/>
       <use xlink:href="#CMSS17-41" transform="translate(44.121076 0) scale(0.996264)"/>
       <use xlink:href="#CMSS17-58" transform="translate(106.33893 0) scale(0.996264)"/>
      </g>
     </g>
    </g>
   </g>
   <g id="matplotlib.axis_6">
    <g id="ytick_11">
     <g id="line2d_30">
      <g>
       <use xlink:href="#mf7a08893ab" x="38.372661" y="274.415453" style="stroke: #000000; stroke-width: 0.8"/>
      </g>
     </g>
     <g id="text_38">
      <!-- 0 -->
      <g style="fill: #262626" transform="translate(27.638478 277.182853) scale(0.08 -0.08)">
       <use xlink:href="#CMSS17-30" transform="scale(0.996264)"/>
      </g>
     </g>
    </g>
    <g id="ytick_12">
     <g id="line2d_31">
      <g>
       <use xlink:href="#mf7a08893ab" x="38.372661" y="251.434297" style="stroke: #000000; stroke-width: 0.8"/>
      </g>
     </g>
     <g id="text_39">
      <!-- 20 -->
      <g style="fill: #262626" transform="translate(23.404295 254.201698) scale(0.08 -0.08)">
       <use xlink:href="#CMSS17-32" transform="scale(0.996264)"/>
       <use xlink:href="#CMSS17-30" transform="translate(46.843624 0) scale(0.996264)"/>
      </g>
     </g>
    </g>
    <g id="ytick_13">
     <g id="line2d_32">
      <g>
       <use xlink:href="#mf7a08893ab" x="38.372661" y="228.453141" style="stroke: #000000; stroke-width: 0.8"/>
      </g>
     </g>
     <g id="text_40">
      <!-- 40 -->
      <g style="fill: #262626" transform="translate(23.404295 231.220542) scale(0.08 -0.08)">
       <use xlink:href="#CMSS17-34" transform="scale(0.996264)"/>
       <use xlink:href="#CMSS17-30" transform="translate(46.843624 0) scale(0.996264)"/>
      </g>
     </g>
    </g>
    <g id="ytick_14">
     <g id="line2d_33">
      <g>
       <use xlink:href="#mf7a08893ab" x="38.372661" y="205.471986" style="stroke: #000000; stroke-width: 0.8"/>
      </g>
     </g>
     <g id="text_41">
      <!-- 60 -->
      <g style="fill: #262626" transform="translate(23.404295 208.239387) scale(0.08 -0.08)">
       <use xlink:href="#CMSS17-36" transform="scale(0.996264)"/>
       <use xlink:href="#CMSS17-30" transform="translate(46.843624 0) scale(0.996264)"/>
      </g>
     </g>
    </g>
    <g id="ytick_15">
     <g id="line2d_34">
      <g>
       <use xlink:href="#mf7a08893ab" x="38.372661" y="182.49083" style="stroke: #000000; stroke-width: 0.8"/>
      </g>
     </g>
     <g id="text_42">
      <!-- 80 -->
      <g style="fill: #262626" transform="translate(23.404295 185.258231) scale(0.08 -0.08)">
       <use xlink:href="#CMSS17-38" transform="scale(0.996264)"/>
       <use xlink:href="#CMSS17-30" transform="translate(46.843624 0) scale(0.996264)"/>
      </g>
     </g>
    </g>
    <g id="ytick_16">
     <g id="line2d_35">
      <g>
       <use xlink:href="#mf7a08893ab" x="38.372661" y="159.509675" style="stroke: #000000; stroke-width: 0.8"/>
      </g>
     </g>
     <g id="text_43">
      <!-- 100 -->
      <g style="fill: #262626" transform="translate(19.170112 162.277075) scale(0.08 -0.08)">
       <use xlink:href="#CMSS17-31" transform="scale(0.996264)"/>
       <use xlink:href="#CMSS17-30" transform="translate(46.843624 0) scale(0.996264)"/>
       <use xlink:href="#CMSS17-30" transform="translate(93.687247 0) scale(0.996264)"/>
      </g>
     </g>
    </g>
    <g id="text_44">
     <!-- Average interest -->
     <g style="fill: #262626" transform="translate(13.42665 248.132268) rotate(-90) scale(0.09 -0.09)">
      <use xlink:href="#CMSS17-41" transform="scale(0.996264)"/>
      <use xlink:href="#CMSS17-76" transform="translate(62.217855 0) scale(0.996264)"/>
      <use xlink:href="#CMSS17-65" transform="translate(105.217997 0) scale(0.996264)"/>
      <use xlink:href="#CMSS17-72" transform="translate(146.856819 0) scale(0.996264)"/>
      <use xlink:href="#CMSS17-61" transform="translate(178.766591 0) scale(0.996264)"/>
      <use xlink:href="#CMSS17-67" transform="translate(223.688512 0) scale(0.996264)"/>
      <use xlink:href="#CMSS17-65" transform="translate(270.532135 0) scale(0.996264)"/>
      <use xlink:href="#CMSS17-69" transform="translate(343.40007 0) scale(0.996264)"/>
      <use xlink:href="#CMSS17-6e" transform="translate(365.580793 0) scale(0.996264)"/>
      <use xlink:href="#CMSS17-74" transform="translate(413.785736 0) scale(0.996264)"/>
      <use xlink:href="#CMSS17-65" transform="translate(447.617303 0) scale(0.996264)"/>
      <use xlink:href="#CMSS17-72" transform="translate(489.256125 0) scale(0.996264)"/>
      <use xlink:href="#CMSS17-65" transform="translate(521.165898 0) scale(0.996264)"/>
      <use xlink:href="#CMSS17-73" transform="translate(562.80472 0) scale(0.996264)"/>
      <use xlink:href="#CMSS17-74" transform="translate(598.718262 0) scale(0.996264)"/>
     </g>
    </g>
   </g>
   <g id="patch_73">
    <path d="M 46.688207 274.415453 
L 94.205614 274.415453 
L 94.205614 225.092147 
L 46.688207 225.092147 
z
" clip-path="url(#p53bd5cd732)"/>
   </g>
   <g id="patch_74">
    <path d="M 106.084966 274.415453 
L 153.602373 274.415453 
L 153.602373 235.548573 
L 106.084966 235.548573 
z
" clip-path="url(#p53bd5cd732)" style="fill: #3f4d90"/>
   </g>
   <g id="patch_75">
    <path d="M 165.481725 274.415453 
L 212.999132 274.415453 
L 212.999132 273.860075 
L 165.481725 273.860075 
z
" clip-path="url(#p53bd5cd732)" style="fill: #8e8e8e"/>
   </g>
   <g id="patch_76">
    <path d="M 38.372661 274.415453 
L 38.372661 159.509675 
" style="fill: none; stroke: #000000; stroke-linejoin: miter; stroke-linecap: square"/>
   </g>
   <g id="patch_77">
    <path d="M 38.372661 274.415453 
L 221.314678 274.415453 
" style="fill: none; stroke: #000000; stroke-linejoin: miter; stroke-linecap: square"/>
   </g>
  </g>
  <g id="axes_4">
   <g id="patch_78">
    <path d="M 272.29737 274.415453 
L 455.239387 274.415453 
L 455.239387 159.509675 
L 272.29737 159.509675 
z
" style="fill: #ffffff"/>
   </g>
   <g id="matplotlib.axis_7">
    <g id="xtick_20">
     <g id="line2d_36">
      <g>
       <use xlink:href="#mfbad94f343" x="272.29737" y="274.415453" style="stroke: #000000; stroke-width: 0.8"/>
      </g>
     </g>
     <g id="text_45">
      <!-- 2015 -->
      <g style="fill: #262626" transform="translate(263.829004 286.450254) scale(0.08 -0.08)">
       <use xlink:href="#CMSS17-32" transform="scale(0.996264)"/>
       <use xlink:href="#CMSS17-30" transform="translate(46.843624 0) scale(0.996264)"/>
       <use xlink:href="#CMSS17-31" transform="translate(93.687247 0) scale(0.996264)"/>
       <use xlink:href="#CMSS17-35" transform="translate(140.530871 0) scale(0.996264)"/>
      </g>
     </g>
    </g>
    <g id="xtick_21">
     <g id="line2d_37">
      <g>
       <use xlink:href="#mfbad94f343" x="308.323937" y="274.415453" style="stroke: #000000; stroke-width: 0.8"/>
      </g>
     </g>
     <g id="text_46">
      <!-- 2017 -->
      <g style="fill: #262626" transform="translate(299.855571 286.450254) scale(0.08 -0.08)">
       <defs>
        <path id="CMSS17-37" d="M 1389 3788 
C 1466 3788 1542 3795 1619 3795 
L 2355 3795 
C 1440 2715 915 1350 915 -64 
L 1427 -64 
C 1427 1305 1875 2695 2752 3807 
L 2752 4224 
L 250 4224 
L 250 3788 
L 1389 3788 
z
" transform="scale(0.015625)"/>
       </defs>
       <use xlink:href="#CMSS17-32" transform="scale(0.996264)"/>
       <use xlink:href="#CMSS17-30" transform="translate(46.843624 0) scale(0.996264)"/>
       <use xlink:href="#CMSS17-31" transform="translate(93.687247 0) scale(0.996264)"/>
       <use xlink:href="#CMSS17-37" transform="translate(140.530871 0) scale(0.996264)"/>
      </g>
     </g>
    </g>
    <g id="xtick_22">
     <g id="line2d_38">
      <g>
       <use xlink:href="#mfbad94f343" x="344.301219" y="274.415453" style="stroke: #000000; stroke-width: 0.8"/>
      </g>
     </g>
     <g id="text_47">
      <!-- 2019 -->
      <g style="fill: #262626" transform="translate(335.832853 286.450254) scale(0.08 -0.08)">
       <use xlink:href="#CMSS17-32" transform="scale(0.996264)"/>
       <use xlink:href="#CMSS17-30" transform="translate(46.843624 0) scale(0.996264)"/>
       <use xlink:href="#CMSS17-31" transform="translate(93.687247 0) scale(0.996264)"/>
       <use xlink:href="#CMSS17-39" transform="translate(140.530871 0) scale(0.996264)"/>
      </g>
     </g>
    </g>
    <g id="xtick_23">
     <g id="line2d_39">
      <g>
       <use xlink:href="#mfbad94f343" x="380.327785" y="274.415453" style="stroke: #000000; stroke-width: 0.8"/>
      </g>
     </g>
     <g id="text_48">
      <!-- 2021 -->
      <g style="fill: #262626" transform="translate(371.85942 286.450254) scale(0.08 -0.08)">
       <use xlink:href="#CMSS17-32" transform="scale(0.996264)"/>
       <use xlink:href="#CMSS17-30" transform="translate(46.843624 0) scale(0.996264)"/>
       <use xlink:href="#CMSS17-32" transform="translate(93.687247 0) scale(0.996264)"/>
       <use xlink:href="#CMSS17-31" transform="translate(140.530871 0) scale(0.996264)"/>
      </g>
     </g>
    </g>
    <g id="xtick_24">
     <g id="line2d_40">
      <g>
       <use xlink:href="#mfbad94f343" x="416.305068" y="274.415453" style="stroke: #000000; stroke-width: 0.8"/>
      </g>
     </g>
     <g id="text_49">
      <!-- 2023 -->
      <g style="fill: #262626" transform="translate(407.836702 286.450254) scale(0.08 -0.08)">
       <use xlink:href="#CMSS17-32" transform="scale(0.996264)"/>
       <use xlink:href="#CMSS17-30" transform="translate(46.843624 0) scale(0.996264)"/>
       <use xlink:href="#CMSS17-32" transform="translate(93.687247 0) scale(0.996264)"/>
       <use xlink:href="#CMSS17-33" transform="translate(140.530871 0) scale(0.996264)"/>
      </g>
     </g>
    </g>
    <g id="xtick_25">
     <g id="line2d_41">
      <g>
       <use xlink:href="#mfbad94f343" x="452.331634" y="274.415453" style="stroke: #000000; stroke-width: 0.8"/>
      </g>
     </g>
     <g id="text_50">
      <!-- 2025 -->
      <g style="fill: #262626" transform="translate(443.863269 286.450254) scale(0.08 -0.08)">
       <use xlink:href="#CMSS17-32" transform="scale(0.996264)"/>
       <use xlink:href="#CMSS17-30" transform="translate(46.843624 0) scale(0.996264)"/>
       <use xlink:href="#CMSS17-32" transform="translate(93.687247 0) scale(0.996264)"/>
       <use xlink:href="#CMSS17-35" transform="translate(140.530871 0) scale(0.996264)"/>
      </g>
     </g>
    </g>
   </g>
   <g id="matplotlib.axis_8">
    <g id="ytick_17">
     <g id="line2d_42">
      <g>
       <use xlink:href="#mf7a08893ab" x="272.29737" y="268.943749" style="stroke: #000000; stroke-width: 0.8"/>
      </g>
     </g>
     <g id="text_51">
      <!-- 0 -->
      <g style="fill: #262626" transform="translate(261.563187 271.71115) scale(0.08 -0.08)">
       <use xlink:href="#CMSS17-30" transform="scale(0.996264)"/>
      </g>
     </g>
    </g>
    <g id="ytick_18">
     <g id="line2d_43">
      <g>
       <use xlink:href="#mf7a08893ab" x="272.29737" y="247.056934" style="stroke: #000000; stroke-width: 0.8"/>
      </g>
     </g>
     <g id="text_52">
      <!-- 20 -->
      <g style="fill: #262626" transform="translate(257.329004 249.824335) scale(0.08 -0.08)">
       <use xlink:href="#CMSS17-32" transform="scale(0.996264)"/>
       <use xlink:href="#CMSS17-30" transform="translate(46.843624 0) scale(0.996264)"/>
      </g>
     </g>
    </g>
    <g id="ytick_19">
     <g id="line2d_44">
      <g>
       <use xlink:href="#mf7a08893ab" x="272.29737" y="225.170119" style="stroke: #000000; stroke-width: 0.8"/>
      </g>
     </g>
     <g id="text_53">
      <!-- 40 -->
      <g style="fill: #262626" transform="translate(257.329004 227.93752) scale(0.08 -0.08)">
       <use xlink:href="#CMSS17-34" transform="scale(0.996264)"/>
       <use xlink:href="#CMSS17-30" transform="translate(46.843624 0) scale(0.996264)"/>
      </g>
     </g>
    </g>
    <g id="ytick_20">
     <g id="line2d_45">
      <g>
       <use xlink:href="#mf7a08893ab" x="272.29737" y="203.283304" style="stroke: #000000; stroke-width: 0.8"/>
      </g>
     </g>
     <g id="text_54">
      <!-- 60 -->
      <g style="fill: #262626" transform="translate(257.329004 206.050705) scale(0.08 -0.08)">
       <use xlink:href="#CMSS17-36" transform="scale(0.996264)"/>
       <use xlink:href="#CMSS17-30" transform="translate(46.843624 0) scale(0.996264)"/>
      </g>
     </g>
    </g>
    <g id="ytick_21">
     <g id="line2d_46">
      <g>
       <use xlink:href="#mf7a08893ab" x="272.29737" y="181.396489" style="stroke: #000000; stroke-width: 0.8"/>
      </g>
     </g>
     <g id="text_55">
      <!-- 80 -->
      <g style="fill: #262626" transform="translate(257.329004 184.16389) scale(0.08 -0.08)">
       <use xlink:href="#CMSS17-38" transform="scale(0.996264)"/>
       <use xlink:href="#CMSS17-30" transform="translate(46.843624 0) scale(0.996264)"/>
      </g>
     </g>
    </g>
    <g id="ytick_22">
     <g id="line2d_47">
      <g>
       <use xlink:href="#mf7a08893ab" x="272.29737" y="159.509675" style="stroke: #000000; stroke-width: 0.8"/>
      </g>
     </g>
     <g id="text_56">
      <!-- 100 -->
      <g style="fill: #262626" transform="translate(253.094822 162.277075) scale(0.08 -0.08)">
       <use xlink:href="#CMSS17-31" transform="scale(0.996264)"/>
       <use xlink:href="#CMSS17-30" transform="translate(46.843624 0) scale(0.996264)"/>
       <use xlink:href="#CMSS17-30" transform="translate(93.687247 0) scale(0.996264)"/>
      </g>
     </g>
    </g>
    <g id="text_57">
     <!-- Interest over time -->
     <g style="fill: #262626" transform="translate(247.35136 250.986121) rotate(-90) scale(0.09 -0.09)">
      <defs>
       <path id="CMSS17-49" d="M 1094 4416 
L 557 4416 
L 557 0 
L 1094 0 
L 1094 4416 
z
" transform="scale(0.015625)"/>
      </defs>
      <use xlink:href="#CMSS17-49" transform="scale(0.996264)"/>
      <use xlink:href="#CMSS17-6e" transform="translate(25.783926 0) scale(0.996264)"/>
      <use xlink:href="#CMSS17-74" transform="translate(73.988869 0) scale(0.996264)"/>
      <use xlink:href="#CMSS17-65" transform="translate(107.820435 0) scale(0.996264)"/>
      <use xlink:href="#CMSS17-72" transform="translate(149.459257 0) scale(0.996264)"/>
      <use xlink:href="#CMSS17-65" transform="translate(181.36903 0) scale(0.996264)"/>
      <use xlink:href="#CMSS17-73" transform="translate(223.007852 0) scale(0.996264)"/>
      <use xlink:href="#CMSS17-74" transform="translate(258.921394 0) scale(0.996264)"/>
      <use xlink:href="#CMSS17-6f" transform="translate(323.982073 0) scale(0.996264)"/>
      <use xlink:href="#CMSS17-76" transform="translate(370.825697 0) scale(0.996264)"/>
      <use xlink:href="#CMSS17-65" transform="translate(413.825839 0) scale(0.996264)"/>
      <use xlink:href="#CMSS17-72" transform="translate(455.464661 0) scale(0.996264)"/>
      <use xlink:href="#CMSS17-74" transform="translate(518.603546 0) scale(0.996264)"/>
      <use xlink:href="#CMSS17-69" transform="translate(552.435113 0) scale(0.996264)"/>
      <use xlink:href="#CMSS17-6d" transform="translate(574.615836 0) scale(0.996264)"/>
      <use xlink:href="#CMSS17-65" transform="translate(648.84509 0) scale(0.996264)"/>
     </g>
    </g>
   </g>
   <g id="line2d_48">
    <path d="M 272.29737 268.943749 
L 273.825173 268.943749 
L 275.205123 268.943749 
L 276.732925 268.943749 
L 278.211444 268.943749 
L 279.739246 268.943749 
L 281.217765 268.943749 
L 282.745567 268.943749 
L 284.27337 268.943749 
L 285.751888 268.943749 
L 287.27969 251.434297 
L 288.758209 262.377704 
L 290.286011 262.377704 
L 291.813814 261.283364 
L 293.243048 259.094682 
L 294.770851 258.000341 
L 296.249369 252.528638 
L 297.777172 252.528638 
L 299.25569 253.622978 
L 300.783492 253.622978 
L 302.311295 249.245615 
L 303.789813 244.868253 
L 305.317616 239.396549 
L 306.796134 236.113527 
L 308.323937 233.924845 
L 309.851739 218.604075 
L 311.231689 213.132371 
L 312.759492 210.943689 
L 314.23801 208.755008 
L 315.765813 204.377645 
L 317.244331 207.660667 
L 318.772134 209.849349 
L 320.299936 207.660667 
L 321.778454 202.188964 
L 323.306257 198.905941 
L 324.784775 200.000282 
L 326.312578 200.000282 
L 327.84038 200.000282 
L 329.220331 189.056875 
L 330.748133 191.245556 
L 332.226652 190.151215 
L 333.754454 196.71726 
L 335.232972 197.811601 
L 336.760775 197.811601 
L 338.288577 198.905941 
L 339.767096 193.434238 
L 341.294898 194.528578 
L 342.773417 206.566327 
L 344.301219 204.377645 
L 345.829021 201.094623 
L 347.208972 194.528578 
L 348.736774 195.622919 
L 350.215293 202.188964 
L 351.743095 202.188964 
L 353.221614 198.905941 
L 354.749416 207.660667 
L 356.277218 204.377645 
L 357.755737 201.094623 
L 359.283539 203.283304 
L 360.762058 210.943689 
L 362.28986 213.132371 
L 363.817663 206.566327 
L 365.246897 209.849349 
L 366.7747 208.755008 
L 368.253218 207.660667 
L 369.78102 207.660667 
L 371.259539 204.377645 
L 372.787341 214.226712 
L 374.315144 215.321052 
L 375.793662 224.075778 
L 377.321465 225.170119 
L 378.799983 226.26446 
L 380.327785 229.547482 
L 381.855588 228.453141 
L 383.235538 227.358801 
L 384.763341 227.358801 
L 386.241859 227.358801 
L 387.769662 227.358801 
L 389.24818 229.547482 
L 390.775983 232.830504 
L 392.303785 230.641823 
L 393.782303 229.547482 
L 395.310106 227.358801 
L 396.788624 229.547482 
L 398.316427 219.698415 
L 399.844229 209.849349 
L 401.22418 195.622919 
L 402.751982 198.905941 
L 404.2305 200.000282 
L 405.758303 203.283304 
L 407.236821 214.226712 
L 408.764624 216.415393 
L 410.292426 213.132371 
L 411.770945 213.132371 
L 413.298747 210.943689 
L 414.777265 216.415393 
L 416.305068 216.415393 
L 417.83287 207.660667 
L 419.212821 208.755008 
L 420.740623 209.849349 
L 422.219142 210.943689 
L 423.746944 215.321052 
L 425.225463 218.604075 
L 426.753265 220.792756 
L 428.281067 222.981438 
L 429.759586 220.792756 
L 431.287388 217.509734 
L 432.765907 224.075778 
L 434.293709 224.075778 
L 435.821512 219.698415 
L 437.250746 213.132371 
L 438.778548 217.509734 
L 440.257067 216.415393 
L 441.784869 225.170119 
L 443.263388 227.358801 
L 444.79119 230.641823 
L 446.318993 231.736164 
L 447.797511 229.547482 
L 449.325313 228.453141 
L 450.803832 232.830504 
" clip-path="url(#pb05943cf0f)" style="fill: none; stroke: #000000; stroke-width: 2; stroke-linecap: round"/>
   </g>
   <g id="line2d_49">
    <path d="M 272.29737 268.943749 
L 273.825173 268.943749 
L 275.205123 268.943749 
L 276.732925 268.943749 
L 278.211444 268.943749 
L 279.739246 268.943749 
L 281.217765 268.943749 
L 282.745567 268.943749 
L 284.27337 268.943749 
L 285.751888 268.943749 
L 287.27969 268.943749 
L 288.758209 268.943749 
L 290.286011 268.943749 
L 291.813814 268.943749 
L 293.243048 268.943749 
L 294.770851 268.943749 
L 296.249369 268.943749 
L 297.777172 268.943749 
L 299.25569 268.943749 
L 300.783492 268.943749 
L 302.311295 268.943749 
L 303.789813 268.943749 
L 305.317616 268.943749 
L 306.796134 268.943749 
L 308.323937 268.943749 
L 309.851739 268.943749 
L 311.231689 268.943749 
L 312.759492 268.943749 
L 314.23801 268.943749 
L 315.765813 268.943749 
L 317.244331 268.943749 
L 318.772134 268.943749 
L 320.299936 268.943749 
L 321.778454 268.943749 
L 323.306257 266.755067 
L 324.784775 260.189023 
L 326.312578 256.906001 
L 327.84038 255.81166 
L 329.220331 252.528638 
L 330.748133 251.434297 
L 332.226652 249.245615 
L 333.754454 250.339956 
L 335.232972 249.245615 
L 336.760775 248.151275 
L 338.288577 248.151275 
L 339.767096 242.679571 
L 341.294898 240.49089 
L 342.773417 242.679571 
L 344.301219 243.773912 
L 345.829021 240.49089 
L 347.208972 237.207867 
L 348.736774 235.019186 
L 350.215293 238.302208 
L 351.743095 236.113527 
L 353.221614 232.830504 
L 354.749416 233.924845 
L 356.277218 235.019186 
L 357.755737 232.830504 
L 359.283539 227.358801 
L 360.762058 232.830504 
L 362.28986 236.113527 
L 363.817663 228.453141 
L 365.246897 228.453141 
L 366.7747 226.26446 
L 368.253218 225.170119 
L 369.78102 224.075778 
L 371.259539 220.792756 
L 372.787341 224.075778 
L 374.315144 227.358801 
L 375.793662 235.019186 
L 377.321465 230.641823 
L 378.799983 235.019186 
L 380.327785 237.207867 
L 381.855588 236.113527 
L 383.235538 230.641823 
L 384.763341 227.358801 
L 386.241859 229.547482 
L 387.769662 230.641823 
L 389.24818 231.736164 
L 390.775983 233.924845 
L 392.303785 231.736164 
L 393.782303 227.358801 
L 395.310106 222.981438 
L 396.788624 226.26446 
L 398.316427 217.509734 
L 399.844229 206.566327 
L 401.22418 197.811601 
L 402.751982 192.339897 
L 404.2305 202.188964 
L 405.758303 204.377645 
L 407.236821 208.755008 
L 408.764624 212.03803 
L 410.292426 210.943689 
L 411.770945 207.660667 
L 413.298747 206.566327 
L 414.777265 207.660667 
L 416.305068 209.849349 
L 417.83287 196.71726 
L 419.212821 191.245556 
L 420.740623 195.622919 
L 422.219142 200.000282 
L 423.746944 196.71726 
L 425.225463 182.49083 
L 426.753265 172.641764 
L 428.281067 179.207808 
L 429.759586 170.453082 
L 431.287388 168.264401 
L 432.765907 182.49083 
L 434.293709 180.302149 
L 435.821512 171.547423 
L 437.250746 166.075719 
L 438.778548 159.509675 
L 440.257067 170.453082 
L 441.784869 181.396489 
L 443.263388 175.924786 
L 444.79119 184.679512 
L 446.318993 185.773852 
L 447.797511 182.49083 
L 449.325313 177.019126 
L 450.803832 184.679512 
" clip-path="url(#pb05943cf0f)" style="fill: none; stroke: #3f4d90; stroke-width: 2; stroke-linecap: round"/>
   </g>
   <g id="line2d_50">
    <path d="M 272.29737 268.943749 
L 273.825173 268.943749 
L 275.205123 268.943749 
L 276.732925 268.943749 
L 278.211444 268.943749 
L 279.739246 268.943749 
L 281.217765 268.943749 
L 282.745567 268.943749 
L 284.27337 268.943749 
L 285.751888 268.943749 
L 287.27969 268.943749 
L 288.758209 268.943749 
L 290.286011 268.943749 
L 291.813814 268.943749 
L 293.243048 268.943749 
L 294.770851 268.943749 
L 296.249369 268.943749 
L 297.777172 268.943749 
L 299.25569 268.943749 
L 300.783492 268.943749 
L 302.311295 268.943749 
L 303.789813 268.943749 
L 305.317616 268.943749 
L 306.796134 268.943749 
L 308.323937 268.943749 
L 309.851739 268.943749 
L 311.231689 268.943749 
L 312.759492 268.943749 
L 314.23801 268.943749 
L 315.765813 268.943749 
L 317.244331 268.943749 
L 318.772134 268.943749 
L 320.299936 268.943749 
L 321.778454 268.943749 
L 323.306257 268.943749 
L 324.784775 268.943749 
L 326.312578 268.943749 
L 327.84038 268.943749 
L 329.220331 268.943749 
L 330.748133 268.943749 
L 332.226652 268.943749 
L 333.754454 268.943749 
L 335.232972 268.943749 
L 336.760775 268.943749 
L 338.288577 268.943749 
L 339.767096 268.943749 
L 341.294898 268.943749 
L 342.773417 268.943749 
L 344.301219 268.943749 
L 345.829021 268.943749 
L 347.208972 268.943749 
L 348.736774 268.943749 
L 350.215293 268.943749 
L 351.743095 268.943749 
L 353.221614 268.943749 
L 354.749416 268.943749 
L 356.277218 268.943749 
L 357.755737 268.943749 
L 359.283539 268.943749 
L 360.762058 268.943749 
L 362.28986 268.943749 
L 363.817663 268.943749 
L 365.246897 268.943749 
L 366.7747 268.943749 
L 368.253218 268.943749 
L 369.78102 268.943749 
L 371.259539 268.943749 
L 372.787341 268.943749 
L 374.315144 268.943749 
L 375.793662 268.943749 
L 377.321465 268.943749 
L 378.799983 268.943749 
L 380.327785 268.943749 
L 381.855588 268.943749 
L 383.235538 268.943749 
L 384.763341 268.943749 
L 386.241859 268.943749 
L 387.769662 268.943749 
L 389.24818 268.943749 
L 390.775983 268.943749 
L 392.303785 268.943749 
L 393.782303 268.943749 
L 395.310106 268.943749 
L 396.788624 268.943749 
L 398.316427 268.943749 
L 399.844229 268.943749 
L 401.22418 268.943749 
L 402.751982 268.943749 
L 404.2305 268.943749 
L 405.758303 268.943749 
L 407.236821 268.943749 
L 408.764624 268.943749 
L 410.292426 268.943749 
L 411.770945 267.849408 
L 413.298747 267.849408 
L 414.777265 267.849408 
L 416.305068 267.849408 
L 417.83287 267.849408 
L 419.212821 267.849408 
L 420.740623 268.943749 
L 422.219142 268.943749 
L 423.746944 268.943749 
L 425.225463 268.943749 
L 426.753265 268.943749 
L 428.281067 268.943749 
L 429.759586 268.943749 
L 431.287388 268.943749 
L 432.765907 267.849408 
L 434.293709 267.849408 
L 435.821512 266.755067 
L 437.250746 263.472045 
L 438.778548 263.472045 
L 440.257067 264.566386 
L 441.784869 263.472045 
L 443.263388 264.566386 
L 444.79119 263.472045 
L 446.318993 263.472045 
L 447.797511 262.377704 
L 449.325313 263.472045 
L 450.803832 264.566386 
" clip-path="url(#pb05943cf0f)" style="fill: none; stroke: #8e8e8e; stroke-width: 2; stroke-linecap: round"/>
   </g>
   <g id="patch_79">
    <path d="M 272.29737 274.415453 
L 272.29737 159.509675 
" style="fill: none; stroke: #000000; stroke-linejoin: miter; stroke-linecap: square"/>
   </g>
   <g id="patch_80">
    <path d="M 272.29737 274.415453 
L 455.239387 274.415453 
" style="fill: none; stroke: #000000; stroke-linejoin: miter; stroke-linecap: square"/>
   </g>
   <g id="legend_3">
    <g id="line2d_51">
     <path d="M 279.49737 169.509675 
L 287.49737 169.509675 
L 295.49737 169.509675 
" style="fill: none; stroke: #000000; stroke-width: 2; stroke-linecap: round"/>
    </g>
    <g id="text_58">
     <!-- TensorFlow -->
     <g style="fill: #262626" transform="translate(301.89737 172.309675) scale(0.08 -0.08)">
      <use xlink:href="#CMSS17-54" transform="scale(0.996264)"/>
      <use xlink:href="#CMSS17-65" transform="translate(56.012199 0) scale(0.996264)"/>
      <use xlink:href="#CMSS17-6e" transform="translate(97.651021 0) scale(0.996264)"/>
      <use xlink:href="#CMSS17-73" transform="translate(145.855964 0) scale(0.996264)"/>
      <use xlink:href="#CMSS17-6f" transform="translate(181.769506 0) scale(0.996264)"/>
      <use xlink:href="#CMSS17-72" transform="translate(226.010675 0) scale(0.996264)"/>
      <use xlink:href="#CMSS17-46" transform="translate(257.920448 0) scale(0.996264)"/>
      <use xlink:href="#CMSS17-6c" transform="translate(311.210007 0) scale(0.996264)"/>
      <use xlink:href="#CMSS17-6f" transform="translate(333.39073 0) scale(0.996264)"/>
      <use xlink:href="#CMSS17-77" transform="translate(377.6319 0) scale(0.996264)"/>
     </g>
    </g>
    <g id="line2d_52">
     <path d="M 279.49737 180.65942 
L 287.49737 180.65942 
L 295.49737 180.65942 
" style="fill: none; stroke: #3f4d90; stroke-width: 2; stroke-linecap: round"/>
    </g>
    <g id="text_59">
     <!-- PyTorch -->
     <g style="fill: #262626" transform="translate(301.89737 183.45942) scale(0.08 -0.08)">
      <use xlink:href="#CMSS17-50" transform="scale(0.996264)"/>
      <use xlink:href="#CMSS17-79" transform="translate(59.735586 0) scale(0.996264)"/>
      <use xlink:href="#CMSS17-54" transform="translate(102.735728 0) scale(0.996264)"/>
      <use xlink:href="#CMSS17-6f" transform="translate(158.747926 0) scale(0.996264)"/>
      <use xlink:href="#CMSS17-72" transform="translate(202.989096 0) scale(0.996264)"/>
      <use xlink:href="#CMSS17-63" transform="translate(234.898869 0) scale(0.996264)"/>
      <use xlink:href="#CMSS17-68" transform="translate(276.537691 0) scale(0.996264)"/>
     </g>
    </g>
    <g id="line2d_53">
     <path d="M 279.49737 191.809166 
L 287.49737 191.809166 
L 295.49737 191.809166 
" style="fill: none; stroke: #8e8e8e; stroke-width: 2; stroke-linecap: round"/>
    </g>
    <g id="text_60">
     <!-- JAX -->
     <g style="fill: #262626" transform="translate(301.89737 194.609166) scale(0.08 -0.08)">
      <use xlink:href="#CMSS17-4a" transform="scale(0.996264)"/>
      <use xlink:href="#CMSS17-41" transform="translate(44.121076 0) scale(0.996264)"/>
      <use xlink:href="#CMSS17-58" transform="translate(106.33893 0) scale(0.996264)"/>
     </g>
    </g>
   </g>
  </g>
 </g>
 <defs>
  <clipPath id="p49d7658611">
   <rect x="38.372661" y="9.967401" width="182.942017" height="114.905778"/>
  </clipPath>
  <clipPath id="pd74a065d2f">
   <rect x="272.29737" y="9.967401" width="182.942017" height="114.905778"/>
  </clipPath>
  <clipPath id="p53bd5cd732">
   <rect x="38.372661" y="159.509675" width="182.942017" height="114.905778"/>
  </clipPath>
  <clipPath id="pb05943cf0f">
   <rect x="272.29737" y="159.509675" width="182.942017" height="114.905778"/>
  </clipPath>
 </defs>
</svg>
