<?xml version="1.0" encoding="utf-8" standalone="no"?>
<!DOCTYPE svg PUBLIC "-//W3C//DTD SVG 1.1//EN"
  "http://www.w3.org/Graphics/SVG/1.1/DTD/svg11.dtd">
<svg xmlns:xlink="http://www.w3.org/1999/xlink" width="468.599216pt" height="169.351948pt" viewBox="0 0 468.599216 169.351948" xmlns="http://www.w3.org/2000/svg" version="1.1">
 <metadata>
  <rdf:RDF xmlns:dc="http://purl.org/dc/elements/1.1/" xmlns:cc="http://creativecommons.org/ns#" xmlns:rdf="http://www.w3.org/1999/02/22-rdf-syntax-ns#">
   <cc:Work>
    <dc:type rdf:resource="http://purl.org/dc/dcmitype/StillImage"/>
    <dc:date>2025-10-10T19:59:23.574266</dc:date>
    <dc:format>image/svg+xml</dc:format>
    <dc:creator>
     <cc:Agent>
      <dc:title>Matplotlib v3.8.4, https://matplotlib.org/</dc:title>
     </cc:Agent>
    </dc:creator>
   </cc:Work>
  </rdf:RDF>
 </metadata>
 <defs>
  <style type="text/css">*{stroke-linejoin: round; stroke-linecap: butt}</style>
 </defs>
 <g id="figure_1">
  <g id="patch_1">
   <path d="M 0 169.351948 
L 468.599216 169.351948 
L 468.599216 0 
L 0 0 
z
" style="fill: #ffffff"/>
  </g>
  <g id="axes_1">
   <g id="patch_2">
    <path d="M 38.372661 148.567401 
L 162.372661 148.567401 
L 162.372661 9.967401 
L 38.372661 9.967401 
z
" style="fill: #ffffff"/>
   </g>
   <g id="matplotlib.axis_1">
    <g id="xtick_1">
     <g id="line2d_1">
      <defs>
       <path id="me8c3849a18" d="M 0 0 
L 0 3 
" style="stroke: #000000; stroke-width: 0.8"/>
      </defs>
      <g>
       <use xlink:href="#me8c3849a18" x="60.11292" y="148.567401" style="stroke: #000000; stroke-width: 0.8"/>
      </g>
     </g>
     <g id="text_1">
      <!-- TensorFlow -->
      <g style="fill: #262626" transform="translate(40.114018 160.602203) scale(0.08 -0.08)">
       <defs>
        <path id="CMSS17-54" d="M 2317 3987 
L 2848 3987 
C 2925 3987 3002 3980 3078 3980 
L 3878 3980 
L 3878 4396 
L 218 4396 
L 218 3980 
L 1018 3980 
C 1094 3980 1171 3987 1248 3987 
L 1779 3987 
L 1779 0 
L 2317 0 
L 2317 3987 
z
" transform="scale(0.015625)"/>
        <path id="CMSS17-65" d="M 2502 1375 
C 2502 1587 2490 2001 2285 2347 
C 2061 2713 1696 2816 1421 2816 
C 755 2816 192 2184 192 1363 
C 192 579 774 -64 1510 -64 
C 1798 -64 2150 19 2470 249 
C 2470 275 2458 414 2451 421 
C 2451 433 2432 629 2432 655 
C 2125 408 1773 326 1517 326 
C 1107 326 666 667 646 1375 
L 2502 1375 
z
M 698 1728 
C 781 2086 1062 2425 1421 2425 
C 1517 2425 1965 2412 2080 1728 
L 698 1728 
z
" transform="scale(0.015625)"/>
        <path id="CMSS17-6e" d="M 2618 1878 
C 2618 2283 2522 2816 1798 2816 
C 1389 2816 1120 2604 941 2386 
L 941 2783 
L 474 2783 
L 474 0 
L 960 0 
L 960 1556 
C 960 1962 1114 2425 1549 2425 
C 2112 2425 2131 2045 2131 1826 
L 2131 0 
L 2618 0 
L 2618 1878 
z
" transform="scale(0.015625)"/>
        <path id="CMSS17-73" d="M 2061 2623 
C 1683 2803 1389 2816 1197 2816 
C 742 2816 198 2655 198 2009 
C 198 1363 902 1222 1094 1183 
C 1389 1126 1715 1062 1715 742 
C 1715 339 1254 339 1171 339 
C 915 339 563 409 243 639 
L 166 211 
C 531 0 883 -64 1178 -64 
C 1965 -64 2163 416 2163 780 
C 2163 1094 1984 1305 1862 1401 
C 1651 1567 1574 1587 1050 1695 
C 960 1708 646 1779 646 2067 
C 646 2431 1050 2431 1139 2431 
C 1555 2431 1811 2303 1984 2207 
L 2061 2623 
z
" transform="scale(0.015625)"/>
        <path id="CMSS17-6f" d="M 2829 1356 
C 2829 2175 2221 2816 1504 2816 
C 768 2816 173 2156 173 1356 
C 173 544 787 -64 1498 -64 
C 2227 -64 2829 563 2829 1356 
z
M 1504 339 
C 1050 339 659 710 659 1407 
C 659 2150 1114 2425 1498 2425 
C 1914 2425 2342 2124 2342 1407 
C 2342 684 1926 339 1504 339 
z
" transform="scale(0.015625)"/>
        <path id="CMSS17-72" d="M 954 1369 
C 954 1974 1395 2379 1958 2392 
L 1958 2816 
C 1549 2809 1165 2604 934 2270 
L 934 2783 
L 480 2783 
L 480 0 
L 954 0 
L 954 1369 
z
" transform="scale(0.015625)"/>
        <path id="CMSS17-46" d="M 2918 1984 
L 2918 2374 
L 1101 2374 
L 1101 3993 
L 1882 3993 
C 1958 3993 2035 3987 2112 3987 
L 3168 3987 
L 3168 4403 
L 563 4403 
L 563 0 
L 1101 0 
L 1101 1984 
L 2918 1984 
z
" transform="scale(0.015625)"/>
        <path id="CMSS17-6c" d="M 947 4416 
L 474 4416 
L 474 0 
L 947 0 
L 947 4416 
z
" transform="scale(0.015625)"/>
        <path id="CMSS17-77" d="M 4013 2752 
L 3526 2752 
L 3187 1600 
C 3117 1356 2918 684 2893 371 
L 2886 371 
C 2874 563 2765 1024 2586 1632 
L 2259 2752 
L 1818 2752 
L 1498 1657 
C 1338 1100 1216 627 1203 371 
L 1197 371 
C 1171 748 909 1632 870 1772 
L 582 2752 
L 83 2752 
L 915 0 
L 1402 0 
C 1734 1100 1990 1952 2010 2380 
C 2022 2169 2131 1715 2195 1491 
L 2618 0 
L 3181 0 
L 4013 2752 
z
" transform="scale(0.015625)"/>
       </defs>
       <use xlink:href="#CMSS17-54" transform="scale(0.996264)"/>
       <use xlink:href="#CMSS17-65" transform="translate(56.012199 0) scale(0.996264)"/>
       <use xlink:href="#CMSS17-6e" transform="translate(97.651021 0) scale(0.996264)"/>
       <use xlink:href="#CMSS17-73" transform="translate(145.855964 0) scale(0.996264)"/>
       <use xlink:href="#CMSS17-6f" transform="translate(181.769506 0) scale(0.996264)"/>
       <use xlink:href="#CMSS17-72" transform="translate(226.010675 0) scale(0.996264)"/>
       <use xlink:href="#CMSS17-46" transform="translate(257.920448 0) scale(0.996264)"/>
       <use xlink:href="#CMSS17-6c" transform="translate(311.210007 0) scale(0.996264)"/>
       <use xlink:href="#CMSS17-6f" transform="translate(333.39073 0) scale(0.996264)"/>
       <use xlink:href="#CMSS17-77" transform="translate(377.6319 0) scale(0.996264)"/>
      </g>
     </g>
    </g>
    <g id="xtick_2">
     <g id="line2d_2">
      <g>
       <use xlink:href="#me8c3849a18" x="100.372661" y="148.567401" style="stroke: #000000; stroke-width: 0.8"/>
      </g>
     </g>
     <g id="text_2">
      <!-- PyTorch -->
      <g style="fill: #262626" transform="translate(85.66372 160.602203) scale(0.08 -0.08)">
       <defs>
        <path id="CMSS17-50" d="M 2106 1856 
C 2874 1856 3501 2447 3501 3139 
C 3501 3818 2899 4416 2067 4416 
L 570 4416 
L 570 0 
L 1107 0 
L 1107 1856 
L 2106 1856 
z
M 1926 4057 
C 2669 4057 2995 3598 2995 3139 
C 2995 2711 2694 2227 1926 2227 
L 1094 2227 
L 1094 4057 
L 1926 4057 
z
" transform="scale(0.015625)"/>
        <path id="CMSS17-79" d="M 2675 2752 
L 2176 2752 
C 1632 1293 1446 701 1434 383 
L 1427 383 
C 1408 695 1126 1459 902 2006 
L 602 2752 
L 83 2752 
L 1216 14 
C 1146 -177 1043 -464 1011 -527 
C 870 -884 774 -884 672 -884 
C 646 -884 442 -877 211 -807 
L 250 -1229 
C 410 -1261 570 -1280 685 -1280 
C 845 -1280 1165 -1280 1459 -495 
L 2675 2752 
z
" transform="scale(0.015625)"/>
        <path id="CMSS17-63" d="M 2464 2540 
C 2464 2585 2170 2713 2093 2739 
C 1882 2816 1613 2816 1542 2816 
C 710 2816 211 2092 211 1363 
C 211 595 768 -64 1517 -64 
C 1946 -64 2253 76 2502 243 
L 2464 665 
C 2189 454 1869 339 1523 339 
C 1024 339 698 774 698 1369 
C 698 1830 909 2412 1549 2412 
C 1901 2412 2099 2342 2394 2143 
L 2464 2540 
z
" transform="scale(0.015625)"/>
        <path id="CMSS17-68" d="M 2618 1878 
C 2618 2283 2522 2816 1798 2816 
C 1395 2816 1133 2617 947 2399 
L 947 4416 
L 474 4416 
L 474 0 
L 960 0 
L 960 1556 
C 960 1962 1114 2425 1549 2425 
C 2112 2425 2131 2045 2131 1826 
L 2131 0 
L 2618 0 
L 2618 1878 
z
" transform="scale(0.015625)"/>
       </defs>
       <use xlink:href="#CMSS17-50" transform="scale(0.996264)"/>
       <use xlink:href="#CMSS17-79" transform="translate(59.735586 0) scale(0.996264)"/>
       <use xlink:href="#CMSS17-54" transform="translate(102.735728 0) scale(0.996264)"/>
       <use xlink:href="#CMSS17-6f" transform="translate(158.747926 0) scale(0.996264)"/>
       <use xlink:href="#CMSS17-72" transform="translate(202.989096 0) scale(0.996264)"/>
       <use xlink:href="#CMSS17-63" transform="translate(234.898869 0) scale(0.996264)"/>
       <use xlink:href="#CMSS17-68" transform="translate(276.537691 0) scale(0.996264)"/>
      </g>
     </g>
    </g>
    <g id="xtick_3">
     <g id="line2d_3">
      <g>
       <use xlink:href="#me8c3849a18" x="140.632401" y="148.567401" style="stroke: #000000; stroke-width: 0.8"/>
      </g>
     </g>
     <g id="text_3">
      <!-- JAX -->
      <g style="fill: #262626" transform="translate(132.987349 160.602203) scale(0.08 -0.08)">
       <defs>
        <path id="CMSS17-4a" d="M 2336 4416 
L 1811 4416 
L 1811 947 
C 1811 640 1683 262 1107 262 
C 781 262 506 416 333 608 
L 250 140 
C 646 -71 1011 -128 1280 -128 
C 1901 -128 2336 230 2336 928 
L 2336 4416 
z
" transform="scale(0.015625)"/>
        <path id="CMSS17-41" d="M 2272 4416 
L 1722 4416 
L 166 0 
L 653 0 
L 1101 1280 
L 2816 1280 
L 3270 0 
L 3827 0 
L 2272 4416 
z
M 2694 1638 
L 1222 1638 
C 1530 2530 1914 3638 1958 3924 
L 1965 3924 
C 2010 3663 2138 3281 2246 2956 
L 2694 1638 
z
" transform="scale(0.015625)"/>
        <path id="CMSS17-58" d="M 2214 2328 
L 3661 4416 
L 3072 4416 
L 1952 2761 
L 800 4416 
L 166 4416 
L 1690 2328 
L 83 0 
L 672 0 
L 1952 1940 
L 3277 0 
L 3910 0 
L 2214 2328 
z
" transform="scale(0.015625)"/>
       </defs>
       <use xlink:href="#CMSS17-4a" transform="scale(0.996264)"/>
       <use xlink:href="#CMSS17-41" transform="translate(44.121076 0) scale(0.996264)"/>
       <use xlink:href="#CMSS17-58" transform="translate(106.33893 0) scale(0.996264)"/>
      </g>
     </g>
    </g>
   </g>
   <g id="matplotlib.axis_2">
    <g id="ytick_1">
     <g id="line2d_4">
      <defs>
       <path id="mb2ded84d15" d="M 0 0 
L -3 0 
" style="stroke: #000000; stroke-width: 0.8"/>
      </defs>
      <g>
       <use xlink:href="#mb2ded84d15" x="38.372661" y="148.567401" style="stroke: #000000; stroke-width: 0.8"/>
      </g>
     </g>
     <g id="text_4">
      <!-- 0 -->
      <g style="fill: #262626" transform="translate(27.638478 151.334802) scale(0.08 -0.08)">
       <defs>
        <path id="CMSS17-30" d="M 2758 2073 
C 2758 2439 2752 3120 2490 3647 
C 2227 4153 1805 4288 1504 4288 
C 1069 4288 698 4031 506 3621 
C 301 3191 243 2748 243 2073 
C 243 1611 262 1046 493 551 
C 755 6 1197 -128 1498 -128 
C 1894 -128 2278 83 2496 525 
C 2720 988 2758 1495 2758 2073 
z
M 1498 262 
C 1011 262 864 821 819 1007 
C 742 1328 730 1636 730 2144 
C 730 2542 730 2992 851 3345 
C 998 3756 1254 3897 1498 3897 
C 1971 3897 2125 3422 2176 3255 
C 2272 2915 2272 2516 2272 2144 
C 2272 1546 2272 262 1498 262 
z
" transform="scale(0.015625)"/>
       </defs>
       <use xlink:href="#CMSS17-30" transform="scale(0.996264)"/>
      </g>
     </g>
    </g>
    <g id="ytick_2">
     <g id="line2d_5">
      <g>
       <use xlink:href="#mb2ded84d15" x="38.372661" y="120.847401" style="stroke: #000000; stroke-width: 0.8"/>
      </g>
     </g>
     <g id="text_5">
      <!-- 20 -->
      <g style="fill: #262626" transform="translate(23.404295 123.614802) scale(0.08 -0.08)">
       <defs>
        <path id="CMSS17-32" d="M 1651 1353 
C 1830 1538 2099 1761 2285 1984 
C 2464 2201 2701 2507 2701 2953 
C 2701 3655 2227 4288 1421 4288 
C 787 4288 422 3891 250 3272 
L 499 2928 
C 640 3508 838 3878 1338 3878 
C 1888 3878 2195 3431 2195 2940 
C 2195 2354 1747 1901 1408 1563 
C 1030 1187 659 805 301 409 
L 301 0 
L 2701 0 
L 2701 435 
L 1613 435 
C 1536 435 1459 428 1382 428 
L 742 428 
L 742 435 
L 1651 1353 
z
" transform="scale(0.015625)"/>
       </defs>
       <use xlink:href="#CMSS17-32" transform="scale(0.996264)"/>
       <use xlink:href="#CMSS17-30" transform="translate(46.843624 0) scale(0.996264)"/>
      </g>
     </g>
    </g>
    <g id="ytick_3">
     <g id="line2d_6">
      <g>
       <use xlink:href="#mb2ded84d15" x="38.372661" y="93.127401" style="stroke: #000000; stroke-width: 0.8"/>
      </g>
     </g>
     <g id="text_6">
      <!-- 40 -->
      <g style="fill: #262626" transform="translate(23.404295 95.894802) scale(0.08 -0.08)">
       <defs>
        <path id="CMSS17-34" d="M 2253 1088 
L 2835 1088 
L 2835 1478 
L 2253 1478 
L 2253 4224 
L 1690 4224 
L 166 1478 
L 166 1088 
L 1747 1088 
L 1747 0 
L 2253 0 
L 2253 1088 
z
M 659 1478 
C 1030 2139 1766 3474 1766 3927 
L 1766 1478 
L 659 1478 
z
" transform="scale(0.015625)"/>
       </defs>
       <use xlink:href="#CMSS17-34" transform="scale(0.996264)"/>
       <use xlink:href="#CMSS17-30" transform="translate(46.843624 0) scale(0.996264)"/>
      </g>
     </g>
    </g>
    <g id="ytick_4">
     <g id="line2d_7">
      <g>
       <use xlink:href="#mb2ded84d15" x="38.372661" y="65.407401" style="stroke: #000000; stroke-width: 0.8"/>
      </g>
     </g>
     <g id="text_7">
      <!-- 60 -->
      <g style="fill: #262626" transform="translate(23.404295 68.174802) scale(0.08 -0.08)">
       <defs>
        <path id="CMSS17-36" d="M 2496 4159 
C 2227 4268 2035 4288 1856 4288 
C 1024 4288 250 3408 250 2023 
C 250 268 986 -128 1510 -128 
C 1798 -128 2086 -39 2362 281 
C 2643 619 2752 900 2752 1392 
C 2752 2183 2362 2886 1779 2886 
C 1357 2886 992 2662 768 2381 
C 832 3290 1254 3897 1862 3897 
C 2029 3897 2246 3871 2496 3760 
L 2496 4159 
z
M 774 1372 
C 774 1423 774 1455 781 1551 
C 781 2049 1069 2496 1536 2496 
C 1837 2496 1990 2336 2106 2138 
C 2240 1889 2246 1653 2246 1392 
C 2246 1143 2246 894 2099 638 
C 1978 441 1818 268 1510 268 
C 902 268 800 1117 774 1372 
z
" transform="scale(0.015625)"/>
       </defs>
       <use xlink:href="#CMSS17-36" transform="scale(0.996264)"/>
       <use xlink:href="#CMSS17-30" transform="translate(46.843624 0) scale(0.996264)"/>
      </g>
     </g>
    </g>
    <g id="ytick_5">
     <g id="line2d_8">
      <g>
       <use xlink:href="#mb2ded84d15" x="38.372661" y="37.687401" style="stroke: #000000; stroke-width: 0.8"/>
      </g>
     </g>
     <g id="text_8">
      <!-- 80 -->
      <g style="fill: #262626" transform="translate(23.404295 40.454802) scale(0.08 -0.08)">
       <defs>
        <path id="CMSS17-38" d="M 1933 2246 
C 2419 2406 2669 2793 2669 3174 
C 2669 3774 2157 4288 1504 4288 
C 826 4288 333 3755 333 3174 
C 333 2799 576 2412 1069 2246 
C 442 2003 250 1516 250 1152 
C 250 448 819 -128 1498 -128 
C 2202 -128 2752 460 2752 1152 
C 2752 1574 2502 2022 1933 2246 
z
M 1504 2438 
C 1075 2438 787 2728 787 3167 
C 787 3613 1075 3897 1504 3897 
C 1901 3897 2214 3639 2214 3167 
C 2214 2703 1907 2438 1504 2438 
z
M 1504 268 
C 1139 268 749 518 749 1158 
C 749 1817 1184 2048 1498 2048 
C 1843 2048 2253 1804 2253 1158 
C 2253 492 1830 268 1504 268 
z
" transform="scale(0.015625)"/>
       </defs>
       <use xlink:href="#CMSS17-38" transform="scale(0.996264)"/>
       <use xlink:href="#CMSS17-30" transform="translate(46.843624 0) scale(0.996264)"/>
      </g>
     </g>
    </g>
    <g id="ytick_6">
     <g id="line2d_9">
      <g>
       <use xlink:href="#mb2ded84d15" x="38.372661" y="9.967401" style="stroke: #000000; stroke-width: 0.8"/>
      </g>
     </g>
     <g id="text_9">
      <!-- 100 -->
      <g style="fill: #262626" transform="translate(19.170112 12.734802) scale(0.08 -0.08)">
       <defs>
        <path id="CMSS17-31" d="M 1818 4288 
L 1696 4288 
C 1350 3949 947 3902 538 3891 
L 538 3520 
C 723 3526 1024 3539 1325 3673 
L 1325 371 
L 570 371 
L 570 0 
L 2573 0 
L 2573 371 
L 1818 371 
L 1818 4288 
z
" transform="scale(0.015625)"/>
       </defs>
       <use xlink:href="#CMSS17-31" transform="scale(0.996264)"/>
       <use xlink:href="#CMSS17-30" transform="translate(46.843624 0) scale(0.996264)"/>
       <use xlink:href="#CMSS17-30" transform="translate(93.687247 0) scale(0.996264)"/>
      </g>
     </g>
    </g>
    <g id="text_10">
     <!-- Average interest -->
     <g style="fill: #262626" transform="translate(13.42665 110.437105) rotate(-90) scale(0.09 -0.09)">
      <defs>
       <path id="CMSS17-76" d="M 2675 2752 
L 2176 2752 
L 1747 1555 
C 1613 1164 1421 627 1389 352 
L 1382 352 
C 1370 467 1318 633 1286 748 
C 1248 889 1197 1056 1158 1171 
L 595 2752 
L 83 2752 
L 1094 0 
L 1664 0 
L 2675 2752 
z
" transform="scale(0.015625)"/>
       <path id="CMSS17-61" d="M 2406 1789 
C 2406 2399 1978 2816 1402 2816 
C 1120 2816 813 2764 461 2559 
L 499 2133 
C 659 2250 934 2438 1395 2438 
C 1722 2438 1920 2185 1920 1782 
L 1920 1536 
C 896 1504 256 1209 256 711 
C 256 452 416 -64 947 -64 
C 1043 -64 1562 -52 1933 224 
L 1933 -13 
L 2406 -13 
L 2406 1789 
z
M 1920 824 
C 1920 711 1920 559 1728 446 
C 1562 339 1350 326 1261 326 
C 941 326 723 503 723 723 
C 723 1165 1722 1209 1920 1216 
L 1920 824 
z
" transform="scale(0.015625)"/>
       <path id="CMSS17-67" d="M 2848 2816 
C 2483 2809 2170 2739 1914 2617 
C 1702 2783 1485 2816 1338 2816 
C 781 2816 358 2356 358 1824 
C 358 1481 550 1222 563 1209 
C 448 1049 384 876 384 684 
C 384 460 474 300 544 211 
C 211 6 166 -308 166 -429 
C 166 -896 749 -1280 1498 -1280 
C 2253 -1280 2835 -896 2835 -423 
C 2835 460 1856 467 1587 467 
L 1069 467 
C 973 467 717 467 717 793 
C 717 921 774 1004 781 1011 
C 877 940 1075 832 1338 832 
C 1869 832 2310 1279 2310 1824 
C 2310 2128 2170 2349 2112 2425 
L 2131 2425 
C 2150 2425 2419 2444 2515 2444 
C 2720 2444 2739 2438 2918 2419 
L 2848 2816 
z
M 1338 1184 
C 1120 1184 813 1317 813 1824 
C 813 2375 1165 2463 1331 2463 
C 1549 2463 1856 2330 1856 1824 
C 1856 1272 1504 1184 1338 1184 
z
M 1581 0 
C 1734 0 2381 0 2381 -436 
C 2381 -711 1984 -928 1504 -928 
C 1018 -928 621 -717 621 -429 
C 621 -397 621 0 1062 0 
L 1581 0 
z
" transform="scale(0.015625)"/>
       <path id="CMSS17-69" d="M 979 4224 
L 442 4224 
L 442 3686 
L 979 3686 
L 979 4224 
z
M 947 2752 
L 474 2752 
L 474 0 
L 947 0 
L 947 2752 
z
" transform="scale(0.015625)"/>
       <path id="CMSS17-74" d="M 1069 2380 
L 1901 2380 
L 1901 2752 
L 1069 2752 
L 1069 3520 
L 614 3520 
L 614 2752 
L 109 2752 
L 109 2380 
L 602 2380 
L 602 751 
C 602 384 685 -64 1107 -64 
C 1427 -64 1722 25 2003 172 
L 1901 551 
C 1747 416 1562 339 1363 339 
C 1082 339 1069 699 1069 860 
L 1069 2380 
z
" transform="scale(0.015625)"/>
      </defs>
      <use xlink:href="#CMSS17-41" transform="scale(0.996264)"/>
      <use xlink:href="#CMSS17-76" transform="translate(62.217855 0) scale(0.996264)"/>
      <use xlink:href="#CMSS17-65" transform="translate(105.217997 0) scale(0.996264)"/>
      <use xlink:href="#CMSS17-72" transform="translate(146.856819 0) scale(0.996264)"/>
      <use xlink:href="#CMSS17-61" transform="translate(178.766591 0) scale(0.996264)"/>
      <use xlink:href="#CMSS17-67" transform="translate(223.688512 0) scale(0.996264)"/>
      <use xlink:href="#CMSS17-65" transform="translate(270.532135 0) scale(0.996264)"/>
      <use xlink:href="#CMSS17-69" transform="translate(343.40007 0) scale(0.996264)"/>
      <use xlink:href="#CMSS17-6e" transform="translate(365.580793 0) scale(0.996264)"/>
      <use xlink:href="#CMSS17-74" transform="translate(413.785736 0) scale(0.996264)"/>
      <use xlink:href="#CMSS17-65" transform="translate(447.617303 0) scale(0.996264)"/>
      <use xlink:href="#CMSS17-72" transform="translate(489.256125 0) scale(0.996264)"/>
      <use xlink:href="#CMSS17-65" transform="translate(521.165898 0) scale(0.996264)"/>
      <use xlink:href="#CMSS17-73" transform="translate(562.80472 0) scale(0.996264)"/>
      <use xlink:href="#CMSS17-74" transform="translate(598.718262 0) scale(0.996264)"/>
     </g>
    </g>
   </g>
   <g id="patch_3">
    <path d="M 44.009024 148.567401 
L 76.216816 148.567401 
L 76.216816 89.073351 
L 44.009024 89.073351 
z
" clip-path="url(#p07a2cded48)"/>
   </g>
   <g id="patch_4">
    <path d="M 84.268765 148.567401 
L 116.476557 148.567401 
L 116.476557 101.685951 
L 84.268765 101.685951 
z
" clip-path="url(#p07a2cded48)" style="fill: #3f4d90"/>
   </g>
   <g id="patch_5">
    <path d="M 124.528505 148.567401 
L 156.736297 148.567401 
L 156.736297 147.897501 
L 124.528505 147.897501 
z
" clip-path="url(#p07a2cded48)" style="fill: #8e8e8e"/>
   </g>
   <g id="patch_6">
    <path d="M 38.372661 148.567401 
L 38.372661 9.967401 
" style="fill: none; stroke: #000000; stroke-linejoin: miter; stroke-linecap: square"/>
   </g>
   <g id="patch_7">
    <path d="M 38.372661 148.567401 
L 162.372661 148.567401 
" style="fill: none; stroke: #000000; stroke-linejoin: miter; stroke-linecap: square"/>
   </g>
  </g>
  <g id="axes_2">
   <g id="patch_8">
    <path d="M 208.872661 148.567401 
L 456.872661 148.567401 
L 456.872661 9.967401 
L 208.872661 9.967401 
z
" style="fill: #ffffff"/>
   </g>
   <g id="matplotlib.axis_3">
    <g id="xtick_4">
     <g id="line2d_10">
      <g>
       <use xlink:href="#me8c3849a18" x="208.872661" y="148.567401" style="stroke: #000000; stroke-width: 0.8"/>
      </g>
     </g>
     <g id="text_11">
      <!-- 2015 -->
      <g style="fill: #262626" transform="translate(200.404295 160.602203) scale(0.08 -0.08)">
       <defs>
        <path id="CMSS17-35" d="M 934 3814 
L 2502 3814 
L 2502 4224 
L 467 4224 
L 467 1830 
L 896 1830 
C 1011 2103 1248 2304 1555 2304 
C 1843 2304 2163 2044 2163 1299 
C 2163 502 1709 268 1376 268 
C 966 268 589 521 422 871 
L 218 508 
C 512 51 992 -128 1376 -128 
C 2118 -128 2701 508 2701 1286 
C 2701 2083 2182 2694 1562 2694 
C 1338 2694 1120 2617 934 2464 
L 934 3814 
z
" transform="scale(0.015625)"/>
       </defs>
       <use xlink:href="#CMSS17-32" transform="scale(0.996264)"/>
       <use xlink:href="#CMSS17-30" transform="translate(46.843624 0) scale(0.996264)"/>
       <use xlink:href="#CMSS17-31" transform="translate(93.687247 0) scale(0.996264)"/>
       <use xlink:href="#CMSS17-35" transform="translate(140.530871 0) scale(0.996264)"/>
      </g>
     </g>
    </g>
    <g id="xtick_5">
     <g id="line2d_11">
      <g>
       <use xlink:href="#me8c3849a18" x="257.711023" y="148.567401" style="stroke: #000000; stroke-width: 0.8"/>
      </g>
     </g>
     <g id="text_12">
      <!-- 2017 -->
      <g style="fill: #262626" transform="translate(249.242657 160.602203) scale(0.08 -0.08)">
       <defs>
        <path id="CMSS17-37" d="M 1389 3788 
C 1466 3788 1542 3795 1619 3795 
L 2355 3795 
C 1440 2715 915 1350 915 -64 
L 1427 -64 
C 1427 1305 1875 2695 2752 3807 
L 2752 4224 
L 250 4224 
L 250 3788 
L 1389 3788 
z
" transform="scale(0.015625)"/>
       </defs>
       <use xlink:href="#CMSS17-32" transform="scale(0.996264)"/>
       <use xlink:href="#CMSS17-30" transform="translate(46.843624 0) scale(0.996264)"/>
       <use xlink:href="#CMSS17-31" transform="translate(93.687247 0) scale(0.996264)"/>
       <use xlink:href="#CMSS17-37" transform="translate(140.530871 0) scale(0.996264)"/>
      </g>
     </g>
    </g>
    <g id="xtick_6">
     <g id="line2d_12">
      <g>
       <use xlink:href="#me8c3849a18" x="306.482574" y="148.567401" style="stroke: #000000; stroke-width: 0.8"/>
      </g>
     </g>
     <g id="text_13">
      <!-- 2019 -->
      <g style="fill: #262626" transform="translate(298.014209 160.602203) scale(0.08 -0.08)">
       <defs>
        <path id="CMSS17-39" d="M 435 172 
C 614 19 845 -128 1235 -128 
C 2010 -128 2752 738 2752 2136 
C 2752 3987 1952 4288 1523 4288 
C 1094 4288 819 4095 582 3789 
C 301 3438 250 3125 250 2761 
C 250 2327 326 2059 506 1753 
C 749 1356 973 1273 1222 1273 
C 1600 1273 1978 1459 2234 1778 
C 2189 908 1798 268 1235 268 
C 1005 268 819 340 634 516 
L 435 172 
z
M 2214 2774 
C 2221 2729 2221 2646 2221 2621 
C 2221 2085 1914 1664 1466 1664 
C 1171 1664 1018 1817 902 2015 
C 762 2263 755 2506 755 2761 
C 755 3010 755 3284 934 3559 
C 1069 3757 1235 3897 1523 3897 
C 2112 3897 2208 3036 2214 2774 
z
" transform="scale(0.015625)"/>
       </defs>
       <use xlink:href="#CMSS17-32" transform="scale(0.996264)"/>
       <use xlink:href="#CMSS17-30" transform="translate(46.843624 0) scale(0.996264)"/>
       <use xlink:href="#CMSS17-31" transform="translate(93.687247 0) scale(0.996264)"/>
       <use xlink:href="#CMSS17-39" transform="translate(140.530871 0) scale(0.996264)"/>
      </g>
     </g>
    </g>
    <g id="xtick_7">
     <g id="line2d_13">
      <g>
       <use xlink:href="#me8c3849a18" x="355.320936" y="148.567401" style="stroke: #000000; stroke-width: 0.8"/>
      </g>
     </g>
     <g id="text_14">
      <!-- 2021 -->
      <g style="fill: #262626" transform="translate(346.852571 160.602203) scale(0.08 -0.08)">
       <use xlink:href="#CMSS17-32" transform="scale(0.996264)"/>
       <use xlink:href="#CMSS17-30" transform="translate(46.843624 0) scale(0.996264)"/>
       <use xlink:href="#CMSS17-32" transform="translate(93.687247 0) scale(0.996264)"/>
       <use xlink:href="#CMSS17-31" transform="translate(140.530871 0) scale(0.996264)"/>
      </g>
     </g>
    </g>
    <g id="xtick_8">
     <g id="line2d_14">
      <g>
       <use xlink:href="#me8c3849a18" x="404.092488" y="148.567401" style="stroke: #000000; stroke-width: 0.8"/>
      </g>
     </g>
     <g id="text_15">
      <!-- 2023 -->
      <g style="fill: #262626" transform="translate(395.624123 160.602203) scale(0.08 -0.08)">
       <defs>
        <path id="CMSS17-33" d="M 1005 2060 
L 1440 2060 
C 2042 2060 2214 1532 2214 1164 
C 2214 662 1933 268 1472 268 
C 1114 268 608 449 320 926 
C 275 700 275 687 250 533 
C 550 89 1037 -128 1485 -128 
C 2214 -128 2752 481 2752 1158 
C 2752 1667 2400 2092 1920 2252 
C 2304 2463 2586 2860 2586 3321 
C 2586 3859 2093 4288 1491 4288 
C 941 4288 512 3948 333 3583 
C 378 3519 493 3334 550 3238 
C 691 3615 1056 3897 1485 3897 
C 1843 3897 2080 3660 2080 3321 
C 2080 2969 1856 2585 1478 2496 
C 1453 2496 1056 2457 1005 2451 
L 1005 2060 
z
" transform="scale(0.015625)"/>
       </defs>
       <use xlink:href="#CMSS17-32" transform="scale(0.996264)"/>
       <use xlink:href="#CMSS17-30" transform="translate(46.843624 0) scale(0.996264)"/>
       <use xlink:href="#CMSS17-32" transform="translate(93.687247 0) scale(0.996264)"/>
       <use xlink:href="#CMSS17-33" transform="translate(140.530871 0) scale(0.996264)"/>
      </g>
     </g>
    </g>
    <g id="xtick_9">
     <g id="line2d_15">
      <g>
       <use xlink:href="#me8c3849a18" x="452.93085" y="148.567401" style="stroke: #000000; stroke-width: 0.8"/>
      </g>
     </g>
     <g id="text_16">
      <!-- 2025 -->
      <g style="fill: #262626" transform="translate(444.462485 160.602203) scale(0.08 -0.08)">
       <use xlink:href="#CMSS17-32" transform="scale(0.996264)"/>
       <use xlink:href="#CMSS17-30" transform="translate(46.843624 0) scale(0.996264)"/>
       <use xlink:href="#CMSS17-32" transform="translate(93.687247 0) scale(0.996264)"/>
       <use xlink:href="#CMSS17-35" transform="translate(140.530871 0) scale(0.996264)"/>
      </g>
     </g>
    </g>
   </g>
   <g id="matplotlib.axis_4">
    <g id="ytick_7">
     <g id="line2d_16">
      <g>
       <use xlink:href="#mb2ded84d15" x="208.872661" y="141.967401" style="stroke: #000000; stroke-width: 0.8"/>
      </g>
     </g>
     <g id="text_17">
      <!-- 0 -->
      <g style="fill: #262626" transform="translate(198.138478 144.734802) scale(0.08 -0.08)">
       <use xlink:href="#CMSS17-30" transform="scale(0.996264)"/>
      </g>
     </g>
    </g>
    <g id="ytick_8">
     <g id="line2d_17">
      <g>
       <use xlink:href="#mb2ded84d15" x="208.872661" y="115.567401" style="stroke: #000000; stroke-width: 0.8"/>
      </g>
     </g>
     <g id="text_18">
      <!-- 20 -->
      <g style="fill: #262626" transform="translate(193.904295 118.334802) scale(0.08 -0.08)">
       <use xlink:href="#CMSS17-32" transform="scale(0.996264)"/>
       <use xlink:href="#CMSS17-30" transform="translate(46.843624 0) scale(0.996264)"/>
      </g>
     </g>
    </g>
    <g id="ytick_9">
     <g id="line2d_18">
      <g>
       <use xlink:href="#mb2ded84d15" x="208.872661" y="89.167401" style="stroke: #000000; stroke-width: 0.8"/>
      </g>
     </g>
     <g id="text_19">
      <!-- 40 -->
      <g style="fill: #262626" transform="translate(193.904295 91.934802) scale(0.08 -0.08)">
       <use xlink:href="#CMSS17-34" transform="scale(0.996264)"/>
       <use xlink:href="#CMSS17-30" transform="translate(46.843624 0) scale(0.996264)"/>
      </g>
     </g>
    </g>
    <g id="ytick_10">
     <g id="line2d_19">
      <g>
       <use xlink:href="#mb2ded84d15" x="208.872661" y="62.767401" style="stroke: #000000; stroke-width: 0.8"/>
      </g>
     </g>
     <g id="text_20">
      <!-- 60 -->
      <g style="fill: #262626" transform="translate(193.904295 65.534802) scale(0.08 -0.08)">
       <use xlink:href="#CMSS17-36" transform="scale(0.996264)"/>
       <use xlink:href="#CMSS17-30" transform="translate(46.843624 0) scale(0.996264)"/>
      </g>
     </g>
    </g>
    <g id="ytick_11">
     <g id="line2d_20">
      <g>
       <use xlink:href="#mb2ded84d15" x="208.872661" y="36.367401" style="stroke: #000000; stroke-width: 0.8"/>
      </g>
     </g>
     <g id="text_21">
      <!-- 80 -->
      <g style="fill: #262626" transform="translate(193.904295 39.134802) scale(0.08 -0.08)">
       <use xlink:href="#CMSS17-38" transform="scale(0.996264)"/>
       <use xlink:href="#CMSS17-30" transform="translate(46.843624 0) scale(0.996264)"/>
      </g>
     </g>
    </g>
    <g id="ytick_12">
     <g id="line2d_21">
      <g>
       <use xlink:href="#mb2ded84d15" x="208.872661" y="9.967401" style="stroke: #000000; stroke-width: 0.8"/>
      </g>
     </g>
     <g id="text_22">
      <!-- 100 -->
      <g style="fill: #262626" transform="translate(189.670112 12.734802) scale(0.08 -0.08)">
       <use xlink:href="#CMSS17-31" transform="scale(0.996264)"/>
       <use xlink:href="#CMSS17-30" transform="translate(46.843624 0) scale(0.996264)"/>
       <use xlink:href="#CMSS17-30" transform="translate(93.687247 0) scale(0.996264)"/>
      </g>
     </g>
    </g>
    <g id="text_23">
     <!-- Interest over time -->
     <g style="fill: #262626" transform="translate(183.92665 113.290958) rotate(-90) scale(0.09 -0.09)">
      <defs>
       <path id="CMSS17-49" d="M 1094 4416 
L 557 4416 
L 557 0 
L 1094 0 
L 1094 4416 
z
" transform="scale(0.015625)"/>
       <path id="CMSS17-6d" d="M 4288 1878 
C 4288 2309 4179 2816 3462 2816 
C 2982 2816 2694 2515 2566 2328 
C 2451 2668 2182 2816 1798 2816 
C 1363 2816 1088 2566 941 2386 
L 941 2783 
L 474 2783 
L 474 0 
L 960 0 
L 960 1556 
C 960 1936 1101 2425 1555 2425 
C 2138 2425 2138 2013 2138 1826 
L 2138 0 
L 2624 0 
L 2624 1556 
C 2624 1936 2765 2425 3219 2425 
C 3802 2425 3802 2013 3802 1826 
L 3802 0 
L 4288 0 
L 4288 1878 
z
" transform="scale(0.015625)"/>
      </defs>
      <use xlink:href="#CMSS17-49" transform="scale(0.996264)"/>
      <use xlink:href="#CMSS17-6e" transform="translate(25.783926 0) scale(0.996264)"/>
      <use xlink:href="#CMSS17-74" transform="translate(73.988869 0) scale(0.996264)"/>
      <use xlink:href="#CMSS17-65" transform="translate(107.820435 0) scale(0.996264)"/>
      <use xlink:href="#CMSS17-72" transform="translate(149.459257 0) scale(0.996264)"/>
      <use xlink:href="#CMSS17-65" transform="translate(181.36903 0) scale(0.996264)"/>
      <use xlink:href="#CMSS17-73" transform="translate(223.007852 0) scale(0.996264)"/>
      <use xlink:href="#CMSS17-74" transform="translate(258.921394 0) scale(0.996264)"/>
      <use xlink:href="#CMSS17-6f" transform="translate(323.982073 0) scale(0.996264)"/>
      <use xlink:href="#CMSS17-76" transform="translate(370.825697 0) scale(0.996264)"/>
      <use xlink:href="#CMSS17-65" transform="translate(413.825839 0) scale(0.996264)"/>
      <use xlink:href="#CMSS17-72" transform="translate(455.464661 0) scale(0.996264)"/>
      <use xlink:href="#CMSS17-74" transform="translate(518.603546 0) scale(0.996264)"/>
      <use xlink:href="#CMSS17-69" transform="translate(552.435113 0) scale(0.996264)"/>
      <use xlink:href="#CMSS17-6d" transform="translate(574.615836 0) scale(0.996264)"/>
      <use xlink:href="#CMSS17-65" transform="translate(648.84509 0) scale(0.996264)"/>
     </g>
    </g>
   </g>
   <g id="line2d_22">
    <path d="M 208.872661 141.967401 
L 210.943781 141.967401 
L 212.814471 141.967401 
L 214.885592 141.967401 
L 216.889902 141.967401 
L 218.961023 141.967401 
L 220.965333 141.967401 
L 223.036454 141.967401 
L 225.107574 141.967401 
L 227.111885 141.967401 
L 229.183005 120.847401 
L 231.187316 134.047401 
L 233.258436 134.047401 
L 235.329557 132.727401 
L 237.267057 130.087401 
L 239.338178 128.767401 
L 241.342488 122.167401 
L 243.413609 122.167401 
L 245.417919 123.487401 
L 247.48904 123.487401 
L 249.560161 118.207401 
L 251.564471 112.927401 
L 253.635592 106.327401 
L 255.639902 102.367401 
L 257.711023 99.727401 
L 259.782143 81.247401 
L 261.652833 74.647401 
L 263.723954 72.007401 
L 265.728264 69.367401 
L 267.799385 64.087401 
L 269.803695 68.047401 
L 271.874816 70.687401 
L 273.945936 68.047401 
L 275.950247 61.447401 
L 278.021368 57.487401 
L 280.025678 58.807401 
L 282.096799 58.807401 
L 284.167919 58.807401 
L 286.038609 45.607401 
L 288.10973 48.247401 
L 290.11404 46.927401 
L 292.185161 54.847401 
L 294.189471 56.167401 
L 296.260592 56.167401 
L 298.331712 57.487401 
L 300.336023 50.887401 
L 302.407143 52.207401 
L 304.411454 66.727401 
L 306.482574 64.087401 
L 308.553695 60.127401 
L 310.424385 52.207401 
L 312.495505 53.527401 
L 314.499816 61.447401 
L 316.570936 61.447401 
L 318.575247 57.487401 
L 320.646368 68.047401 
L 322.717488 64.087401 
L 324.721799 60.127401 
L 326.792919 62.767401 
L 328.79723 72.007401 
L 330.86835 74.647401 
L 332.939471 66.727401 
L 334.876971 70.687401 
L 336.948092 69.367401 
L 338.952402 68.047401 
L 341.023523 68.047401 
L 343.027833 64.087401 
L 345.098954 75.967401 
L 347.170074 77.287401 
L 349.174385 87.847401 
L 351.245505 89.167401 
L 353.249816 90.487401 
L 355.320936 94.447401 
L 357.392057 93.127401 
L 359.262747 91.807401 
L 361.333868 91.807401 
L 363.338178 91.807401 
L 365.409299 91.807401 
L 367.413609 94.447401 
L 369.48473 98.407401 
L 371.55585 95.767401 
L 373.560161 94.447401 
L 375.631281 91.807401 
L 377.635592 94.447401 
L 379.706712 82.567401 
L 381.777833 70.687401 
L 383.648523 53.527401 
L 385.719643 57.487401 
L 387.723954 58.807401 
L 389.795074 62.767401 
L 391.799385 75.967401 
L 393.870505 78.607401 
L 395.941626 74.647401 
L 397.945936 74.647401 
L 400.017057 72.007401 
L 402.021368 78.607401 
L 404.092488 78.607401 
L 406.163609 68.047401 
L 408.034299 69.367401 
L 410.105419 70.687401 
L 412.10973 72.007401 
L 414.18085 77.287401 
L 416.185161 81.247401 
L 418.256281 83.887401 
L 420.327402 86.527401 
L 422.331712 83.887401 
L 424.402833 79.927401 
L 426.407143 87.847401 
L 428.478264 87.847401 
L 430.549385 82.567401 
L 432.486885 74.647401 
L 434.558005 79.927401 
L 436.562316 78.607401 
L 438.633436 89.167401 
L 440.637747 91.807401 
L 442.708868 95.767401 
L 444.779988 97.087401 
L 446.784299 94.447401 
L 448.855419 93.127401 
L 450.85973 98.407401 
" clip-path="url(#pc8a8ad132b)" style="fill: none; stroke: #000000; stroke-width: 2; stroke-linecap: round"/>
   </g>
   <g id="line2d_23">
    <path d="M 208.872661 141.967401 
L 210.943781 141.967401 
L 212.814471 141.967401 
L 214.885592 141.967401 
L 216.889902 141.967401 
L 218.961023 141.967401 
L 220.965333 141.967401 
L 223.036454 141.967401 
L 225.107574 141.967401 
L 227.111885 141.967401 
L 229.183005 141.967401 
L 231.187316 141.967401 
L 233.258436 141.967401 
L 235.329557 141.967401 
L 237.267057 141.967401 
L 239.338178 141.967401 
L 241.342488 141.967401 
L 243.413609 141.967401 
L 245.417919 141.967401 
L 247.48904 141.967401 
L 249.560161 141.967401 
L 251.564471 141.967401 
L 253.635592 141.967401 
L 255.639902 141.967401 
L 257.711023 141.967401 
L 259.782143 141.967401 
L 261.652833 141.967401 
L 263.723954 141.967401 
L 265.728264 141.967401 
L 267.799385 141.967401 
L 269.803695 141.967401 
L 271.874816 141.967401 
L 273.945936 141.967401 
L 275.950247 141.967401 
L 278.021368 139.327401 
L 280.025678 131.407401 
L 282.096799 127.447401 
L 284.167919 126.127401 
L 286.038609 122.167401 
L 288.10973 120.847401 
L 290.11404 118.207401 
L 292.185161 119.527401 
L 294.189471 118.207401 
L 296.260592 116.887401 
L 298.331712 116.887401 
L 300.336023 110.287401 
L 302.407143 107.647401 
L 304.411454 110.287401 
L 306.482574 111.607401 
L 308.553695 107.647401 
L 310.424385 103.687401 
L 312.495505 101.047401 
L 314.499816 105.007401 
L 316.570936 102.367401 
L 318.575247 98.407401 
L 320.646368 99.727401 
L 322.717488 101.047401 
L 324.721799 98.407401 
L 326.792919 91.807401 
L 328.79723 98.407401 
L 330.86835 102.367401 
L 332.939471 93.127401 
L 334.876971 93.127401 
L 336.948092 90.487401 
L 338.952402 89.167401 
L 341.023523 87.847401 
L 343.027833 83.887401 
L 345.098954 87.847401 
L 347.170074 91.807401 
L 349.174385 101.047401 
L 351.245505 95.767401 
L 353.249816 101.047401 
L 355.320936 103.687401 
L 357.392057 102.367401 
L 359.262747 95.767401 
L 361.333868 91.807401 
L 363.338178 94.447401 
L 365.409299 95.767401 
L 367.413609 97.087401 
L 369.48473 99.727401 
L 371.55585 97.087401 
L 373.560161 91.807401 
L 375.631281 86.527401 
L 377.635592 90.487401 
L 379.706712 79.927401 
L 381.777833 66.727401 
L 383.648523 56.167401 
L 385.719643 49.567401 
L 387.723954 61.447401 
L 389.795074 64.087401 
L 391.799385 69.367401 
L 393.870505 73.327401 
L 395.941626 72.007401 
L 397.945936 68.047401 
L 400.017057 66.727401 
L 402.021368 68.047401 
L 404.092488 70.687401 
L 406.163609 54.847401 
L 408.034299 48.247401 
L 410.105419 53.527401 
L 412.10973 58.807401 
L 414.18085 54.847401 
L 416.185161 37.687401 
L 418.256281 25.807401 
L 420.327402 33.727401 
L 422.331712 23.167401 
L 424.402833 20.527401 
L 426.407143 37.687401 
L 428.478264 35.047401 
L 430.549385 24.487401 
L 432.486885 17.887401 
L 434.558005 9.967401 
L 436.562316 23.167401 
L 438.633436 36.367401 
L 440.637747 29.767401 
L 442.708868 40.327401 
L 444.779988 41.647401 
L 446.784299 37.687401 
L 448.855419 31.087401 
L 450.85973 40.327401 
" clip-path="url(#pc8a8ad132b)" style="fill: none; stroke: #3f4d90; stroke-width: 2; stroke-linecap: round"/>
   </g>
   <g id="line2d_24">
    <path d="M 208.872661 141.967401 
L 210.943781 141.967401 
L 212.814471 141.967401 
L 214.885592 141.967401 
L 216.889902 141.967401 
L 218.961023 141.967401 
L 220.965333 141.967401 
L 223.036454 141.967401 
L 225.107574 141.967401 
L 227.111885 141.967401 
L 229.183005 141.967401 
L 231.187316 141.967401 
L 233.258436 141.967401 
L 235.329557 141.967401 
L 237.267057 141.967401 
L 239.338178 141.967401 
L 241.342488 141.967401 
L 243.413609 141.967401 
L 245.417919 141.967401 
L 247.48904 141.967401 
L 249.560161 141.967401 
L 251.564471 141.967401 
L 253.635592 141.967401 
L 255.639902 141.967401 
L 257.711023 141.967401 
L 259.782143 141.967401 
L 261.652833 141.967401 
L 263.723954 141.967401 
L 265.728264 141.967401 
L 267.799385 141.967401 
L 269.803695 141.967401 
L 271.874816 141.967401 
L 273.945936 141.967401 
L 275.950247 141.967401 
L 278.021368 141.967401 
L 280.025678 141.967401 
L 282.096799 141.967401 
L 284.167919 141.967401 
L 286.038609 141.967401 
L 288.10973 141.967401 
L 290.11404 141.967401 
L 292.185161 141.967401 
L 294.189471 141.967401 
L 296.260592 141.967401 
L 298.331712 141.967401 
L 300.336023 141.967401 
L 302.407143 141.967401 
L 304.411454 141.967401 
L 306.482574 141.967401 
L 308.553695 141.967401 
L 310.424385 141.967401 
L 312.495505 141.967401 
L 314.499816 141.967401 
L 316.570936 141.967401 
L 318.575247 141.967401 
L 320.646368 141.967401 
L 322.717488 141.967401 
L 324.721799 141.967401 
L 326.792919 141.967401 
L 328.79723 141.967401 
L 330.86835 141.967401 
L 332.939471 141.967401 
L 334.876971 141.967401 
L 336.948092 141.967401 
L 338.952402 141.967401 
L 341.023523 141.967401 
L 343.027833 141.967401 
L 345.098954 141.967401 
L 347.170074 141.967401 
L 349.174385 141.967401 
L 351.245505 141.967401 
L 353.249816 141.967401 
L 355.320936 141.967401 
L 357.392057 141.967401 
L 359.262747 141.967401 
L 361.333868 141.967401 
L 363.338178 141.967401 
L 365.409299 141.967401 
L 367.413609 141.967401 
L 369.48473 141.967401 
L 371.55585 141.967401 
L 373.560161 141.967401 
L 375.631281 141.967401 
L 377.635592 141.967401 
L 379.706712 141.967401 
L 381.777833 141.967401 
L 383.648523 141.967401 
L 385.719643 141.967401 
L 387.723954 141.967401 
L 389.795074 141.967401 
L 391.799385 141.967401 
L 393.870505 141.967401 
L 395.941626 141.967401 
L 397.945936 140.647401 
L 400.017057 140.647401 
L 402.021368 140.647401 
L 404.092488 140.647401 
L 406.163609 140.647401 
L 408.034299 140.647401 
L 410.105419 141.967401 
L 412.10973 141.967401 
L 414.18085 141.967401 
L 416.185161 141.967401 
L 418.256281 141.967401 
L 420.327402 141.967401 
L 422.331712 141.967401 
L 424.402833 141.967401 
L 426.407143 140.647401 
L 428.478264 140.647401 
L 430.549385 139.327401 
L 432.486885 135.367401 
L 434.558005 135.367401 
L 436.562316 136.687401 
L 438.633436 135.367401 
L 440.637747 136.687401 
L 442.708868 135.367401 
L 444.779988 135.367401 
L 446.784299 134.047401 
L 448.855419 135.367401 
L 450.85973 136.687401 
" clip-path="url(#pc8a8ad132b)" style="fill: none; stroke: #8e8e8e; stroke-width: 2; stroke-linecap: round"/>
   </g>
   <g id="patch_9">
    <path d="M 208.872661 148.567401 
L 208.872661 9.967401 
" style="fill: none; stroke: #000000; stroke-linejoin: miter; stroke-linecap: square"/>
   </g>
   <g id="patch_10">
    <path d="M 208.872661 148.567401 
L 456.872661 148.567401 
" style="fill: none; stroke: #000000; stroke-linejoin: miter; stroke-linecap: square"/>
   </g>
  </g>
 </g>
 <defs>
  <clipPath id="p07a2cded48">
   <rect x="38.372661" y="9.967401" width="124" height="138.6"/>
  </clipPath>
  <clipPath id="pc8a8ad132b">
   <rect x="208.872661" y="9.967401" width="248" height="138.6"/>
  </clipPath>
 </defs>
</svg>
